<?xml version="1.0" encoding="utf-8"?>
<!-- Generator: Adobe Illustrator 16.0.0, SVG Export Plug-In . SVG Version: 6.00 Build 0)  -->
<!DOCTYPE svg PUBLIC "-//W3C//DTD SVG 1.1//EN" "http://www.w3.org/Graphics/SVG/1.1/DTD/svg11.dtd">
<svg version="1.1" id="圖層_1" xmlns="http://www.w3.org/2000/svg" xmlns:xlink="http://www.w3.org/1999/xlink" x="0px" y="0px"
	 width="50px" height="50px" viewBox="0 0 50 50" enable-background="new 0 0 50 50" xml:space="preserve">
<g id="圖層_2">
</g>
<path fill-rule="evenodd" clip-rule="evenodd" d="M43.072,42.679H7.563c-0.788,0-1.427-0.699-1.427-1.562v-2.604
	c0-0.862,0.639-1.562,1.427-1.562h35.509c0.789,0,1.428,0.699,1.428,1.562v2.604C44.5,41.979,43.861,42.679,43.072,42.679z
	 M43.072,28.363H7.563c-0.788,0-1.427-0.699-1.427-1.562v-2.603c0-0.863,0.639-1.562,1.427-1.562h35.509
	c0.789,0,1.428,0.699,1.428,1.562v2.603C44.5,27.664,43.861,28.363,43.072,28.363z M43.072,14.047H7.563
	c-0.788,0-1.427-0.699-1.427-1.562V9.883c0-0.863,0.639-1.562,1.427-1.562h35.509c0.789,0,1.428,0.699,1.428,1.562v2.603
	C44.5,13.349,43.861,14.047,43.072,14.047z"/>
</svg>
