<svg id="圖層_1" data-name="圖層 1" xmlns="http://www.w3.org/2000/svg" viewBox="0 0 26.14 29.83"><defs><style>.cls-1{fill:#8597a8;}</style></defs><path class="cls-1" d="M13,29.83H4A3.68,3.68,0,0,1,0,25.93Q0,20.47,0,15a3.64,3.64,0,0,1,3.72-3.85c.75,0,.89-.33.87-1a11.15,11.15,0,0,1,.94-5.6A8.4,8.4,0,0,1,14.48.14,8.24,8.24,0,0,1,21.42,7.6a20.32,20.32,0,0,1,.11,2.7c0,.59.16.84.81.87a3.74,3.74,0,0,1,3.79,4q0,5.32,0,10.64a3.76,3.76,0,0,1-4,4Zm0-18.68c1.26,0,2.53,0,3.8,0,.58,0,.81-.2.79-.79,0-.78,0-1.57,0-2.36A4.48,4.48,0,0,0,13,3.84,4.39,4.39,0,0,0,8.54,8.1c0,.76,0,1.52,0,2.28,0,.58.23.79.81.78C10.55,11.14,11.79,11.15,13,11.15Zm-1.76,9.33c0,.64,0,1.29,0,1.93A1.73,1.73,0,0,0,13,24.15a1.65,1.65,0,0,0,1.79-1.44,16.1,16.1,0,0,0,0-4.44c-.15-1-.82-1.42-2-1.32a1.52,1.52,0,0,0-1.51,1.59C11.24,19.19,11.27,19.83,11.27,20.48Z"/></svg>