<?xml version="1.0" encoding="utf-8"?>
<!-- Generator: Adobe Illustrator 16.0.0, SVG Export Plug-In . SVG Version: 6.00 Build 0)  -->
<!DOCTYPE svg PUBLIC "-//W3C//DTD SVG 1.1//EN" "http://www.w3.org/Graphics/SVG/1.1/DTD/svg11.dtd">
<svg version="1.1" id="圖層_1" xmlns="http://www.w3.org/2000/svg" xmlns:xlink="http://www.w3.org/1999/xlink" x="0px" y="0px"
	 width="30px" height="30px" viewBox="0 0 30 30" enable-background="new 0 0 30 30" xml:space="preserve">
<path fill-rule="evenodd" clip-rule="evenodd" fill="#FFFFFF" d="M26.122,28.556h-5.074V15.694h3.838v-4.288h-3.838V9.757
	c0-1.209,1.395-1.319,1.395-1.319h2.443V3.821h-3.838c-1.977,0.11-3.547,0.384-4.884,1.979c-1.337,1.594-1.396,3.958-1.396,3.958
	v1.649H11.28v4.288h3.488v12.862H3.86c-1.367,0-2.474-1.106-2.474-2.473V3.821c0-1.367,1.107-2.474,2.474-2.474h22.262
	c1.365,0,2.475,1.107,2.475,2.474v22.262C28.597,27.449,27.487,28.556,26.122,28.556z"/>
</svg>
