<svg id="圖層_1" data-name="圖層 1" xmlns="http://www.w3.org/2000/svg" xmlns:xlink="http://www.w3.org/1999/xlink" viewBox="0 0 33.88 25.19"><defs><style>.cls-1{fill:#fff;}.cls-2{fill:url(#未命名漸層_40);}.cls-3{fill:url(#未命名漸層_40-2);}.cls-4{fill:url(#未命名漸層_40-3);}</style><linearGradient id="未命名漸層_40" x1="16.94" y1="24.21" x2="16.94" y2="3" gradientUnits="userSpaceOnUse"><stop offset="0" stop-color="#68c9ad"/><stop offset="0.53" stop-color="#70cdda"/><stop offset="1" stop-color="#46a7d8"/></linearGradient><linearGradient id="未命名漸層_40-2" x1="11.46" y1="24.21" x2="11.46" y2="3" xlink:href="#未命名漸層_40"/><linearGradient id="未命名漸層_40-3" x1="22.19" y1="24.21" x2="22.19" y2="3" xlink:href="#未命名漸層_40"/></defs><path class="cls-1" d="M16.91,25.18c-1.59,0-3.18,0-4.76,0A4.22,4.22,0,0,1,8.1,22.66c-.26-.57-.56-1.12-.83-1.69a.9.9,0,0,0-.48-.48c-1.21-.55-2.41-1.11-3.61-1.68A5,5,0,0,1,.77,11.46a6.29,6.29,0,0,1,1-1.27.45.45,0,0,0,.17-.37,5.73,5.73,0,0,1,.93-3.54A5.82,5.82,0,0,1,6.51,3.45a1.74,1.74,0,0,1,.59-.1c.51.07.72-.22,1-.6A6.62,6.62,0,0,1,12.26.14a5.37,5.37,0,0,1,4.35.91.48.48,0,0,0,.65,0A5.55,5.55,0,0,1,22.83.5a6,6,0,0,1,3.22,2.65.33.33,0,0,0,.32.18,5.58,5.58,0,0,1,4.75,3.08A5.55,5.55,0,0,1,32,9.83c0,.19.1.28.2.39a5.86,5.86,0,0,1,1.63,3.14,4.86,4.86,0,0,1-2,4.82,11.11,11.11,0,0,1-2.16,1.13q-1.29.61-2.58,1.2a1.21,1.21,0,0,0-.52.46,31.59,31.59,0,0,1-2,2.88,3.58,3.58,0,0,1-2.86,1.33Z"/><path class="cls-2" d="M16.35,8.73c0-2,0-4,0-5.94a.74.74,0,0,0-.36-.7,5.45,5.45,0,0,0-1.3-.65,5.08,5.08,0,0,0-4.5.89A3.66,3.66,0,0,0,9,3.5a.82.82,0,0,0,0,.83q2,4.33,4,8.69c.24.53.49,1.05.71,1.59a.59.59,0,0,1-.28.81.6.6,0,0,1-.81-.3l-.09-.19Q10.24,10,8,5.13c-.27-.61-.32-.63-1-.55l-.17,0A5.22,5.22,0,0,0,3.1,9.47a.74.74,0,0,0,.31.66l6.17,4.81c.26.2.53.4.78.61a.6.6,0,1,1-.73,1l-.15-.11L5.9,13.6l-3-2.36c-.13-.1-.25-.24-.42-.05A4.19,4.19,0,0,0,1.3,14.91a3.76,3.76,0,0,0,2.27,2.74l13.1,6.12a.64.64,0,0,0,.6,0l4.92-2.3,8.12-3.79a4.28,4.28,0,0,0,1.42-1,4,4,0,0,0-.24-5.37c-.16-.18-.29-.13-.45,0-.62.53-1.24,1.06-1.87,1.58q-2.49,2.12-5,4.22a.6.6,0,0,1-.91,0,.59.59,0,0,1,.14-.9c.29-.26.59-.51.89-.76,2.05-1.74,4.1-3.48,6.16-5.2a.78.78,0,0,0,.33-.7,5.34,5.34,0,0,0-3-4.62,3.26,3.26,0,0,0-1.16-.3.65.65,0,0,0-.75.46q-2.05,4.61-4.15,9.2c-.2.45-.4.91-.62,1.35a.57.57,0,0,1-.64.35.63.63,0,0,1-.5-.5.82.82,0,0,1,.12-.51c1.54-3.41,3.06-6.83,4.64-10.22A1.32,1.32,0,0,0,24.5,3a5.79,5.79,0,0,0-1.67-1.19,4.56,4.56,0,0,0-4.94.27.76.76,0,0,0-.36.71q0,5.88,0,11.76a2,2,0,0,1,0,.42.56.56,0,0,1-.56.5.59.59,0,0,1-.6-.5c0-.12,0-.24,0-.36Z"/><path class="cls-3" d="M8.88,21.47a3.71,3.71,0,0,0,1.62,2.1c1.14.58,2.35.3,3.54.31Z"/><path class="cls-4" d="M19.85,23.87V24h1.77a3.35,3.35,0,0,0,2.9-2.25Z"/></svg>