<svg width="32" height="32" viewBox="0 0 32 32" fill="none" xmlns="http://www.w3.org/2000/svg">
<path d="M7.6 24H4.8C4.05739 24 3.3452 23.719 2.8201 23.219C2.295 22.7189 2 22.0406 2 21.3333V14.6667C2 13.9594 2.295 13.2811 2.8201 12.781C3.3452 12.281 4.05739 12 4.8 12H27.2C27.9426 12 28.6548 12.281 29.1799 12.781C29.705 13.2811 30 13.9594 30 14.6667V21.3333C30 22.0406 29.705 22.7189 29.1799 23.219C28.6548 23.719 27.9426 24 27.2 24H24.4" stroke="white" stroke-width="2" stroke-linecap="round" stroke-linejoin="round"/>
<path d="M24 18.667H8V29.3337H24V18.667Z" stroke="white" stroke-width="2" stroke-linecap="round" stroke-linejoin="round"/>
<path d="M8 12.0003V2.66699H24V12.0003" stroke="white" stroke-width="2" stroke-linecap="round" stroke-linejoin="round"/>
</svg>
