<svg width="28" height="28" viewBox="0 0 28 28" fill="none" xmlns="http://www.w3.org/2000/svg">
<path d="M5.20019 23.6002C5.81509 22.9115 8.69492 19.7424 9.53887 19.7424H18.4621C19.685 19.7424 22.1815 22.3694 22.8002 23.2954M26.8002 14.0002C26.8002 21.0694 21.0694 26.8002 14.0002 26.8002C6.93095 26.8002 1.2002 21.0694 1.2002 14.0002C1.2002 6.93095 6.93095 1.2002 14.0002 1.2002C21.0694 1.2002 26.8002 6.93095 26.8002 14.0002ZM18.5853 9.63747C18.5853 7.19546 16.5238 5.20019 14.0006 5.20019C11.4774 5.20019 9.41585 7.19546 9.41585 9.63747C9.41585 12.0795 11.4774 14.0747 14.0006 14.0747C16.5237 14.0747 18.5853 12.0795 18.5853 9.63747Z" stroke="white" stroke-width="2"/>
</svg>
