<svg id="圖層_1" data-name="圖層 1" xmlns="http://www.w3.org/2000/svg" viewBox="0 0 252 201.27"><defs><style>.cls-1{fill:#fff;}</style></defs><path class="cls-1" d="M50.33,101q0-36,0-72C50.35,11.65,60.62.59,78,.2c18.15-.41,36.33,0,54.49-.14,4.66,0,6.46,1.77,6.37,6.56-.25,13.33-.15,26.67-.06,40C138.88,59.29,142.63,63,155.28,63c13.33,0,26.66.14,40,0,4.74-.07,6.43,1.63,6.42,6.42-.15,35,0,70-.13,105-.06,16.34-10.89,26.91-27.06,26.92q-48.74,0-97.49,0c-15.77,0-26.62-10.86-26.66-26.76C50.28,150,50.33,125.49,50.33,101Zm106.11,19.12c-.1-7.1-1.44-13.9-5.35-20A37.38,37.38,0,0,0,104.58,86c-16.81,7.3-25.16,25.43-20.27,44,5.52,21,29.15,32.44,49.76,23.82,4-1.69,6.38-1,9.05,2a129.86,129.86,0,0,0,9.92,9.85c4.63,4.14,9.81,4.28,13.4.68,3.74-3.76,3.56-8.63-.78-13.34-3.38-3.67-6.92-7.22-10.58-10.6-2.53-2.34-3.34-4.43-1.61-7.8A29.35,29.35,0,0,0,156.44,120.11Z"/><path class="cls-1" d="M150.35,26.34c0-6.83,0-13.66,0-20.48,0-1.14-.2-2.51,1.06-3.13s2.15.54,2.93,1.32q21.93,21.89,43.81,43.81c.69.69,1.67,1.41,1.3,2.52-.44,1.33-1.83,1.39-2.94,1.39q-21,.07-42,0c-3.16,0-4.26-2-4.23-5C150.39,40,150.35,33.17,150.35,26.34Z"/><path class="cls-1" d="M138.86,120.28A19.19,19.19,0,0,1,119.43,139c-10.53-.31-19.13-9-19.08-19.27.06-10.6,9.15-19.52,19.59-19.23A19.27,19.27,0,0,1,138.86,120.28Z"/></svg>