<?xml version="1.0" encoding="utf-8"?>
<!-- Generator: Adobe Illustrator 20.1.0, SVG Export Plug-In . SVG Version: 6.00 Build 0)  -->
<svg version="1.1" id="圖層_1" xmlns="http://www.w3.org/2000/svg" xmlns:xlink="http://www.w3.org/1999/xlink" x="0px" y="0px"
	 viewBox="0 0 32 32" style="enable-background:new 0 0 32 32;" xml:space="preserve">
<style type="text/css">
	.st0{fill:none;stroke:#FFFFFF;stroke-width:2;stroke-linecap:round;stroke-linejoin:round;}
	.st1{fill:#FFFFFF;}
</style>
<g>
	<path class="st0" d="M13,30.8H5.6c-2,0-3.7-1.6-3.7-3.7l0-22c0-2,1.6-3.7,3.7-3.7h16.5c2,0,3.7,1.6,3.7,3.7v10.1 M8.4,8.8h11
		 M8.4,14.3h11 M8.4,19.8h5.5"/>
	<g>
		<path class="st1" d="M30,21c0,0.8-0.3,1.4-0.8,1.9c-2.4,2.4-4.7,4.7-7.1,7.1c-0.4,0.4-0.8,0.7-1.4,0.8c-1.1,0.3-2.2,0.7-3.4,1
			c-1,0.3-1.6-0.3-1.3-1.3c0.3-1.1,0.6-2.2,1-3.3c0.2-0.6,0.5-1.1,0.9-1.5c2.3-2.3,4.6-4.6,6.9-6.9c1.2-1.2,2.8-1.2,4,0
			C29.6,19.4,30.1,20.1,30,21z M18.7,29.5c0.6-0.3,1.5-0.2,2.1-0.8c1.5-1.5,3-3,4.6-4.5c0.2-0.2,0.2-0.4,0-0.6
			c-0.3-0.3-0.6-0.6-0.9-0.9c-0.3-0.3-0.5-0.3-0.7,0c-1.3,1.3-2.5,2.6-3.9,3.8c-0.9,0.8-1,1.8-1.3,2.8
			C18.4,29.4,18.4,29.6,18.7,29.5z M27,19.8c-0.4,0-0.5,0.1-0.9,0.5c-0.8,0.8-0.8,0.8,0,1.6c1,0.9,0.7,1,1.7,0
			c0.3-0.3,0.5-0.7,0.3-1.1C27.8,20.2,27.5,19.8,27,19.8z"/>
	</g>
</g>
</svg>
