<?xml version="1.0" encoding="utf-8"?>
<!-- Generator: Adobe Illustrator 20.1.0, SVG Export Plug-In . SVG Version: 6.00 Build 0)  -->
<svg version="1.1" id="圖層_1" xmlns="http://www.w3.org/2000/svg" xmlns:xlink="http://www.w3.org/1999/xlink" x="0px" y="0px"
	 viewBox="0 0 512 512" style="enable-background:new 0 0 512 512;" xml:space="preserve">
<style type="text/css">
	.st0{fill:#FFFFFF;}
</style>
<g>
	<path class="st0" d="M511.6,306c0,44.4-0.9,88.9,0.3,133.3c1.1,40.1-29.4,73.4-71.9,72.3c-80.6-2-161.2-0.6-241.8-0.6
		c-43.3,0-69.7-24.6-71.6-67.7c-0.9-21,0.1-42.1-0.3-63.2c-0.2-11.4,5.6-14.1,15.5-13.5c9.3,0.6,20.4-2.4,20.4,13
		c-0.1,22-0.1,44,0.2,65.9c0.2,21.7,9.4,31.4,30.8,31.4c83.8,0.2,167.6,0.2,251.4,0c21,0,32.6-11,32.7-32.1
		c0.4-79.2,0.1-158.5,0.4-237.7c0-10.7-4.8-13.2-14.2-13.1c-28.8,0.3-57.7,0.2-86.6,0.1c-39.7-0.2-58.6-19.4-58.7-59.3
		c0-28.4-0.4-56.8,0.2-85.2c0.2-11.5-4-15.2-15.2-15c-36.2,0.5-72.4,0-108.5,0.3c-22.9,0.2-32.3,9.9-32.3,33
		c-0.1,56.8,0,113.6-0.1,170.4c0,16.9-15.9,25.7-30.8,17.4c-5-2.8-4.9-7.4-4.9-11.9c0-58.6-1.1-117.3,0.4-175.9
		c1.1-42.5,28.4-67.1,70.9-67.3C245.9,0.3,294,0.7,342,0.4C359,0.4,372.9,6,385,18.3c35.6,36.3,71.5,72.3,107.9,107.8
		c13.4,13.1,19.1,28,18.9,46.6C511.2,217.1,511.6,261.5,511.6,306z M417.2,160.1c15.1,0,30.2,0.1,45.3-0.1c3.4,0,8.1,1.7,9.8-2.5
		c1.3-3.3-2.4-5.6-4.6-7.8c-35-35-69.9-70-105-104.9c-2.2-2.2-4.3-5.7-7.8-4.5c-3.8,1.3-2.8,5.4-2.8,8.4
		c-0.1,30.7-0.1,61.4,0.1,92.1c0.1,12.9,6.6,19.4,19.6,19.3C387,160,402.1,160.1,417.2,160.1z"/>
	<path class="st0" d="M324.4,296.7c-8.6-7.2-17.7-14-25.8-21.8c-13.2-12.7-26-25.8-38.5-39.1c-7.1-7.5-7-15.7,0.3-23.2
		c7-7.2,14.7-6.3,22.2-0.5c2.2,1.7,4.2,3.6,6.1,5.5c28.2,28.1,56.4,56.2,84.5,84.5c14.1,14.2,14,20.6,0.2,34.4
		c-28.1,28.2-56.3,56.4-84.5,84.5c-1,1-2,1.9-2.9,2.9c-7.8,7.7-16.3,10.6-25.5,2.8c-7.9-6.8-7.3-16.5,2.2-26.4
		c16.1-16.9,32.8-33.3,49.2-49.9c3.2-3.2,6.1-6.6,9.7-10.5c-5.5-4.1-11.1-2.5-16.3-2.5c-91.1-0.1-182.2-0.1-273.3-0.1
		c-6.9,0-13.7,0.2-20.4-2.1c-7.5-2.6-11.2-7.9-11.4-15.4c-0.2-7.1,3.6-12.1,10-15.1c7.7-3.6,16-3.4,24.3-3.4
		c93.8,0.1,187.7,0.3,281.5,0.3c1.7,0,3.3-0.5,5-0.8C322.1,299.6,323.3,298.2,324.4,296.7z"/>
</g>
</svg>
