<svg id="圖層_1" data-name="圖層 1" xmlns="http://www.w3.org/2000/svg" viewBox="0 0 252 201.58"><defs><style>.cls-1{fill:#fff;}</style></defs><path class="cls-1" d="M89.47,101.81c0,12.32.17,24.65-.06,37-.18,9.7-5.77,14.36-15.26,13.28-7.92-.91-11.35-4.74-11.5-13.54-.18-10.32-.06-20.65-.06-31,0-14.32.07-28.64,0-43C62.48,50.05,73,49.09,83.46,52.19c5.39,1.59,6,7.19,6,12.14C89.55,76.82,89.48,89.31,89.47,101.81Z"/><path class="cls-1" d="M189.47,101.81c0,12.32.17,24.65-.06,37-.18,9.7-5.78,14.36-15.26,13.28-7.92-.91-11.35-4.74-11.5-13.54-.18-10.33-.06-20.65-.06-31,0-14.32.07-28.65,0-43C162.48,50,173,49.09,183.46,52.19c5.39,1.59,5.95,7.19,6,12.15C189.55,76.83,189.48,89.32,189.47,101.81Z"/><path class="cls-1" d="M151.79,101.68c0,12.16.07,24.32,0,36.48-.08,11-6.73,16.08-17.42,13.55-6.17-1.47-8.93-5-8.95-12-.07-18.32,0-36.64,0-55,0-7.16-.08-14.32,0-21.48.12-8.67,3.66-12.17,12.12-12.24C147.87,51,151.58,54,151.72,63.2c.19,12.83.05,25.65.05,38.48Z"/><path class="cls-1" d="M238.81,37.72c0,5.5.12,11,0,16.49-.16,5.83-4.32,10-9.64,10.05s-9.61-4.16-9.74-10c-.22-9.15-.05-18.31-.13-27.47,0-5.45-1.14-6.53-6.56-6a157,157,0,0,1-25.93-.19c-7-.5-11.06-4.13-11.1-9.8s3.56-9.55,10.32-10C197,0,208-.47,218.9,1.06c13.24,1.85,19.85,9.91,19.93,23.18,0,4.49,0,9,0,13.48Z"/><path class="cls-1" d="M13.25,37.37c0-5-.12-10,0-15C13.58,11.92,19.5,4,29.68,1.83,42.32-.92,55.2-.07,67.94,1.13a9.22,9.22,0,0,1,8.53,10c-.27,5-3.75,8.64-9.49,9.24a136.05,136.05,0,0,1-25.92.52c-7.55-.65-8.28,0-8.29,7.72s0,15.65,0,23.47c0,7.47-3.75,12.07-9.68,12.17s-9.76-4.47-9.83-11.9c0-5,0-10,0-15Z"/><path class="cls-1" d="M238.81,164.67c0,5.16.1,10.32,0,15.48-.24,12.28-9.32,21.26-21.67,21.37q-15.23.14-30.45,0c-6.79-.05-11-3.78-11-9.57s4.19-9.76,10.85-9.86c8.65-.13,17.31,0,26-.06,6.17,0,6.77-.65,6.8-7,0-8.82-.15-17.65.1-26.46.22-7.75,7.23-12.22,13.88-9.13a9,9,0,0,1,5.53,8.74C238.82,153.69,238.81,159.18,238.81,164.67Z"/><path class="cls-1" d="M49.77,201.54c-5,0-10,.06-15,0-11.81-.18-21.1-8.88-21.45-20.6-.32-10.8-.19-21.63,0-32.44.08-6,4.11-10,9.57-10,5.62,0,9.65,3.83,9.8,9.8.21,8.48.07,17,.1,25.46,0,7.93.33,8.26,8.06,8.28,8.48,0,17-.2,25.45.12,8,.3,12.34,7.12,9.22,13.83a9.06,9.06,0,0,1-8.76,5.52c-5.66,0-11.31,0-17,0Z"/><path class="cls-1" d="M113.87,101.81c0,13.66,0,27.31,0,41,0,5.89-2.18,8.72-6.52,8.77s-6.86-2.85-6.88-8.57c-.07-27.81,0-55.63,0-83.44a12.56,12.56,0,0,1,.08-1.5c.46-4.14,2.3-7,6.91-6.91s6.42,2.94,6.43,7.21q0,21.73,0,43.47Z"/></svg>