<svg id="圖層_1" data-name="圖層 1" xmlns="http://www.w3.org/2000/svg" viewBox="0 0 252 200.78"><defs><style>.cls-1{fill:#fff;}</style></defs><path class="cls-1" d="M51.58,100.58c0,25.66,18.16,45.79,43.59,48.91a57.53,57.53,0,0,0,16.34-.69c2.67-.43,4.11.39,5.08,2.71,5.56,13.32,15.81,20.64,29.78,23.07,3,.52,3.85,2,3.23,4.87-1,4.72-1.82,9.49-2.91,14.2-1.67,7.29-6.33,9.11-12.54,4.89-9.64-6.56-19.36-13-28.75-19.92-3.5-2.58-5.8-2.3-9.16.14-9.16,6.66-18.6,12.94-28,19.27-7.27,4.91-11.65,3.07-13.38-5.67-2.19-11.11-4.4-22.22-6.22-33.39-.69-4.28-2.84-5.78-6.81-6.44-11-1.84-22-3.91-32.91-6.06-9.08-1.78-10.76-6-5.55-13.64,6.49-9.49,13-19,19.62-28.36,2-2.88,2.07-5.17,0-8.07C16.26,86.89,9.69,77.26,3.14,67.62-1.61,60.63.31,56,8.5,54.44c11.29-2.11,22.57-4.3,33.91-6.1,4-.63,5.58-2.37,6.23-6.31C50.5,30.7,52.72,19.42,55,8.15,56.65-.39,61.3-2.12,68.52,2.9c9,6.27,18.18,12.37,27.08,18.82,3.88,2.82,7,2.58,10.8-.14,8.91-6.43,18-12.56,27.08-18.82,7.22-5,11.69-3.24,13.41,5.5,2.25,11.43,4.47,22.88,6.41,34.37.6,3.59,2.24,5,5.73,5.63,11.33,1.89,22.61,4.05,33.91,6.1,8.69,1.57,10.6,6,5.76,13.26-.92,1.39-2,2.7-2.78,4.15-2.2,4-5.17,4.89-9.89,4.41a41,41,0,0,0-31.93,10.1c-4.41,3.81-4.59,3.75-6.51-1.69C139.26,61,116.92,47.74,92.43,51.78,68.24,55.78,51.58,75.68,51.58,100.58Z"/><path class="cls-1" d="M186.76,163.58c-11.66,0-23.33.17-35,0-12.76-.23-22.72-8.13-25.62-19.91-3.29-13.37,5.52-27.56,19.15-30.35,4-.8,6.31-2.26,7.87-6.29,4.67-12,14.13-18.42,26.73-19.51,13.27-1.15,23.11,5.09,30,16.16,1.64,2.66,2.89,4.22,6.55,3.5,18.21-3.62,32.93,7.31,35,25.66,1.8,16-11.64,30.32-29.13,30.72C210.43,163.8,198.6,163.58,186.76,163.58Z"/><path class="cls-1" d="M63.19,100.5c0-20.07,13.62-35.36,33.83-37.9,18.31-2.31,36.2,10.21,40.79,28.71.71,2.87.66,5.93,1,8.89.26,2-.8,3.08-2.47,3.83-12.73,5.68-20.2,15.34-22.07,29.22-.34,2.49-1.85,3.65-4.22,4.24C86.27,143.44,63.22,125.28,63.19,100.5Z"/></svg>