<svg id="圖層_1" data-name="圖層 1" xmlns="http://www.w3.org/2000/svg" xmlns:xlink="http://www.w3.org/1999/xlink" viewBox="0 0 1366.48 270.36"><defs><style>.cls-1{fill:none;}.cls-2{opacity:0.5;}.cls-3{clip-path:url(#clip-path);}.cls-4{clip-path:url(#clip-path-2);}.cls-5{fill:#f2f2f2;}.cls-6{fill:#dce2e8;}</style><clipPath id="clip-path"><rect class="cls-1" x="1485.38" y="-523.81" width="1366.48" height="270.36"/></clipPath><clipPath id="clip-path-2"><rect class="cls-1" width="1366.48" height="270.36"/></clipPath></defs><g class="cls-2"><g class="cls-4"><path class="cls-5" d="M1944.17,125.79c-196.14,125-470.67,181.36-727,149.14-92.23-11.6-189.34-1.4-273.4,28.69L757,97.8C841,67.7,938.14,57.51,1030.37,69.1c256.38,32.22,530.9-24.09,727-149.13Z"/><path class="cls-6" d="M757.27,98.25l-.6-.9C840.87,67.21,938.11,57,1030.49,68.61c257.72,32.39,529.3-23.32,726.47-149l.9.76C1661.55-18.25,1543.57,28,1416.67,54a1212.24,1212.24,0,0,1-242.38,24.49,1156.77,1156.77,0,0,1-144-8.88C938.16,58,841.21,68.2,757.27,98.25Z"/><path class="cls-6" d="M764.93,106.67l-.63-.89A574.74,574.74,0,0,1,894,73.08a557.43,557.43,0,0,1,140.85-.93C1294.4,104.3,1571.89,47,1759-77.44l.92.74c-187.42,124.62-465.36,182-725.32,149.84C945.84,62.25,850.07,74.16,764.93,106.67Z"/><path class="cls-6" d="M772.6,115.09l-.67-.87c61-24.88,156.81-51.76,267.24-38.53,261.22,31.89,544.58-27.06,721.9-150.17l.94.73C1673.06-12,1557.55,34.59,1428,61,1301,86.82,1166.52,92.25,1039,76.67,928.92,63.49,833.37,90.29,772.6,115.09Z"/><path class="cls-6" d="M780.26,123.51l-.7-.86c89.25-39,178.06-53.62,264-43.42,267.27,31.71,549.73-27.46,719.6-150.75l1,.71C1678.8-8.91,1564.54,37.81,1433.64,64.32A1249.29,1249.29,0,0,1,1043.3,80.21C957.73,70.06,869.23,84.63,780.26,123.51Z"/><path class="cls-6" d="M787.93,131.93l-.74-.84c40.73-19.11,79.06-32.47,117.2-40.83a434.23,434.23,0,0,1,143.47-7.5c272.89,31.8,554.46-27.6,717.31-151.31l1,.69c-81.74,62.1-194.77,109-326.86,135.64-126.67,25.54-262.09,31.06-391.65,16C963,73.89,878,89.65,787.93,131.93Z"/><path class="cls-6" d="M795.59,140.35l-.77-.82c40.78-20.61,76.7-34.44,113-43.53a398.4,398.4,0,0,1,144.34-9.7c274.17,31.37,561.52-29.67,715-151.89l1,.68C1690-2.6,1578.17,44.48,1444.94,71.24c-79.38,15.94-164.77,24.05-249.49,24.05a1267.32,1267.32,0,0,1-143.46-8C942.59,74.78,857.5,109.07,795.59,140.35Z"/><path class="cls-6" d="M803.26,148.77l-.81-.8C829.84,133,867,114.26,911.33,101.74a372,372,0,0,1,145.21-11.9c279.59,31.41,566-29.86,712.73-152.46l1,.66C1695.46.58,1584.91,47.84,1450.59,74.71c-124.71,25-264.73,30.67-394.26,16.12C949,78.78,868.18,113.35,803.26,148.77Z"/><path class="cls-6" d="M810.93,157.19l-.86-.78c28.49-16.85,63.2-35.83,104.73-48.92,47.8-15.07,95.59-19.69,146.08-14.11,280.51,31,572.64-32,710.44-153l1,.64C1700.9,3.77,1591.59,51.21,1456.24,78.18c-124.63,24.84-265.11,30.58-395.56,16.19C954.38,82.64,877.82,117.63,810.93,157.19Z"/><path class="cls-6" d="M818.6,165.6l-.9-.75c29.08-18.72,61.39-37.93,100.57-51.61,47.41-16.57,95.48-21.9,147-16.32,233.71,25.34,555-11.92,708.14-153.61l1.07.62C1706.3,7,1598.23,54.6,1461.89,81.66c-79.79,15.84-166.32,23.9-252.74,23.9A1341.26,1341.26,0,0,1,1065,97.91C944.14,84.8,862.48,137.36,818.6,165.6Z"/><path class="cls-6" d="M826.27,174l-.95-.72c26.1-18.36,57.22-39.22,96.42-54.3,47-18.07,95.31-24.13,147.83-18.53,237.92,25.35,560.3-12.08,705.85-154.19l1.1.6c-64.86,63.32-171.7,111.13-309,138.28-124.45,24.61-265.86,30.4-398.17,16.3C957.18,89.48,885.06,132.63,826.27,174Z"/><path class="cls-6" d="M833.94,182.43l-1-.69c26-20.13,54.54-41.11,92.26-57,46.45-19.57,95.09-26.36,148.7-20.75,133.07,13.94,274.74,8.15,398.92-16.32,137.88-27.16,243.23-75,304.64-138.43l1.12.58C1717,13.41,1611.38,61.41,1473.19,88.64,1348.83,113.13,1207,118.94,1073.72,105,950.64,92.09,877.59,148.64,833.94,182.43Z"/><path class="cls-6" d="M841.61,190.84l-1-.65c39-33.43,111.61-95.64,237.68-82.66,134,13.8,276.15,8,400.23-16.37,138.74-27.23,242.84-75.28,301-138.95l1.14.55C1722.27,16.64,1617.9,64.83,1478.83,92.13c-124.25,24.39-266.58,30.21-400.77,16.39C952.73,95.62,880.45,157.56,841.61,190.84Z"/><path class="cls-6" d="M849.28,199.24l-1.08-.6c16.77-16,44.85-42.89,83.94-62.38,44.7-22.3,95.31-30.77,150.46-25.19,133,13.46,279.36,7.48,401.52-16.41,139.58-27.3,242.44-75.53,297.46-139.49l1.15.54c-55.2,64.17-158.34,112.55-298.25,139.92-122.34,23.92-268.89,29.91-402.07,16.43C954.05,99.07,885.9,164.24,849.28,199.24Z"/><path class="cls-6" d="M857,207.65l-1.13-.56C870.14,191.67,896.78,163,935.62,142c44.08-23.78,95-33,151.32-27.4,262.37,26.1,585.91-19.26,696.69-156.47l1.18.51c-52.06,64.48-154,113.05-294.69,140.48C1367.9,122.94,1220.88,129,1086.75,115.6,954.61,102.46,888.65,173.5,857,207.65Z"/><path class="cls-6" d="M864.63,216.05l-1.18-.51c18.17-22.31,41.37-47.82,75.64-67.76,43.45-25.29,94.65-35.26,152.19-29.63,134.91,13.2,282.21,7.19,404.13-16.49,141.15-27.41,241.53-76,290.27-140.55l1.2.48c-48.93,64.79-149.6,113.56-291.12,141-122.09,23.71-269.59,29.73-404.66,16.51C954.45,105.77,891.5,183.05,864.63,216.05Z"/><path class="cls-6" d="M872.29,224.46l-1.21-.46c15-21.39,36.76-48.72,71.48-70.46,42.78-26.79,94.28-37.51,153.06-31.85,135.86,13.07,283.64,7,405.44-16.52C1600,86,1730.07,46,1787.73-35.92l1.22.46c-45.83,65.1-145.26,114.06-287.54,141.59-122,23.6-269.93,29.63-406,16.55C953.5,109,892.38,195.91,872.29,224.46Z"/><path class="cls-6" d="M880,232.86l-1.25-.4c18.66-31.32,40.68-55.24,67.32-73.15,42.1-28.3,93.89-39.77,153.94-34.09,136.82,12.95,285.07,6.92,406.73-16.54C1606.16,89.5,1736,49.36,1789.79-32.95l1.23.43c-54,82.66-184.24,122.93-284,142.16-121.83,23.49-270.27,29.53-407.26,16.58C1001.63,116.92,927.66,152.81,880,232.86Z"/><path class="cls-6" d="M887.62,241.25l-1.28-.33c23.23-47.3,82.44-124.76,218-112.16,137.79,12.82,286.51,6.78,408-16.57C1612.29,93,1741.91,52.73,1791.84-30l1.25.4c-50.15,83.08-180.16,123.48-280.4,142.74-121.68,23.38-270.59,29.43-408.55,16.6C969.58,117.23,910.72,194.24,887.62,241.25Z"/><path class="cls-6" d="M895.29,249.65l-1.32-.27c12.06-31,63.21-130.93,214.68-117.08,138.78,12.7,288,6.65,409.34-16.6,100.42-19.23,229.8-59.6,275.9-142.71l1.27.37c-46.32,83.5-176.1,124-276.83,143.31C1396.81,140,1247.42,146,1108.48,133.29,958.05,119.53,907.27,218.87,895.29,249.65Z"/><path class="cls-6" d="M903,258.05l-1.34-.21c3.24-11.15,16.76-49.93,54.84-81.22,39.93-32.81,92.61-46.53,156.54-40.78,139.76,12.57,289.43,6.51,410.64-16.62C1624.51,100,1753.64,59.48,1796-24l1.28.34C1754.72,60.23,1625.17,100.87,1524,120.19c-121.37,23.16-271.24,29.23-411.15,16.64-63.47-5.71-115.74,7.9-155.36,40.46C919.61,208.39,906.17,247,903,258.05Z"/><path class="cls-6" d="M910.6,266.44l-1.35-.14c4.47-23,20.12-57.1,50.66-83.83a171.56,171.56,0,0,1,62.63-34.58c28-8.69,59.85-11.55,94.8-8.51C1257.83,152,1408,146,1529.25,122.87c101.33-19.31,230.2-59.95,268.75-143.94l1.3.32c-38.75,84.41-168,125.22-269.7,144.59C1408.15,147,1257.82,153,1117.17,140.37,975.52,128,920.12,217.44,910.6,266.44Z"/><path class="cls-6" d="M918.26,274.84l-1.37-.08c2.48-24.66,20.59-74.8,72.72-106.3,35.46-21.43,79.9-30,132.07-25.54,141.55,12.46,292.16,6.42,413.22-16.56C1636.66,107,1765.27,66.3,1800.06-18.1l1.31.29c-35,84.84-164,125.76-266.13,145.14-121.21,23-272,29.05-413.72,16.58-51.8-4.45-95.88,4.07-131,25.32C938.7,200.51,920.72,250.33,918.26,274.84Z"/><path class="cls-6" d="M925.9,283.23h-1.36c.21-22.85,14.48-75.06,67-109.05,35.45-22.95,80.7-32.27,134.5-27.71,140.52,12.12,295.48,5.91,414.53-16.61,102.19-19.33,230.51-60.17,261.56-145l1.32.26c-31.21,85.28-160,126.3-262.54,145.69-62.38,11.8-132.32,19.11-207.88,21.73a1750.54,1750.54,0,0,1-207.15-5.1c-53.39-4.53-98.28,4.71-133.43,27.47C944.07,206.23,926.15,256.85,925.9,283.23Z"/><path class="cls-6" d="M932.19,291.68c-2-25.4,12.84-78.2,61.35-111.78,35.38-24.49,81.42-34.55,136.82-29.91,141.59,12,297,5.74,415.84-16.65,102.6-19.33,230.64-60.27,258-145.5l1.33.23c-27.49,85.72-156,126.84-259,146.24C1427.59,156.73,1272,163,1130.21,151c-55-4.61-100.66,5.37-135.73,29.64-48.17,33.34-62.94,85.78-60.93,111Z"/><path class="cls-6" d="M939.84,300.14c-4.2-25.23,7.25-78.64,55.84-114.51,35.25-26,82-36.81,139-32.1,142.67,11.8,298.61,5.56,417.13-16.69,103-19.34,230.76-60.38,254.39-146l1.34.2c-23.77,86.16-152,127.38-255.39,146.79-79.12,14.86-174.93,22.59-272.31,22.59-48.67,0-97.72-1.93-145.32-5.86-56.56-4.69-103,6-137.9,31.81C948.4,222,937,275,941.19,300Z"/><path class="cls-5" d="M335.45,165.11C255.72,147.75,168.62,149,89.91,168.73s-148.64,57.7-197.16,107.14l-72.62-104.44C-131.35,122-144.78,76.85-64.16,61.89c128.51-23.86,347.32,1,494.43,71.48Z"/><path class="cls-6" d="M-106.66,276.13l-1.18-.51c22.06-27,58.42-50.14,108.06-68.82,42.18-15.88,93-28.26,150.92-36.79C253,155,357,155.46,398.75,164.55l-.39,1c-41.58-9-145.31-9.48-246.95,5.48C62.15,184.13-55.07,213-106.66,276.13Z"/><path class="cls-6" d="M-114.55,264.77l-1.16-.53C-58.62,198,75.59,172.42,150.5,163.07c113.44-14.16,218.26-8.46,259.29,4.08l-.53.93c-40.85-12.49-145.34-18.15-258.53-4C76,173.37-57.74,198.85-114.55,264.77Z"/><path class="cls-6" d="M-122.44,253.42l-1.14-.56c23.51-25.88,61.8-47.67,113.81-64.77,44.83-14.73,100-25.78,159.64-32,106.82-11.08,220.77-5.35,270.94,13.63l-.62.88c-49.95-18.89-163.55-24.58-270.13-13.52C73.77,165-63.09,188.06-122.44,253.42Z"/><path class="cls-6" d="M-130.33,242.06l-1.12-.58C-86,194,16.33,160.33,149.23,149.19c113.61-9.53,229.81,0,282.59,23.17l-.7.85c-52.55-23.06-168.4-32.54-281.73-23C16.87,161.29-85.09,194.78-130.33,242.06Z"/><path class="cls-6" d="M-138.23,230.7l-1.1-.59c25-24.78,65.22-45.2,119.58-60.72,48.05-13.71,106.26-23.1,168.34-27.15C268.75,134.42,387,147.56,442.82,175l-.76.83c-55.59-27.28-173.48-40.36-293.35-32.55C13.54,152.05-91,183.92-138.23,230.7Z"/><path class="cls-6" d="M-146.12,219.34l-1.08-.61c25.74-24.21,66.94-44,122.45-58.69C24.92,146.86,84.64,138.31,148,135.3c126.62-6,246.68,10.58,305.87,42.25l-.81.81c-58.95-31.54-178.66-48-305-42.06C84.86,139.3,25.27,147.83-24.28,161-79.55,175.65-120.54,195.28-146.12,219.34Z"/><path class="cls-6" d="M-154,208l-1.06-.64c50.66-45.2,163.7-74.73,302.39-79,62.88-1.92,125.41,1.65,180.82,10.33,58,9.09,105.23,23.42,136.67,41.46l-.84.78c-61.6-35.33-185.88-55.57-316.6-51.57C9.07,133.61-103.59,163-154,208Z"/><path class="cls-6" d="M-161.9,196.63l-1-.66c26.88-22.74,71.21-41.63,128.21-54.63,52.89-12.06,115.62-18.94,181.4-19.92,137.44-2,263.53,21.47,329.13,61.32l-.87.77c-65.36-39.71-191.13-63.1-328.23-61.09-65.65,1-128.25,7.85-181,19.88C-91.08,155.23-135.19,174-161.9,196.63Z"/><path class="cls-6" d="M485.88,186.09C338.82,92.33-53.36,91.84-169.8,185.27l-1-.67c27.65-22.18,73-40.37,131.08-52.61,54.42-11.45,118.53-17.5,185.42-17.5H146c67.13,0,133.43,6.14,191.75,17.69,62.3,12.35,113.83,30.73,149,53.15Z"/><path class="cls-6" d="M496.85,188.67c-72.27-48-203.66-78-351.48-80.12-143.5-2.11-267.28,22.94-323.06,65.36l-1-.69c56-42.62,180.21-67.78,324.06-65.67,148.15,2.17,279.87,32.22,352.37,80.38Z"/><path class="cls-6" d="M507.81,191.25C342.3,77.35-64.6,75.39-185.58,162.56l-1-.72c121.33-87.42,529.36-85.51,695.29,28.68Z"/><path class="cls-6" d="M518.78,193.83C440.4,138.2,300.31,101.13,144,94.67,73.47,91.75,4.85,95.3-54.42,104.92c-61.16,9.94-109.25,25.94-139.06,46.28l-.93-.73c30-20.46,78.3-36.55,139.7-46.52C4.67,94.3,73.42,90.75,144.11,93.67c73.28,3,145.25,13,208.11,28.75,69.71,17.49,126.07,41.28,167.51,70.69Z"/><path class="cls-6" d="M529.74,196.41C447.05,136.09,306.22,96.48,143.36,87.73c-148-8-283.35,12.49-344.73,52.11l-.91-.75C-140.63,99.31-4.92,78.75,143.46,86.73c75.31,4,149.16,15.26,213.57,32.43,71.88,19.16,130.31,44.91,173.68,76.54Z"/><path class="cls-6" d="M540.71,199c-85.86-64.16-230.93-107.24-398-118.2-150.18-9.86-288.33,8.86-352,47.69l-.87-.77c63.9-39,202.44-57.8,353-47.92,167.4,11,312.78,54.18,398.86,118.5Z"/><path class="cls-6" d="M551.67,201.57C462.63,133.58,313.32,87,142,73.85c-74.2-5.71-147.34-4.66-211.51,3-64.36,7.73-115.43,21.64-147.68,40.23l-.85-.78C-151.8,78.18-10.42,61.11,142.18,72.85c79.3,6.11,156.92,19.87,224.47,39.8,76.2,22.48,138.78,52.17,186,88.23Z"/><path class="cls-6" d="M562.64,204.15C470.39,132.34,316.84,82.32,141.37,66.91c-75.4-6.63-150-6.4-215.87.64-65.4,7-117.46,20.21-150.56,38.21l-.82-.8c33.28-18.1,85.56-31.38,151.18-38.4C-8.76,59.5,66,59.28,141.53,65.91c81.29,7.14,160.8,22.18,229.93,43.48,78.35,24.15,143,55.8,192.18,94.07Z"/><path class="cls-5" d="M1379,137.21l-87.36-85.15c-245.26,149.67-404.44,66.54-540,71.09C609.4,127.92,478.26,242.61,474.17,319.6L598.29,441.76c60-94.53,199.79-148.94,338.51-172.5s283.18-22.92,423-42.9C1359.75,226.36,1284.79,235.91,1379,137.21Z"/><path class="cls-6" d="M474.85,319.62l-1.37,0c2-38.12,35.42-86.26,87.13-125.63,56.66-43.14,126.28-69.13,191-71.3,35-1.18,71.8,3.51,110.75,8.48,110.06,14,247,31.49,428.82-79.46l.87.77c-81.17,49.54-160,78-241,86.94-70.61,7.81-133.46-.2-188.92-7.27-38.87-5-75.58-9.63-110.45-8.47-64.39,2.17-133.68,28-190.1,71C510.1,233.85,476.86,281.74,474.85,319.62Z"/><path class="cls-6" d="M483.64,324.72l-1.36,0c2.43-38.44,35.84-86.48,87.19-125.38,56.12-42.51,125.49-68.39,190.32-71,35.62-1.45,72.76,2.88,112.07,7.46C985.64,149,1114.61,164,1294.62,60.38l.84.79c-80.4,46.29-158.2,73-237.84,81.61-69.5,7.53-131.38.32-186-6-39.24-4.58-76.31-8.89-111.79-7.45-64.48,2.59-133.52,28.36-189.41,70.7C519.32,238.73,486.06,286.52,483.64,324.72Z"/><path class="cls-6" d="M492.44,329.83l-1.37-.06c2.88-39.33,35.5-86.1,87.26-125.11C633.91,162.77,703,137,768,134c36.28-1.72,73.8,2.23,113.52,6.41C993.23,152.13,1119.9,165.47,1298,69.09l.81.8c-79.58,43.06-156.32,68-234.59,76.3-68.36,7.23-129.25.82-183-4.84-39.65-4.17-77.1-8.11-113.25-6.4C629.26,141.46,498.32,249.35,492.44,329.83Z"/><path class="cls-6" d="M501.23,334.93l-1.37-.06c3.28-39.64,35.93-86.32,87.33-124.86a368.05,368.05,0,0,1,86.72-47.95A332.55,332.55,0,0,1,776.1,139.6c37-2,75,1.56,115.15,5.34,109.7,10.31,234,22,410.21-67.15l.78.83c-78.72,39.83-154.37,63-231.25,71-67.2,6.93-127.08,1.31-179.91-3.66-40.12-3.77-78-7.34-114.87-5.33-64.7,3.47-133.23,29-188,70.11C537,249.09,504.49,295.52,501.23,334.93Z"/><path class="cls-6" d="M510,340l-1.36-.07c3.67-40,36.34-86.53,87.39-124.6a367.72,367.72,0,0,1,86.31-47.49,339.84,339.84,0,0,1,101.9-22.62c37.8-2.32,76.26.85,117,4.22,107.6,8.88,229.56,19,403.66-63l.74.84c-174.51,82.12-296.73,72-404.56,63.13-40.64-3.36-79-6.52-116.69-4.22-64.81,3.91-133.09,29.36-187.35,69.82C546.2,254,513.68,300.32,510,340Z"/><path class="cls-6" d="M518.82,345.14l-1.37-.07c4.07-40.26,36.77-86.74,87.46-124.34,54.72-40.59,121.31-65.38,187.51-69.82,38.69-2.64,77.72.13,119,3.07,105.46,7.48,225,16,396.85-58.78l.7.86C1136.77,171,1017,162.48,911.33,155c-41.25-2.93-80.22-5.7-118.78-3.06-65.88,4.41-132.17,29.1-186.66,69.52C555.41,258.87,522.86,305.11,518.82,345.14Z"/><path class="cls-6" d="M527.61,350.25l-1.36-.08c4.46-40.56,37.18-86.95,87.52-124.09,54.15-39.94,120.49-64.63,186.81-69.52,39.7-3,79.4-.62,121.44,1.87,103.25,6.13,220.29,13.08,389.72-54.52l.65.88c-169.79,67.74-287,60.78-390.48,54.64-42-2.49-81.62-4.84-121.19-1.87-66,4.87-132.05,29.45-186,69.23C564.62,263.76,532.05,309.92,527.61,350.25Z"/><path class="cls-6" d="M536.4,355.35l-1.36-.08c4.92-41.47,36.85-86.61,87.6-123.83,53.56-39.29,119.65-63.87,186.1-69.22,40.87-3.35,81.38-1.43,124.26.62,101,4.8,215.42,10.25,382.17-50.22l.61.89c-167.08,60.59-281.72,55.14-382.87,50.32-42.82-2-83.27-4-124-.62C664.61,174.82,546,274.23,536.4,355.35Z"/><path class="cls-6" d="M545.2,360.46l-1.37-.09c5.32-41.77,37.27-86.81,87.67-123.58,53-38.63,118.81-63.11,185.4-68.92,42.25-3.75,83.74-2.27,127.66-.69,98.58,3.52,210.31,7.52,374-45.86l.56.92c-164,53.48-275.93,49.47-374.66,45.93-43.87-1.57-85.31-3-127.44.69-66.29,5.79-131.85,30.16-184.6,68.64C582.28,274.1,550.48,318.92,545.2,360.46Z"/><path class="cls-6" d="M554,365.56l-1.36-.1c5.7-42.06,37.67-87,87.73-123.31,52.36-38,118-62.35,184.7-68.63,43.91-4.2,86.63-3.17,131.86-2.08,96,2.3,204.88,4.92,365.11-41.41l.51.93C1162,177.36,1053,174.75,956.88,172.43c-45.18-1.08-87.85-2.1-131.65,2.09C690.51,187.18,566.3,274.67,554,365.56Z"/><path class="cls-6" d="M562.78,370.67l-1.36-.11c6.08-42.36,38.08-87.21,87.8-123,51.75-37.32,117.1-61.59,184-68.33,46-4.72,90.3-4.17,137.21-3.59,93.27,1.15,199,2.46,355.05-36.85l.44.94c-156.31,39.37-262.14,38.06-355.51,36.91-46.85-.58-91.11-1.12-137,3.58C699.6,193.66,575.67,280.9,562.78,370.67Z"/><path class="cls-6" d="M571.58,375.77l-1.36-.11c6.55-43.27,37.76-86.89,87.86-122.8,51.13-36.65,116.23-60.81,183.29-68,48.67-5.32,95.11-5.28,144.28-5.23,90.15.08,192.33.18,343.25-32.15l.39,1c-151.12,32.38-253.4,32.28-343.64,32.2-49.1,0-95.5-.09-144.08,5.22C706.35,200.38,585.23,285.59,571.58,375.77Z"/><path class="cls-6" d="M580.37,380.88l-1.36-.12c14.48-91,133.31-174.57,270.52-190.28,52.32-6.07,101.77-6.56,154.12-7.08,86.48-.85,184.5-1.82,328.69-27.25l.32,1c-144.33,25.45-242.44,26.42-329,27.27-52.3.52-101.7,1-153.93,7.07C713.11,207.12,594.78,290.31,580.37,380.88Z"/><path class="cls-6" d="M589.16,386l-1.35-.12C603,294.52,719.06,213,857.69,196.14c57.62-7.08,109.13-8.09,168.78-9.26,81.82-1.6,174.57-3.41,309.31-22l.25,1c-134.85,18.61-227.65,20.43-309.53,22-59.59,1.17-111.06,2.18-168.59,9.24C719.86,213.88,604.32,295.07,589.16,386Z"/><path class="cls-6" d="M598,391.08,596.6,391c7.69-44.14,39-87.48,88.06-122s113.54-58.47,181.19-67.14c66-8.56,124.8-10.13,192.84-12,75.16-2,160.35-4.3,280.53-16.26l.19,1c-120.25,12-205.48,14.25-280.67,16.27-68,1.82-126.72,3.4-192.66,11.95C726.61,220.66,613.84,299.85,598,391.08Z"/><path class="cls-6" d="M606.75,396.19l-1.36-.13c8.06-44.42,39.36-87.67,88.13-121.78,48.53-33.93,112.62-57.67,180.49-66.83,81.07-11.06,150.55-13,238.51-15.56,63.47-1.82,135.41-3.87,230.14-9.6l.12,1c-94.77,5.74-166.72,7.79-230.2,9.61-87.91,2.51-157.34,4.5-238.32,15.54C733.35,227.47,623.35,304.67,606.75,396.19Z"/><path class="cls-6" d="M615.54,401.29l-1.35-.13c8.54-45.35,39-87.37,88.2-121.52,48.53-33.72,110.69-56.73,179.77-66.54,111.6-16,194.66-17.37,345.45-19.91,34.94-.59,74.55-1.26,118.5-2.19l0,1c-44,.93-83.56,1.6-118.51,2.19-150.71,2.54-233.73,3.94-345.22,19.89C740.09,234.29,632.83,309.53,615.54,401.29Z"/><path class="cls-6" d="M624.34,406.4l-1.36-.14c8.92-45.63,39.44-87.56,88.27-121.27,47.82-33,109.74-55.91,179.07-66.24,139.95-21,237.42-23.13,459.23-19l0,1c-221.69-4.1-319.09-1.92-458.91,19C746.82,241.15,642.31,314.42,624.34,406.4Z"/><path class="cls-6" d="M633.13,411.5l-1.35-.15c9.28-45.89,39.82-87.74,88.33-121,47.09-32.29,108.77-55.09,178.37-65.94,134.61-21.07,223.33-29.51,454.51-16l-.11,1c-231-13.52-319.64-5.09-454.11,15.95C755.75,247.68,651.48,320.73,633.13,411.5Z"/><path class="cls-6" d="M641.92,416.6l-1.35-.15c9.64-46.17,40.21-87.92,88.4-120.74,46.34-31.57,107.78-54.27,177.67-65.65,143.94-23.48,229.32-34.72,449.79-12.91l-.18,1C1136,196.35,1050.72,207.58,906.94,231,762.46,254.56,660.91,325.67,641.92,416.6Z"/><path class="cls-6" d="M650.71,421.71l-1.35-.16c10.15-47.1,39.91-87.64,88.47-120.49,45.58-30.83,106.77-53.43,177-65.35l20.44-3.49c127.21-21.78,211.24-36.17,424.64-6.35l-.26,1c-213.11-29.77-297-15.4-424.07,6.35l-20.44,3.49C769.16,261.47,670.32,330.64,650.71,421.71Z"/><path class="cls-5" d="M873.34,260.34C717.52,214.6,531.93,229,360.44,247.21S-2.09,281.47-155.7,201.47l72.41-97.66c357.41,103.91,517.9-4,684.41-22.61C775.91,61.68,980.74,151,1016.24,225.14L913.81,365.05C803.44,283.3,612,254.13,434,254.78S80.81,280.61-97,284.92Z"/><path class="cls-6" d="M1015.59,225.3c-17.46-36.5-76.85-77.43-155-106.82C775,86.26,680.41,72.85,601.23,81.7c-42.87,4.79-85.65,15.58-130.94,27C405.72,125,332.54,143.47,243.68,147.87c-102,5-209-9.22-327.22-43.6l.51-.93c265,77.06,424.63,36.79,552.88,4.42C515.2,96.32,558,85.51,601,80.71c79.47-8.88,174.31,4.56,260.21,36.88,78.43,29.5,138.08,70.65,155.65,107.38Z"/><path class="cls-6" d="M1006,232.48c-18.15-36.78-77.75-77.72-155.52-106.83-85-31.84-179.37-45.28-258.86-36.89-44,4.64-87.47,15.2-133.52,26.39-63.5,15.43-135.48,32.92-222.44,37.47-99.66,5.22-204.3-7.3-319.91-38.28l.47-.94c259.05,69.42,409.08,33,541.45.8C503.75,103,547.3,92.42,591.39,87.77c79.77-8.42,174.42,5.06,259.68,37C929.14,154,989,195.13,1007.25,232.14Z"/><path class="cls-6" d="M996.34,239.66C956.88,162,753.85,78.73,582,95.83c-45.18,4.47-89.45,14.81-136.32,25.76-62.4,14.57-133.13,31.09-218.18,35.81C130.12,162.81,27.91,152-85,124.4l.43-.94c253,61.83,400,27.48,529.8-2.82,46.93-11,91.26-21.32,136.56-25.8,80.06-8,174.52,5.55,259.15,37.08,78.89,29.4,137.47,69.54,156.7,107.39Z"/><path class="cls-6" d="M986.72,246.84C966.91,208.94,908.38,169,830.15,140c-83.75-31-177.72-44.57-257.83-37.08-46.51,4.31-91.64,14.42-139.43,25.13-64.25,14.4-130.68,29.29-213.77,34.18-95,5.6-194.71-3.48-304.89-27.74l.4-1c246.7,54.33,390.76,22.05,517.86-6.44,47.85-10.72,93-20.85,139.65-25.17,80.38-7.51,174.64,6,258.63,37.19C909.3,168.21,968.07,208.36,988,246.48Z"/><path class="cls-6" d="M977.09,254C956.61,215.85,897.88,175.9,820,147.15,736.91,116.49,643.12,102.93,562.68,110c-48,4.15-94.07,14-142.88,24.52-124.53,26.73-265.68,57-506.3,10.06l.35-1c240.25,46.9,381.21,16.65,505.57-10,48.86-10.49,95-20.4,143.1-24.55,80.7-7.06,174.77,6.54,258.09,37.29,78.18,28.85,137.15,69,157.75,107.39Z"/><path class="cls-6" d="M967.47,261.19C925,184.08,730.71,102.58,553,117c-49.61,4-96.81,13.66-146.78,23.92-121.68,25-259.61,53.27-493.5,13.65l.31-1C146.62,193.19,284.36,164.92,405.9,140c50-10.26,97.27-20,147-23.95,42.26-3.44,87-1.59,133.09,5.48a655.91,655.91,0,0,1,124.48,31.92c77.83,28.58,137,68.73,158.28,107.39Z"/><path class="cls-6" d="M957.84,268.37C936,229.66,876.9,189.71,799.7,161.49c-83-30.31-174-43.59-256.29-37.4-51.5,3.82-100,13.31-151.27,23.35C273.42,170.69,138.85,197-88,164.67l.26-1c226.53,32.33,360.93,6,479.51-17.21,51.36-10.06,99.87-19.56,151.48-23.38,82.56-6.22,173.85,7.1,257,37.5C877.8,188.92,937.16,229.06,959.1,268Z"/><path class="cls-6" d="M948.22,275.55C925.4,236,867.57,197,789.54,168.66c-82.26-29.91-173.1-43.23-255.77-37.5-53.68,3.65-103.63,13-156.51,22.83-115.61,21.56-246.64,46-466,20.74l.22-1C130.56,199,261.44,174.55,376.92,153c52.94-9.88,102.94-19.2,156.72-22.86,82.93-5.74,174,7.61,256.51,37.61,78.31,28.47,136.38,67.61,159.33,107.39Z"/><path class="cls-6" d="M938.59,282.73c-23.48-39.83-81.5-78.79-159.2-106.9-81.55-29.5-172.21-42.86-255.26-37.61-56.27,3.49-108,12.66-162.8,22.38-112.28,19.92-239.54,42.49-450.78,24.2l.16-1c211,18.28,338.13-4.27,450.3-24.17,54.84-9.73,106.63-18.91,163-22.4,83.29-5.27,174.2,8.12,256,37.7,78,28.21,136.24,67.36,159.85,107.4Z"/><path class="cls-6" d="M929,289.9c-24.13-40.09-82.35-79-159.72-106.9-80.83-29.09-171.31-42.49-254.74-37.71-59.43,3.32-113.4,12.42-170.54,22.05C235.3,185.65,112.14,206.41-90.18,194.86l.1-1c202.12,11.54,325.17-9.2,433.73-27.5,57.19-9.64,111.21-18.74,170.74-22.07,83.67-4.78,174.4,8.64,255.46,37.81,77.65,28,136.1,67.1,160.37,107.4Z"/><path class="cls-6" d="M919.34,297.08c-24.79-40.35-83.19-79.32-160.25-106.91C679,161.49,588.7,148.05,504.86,152.35c-63.4,3.17-120.22,12.27-180.38,21.91C219.86,191,101.27,210-90.92,204.92l0-1c192,5.1,310.52-13.89,415.06-30.64,60.21-9.64,117.07-18.75,180.58-21.93,84.06-4.3,174.6,9.16,254.92,37.92,77.34,27.69,136,66.84,160.9,107.4Z"/><path class="cls-6" d="M909.72,304.26c-25.44-40.62-84-79.59-160.78-106.92-79.36-28.27-169.47-41.73-253.72-37.92-68.6,3-129.23,12.27-193.42,22.08C201.86,196.76,88.58,214.05-91.65,215v-1c180.09-.94,293.3-18.22,393.18-33.47,64.24-9.81,124.92-19.08,193.62-22.1,84.48-3.82,174.83,9.68,254.4,38C826.56,223.87,885.4,263,911,303.84Z"/><path class="cls-6" d="M900.09,311.44c-55.32-86.74-241.28-151.76-414.5-145-75.75,2.89-138.73,12.12-211.66,22.82C179.74,203.11,73,218.76-92.38,225.05l-.07-1c165.26-6.29,272-21.93,366.11-35.73,73-10.7,136-19.94,211.86-22.84C659.25,158.66,845.79,223.94,901.33,311Z"/><path class="cls-6" d="M890.46,318.61c-27.09-41.73-84.56-79.71-161.82-106.93-77.82-27.43-167.57-41-252.69-38.13-86.19,2.78-157,12.91-238.92,24.64C150.52,210.58,52.48,224.61-93.1,235.11l-.14-1c145.52-10.49,243.53-24.52,330-36.9,82-11.74,152.83-21.88,239.12-24.66,85.34-2.84,175.32,10.73,253.34,38.23,77.54,27.32,135.24,65.47,162.47,107.4Z"/><path class="cls-6" d="M880.84,325.79c-27.73-42-85.39-80-162.35-106.94S551.9,178.26,466.31,180.61C363.85,183.33,288,194.3,183,209.49c-74.82,10.82-159.63,23.08-276.8,35.68l-.2-1C23.11,231.59,107.9,219.32,182.7,208.51c105.08-15.2,181-26.18,283.56-28.9,85.81-2.33,175.59,11.27,252.82,38.34s135.12,65.21,163,107.4Z"/><path class="cls-6" d="M871.21,333c-28.36-42.25-86.2-80.23-162.87-107-76.22-26.57-165.6-40.2-251.66-38.34-129,2.67-217,16.37-362.91,39.08-53.67,8.35-114.5,17.81-188.33,28.46l-.26-1C-21,243.59,39.82,234.13,93.49,225.78c146-22.72,234.05-36.43,363.15-39.1,86.26-1.85,175.87,11.8,252.29,38.43,76.94,26.83,135,65,163.51,107.41Z"/><path class="cls-6" d="M861.59,340.14c-59.39-87-233.72-148.21-414.55-145.4-170,2.55-263.4,19.6-512.9,65.17l-29.43,5.37-.33-1,29.43-5.37c249.61-45.59,343-62.64,513.2-65.2,181.31-2.78,356.19,58.57,415.8,146Z"/><path class="cls-6" d="M852,347.32C792.27,261.14,625.78,201.77,445.3,201.77c-2.64,0-5.25,0-7.89,0-175.87,1.64-265.61,14-533.42,73.53l-.4-1c268-59.55,357.77-71.93,533.8-73.57,87.29-.85,176.51,12.88,251.23,38.64C766.1,266.16,823,303.3,853.18,346.87Z"/><path class="cls-6" d="M842.34,354.5c-61.72-87.79-228.28-146.31-414.57-145.63-176,.65-261.11,7.08-524.51,76.52l-.46-.94c263.6-69.5,348.77-75.93,525-76.58,87.78-.31,176.86,13.44,250.71,38.75,77.2,26.46,134.28,63.61,165.08,107.42Z"/><path class="cls-5" d="M-6.49-52.33C-30.35,1.15,19.76,59.52,85.39,88.82s143.94,37.91,218.09,52.75,151,39.6,189.64,88.22l-54.86,246c-38.69-48.62-115.49-73.37-189.64-88.22S96.15,364.11,30.52,334.8-85.21,247.14-61.35,193.66Z"/><path class="cls-6" d="M492.53,230c-31.91-40.11-93.81-68.89-189.23-88-17.28-3.46-35.09-6.63-52.32-9.7C194.18,122.23,135.44,111.76,85,89.25c-33.87-15.13-62.19-37-79.74-61.71C-14.07.35-18.36-27.32-7.14-52.48l1.3.31C-30.18,2.39,21.81,59.84,85.74,88.39c50.23,22.44,108.86,32.89,165.56,43,17.24,3.07,35.06,6.25,52.36,9.71,95.79,19.17,158,48.1,190,88.45Z"/><path class="cls-6" d="M490.33,239.88c-31.88-40.08-93.12-69.33-187.21-89.42-18.07-3.85-36.79-7.37-54.89-10.78C193.06,129.31,136,118.58,86,96.41,50.69,80.88,21.46,57.89,3.71,31.67c-18.95-28-23.14-56.62-12.12-82.8l1.31.29C-28.39-.27,11.93,62.67,86.7,95.56c49.84,22.09,106.79,32.8,161.87,43.15,18.11,3.41,36.84,6.93,54.93,10.79,43.32,9.25,78.6,20,107.88,32.9,35.54,15.64,62.5,34.81,80.14,57Z"/><path class="cls-6" d="M488.14,249.72c-32.35-40.67-91.2-69.53-185.21-90.84-18.65-4.23-38.06-8.09-56.83-11.82C192.37,136.39,136.8,125.35,87,103.58,50.19,87.51,20.08,63.42,2.19,35.74-16.12,7.42-20.33-22.95-9.67-49.79l1.31.28C-30,4.94,10.4,69,87.66,102.72c49.68,21.7,105.15,32.72,158.8,43.38,18.78,3.73,38.2,7.59,56.88,11.82,94.35,21.39,153.44,50.4,186,91.29Z"/><path class="cls-6" d="M486,259.56c-32.43-40.75-90.64-70.07-183.2-92.27-19.2-4.61-39.3-8.8-58.73-12.86-52.37-10.93-106.51-22.24-156.09-43.69C8.92,76.56-32.66,9.61-10.94-48.44l1.32.27C-31.18,9.45,10.14,75.92,88.63,109.88c49.42,21.38,103.48,32.67,155.76,43.59,19.45,4.06,39.56,8.26,58.78,12.87,92.9,22.28,151.36,51.74,184,92.71Z"/><path class="cls-6" d="M483.75,269.4c-32.54-40.9-90.11-70.67-181.19-93.7-19.68-5-39.49-9.32-60.46-13.91C191,150.61,138.22,139.05,88.9,117.91,48.48,100.58,17.42,75-.92,44c-17.51-29.66-21.52-62-11.29-91l1.32.25C-32.31,14,10,82.9,89.59,117c49.18,21.09,101.91,32.63,152.9,43.8,21,4.59,40.81,8.93,60.52,13.91,91.4,23.11,149.21,53,181.92,94.14Z"/><path class="cls-6" d="M481.56,279.24c-32.7-41.1-89.64-71.33-179.18-95.13-20.11-5.35-40.49-10-62.07-15-49.84-11.41-101.38-23.22-150.45-44.08-42-17.86-73.94-44.49-92.34-77-17.11-30.24-21-63.55-11-93.79l1.33.23C-33.7,19.55,8.53,89.34,90.55,124.2c48.93,20.81,100.4,32.6,150.17,44,21.59,4.94,42,9.62,62.13,15,89.86,23.89,147,54.25,179.89,95.56Z"/><path class="cls-6" d="M479.36,289.08c-32.9-41.36-89.19-72-177.16-96.56-20.51-5.71-41.43-10.72-63.58-16-48.67-11.65-99-23.69-147.79-44.27C47.2,113.83,14.4,86.15-4,52.17c-16.7-30.79-20.5-65.08-10.7-96.56l1.33.22C-30.8,11.73-5.39,90.5,91.51,131.37c48.68,20.52,98.93,32.55,147.54,44.18,22.16,5.3,43.1,10.31,63.64,16,88.27,24.6,144.79,55.42,177.85,97Z"/><path class="cls-6" d="M477.17,298.92c-33.61-42.24-87.63-72.46-175.15-98-20.87-6.08-42.33-11.44-65-17.11C189.45,172,140.3,159.7,91.79,139.4-7.35,97.9-33.79,17.87-16-43l1.34.21C-32.35,17.72-6.07,97.29,92.47,138.53c48.4,20.25,97.48,32.5,145,44.35,22.73,5.67,44.2,11,65.1,17.12,87.83,25.62,142.06,56,175.83,98.41Z"/><path class="cls-6" d="M475,308.75c-33.9-42.61-87.3-73.27-173.14-99.41-21.21-6.46-43.21-12.17-66.5-18.23-46.41-12.06-94.4-24.53-142.57-44.55-107-44.48-126.17-129.21-110-188.26l1.34.2c-16,58.72,3,143,109.36,187.19,48.07,20,96,32.43,142.35,44.48,23.31,6.06,45.33,11.78,66.58,18.25,86.13,26.23,139.73,57,173.79,99.83Z"/><path class="cls-6" d="M472.78,318.59c-34.24-43-87-74.14-171.13-100.83-21.57-6.85-44.13-12.95-68-19.41-45.29-12.24-92.12-24.9-139.91-44.62C44.44,133.38,10,103.37-8.73,64.52c-15.42-32-18.9-69.29-9.81-104.87l1.34.18c-16.42,64.27,4.27,148.73,111.6,193,47.69,19.69,94.47,32.33,139.7,44.56,23.91,6.47,46.49,12.57,68.09,19.43,84.4,26.79,137.37,58,171.77,101.25Z"/><path class="cls-6" d="M470.58,328.43c-35.09-44.11-85.67-74.69-169.11-102.26-21.94-7.25-45.11-13.76-69.65-20.65-44.15-12.4-89.8-25.22-137.13-44.63-51-20.91-86.32-51.95-105-92.24C-25.27,36.31-28.65-1.92-19.81-39l1.35.17C-26.21-6.31-40.92,104.14,95.36,160c47.24,19.37,92.85,32.18,137,44.57,24.56,6.89,47.75,13.41,69.72,20.66,83.72,27.67,134.48,58.37,169.74,102.68Z"/><path class="cls-6" d="M468.39,338.27c-35.53-44.66-85.51-75.67-167.1-103.69-22.34-7.67-46.19-14.62-71.43-22-43-12.53-87.44-25.49-134.21-44.55C42.94,146.57,6.77,114.51-11.86,72.77S-27.14-10.3-21.07-37.66l1.35.16c-9.64,43.4-17.61,150.22,116,204.68,46.68,19,91.09,32,134,44.49,25.27,7.36,49.14,14.32,71.51,22,81.86,28.12,132,59.25,167.7,104.1Z"/><path class="cls-6" d="M466.19,348.11C429.7,302.24,381.87,271.78,301.1,243c-22.79-8.13-47.41-15.57-73.48-23.45-39.81-12-84.94-25.67-131-44.32-54.45-22.06-91.47-55.13-110-98.32C-31.45,35-28.22-7.77-22.34-36.31l1.35.15c-11.55,56-11.54,157.92,118.27,210.5,46,18.63,91.08,32.26,130.86,44.28,26.09,7.88,50.73,15.33,73.56,23.47,81,28.89,129,59.46,165.68,105.52Z"/><path class="cls-6" d="M464,358c-31.29-39.33-71-72.5-163.08-106.55-23.33-8.63-48.85-16.62-75.87-25.07-38.57-12.07-82.28-25.75-127.47-44C41.4,159.75,3.52,125.66-15,81-29,47.39-31.87,8.36-23.6-35l1.35.13C-35.81,36.26-25.92,131.5,98.24,181.5c45.13,18.18,88.81,31.85,127.35,43.91,27,8.46,52.58,16.45,76,25.1C393.91,284.67,433.77,318,465.18,357.45Z"/><path class="cls-6" d="M461.81,367.79c-31.79-40-71.35-73.6-161.07-108-24-9.19-50.6-17.81-78.78-26.93-37.2-12-79.35-25.69-123.41-43.34C-2.3,149.15-43.82,74.07-24.87-33.62l1.36.13C-42.39,73.75-1.1,148.49,99.21,188.67c44,17.62,86.13,31.26,123.3,43.29,28.2,9.13,54.84,17.76,78.86,27,90,34.49,129.71,68.27,161.62,108.37Z"/><path class="cls-6" d="M459.61,377.63c-33.24-41.78-71.44-74.66-159-109.41-24.8-9.84-52.78-19.2-82.4-29.1-35.64-11.92-76-25.44-118.64-42.41C39.82,172.93.23,136.79-18.15,89.31c-13.13-33.88-15.74-73.65-8-121.58l1.35.11C-43,80.5-2.13,155.07,100.17,195.83c42.57,17,82.94,30.46,118.56,42.38,29.64,9.91,57.64,19.28,82.48,29.13C389.1,302.2,427.43,335.2,460.79,377.13Z"/><path class="cls-6" d="M457.42,387.47c-30-37.69-62.5-72-157-110.84-25.85-10.61-55.56-20.86-87-31.72-33.83-11.67-72.17-24.9-112.88-41C39,179.51-1.42,142.36-19.73,93.45-36.49,48.71-32.13,1-27.4-30.93l1.36.11C-37,43.55-35.85,148.7,101.13,203c40.68,16.13,79,29.35,112.81,41,31.48,10.86,61.21,21.12,87.1,31.75C395.89,314.68,428.51,349.15,458.6,387Z"/><path class="cls-6" d="M455.22,397.31C423.59,357.55,392.08,324,300.19,285c-27.21-11.55-57.75-22.4-93.1-35-31.62-11.24-67.47-24-105.65-39-33.78-13.33-61.5-30.47-82.38-51A166.46,166.46,0,0,1-21.31,97.6C-37,54.16-33.85,8.93-28.66-29.58l1.36.1C-39.24,59.07-33.2,156.8,102.09,210.16c38.16,15,74,27.78,105.6,39,35.37,12.58,65.93,23.44,93.19,35,92.18,39.12,123.78,72.74,155.52,112.63Z"/><path class="cls-6" d="M453,407.15c-28-35.19-56.95-71.57-153-113.7-29.08-12.75-62.61-25-101.45-39.19-28.8-10.52-61.45-22.44-96.15-36.06-65.92-25.87-106.9-64-125.3-116.46-14.92-42.58-12.2-87.63-7-130l1.36.09c-7.88,64.64-22.55,185,131.63,245.47,34.68,13.61,67.32,25.53,96.11,36.05,38.86,14.19,72.42,26.45,101.54,39.22,96.38,42.26,125.42,78.76,153.5,114.05Z"/><path class="cls-6" d="M450.83,417l-1.95-2.46C420,378.24,392.8,344,299.83,301.86c-31.69-14.35-69.57-28.53-113.44-44.94-26.17-9.8-53.24-19.92-83-31.56C35.65,198.91-6.17,159.83-24.47,105.89-40.55,58.52-34.92,7.12-31.19-26.89l1.36.08C-37.65,44.56-50.73,164,104,224.48c29.77,11.63,56.83,21.76,83,31.55,43.89,16.42,81.79,30.61,113.53,45,93.26,42.24,120.58,76.62,149.51,113l1.95,2.45Z"/><path class="cls-6" d="M448.64,426.83c-1.71-2.15-3.4-4.29-5.09-6.43C416,385.49,390,352.51,299.65,310.27c-35.54-16.62-80.17-33.65-131.83-53.36-20.18-7.7-41-15.65-63.48-24.38C35.36,205.7-7.14,166.08-25.6,111.39-41.3,64.91-36.52,16-32.68-23.26l.22-2.28,1.36.07-.22,2.28c-7.56,77.43-19,194.44,136.3,254.83,22.44,8.73,43.3,16.69,63.47,24.38,51.69,19.73,96.34,36.76,131.94,53.41C391,351.8,417.09,384.88,444.74,419.9q2.52,3.21,5.08,6.42Z"/><path class="cls-6" d="M446.44,436.67c-2.57-3.24-5.08-6.46-7.6-9.69-25.2-32.33-51.27-65.77-139.37-108.3-41.69-20.13-95.25-40.8-163.06-67q-15.09-5.82-31.11-12C35.89,212.81-7.09,173.3-26.07,118.89-42.25,72.52-37.91,23.3-34.42-16.25q.36-4,.7-7.95l1.36.06c-.22,2.61-.46,5.27-.69,8-7.25,82.09-17.17,194.52,139,255l31.1,12c67.85,26.19,121.43,46.87,163.18,67,88.37,42.66,114.52,76.2,139.81,108.64,2.51,3.22,5,6.44,7.59,9.67Z"/><path class="cls-6" d="M444.25,446.51c-3.28-4.13-6.5-8.32-9.61-12.38-24.15-31.5-49.12-64.08-135.35-107-46.21-23-106.43-46.71-193-80.24C36.25,220-7.24,180.5-26.68,126.21-43.29,79.84-39.27,30.24-36-9.62c.36-4.52.72-8.94,1-13.23l1.37.05c-.32,4.3-.68,8.72-1.05,13.24C-41.35,72.77-50.5,185.52,106.91,246c86.63,33.54,146.88,57.24,193.15,80.29C386.55,369.35,411.61,402,435.84,433.64c3.1,4.06,6.32,8.25,9.59,12.36Z"/><path class="cls-6" d="M442.05,456.34c-3.85-4.85-7.58-9.81-11.18-14.6C407.7,410.9,383.75,379,299.11,335.5c-41.36-21.26-98.75-45.63-191.88-81.48C-52.4,192.89-43.81,79.32-37.54-3.61c.48-6.24.92-12.14,1.29-17.9l1.36.05c-.36,5.76-.81,11.66-1.28,17.91C-42.43,79.1-51,192.3,107.87,253.13c93.19,35.88,150.61,60.27,192,81.55,84.91,43.64,108.94,75.63,132.18,106.58,3.59,4.79,7.32,9.74,11.17,14.58Z"/><path class="cls-6" d="M439.86,466.18c-4.33-5.44-8.26-10.79-12.42-16.46-21.2-28.9-45.23-61.65-128.52-105.81-44.9-23.81-105.5-50.1-190.72-82.73C-53.09,199.59-44.93,85.42-39,2.06c.55-7.78,1.08-15.13,1.45-22.22l1.37,0C-36.53-13-37-5.67-37.61,2.11-43.55,85.2-51.68,199,108.83,260.29c85.28,32.66,145.94,59,190.9,82.81,83.54,44.3,107.65,77.16,128.92,106.15,4.15,5.66,8.07,11,12.39,16.43Z"/><path class="cls-6" d="M437.67,476c-4.72-5.92-8.92-11.8-13.36-18-32.06-44.84-68.39-95.66-315.15-189.66C-53.95,206.21-46.1,91.32-40.36,7.44c.63-9.22,1.22-17.93,1.58-26.26l1.36,0c-.35,8.34-.95,17.05-1.58,26.28-5.71,83.61-13.54,198.13,148.79,260C219.92,309.4,298,346.61,348.44,381.2c44.13,30.25,61.63,54.74,77.08,76.34,4.44,6.21,8.63,12.07,13.33,18Z"/><path class="cls-5" d="M-12.53,170.18c143.49,80,322,64,482.17,45.74S803.22,183.31,948.79,229V347.17c-145.57-45.73-318.94-31.34-479.15-13.12s-329.51,38.77-482.17,3.27Z"/><path class="cls-6" d="M262.92,231.26c-13.6,0-27.17-.27-40.67-.88-93.64-4.21-170.57-23.77-235.2-59.8l.83-.8c138.15,77,306.67,65.54,481.66,45.65,78.76-9,163-17.27,245.16-17.43h2.4c90.57,0,166.46,10,232,30.59l-.54.91C802.88,183.75,632.14,198,469.75,216.41,402.83,224,332.41,231.26,262.92,231.26Z"/><path class="cls-6" d="M948.51,239.34c-146.82-48.1-334.72-35-482-18.29l-8.94,1c-79.17,9-161,18.34-241.18,16.09-90.88-2.56-165.88-20.11-229.3-53.65l.8-.81C129.22,258.46,296,239.46,457.34,221.08l8.94-1C528.55,213,622,203.7,714,204.8c92.53,1.12,169.42,12.12,235.07,33.63Z"/><path class="cls-6" d="M948.5,249.18c-116.3-39.72-275-47.41-485.27-23.5q-17.91,2-36,4.18C277,247.5,121.52,265.73-12.92,198.45l.77-.83C121.84,264.69,277,246.48,427,228.87q18.06-2.12,36-4.18c210.52-23.94,369.5-16.22,486.06,23.59Z"/><path class="cls-6" d="M948.49,259C800.21,206.24,601,214.28,460,230.32c-19.59,2.22-39.63,4.71-59,7.12-140.45,17.45-285.69,35.5-413.86-25.05l.74-.84c127.73,60.34,272.7,42.33,412.9,24.91,19.38-2.41,39.42-4.9,59-7.13,90.28-10.27,175.35-13.94,252.83-10.92,93.1,3.64,172.67,17,236.49,39.72Z"/><path class="cls-6" d="M948.48,268.87C781.17,206.81,548.84,224.47,456.72,235c-26.24,3-53,6.57-78.83,10-65.61,8.8-133.44,17.89-198.71,17.89h-.92c-73.53-.1-136.06-12.05-191.15-36.55l.71-.85C110.14,279.86,246.13,261.63,377.64,244c25.87-3.47,52.61-7.05,78.87-10,86.93-9.88,175.24-12.91,255.39-8.74C806,230.11,885.79,244.49,949.1,268Z"/><path class="cls-6" d="M948.47,278.71c-140.67-54.35-347.94-55.85-495-39.12-32.1,3.64-64.59,8.4-96,13-62.28,9.11-126.68,18.53-188.58,19.28-69.32.83-128.75-9.5-181.74-31.6l.67-.87c117.57,49.05,239.89,31.15,369.38,12.21,31.44-4.6,63.94-9.35,96.07-13,147.29-16.75,354.89-15.24,495.86,39.22Z"/><path class="cls-6" d="M948.46,288.55C813.3,234.16,600.82,227.09,450.2,244.22c-37.3,4.24-74.74,10.26-111,16.07C216.7,280,101,298.57-12.85,254.19l.64-.88c113.36,44.21,228.87,25.65,351.16,6,36.23-5.82,73.7-11.84,111-16.09,82.66-9.4,175.17-11,260.5-4.4,94.83,7.29,177.34,24.18,238.63,48.84Z"/><path class="cls-6" d="M948.45,298.38C811,240.8,592.16,232.34,447,248.85,405,253.62,363.29,261,323,268.14c-116.08,20.54-225.72,39.95-335.79,0l.61-.9c109.62,39.8,219,20.44,334.86-.06,40.36-7.14,82.1-14.53,124.11-19.31,81.51-9.26,174.93-10.06,263-2.23,95.92,8.53,178.69,26.47,239.34,51.89Z"/><path class="cls-6" d="M948.44,308.22c-133.83-58.39-355.22-71.74-504.75-54.73-46.13,5.24-91.51,14.09-135.38,22.65C198,297.65,93.9,318-12.82,282.06l.57-.9C94,316.9,197.94,296.64,308,275.17c43.92-8.56,89.32-17.42,135.53-22.67,80.56-9.16,174.89-9.18,265.61-.06,97.06,9.76,180.07,28.75,240,54.93Z"/><path class="cls-6" d="M948.43,318.06c-116.19-52.79-339.33-79.12-508-59.94-49.9,5.68-98.41,16.09-145.32,26.17C190.1,306.85,90.91,328.15-12.8,296l.53-.92c103.27,32,202.23,10.76,307-11.75,46.95-10.08,95.5-20.51,145.49-26.2,79.75-9.07,175-8.32,268.16,2.12,96.86,10.84,182.36,31.43,240.77,58Z"/><path class="cls-6" d="M948.42,327.9c-115.85-54.8-345.19-84-511.25-65.14-53.31,6.06-104.48,18.14-154,29.82-100.26,23.68-195,46-296,17.35l.49-.93c100.57,28.55,195,6.25,295.07-17.37,49.54-11.69,100.77-23.79,154.18-29.86,79.08-9,175.22-7.47,270.72,4.28,98.07,12.07,183.83,33.74,241.48,61Z"/><path class="cls-6" d="M948.41,337.74c-115.21-56.74-350.82-89-514.49-70.35-56.4,6.41-109.83,20.24-161.49,33.62-96,24.84-186.6,48.3-285.19,22.86l.45-.95c98.14,25.33,188.56,1.93,284.28-22.85,51.73-13.4,105.21-27.24,161.74-33.67,77.36-8.8,177-6.44,273.27,6.46,99.33,13.3,185.34,36.05,242.19,64.05Z"/><path class="cls-6" d="M948.4,347.58C834.1,289,592.17,253.66,430.66,272c-59.19,6.73-114.51,22.39-168,37.53-92,26.06-179,50.67-275.4,28.25l.41-.95c96,22.31,182.68-2.24,274.5-28.23,53.56-15.16,108.94-30.84,168.28-37.58,76.88-8.75,177.41-5.6,275.82,8.62,100.64,14.55,186.91,38.38,242.91,67.1Z"/><path class="cls-5" d="M405.12,539.31C663,564.07,934.3,499.85,1123.52,369.23c68.07-47,156.67-77.82,249.45-86.78V35.38c-92.78,9-181.8,38.2-249.87,85.19C933.88,251.2,663,317,405.12,292.24Z"/><path class="cls-6" d="M512.13,297.94c-36.93,0-73.64-1.73-109.83-5.2l.17-1c259.28,24.9,527.63-38.63,717.84-169.94,68.19-47.07,156.91-77.94,249.84-86.91l.18,1c-92.65,8.95-181.1,39.72-249.08,86.64C1028.34,186.67,913,236.26,787.55,266A1202.87,1202.87,0,0,1,512.13,297.94Z"/><path class="cls-6" d="M523.56,302.66A1088.91,1088.91,0,0,1,402.8,296l.2-1c251,28,524-35.33,712.3-165.34,33.1-22.85,72.86-41.91,118.16-56.64A643.24,643.24,0,0,1,1370.15,45l.18,1c-97.38,9.41-190,40.18-254.1,84.44-93,64.21-208,113.47-332.62,142.44A1154.12,1154.12,0,0,1,523.56,302.66Z"/><path class="cls-6" d="M534.08,307.52a1032.74,1032.74,0,0,1-130.78-8.19l.24-1C650.19,329.87,921,268.28,1110.28,137.61c32.42-22.38,73-41.06,120.69-55.54,42.66-13,90.79-22.28,139.18-26.95l.18,1c-103.45,10-197.89,40-259.11,82.23-93.13,64.29-207.78,113.2-331.56,141.46A1109,1109,0,0,1,534.08,307.52Z"/><path class="cls-6" d="M543.6,312.5a977.47,977.47,0,0,1-139.8-9.88l.27-1c242.26,35,510.94-24.79,701.2-156.12,80.14-55.33,200.36-74.05,264.88-80.28l.18,1c-64.36,6.22-184.26,24.88-264.13,80C951.67,252.92,745.47,312.5,543.6,312.5Z"/><path class="cls-6" d="M552.67,317.6A930.19,930.19,0,0,1,404.3,305.92l.3-1C642.48,343.49,909,285.43,1100.25,153.42c72.38-50,186.72-70,269.9-78.06l.18,1c-83,8-197,28-269.14,77.8-93.34,64.44-207.26,112.67-329.43,139.49A1025.33,1025.33,0,0,1,552.67,317.6Z"/><path class="cls-6" d="M560.87,322.81a881.4,881.4,0,0,1-156.07-13.6l.33-1C638.62,350.3,903.05,294,1095.23,161.33c55.1-38,147.6-63.56,274.92-75.86l.18,1c-127,12.26-219.27,37.7-274.16,75.59-93.44,64.51-207,112.4-328.36,138.51A987.68,987.68,0,0,1,560.87,322.81Z"/><path class="cls-6" d="M568.4,328.12a838.05,838.05,0,0,1-163.1-15.61l.36-1c229.09,45.57,491.4-9,684.56-142.3,70.36-48.58,193.45-65.3,279.93-73.65l.18,1c-86.29,8.34-209.1,25-279.17,73.38C997.6,234.55,884.42,282.1,763.86,307.49A951.33,951.33,0,0,1,568.4,328.12Z"/><path class="cls-6" d="M575.32,333.53c-58.39,0-115.41-5.91-169.51-17.73l.39-1c221.28,48.35,487.8-5.71,679-137.7,65.17-45,180.61-61.35,285-71.43l.18,1c-104.12,10.06-219.3,26.38-284.19,71.17-93.66,64.66-206.47,111.88-326.23,136.55A917.71,917.71,0,0,1,575.32,333.53Z"/><path class="cls-6" d="M581.67,339c-60.7,0-119.74-6.64-175.36-19.93l.42-.95C623.67,370,888,317.71,1080.19,185.05c69.41-47.92,202.13-60.74,290-69.22l.18,1c-87.65,8.46-220.11,21.26-289.21,69C987.35,250.51,874.91,297.39,756,321.34A885,885,0,0,1,581.67,339Z"/><path class="cls-6" d="M587.47,344.55c-62.29,0-123.26-7.24-180.67-22.17l.46-.94C619.86,376.72,882,326.29,1075.17,193c65.23-45,190.78-57,282.46-65.81l12.52-1.21.18,1-12.53,1.2c-91.49,8.75-216.78,20.74-281.69,65.54C934.73,291.28,756.38,344.55,587.47,344.55Z"/><path class="cls-6" d="M592.82,350.27c-64.89,0-127.48-8.22-185.52-24.59l.5-.94C616.05,383.5,876,334.87,1070.15,200.86c62-42.83,184.32-54.1,273.61-62.33,9.12-.84,17.94-1.65,26.39-2.47l.18,1c-8.45.82-17.28,1.63-26.4,2.47-89.1,8.22-211.12,19.47-272.84,62.07-94,64.89-205.69,111.08-323,133.6A825.5,825.5,0,0,1,592.82,350.27Z"/><path class="cls-6" d="M597.69,356c-66.81,0-130.93-9-189.89-27l.53-.92c203.9,62.22,461.71,15.4,656.81-119.28,59.53-41.1,174.68-51.13,267.2-59.19,13.35-1.16,26-2.26,37.81-3.4l.18,1c-11.87,1.15-24.48,2.25-37.83,3.41-92.32,8-207.22,18-266.42,58.92-94.1,65-205.44,110.82-322,132.61A797.9,797.9,0,0,1,597.69,356Z"/><path class="cls-6" d="M602.13,361.81c-68.61,0-134.13-9.9-193.83-29.55l.56-.91C605.34,396,867.06,350,1060.12,216.68c57.52-39.71,171.22-48.92,262.57-56.31,16.9-1.37,32.85-2.66,47.46-4.07l.18,1c-14.62,1.41-30.59,2.7-47.49,4.07-91.15,7.38-204.59,16.56-261.78,56C966.85,282.44,855.89,328,740.17,349A771.39,771.39,0,0,1,602.13,361.81Z"/><path class="cls-6" d="M606.18,367.68c-70.32,0-137.11-10.77-197.38-32.13l.6-.9c192.19,68.12,451.68,23.88,645.71-110.07,55.85-38.56,168.61-46.92,259.22-53.65,20-1.48,38.94-2.89,55.82-4.52l.18,1c-16.9,1.63-35.82,3-55.86,4.52-90.4,6.71-202.91,15.06-258.43,53.38C961.72,290.42,851.13,335.6,736.22,356A746.33,746.33,0,0,1,606.18,367.68Z"/><path class="cls-6" d="M609.85,373.62C537.91,373.62,470,362,409.3,338.84l.63-.88c187.89,71.53,445.15,29.15,640.16-105.47,54.45-37.59,166.68-45.12,256.86-51.16,22.84-1.54,44.41-3,63.2-4.8l.18,1c-18.81,1.82-40.4,3.27-63.25,4.8-90,6-201.94,13.54-256,50.9a795.25,795.25,0,0,1-152.75,82.09,805.75,805.75,0,0,1-166,47.57A722.7,722.7,0,0,1,609.85,373.62Z"/><path class="cls-6" d="M613.18,379.62c-73.48,0-142.42-12.59-203.38-37.49l.67-.87c183.59,75,438.62,34.43,634.6-100.86,53.26-36.77,165.27-43.46,255.27-48.83,25.4-1.52,49.4-2.95,69.81-4.92l.18,1c-20.45,2-44.46,3.41-69.87,4.93-89.79,5.36-201.54,12-254.45,48.55A788.42,788.42,0,0,1,893.5,323a788.41,788.41,0,0,1-165.18,46.82A700.24,700.24,0,0,1,613.18,379.62Z"/><path class="cls-6" d="M616.18,385.67c-74.94,0-144.79-13.54-205.88-40.25l.7-.86c179.29,78.4,432.09,39.72,629.06-96.26,52.23-36.05,164.26-41.9,254.28-46.61,27.77-1.45,54-2.82,75.81-4.92l.18,1c-21.86,2.11-48.11,3.48-75.89,4.93-89.81,4.69-201.57,10.53-253.45,46.34a781.41,781.41,0,0,1-152.28,81.64,771.25,771.25,0,0,1-164.34,46.06A677.36,677.36,0,0,1,616.18,385.67Z"/><path class="cls-6" d="M618.87,391.78c-76.32,0-147-14.5-208.07-43.07l.73-.84c175,81.83,425.56,45,623.51-91.66,51.33-35.44,163.6-40.46,253.8-44.49,30-1.34,58.27-2.61,81.31-4.84l.18,1c-23.09,2.23-51.42,3.49-81.41,4.83-90,4-202,9-252.94,44.23a775.64,775.64,0,0,1-152.06,81.42,755,755,0,0,1-163.5,45.3A658.39,658.39,0,0,1,618.87,391.78Z"/><path class="cls-6" d="M621.28,397.94c-77.65,0-149-15.49-210-45.94l.77-.83c168,83.94,422.12,48.14,618-87.05,50.54-34.89,163.19-39.09,253.7-42.47,32-1.19,62.3-2.32,86.42-4.65l.18,1c-24.18,2.34-54.46,3.47-86.53,4.66-90.29,3.37-202.66,7.56-252.84,42.19-93.52,64.57-205.21,109.22-314.49,125.74A637.34,637.34,0,0,1,621.28,397.94Z"/><path class="cls-6" d="M623.41,404.15c-78.9,0-150.9-16.49-211.61-48.86l.8-.81C576.36,441.8,828.2,407.89,1025,272c49.84-34.4,163-37.78,254-40.5,34-1,66.1-2,91.18-4.4l.18,1c-25.14,2.43-57.28,3.39-91.3,4.41-90.72,2.71-203.61,6.08-253.08,40.23-93.64,64.64-205,109-313.43,124.76A620,620,0,0,1,623.41,404.15Z"/><path class="cls-6" d="M625.86,410.35a510.41,510.41,0,0,1-74.27-5.3c-51.54-7.59-98.41-23.22-139.29-46.47l.83-.79c159.52,90.7,409.07,58.69,606.86-77.86,49.22-34,163-36.55,254.5-38.61,35.86-.81,69.73-1.58,95.66-4.08l.18,1c-26,2.51-59.9,3.28-95.8,4.09-91.23,2.06-204.76,4.63-253.6,38.34-93.75,64.72-204.68,108.67-312.36,123.77A595.83,595.83,0,0,1,625.86,410.35Z"/><path class="cls-6" d="M627.54,416.65a490.15,490.15,0,0,1-78.22-6.1c-50.83-8.21-96.76-24.59-136.52-48.69l.87-.77c155.26,94.1,402.52,64,601.31-73.25,48.65-33.59,163.21-35.36,255.26-36.78,37.65-.58,73.21-1.13,99.91-3.71l.18,1c-26.78,2.58-62.37,3.13-100.06,3.71-91.82,1.42-206.09,3.18-254.36,36.5C922.05,353.36,811.5,397,704.62,411.35A578.73,578.73,0,0,1,627.54,416.65Z"/><path class="cls-6" d="M629,423a471.91,471.91,0,0,1-82-6.95c-50.11-8.83-95.11-25.95-133.75-50.9l.9-.75c151,97.49,396,69.25,595.76-68.66,48.14-33.23,158.71-34.16,256.25-35,39.37-.33,76.55-.64,103.94-3.29l.18,1c-27.48,2.66-64.7,3-104.1,3.3-92.48.78-207.58,1.75-255.33,34.71-94,64.88-204.15,108.13-310.23,121.81A562.27,562.27,0,0,1,629,423Z"/><path class="cls-6" d="M630.23,429.38a454.84,454.84,0,0,1-85.44-7.82c-49.4-9.46-93.47-27.33-131-53.12l.93-.73c73.61,50.59,171,70.13,281.76,56.5,105-12.92,214.56-55.74,308.46-120.56,47.67-32.91,159.09-33.08,257.4-33.23,41-.06,79.77-.12,107.8-2.83l.18,1c-28.11,2.72-66.91,2.78-108,2.84-98,.15-209.18.32-256.47,33C911.79,369.33,802,412.24,696.72,425.2A544.23,544.23,0,0,1,630.23,429.38Z"/></g></g></svg>