<svg id="圖層_1" data-name="圖層 1" xmlns="http://www.w3.org/2000/svg" xmlns:xlink="http://www.w3.org/1999/xlink" viewBox="0 0 80 80"><defs><style>.cls-1{fill:none;}.cls-2{opacity:0.75;}.cls-3{fill:#f1f3f6;}.cls-4{opacity:0.5;}.cls-5{clip-path:url(#clip-path);}.cls-6{fill:#f2f2f2;}.cls-7{fill:#dce2e8;}.cls-8{fill:#7a8a9e;opacity:0.9;}.cls-9{fill:#fff;}</style><clipPath id="clip-path"><rect class="cls-1" x="-1470.23" y="-258.15" width="1366.48" height="270.36"/></clipPath></defs><g class="cls-2"><rect class="cls-3" x="-1470.24" y="-1059.32" width="1366" height="1202.55"/></g><g class="cls-4"><g class="cls-5"><path class="cls-6" d="M473.94-132.35C277.8-7.31,3.27,49-253.1,16.78c-92.23-11.59-189.34-1.4-273.41,28.69L-713.27-160.35c84.07-30.09,181.18-40.28,273.41-28.69,256.37,32.22,530.9-24.09,727-149.14Z"/><path class="cls-7" d="M-559.63,8.29-561,8.15c4.46-23,20.12-57.1,50.66-83.83a171.7,171.7,0,0,1,62.63-34.58c27.95-8.69,59.84-11.55,94.79-8.51,140.49,12.62,290.63,6.6,411.92-16.51,101.32-19.3,230.2-59.95,268.75-143.94l1.29.32c-38.74,84.41-168,125.22-269.7,144.59-121.44,23.14-271.77,29.17-412.42,16.54C-494.71-130.11-550.11-40.7-559.63,8.29Z"/><path class="cls-7" d="M-552,16.69l-1.36-.08c2.48-24.66,20.58-74.8,72.71-106.3,35.47-21.43,79.9-30,132.08-25.54C-207-102.77-56.39-108.8,64.67-131.79,166.43-151.11,295-191.85,329.82-276.25l1.31.29c-35,84.84-164,125.76-266.12,145.14-121.22,23-272,29.06-413.73,16.58-51.79-4.45-95.87,4.07-131,25.32C-531.53-57.63-549.51-7.82-552,16.69Z"/><path class="cls-7" d="M-544.33,25.08h-1.37c.22-22.86,14.49-75.07,67-109.06,35.45-23,80.7-32.27,134.5-27.71,140.51,12.12,295.48,5.91,414.52-16.6,102.19-19.33,230.52-60.17,261.57-145l1.32.26C302-187.74,173.2-146.72,70.66-127.33,8.28-115.53-61.66-108.22-137.22-105.6a1748.41,1748.41,0,0,1-207.15-5.1c-53.39-4.52-98.29,4.72-133.44,27.47C-526.17-51.92-544.09-1.3-544.33,25.08Z"/><path class="cls-7" d="M-538,33.54c-2-25.4,12.85-78.21,61.36-111.79,35.38-24.48,81.41-34.54,136.82-29.9,141.59,12,297,5.73,415.83-16.65,102.6-19.34,230.65-60.27,258-145.51l1.33.23c-27.49,85.72-156,126.84-259,146.25C-42.64-101.42-198.28-95.19-340-107.16c-55-4.61-100.65,5.37-135.72,29.64-48.17,33.34-62.94,85.78-60.93,111Z"/><path class="cls-7" d="M-530.39,42c-4.2-25.24,7.25-78.65,55.84-114.51,35.24-26,82-36.81,139-32.1,142.67,11.79,298.61,5.55,417.14-16.7,103-19.34,230.75-60.37,254.38-146l1.34.2C313.56-181,185.33-139.75,82-120.34,2.82-105.49-93-97.76-190.36-97.75c-48.67,0-97.72-1.93-145.32-5.87-56.57-4.68-103,6-137.9,31.81C-521.83-36.19-533.2,16.82-529,41.88Z"/></g></g><circle class="cls-8" cx="40" cy="40" r="40"/><path class="cls-9" d="M23,48.77V33.1H17.7V31.23H30.54V33.1H25.23V48.77Z"/><path class="cls-9" d="M39.46,49.08A6.87,6.87,0,0,1,35.58,48a7.49,7.49,0,0,1-2.65-3.17A11.42,11.42,0,0,1,32,39.94a11.17,11.17,0,0,1,.95-4.84A7.23,7.23,0,0,1,35.58,32a7.5,7.5,0,0,1,7.77,0A7.4,7.4,0,0,1,46,35.11a11.12,11.12,0,0,1,1,4.83,11.42,11.42,0,0,1-1,4.86A7.55,7.55,0,0,1,43.35,48,6.9,6.9,0,0,1,39.46,49.08Zm0-1.94a4.47,4.47,0,0,0,2.75-.88A5.68,5.68,0,0,0,44,43.74a10.25,10.25,0,0,0,.65-3.8A10,10,0,0,0,44,36.15a5.48,5.48,0,0,0-1.82-2.44,4.52,4.52,0,0,0-2.75-.85,4.57,4.57,0,0,0-2.74.85,5.43,5.43,0,0,0-1.83,2.44,10.05,10.05,0,0,0-.64,3.79,10.25,10.25,0,0,0,.64,3.8,5.62,5.62,0,0,0,1.83,2.52A4.53,4.53,0,0,0,39.46,47.14Z"/><path class="cls-9" d="M50.75,48.77V31.23h5a11.22,11.22,0,0,1,3.45.49,4.5,4.5,0,0,1,2.29,1.62,5.1,5.1,0,0,1,.81,3,5.28,5.28,0,0,1-.81,3,4.84,4.84,0,0,1-2.27,1.79,9,9,0,0,1-3.37.58H53v7ZM53,40h2.61A5.63,5.63,0,0,0,59,39.13a3.25,3.25,0,0,0,1.12-2.75,2.84,2.84,0,0,0-1.16-2.64A6.8,6.8,0,0,0,55.46,33H53Z"/></svg>