<svg id="圖層_1" data-name="圖層 1" xmlns="http://www.w3.org/2000/svg" viewBox="0 0 338.58 318.54"><defs><style>.cls-1{fill:#2487ae;}</style></defs><path class="cls-1" d="M168.75,318.54H25.28C8.08,318.53-.3,310.22,0,293.05c.38-21.68,4.3-42.42,17.35-60.48,9.68-13.41,22.87-22.16,38-28.17,13.55-5.37,27.72-8.34,42.13-10.19,6.34-.81,9.79,1.95,11.51,9A164.59,164.59,0,0,0,139,265.86c2.49,3.22,5.14,5.83,9.61,4.64,4.24-1.13,5.37-4.47,5.83-8.37,1-8.6,2.13-17.18,3.26-25.77.62-4.76-2.52-8.18-4.37-12C148.08,213.7,149,212,160.74,212c7,0,14-.07,21,0,6.11.09,7.75,2.73,5.39,8.34a1.85,1.85,0,0,1-.21.45c-10.79,14.43-3.7,29.82-2,44.76.7,6.18,9,7.14,13.31,1.87a142.1,142.1,0,0,0,14.28-21.07,169.22,169.22,0,0,0,16.95-43.11c1.87-7.81,5.39-9.84,13.47-8.71,17.24,2.42,34.06,6.23,49.7,14.22,27.93,14.28,41.15,38.2,44.75,68.36A139.4,139.4,0,0,1,338.58,295c-.14,14.48-8.88,23.47-23.37,23.48Q242,318.59,168.75,318.54Z"/><path class="cls-1" d="M246.35,79.3c-.91,25.57-5.11,50.38-18,73-9.49,16.66-22,30.42-40.73,36.55-26.47,8.65-48.17-.33-65.89-20.25-16.88-19-24.42-42.11-27.73-66.84-1.8-13.4-2.84-26.74-.13-40.25C100.5,28.58,129.17,3,163,.24c34.23-2.73,66.68,17.91,78.26,49.69a89.24,89.24,0,0,1,4.06,15.43A56.62,56.62,0,0,1,246.35,79.3Z"/></svg>