<svg id="圖層_1" data-name="圖層 1" xmlns="http://www.w3.org/2000/svg" xmlns:xlink="http://www.w3.org/1999/xlink" viewBox="0 0 30 52"><defs><style>.cls-1,.cls-8{fill:none;}.cls-2{opacity:0.75;}.cls-3{fill:#f1f3f6;}.cls-4{opacity:0.5;}.cls-5{clip-path:url(#clip-path);}.cls-6{fill:#f2f2f2;}.cls-7{fill:#dce2e8;}.cls-8{stroke:#828282;stroke-linecap:round;stroke-linejoin:round;stroke-width:4.55px;fill-rule:evenodd;}</style><clipPath id="clip-path"><rect class="cls-1" x="-1523.32" y="15.79" width="1366.48" height="270.36"/></clipPath></defs><g class="cls-2"><rect class="cls-3" x="-1523.32" y="-785.38" width="1366" height="1202.55"/></g><g class="cls-4"><g class="cls-5"><path class="cls-6" d="M420.85,141.59c-196.14,125-470.66,181.35-727,149.13-92.23-11.59-189.34-1.4-273.4,28.69L-766.35,113.59C-682.29,83.5-585.18,73.31-492.94,84.9c256.37,32.22,530.9-24.09,727-149.13Z"/><path class="cls-7" d="M-766,114l-.6-.9C-682.45,83-585.2,72.8-492.83,84.41c257.73,32.39,529.3-23.32,726.48-149l.89.75C138.23-2.46,20.25,43.76-106.65,69.79A1212.23,1212.23,0,0,1-349,94.27a1157,1157,0,0,1-144-8.88C-585.16,73.82-682.11,84-766,114Z"/><path class="cls-7" d="M-758.39,122.46l-.63-.88A574.75,574.75,0,0,1-629.34,88.87a558.36,558.36,0,0,1,140.85-.93C-228.92,120.1,48.57,62.78,235.7-61.65l.91.74C49.19,63.72-228.75,121.13-488.71,88.93-577.48,78-673.25,90-758.39,122.46Z"/><path class="cls-7" d="M-750.72,130.89l-.67-.88c61-24.87,156.81-51.75,267.24-38.53,261.22,31.89,544.58-27.06,721.9-150.17l.94.73C149.74,3.79,34.23,50.38-95.36,76.77c-126.92,25.84-261.44,31.27-389,15.7C-594.4,79.29-689.95,106.09-750.72,130.89Z"/><path class="cls-7" d="M-743.06,139.31l-.7-.86c89.25-39,178.06-53.62,264-43.43C-212.53,126.74,69.93,67.57,239.8-55.72l1,.71C155.48,6.88,41.22,53.61-89.68,80.11-216.42,105.78-351.39,111.27-480,96-565.59,85.85-654.09,100.42-743.06,139.31Z"/><path class="cls-7" d="M-735.39,147.73l-.74-.84c40.73-19.12,79.07-32.47,117.2-40.84a434,434,0,0,1,143.47-7.49C-202.57,130.35,79,71,241.85-52.76l1,.7C161.09,10,48.07,56.93-84,83.57c-126.67,25.55-262.09,31.07-391.65,16C-560.33,89.68-645.29,105.44-735.39,147.73Z"/><path class="cls-7" d="M-727.72,156.15l-.78-.83c40.78-20.6,76.7-34.43,113-43.53a398.19,398.19,0,0,1,144.34-9.69c274.17,31.36,561.52-29.68,715-151.89l1,.67C166.64,13.2,54.85,60.28-78.37,87c-79.39,16-164.78,24.06-249.5,24.06a1267.32,1267.32,0,0,1-143.46-8C-580.73,90.57-665.81,124.87-727.72,156.15Z"/><path class="cls-7" d="M-720.06,164.56l-.81-.8c27.39-14.94,64.52-33.7,108.88-46.22a372,372,0,0,1,145.21-11.9C-187.19,137.05,99.24,75.78,246-46.83l1,.66C172.14,16.37,61.59,63.64-72.72,90.5c-124.72,25-264.74,30.68-394.26,16.12C-574.31,94.57-655.14,129.15-720.06,164.56Z"/><path class="cls-7" d="M-712.39,173l-.86-.78c28.49-16.84,63.21-35.83,104.73-48.92,47.81-15.06,95.59-19.68,146.09-14.11,280.5,31,572.63-32,710.43-153l1.05.64C177.58,19.56,68.27,67-67.08,94c-124.63,24.83-265.11,30.58-395.56,16.18C-568.94,98.43-645.49,133.42-712.39,173Z"/><path class="cls-7" d="M-704.72,181.4l-.9-.75C-676.54,161.93-644.23,142.72-605,129c47.41-16.56,95.48-21.9,147-16.32,233.71,25.35,555-11.91,708.14-153.61l1.08.62C183,22.77,74.91,70.4-61.43,97.46c-79.78,15.84-166.32,23.89-252.74,23.9a1341.25,1341.25,0,0,1-144.12-7.66C-579.18,100.59-660.84,153.16-704.72,181.4Z"/><path class="cls-7" d="M-697,189.81l-.94-.72c26.09-18.37,57.21-39.23,96.41-54.31,47-18.06,95.31-24.13,147.83-18.53,237.92,25.36,560.3-12.08,705.85-154.18l1.1.6C188.35,26,81.5,73.79-55.78,100.94c-124.45,24.61-265.86,30.4-398.17,16.3C-566.14,105.28-638.26,148.43-697,189.81Z"/><path class="cls-7" d="M-689.38,198.22l-1-.69c26-20.12,54.54-41.1,92.26-57,46.45-19.58,95.09-26.36,148.7-20.75,133.07,13.94,274.74,8.14,398.92-16.33C87.39,76.3,192.74,28.43,254.15-35l1.12.58C193.67,29.2,88.06,77.21-50.13,104.43c-124.36,24.5-266.22,30.31-399.47,16.35C-572.67,107.89-645.73,164.44-689.38,198.22Z"/><path class="cls-7" d="M-681.71,206.63l-1-.65c39-33.42,111.6-95.63,237.67-82.65,134,13.8,276.15,8,400.23-16.37C93.9,79.72,198,31.67,256.21-32l1.13.56C199,32.43,94.58,80.63-44.49,107.92c-124.25,24.39-266.57,30.21-400.76,16.4C-570.59,111.41-642.87,173.35-681.71,206.63Z"/><path class="cls-7" d="M-674,215l-1.09-.61c16.78-16,44.85-42.88,84-62.38,44.69-22.29,95.31-30.76,150.45-25.18,133,13.46,279.36,7.47,401.52-16.42C100.38,83.16,203.24,34.92,258.26-29l1.15.53C204.21,35.67,101.07,84.06-38.84,111.42c-122.34,23.92-268.89,29.92-402.07,16.44C-569.27,114.87-637.42,180-674,215Z"/><path class="cls-7" d="M-666.36,223.45l-1.13-.57c14.31-15.42,41-44.11,79.79-65.07,44.08-23.79,95-33,151.32-27.41C-174,156.51,149.54,111.15,260.31-26.06l1.18.51C209.43,38.92,107.53,87.5-33.2,114.92c-122.22,23.82-269.24,29.82-403.36,16.47C-568.71,118.25-634.66,189.3-666.36,223.45Z"/><path class="cls-7" d="M-658.69,231.85l-1.18-.51c18.17-22.32,41.37-47.82,75.64-67.77,43.45-25.29,94.65-35.25,152.19-29.63,134.91,13.2,282.21,7.19,404.13-16.48,141.16-27.41,241.53-76,290.27-140.56l1.2.49C214.63,42.17,114,90.94-27.55,118.42c-122.1,23.71-269.6,29.73-404.67,16.51C-568.87,121.57-631.82,198.85-658.69,231.85Z"/><path class="cls-7" d="M-651,240.25l-1.21-.46c15-21.38,36.76-48.71,71.48-70.45,42.79-26.8,94.28-37.51,153.07-31.86,135.86,13.07,283.63,7.05,405.43-16.52,99-19.14,229-59.16,286.67-141.09l1.22.46C219.8,45.44,120.37,94.4-21.91,121.93c-122,23.6-269.93,29.63-406,16.54C-569.82,124.81-630.94,211.7-651,240.25Z"/><path class="cls-7" d="M-643.36,248.65l-1.25-.4c18.66-31.31,40.68-55.24,67.32-73.15,42.1-28.29,93.89-39.76,153.94-34.08,136.82,12.94,285.07,6.91,406.73-16.55,99.46-19.18,229.3-59.31,283.09-141.63l1.23.43c-54,82.66-184.24,122.94-284,142.17C-138.1,148.93-286.54,155-423.53,142-521.69,132.72-595.66,168.6-643.36,248.65Z"/><path class="cls-7" d="M-635.69,257.05l-1.29-.34c23.24-47.3,82.45-124.75,218-112.15,137.79,12.82,286.52,6.77,408-16.58C89,108.78,218.59,68.52,268.52-14.19l1.25.41C219.62,69.29,89.61,109.69-10.63,129c-121.68,23.38-270.59,29.43-408.55,16.6C-553.74,133-612.6,210-635.69,257.05Z"/><path class="cls-7" d="M-628,265.44l-1.32-.27c12.07-31,63.21-130.93,214.68-117.07,138.78,12.69,288,6.64,409.34-16.6C95.09,112.27,224.47,71.9,270.58-11.22l1.26.38C225.52,72.66,95.74,113.18-5,132.46c-121.53,23.28-270.92,29.34-409.86,16.63C-565.27,135.32-616,234.67-628,265.44Z"/><path class="cls-7" d="M-620.37,273.84l-1.34-.21c3.24-11.14,16.76-49.93,54.84-81.21,39.94-32.82,92.61-46.54,156.54-40.79C-270.57,164.21-120.9,158.15.31,135c100.88-19.25,230-59.73,272.32-143.26l1.28.35C231.4,76,101.85,116.67.66,136c-121.37,23.17-271.23,29.23-411.15,16.65-63.47-5.71-115.74,7.9-155.36,40.45C-603.7,224.19-617.15,262.76-620.37,273.84Z"/><path class="cls-7" d="M-612.72,282.23l-1.35-.14c4.47-23,20.12-57.1,50.66-83.82a171.54,171.54,0,0,1,62.64-34.59c27.95-8.69,59.84-11.55,94.79-8.51,140.49,12.62,290.63,6.6,411.91-16.51,101.33-19.3,230.2-59.95,268.75-143.94L276-5c-38.75,84.41-168,125.22-269.7,144.59-121.45,23.14-271.77,29.17-412.43,16.54C-547.79,143.83-603.2,233.24-612.72,282.23Z"/><path class="cls-7" d="M-605.06,290.63l-1.37-.07c2.48-24.67,20.59-74.81,72.72-106.31,35.46-21.43,79.9-30,132.07-25.54,141.55,12.46,292.16,6.43,413.22-16.56C113.34,122.84,242,82.09,276.74-2.31l1.31.29c-35,84.85-164,125.76-266.12,145.14-121.22,23-272,29.06-413.73,16.58-51.79-4.45-95.88,4.07-131,25.32C-584.62,216.31-602.6,266.13-605.06,290.63Z"/><path class="cls-7" d="M-597.41,299h-1.37c.21-22.86,14.49-75.07,67-109.06,35.44-23,80.7-32.27,134.49-27.71,140.52,12.12,295.49,5.91,414.53-16.6C119.42,126.32,247.75,85.48,278.79.66l1.33.26c-31.22,85.28-160,126.3-262.55,145.7-62.38,11.79-132.32,19.1-207.88,21.72a1748.41,1748.41,0,0,1-207.15-5.1c-53.39-4.52-98.28,4.72-133.43,27.47C-579.25,222-597.17,272.64-597.41,299Z"/><path class="cls-7" d="M-591.13,307.48c-2-25.4,12.85-78.21,61.36-111.78,35.37-24.49,81.41-34.55,136.82-29.91,141.58,12,297,5.73,415.83-16.65,102.6-19.34,230.64-60.27,258-145.51l1.33.23c-27.48,85.72-156,126.84-259,146.25-118.95,22.41-274.58,28.64-416.33,16.67-55-4.6-100.66,5.37-135.73,29.64-48.17,33.34-62.94,85.78-60.93,111Z"/><path class="cls-7" d="M-583.48,315.94c-4.2-25.24,7.25-78.65,55.84-114.51,35.25-26,82-36.81,139-32.1,142.67,11.79,298.61,5.55,417.14-16.7,103-19.34,230.75-60.37,254.38-146l1.34.19C260.48,93,132.25,134.19,28.86,153.6c-79.12,14.86-174.92,22.58-272.31,22.59-48.67,0-97.72-1.93-145.32-5.87-56.56-4.68-103,6-137.9,31.81-48.25,35.62-59.62,88.63-55.45,113.69Z"/></g></g><polyline class="cls-8" points="21.87 12.54 8.13 25.67 21.87 39.46"/></svg>