<svg xmlns="http://www.w3.org/2000/svg" xmlns:xlink="http://www.w3.org/1999/xlink" width="215" height="80" viewBox="0 0 215 80">
  <defs>
    <clipPath id="clip-logo">
      <rect width="215" height="80"/>
    </clipPath>
  </defs>
  <g id="logo" clip-path="url(#clip-logo)">
    <g id="Group_559" data-name="Group 559" transform="translate(523.868 -163)">
      <g id="Group_551" data-name="Group 551" transform="translate(-523.868 163)">
        <g id="Group_543" data-name="Group 543" transform="translate(0 0)">
          <path id="Path_2051" data-name="Path 2051" d="M186.246,48.025A38.539,38.539,0,0,1,169.07,73.381a38.528,38.528,0,0,1-29.959,5.738,38.7,38.7,0,0,1-25.386-17.061,48.54,48.54,0,0,1-4.526-9.13,39.3,39.3,0,0,1-1.193-20.911A38.569,38.569,0,0,1,117.322,13.3a39.1,39.1,0,0,1,7.746-6.553,39.765,39.765,0,0,1,55.319,11.27A38.217,38.217,0,0,1,186.246,48.025Z" transform="translate(-107.132 -0.005)" fill="#1075ac" fill-rule="evenodd"/>
        </g>
        <g id="Group_547" data-name="Group 547" transform="translate(6.369 5.771)">
          <g id="Group_544" data-name="Group 544" transform="translate(1.123 22.958)">
            <path id="Path_2052" data-name="Path 2052" d="M178.929,74.072c-.239.358-.471.722-.709,1.08A31,31,0,0,1,175.4,78.61a32.367,32.367,0,0,1-22.14,10.144,32.044,32.044,0,0,1-23.141-6.9c-6.594-5.241-10.888-11.5-11.676-19.354a17.414,17.414,0,0,0,6.183,9.183A16.088,16.088,0,0,0,136.1,75.105a15.808,15.808,0,0,0,11.067-5.062,13.7,13.7,0,0,0,3.963-10.767,13.207,13.207,0,0,1,3.877-10.767,15.989,15.989,0,0,1,10.987-5.115,16.931,16.931,0,0,1,11.663,3.558,13.94,13.94,0,0,1,4.8,6.434C184.383,59.19,182.992,67.711,178.929,74.072Z" transform="translate(-118.44 -43.365)" fill="#024383" fill-rule="evenodd"/>
          </g>
          <g id="Group_545" data-name="Group 545">
            <path id="Path_2053" data-name="Path 2053" d="M167.191,23.805A16.527,16.527,0,0,0,155.4,28.6a13.172,13.172,0,0,0-4.44,11,13.591,13.591,0,0,1-4.281,11.025,17.875,17.875,0,0,1-11.948,4.824,18.077,18.077,0,0,1-12.326-4.307A15.069,15.069,0,0,1,116.8,40.31q-.755-12.7,8.641-21.971,9.562-9.293,23.677-9.614a36.19,36.19,0,0,1,24.572,8.421c6.991,5.672,11.073,13.165,11.458,20.937A17.412,17.412,0,0,0,179.437,27.9,18.318,18.318,0,0,0,167.191,23.805Z" transform="translate(-116.745 -8.715)" fill="#b2e0f7" fill-rule="evenodd"/>
          </g>
          <g id="Group_546" data-name="Group 546" transform="translate(0.086 12.465)">
            <path id="Path_2054" data-name="Path 2054" d="M142.8,30.286a19.12,19.12,0,0,1,3.843,3.114,18.194,18.194,0,0,1,2.77,4.512,16.774,16.774,0,0,1,1.319,4.611A23.1,23.1,0,0,1,151,47.533a10.488,10.488,0,0,0-1.438-5.579,8.189,8.189,0,0,0-3.571-3.167,8.725,8.725,0,0,0-4.711-.947,10.536,10.536,0,0,0-4.711,1.921,7.076,7.076,0,0,0-2.518,4.035c-.146.576-.292,1.1-.431,1.57a7.513,7.513,0,0,1-2.491,4.227,7.257,7.257,0,0,1-4.492,1.868,8.561,8.561,0,0,1-5.009-.921,9.3,9.3,0,0,1-3.657-3.333,12.325,12.325,0,0,1-.947-2.465,11.44,11.44,0,0,1,.3-4.983,22.214,22.214,0,0,1,1.57-3.684,13.958,13.958,0,0,1,3.71-4.446,14.409,14.409,0,0,1,4.386-2.71A16.377,16.377,0,0,1,131.7,27.6a17.677,17.677,0,0,1,4.983.272,20.49,20.49,0,0,1,3.247.974A13.846,13.846,0,0,1,142.8,30.286Z" transform="translate(-116.875 -27.529)" fill="#fff" fill-rule="evenodd"/>
          </g>
        </g>
      </g>
      <g id="Group_552" data-name="Group 552" transform="translate(-429 186)">
        <path id="Path_2055" data-name="Path 2055" d="M83.676,167.829H78v-15.6H88.612v-1.517H77.05v-2.551H88.612V146.72h5.453v1.438h11.588v2.551H94.065v1.517h10.614v15.6H98.14l-.716-2.326H99v-10.76H83.676Zm14.63-6.2v2.551H93.972v3.3H88.691v-3.3H84.358v-2.551h4.333v-1.4H84.358v-2.551H85.5l-1.2-2.041h5.281l1.173,2.041H91.9l1.206-2.041h5.281l-1.206,2.041h1.12v2.551H93.972v1.4Z" transform="translate(-77.05 -146.72)" fill="#024383"/>
        <path id="Path_2056" data-name="Path 2056" d="M125.337,165.095V158.27h-1.895V155.6h1.895v-5.566H123.21v-2.7h8.666v2.7h-2.094V155.6h1.862v2.67h-1.862v6.824h2.094v2.7H123.21v-2.7Zm7.176-17.386h7.03v-.689H144.1v.689h7.03v2.67h-1.637l-.49,1.352h2.465v2.67H132.161v-2.67h2.723l-.484-1.352h-1.895v-2.67Zm-.351,16.233h7.374v-.517H132.8v-8.547h18.042v8.547h-4.532v-3.187h-8.978v.861h8.978l-1.232,2.326H144.1v.517h7.374v2.7H144.1v1.55h-4.558v-1.55h-7.374v-2.7Zm5.168-5.937h8.978v-.888h-8.978Zm2.094-6.281h5.049l.457-1.352h-6Z" transform="translate(-92.626 -146.821)" fill="#024383"/>
        <path id="Path_2057" data-name="Path 2057" d="M168.95,160.7h11.39v-.775h5.738v.775h11.39v2.405h-11.39v5.049H180.34v-5.049H168.95Zm2.524-1.259v-7.348h-1.55l-.8-2.206H170.3l2.438-3.127h6.427l-.888,1.12h4.7v-1.12h5.711v1.12h7.891v2.239h-7.891v.8h7.573v2.206h-7.573v1.007h7.514v2.18h-7.514v.947h8.633l-1.034,2.18Zm-1.206,8.719-.6-1.835h1.491l1.232-2.7h5.592l-2.041,4.532h-5.672Zm6.944-17.24h5.764v-.8h-5.764Zm0,3.213h5.764v-1.007h-5.764Zm0,3.121h5.764v-.947h-5.764Zm13.251,10.906-2.041-4.532h5.625l1.206,2.7h1.517l-.629,1.835Z" transform="translate(-108.06 -146.733)" fill="#024383"/>
        <path id="Path_2058" data-name="Path 2058" d="M215.3,146.82h28.252v21.321H215.307V146.82Zm16.5,13.2c-4.79.232-5.354.245-9.8.292l-1.266-2.279c2.067.027,2.948.046,7.335,0v-.4l-5.89-.033-.02-5.532h5.91v-.5l-6.785-.033-.013-1.941,6.8.026v-.543h-7.54v15.9h18.048v-15.9h-7.547v.51l7.083.007-1.093,1.935h-5.99v.53h5.91L236.9,157.3l-.6-.027a10.912,10.912,0,0,1,1.789,1.809l-1.895,1.1a7.929,7.929,0,0,0-.689-.841l-.6.046v1.193h3.213l-1,2.147-2.213.033h0c0,1.643-.947,1.809-2.153,1.809h-3.671l-.5-1.875,2.683.2c.689,0,.543-.033.543-.437h0l-4.532.026c.663.47.345.325.689.682l-2.239,1.431a10.814,10.814,0,0,0-2.756-2.114h0l-1.988.046.007-1.948H231.8v-.55Zm-6.705-6.652-.007.643h2.982l.007-.643Zm-.007,2.054v.517h2.982v-.517Zm5.943-2.054v.643h2.982v-.643Zm0,2.054v.517h2.982v-.517Zm2.379,2.014-2.379.033v.557c.828-.026,2.352-.1,2.955-.119-.232-.186-.06-.046-.576-.47Z" transform="translate(-123.7 -146.754)" fill="#024383"/>
      </g>
      <g id="Group_553" data-name="Group 553" transform="translate(-429 212.844)">
        <path id="Path_2059" data-name="Path 2059" d="M.956,218.9v4.551H3.712v.875H0V218.9Z" transform="translate(0 -218.844)" fill="#024383"/>
        <path id="Path_2060" data-name="Path 2060" d="M12.542,224.943c0,.675,0,1.024,1.052,1.024.818,0,.9-.171.921-.619h.9c-.053.9-.384,1.419-1.8,1.419-1.678,0-1.955-.654-1.955-2s.146-2.169,1.888-2.169c1.81,0,1.888.807,1.866,2.339H12.542Zm1.97-.668c-.014-.523-.05-.875-.942-.875-.853,0-1,.235-1.024.875Z" transform="translate(-7.515 -221.229)" fill="#024383"/>
        <path id="Path_2061" data-name="Path 2061" d="M27.449,225.817a3.239,3.239,0,0,0,.1.9h-.839a2.019,2.019,0,0,1-.05-.434c-.171.3-.4.491-1.3.491-.811,0-1.515-.139-1.515-1.219a1.081,1.081,0,0,1,1.088-1.266l1.362-.082c.178-.014.324-.021.324-.359,0-.405-.185-.484-.9-.484-.729,0-.875.124-.875.558h-.867c.007-1.067.683-1.315,1.692-1.315,1.123,0,1.778.171,1.778,1.323v1.884Zm-.828-1.056c-.053.082-.146.153-.377.164l-1.006.06c-.537.036-.551.288-.551.544,0,.366.206.487.853.487.757,0,1.081-.228,1.081-.757Z" transform="translate(-15.364 -221.235)" fill="#024383"/>
        <path id="Path_2062" data-name="Path 2062" d="M39.715,218.9v5.425H38.9l-.036-.434a1.252,1.252,0,0,1-1.17.491c-1.447,0-1.639-.853-1.639-2.14,0-1.131.206-2.023,1.625-2.023a1.339,1.339,0,0,1,1.148.448V218.9h.882Zm-2.766,3.321c0,.867,0,1.376.921,1.376.818,0,.978-.345.978-1.227,0-.86-.068-1.369-.935-1.369S36.949,221.421,36.949,222.221Z" transform="translate(-23.24 -218.844)" fill="#024383"/>
        <path id="Path_2063" data-name="Path 2063" d="M49.566,218.9v.875H48.61V218.9Zm-.032,1.372v4.057h-.889v-4.057Z" transform="translate(-31.328 -218.844)" fill="#024383"/>
        <path id="Path_2064" data-name="Path 2064" d="M54.409,222.663l.021.455a1.325,1.325,0,0,1,1.244-.508c.963,0,1.447.427,1.447,1.33v2.78H56.24V224.1c0-.309-.075-.683-.846-.683-.889,0-.942.516-.942.9v2.41H53.57v-4.057Z" transform="translate(-34.525 -221.235)" fill="#024383"/>
        <path id="Path_2065" data-name="Path 2065" d="M69.782,222.891c-.352.007-.448.043-.537.185a.933.933,0,0,1,.1.491c0,.736-.213,1.155-1.653,1.155a3.652,3.652,0,0,1-1.212-.16.29.29,0,0,0-.171.27c0,.206.206.22.3.228l1.991.153c.661.046,1.027.277,1.027,1.02,0,.867-.469,1.131-2.08,1.131-1.486,0-2.058-.235-2.058-.992a.73.73,0,0,1,.4-.757A.614.614,0,0,1,65.5,225a.732.732,0,0,1,.476-.736,1.268,1.268,0,0,1-.213-.793c0-.875.5-1.141,1.735-1.141a2.545,2.545,0,0,1,1.323.228c.146-.242.338-.405.963-.384v.715Zm-3.1,2.844a.424.424,0,0,0-.384.455c0,.235,0,.434,1.344.434,1.141,0,1.141-.2,1.141-.427,0-.2-.075-.309-.6-.352Zm-.1-2.19c0,.384.185.462,1.02.462.771,0,.91-.075.91-.5,0-.366-.213-.441-.942-.441S66.582,223.09,66.582,223.545Z" transform="translate(-42.2 -220.955)" fill="#024383"/>
        <path id="Path_2066" data-name="Path 2066" d="M92.782,223.067l-.434,1.259H91.26l2.023-5.425h1.259l2.023,5.425H95.476l-.441-1.259Zm1.97-.832-.839-2.418-.839,2.418Z" transform="translate(-58.815 -218.844)" fill="#024383"/>
        <path id="Path_2067" data-name="Path 2067" d="M111.085,222.663v4.977H110.2v-1.315a1.312,1.312,0,0,1-1.177.448c-1.337,0-1.6-.832-1.6-2.023,0-1.134.132-2.14,1.575-2.14a1.313,1.313,0,0,1,1.212.484l.014-.427h.853Zm-2.766,2.009c0,.771,0,1.315.928,1.315s.963-.469.963-1.251c0-.683,0-1.337-.935-1.337C108.457,223.4,108.319,223.744,108.319,224.672Z" transform="translate(-69.236 -221.235)" fill="#024383"/>
        <path id="Path_2068" data-name="Path 2068" d="M122.633,226.807l-.028-.455a1.325,1.325,0,0,1-1.244.508c-.963,0-1.44-.427-1.44-1.33v-2.78h.882v2.624c0,.309.068.69.839.69.9,0,.949-.523.949-.9v-2.41h.882v4.057Z" transform="translate(-77.286 -221.326)" fill="#024383"/>
        <path id="Path_2069" data-name="Path 2069" d="M135.425,225.817a3.239,3.239,0,0,0,.1.9h-.839a1.823,1.823,0,0,1-.046-.434c-.171.3-.4.491-1.3.491-.814,0-1.515-.139-1.515-1.219a1.083,1.083,0,0,1,1.088-1.266l1.362-.082c.178-.014.324-.021.324-.359,0-.405-.185-.484-.9-.484-.729,0-.875.124-.875.558h-.867c.007-1.067.683-1.315,1.692-1.315,1.123,0,1.778.171,1.778,1.323Zm-.825-1.056c-.057.082-.146.153-.38.164l-1.006.06c-.537.036-.551.288-.551.544,0,.366.206.487.853.487.757,0,1.081-.228,1.081-.757v-.5Z" transform="translate(-84.955 -221.235)" fill="#024383"/>
        <path id="Path_2070" data-name="Path 2070" d="M144.039,219.994c0-1.205.565-1.266,1.788-1.248v.793c-.58-.021-.9-.028-.9.405v.228h.9v.818h-.9v3.235h-.889v-3.235h-.626v-.818h.626v-.178Z" transform="translate(-92.425 -218.744)" fill="#024383"/>
        <path id="Path_2071" data-name="Path 2071" d="M154.795,225.817a3.24,3.24,0,0,0,.1.9h-.839a1.825,1.825,0,0,1-.046-.434c-.171.3-.4.491-1.3.491-.814,0-1.515-.139-1.515-1.219a1.083,1.083,0,0,1,1.088-1.266l1.362-.082c.178-.014.324-.021.324-.359,0-.405-.185-.484-.9-.484-.729,0-.875.124-.875.558h-.867c.007-1.067.683-1.315,1.692-1.315,1.123,0,1.778.171,1.778,1.323v1.884Zm-.825-1.056c-.057.082-.146.153-.38.164l-1.006.06c-.537.036-.551.288-.551.544,0,.366.206.487.853.487.757,0,1.081-.228,1.081-.757v-.5Z" transform="translate(-97.439 -221.235)" fill="#024383"/>
        <path id="Path_2072" data-name="Path 2072" d="M164.556,222.654l.036.412c.281-.419.647-.483,1.671-.469v.86c-.11-.007-.235-.014-.42-.014-.359,0-1.251,0-1.251.8v2.464h-.882V222.65h.846Z" transform="translate(-105.508 -221.226)" fill="#024383"/>
        <path id="Path_2073" data-name="Path 2073" d="M173.143,222.663l.021.441a1.3,1.3,0,0,1,1.141-.494,1.224,1.224,0,0,1,1.163.558,1.316,1.316,0,0,1,1.17-.558c1.212,0,1.362.708,1.362,1.212v2.9h-.882v-2.67c0-.3-.089-.619-.7-.619-.491,0-.825.132-.825.722v2.567h-.882V224.1c0-.274-.007-.675-.7-.675-.832,0-.832.494-.832.736v2.56h-.882V222.66h.853Z" transform="translate(-111.037 -221.235)" fill="#024383"/>
        <path id="Path_2074" data-name="Path 2074" d="M191.586,218.9v.875h-.956V218.9Zm-.032,1.372v4.057h-.889v-4.057Z" transform="translate(-122.857 -218.844)" fill="#024383"/>
        <path id="Path_2075" data-name="Path 2075" d="M196.429,222.663l.021.455a1.325,1.325,0,0,1,1.244-.508c.963,0,1.447.427,1.447,1.33v2.78h-.882V224.1c0-.309-.075-.683-.846-.683-.889,0-.942.516-.942.9v2.41h-.882v-4.057Z" transform="translate(-126.054 -221.235)" fill="#024383"/>
        <path id="Path_2076" data-name="Path 2076" d="M211.8,222.891c-.352.007-.448.043-.537.185a.933.933,0,0,1,.1.491c0,.736-.213,1.155-1.653,1.155a3.652,3.652,0,0,1-1.212-.16.29.29,0,0,0-.171.27c0,.206.206.22.3.228l1.991.153c.661.046,1.024.277,1.024,1.02,0,.867-.469,1.131-2.08,1.131-1.486,0-2.058-.235-2.058-.992a.729.729,0,0,1,.4-.757.612.612,0,0,1-.38-.611.732.732,0,0,1,.476-.736,1.268,1.268,0,0,1-.213-.793c0-.875.5-1.141,1.735-1.141a2.545,2.545,0,0,1,1.323.228c.146-.242.338-.405.963-.384v.715Zm-3.1,2.844a.427.427,0,0,0-.388.455c0,.235,0,.434,1.344.434,1.141,0,1.141-.2,1.141-.427,0-.2-.075-.309-.6-.352Zm-.1-2.19c0,.384.185.462,1.02.462.771,0,.91-.075.91-.5,0-.366-.213-.441-.942-.441S208.6,223.09,208.6,223.545Z" transform="translate(-133.723 -220.955)" fill="#024383"/>
        <path id="Path_2077" data-name="Path 2077" d="M238.1,218.9v.875H235.1v1.362h2.858v.839H235.1v1.472h3.065v.875H234.14V218.9Z" transform="translate(-150.898 -218.844)" fill="#024383"/>
        <path id="Path_2078" data-name="Path 2078" d="M248.069,222.663l.021.455a1.325,1.325,0,0,1,1.244-.508c.963,0,1.447.427,1.447,1.33v2.78H249.9V224.1c0-.309-.075-.683-.846-.683-.889,0-.942.516-.942.9v2.41h-.882v-4.057Z" transform="translate(-159.335 -221.235)" fill="#024383"/>
        <path id="Path_2079" data-name="Path 2079" d="M259.581,220.03h.889V221h1.045v.818H260.47v1.927c0,.427.1.537.771.537.171,0,.213-.007.324-.014v.818a3.194,3.194,0,0,1-.391.021c-1.251,0-1.589-.263-1.589-1.088v-2.2h-.825V221h.825v-.967Z" transform="translate(-166.765 -219.573)" fill="#024383"/>
        <path id="Path_2080" data-name="Path 2080" d="M268.612,224.943c0,.675,0,1.024,1.052,1.024.818,0,.9-.171.921-.619h.9c-.057.9-.384,1.419-1.8,1.419-1.678,0-1.955-.654-1.955-2s.146-2.169,1.888-2.169c1.81,0,1.888.807,1.866,2.339h-2.873Zm1.97-.668c-.014-.523-.05-.875-.942-.875-.853,0-1,.235-1.024.875Z" transform="translate(-172.546 -221.229)" fill="#024383"/>
        <path id="Path_2081" data-name="Path 2081" d="M281.1,222.654l.036.412c.281-.419.647-.483,1.675-.469v.86c-.11-.007-.235-.014-.42-.014-.359,0-1.251,0-1.251.8v2.464h-.882V222.65h.843Z" transform="translate(-180.622 -221.226)" fill="#024383"/>
        <path id="Path_2082" data-name="Path 2082" d="M289.69,222.657l.014.427a1.306,1.306,0,0,1,1.212-.484c1.447,0,1.571,1.006,1.571,2.14,0,1.191-.263,2.023-1.589,2.023a1.336,1.336,0,0,1-1.184-.448v1.315h-.875v-4.977h.85Zm.014,2.073c0,.786.046,1.251.963,1.251.935,0,.935-.544.935-1.315,0-.928-.139-1.273-.963-1.273C289.7,223.393,289.7,224.047,289.7,224.73Z" transform="translate(-186.151 -221.229)" fill="#024383"/>
        <path id="Path_2083" data-name="Path 2083" d="M301.9,222.654l.036.412c.281-.419.647-.483,1.674-.469v.86c-.11-.007-.235-.014-.419-.014-.359,0-1.251,0-1.251.8v2.464h-.882V222.65h.843Z" transform="translate(-194.027 -221.226)" fill="#024383"/>
        <path id="Path_2084" data-name="Path 2084" d="M310.646,218.9v.875h-.956V218.9Zm-.036,1.372v4.057h-.889v-4.057Z" transform="translate(-199.589 -218.844)" fill="#024383"/>
        <path id="Path_2085" data-name="Path 2085" d="M317.115,223.907c0-.288.007-.523-.889-.523-.633,0-.917.057-.917.491,0,.22.068.316.434.352l1.376.139c.647.06,1.006.338,1.006,1.131,0,1.148-.793,1.287-1.817,1.287-1.582,0-1.881-.42-1.888-1.433h.853c.007.491.007.661,1.088.661.867,0,.889-.27.889-.508,0-.281-.1-.37-.476-.412l-1.4-.146a.927.927,0,0,1-.917-1.059c0-1.1.825-1.266,1.785-1.266,1.728,0,1.728.668,1.735,1.294h-.864Z" transform="translate(-202.637 -221.242)" fill="#024383"/>
        <path id="Path_2086" data-name="Path 2086" d="M327.432,224.943c0,.675,0,1.024,1.052,1.024.818,0,.9-.171.921-.619h.9c-.057.9-.384,1.419-1.8,1.419-1.678,0-1.955-.654-1.955-2s.146-2.169,1.888-2.169c1.81,0,1.888.807,1.867,2.339h-2.873Zm1.97-.668c-.014-.523-.05-.875-.942-.875-.853,0-1,.235-1.024.875Z" transform="translate(-210.455 -221.229)" fill="#024383"/>
      </g>
    </g>
  </g>
</svg>
