<?xml version="1.0" encoding="utf-8"?>
<!-- Generator: Adobe Illustrator 24.3.0, SVG Export Plug-In . SVG Version: 6.00 Build 0)  -->
<svg version="1.1" id="分離模式" xmlns="http://www.w3.org/2000/svg" xmlns:xlink="http://www.w3.org/1999/xlink" x="0px"
	 y="0px" viewBox="0 0 85.77 21.99" style="enable-background:new 0 0 85.77 21.99;" xml:space="preserve">
<style type="text/css">
	.st0{fill:#e60020;}
</style>
<path class="st0" d="M29.08,2.85C29.12,1.87,29.27,0.8,29.45,0H22.5c0.18,0.79,0.32,1.87,0.37,2.85c0.02,0.44,0.03,1.3,0.03,1.81
	v12.49c0,0.51-0.02,1.38-0.03,1.81c-0.04,0.99-0.19,2.05-0.37,2.85h6.95c-0.18-0.79-0.33-1.86-0.36-2.85
	c-0.03-0.43-0.04-1.3-0.04-1.81V4.66C29.04,4.14,29.06,3.28,29.08,2.85"/>
<path class="st0" d="M61.37,2.85C61.41,1.87,61.56,0.8,61.74,0h-6.95c0.19,0.79,0.33,1.87,0.37,2.85c0.02,0.44,0.04,1.3,0.04,1.81
	v12.49c0,0.51-0.02,1.38-0.04,1.81c-0.04,0.99-0.18,2.05-0.37,2.85h6.95c-0.17-0.79-0.32-1.86-0.37-2.85
	c-0.02-0.43-0.04-1.3-0.04-1.81V4.66C61.34,4.14,61.36,3.28,61.37,2.85"/>
<path class="st0" d="M85.37,21.8V4.66c0-0.51,0.01-1.37,0.03-1.81C85.44,1.87,85.59,0.8,85.77,0h-4.82c0.18,0.8,0.33,1.86,0.37,2.85
	c0.02,0.44,0.03,1.3,0.03,1.81v10c-0.37-0.79-0.81-1.67-1.11-2.19C79.75,11.63,73.03,0,73.03,0l-7.71,0
	c0.18,0.8,0.32,1.86,0.37,2.85c0.02,0.44,0.03,1.3,0.03,1.81v12.49c0,0.51-0.02,1.38-0.03,1.81c-0.05,0.98-0.19,2.05-0.37,2.84h4.82
	c-0.18-0.79-0.32-1.86-0.37-2.84c-0.02-0.43-0.03-1.3-0.03-1.81V6.16c0.47,1.05,1.24,2.52,1.75,3.42c1.37,2.39,3.76,6.44,5.67,9.14
	c1.58,2.24,2.85,3.07,6.08,3.09L85.37,21.8z"/>
<path class="st0" d="M19.69,0h-6.25c-0.49,2.22-2.29,4.45-4.06,6.66C8.2,8.13,7.09,9.3,6.54,9.87V4.66c0-0.52,0.01-1.38,0.03-1.81
	C6.62,1.87,6.77,0.8,6.95,0H0C0.18,0.8,0.32,1.87,0.36,2.85C0.39,3.28,0.4,4.14,0.4,4.66v12.49c0,0.51-0.02,1.38-0.04,1.81
	C0.32,19.94,0.18,21.01,0,21.8h6.95c-0.18-0.79-0.33-1.86-0.37-2.85c-0.02-0.43-0.03-1.3-0.03-1.81v-6.11
	c1.19,2.23,2.53,4.83,4.14,7.35c1.59,2.49,3.09,3.6,6.71,3.6c1.21,0,2.38-0.07,3.63-0.19c-1.92-1.87-5.73-7.69-8.49-12.59L19.69,0z"
	/>
<path class="st0" d="M47.28,12.16c2.71-1.32,3.77-3.33,3.77-5.89c0-1.7-0.73-3.6-2.32-4.74c-1.46-1.04-3.15-1.36-5.29-1.45
	C42.11,0.02,41.43,0,40.09,0h-7.27c0.18,0.8,0.32,1.87,0.36,2.85c0.03,0.44,0.04,1.3,0.04,1.81v12.49c0,0.51-0.01,1.38-0.04,1.81
	c-0.04,0.99-0.19,2.05-0.36,2.85h6.95c-0.18-0.79-0.32-1.86-0.37-2.85c-0.02-0.43-0.03-1.29-0.03-1.81V4.66
	c0-0.4,0.01-1.02,0.02-1.48c0.31-0.04,0.82-0.06,1.21-0.06c0.63,0,1.2,0.04,1.76,0.18c1.79,0.43,2.74,1.69,2.74,3.54
	c0,2.74-1.87,4-4.95,4.52c0.91,1.97,2.16,4.68,3.35,6.78c1.85,3.28,3.59,3.85,7.09,3.85c1.05,0,2.16-0.07,3.11-0.18
	C51.4,19.6,48.14,13.39,47.28,12.16"/>
</svg>
