<svg id="圖層_1" data-name="圖層 1" xmlns="http://www.w3.org/2000/svg" xmlns:xlink="http://www.w3.org/1999/xlink" viewBox="0 0 1366 349.75"><defs><style>.cls-1{fill:none;}.cls-2{clip-path:url(#clip-path);}.cls-3{fill:#ffc9ff;fill-rule:evenodd;opacity:0.34;}.cls-3,.cls-4{isolation:isolate;}.cls-4{opacity:0.48;}.cls-5{fill:#fff;}</style><clipPath id="clip-path"><rect class="cls-1" y="-623.52" width="1366" height="973.27"/></clipPath></defs><g class="cls-2"><path class="cls-3" d="M1225.37,154.29c-43.39,6.16-87.3-4.06-129.55-15.84S1010.89,114,967.07,114.27c-43.82.57-90,17.37-114.22,53.92-22.08,33.37-25.09,80.88-58.6,102.86-35.17,23.11-83.44,4.24-123.48,17.18-28.52,9.22-50.65,35.74-54.61,65.45-6.14,46,30.17,89.5,73.64,105.63s92,10.67,137.22,1.15,90.61-23,137-22.17c58.85,1,114.53,24.75,171.19,40.66s120.71,23.24,171.71-6.13c51.44-29.63,77.3-89.7,89.37-147.83s13.94-118.65,33.82-174.58c7.46-21,17.53-41.88,17-64.14-.83-34.84-31.84-66.26-66.67-67.51-46-1.66-60.58,31.54-65.6,68.85C1309.31,128.68,1262.44,149,1225.37,154.29Z"/><g class="cls-4"><path class="cls-5" d="M187.35,329.67a2.73,2.73,0,1,1,2.67,2.82A2.59,2.59,0,0,1,187.35,329.67Z"/><path class="cls-5" d="M190,351.38a2.65,2.65,0,1,1,2.73-2.54A2.79,2.79,0,0,1,190,351.38Z"/><path class="cls-5" d="M209.09,332.42a2.66,2.66,0,1,1,2.62-2.66A2.8,2.8,0,0,1,209.09,332.42Z"/><path class="cls-5" d="M190.12,313.46a2.66,2.66,0,1,1,2.61-2.67A2.79,2.79,0,0,1,190.12,313.46Z"/><path class="cls-5" d="M168.45,329.82a2.66,2.66,0,1,1,2.67,2.6A2.78,2.78,0,0,1,168.45,329.82Z"/><path class="cls-5" d="M171,313.24a2.44,2.44,0,1,1,2.5-2.41A2.27,2.27,0,0,1,171,313.24Z"/><path class="cls-5" d="M171.15,351.17a2.44,2.44,0,1,1,0-4.88,2.25,2.25,0,0,1,2.41,2.35A2.27,2.27,0,0,1,171.15,351.17Z"/><path class="cls-5" d="M206.61,348.71a2.44,2.44,0,1,1,2.46,2.46A2.27,2.27,0,0,1,206.61,348.71Z"/><path class="cls-5" d="M206.61,310.74a2.44,2.44,0,1,1,2.42,2.5A2.27,2.27,0,0,1,206.61,310.74Z"/><path class="cls-5" d="M152.16,332.15a2.39,2.39,0,1,1,2.35-2.41A2.35,2.35,0,0,1,152.16,332.15Z"/><path class="cls-5" d="M152.09,313.14a2.34,2.34,0,1,1,2.38-2.27A2.43,2.43,0,0,1,152.09,313.14Z"/><path class="cls-5" d="M190,294.2a2.36,2.36,0,1,1,2.44-2.21A2.39,2.39,0,0,1,190,294.2Z"/><path class="cls-5" d="M230.37,310.83a2.35,2.35,0,1,1-2.27-2.37A2.42,2.42,0,0,1,230.37,310.83Z"/><path class="cls-5" d="M225.66,329.78a2.37,2.37,0,1,1,2.3,2.35A2.4,2.4,0,0,1,225.66,329.78Z"/><path class="cls-5" d="M228.07,351.07a2.34,2.34,0,1,1,2.3-2.35A2.42,2.42,0,0,1,228.07,351.07Z"/><path class="cls-5" d="M206.71,291.84a2.34,2.34,0,1,1,2.3,2.34A2.4,2.4,0,0,1,206.71,291.84Z"/><path class="cls-5" d="M173.44,291.79a2.34,2.34,0,1,1-2.35-2.29A2.42,2.42,0,0,1,173.44,291.79Z"/><path class="cls-5" d="M149.76,348.79a2.37,2.37,0,1,1,2.35,2.3A2.41,2.41,0,0,1,149.76,348.79Z"/><path class="cls-5" d="M154.22,291.77a2.1,2.1,0,1,1-2.12-2A2,2,0,0,1,154.22,291.77Z"/><path class="cls-5" d="M230.12,291.77a2.1,2.1,0,1,1-2.12-2A2,2,0,0,1,230.12,291.77Z"/><path class="cls-5" d="M133.09,331.86a2.1,2.1,0,1,1,2.16-2A2,2,0,0,1,133.09,331.86Z"/><path class="cls-5" d="M190.1,274.94a2,2,0,0,1-2.09-2.08,2,2,0,0,1,2.12-2,1.92,1.92,0,0,1,2,2A2,2,0,0,1,190.1,274.94Z"/><path class="cls-5" d="M133.09,350.79a2.06,2.06,0,1,1,.21-4.12,1.93,1.93,0,0,1,1.91,2.08A2,2,0,0,1,133.09,350.79Z"/><path class="cls-5" d="M211.12,273a2,2,0,0,1-2.18,2,2,2,0,0,1-1.95-2.22,1.94,1.94,0,0,1,2.09-1.91A2,2,0,0,1,211.12,273Z"/><path class="cls-5" d="M247,350.8a2,2,0,0,1-2-2.15,2,2,0,0,1,2.18-2,1.93,1.93,0,0,1,1.95,2.05A2,2,0,0,1,247,350.8Z"/><path class="cls-5" d="M173.17,272.92a2,2,0,0,1-2.15,2,2,2,0,0,1-2-2.19,1.93,1.93,0,0,1,2.06-1.94A2,2,0,0,1,173.17,272.92Z"/><path class="cls-5" d="M133.18,312.87a2,2,0,0,1-2.1-2.08,2,2,0,0,1,2.13-2.05,1.93,1.93,0,0,1,2,2A2,2,0,0,1,133.18,312.87Z"/><path class="cls-5" d="M247.05,331.83a2,2,0,0,1-2.12-2.05,2,2,0,0,1,2.09-2.07,1.91,1.91,0,0,1,2,2A2,2,0,0,1,247.05,331.83Z"/><path class="cls-5" d="M247,312.87a2.07,2.07,0,1,1,.11-4.13,1.94,1.94,0,0,1,2,2A2,2,0,0,1,247,312.87Z"/><path class="cls-5" d="M150.1,272.81a2,2,0,1,1,2,2.09A2.2,2.2,0,0,1,150.1,272.81Z"/><path class="cls-5" d="M131.13,291.83a2,2,0,1,1,2,2A2.21,2.21,0,0,1,131.13,291.83Z"/><path class="cls-5" d="M226,272.91a2.12,2.12,0,0,1,2.07-2,2,2,0,0,1,1.9,2,2.06,2.06,0,0,1-2.06,2A2.1,2.1,0,0,1,226,272.91Z"/><path class="cls-5" d="M245,291.88a2.12,2.12,0,0,1,2.06-2,2,2,0,0,1,1.9,2,2,2,0,0,1-2.05,2A2.09,2.09,0,0,1,245,291.88Z"/><path class="cls-5" d="M190,255.78a1.75,1.75,0,0,1-1.8-1.91,1.71,1.71,0,0,1,1.93-1.81,1.69,1.69,0,0,1,1.78,1.81A1.78,1.78,0,0,1,190,255.78Z"/><path class="cls-5" d="M264.09,329.8a1.77,1.77,0,0,1,1.87-1.89,1.86,1.86,0,0,1,.1,3.71A1.79,1.79,0,0,1,264.09,329.8Z"/><path class="cls-5" d="M116.06,348.7a1.78,1.78,0,0,1-1.87,1.89,1.86,1.86,0,0,1-.09-3.72A1.79,1.79,0,0,1,116.06,348.7Z"/><path class="cls-5" d="M114.2,331.64a1.78,1.78,0,0,1-1.88-1.89,1.86,1.86,0,0,1,3.72-.05A1.78,1.78,0,0,1,114.2,331.64Z"/><path class="cls-5" d="M114.19,312.68a1.78,1.78,0,0,1-1.87-1.91,1.73,1.73,0,0,1,1.93-1.83,1.71,1.71,0,0,1,1.79,1.81A1.78,1.78,0,0,1,114.19,312.68Z"/><path class="cls-5" d="M266,312.59a1.78,1.78,0,1,1,1.8-1.73A1.59,1.59,0,0,1,266,312.59Z"/><path class="cls-5" d="M133.07,274.66a1.78,1.78,0,1,1,.22-3.55,1.58,1.58,0,0,1,1.64,1.86C134.89,274.14,134.22,274.65,133.07,274.66Z"/><path class="cls-5" d="M209,255.7a1.78,1.78,0,1,1,.11-3.56,1.57,1.57,0,0,1,1.68,1.82A1.6,1.6,0,0,1,209,255.7Z"/><path class="cls-5" d="M265.94,350.51a1.78,1.78,0,1,1,1.81-1.72A1.6,1.6,0,0,1,265.94,350.51Z"/><path class="cls-5" d="M169.32,253.9a1.78,1.78,0,1,1,3.55.1,1.56,1.56,0,0,1-1.81,1.68A1.59,1.59,0,0,1,169.32,253.9Z"/><path class="cls-5" d="M114.23,293.61c-1.18-.13-1.83-.71-1.79-1.84a1.74,1.74,0,0,1,3.48.06A1.67,1.67,0,0,1,114.23,293.61Z"/><path class="cls-5" d="M152.13,252.14a1.67,1.67,0,0,1,1.74,1.81,1.6,1.6,0,0,1-1.82,1.7,1.58,1.58,0,0,1-1.66-1.7A1.67,1.67,0,0,1,152.13,252.14Z"/><path class="cls-5" d="M246.92,274.64a1.66,1.66,0,0,1-1.66-1.87,1.74,1.74,0,0,1,3.48.13C248.72,274,248,274.57,246.92,274.64Z"/><path class="cls-5" d="M264.22,291.86c.13-1,.65-1.71,1.7-1.73a1.71,1.71,0,1,1,0,3.42A1.71,1.71,0,0,1,264.22,291.86Z"/><path class="cls-5" d="M228.1,255.66c-1-.1-1.73-.61-1.78-1.65a1.71,1.71,0,1,1,3.42-.12C229.76,254.94,229.08,255.47,228.1,255.66Z"/><path class="cls-5" d="M93.53,348.77a1.66,1.66,0,0,1,1.68-1.68,1.54,1.54,0,0,1,1.63,1.57,1.56,1.56,0,0,1-1.64,1.71C94.27,350.38,93.71,349.74,93.53,348.77Z"/><path class="cls-5" d="M114.18,274.55a1.68,1.68,0,0,1-1.64-1.6,1.64,1.64,0,1,1,3.28,0A1.69,1.69,0,0,1,114.18,274.55Z"/><path class="cls-5" d="M95.2,312.48c-1-.17-1.67-.72-1.63-1.75a1.55,1.55,0,0,1,1.63-1.57,1.57,1.57,0,0,1,1.64,1.72A1.67,1.67,0,0,1,95.2,312.48Z"/><path class="cls-5" d="M133.15,255.58a1.66,1.66,0,0,1-1.63-1.6,1.64,1.64,0,1,1,3.27,0A1.67,1.67,0,0,1,133.15,255.58Z"/><path class="cls-5" d="M285,331.44a1.68,1.68,0,0,1-1.7-1.68,1.65,1.65,0,0,1,3.29,0C286.6,330.7,286,331.25,285,331.44Z"/><path class="cls-5" d="M284.94,350.41c-1-.17-1.67-.73-1.63-1.76a1.54,1.54,0,0,1,1.63-1.56,1.57,1.57,0,0,1,1.64,1.72A1.68,1.68,0,0,1,284.94,350.41Z"/><path class="cls-5" d="M246.92,255.58c-1-.22-1.65-.78-1.55-1.82a1.53,1.53,0,0,1,1.7-1.48,1.56,1.56,0,0,1,1.56,1.78A1.67,1.67,0,0,1,246.92,255.58Z"/><path class="cls-5" d="M188.4,235a1.66,1.66,0,0,1,1.68-1.68,1.54,1.54,0,0,1,1.63,1.56,1.57,1.57,0,0,1-1.64,1.72C189.14,236.6,188.58,236,188.4,235Z"/><path class="cls-5" d="M171.14,236.62a1.66,1.66,0,0,1-1.68-1.68,1.64,1.64,0,0,1,3.28,0C172.76,235.89,172.11,236.44,171.14,236.62Z"/><path class="cls-5" d="M264.29,272.86c.17-1,.73-1.67,1.76-1.62a1.54,1.54,0,0,1,1.56,1.64,1.56,1.56,0,0,1-1.72,1.63A1.68,1.68,0,0,1,264.29,272.86Z"/><path class="cls-5" d="M93.53,329.76c.17-1,.72-1.67,1.75-1.63a1.64,1.64,0,1,1-.15,3.27A1.67,1.67,0,0,1,93.53,329.76Z"/><path class="cls-5" d="M283.39,310.79a1.44,1.44,0,0,1,1.61-1.53,1.42,1.42,0,0,1,1.49,1.64,1.41,1.41,0,0,1-1.53,1.45A1.45,1.45,0,0,1,283.39,310.79Z"/><path class="cls-5" d="M209.07,236.5a1.45,1.45,0,0,1-1.57-1.56,1.55,1.55,0,0,1,3.1-.06A1.46,1.46,0,0,1,209.07,236.5Z"/><path class="cls-5" d="M114.2,255.36a1.36,1.36,0,0,1-1.44-1.5,1.28,1.28,0,0,1,1.39-1.37A1.3,1.3,0,0,1,115.6,254C115.59,254.84,115.06,255.27,114.2,255.36Z"/><path class="cls-5" d="M285,293.31a1.36,1.36,0,0,1-1.45-1.51,1.31,1.31,0,0,1,1.52-1.41,1.3,1.3,0,0,1,1.37,1.41A1.37,1.37,0,0,1,285,293.31Z"/><path class="cls-5" d="M153.6,235a1.36,1.36,0,0,1-1.53,1.42,1.31,1.31,0,0,1-1.39-1.54,1.29,1.29,0,0,1,1.43-1.35A1.37,1.37,0,0,1,153.6,235Z"/><path class="cls-5" d="M245.57,234.85a1.34,1.34,0,0,1,1.46-1.3,1.4,1.4,0,1,1-.15,2.8A1.36,1.36,0,0,1,245.57,234.85Z"/><path class="cls-5" d="M283.52,272.82a1.35,1.35,0,0,1,1.43-1.35,1.4,1.4,0,1,1-.08,2.8C284,274.24,283.58,273.68,283.52,272.82Z"/><path class="cls-5" d="M228.07,236.43c-1-.12-1.55-.63-1.49-1.58a1.45,1.45,0,0,1,2.9.11A1.39,1.39,0,0,1,228.07,236.43Z"/><path class="cls-5" d="M133.27,236.38c-1-.08-1.5-.51-1.52-1.38a1.41,1.41,0,1,1,2.81,0A1.36,1.36,0,0,1,133.27,236.38Z"/><path class="cls-5" d="M264.53,253.84a1.33,1.33,0,0,1,1.41-1.35,1.42,1.42,0,1,1-.1,2.84A1.34,1.34,0,0,1,264.53,253.84Z"/><path class="cls-5" d="M95.26,274.31c-.94-.12-1.46-.57-1.46-1.44a1.28,1.28,0,0,1,1.37-1.4A1.3,1.3,0,0,1,96.61,273,1.35,1.35,0,0,1,95.26,274.31Z"/><path class="cls-5" d="M95.15,293.3a1.35,1.35,0,0,1-1.39-1.54,1.3,1.3,0,0,1,1.41-1.37,1.33,1.33,0,0,1,1.49,1.45C96.66,292.79,96.1,293.26,95.15,293.3Z"/><path class="cls-5" d="M190.19,217.38c-.89-.09-1.46-.54-1.48-1.38a1.3,1.3,0,0,1,1.38-1.38,1.27,1.27,0,0,1,1.34,1.26C191.5,216.75,190.92,217.18,190.19,217.38Z"/><path class="cls-5" d="M169.71,215.93c.17-.81.63-1.38,1.48-1.3a1.36,1.36,0,0,1-.1,2.72A1.39,1.39,0,0,1,169.71,215.93Z"/><path class="cls-5" d="M305.31,348.81c-.19.8-.65,1.36-1.51,1.27a1.36,1.36,0,0,1,.16-2.71A1.39,1.39,0,0,1,305.31,348.81Z"/><path class="cls-5" d="M207.66,215.91c.19-.8.65-1.37,1.5-1.28a1.36,1.36,0,0,1-.15,2.72A1.38,1.38,0,0,1,207.66,215.91Z"/><path class="cls-5" d="M304,331.16a1.39,1.39,0,0,1-1.41-1.39A1.31,1.31,0,0,1,304,328.4a1.28,1.28,0,0,1,1.32,1.29C305.32,330.54,304.77,331,304,331.16Z"/><path class="cls-5" d="M304,312.19a1.37,1.37,0,0,1-1.44-1.35,1.36,1.36,0,0,1,2.72-.15C305.35,311.55,304.8,312,304,312.19Z"/><path class="cls-5" d="M76.22,312.2c-.82-.15-1.39-.6-1.35-1.45a1.37,1.37,0,0,1,2.73,0A1.41,1.41,0,0,1,76.22,312.2Z"/><path class="cls-5" d="M74.84,329.8a1.38,1.38,0,0,1,1.39-1.4,1.29,1.29,0,0,1,1.36,1.41,1.26,1.26,0,0,1-1.28,1.31C75.45,331.17,75,330.61,74.84,329.8Z"/><path class="cls-5" d="M76.26,350.12c-.83-.11-1.4-.57-1.39-1.41a1.36,1.36,0,0,1,2.72,0C77.63,349.52,77.07,350,76.26,350.12Z"/><path class="cls-5" d="M303.87,293.2c-.72-.19-1.31-.62-1.28-1.37a1.28,1.28,0,0,1,1.45-1.3,1.26,1.26,0,0,1,1.2,1.39A1.45,1.45,0,0,1,303.87,293.2Z"/><path class="cls-5" d="M76.24,293.21c-.74-.16-1.32-.58-1.33-1.33a1.33,1.33,0,1,1,2.65,0A1.47,1.47,0,0,1,76.24,293.21Z"/><path class="cls-5" d="M153.49,216c-.2.72-.62,1.31-1.37,1.28a1.33,1.33,0,1,1,.1-2.65A1.44,1.44,0,0,1,153.49,216Z"/><path class="cls-5" d="M95.15,255.28c-.71-.2-1.3-.63-1.27-1.38a1.33,1.33,0,1,1,2.65.1A1.45,1.45,0,0,1,95.15,255.28Z"/><path class="cls-5" d="M229.41,216c-.23.79-.65,1.38-1.41,1.34a1.33,1.33,0,1,1,.12-2.65A1.53,1.53,0,0,1,229.41,216Z"/><path class="cls-5" d="M267.22,234.93a1.21,1.21,0,0,1-1.19,1.24,1.15,1.15,0,0,1-1.28-1.28,1.14,1.14,0,0,1,1.24-1.17A1.22,1.22,0,0,1,267.22,234.93Z"/><path class="cls-5" d="M112.94,235a1.19,1.19,0,0,1,1.13-1.26,1.16,1.16,0,0,1,1.34,1.23,1.14,1.14,0,0,1-1.2,1.21A1.21,1.21,0,0,1,112.94,235Z"/><path class="cls-5" d="M285,255.15a1.18,1.18,0,0,1-1.24-1.14,1.22,1.22,0,1,1,2.44-.13A1.22,1.22,0,0,1,285,255.15Z"/><path class="cls-5" d="M56.14,329.7a1.12,1.12,0,0,1,2.23.12c0,.78-.5,1.11-1.25,1.05S56.14,330.37,56.14,329.7Z"/><path class="cls-5" d="M133.13,217.13a1,1,0,0,1-1.11-1.21,1,1,0,0,1,1.08-1.07,1,1,0,0,1,1.19,1.12A1,1,0,0,1,133.13,217.13Z"/><path class="cls-5" d="M247,214.84a1,1,0,0,1,1.09,1.22,1,1,0,0,1-1.09,1.06,1,1,0,0,1-1.18-1.14A1,1,0,0,1,247,214.84Z"/><path class="cls-5" d="M304,274c-.77,0-1.21-.33-1.23-1.1a1,1,0,0,1,1.14-1.17,1,1,0,0,1,1.13,1A1,1,0,0,1,304,274Z"/><path class="cls-5" d="M76.21,274a1,1,0,0,1-1.11-1.21,1,1,0,0,1,1.08-1.07,1,1,0,0,1,1.19,1.12A1,1,0,0,1,76.21,274Z"/><path class="cls-5" d="M171.18,198.11c-.67-.06-1.12-.41-1.14-1.06a1.06,1.06,0,0,1,2.12-.13C172.23,197.6,171.79,198,171.18,198.11Z"/><path class="cls-5" d="M152.2,198.11c-.65-.12-1.08-.43-1.11-1a1,1,0,1,1,2.08-.16C153.23,197.64,152.72,197.93,152.2,198.11Z"/><path class="cls-5" d="M132.1,197c.13-.57.47-1,1.05-1a1,1,0,1,1-.07,2A1.08,1.08,0,0,1,132.1,197Z"/><path class="cls-5" d="M115.28,216c-.12.64-.47,1.09-1.14,1.06a1.07,1.07,0,0,1,0-2.13C114.82,214.9,115.16,215.35,115.28,216Z"/><path class="cls-5" d="M321.82,291.91a1.08,1.08,0,0,1,1.07-1.12,1,1,0,0,1,0,2.09C322.31,292.9,322,292.48,321.82,291.91Z"/><path class="cls-5" d="M324,310.71c-.05.68-.39,1.13-1.05,1.15a1.06,1.06,0,0,1-.15-2.12C323.46,309.66,323.81,310.11,324,310.71Z"/><path class="cls-5" d="M321.78,329.85c.12-.72.47-1.17,1.14-1.15a1.07,1.07,0,0,1,0,2.13C322.25,330.87,322,330.37,321.78,329.85Z"/><path class="cls-5" d="M324,348.73c-.12.64-.47,1.1-1.14,1.06a1.07,1.07,0,0,1,0-2.13C323.53,347.65,323.88,348.09,324,348.73Z"/><path class="cls-5" d="M285.05,236.05c-.73-.1-1.19-.46-1.17-1.12a1.07,1.07,0,0,1,2.13,0C286.06,235.58,285.56,235.87,285.05,236.05Z"/><path class="cls-5" d="M94.11,234.89c.16-.62.5-1.07,1.18-1A1.07,1.07,0,0,1,95.2,236,1.12,1.12,0,0,1,94.11,234.89Z"/><path class="cls-5" d="M267,216.08c-.19.58-.53,1-1.22.93a1,1,0,0,1-.89-1.1,1,1,0,0,1,1.19-1A1.08,1.08,0,0,1,267,216.08Z"/><path class="cls-5" d="M229.1,196.88c-.07.73-.43,1.17-1.08,1.19a1,1,0,0,1-1-1,1,1,0,0,1,1-1.13C228.62,196,228.92,196.41,229.1,196.88Z"/><path class="cls-5" d="M210.15,196.85c-.06.76-.41,1.21-1.06,1.23a1.06,1.06,0,0,1-.16-2.12C209.64,195.87,209.93,196.37,210.15,196.85Z"/><path class="cls-5" d="M191.17,197c-.08.66-.43,1.12-1.09,1.12A1,1,0,0,1,189,197a1,1,0,0,1,1-1C190.68,195.91,191,196.35,191.17,197Z"/><path class="cls-5" d="M76.36,255c-.74-.09-1.19-.44-1.19-1.1a1,1,0,0,1,1.1-1.07,1,1,0,0,1,1,1C77.36,254.53,76.86,254.82,76.36,255Z"/><path class="cls-5" d="M303.91,255c-.62-.14-1.08-.48-1-1.16a1,1,0,0,1,1-1,1,1,0,0,1,1,1.13C304.92,254.57,304.49,254.88,303.91,255Z"/><path class="cls-5" d="M57.33,273.92a1.05,1.05,0,0,1-1.08-.94,1,1,0,1,1,2-.14C58.31,273.44,57.89,273.77,57.33,273.92Z"/><path class="cls-5" d="M56.19,291.74c.19-.59.53-1.05,1.22-.93a1,1,0,0,1,.89,1.1,1,1,0,0,1-1.19,1A1.08,1.08,0,0,1,56.19,291.74Z"/><path class="cls-5" d="M57.19,311.89c-.61-.16-1.07-.51-1-1.19a1.07,1.07,0,0,1,2.13.12A1.1,1.1,0,0,1,57.19,311.89Z"/><path class="cls-5" d="M58.35,348.68c-.08.66-.43,1.11-1.09,1.11a1.06,1.06,0,0,1-.08-2.12C57.86,347.62,58.2,348.06,58.35,348.68Z"/><path class="cls-5" d="M246.07,197.06a.9.9,0,0,1,.85-.95.86.86,0,0,1,1,.94.86.86,0,0,1-.91.89A.9.9,0,0,1,246.07,197.06Z"/><path class="cls-5" d="M96.14,216a.9.9,0,0,1-.87.93.92.92,0,1,1,0-1.83A.93.93,0,0,1,96.14,216Z"/><path class="cls-5" d="M77.16,235c-.09.6-.42.94-1,.91a.86.86,0,0,1-.88-1.05.84.84,0,0,1,1-.77A.9.9,0,0,1,77.16,235Z"/><path class="cls-5" d="M322.94,273.8A.89.89,0,0,1,322,273a.91.91,0,1,1,1.82-.14A.91.91,0,0,1,322.94,273.8Z"/><path class="cls-5" d="M115,196.94c0,.57-.24.89-.82.9a.71.71,0,0,1-.81-.74c0-.57.23-.89.81-.9A.73.73,0,0,1,115,196.94Z"/><path class="cls-5" d="M190.06,178.88a.82.82,0,0,1,0-1.64.72.72,0,0,1,.8.76A.76.76,0,0,1,190.06,178.88Z"/><path class="cls-5" d="M37.46,310.77a.82.82,0,0,1,1.64.06c0,.59-.36.82-.92.78S37.47,311.25,37.46,310.77Z"/><path class="cls-5" d="M57.24,254.73a.73.73,0,0,1-.8-.76.75.75,0,0,1,.84-.88.72.72,0,0,1,.79.76A.74.74,0,0,1,57.24,254.73Z"/><path class="cls-5" d="M284.92,216.81c-.64-.1-.82-.43-.79-.9s.43-.79,1-.73.68.41.66.88A.73.73,0,0,1,284.92,216.81Z"/><path class="cls-5" d="M303.9,235.77a.74.74,0,0,1-.8-.76.75.75,0,0,1,.84-.88.71.71,0,0,1,.79.76A.75.75,0,0,1,303.9,235.77Z"/><path class="cls-5" d="M38.34,349.54a.74.74,0,0,1-.87-.83.72.72,0,0,1,.76-.8.74.74,0,0,1,.87.84A.71.71,0,0,1,38.34,349.54Z"/><path class="cls-5" d="M341.89,330.58a.74.74,0,0,1-.84-.86.72.72,0,0,1,.79-.77.74.74,0,0,1,.84.86A.72.72,0,0,1,341.89,330.58Z"/><path class="cls-5" d="M38.34,330.58a.74.74,0,0,1-.87-.83.72.72,0,0,1,.76-.8.74.74,0,0,1,.87.83A.72.72,0,0,1,38.34,330.58Z"/><path class="cls-5" d="M323,254.69a.74.74,0,0,1-.85-.72.77.77,0,1,1,1.54-.12A.73.73,0,0,1,323,254.69Z"/><path class="cls-5" d="M228.79,178.08c-.08.47-.34.77-.83.73a.7.7,0,0,1-.68-.85.68.68,0,0,1,.73-.66A.75.75,0,0,1,228.79,178.08Z"/><path class="cls-5" d="M246.25,178a.72.72,0,0,1,.75-.65.68.68,0,0,1,.73.81.68.68,0,0,1-.88.64A.72.72,0,0,1,246.25,178Z"/><path class="cls-5" d="M94.46,197.11a.72.72,0,0,1,.6-.81.74.74,0,1,1,.14,1.46A.73.73,0,0,1,94.46,197.11Z"/><path class="cls-5" d="M304.66,216.07a.71.71,0,0,1-.74.65.74.74,0,1,1,.15-1.46A.73.73,0,0,1,304.66,216.07Z"/><path class="cls-5" d="M171.89,178.09a.74.74,0,0,1-.82.74.71.71,0,0,1-.74-.8.71.71,0,0,1,.8-.75A.75.75,0,0,1,171.89,178.09Z"/><path class="cls-5" d="M76.17,216.75c-.46-.1-.75-.37-.68-.86A.75.75,0,0,1,77,216,.74.74,0,0,1,76.17,216.75Z"/><path class="cls-5" d="M341.79,349.51a.73.73,0,0,1-.69-.84.7.7,0,0,1,.83-.71.72.72,0,0,1,.71.83A.74.74,0,0,1,341.79,349.51Z"/><path class="cls-5" d="M322.79,235.69c-.43-.13-.73-.4-.62-.89a.74.74,0,1,1,1.44.3A.72.72,0,0,1,322.79,235.69Z"/><path class="cls-5" d="M265.19,196.94a.74.74,0,0,1,.84-.69.77.77,0,0,1-.12,1.54A.74.74,0,0,1,265.19,196.94Z"/><path class="cls-5" d="M132.41,178a.71.71,0,0,1,.74-.66.7.7,0,0,1,.74.81.69.69,0,0,1-.74.67A.73.73,0,0,1,132.41,178Z"/><path class="cls-5" d="M285.69,196.94a.73.73,0,0,1-.75.82.69.69,0,0,1-.73-.66.7.7,0,0,1,.74-.82A.73.73,0,0,1,285.69,196.94Z"/><path class="cls-5" d="M56.5,235a.76.76,0,0,1,.68-.74A.7.7,0,0,1,58,235a.69.69,0,0,1-.82.73A.76.76,0,0,1,56.5,235Z"/><path class="cls-5" d="M39,272.88c-.08.46-.33.77-.83.73a.7.7,0,0,1-.67-.74.71.71,0,0,1,.82-.73A.75.75,0,0,1,39,272.88Z"/><path class="cls-5" d="M38.21,292.62a.74.74,0,0,1-.7-.85.71.71,0,0,1,.84-.7.7.7,0,0,1,.7.83A.73.73,0,0,1,38.21,292.62Z"/><path class="cls-5" d="M341.94,311.58c-.5,0-.81-.23-.84-.72a.77.77,0,1,1,1.54-.12A.73.73,0,0,1,341.94,311.58Z"/><path class="cls-5" d="M341.93,292.61c-.53-.06-.84-.31-.82-.8a.7.7,0,0,1,.82-.72.69.69,0,0,1,.69.69A.75.75,0,0,1,341.93,292.61Z"/><path class="cls-5" d="M341.12,273a.73.73,0,0,1,.75-.82.74.74,0,0,1,0,1.48A.72.72,0,0,1,341.12,273Z"/><path class="cls-5" d="M209.05,178.84a.75.75,0,0,1-.78-.78.78.78,0,0,1,1.56,0A.75.75,0,0,1,209.05,178.84Z"/><path class="cls-5" d="M152.2,178.84c-.52,0-.83-.27-.85-.75a.78.78,0,1,1,1.55-.06A.74.74,0,0,1,152.2,178.84Z"/><path class="cls-5" d="M284.84,178.49a.4.4,0,0,1-.32-.53.37.37,0,0,1,.55-.31.59.59,0,0,1,.31.43C285.38,178.37,285.18,178.52,284.84,178.49Z"/><path class="cls-5" d="M152,159.54a.47.47,0,0,1,.1-.91.43.43,0,0,1,.5.46C152.59,159.38,152.41,159.57,152,159.54Z"/><path class="cls-5" d="M247.44,159.1c-.06.28-.2.46-.52.41a.38.38,0,0,1-.35-.42.41.41,0,0,1,.5-.42C247.32,158.7,247.39,158.89,247.44,159.1Z"/><path class="cls-5" d="M323.36,216a.45.45,0,0,1-.52.44c-.31,0-.43-.24-.4-.55a.41.41,0,0,1,.43-.37A.45.45,0,0,1,323.36,216Z"/><path class="cls-5" d="M227.91,159.54a.42.42,0,0,1-.33-.55.41.41,0,0,1,.58-.33.4.4,0,0,1,.32.46C228.46,159.42,228.27,159.58,227.91,159.54Z"/><path class="cls-5" d="M209.05,158.6a.47.47,0,0,1,.48.49.46.46,0,0,1-.48.49.47.47,0,0,1-.49-.49A.48.48,0,0,1,209.05,158.6Z"/><path class="cls-5" d="M132.7,159.12c0-.3.18-.48.47-.47a.41.41,0,0,1,.42.49.39.39,0,0,1-.38.39C132.91,159.56,132.76,159.4,132.7,159.12Z"/><path class="cls-5" d="M342.35,254a.47.47,0,0,1-.54.43.44.44,0,0,1-.42-.53.43.43,0,0,1,.53-.42A.45.45,0,0,1,342.35,254Z"/><path class="cls-5" d="M341.43,234.83a.41.41,0,0,1,.51-.32.44.44,0,0,1-.07.88C341.59,235.39,341.41,235.22,341.43,234.83Z"/><path class="cls-5" d="M95.11,178.49a.41.41,0,0,1-.33-.53.38.38,0,0,1,.56-.31.61.61,0,0,1,.3.43C95.65,178.37,95.44,178.52,95.11,178.49Z"/><path class="cls-5" d="M190,159.58a.47.47,0,0,1-.42-.49.49.49,0,0,1,1,0C190.56,159.38,190.38,159.56,190,159.58Z"/><path class="cls-5" d="M114,178.51a.43.43,0,0,1-.3-.51.48.48,0,0,1,1,.11C114.62,178.4,114.44,178.56,114,178.51Z"/><path class="cls-5" d="M76.35,197.47c-.35,0-.55-.11-.58-.41a.43.43,0,0,1,.46-.5.41.41,0,0,1,.45.35A.44.44,0,0,1,76.35,197.47Z"/><path class="cls-5" d="M171.15,159.57a.44.44,0,0,1-.52-.43.42.42,0,0,1,.42-.52.44.44,0,0,1,.53.42A.45.45,0,0,1,171.15,159.57Z"/><path class="cls-5" d="M57.31,216.44a.46.46,0,1,1,0-.92.41.41,0,0,1,.42.38A.44.44,0,0,1,57.31,216.44Z"/><path class="cls-5" d="M265.49,178a.46.46,0,0,1,.53-.42.48.48,0,1,1-.1.95A.45.45,0,0,1,265.49,178Z"/><path class="cls-5" d="M304,197.49c-.31,0-.5-.18-.49-.48a.43.43,0,0,1,.51-.45.41.41,0,0,1,.4.4A.44.44,0,0,1,304,197.49Z"/><path class="cls-5" d="M38.38,235.39c-.35,0-.53-.15-.54-.43a.42.42,0,0,1,.47-.46.4.4,0,0,1,.41.37A.43.43,0,0,1,38.38,235.39Z"/><path class="cls-5" d="M38.74,254.08a.43.43,0,0,1-.51.31.44.44,0,0,1-.42-.53.43.43,0,0,1,.53-.42C38.63,253.47,38.79,253.65,38.74,254.08Z"/><path class="cls-5" d="M18.86,272.84a.43.43,0,0,1,.52-.4.39.39,0,0,1,.37.4.42.42,0,0,1-.44.48A.43.43,0,0,1,18.86,272.84Z"/><path class="cls-5" d="M19.51,292.28c-.43,0-.63-.1-.66-.4a.44.44,0,0,1,.46-.51.43.43,0,0,1,.45.35A.5.5,0,0,1,19.51,292.28Z"/><path class="cls-5" d="M18.83,310.75a.44.44,0,0,1,.53-.42.44.44,0,0,1,.43.52.45.45,0,0,1-.53.43A.46.46,0,0,1,18.83,310.75Z"/><path class="cls-5" d="M19.21,330.24c-.33-.13-.45-.34-.35-.62a.44.44,0,0,1,.6-.31.43.43,0,0,1,.3.6A.45.45,0,0,1,19.21,330.24Z"/><path class="cls-5" d="M19.17,349.19a.45.45,0,0,1-.31-.61.47.47,0,1,1,.9.3A.45.45,0,0,1,19.17,349.19Z"/><path class="cls-5" d="M114.13,159.48a1.52,1.52,0,0,1-.31-.39c0-.08.14-.27.26-.32s.39,0,.44.25S114.43,159.39,114.13,159.48Z"/><path class="cls-5" d="M208.73,140.24c0-.29.12-.44.32-.45a.43.43,0,0,1,.31.28.31.31,0,0,1-.31.39C208.94,140.47,208.82,140.31,208.73,140.24Z"/><path class="cls-5" d="M323.24,197c0,.23-.1.43-.31.41s-.3-.21-.39-.35.14-.26.25-.32S323.15,196.76,323.24,197Z"/><path class="cls-5" d="M38.39,216.31c-.28,0-.43-.13-.44-.33s.15-.28.27-.31a.32.32,0,0,1,.4.32C38.63,216.1,38.46,216.21,38.39,216.31Z"/><path class="cls-5" d="M342.2,216.07c-.09.08-.2.24-.31.24a.31.31,0,0,1-.34-.37c0-.11.18-.28.29-.28S342.19,215.8,342.2,216.07Z"/><path class="cls-5" d="M171.19,140.47c-.27,0-.43-.15-.42-.36a.44.44,0,0,1,.29-.3.31.31,0,0,1,.37.34C171.42,140.27,171.26,140.37,171.19,140.47Z"/><path class="cls-5" d="M18.92,253.86a1.35,1.35,0,0,1,.4-.3c.07,0,.26.13.32.25s-.05.39-.26.44S19,254.16,18.92,253.86Z"/><path class="cls-5" d="M76.34,178.38c-.28,0-.43-.13-.44-.33s.15-.27.27-.31a.32.32,0,0,1,.4.32C76.57,178.17,76.41,178.29,76.34,178.38Z"/><path class="cls-5" d="M56.91,197.09c0-.23.1-.43.31-.41s.3.2.4.35-.14.26-.26.32S57,197.29,56.91,197.09Z"/><path class="cls-5" d="M190.49,140c-.14.35-.25.53-.48.46s-.28-.21-.27-.31a.33.33,0,0,1,.41-.32A1.34,1.34,0,0,1,190.49,140Z"/><path class="cls-5" d="M304,178.38c-.29,0-.44-.13-.45-.33s.16-.27.28-.31a.32.32,0,0,1,.39.32C304.26,178.17,304.1,178.29,304,178.38Z"/><path class="cls-5" d="M266.32,159c0,.24-.11.43-.31.41s-.3-.2-.4-.35.15-.26.26-.31S266.23,158.83,266.32,159Z"/><path class="cls-5" d="M.46,292.24c-.32-.12-.5-.24-.43-.47a.44.44,0,0,1,.31-.27.32.32,0,0,1,.31.41A1.15,1.15,0,0,1,.46,292.24Z"/><path class="cls-5" d="M0,310.89c0-.27.15-.43.36-.42a.44.44,0,0,1,.3.29.32.32,0,0,1-.35.37C.2,311.12.09,311,0,310.89Z"/><path class="cls-5" d="M.28,330.12c-.09-.1-.24-.19-.26-.31a.31.31,0,0,1,.34-.37.44.44,0,0,1,.3.28C.7,329.94.52,330.06.28,330.12Z"/><path class="cls-5" d="M.43,349.07c-.28,0-.43-.15-.42-.37a.45.45,0,0,1,.28-.29.31.31,0,0,1,.37.34C.66,348.87.5,349,.43,349.07Z"/></g></g></svg>