<svg xmlns="http://www.w3.org/2000/svg" xmlns:xlink="http://www.w3.org/1999/xlink" viewBox="0 0 1366 526.22"><defs><style>.cls-1{fill:none;}.cls-2,.cls-4,.cls-5,.cls-8{isolation:isolate;}.cls-3{clip-path:url(#clip-path);}.cls-4{fill:#ffc9ff;opacity:0.34;}.cls-4,.cls-8{fill-rule:evenodd;}.cls-5,.cls-8{opacity:0.48;}.cls-6,.cls-8{fill:#fff;}.cls-7{clip-path:url(#clip-path-2);}.cls-8{mix-blend-mode:overlay;}</style><clipPath id="clip-path"><rect class="cls-1" width="1366" height="716.04"/></clipPath><clipPath id="clip-path-2"><rect class="cls-1" x="1502.61" y="77.5" width="1366" height="853.18"/></clipPath></defs><g class="cls-2"><g id="圖層_1" data-name="圖層 1"><g class="cls-3"><path class="cls-4" d="M891.38,157.19c-45.18,31.64-105.25,34.14-159,20.4C678.9,163.91,630.46,135.93,581.79,110S482.2,59.44,427.35,53.56s-114.74,10.23-149.3,53.36c-26.14,33-36.38,79.09-71.24,102.43-32.74,21.93-75.38,16.17-114.94,19.24-25.1,2-54.7,11.42-71.42,31.39C4.94,278.5,7.26,307.29-22.47,311.11c-12.48,1.6-25-2-36.86-6.27a329.87,329.87,0,0,1-42.23-18.58c-12-6.34-23.71-13.42-36.12-19-34.52-15.49-79.36-13.18-111.7-31.74-28-16.05-15.12-42.08-8-69.84A651.29,651.29,0,0,1-170.9-30C-129-93.62-66.54-154.06,9.6-154c60.11,0,113.12,37.69,171.19,53.68,68.64,19.26,142.14,6.66,211.05-11.85s136.85-43.28,207.94-49.43,148.27,9.31,198.36,60.45c23.6,24.35,40.52,54.43,67.55,75.58,19.24,15,43.87,25,60.94,42.58C966.81,58.4,931.64,129,891.38,157.19Z"/><g class="cls-5"><path class="cls-6" d="M1337.32,240.41a3.6,3.6,0,1,1,3.72-3.52A3.41,3.41,0,0,1,1337.32,240.41Z"/><path class="cls-6" d="M1366,236.91a3.51,3.51,0,1,1-3.35-3.6A3.69,3.69,0,0,1,1366,236.91Z"/><path class="cls-6" d="M1341,211.69a3.51,3.51,0,1,1-3.51-3.45A3.7,3.7,0,0,1,1341,211.69Z"/><path class="cls-6" d="M1315.9,236.75a3.51,3.51,0,1,1-3.52-3.45A3.69,3.69,0,0,1,1315.9,236.75Z"/><path class="cls-6" d="M1337.52,265.39a3.51,3.51,0,1,1,3.43-3.53A3.69,3.69,0,0,1,1337.52,265.39Z"/><path class="cls-6" d="M1315.61,262a3.22,3.22,0,1,1-3.19-3.31A3,3,0,0,1,1315.61,262Z"/><path class="cls-6" d="M1365.71,261.81a3.22,3.22,0,1,1-3.33-3.15A3,3,0,0,1,1365.71,261.81Z"/><path class="cls-6" d="M1362.47,215a3.22,3.22,0,1,1,3.25-3.25A3,3,0,0,1,1362.47,215Z"/><path class="cls-6" d="M1312.31,215a3.22,3.22,0,1,1,3.31-3.19A3,3,0,0,1,1312.31,215Z"/><path class="cls-6" d="M1340.59,286.9a3.15,3.15,0,1,1-3.19-3.11A3.08,3.08,0,0,1,1340.59,286.9Z"/><path class="cls-6" d="M1315.48,287a3.09,3.09,0,1,1-3-3.13A3.19,3.19,0,0,1,1315.48,287Z"/><path class="cls-6" d="M1290.46,236.91a3.12,3.12,0,1,1-2.92-3.21A3.16,3.16,0,0,1,1290.46,236.91Z"/><path class="cls-6" d="M1312.44,183.59a3.09,3.09,0,1,1-3.14,3A3.2,3.2,0,0,1,1312.44,183.59Z"/><path class="cls-6" d="M1337.47,189.81a3.13,3.13,0,1,1,3.09-3A3.18,3.18,0,0,1,1337.47,189.81Z"/><path class="cls-6" d="M1365.58,186.62a3.09,3.09,0,1,1-3.1-3A3.19,3.19,0,0,1,1365.58,186.62Z"/><path class="cls-6" d="M1287.34,214.84a3.09,3.09,0,1,1,3.09-3A3.19,3.19,0,0,1,1287.34,214.84Z"/><path class="cls-6" d="M1287.28,258.78a3.1,3.1,0,1,1-3,3.11A3.19,3.19,0,0,1,1287.28,258.78Z"/><path class="cls-6" d="M1362.58,290.06a3.12,3.12,0,1,1,3-3.1A3.17,3.17,0,0,1,1362.58,290.06Z"/><path class="cls-6" d="M1287.26,284.17a2.77,2.77,0,1,1-2.68,2.8A2.58,2.58,0,0,1,1287.26,284.17Z"/><path class="cls-6" d="M1287.26,183.92a2.77,2.77,0,1,1-2.68,2.8A2.58,2.58,0,0,1,1287.26,183.92Z"/><path class="cls-6" d="M1340.21,312.08a2.77,2.77,0,1,1-2.64-2.84A2.6,2.6,0,0,1,1340.21,312.08Z"/><path class="cls-6" d="M1265,236.78a2.68,2.68,0,0,1-2.74,2.77,2.65,2.65,0,0,1-2.71-2.8,2.56,2.56,0,0,1,2.64-2.66A2.64,2.64,0,0,1,1265,236.78Z"/><path class="cls-6" d="M1365.22,312.09a2.67,2.67,0,0,1-2.87,2.64,2.63,2.63,0,0,1-2.57-2.92,2.56,2.56,0,0,1,2.75-2.53A2.64,2.64,0,0,1,1365.22,312.09Z"/><path class="cls-6" d="M1262.39,209a2.68,2.68,0,0,1,2.63,2.88,2.64,2.64,0,0,1-2.93,2.56,2.55,2.55,0,0,1-2.52-2.76A2.64,2.64,0,0,1,1262.39,209Z"/><path class="cls-6" d="M1365.22,161.67a2.67,2.67,0,0,1-2.83,2.68,2.63,2.63,0,0,1-2.61-2.88,2.54,2.54,0,0,1,2.71-2.57A2.64,2.64,0,0,1,1365.22,161.67Z"/><path class="cls-6" d="M1262.35,259.15A2.67,2.67,0,0,1,1265,262a2.64,2.64,0,0,1-2.89,2.6,2.55,2.55,0,0,1-2.56-2.72A2.63,2.63,0,0,1,1262.35,259.15Z"/><path class="cls-6" d="M1315.12,312a2.73,2.73,0,1,1-5.45,0,2.56,2.56,0,0,1,2.64-2.66A2.64,2.64,0,0,1,1315.12,312Z"/><path class="cls-6" d="M1340.17,161.55a2.67,2.67,0,0,1-2.71,2.8,2.64,2.64,0,0,1-2.74-2.76,2.56,2.56,0,0,1,2.6-2.69A2.64,2.64,0,0,1,1340.17,161.55Z"/><path class="cls-6" d="M1315.12,161.64a2.67,2.67,0,0,1-2.8,2.71,2.62,2.62,0,0,1-2.64-2.85,2.54,2.54,0,0,1,2.68-2.6A2.64,2.64,0,0,1,1315.12,161.64Z"/><path class="cls-6" d="M1262.21,289.61A2.67,2.67,0,1,1,1265,287,2.9,2.9,0,0,1,1262.21,289.61Z"/><path class="cls-6" d="M1287.33,314.68A2.68,2.68,0,1,1,1290,312,2.91,2.91,0,0,1,1287.33,314.68Z"/><path class="cls-6" d="M1262.34,189.31a2.79,2.79,0,0,1-2.64-2.73,2.66,2.66,0,0,1,2.6-2.5,2.71,2.71,0,0,1,2.59,2.71A2.77,2.77,0,0,1,1262.34,189.31Z"/><path class="cls-6" d="M1287.39,164.25a2.79,2.79,0,0,1-2.64-2.73,2.65,2.65,0,0,1,2.59-2.5,2.7,2.7,0,0,1,2.6,2.7A2.77,2.77,0,0,1,1287.39,164.25Z"/><path class="cls-6" d="M1239.72,236.89a2.33,2.33,0,0,1-2.53,2.38,2.28,2.28,0,0,1-2.4-2.56,2.24,2.24,0,0,1,2.4-2.35A2.36,2.36,0,0,1,1239.72,236.89Z"/><path class="cls-6" d="M1337.49,139a2.34,2.34,0,0,1-2.5-2.47,2.28,2.28,0,0,1,2.49-2.47,2.25,2.25,0,0,1,2.41,2.34A2.36,2.36,0,0,1,1337.49,139Z"/><path class="cls-6" d="M1362.46,334.59a2.34,2.34,0,0,1,2.49,2.47,2.46,2.46,0,0,1-4.91.12A2.36,2.36,0,0,1,1362.46,334.59Z"/><path class="cls-6" d="M1339.92,337a2.35,2.35,0,0,1-2.49,2.49A2.28,2.28,0,0,1,1335,337a2.25,2.25,0,0,1,2.37-2.39A2.36,2.36,0,0,1,1339.92,337Z"/><path class="cls-6" d="M1314.87,337.06a2.34,2.34,0,0,1-2.51,2.46,2.46,2.46,0,0,1,0-4.91A2.35,2.35,0,0,1,1314.87,337.06Z"/><path class="cls-6" d="M1314.75,136.59a2.35,2.35,0,1,1-2.29-2.38A2.1,2.1,0,0,1,1314.75,136.59Z"/><path class="cls-6" d="M1264.65,312.11a2.35,2.35,0,1,1-2.23-2.45C1264,309.71,1264.63,310.59,1264.65,312.11Z"/><path class="cls-6" d="M1239.6,211.77a2.35,2.35,0,1,1-2.3-2.37A2.11,2.11,0,0,1,1239.6,211.77Z"/><path class="cls-6" d="M1364.85,136.6a2.35,2.35,0,1,1-2.28-2.39A2.1,2.1,0,0,1,1364.85,136.6Z"/><path class="cls-6" d="M1237.23,264.24a2.35,2.35,0,1,1,.12-4.7,2.08,2.08,0,0,1,2.24,2.4A2.12,2.12,0,0,1,1237.23,264.24Z"/><path class="cls-6" d="M1289.69,337c-.17,1.56-.94,2.42-2.43,2.36a2.3,2.3,0,0,1,.07-4.59A2.22,2.22,0,0,1,1289.69,337Z"/><path class="cls-6" d="M1234.91,286.94c.14-1.46.89-2.33,2.38-2.3a2.3,2.3,0,0,1,0,4.6A2.2,2.2,0,0,1,1234.91,286.94Z"/><path class="cls-6" d="M1264.62,161.72a2.17,2.17,0,0,1-2.46,2.19,2.3,2.3,0,0,1,.16-4.59C1263.82,159.35,1264.53,160.25,1264.62,161.72Z"/><path class="cls-6" d="M1287.37,138.88c-1.34-.18-2.26-.87-2.28-2.25a2.26,2.26,0,1,1,4.51,0C1289.59,138,1288.69,138.67,1287.37,138.88Z"/><path class="cls-6" d="M1239.56,186.58c-.13,1.37-.81,2.29-2.18,2.36a2.26,2.26,0,1,1-.17-4.52C1238.6,184.39,1239.3,185.29,1239.56,186.58Z"/><path class="cls-6" d="M1362.55,364.34a2.2,2.2,0,0,1-2.23-2.21,2.17,2.17,0,0,1,4.34,0C1364.68,363.37,1363.82,364.11,1362.55,364.34Z"/><path class="cls-6" d="M1264.5,337.07a2.21,2.21,0,0,1-2.11,2.16,2.16,2.16,0,1,1,0-4.32A2.19,2.19,0,0,1,1264.5,337.07Z"/><path class="cls-6" d="M1314.61,362.15c-.22,1.29-.95,2.2-2.32,2.14a2.16,2.16,0,0,1,.2-4.32A2.22,2.22,0,0,1,1314.61,362.15Z"/><path class="cls-6" d="M1239.45,312a2.22,2.22,0,0,1-2.11,2.16,2.17,2.17,0,1,1,0-4.33A2.21,2.21,0,0,1,1239.45,312Z"/><path class="cls-6" d="M1339.65,111.42a2.19,2.19,0,0,1-2.21,2.24,2.17,2.17,0,0,1,0-4.33C1338.68,109.3,1339.41,110.16,1339.65,111.42Z"/><path class="cls-6" d="M1364.71,111.49c-.23,1.32-1,2.22-2.32,2.17a2.17,2.17,0,0,1,.2-4.33A2.22,2.22,0,0,1,1364.71,111.49Z"/><path class="cls-6" d="M1239.45,161.72c-.29,1.3-1,2.19-2.41,2.05a2,2,0,0,1-2-2.25,2.06,2.06,0,0,1,2.36-2.05A2.2,2.2,0,0,1,1239.45,161.72Z"/><path class="cls-6" d="M1212.25,239a2.2,2.2,0,0,1-2.23-2.21,2.17,2.17,0,0,1,4.34,0C1214.38,238.05,1213.53,238.79,1212.25,239Z"/><path class="cls-6" d="M1214.4,261.82a2.2,2.2,0,0,1-2.21,2.23,2.17,2.17,0,0,1,0-4.34C1213.43,259.69,1214.17,260.54,1214.4,261.82Z"/><path class="cls-6" d="M1262.27,138.77c-1.3-.22-2.2-1-2.14-2.32a2.16,2.16,0,1,1,4.32.21A2.21,2.21,0,0,1,1262.27,138.77Z"/><path class="cls-6" d="M1337.44,364.35c-1.31-.23-2.21-1-2.16-2.32a2.16,2.16,0,1,1,4.32.2A2.21,2.21,0,0,1,1337.44,364.35Z"/><path class="cls-6" d="M1312.37,113.55a1.91,1.91,0,0,1-2-2.13,1.89,1.89,0,0,1,2.17-2,1.86,1.86,0,0,1,1.92,2A1.93,1.93,0,0,1,1312.37,113.55Z"/><path class="cls-6" d="M1214.25,211.72a1.93,1.93,0,0,1-2.07,2.08,1.89,1.89,0,0,1-2-2.11,1.85,1.85,0,0,1,1.95-2A1.92,1.92,0,0,1,1214.25,211.72Z"/><path class="cls-6" d="M1239.15,337a1.79,1.79,0,0,1-2,1.91,1.7,1.7,0,0,1-1.81-1.85,1.72,1.72,0,0,1,2-1.91A1.77,1.77,0,0,1,1239.15,337Z"/><path class="cls-6" d="M1289.28,111.49a1.8,1.8,0,0,1-2,1.92,1.75,1.75,0,0,1-1.86-2,1.71,1.71,0,0,1,1.86-1.81A1.8,1.8,0,0,1,1289.28,111.49Z"/><path class="cls-6" d="M1212.23,285a1.79,1.79,0,0,1,1.87,2,1.74,1.74,0,0,1-2,1.83,1.71,1.71,0,0,1-1.78-1.88A1.81,1.81,0,0,1,1212.23,285Z"/><path class="cls-6" d="M1212.06,163.5a1.77,1.77,0,0,1-1.72-1.93,1.85,1.85,0,1,1,3.7.2A1.79,1.79,0,0,1,1212.06,163.5Z"/><path class="cls-6" d="M1262.23,113.38a1.78,1.78,0,0,1-1.79-1.89,1.69,1.69,0,0,1,1.8-1.85,1.71,1.71,0,0,1,1.9,2C1264.1,112.75,1263.36,113.3,1262.23,113.38Z"/><path class="cls-6" d="M1214.15,186.62c-.15,1.38-.83,2-2.08,2a1.73,1.73,0,0,1-1.78-2.08,1.71,1.71,0,0,1,1.92-1.74A1.82,1.82,0,0,1,1214.15,186.62Z"/><path class="cls-6" d="M1214.09,311.85c-.11,1.25-.68,2-1.83,2a1.72,1.72,0,0,1-1.92-1.94,1.69,1.69,0,0,1,1.88-1.77A1.8,1.8,0,0,1,1214.09,311.85Z"/><path class="cls-6" d="M1237.15,138.47a1.77,1.77,0,0,1-1.79-1.88,1.88,1.88,0,1,1,3.76.14A1.78,1.78,0,0,1,1237.15,138.47Z"/><path class="cls-6" d="M1264.19,362.06c-.15,1.25-.75,1.93-1.9,1.93a1.86,1.86,0,1,1,.11-3.71A1.79,1.79,0,0,1,1264.19,362.06Z"/><path class="cls-6" d="M1289.28,362.2a1.8,1.8,0,0,1-2,1.84,1.71,1.71,0,0,1-1.81-1.86,1.74,1.74,0,0,1,1.91-2C1288.6,360.21,1289.22,361,1289.28,362.2Z"/><path class="cls-6" d="M1189,236.66c-.13,1.18-.72,1.94-1.82,2A1.8,1.8,0,0,1,1187,235C1188.16,234.93,1188.72,235.7,1189,236.66Z"/><path class="cls-6" d="M1187.07,263.72c-1.07-.23-1.82-.84-1.72-2a1.8,1.8,0,0,1,3.59.14A1.83,1.83,0,0,1,1187.07,263.72Z"/><path class="cls-6" d="M1362.59,84.59c1.06.25,1.81.86,1.69,2a1.8,1.8,0,0,1-3.59-.2A1.85,1.85,0,0,1,1362.59,84.59Z"/><path class="cls-6" d="M1187,213.59c-1.06-.25-1.8-.86-1.69-2a1.8,1.8,0,0,1,3.59.2A1.83,1.83,0,0,1,1187,213.59Z"/><path class="cls-6" d="M1339.28,86.37c-.13,1.11-.73,1.86-1.84,1.86a1.8,1.8,0,0,1-.1-3.6C1338.47,84.57,1339.07,85.31,1339.28,86.37Z"/><path class="cls-6" d="M1314.23,86.33a1.82,1.82,0,0,1-1.79,1.9,1.71,1.71,0,0,1-1.85-1.8,1.69,1.69,0,0,1,1.65-1.79C1313.38,84.54,1314,85.27,1314.23,86.33Z"/><path class="cls-6" d="M1314.24,387.21c-.2,1.08-.8,1.84-1.92,1.78a1.8,1.8,0,0,1,0-3.6A1.86,1.86,0,0,1,1314.24,387.21Z"/><path class="cls-6" d="M1337.49,389c-1.1-.14-1.85-.74-1.85-1.85a1.8,1.8,0,0,1,3.6-.09C1339.29,388.23,1338.56,388.82,1337.49,389Z"/><path class="cls-6" d="M1364.34,387.16c-.16,1.1-.76,1.85-1.87,1.84a1.71,1.71,0,0,1-1.78-1.87,1.7,1.7,0,0,1,1.72-1.73C1363.54,385.35,1364.13,386.08,1364.34,387.16Z"/><path class="cls-6" d="M1289.15,86.49c-.26,1-.83,1.73-1.82,1.69a1.75,1.75,0,1,1,.12-3.49A1.91,1.91,0,0,1,1289.15,86.49Z"/><path class="cls-6" d="M1289.15,387.19c-.21,1-.77,1.74-1.75,1.75a1.75,1.75,0,1,1,0-3.5A1.94,1.94,0,0,1,1289.15,387.19Z"/><path class="cls-6" d="M1187.21,285.14c1,.26,1.73.82,1.68,1.82a1.75,1.75,0,1,1-3.49-.14A1.9,1.9,0,0,1,1187.21,285.14Z"/><path class="cls-6" d="M1239.05,362.2c-.27.95-.83,1.73-1.82,1.68a1.75,1.75,0,1,1,.13-3.49A1.92,1.92,0,0,1,1239.05,362.2Z"/><path class="cls-6" d="M1187.12,184.85c1,.3,1.83.87,1.77,1.86a1.75,1.75,0,1,1-3.49-.15A2,2,0,0,1,1187.12,184.85Z"/><path class="cls-6" d="M1212.17,134.91a1.6,1.6,0,0,1,1.64,1.57,1.52,1.52,0,0,1-1.69,1.69,1.5,1.5,0,0,1-1.55-1.64A1.61,1.61,0,0,1,1212.17,134.91Z"/><path class="cls-6" d="M1212.25,338.71a1.58,1.58,0,0,1-1.66-1.5,1.61,1.61,0,1,1,3.22-.18A1.6,1.6,0,0,1,1212.25,338.71Z"/><path class="cls-6" d="M1238.88,111.46a1.57,1.57,0,0,1-1.5,1.64,1.62,1.62,0,1,1-.17-3.23A1.6,1.6,0,0,1,1238.88,111.46Z"/><path class="cls-6" d="M1337.35,413.74a1.48,1.48,0,0,1,.17-2.95c1,0,1.46.67,1.38,1.65S1338.25,413.74,1337.35,413.74Z"/><path class="cls-6" d="M1188.65,312a1.36,1.36,0,0,1-1.59,1.46,1.32,1.32,0,0,1-1.42-1.43,1.51,1.51,0,1,1,3,0Z"/><path class="cls-6" d="M1185.63,161.57a1.37,1.37,0,0,1,1.61-1.45,1.32,1.32,0,0,1,1.4,1.45,1.36,1.36,0,0,1-1.5,1.56A1.38,1.38,0,0,1,1185.63,161.57Z"/><path class="cls-6" d="M1263.8,86.3c0,1-.44,1.61-1.46,1.63a1.35,1.35,0,0,1-1.55-1.51,1.33,1.33,0,0,1,1.36-1.49A1.37,1.37,0,0,1,1263.8,86.3Z"/><path class="cls-6" d="M1263.8,387.23a1.37,1.37,0,0,1-1.59,1.47,1.33,1.33,0,0,1-1.42-1.44,1.51,1.51,0,1,1,3,0Z"/><path class="cls-6" d="M1163.53,261.77a1.43,1.43,0,0,1-1.4,1.51,1.4,1.4,0,0,1-.18-2.8C1162.85,260.38,1163.31,261,1163.53,261.77Z"/><path class="cls-6" d="M1163.53,286.85c-.15.85-.57,1.42-1.34,1.46a1.38,1.38,0,1,1-.2-2.75C1162.91,285.49,1163.29,286.16,1163.53,286.85Z"/><path class="cls-6" d="M1162.05,313.39c-.75-.17-1.33-.61-1.31-1.38a1.29,1.29,0,0,1,1.49-1.34,1.28,1.28,0,0,1,1.21,1.43A1.44,1.44,0,0,1,1162.05,313.39Z"/><path class="cls-6" d="M1187.15,335.62c.84.16,1.45.62,1.4,1.5a1.41,1.41,0,0,1-2.82,0C1185.72,336.23,1186.3,335.77,1187.15,335.62Z"/><path class="cls-6" d="M1287.44,62.78a1.43,1.43,0,0,1-1.48-1.41,1.31,1.31,0,0,1,1.28-1.38,1.32,1.32,0,0,1,1.48,1.38C1288.75,62.14,1288.19,62.59,1287.44,62.78Z"/><path class="cls-6" d="M1312.27,59.93a1.43,1.43,0,0,1,1.53,1.39,1.41,1.41,0,0,1-2.81.2C1310.89,60.62,1311.48,60.15,1312.27,59.93Z"/><path class="cls-6" d="M1337.56,62.83c-1-.16-1.56-.62-1.52-1.5a1.41,1.41,0,0,1,2.81,0C1338.9,62.22,1338.25,62.6,1337.56,62.83Z"/><path class="cls-6" d="M1362.5,59.92c.84.16,1.45.62,1.4,1.5a1.41,1.41,0,0,1-2.82,0C1361.07,60.53,1361.65,60.07,1362.5,59.92Z"/><path class="cls-6" d="M1213.65,111.36c-.14,1-.6,1.56-1.48,1.54a1.33,1.33,0,0,1-1.38-1.48,1.34,1.34,0,0,1,1.32-1.34C1213,110,1213.42,110.68,1213.65,111.36Z"/><path class="cls-6" d="M1212.11,363.58c-.81-.21-1.41-.67-1.32-1.56a1.33,1.33,0,0,1,1.57-1.28,1.31,1.31,0,0,1,1.24,1.4A1.46,1.46,0,0,1,1212.11,363.58Z"/><path class="cls-6" d="M1187.27,135.15c.77.25,1.39.7,1.23,1.61a1.3,1.3,0,0,1-1.46,1.17,1.31,1.31,0,0,1-1.26-1.57A1.42,1.42,0,0,1,1187.27,135.15Z"/><path class="cls-6" d="M1161.9,185.26c1,.09,1.55.57,1.57,1.43a1.3,1.3,0,0,1-1.28,1.37,1.32,1.32,0,0,1-1.48-1.38C1160.67,185.89,1161.29,185.5,1161.9,185.26Z"/><path class="cls-6" d="M1161.86,210.3c1,.07,1.6.53,1.64,1.4a1.41,1.41,0,0,1-2.81.2C1160.57,211,1161.23,210.58,1161.86,210.3Z"/><path class="cls-6" d="M1162,235.37c.87.1,1.47.57,1.47,1.44a1.34,1.34,0,0,1-1.46,1.41,1.31,1.31,0,0,1-1.35-1.3C1160.62,236,1161.21,235.56,1162,235.37Z"/><path class="cls-6" d="M1238.7,387c-.12,1-.58,1.57-1.45,1.57a1.34,1.34,0,0,1-1.42-1.45,1.35,1.35,0,0,1,1.31-1.36C1238.06,385.71,1238.45,386.36,1238.7,387Z"/><path class="cls-6" d="M1238.66,86.45c-.18.81-.62,1.42-1.52,1.35a1.3,1.3,0,0,1-1.28-1.37,1.32,1.32,0,0,1,1.48-1.37A1.45,1.45,0,0,1,1238.66,86.45Z"/><path class="cls-6" d="M1263.67,412.16a1.39,1.39,0,0,1-1.24,1.43,1.34,1.34,0,1,1-.18-2.68C1263,410.88,1263.47,411.43,1263.67,412.16Z"/><path class="cls-6" d="M1287.21,413.67c-.77-.25-1.38-.7-1.23-1.61a1.29,1.29,0,0,1,1.46-1.17,1.31,1.31,0,0,1,1.26,1.57A1.42,1.42,0,0,1,1287.21,413.67Z"/><path class="cls-6" d="M1313.83,412.35c-.21.81-.67,1.42-1.57,1.31a1.33,1.33,0,0,1-1.26-1.58,1.32,1.32,0,0,1,1.42-1.23A1.44,1.44,0,0,1,1313.83,412.35Z"/><path class="cls-6" d="M1362.43,410.81c.87.11,1.47.58,1.47,1.45a1.41,1.41,0,0,1-2.81.1C1361,411.46,1361.61,411,1362.43,410.81Z"/><path class="cls-6" d="M1162.15,162.85a1.19,1.19,0,0,1-1.26-1.12,1.21,1.21,0,1,1,2.42-.11A1.2,1.2,0,0,1,1162.15,162.85Z"/><path class="cls-6" d="M1187.11,360.9a1.19,1.19,0,0,1,1.23,1.15,1.14,1.14,0,0,1-1.27,1.29,1.12,1.12,0,0,1-1.14-1.22A1.21,1.21,0,0,1,1187.11,360.9Z"/><path class="cls-6" d="M1212.2,386c.79.13,1.24.57,1.2,1.27a1.13,1.13,0,0,1-1.39,1.15,1.11,1.11,0,0,1-1-1.32A1.19,1.19,0,0,1,1212.2,386Z"/><path class="cls-6" d="M1263.51,61.3a1.17,1.17,0,0,1-1.07,1.26,1.14,1.14,0,0,1-1.36-1.2,1.13,1.13,0,0,1,1.17-1.2A1.18,1.18,0,0,1,1263.51,61.3Z"/><path class="cls-6" d="M1162,336c.75,0,1.18.32,1.18,1.08a.94.94,0,0,1-1,1.07,1,1,0,0,1-1.18-1.07A1,1,0,0,1,1162,336Z"/><path class="cls-6" d="M1138.13,236.84a1,1,0,0,1-1,1,1,1,0,0,1-1.16-1.1.94.94,0,0,1,1-1A1,1,0,0,1,1138.13,236.84Z"/><path class="cls-6" d="M1312.35,438.41a1,1,0,0,1-1-1,1,1,0,0,1,1.11-1.15c.78,0,1.09.49,1,1.22S1313,438.4,1312.35,438.41Z"/><path class="cls-6" d="M1238.33,412.28a1,1,0,0,1-1,1.06,1,1,0,0,1-1.16-1.11,1,1,0,0,1,1-1.05A1,1,0,0,1,1238.33,412.28Z"/><path class="cls-6" d="M1188.23,111.53c-.12.85-.57,1.08-1.19,1-.8-.06-1-.57-1-1.28s.54-.91,1.16-.87A1,1,0,0,1,1188.23,111.53Z"/><path class="cls-6" d="M1213.28,86.46a1,1,0,0,1-1,1.05,1,1,0,0,1-1.16-1.1,1,1,0,0,1,1-1.06A1,1,0,0,1,1213.28,86.46Z"/><path class="cls-6" d="M1363.57,437.25a1,1,0,0,1-1.1,1.15.93.93,0,0,1-1-1,1,1,0,0,1,1.1-1.16A1,1,0,0,1,1363.57,437.25Z"/><path class="cls-6" d="M1338.52,36.27a1,1,0,0,1-1.14,1.11,1,1,0,0,1-1-1,1,1,0,0,1,1.15-1.11A1,1,0,0,1,1338.52,36.27Z"/><path class="cls-6" d="M1338.52,437.25a1,1,0,0,1-1.1,1.15.93.93,0,0,1-1.05-1,1,1,0,0,1,1.1-1.16A1,1,0,0,1,1338.52,437.25Z"/><path class="cls-6" d="M1238.27,61.27a1,1,0,0,1-1,1.11,1,1,0,1,1-.16-2A1,1,0,0,1,1238.27,61.27Z"/><path class="cls-6" d="M1137.08,185.67c.61.11,1,.45,1,1.1a1,1,0,0,1-2-.06A1,1,0,0,1,1137.08,185.67Z"/><path class="cls-6" d="M1136.92,162.61a1,1,0,0,1-.86-1,.91.91,0,0,1,1.08-1,.9.9,0,0,1,.85,1.16A1,1,0,0,1,1136.92,162.61Z"/><path class="cls-6" d="M1162.21,363.11a1,1,0,0,1-1.07-.78,1,1,0,1,1,1.93-.19A1,1,0,0,1,1162.21,363.11Z"/><path class="cls-6" d="M1187.26,85.45a1,1,0,0,1,.86,1,1,1,0,1,1-1.93-.2A1,1,0,0,1,1187.26,85.45Z"/><path class="cls-6" d="M1137.08,260.84a1,1,0,0,1,1,1.08,1,1,0,1,1-2-.08A1,1,0,0,1,1137.08,260.84Z"/><path class="cls-6" d="M1188.15,387.28c-.13.6-.48,1-1.13.9a.92.92,0,0,1-.86-1.16.91.91,0,0,1,1-.82A1,1,0,0,1,1188.15,387.28Z"/><path class="cls-6" d="M1363.52,36.4a1,1,0,0,1-1.11.92,1,1,0,1,1,.17-2A1,1,0,0,1,1363.52,36.4Z"/><path class="cls-6" d="M1213.17,61.5c-.16.57-.52,1-1.18.82a.9.9,0,0,1-.77-1,.91.91,0,0,1,1.17-.85A1,1,0,0,1,1213.17,61.5Z"/><path class="cls-6" d="M1162,137.59a1,1,0,0,1-.92-1.12,1,1,0,0,1,2,.17A1,1,0,0,1,1162,137.59Z"/><path class="cls-6" d="M1136.94,313a1,1,0,0,1-.88-1,.94.94,0,0,1,1.08-1,.91.91,0,0,1,.88,1A1,1,0,0,1,1136.94,313Z"/><path class="cls-6" d="M1162,110.51a1,1,0,0,1,1.08,1,.89.89,0,0,1-.88,1,.93.93,0,0,1-1.08-1A1,1,0,0,1,1162,110.51Z"/><path class="cls-6" d="M1212.19,413.26a1,1,0,0,1-1-.9,1,1,0,1,1,1.94,0A1,1,0,0,1,1212.19,413.26Z"/><path class="cls-6" d="M1262.3,436.32c.6.12,1,.44,1,1.1a.91.91,0,0,1-1,.88.93.93,0,0,1-1-1.08A1,1,0,0,1,1262.3,436.32Z"/><path class="cls-6" d="M1288.37,437.42a1,1,0,0,1-1.11.92,1,1,0,1,1,.17-2A1,1,0,0,1,1288.37,437.42Z"/><path class="cls-6" d="M1313.42,36.21a1,1,0,0,1-1,1.11,1,1,0,1,1-.16-2A1,1,0,0,1,1313.42,36.21Z"/><path class="cls-6" d="M1288.37,36.22c-.08.69-.42,1.1-1.06,1.08a.93.93,0,0,1-1-1.08.91.91,0,0,1,.92-.91A1,1,0,0,1,1288.37,36.22Z"/><path class="cls-6" d="M1262.39,37.29a1,1,0,0,1-1.08-1,.91.91,0,0,1,.88-1,.93.93,0,0,1,1.08,1A1,1,0,0,1,1262.39,37.29Z"/><path class="cls-6" d="M1138.08,211.75a1,1,0,0,1-1,1,1,1,0,0,1,0-2.06A1,1,0,0,1,1138.08,211.75Z"/><path class="cls-6" d="M1138.08,286.84c0,.7-.35,1.1-1,1.12a1,1,0,0,1-.08-2A1,1,0,0,1,1138.08,286.84Z"/><path class="cls-6" d="M1137.61,111.63a.54.54,0,0,1-.7.43.51.51,0,0,1-.41-.74.82.82,0,0,1,.58-.4C1137.45,110.91,1137.66,111.18,1137.61,111.63Z"/><path class="cls-6" d="M1112.58,287.12a.55.55,0,0,1-.69.42.54.54,0,0,1-.5-.55.56.56,0,0,1,.6-.66C1112.37,286.33,1112.62,286.56,1112.58,287.12Z"/><path class="cls-6" d="M1112,161c.37.08.6.27.55.68a.51.51,0,0,1-.56.47.54.54,0,0,1-.55-.67C1111.48,161.2,1111.73,161.1,1112,161Z"/><path class="cls-6" d="M1187.16,60.75c.39.06.63.27.58.68s-.31.58-.72.53a.53.53,0,0,1-.49-.56A.6.6,0,0,1,1187.16,60.75Z"/><path class="cls-6" d="M1112.59,186.83a.61.61,0,1,1-1.18-.33.54.54,0,0,1,.62-.42C1112.42,186.11,1112.63,186.36,1112.59,186.83Z"/><path class="cls-6" d="M1111.34,211.75a.63.63,0,0,1,.65-.64.64.64,0,0,1,0,1.28A.63.63,0,0,1,1111.34,211.75Z"/><path class="cls-6" d="M1112,312.6c-.4,0-.64-.24-.63-.61a.55.55,0,0,1,.66-.57.52.52,0,0,1,.51.5A.58.58,0,0,1,1112,312.6Z"/><path class="cls-6" d="M1237.31,35.67a.6.6,0,0,1,.56.7.63.63,0,1,1-1.26-.14A.6.6,0,0,1,1237.31,35.67Z"/><path class="cls-6" d="M1212,36.87a.53.53,0,0,1-.41-.66.52.52,0,0,1,.52-.49.55.55,0,0,1,.64.58C1212.78,36.67,1212.55,36.91,1212,36.87Z"/><path class="cls-6" d="M1137.61,362.27a.54.54,0,0,1-.7.43.51.51,0,0,1-.41-.74.82.82,0,0,1,.58-.4C1137.45,361.55,1137.66,361.82,1137.61,362.27Z"/><path class="cls-6" d="M1112.63,236.9a.64.64,0,0,1-1.28-.09.61.61,0,0,1,.64-.64C1112.37,236.18,1112.61,236.41,1112.63,236.9Z"/><path class="cls-6" d="M1137.65,337.3a.57.57,0,0,1-.68.4.59.59,0,0,1-.56-.7.58.58,0,0,1,.7-.56C1137.5,336.48,1137.71,336.73,1137.65,337.3Z"/><path class="cls-6" d="M1162.69,387c0,.46-.15.72-.55.76a.56.56,0,0,1-.66-.61.54.54,0,0,1,.46-.58A.58.58,0,0,1,1162.69,387Z"/><path class="cls-6" d="M1112.62,261.81a.6.6,0,0,1-.56.7.63.63,0,0,1-.14-1.26A.59.59,0,0,1,1112.62,261.81Z"/><path class="cls-6" d="M1187.75,412.19a.61.61,0,1,1-1.22,0,.55.55,0,0,1,.5-.56A.6.6,0,0,1,1187.75,412.19Z"/><path class="cls-6" d="M1137,137.19a.6.6,0,0,1-.56-.7.59.59,0,0,1,.7-.56.58.58,0,0,1,.56.7A.59.59,0,0,1,1137,137.19Z"/><path class="cls-6" d="M1162.71,86.39c0,.41-.24.66-.63.65a.57.57,0,0,1-.59-.68.54.54,0,0,1,.52-.53A.59.59,0,0,1,1162.71,86.39Z"/><path class="cls-6" d="M1212.77,437.2c0,.46-.19.7-.57.71a.55.55,0,0,1-.59-.62.52.52,0,0,1,.47-.54A.56.56,0,0,1,1212.77,437.2Z"/><path class="cls-6" d="M1237.47,436.72a.56.56,0,0,1,.4.67.58.58,0,0,1-.7.56.57.57,0,0,1-.55-.7C1236.66,436.86,1236.9,436.66,1237.47,436.72Z"/><path class="cls-6" d="M1262.24,463a.57.57,0,0,1-.52-.69.52.52,0,0,1,.52-.49.55.55,0,0,1,.64.59A.57.57,0,0,1,1262.24,463Z"/><path class="cls-6" d="M1287.93,462.12c0,.58-.14.84-.54.87a.57.57,0,0,1-.66-.6.55.55,0,0,1,.46-.59A.67.67,0,0,1,1287.93,462.12Z"/><path class="cls-6" d="M1312.32,463a.6.6,0,0,1-.56-.7.59.59,0,0,1,.7-.56.58.58,0,0,1,.56.7A.59.59,0,0,1,1312.32,463Z"/><path class="cls-6" d="M1338.08,462.52c-.18.43-.46.59-.83.47a.63.63,0,1,1,.39-1.2A.61.61,0,0,1,1338.08,462.52Z"/><path class="cls-6" d="M1363.1,462.58a.6.6,0,0,1-.8.41.63.63,0,1,1,.39-1.2A.6.6,0,0,1,1363.1,462.58Z"/><path class="cls-6" d="M1112.51,337.14a2,2,0,0,1-.53.4c-.1,0-.35-.18-.42-.34s.07-.52.34-.58S1112.38,336.74,1112.51,337.14Z"/><path class="cls-6" d="M1087.09,212.18c-.38,0-.58-.17-.59-.44s.2-.36.36-.4a.41.41,0,0,1,.52.41C1087.39,211.9,1087.18,212.05,1087.09,212.18Z"/><path class="cls-6" d="M1162,60.9c.31,0,.57.15.54.42s-.27.4-.47.52c0,0-.34-.19-.41-.34C1161.52,61.19,1161.74,61,1162,60.9Z"/><path class="cls-6" d="M1187.57,437.18a.48.48,0,0,1-.43.59.59.59,0,0,1-.41-.36.42.42,0,0,1,.42-.53C1187.29,436.87,1187.45,437.09,1187.57,437.18Z"/><path class="cls-6" d="M1187.26,35.86c.1.12.31.26.32.41a.42.42,0,0,1-.5.45.54.54,0,0,1-.37-.39C1186.69,36.05,1186.9,35.88,1187.26,35.86Z"/><path class="cls-6" d="M1087.39,261.76c0,.36-.2.57-.48.55a.59.59,0,0,1-.39-.38.41.41,0,0,1,.45-.49C1087.12,261.45,1087.27,261.66,1087.39,261.76Z"/><path class="cls-6" d="M1237.18,462.91a1.93,1.93,0,0,1-.41-.53c0-.1.18-.35.34-.42s.51.06.58.33S1237.57,462.77,1237.18,462.91Z"/><path class="cls-6" d="M1137.47,387.05c0,.38-.17.58-.43.59a.59.59,0,0,1-.41-.36.42.42,0,0,1,.42-.53C1137.19,386.74,1137.35,387,1137.47,387.05Z"/><path class="cls-6" d="M1162.18,412.72c-.3,0-.56-.14-.54-.41s.27-.4.47-.52.34.18.41.34S1162.44,412.6,1162.18,412.72Z"/><path class="cls-6" d="M1086.74,236.27c.46.17.7.33.61.63s-.28.36-.41.35a.42.42,0,0,1-.42-.53A1.57,1.57,0,0,1,1086.74,236.27Z"/><path class="cls-6" d="M1137.47,86.29c0,.37-.17.57-.43.58s-.37-.2-.41-.36a.41.41,0,0,1,.42-.52C1137.19,86,1137.35,86.19,1137.47,86.29Z"/><path class="cls-6" d="M1111.9,136.09c.31,0,.57.15.54.42s-.27.4-.47.52c0,0-.34-.19-.41-.34C1111.42,136.38,1111.65,136.21,1111.9,136.09Z"/><path class="cls-6" d="M1287.87,487.29c-.16.42-.32.66-.62.57s-.36-.28-.35-.41a.43.43,0,0,1,.54-.42A1.68,1.68,0,0,1,1287.87,487.29Z"/><path class="cls-6" d="M1312.51,487.9c-.36,0-.57-.2-.55-.48a.57.57,0,0,1,.38-.39.41.41,0,0,1,.49.45C1312.82,487.63,1312.61,487.77,1312.51,487.9Z"/><path class="cls-6" d="M1337.91,487.53c-.12.11-.25.32-.41.34a.41.41,0,0,1-.49-.45.59.59,0,0,1,.38-.39C1337.68,487,1337.84,487.2,1337.91,487.53Z"/><path class="cls-6" d="M1362.94,487.33c0,.36-.2.57-.48.55a.58.58,0,0,1-.39-.37.41.41,0,0,1,.45-.49C1362.68,487,1362.82,487.23,1362.94,487.33Z"/></g></g><g class="cls-7"><path class="cls-8" d="M2609,126.31c-52.41,49.35-129.51,63.87-201.58,56.24-71.58-7.63-139.4-34.67-207.13-59S2062.13,77,1990.2,79.67s-146.27,34.77-182.8,97c-27.57,47.47-32.13,109-72.76,145.69-38.16,34.46-94.31,35-144.83,46.44-32,7.24-68.49,25-86.33,53.95-16.55,26.84-8.14,63.59-45.82,74.1-15.82,4.41-32.69,2.1-48.79-1.17a430.16,430.16,0,0,1-58-16.06c-16.75-5.92-33.15-12.88-50.22-17.75-47.49-13.52-105-2.11-150.23-20-39.13-15.47-27.43-51.5-23.43-88.7a850.23,850.23,0,0,1,74.89-269c42.14-90,111.48-179.78,209.81-194.06,77.64-11.28,153.18,27.41,231.17,37.16,92.26,12,184.82-18.1,270.35-55s168.59-81.61,259.25-102.91,193.23-15.84,267.54,40.8c35.05,27,62.55,62.68,101.43,84.92,27.66,15.71,61.35,24,86.72,43.53C2687.8-15.44,2655.64,82.35,2609,126.31Z"/></g></g></g></svg>