<svg id="圖層_1" data-name="圖層 1" xmlns="http://www.w3.org/2000/svg" viewBox="0 0 338.98 44.6"><defs><style>.cls-1{fill:#003e71;}.cls-2{fill:#0b579e;}.cls-3{fill:#deb229;}.cls-4,.cls-5{fill:#3d3a39;}.cls-4{stroke:#3d3a39;stroke-miterlimit:10;stroke-width:0.25px;}</style></defs><path class="cls-1" d="M152.77,0a2.15,2.15,0,0,0,.65.21A4,4,0,0,1,156,4.44a3.87,3.87,0,0,1-3.72,3.38c-1.71,0-3.42,0-5.12,0-.59,0-.59,0-.59.57v32a3.85,3.85,0,0,1-2.22,3.77,3.89,3.89,0,0,1-5.6-3.42c0-2.79,0-5.57,0-8.36q0-12.06,0-24.12c0-.39-.12-.46-.48-.46-1.76,0-3.52,0-5.28,0a3.87,3.87,0,0,1-3.69-3.49A3.91,3.91,0,0,1,132.23.14c.1,0,.24,0,.3-.14Z"/><path class="cls-1" d="M124.09,0c.08.14.23.08.35.11a3.66,3.66,0,0,1,2.69,3.08,3.87,3.87,0,0,1-2.36,4.31,16.2,16.2,0,0,0-1.93.92A9,9,0,0,0,119,14.23a15.84,15.84,0,0,0-.36,3.64c0,3.8,0,7.61,0,11.41a16.76,16.76,0,0,1-4,10.72,13.11,13.11,0,0,1-7.94,4.52,3.54,3.54,0,0,1-4.17-2.41,3.81,3.81,0,0,1,1.65-4.73A5,5,0,0,1,105,37a8.5,8.5,0,0,0,5.38-6.18,12.37,12.37,0,0,0,.45-3.32c0-3.54,0-7.08,0-10.62a20.36,20.36,0,0,1,.69-6,15.46,15.46,0,0,1,6.15-8.72,14.28,14.28,0,0,1,4.95-2c.06,0,.13,0,.16-.08Z"/><path class="cls-2" d="M102.61.5a5.74,5.74,0,0,0-1.49-.12c-.46,0-.92,0-1.38,0a3.36,3.36,0,0,0-1.13.42,5.68,5.68,0,0,0-1.1.73A5.14,5.14,0,0,0,96,3.64a5.45,5.45,0,0,0-.25,2.91,5.34,5.34,0,1,0,6.82-6ZM101,8.14a2.68,2.68,0,1,1,2.66-2.66A2.69,2.69,0,0,1,101,8.14Z"/><path class="cls-2" d="M22.67,31.83c0-3-.14-6,0-8.95a14.51,14.51,0,0,1,4.9-10.13A14.21,14.21,0,0,1,35.3,9.1a14.62,14.62,0,0,1,12.31,3.72,7.09,7.09,0,0,1,.78.77c.19.22.29.19.47,0A14.12,14.12,0,0,1,55.58,9.5a14.66,14.66,0,0,1,13.67,2.92,10.6,10.6,0,0,1,1.19,1.13c.21.25.32.21.53,0a14.06,14.06,0,0,1,6.88-4.09,14.47,14.47,0,0,1,14.82,4.29,14.31,14.31,0,0,1,4,10.18q0,8.31,0,16.61a3.88,3.88,0,1,1-7.75.23c0-4.73,0-9.46,0-14.18,0-1.15,0-2.3-.06-3.44a7.15,7.15,0,0,0-14.12-.65,8.49,8.49,0,0,0-.13,1.67q0,8.19,0,16.38a3.9,3.9,0,1,1-7.79-.06c0-5.48,0-11,0-16.45a7.15,7.15,0,0,0-14.26-.84c0,.35,0,.7,0,1q0,8.13,0,16.26a3.88,3.88,0,1,1-7.76.17c0-5.23,0-10.47,0-15.71a10,10,0,0,0-.39-3.39A7.15,7.15,0,0,0,30.5,22.89a11.14,11.14,0,0,0-.06,1.29V40.59A3.88,3.88,0,0,1,22.7,41c-.06-1.84,0-3.68,0-5.51Z"/><path class="cls-3" d="M20.18,18.91c-.34-.27-.65-.56-1-.81A7.18,7.18,0,0,0,7.87,22.92a10.86,10.86,0,0,0-.08,1.28q0,8.15,0,16.3a3.81,3.81,0,0,1-2.21,3.7A3.87,3.87,0,0,1,0,40.81C0,34.93,0,29.06.06,23.18a14.08,14.08,0,0,1,4.43-9.95A14.47,14.47,0,0,1,13.33,9,14.74,14.74,0,0,1,23.8,11.8c.16.12.32.19.1.44a17.63,17.63,0,0,0-3.66,6.56A.6.6,0,0,1,20.18,18.91Z"/><path class="cls-4" d="M168.73,2.93l.15,0a1.37,1.37,0,0,1,.23,1c0,1.64,0,3.28,0,4.92a1.62,1.62,0,0,0,.12.9,1.18,1.18,0,0,0,.14-.76c0-1.32,0-2.64,0-4a1.66,1.66,0,0,1,.13-.86c.11-.2.16-.18.37.07-.26.17-.14.44-.14.67,0,1.48,0,3,0,4.46,0,1,0,1-1,1Z"/><path class="cls-4" d="M270.45,10.42c-.27,0-.67.19-.7-.36-.05-.86-.14-1.71-.21-2.56s-.14-1.86-.2-2.79c0-.13.05-.36,0-.36s-.23.19-.21.36c-.6,1.7-1.21,3.41-1.81,5.12-.1.3-.18.56-.63.57s-.56-.24-.68-.59c-.57-1.65-1.16-3.28-1.74-4.91a.87.87,0,0,0-.28-.52c-.15,1.86-.32,3.68-.42,5.5,0,.55-.3.55-.69.55s-.35-.36-.33-.61c.16-2.08.32-4.16.51-6.23,0-.23-.19-.69.32-.64s1.06-.33,1.32.48c.54,1.68,1.16,3.33,1.74,5,.06.17.13.32.24.58.67-1.88,1.3-3.66,1.94-5.44a1.22,1.22,0,0,1,1.51-.6c.18.09.14.24.15.38.17,2.23.33,4.44.51,6.67C270.77,10.25,270.78,10.46,270.45,10.42Z"/><path class="cls-4" d="M228.86,9c.64-1.82,1.3-3.51,1.82-5.23a1.07,1.07,0,0,1,1.37-.87c.25,0,.39,0,.41.35.17,2.25.35,4.49.54,6.74,0,.35-.11.42-.41.41s-.6.05-.63-.45c-.11-1.86-.28-3.72-.52-5.6l-1.05,2.91c-.31.88-.61,1.75-.91,2.63a.57.57,0,0,1-.62.47.58.58,0,0,1-.62-.48q-.84-2.43-1.71-4.84c-.08-.21-.06-.49-.37-.66-.13,1.81-.25,3.58-.4,5.35,0,.23.11.6-.28.65s-.81.13-.74-.58c.2-2.07.32-4.15.49-6.23,0-.24-.16-.7.34-.65s1-.35,1.29.42c.55,1.65,1.15,3.27,1.73,4.91Z"/><path class="cls-4" d="M201.71,4.43V9.86c0,.31.08.61-.45.62s-.52-.24-.52-.63c0-2,0-4.07,0-6.1,0-.26-.18-.69.23-.73s1-.25,1.31.32c1,1.65,2.06,3.28,3.09,4.91.15.25.31.48.59.91V5.05c0-.52,0-1,0-1.55,0-.36.07-.53.48-.53s.49.17.49.53c0,2.09,0,4.17,0,6.25,0,.24.17.65-.2.68s-.92.26-1.25-.29c-.65-1.06-1.33-2.11-2-3.17-.55-.86-1.09-1.73-1.63-2.59Z"/><path class="cls-4" d="M278.46,2.79a3.7,3.7,0,0,0-3.81,3.87,3.6,3.6,0,0,0,3.68,3.89,3.68,3.68,0,0,0,3.84-3.91A3.58,3.58,0,0,0,278.46,2.79ZM281,7.61A2.59,2.59,0,0,1,277.9,9.7a2.81,2.81,0,0,1-2.11-3c0-2.14,1.36-3.39,3.2-3l.22,0C280.57,4.11,281.36,5.88,281,7.61Z"/><path class="cls-4" d="M195.67,2.79a3.71,3.71,0,0,0-3.84,3.85,3.6,3.6,0,0,0,3.66,3.91,3.67,3.67,0,0,0,3.85-3.89A3.56,3.56,0,0,0,195.67,2.79Zm2.48,4.74a2.59,2.59,0,0,1-2.9,2.19,2.78,2.78,0,0,1-2.28-3c0-2.12,1.35-3.38,3.18-3a1.36,1.36,0,0,1,.29.06C197.76,4.16,198.49,5.79,198.15,7.53Z"/><path class="cls-4" d="M169.89,4.31c-.44-.18-.27.2-.27.33,0,1.57,0,3.14,0,4.7v.51c0,.26-.06.43-.36.43s-.37-.17-.37-.42V3a1.5,1.5,0,0,1,1.81.91c.86,1.53,1.85,3,2.8,4.47.12.19.18.45.52.58,0-1.84,0-3.64,0-5.43,0-.24-.13-.55.34-.57s.59.08.58.56c0,2.08,0,4.16,0,6.24,0,.23.17.64-.18.67s-.92.25-1.25-.29c-.88-1.44-1.79-2.86-2.69-4.29C170.48,5.31,170.19,4.81,169.89,4.31Z"/><path class="cls-4" d="M259.66,5.56c0-.71,0-1.42,0-2.13,0-.39.09-.54.49-.5s.63-.08.62.45c0,1.51,0,3-.08,4.55a2.73,2.73,0,0,1-3,2.62,2.62,2.62,0,0,1-3-2.43,43.39,43.39,0,0,1-.08-4.84c0-.53.39-.3.63-.34s.47.08.47.44c0,1.15,0,2.3,0,3.46a10.31,10.31,0,0,0,.07,1.24,1.71,1.71,0,0,0,1.67,1.64,1.77,1.77,0,0,0,2.06-1.45,1.55,1.55,0,0,0,.08-.36V5.56Z"/><path class="cls-4" d="M234.75,5.66c0-.74,0-1.47,0-2.21,0-.42.12-.53.53-.53s.56.07.55.52c0,1.39,0,2.79,0,4.18s.77,2.14,2,2.11a1.73,1.73,0,0,0,1.82-1.65,41.63,41.63,0,0,0,.09-4.47c0-.36-.1-.71.52-.7s.56.26.56.67c0,1.27,0,2.54,0,3.82a3,3,0,0,1-4.31,2.95A2.49,2.49,0,0,1,234.79,8c-.06-.78,0-1.57,0-2.35Z"/><path class="cls-4" d="M182.91,10.06c-.85-2.27-1.71-4.53-2.54-6.81-.15-.4-.44-.33-.71-.31s-.63-.17-.8.29C178,5.59,177.1,8,176.15,10.45c.52-.12,1,.25,1.28-.45s.24-1.54.78-1.83a5.12,5.12,0,0,1,2.09-.1h.22c.43-.09.6.13.72.51a14.23,14.23,0,0,0,.59,1.58c.22.51.69.23,1,.24S183,10.18,182.91,10.06Zm-4-2.73c-.43,0-.5-.13-.35-.51.34-.94.67-1.89,1.07-3,.44,1.24.84,2.33,1.26,3.51C180.12,7.32,179.48,7.3,178.86,7.33Z"/><path class="cls-4" d="M214.87,10c-.83-2.21-1.67-4.44-2.48-6.66C212.25,3,212,3,211.7,3s-.69-.14-.87.33c-.87,2.36-1.75,4.71-2.66,7.13.51-.07,1,.3,1.27-.44s.24-1.52.8-1.82,1.34-.07,2-.08h.29a.51.51,0,0,1,.64.44c.18.55.38,1.11.61,1.64s.69.26,1,.24S214.92,10.15,214.87,10Zm-2.48-2.65c-.65,0-1.32,0-2,0,.41-1.16.79-2.25,1.24-3.49.4,1.12.74,2.09,1.09,3C212.76,7.19,212.79,7.38,212.39,7.36Z"/><path class="cls-4" d="M248.65,6.63c0-1,0-2.11,0-3.16,0-.41.1-.56.53-.55,1.15,0,2.3,0,3.46,0,.28,0,.52,0,.52.4s-.25.41-.54.41c-.78,0-1.56,0-2.35,0-.37,0-.5.1-.52.49-.08,1.9-.09,1.89,1.76,1.89.27,0,.54,0,.81,0s.6-.13.62.38-.38.39-.65.4c-.67,0-1.33,0-2,0-.4,0-.57.08-.55.52a15.86,15.86,0,0,1,0,1.69c0,.39.11.5.5.49.86,0,1.71,0,2.57,0,.3,0,.51,0,.51.42s-.19.42-.5.42c-1.22,0-2.45,0-3.68,0-.45,0-.51-.19-.51-.57C248.66,8.79,248.65,7.71,248.65,6.63Z"/><path class="cls-4" d="M245.2,2.78c.35.07.79.12,1.22.22.26.06.51.12.34.54s-.28.38-.59.26a3,3,0,0,0-1.66-.13,1.11,1.11,0,0,0-1,.93,1,1,0,0,0,.64,1.13c.53.26,1.08.46,1.61.71a2,2,0,0,1,1.43,2.21,2.2,2.2,0,0,1-2,1.8,5.09,5.09,0,0,1-2.54-.2c-.33-.1-.44-.25-.31-.64s.38-.25.6-.16a3.6,3.6,0,0,0,1.8.25,1.33,1.33,0,0,0,1.34-1,1.23,1.23,0,0,0-.84-1.39c-.42-.21-.86-.34-1.29-.53-1.17-.52-1.65-1.19-1.55-2.14s.83-1.5,2-1.72Z"/><path class="cls-4" d="M283.53,6.63c0-1.06,0-2.11,0-3.16,0-.42.11-.56.54-.55,1.15,0,2.3,0,3.45,0,.27,0,.48,0,.48.37s-.17.44-.5.44c-.75,0-1.52,0-2.27,0-.44,0-.59.09-.6.56,0,1.93,0,1.93,1.86,1.93.27,0,.54,0,.81,0s.45.07.45.4-.12.43-.43.42c-.66,0-1.33,0-2,0s-.74.2-.71.74,0,1.38,0,2.06c0,.4,0,.62-.53.63s-.59-.23-.58-.66C283.55,8.74,283.53,7.68,283.53,6.63Z"/><path class="cls-4" d="M184.9,7.05c0-.93,0-1.86,0-2.79,0-.38-.11-.52-.5-.5s-1.08,0-1.61,0c-.34,0-.4-.15-.41-.44s.13-.4.43-.4H188c.29,0,.45,0,.45.39s-.14.47-.48.45-.88,0-1.32,0-.76.1-.74.7c0,1.79,0,3.58,0,5.36,0,.38,0,.63-.52.63s-.56-.19-.55-.61C184.92,8.91,184.9,8,184.9,7.05Z"/><path class="cls-4" d="M216.25,6.65c0-1.05,0-2.11,0-3.16,0-.45.1-.58.56-.57s.52.16.51.55c0,1.84,0,3.68,0,5.51,0,.47.1.65.6.63.81,0,1.62,0,2.43,0,.29,0,.51,0,.51.41s-.18.43-.49.43c-1.2,0-2.4,0-3.6,0-.45,0-.52-.17-.51-.56C216.26,8.8,216.25,7.73,216.25,6.65Z"/><path class="cls-4" d="M189.37,6.69c0-1.08,0-2.15,0-3.23,0-.41.11-.54.54-.54s.6.07.59.55c0,2.13,0,4.26,0,6.38,0,.45-.11.59-.57.6s-.57-.19-.56-.61C189.39,8.79,189.37,7.74,189.37,6.69Z"/><path class="cls-4" d="M172.85,20.52c.68-1.9,1.36-3.59,1.86-5.34.25-.88.8-.78,1.38-.72s.36.64.39,1c.18,2,.31,3.89.45,5.83,0,.28.18.63-.38.64s-.61-.18-.63-.62c-.09-1.56-.21-3.11-.33-4.67a1.18,1.18,0,0,0-.21-.64c-.62,1.77-1.24,3.54-1.88,5.31-.08.23-.07.54-.46.56s-.66,0-.81-.49c-.54-1.63-1.14-3.25-1.72-4.88a1.48,1.48,0,0,0-.32-.57c-.14,1.79-.3,3.58-.41,5.38,0,.45-.12.63-.61.62s-.43-.33-.41-.62c.15-2,.3-4.08.48-6.12,0-.27-.16-.77.44-.72s1-.21,1.26.58C171.49,16.81,172.16,18.55,172.85,20.52Z"/><path class="cls-4" d="M300.43,20.32c0-1.77,0-3.54,0-5.31,0-.44.09-.63.56-.58.27,0,.39.08.39.38q0,3.31,0,6.65c0,.2,0,.44-.27.41s-.86.22-1.17-.3c-.78-1.29-1.6-2.56-2.4-3.84a12.69,12.69,0,0,0-1.35-1.86v3.82c0,.56,0,1.12,0,1.68,0,.36-.07.52-.47.53s-.48-.17-.48-.52c0-2.07,0-4.15,0-6.22,0-.23-.24-.68.22-.7s.95-.25,1.3.33c1.05,1.73,2.15,3.42,3.23,5.13l.28.42Z"/><path class="cls-4" d="M263.81,21.24c-.57-.4-.69-.81-.19-1.4a3.27,3.27,0,0,0,.55-1.49c0-.19.3-.5-.15-.53-.3,0-.71-.17-.78.38a4.39,4.39,0,0,1-.49,1.44c-.12.26-.26.3-.48.07-.56-.61-1.13-1.19-1.71-1.79,1.73-1.06,2.16-1.87,1.56-2.84a2.11,2.11,0,0,0-2.76-.47c-1,.61-1.13,1.62-.27,3.12-.15.1-.31.22-.48.32a2.11,2.11,0,0,0-1,2.24,2.14,2.14,0,0,0,1.91,1.65,3.51,3.51,0,0,0,2.58-.51c.29-.19.49-.23.72.06.43.53,1,.44,1.69.31A7.29,7.29,0,0,0,263.81,21.24ZM260.5,15a.86.86,0,0,1,.9.91,1.91,1.91,0,0,1-1.24,1.43c-.3,0-.74-.77-.72-1.3A1,1,0,0,1,260.5,15Zm1,6a3.26,3.26,0,0,1-1.14.32,1.64,1.64,0,0,1-1.68-1.08,1.49,1.49,0,0,1,.56-1.67c.26-.23.45-.28.72,0,.52.58,1.06,1.14,1.63,1.67C261.92,20.55,261.86,20.74,261.46,21Z"/><path class="cls-4" d="M196.39,15.78v5.6c0,.34.08.66-.49.65s-.5-.3-.5-.66c0-2,0-4,0-6.06,0-.25-.22-.69.23-.71s1-.28,1.31.3c.91,1.47,1.84,2.92,2.76,4.38a7.48,7.48,0,0,0,.91,1.23V19.27c0-1.39,0-2.78,0-4.17,0-.32,0-.54.44-.55s.5.21.5.58c0,2,0,4.09,0,6.13,0,.26.18.68-.24.72s-.89.21-1.22-.34c-1.08-1.79-2.21-3.55-3.32-5.32Z"/><path class="cls-4" d="M306.54,14.3a3.71,3.71,0,0,0-3.81,3.84,3.74,3.74,0,1,0,7.48,0A3.53,3.53,0,0,0,306.54,14.3Zm-.31,6.89c-1.43-.1-2.39-1.36-2.36-3.07,0-2.09,1.4-3.34,3.23-3a2.81,2.81,0,0,1,2,2.87A2.74,2.74,0,0,1,306.23,21.19Z"/><path class="cls-4" d="M320.11,14.3a3.7,3.7,0,0,0-3.74,3.91A3.59,3.59,0,0,0,320.1,22a3.68,3.68,0,0,0,3.76-4A3.56,3.56,0,0,0,320.11,14.3Zm2,5.93A2.51,2.51,0,0,1,318,20a3.34,3.34,0,0,1-.47-1.88c0-2,1.36-3.3,3.15-3a2.26,2.26,0,0,1,1.49,1A3.7,3.7,0,0,1,322.1,20.23Z"/><path class="cls-4" d="M239.47,20.33V15.09c0-.32-.11-.67.47-.67s.46.35.46.67c0,2,0,4.05,0,6.07,0,.24.23.68-.24.71s-.89.22-1.23-.34c-1-1.75-2.16-3.47-3.25-5.2a1.17,1.17,0,0,0-.46-.45v2.28c0,1,0,2,0,3,0,.32.18.74-.46.76s-.49-.46-.49-.79c0-2,0-3.95,0-5.92,0-.25-.21-.7.2-.73s1-.27,1.36.35c.77,1.3,1.6,2.56,2.4,3.84.37.57.73,1.14,1.09,1.71Z"/><path class="cls-4" d="M331.48,19.79v.51c0,1.35,0,1.36-1.33,1.56a6.91,6.91,0,0,1-2.4,0,3.48,3.48,0,0,1-3-3.73A3.72,3.72,0,0,1,328,14.45a6.4,6.4,0,0,1,2.82.11c.27.07.43.13.31.48s-.19.42-.56.31a4.63,4.63,0,0,0-2.45-.06,2.78,2.78,0,0,0-2.26,2.9,2.75,2.75,0,0,0,2.36,2.88,3.25,3.25,0,0,0,.43.08c1.65.15,2.24-.58,1.77-2.17-.11-.41-.43-.19-.65-.27s-.95.34-1-.35.66-.37,1-.38C331.48,17.93,331.48,18,331.48,19.79Z"/><path class="cls-4" d="M293.38,18.17c0,.95,0,1.9,0,2.85,0,.36.25.9-.54.88s-.47-.58-.49-.92a18.57,18.57,0,0,1,0-2.11c0-.39-.11-.5-.49-.49-1,0-2,0-3,0-.38,0-.51.09-.5.48,0,.83,0,1.66,0,2.49,0,.4-.09.56-.52.55s-.57-.07-.57-.52c0-2.16,0-4.33,0-6.49,0-.52.29-.43.6-.46s.5.13.49.5c0,.71,0,1.41,0,2.12,0,.38.11.5.49.49q1.5,0,3,0c.37,0,.51-.1.49-.49,0-.73,0-1.46,0-2.19,0-.48.25-.41.55-.43s.54,0,.52.45C293.37,16,293.38,17.07,293.38,18.17Z"/><path class="cls-4" d="M189.27,18.33c1.2-.59,1.59-1.24,1.43-2.25a2,2,0,0,0-2-1.61,11.43,11.43,0,0,0-2.41,0c-.43,0-.59.2-.59.67,0,2.05,0,4.09,0,6.14,0,.35-.05.63.49.63s.58-.25.56-.65,0-.93,0-1.39c0-1.27.35-1.5,1.6-1.11a1.39,1.39,0,0,1,.93.95c.13.41.25.84.36,1.26.27,1,.27,1,1.36.82C190.42,20.67,190.65,19.16,189.27,18.33Zm-.84-.43c-1.45.34-1.68.15-1.68-1.35s.18-1.6,1.63-1.35c.84.15,1.28.6,1.29,1.32A1.38,1.38,0,0,1,188.43,17.9Z"/><path class="cls-4" d="M184.55,21.31c-.79-2.13-1.6-4.27-2.39-6.4-.13-.36-.3-.54-.68-.46s-.72-.18-.91.35c-.85,2.35-1.74,4.68-2.68,7.16.54-.18,1.07.22,1.29-.5s.25-1.53.78-1.81,1.37-.08,2.07-.09a1.55,1.55,0,0,0,.22,0c.43-.07.61.14.72.52a13.86,13.86,0,0,0,.58,1.56c.22.5.7.29,1,.22S184.61,21.49,184.55,21.31Zm-2.49-2.49c-2,.07-2,.09-1.36-1.77l.63-1.75c.41,1.16.71,2.09,1.07,3C182.55,18.71,182.48,18.8,182.06,18.82Z"/><path class="cls-4" d="M274.52,18.16c0-1.05,0-2.09,0-3.14,0-.42.06-.61.55-.6,1.14,0,2.28,0,3.43,0,.28,0,.52,0,.51.41s-.28.38-.54.38c-.78,0-1.56,0-2.34,0-.37,0-.5.1-.52.49-.09,1.9-.1,1.9,1.8,1.9h.88c.31,0,.5,0,.5.42s-.21.37-.48.37c-.7,0-1.41,0-2.11,0-.43,0-.63.07-.59.55.06.67-.21,1.55.12,2s1.28.1,1.95.15a8.68,8.68,0,0,0,1,0c.33,0,.48.07.48.44s-.17.39-.45.39c-1.24,0-2.49,0-3.73,0-.41,0-.49-.15-.48-.51C274.54,20.3,274.52,19.23,274.52,18.16Z"/><path class="cls-4" d="M203.4,18.32c0-1.07,0-2.15,0-3.22,0-.39.07-.55.51-.54,1.14,0,2.29,0,3.43,0,.31,0,.5,0,.49.41s-.21.37-.47.37c-.8,0-1.61,0-2.41,0-.38,0-.49.13-.5.5-.07,1.87-.09,1.87,1.77,1.87.34,0,.68,0,1,0s.41.12.41.43-.15.4-.44.39c-.75,0-1.51,0-2.26,0-.39,0-.53.12-.5.5.06.7-.28,1.59.14,2s1.29.09,2,.13h1c.29,0,.46,0,.46.39s-.15.44-.48.44c-1.22,0-2.44,0-3.66,0-.38,0-.5-.1-.49-.49C203.42,20.46,203.4,19.39,203.4,18.32Z"/><path class="cls-4" d="M230.5,21.89c-.61,0-1.22,0-1.83,0-.32,0-.42-.11-.42-.42q0-3.33,0-6.66c0-.27.08-.39.37-.38,1.22,0,2.44,0,3.66,0,.32,0,.4.12.4.43s-.18.38-.46.38c-.8,0-1.61,0-2.41,0-.36,0-.5.09-.51.49-.08,1.88-.09,1.88,1.82,1.88h1c.29,0,.37.13.37.4s-.07.4-.37.39c-.78,0-1.56,0-2.34,0-.37,0-.53.08-.5.48,0,.7-.21,1.59.13,2.06s1.27.1,1.95.14a8.68,8.68,0,0,0,1,0c.34,0,.47.11.47.46s-.21.38-.47.37C231.76,21.88,231.13,21.89,230.5,21.89Z"/><path class="cls-4" d="M249.27,18.12c0-1.05,0-2.1,0-3.15,0-.39.09-.55.52-.54,1.15,0,2.29,0,3.44,0,.28,0,.51,0,.51.39s-.23.41-.52.41c-.8,0-1.61,0-2.41,0-.35,0-.45.11-.47.46-.1,1.91-.11,1.91,1.78,1.91H253c.27,0,.53,0,.54.39s-.23.4-.51.4c-.73,0-1.46,0-2.19,0-.39,0-.52.1-.49.49,0,.7-.22,1.59.13,2.05s1.27.1,1.94.14a8.68,8.68,0,0,0,1,0c.36,0,.46.12.46.46s-.2.37-.47.37c-1.21,0-2.43,0-3.65,0-.46,0-.51-.19-.5-.57C249.28,20.26,249.27,19.19,249.27,18.12Z"/><path class="cls-4" d="M214.09,22a8.22,8.22,0,0,1-1.73-.29c-.33-.11-.45-.27-.32-.64s.34-.29.6-.18a3.36,3.36,0,0,0,1.93.24,1.24,1.24,0,0,0,1.18-1,1.18,1.18,0,0,0-.76-1.35c-.48-.23-1-.4-1.47-.63-1-.48-1.52-1.16-1.44-2A2.12,2.12,0,0,1,214,14.41a4.47,4.47,0,0,1,2.09.09c.29.07.49.17.35.55s-.25.39-.57.26a2.82,2.82,0,0,0-1.65-.14,1.09,1.09,0,0,0-1,.85,1,1,0,0,0,.6,1.2c.5.25,1,.44,1.54.67,1.14.52,1.64,1.28,1.5,2.23a2.22,2.22,0,0,1-2,1.8C214.54,22,214.28,22,214.09,22Z"/><path class="cls-4" d="M284.15,14.28c.44.06.87.1,1.3.19.23,0,.57,0,.45.48s-.27.44-.63.33a4.1,4.1,0,0,0-2.17,0c-1.54.36-2.33,1.62-2.18,3.4a2.75,2.75,0,0,0,2.66,2.53,4.62,4.62,0,0,0,1.81-.17c.26-.08.42-.08.47.22s.13.4-.17.54a5.31,5.31,0,0,1-4.83-.8,4,4,0,0,1-.74-4.4A4.19,4.19,0,0,1,284.15,14.28Z"/><path class="cls-4" d="M246,21.18a3.75,3.75,0,0,0,1.3-.18c.3-.09.45-.05.51.27s0,.44-.32.52a5.57,5.57,0,0,1-4.05-.35,3.63,3.63,0,0,1-1.7-3.76,3.72,3.72,0,0,1,3-3.21,5.92,5.92,0,0,1,2.68,0c.23,0,.57,0,.45.48s-.25.49-.61.34a3.51,3.51,0,0,0-1.44-.14,3,3,0,0,0-2.57,4.64A2.94,2.94,0,0,0,246,21.18Z"/><path class="cls-4" d="M221.92,21.17a3.18,3.18,0,0,0,1.23-.17c.29-.09.41-.06.51.26s0,.44-.28.52a5.63,5.63,0,0,1-3.92-.26,3.57,3.57,0,0,1-1.86-3.93,3.72,3.72,0,0,1,3-3.13,5.87,5.87,0,0,1,2.67,0c.22,0,.59,0,.45.47s-.28.45-.64.34a4.12,4.12,0,0,0-2.23,0,2.86,2.86,0,0,0-2.1,3.43C219,20.31,220,21.18,221.92,21.17Z"/><path class="cls-4" d="M332.09,14.51a1.24,1.24,0,0,1,1.68.73c.47.93,1.07,1.8,1.67,2.77.59-1,1.22-1.87,1.71-2.84a1.22,1.22,0,0,1,1.64-.66c-.71,1.13-1.36,2.26-2.11,3.33a3.6,3.6,0,0,0-.73,2.58c0,.34,0,.68,0,1s-.22.44-.54.45-.6,0-.52-.46c.38-2-.53-3.51-1.61-5C332.86,15.81,332.49,15.16,332.09,14.51Z"/><path class="cls-4" d="M269.81,18.56c0-.93,0-1.85,0-2.77,0-.4-.09-.57-.52-.54s-1,0-1.53,0c-.35,0-.45-.12-.46-.46s.21-.37.47-.37H273c.31,0,.42.09.42.41s-.14.43-.44.42c-.49,0-1,0-1.46,0s-.62.13-.62.61c0,1.8,0,3.6,0,5.4,0,.43-.05.65-.58.65s-.49-.31-.48-.65Z"/><path class="cls-4" d="M311.6,18.17c0-1.05,0-2.09,0-3.14,0-.39,0-.62.53-.61s.56.15.55.58c0,1.78,0,3.56,0,5.34,0,.64.19.78.78.74.75-.06,1.51,0,2.26,0,.31,0,.49,0,.5.43s-.23.4-.52.4c-1.19,0-2.39,0-3.58,0-.39,0-.5-.13-.49-.5C311.61,20.31,311.6,19.24,311.6,18.17Z"/><path class="cls-4" d="M193.59,18.17c0,1.07,0,2.14,0,3.21,0,.4-.09.55-.52.55s-.6-.07-.59-.56c0-2.11,0-4.22,0-6.33,0-.43.1-.6.56-.6s.56.18.55.6C193.57,16.08,193.59,17.13,193.59,18.17Z"/><path class="cls-4" d="M226.4,18.17c0,1.07,0,2.14,0,3.21,0,.44-.16.52-.55.52s-.53-.13-.52-.54c0-2.14,0-4.28,0-6.42,0-.44.16-.51.55-.51s.54.11.53.53C226.38,16,226.4,17.1,226.4,18.17Z"/><path class="cls-5" d="M177.85,31.5c0-.28-.08-.35-.35-.35q-2.37,0-4.74,0c-.27,0-.36.06-.36.34,0,1.89,0,3.79,0,5.67,0,.53.16.69.68.69h4c.56,0,.73-.18.73-.74V34.33C177.84,33.39,177.83,32.44,177.85,31.5Zm-2.73,5.68c-.72,0-.88,0-.88-.74v-2c0-.74.17-1.49.15-2.24,0-.29.14-.38.45-.38.77,0,.81,0,.81.78,0,1.38-.07,2.76-.06,4.13C175.6,37.08,175.46,37.19,175.12,37.18Z"/><path class="cls-5" d="M177.72,39.55,172.65,41c-.19,0-.25,0-.25-.2,0-.49,0-1,0-1.48,0-.23.1-.27.3-.27.83,0,1.66,0,2.49,0h2.45c.11,0,.28-.07.28.14S178,39.48,177.72,39.55Z"/><path class="cls-5" d="M186.59,26.6c0-.38-.58-.45-.94-.45H168.24V42.67c0,.36,1.12.44,1.55.44h15.44c.88,0,1.23-.24,1.23-1.14C186.46,36.84,186.57,31.73,186.59,26.6Zm-2.35,14.33c0,.08,0,.16,0,.3a4.32,4.32,0,0,1-.86-1A16.71,16.71,0,0,1,182,37.52a.59.59,0,0,1,.06-.55,14.48,14.48,0,0,0,1.48-5.51c0-.34,0-.49-.42-.45a9.29,9.29,0,0,1-1.18,0c-.28,0-.35.08-.37.35a20.51,20.51,0,0,1-.46,3.11,13.63,13.63,0,0,1-.44-2.26c-.09-.54-.12-1.09-.19-1.64,0-.27.05-.34.31-.33.79,0,1.58,0,2.37,0,.32,0,.41-.07.4-.39,0-.7,0-.7-.69-.7s-1.41,0-2.11,0c-.31,0-.39-.09-.37-.38s.1-.74-.07-.93-.63-.05-1-.08H179c-.89,0-.9,0-.78.91.05.38,0,.49-.44.49-1.67,0-3.33,0-5,0-.32,0-.4.1-.39.4,0,.69,0,.69.69.69,1.62,0,3.24,0,4.86,0,.29,0,.43.05.46.37A21.42,21.42,0,0,0,180.09,37a.46.46,0,0,1,0,.44,8,8,0,0,1-3.61,3.78c-.1.06-.29.09-.23.24s.24,0,.35,0a7.84,7.84,0,0,0,4.15-2.54c.22-.27.3-.25.49,0A7.12,7.12,0,0,0,184,41.44a.37.37,0,0,1,.21.45c0,.22-.23.12-.34.12H172c-.29,0-.37-.09-.37-.38q0-7,0-14c0-.22,0-.35.3-.35H181l.16,0c-.16.66-.07,1,.32,1.31a1,1,0,0,0,1.11,0c.39-.26.5-.66.32-1.33.38,0,.75,0,1.12,0,.18,0,.26.07.24.22s0,.09,0,.13Z"/><path class="cls-5" d="M224,35.91c-.06-.21-.36-.1-.53-.09-.37,0-.41-.12-.41-.43,0-1.74,0-3.49,0-5.24,0-.29-.07-.38-.36-.38-1.88,0-3.76,0-5.63,0s-3.75,0-5.62,0c-.33,0-.4.09-.4.41,0,1.67,0,3.35,0,5,0,.6,0,.6-.59.61-.12,0-.32-.06-.34.07a2.37,2.37,0,0,0,0,.92c.06.22.36.11.53.09.36,0,.4.12.4.43,0,1.3-.06,2.59,0,3.89A1.85,1.85,0,0,0,213,43.08a5.72,5.72,0,0,0,.59,0h7a2.18,2.18,0,0,0,2.48-2.46c0-1.08,0-2.17,0-3.26,0-.38.09-.53.48-.48.15,0,.42.1.46-.07A2,2,0,0,0,224,35.91Zm-8.13,3.58c0,.74,0,1.47,0,2.2,0,.26-.07.34-.34.33-.59,0-1.18,0-1.77,0-.24,0-.31-.07-.3-.31V37.19c0-.23.06-.29.28-.29.61,0,1.22,0,1.82,0,.24,0,.31.07.31.31C215.85,38,215.86,38.73,215.86,39.49Zm0-4c0,.24-.06.32-.31.31-.57,0-1.15,0-1.73,0-.29,0-.39-.06-.38-.36,0-.71,0-1.41,0-2.12s0-1.44,0-2.15c0-.25,0-.35.32-.34.59,0,1.18,0,1.77,0,.24,0,.32.06.32.31Q215.84,33.34,215.87,35.51Zm4.81,6.22c0,.22-.05.3-.28.29q-.93,0-1.86,0c-.23,0-.29-.08-.28-.29,0-.77,0-1.52,0-2.28s0-1.49,0-2.24c0-.24.07-.31.3-.31.61,0,1.21,0,1.82,0,.25,0,.3.08.3.31C220.67,38.72,220.67,40.23,220.68,41.73Zm0-6.17c0,.2-.06.26-.27.26-.61,0-1.23,0-1.85,0-.25,0-.31-.08-.3-.31,0-.72,0-1.44,0-2.15s0-1.47,0-2.2c0-.24.07-.32.31-.31h1.81c.22,0,.3,0,.3.28C220.67,32.6,220.67,34.08,220.68,35.56Z"/><path class="cls-5" d="M299.74,38.18c-.06-.19-.35-.07-.54-.08-.73,0-.73,0-.73-.55s0-.64.64-.64h.3c.28,0,.38-.06.38-.36,0-2.22,0-4.43,0-6.64,0-.34-.11-.4-.41-.39-1.22,0-2.43,0-3.64,0-.43,0-.4-.21-.4-.49s0-.46.39-.45c1.24,0,2.48,0,3.73,0,.24,0,.32-.06.25-.31-.14-.48-.28-1-.39-1.47,0-.19-.12-.25-.31-.24-.65,0-1.3,0-1.94,0-.2,0-.26.52-.21.7a9.86,9.86,0,0,0,.18,1.14h-.84c-.86,0-.87-.46-.84-1.31,0-.39-.07-.79-.49-.74s-.65-.11-1-.1-.77-.21-1,0-.07.58-.05.9-.07.35-.35.35c-1.13,0-2.26,0-3.39,0-.7,0-.68,0-.7.71,0,.34.12.39.41.39,1.22,0,2.43,0,3.64,0,.39,0,.39.16.39.45s0,.5-.4.49c-1.22,0-2.45,0-3.68,0-.22,0-.36,0-.35.31,0,2.26,0,4.54,0,6.81,0,.18,0,.28.25.27h2c.21,0,.26-.07.26-.26,0-.43,0-.85,0-1.27s.09-.34.34-.33a6.73,6.73,0,0,0,1.1,0c.41,0,.55.08.51.5s-.16,1,.05,1.27.85.08,1.3.09.84.16,1.06-.07.06-.69.06-1.05c0-.73,0-.74.74-.73.39,0,.91-.17,1.13.08s.06.73.06,1.1c0,.67,0,.67-.65.67s-.77,0-.75.78c0,.32-.08.42-.41.42-2.22,0-4.43,0-6.65,0-.29,0-.42.07-.37.37a1.5,1.5,0,0,1,0,.3c-.05.35.08.44.44.44,1.89,0,3.78,0,5.67,0,.42,0,1-.14,1.21.07s.09.88.05,1.34a3.89,3.89,0,0,1-.94,2.56c-.08.09-.26.15-.2.29s.26.06.39,0a3.94,3.94,0,0,0,3.31-3.28c.05-.33,0-.77.17-1s.64,0,1-.06c.1,0,.24,0,.25-.09A2.57,2.57,0,0,0,299.74,38.18Zm-7.31-4a3.37,3.37,0,0,0-.55,0c-.3,0-.76.13-.88-.07s-.06-.75-.07-1.16c0-.17.13-.11.24-.11h.72c1,0,1,0,1,1C292.88,34.16,292.78,34.25,292.43,34.2Zm-.52-2.29c-1,0-1,0-1-1,0-.21.05-.3.28-.29.46,0,.92,0,1.39,0,.19,0,.29.06.26.26v0C292.9,31.91,292.9,31.91,291.91,31.91Zm5.36,1.33c0,1,0,1-1,1s-.94,0-1-1c0-.41.12-.5.49-.48a11.61,11.61,0,0,0,1.18,0c.21,0,.29.06.27.26A1.55,1.55,0,0,0,297.27,33.24Zm0-1.69c0,.13.11.43-.22.41s-.47,0-.71,0h-.08c-1,0-1.05-.15-.91-1.14,0-.17.1-.23.25-.23a7.21,7.21,0,0,1,1.47,0C297.56,30.76,297.16,31.24,297.26,31.55Z"/><path class="cls-5" d="M308.5,43.49A9.73,9.73,0,0,0,310,40.78,23.43,23.43,0,0,0,311.4,35a38.91,38.91,0,0,0,.26-5.4c0-.16.1-.38-.22-.39s-.4.07-.43.36a5.82,5.82,0,0,1-1.14,3,3.65,3.65,0,0,1-1.28,1.09.67.67,0,0,1-.57.1c1.1-2.24.94-4.65,1-7,0-.44.12-.55.54-.51a10.76,10.76,0,0,0,1.27,0c.25,0,.31.08.3.31,0,.41,0,.82,0,1.23s.08.4.4.4h7.15c.65,0,.65,0,.65.63v7.83a9,9,0,0,1-.85,4.1,5.26,5.26,0,0,1-3.4,2.83c-.1,0-.22.08-.28,0s0-.18.09-.24a7.28,7.28,0,0,0,1.81-3.93,14.31,14.31,0,0,0,.25-2.78q0-3.47,0-6.94c0-.26,0-.44-.37-.43s-.46.07-.46.44a28.4,28.4,0,0,1-1,8.15,12.41,12.41,0,0,1-2.44,4.78,5.85,5.85,0,0,1-.92.87.5.5,0,0,1-.51.11c2-2.76,2.57-6,2.94-9.26.18-1.55.19-3.1.22-4.65,0-.42-.18-.43-.5-.44s-.41.12-.41.43a28,28,0,0,1-1.19,8.63,11.31,11.31,0,0,1-2.6,4.64,8.27,8.27,0,0,1-.63.55A.44.44,0,0,1,308.5,43.49Z"/><path class="cls-5" d="M232,37.93h2.37c.23,0,.31,0,.31-.3,0-1.11,0-2.23,0-3.34,0-.3-.11-.34-.37-.34-1.29,0-2.59,0-3.89,0-.31,0-.44-.05-.43-.4,0-.7,0-.7.69-.7h3.64c.27,0,.36-.06.36-.35,0-1.08,0-2.17,0-3.25,0-.3-.08-.38-.38-.38-1.39,0-2.79,0-4.19,0-.34,0-.49-.08-.44-.44a1.21,1.21,0,0,0,0-.38c0-.21.08-.26.28-.26s.62,0,.93,0,.33-.07.24-.34-.16-.71-.26-1.06c-.05-.2,0-.28.22-.27.64,0,1.29,0,1.94,0,.2,0,.27.06.3.25.07.39.19.77.27,1.15,0,.2.13.27.34.27H238c.21,0,.32,0,.35-.27s.1-.41.14-.61c.19-.79.19-.79,1-.79.46,0,.93,0,1.4,0,.22,0,.26.05.2.26s-.16.68-.25,1-.06.43.29.39.56,0,.84,0,.3,0,.31.27c0,.81,0,.81-.78.81h-3.85c-.3,0-.39.07-.38.37,0,1.09,0,2.17,0,3.26,0,.28.08.35.35.35,1.31,0,2.62,0,3.94,0,.32,0,.4.1.39.41,0,.69,0,.69-.68.69h-3.64c-.3,0-.37.09-.36.38,0,1.08,0,2.17,0,3.25,0,.28.07.35.35.35h4.57c.32,0,.43.06.42.41,0,.69,0,.69-.68.69-1.44,0-2.88,0-4.32,0-.28,0-.35.09-.34.36,0,.77,0,1.55,0,2.32a1.63,1.63,0,0,1-1.74,1.84c-.87,0-.87,0-.87-.84,0-1.07,0-2.14,0-3.21,0-.35,0-.48-.45-.47-1.48,0-3,0-4.44,0-.34,0-.5-.07-.44-.44a1,1,0,0,0,0-.25c-.05-.33.06-.44.4-.42C230.48,38,231.23,37.93,232,37.93Z"/><path class="cls-5" d="M281,43.16a9.25,9.25,0,0,1-4.31-2.85c-.2-.21-.19-.32,0-.53A12.83,12.83,0,0,0,280,32.54c0-.3,0-.36-.31-.35-1,0-2,0-3,0-.26,0-.37-.05-.35-.34,0-.55,0-1.11,0-1.65,0-.27.07-.33.33-.33.83,0,1.66,0,2.49,0s.72,0,.73-.74c0-.32-.12-.37-.4-.36-.93,0-1.86,0-2.79,0-.3,0-.37-.09-.36-.38,0-.64,0-1.29,0-1.94,0-.27-.08-.33-.33-.32-.54,0-1.08,0-1.61,0-.27,0-.37.06-.36.34,0,.65,0,1.3,0,1.95,0,.26-.06.36-.35.35-.83,0-1.66,0-2.49,0s-.69,0-.72.71c0,.32.09.39.41.38.94,0,1.88,0,2.83,0,.23,0,.32,0,.32.3,0,.57,0,1.15,0,1.73,0,.23-.07.29-.28.28h-1.57c-.52,0-1,0-1.56,0-.25,0-.3.06-.27.31a12.85,12.85,0,0,0,3.39,7.31c.17.18.19.28,0,.47a14.86,14.86,0,0,1-1.65,1.52,7.68,7.68,0,0,1-2.69,1.36c-.15,0-.24.09-.21.25s.17.1.27.1a1.07,1.07,0,0,0,.25,0,11.68,11.68,0,0,0,4.39-1.64c.36-.23.71-.65,1.06-.65s.7.43,1.06.65a11.64,11.64,0,0,0,4.61,1.67c.1,0,.26.11.3-.1S281.12,43.2,281,43.16Zm-5.76-4.79a14.54,14.54,0,0,1-1.89-4.81c0-.19,0-.29.22-.28h3.34c.23,0,.25.08.21.27A14.28,14.28,0,0,1,275.22,38.37Z"/><path class="cls-5" d="M338.13,37.65c-1.56,0-3.13,0-4.69,0-.79,0-.77,0-.79-.8,0-.37.11-.43.45-.43,1.38,0,2.76,0,4.15,0,.74,0,1-.22,1-1,0-1.28,0-2.57,0-3.85,0-.3-.1-.37-.38-.37-2.43,0-4.85,0-7.28,0-.32,0-.41.08-.4.39,0,1.85,0,3.7,0,5.55s0,3.67,0,5.5c0,.68.16.85.81.85h6.6c.67,0,.91-.27.91-.94,0-1.52,0-3,0-4.57C338.51,37.74,338.44,37.65,338.13,37.65Zm-5.48-5.39c0-.2.08-.26.27-.26.83,0,1.67,0,2.5,0,.27,0,.3.11.29.32,0,.51,0,1,0,1.53s0,1,0,1.56c0,.23-.07.29-.29.29-.83,0-1.67,0-2.5,0-.19,0-.27-.06-.27-.26Q332.67,33.85,332.65,32.26ZM336,40.59c0,.63,0,1.27,0,1.9,0,.24-.08.32-.32.32-.91,0-1.83,0-2.74,0-.23,0-.29-.08-.29-.29,0-1.28,0-2.56,0-3.85,0-.2.07-.26.27-.26h2.79c.22,0,.29.07.29.29C336,39.32,336,40,336,40.59Z"/><path class="cls-5" d="M197.72,42h6.66c.26,0,.37,0,.37.34,0,.75,0,.75-.76.75h-15.1c-.15,0-.4.1-.44-.11a1.8,1.8,0,0,1,0-.92c0-.11.23,0,.35,0h6.56c0-.05,0-.09,0-.1a15.4,15.4,0,0,1-3.75-7.08,27.23,27.23,0,0,1-.76-4.28c0-.3,0-.43.37-.41a20.42,20.42,0,0,0,2.07,0c.4,0,.45.13.44.48a30.69,30.69,0,0,0,1,8.79,23.46,23.46,0,0,0,.79,2.32c.08.21.19.33.43.29a1.47,1.47,0,0,1,.21,0c.42,0,.93.12,1.24-.07s.39-.78.54-1.21a27.23,27.23,0,0,0,1.36-7,29.56,29.56,0,0,0,.07-3.26c0-.28.08-.36.35-.35.75,0,1.5,0,2.25,0,.2,0,.32,0,.29.27-.39,3.73-1.25,7.3-3.54,10.38C198.46,41.21,198.11,41.57,197.72,42Z"/><path class="cls-5" d="M328.53,31.25h-2c-.22,0-.3-.06-.28-.29s0-.59,0-.88,0-.43-.38-.41a13.64,13.64,0,0,1-1.43,0c-.29,0-.42.06-.39.37s0,.62,0,.93-.07.28-.29.28c-.62,0-1.24,0-1.86,0-.37,0-.47.07-.47.46q0,5.37,0,10.74a1.9,1.9,0,0,0,0,.34.75.75,0,0,0,.77.74h3.89c-.37-1.07-.37-1.07-1.4-1.07h-.47c-.3,0-.42-.06-.41-.38,0-.93,0-1.87,0-2.8,0-.35.12-.41.44-.41,1.29,0,2.59,0,3.89,0,.55,0,.72-.17.72-.7,0-2.2,0-4.4,0-6.6C328.87,31.31,328.78,31.24,328.53,31.25Zm-2,6.33c0,.19-.09.23-.26.23h-2.11c-.22,0-.3-.07-.29-.3,0-.54,0-1.09,0-1.64,0-.19.06-.25.24-.25.73,0,1.47,0,2.2,0,.17,0,.22.06.22.22Q326.47,36.71,326.48,37.58Zm0-3.92c0,.87,0,.87-.87.87-.49,0-1,0-1.48,0-.24,0-.31-.08-.3-.31,0-.54,0-1.08,0-1.61,0-.23-.38-.29-.17-.28h.59v0s1.46-.17,1.69,0A2,2,0,0,1,326.47,33.66Z"/><path class="cls-5" d="M301.28,33.74a9.42,9.42,0,0,0,1-4.31c.06-1,0-1.94,0-2.91,0-.27.06-.38.35-.36q.72,0,1.44,0c.27,0,.32.09.32.33,0,.64,0,1.27,0,1.91,0,.36.18.3.39.3s.41.05.39-.3c0-.62,0-1.24,0-1.86,0-.29.05-.4.36-.39a14.61,14.61,0,0,0,1.48,0c.27,0,.36.06.35.35,0,.63,0,1.27,0,1.9,0,.25.08.34.31.3h.13c.8,0,.79,0,.76.82,0,.23-.09.3-.3.27h0c-.85,0-.85,0-.85.89v5.64a5.9,5.9,0,0,0,1.31-.54.5.5,0,0,1-.09.54,3.44,3.44,0,0,1-.81.85.9.9,0,0,0-.42.88c0,1.19,0,2.39,0,3.59a1.69,1.69,0,0,1-1.87,1.9c-.27,0-.32-.09-.32-.33,0-1.4,0-2.8,0-4.19v-.49a12.14,12.14,0,0,1-2.71.39c-.29,0-.4-.07-.38-.37s0-.88,0-1.31.09-.35.36-.35l2.32-.09c.3,0,.43-.09.42-.44,0-2.06,0-4.12,0-6.18,0-.14.13-.42-.2-.38s-.65-.21-.74.34a4.93,4.93,0,0,1-1.55,2.93A2,2,0,0,1,301.28,33.74Z"/><path class="cls-5" d="M257.58,31.73c0-1.73,0-3.47,0-5.2,0-.29.07-.39.37-.38a16.49,16.49,0,0,0,1.86,0c.37,0,.4.13.4.43,0,2.09,0,4.18,0,6.26,0,1.39,0,2.77,0,4.15,0,.3.05.47.38.4h.05c.84,0,.84,0,.77.85,0,.15,0,.25-.21.23h-.13c-.85,0-.85,0-.85.89v2.25a1.68,1.68,0,0,1-1.87,1.93c-.75,0-.75,0-.75-.71,0-1.3,0-2.6,0-3.9,0-.4-.12-.47-.49-.47-1.34,0-2.68,0-4,0-.35,0-.51-.08-.44-.44a.74.74,0,0,0,0-.21c-.06-.34.06-.45.42-.45,1.37,0,2.74,0,4.11,0,.33,0,.42-.08.42-.42C257.57,35.23,257.58,33.48,257.58,31.73Z"/><path class="cls-5" d="M267.66,34.53a8.61,8.61,0,0,0,2.22-.79c.09.33.09.33-.12.59a5.06,5.06,0,0,1-1.72,1.4.63.63,0,0,0-.39.69,10.61,10.61,0,0,1-.42,3.84,5.18,5.18,0,0,1-2.68,3.12.89.89,0,0,1-.68.12,8.25,8.25,0,0,0,1.4-4.35,17.11,17.11,0,0,0,.11-2.15c0-.24,0-.35-.32-.29a8.63,8.63,0,0,1-1.69.13c-.24,0-.36,0-.34-.31s0-.85,0-1.27c0-.22.08-.29.29-.29a17.54,17.54,0,0,0,1.78-.06c.22,0,.28-.09.28-.3,0-1.48,0-3,0-4.45,0-.22-.07-.28-.29-.28-.58,0-1.16,0-1.74,0-.21,0-.32,0-.32-.29,0-.81,0-.81.79-.81.41,0,.82,0,1.23,0,.25,0,.34-.05.33-.32,0-.68,0-1.36,0-2,0-.22.05-.3.28-.29.58,0,1.16,0,1.73,0,.24,0,.28.07.28.29,0,.66,0,1.32,0,2,0,.31.09.38.38.37.53,0,1.07,0,1.61,0,.26,0,.36.06.36.35,0,.75,0,.75-.75.75H267.9c-.19,0-.25.06-.25.25C267.66,31.58,267.66,33,267.66,34.53Z"/><path class="cls-5" d="M247.07,37.46c0-1.9,0-3.8,0-5.71,0-.29-.08-.38-.37-.37-.57,0-1.13,0-1.7,0-.22,0-.28-.07-.29-.29,0-.8,0-.8.75-.8.43,0,.87,0,1.31,0,.2,0,.3,0,.3-.27,0-.66,0-1.33,0-2,0-.21-.06-.26-.27-.23-.57.08-1.15.13-1.72.21-.26,0-.37,0-.37-.32,0-.78,0-.77.76-.86,2-.21,3.92-.42,5.88-.65.24,0,.34,0,.33.26,0,1,.18.79-.8.91-.44.05-.87.11-1.3.14-.19,0-.24.09-.24.26,0,.76,0,1.53,0,2.29,0,.21.09.25.28.25.59,0,1.18,0,1.77,0,.23,0,.28.07.29.29,0,.81,0,.81-.79.81-.4,0-.79,0-1.18,0s-.37.09-.37.38q0,4.9,0,9.81a2.62,2.62,0,0,1-.17,1,1.87,1.87,0,0,1-2,.93c-.26,0-.15-.24-.15-.37C247.07,41.27,247.07,39.37,247.07,37.46Z"/><path class="cls-5" d="M283.63,37.84V32.73c0-.62,0-.62-.63-.62-.27,0-.54,0-.81,0s-.23-.06-.24-.25c-.06-.84-.06-.84.78-.84s.9,0,.9-.9c0-1.2,0-2.4,0-3.59,0-.28,0-.4.35-.39a15.88,15.88,0,0,0,1.69,0c.29,0,.35.08.35.35,0,1.39,0,2.77,0,4.15,0,.33.09.42.4.39a5.74,5.74,0,0,1,.72,0c.64,0,.56-.07.56.56s.09.52-.65.52c-1,0-1,0-1,1V41.5c0,1.45-.58,2-2,2-.3,0-.38-.08-.37-.38C283.64,41.4,283.63,39.62,283.63,37.84Z"/><path class="cls-5" d="M334,27.91c-.56,0-1.13,0-1.69,0-.22,0-.3.06-.29.28,0,.51,0,1,0,1.52,0,.29-.09.36-.36.35-.52,0-1,0-1.56,0s-.59-.11-.59-.56c0-.79,0-1.58,0-2.37,0-.25.09-.3.32-.3h2.36c.27,0,.44,0,.39-.35s.08-.33.33-.32c.66,0,1.32,0,2,0,.25,0,.34.08.3.32s.08.37.37.36h2.62c.23,0,.31.06.31.3,0,.8,0,1.61,0,2.41,0,.35-.16.52-.51.52h-1.74c-.2,0-.27-.06-.26-.27,0-.5,0-1,0-1.52,0-.31-.1-.38-.38-.37C335.08,27.93,334.55,27.91,334,27.91Z"/><path class="cls-5" d="M197.68,27.83c2.15,0,4.27,0,6.38,0,.37,0,.52.08.46.46a1.6,1.6,0,0,0,0,.38c0,.18,0,.26-.24.24H189.14c-.38,0-.51-.08-.49-.47,0-.6,0-.6.61-.6h6.25a1.56,1.56,0,0,1-.15-1.24,1.39,1.39,0,0,1,.52-.65,1.28,1.28,0,0,1,1.5.06C197.9,26.41,198,26.93,197.68,27.83Z"/><path class="cls-5" d="M205.69,43.07A4.91,4.91,0,0,0,207,39.62a56.21,56.21,0,0,0,.09-5.66c0-.31.06-.45.41-.43.55,0,1.1,0,1.65,0,.17,0,.3,0,.29.24a38.51,38.51,0,0,1-.16,5.48A4.39,4.39,0,0,1,206.24,43,.85.85,0,0,1,205.69,43.07Z"/><path class="cls-5" d="M225,43.53a4.49,4.49,0,0,0,1.34-3.13,45.39,45.39,0,0,0,.15-5.95c0-.4.11-.5.49-.47s1,0,1.56,0c.2,0,.28.05.27.26a44.91,44.91,0,0,1-.1,5.19,4.49,4.49,0,0,1-3.07,4,1.65,1.65,0,0,1-.32.07A1.5,1.5,0,0,1,225,43.53Z"/><path class="cls-5" d="M217.05,28.67h-6.14c-.3,0-.42,0-.32-.38.17-.61.3-1.23.43-1.85,0-.22.14-.3.36-.29.64,0,1.27,0,1.91,0,.22,0,.28.06.2.26a.42.42,0,0,0,0,.12c-.06.34-.33.76-.15,1s.63,0,1,0c3,0,5.92,0,8.89,0,.36,0,.53.07.46.45a.53.53,0,0,0,0,.25c.05.33-.1.4-.4.4Z"/><path class="cls-5" d="M329.63,30.46a1.38,1.38,0,0,1-.85-.12,9.44,9.44,0,0,1-3.4-2.14c-.2-.2-.3-.19-.5,0a9.42,9.42,0,0,1-3.48,2.17,3,3,0,0,1-.4.12,2.8,2.8,0,0,1-.29,0c0-.08,0-.11,0-.15a11.94,11.94,0,0,0,2.89-3.86.5.5,0,0,1,.54-.33c.66,0,1.32,0,2,0,.15,0,.29,0,.38.17A12.39,12.39,0,0,0,329.63,30.46Z"/><path class="cls-5" d="M243.19,42.57a4.8,4.8,0,0,0,1.43-3.46,53.64,53.64,0,0,0,.1-5.67c0-.36.08-.48.46-.47,1,0,1,0,1,1.06,0,1.45.08,2.91-.07,4.36a5.92,5.92,0,0,1-1,3A2.63,2.63,0,0,1,243.19,42.57Z"/><path class="cls-5" d="M253.12,42.48a.79.79,0,0,1-.68-.11,3.55,3.55,0,0,1-1.63-1.81,6.67,6.67,0,0,1-.59-2.63c0-1.55,0-3.1,0-4.65,0-.24.08-.32.31-.3a8,8,0,0,0,.85,0c.28,0,.32.09.32.34,0,1.74-.06,3.49.06,5.24a11.1,11.1,0,0,0,.3,2A3.4,3.4,0,0,0,253.12,42.48Z"/><path class="cls-5" d="M292.81,41.51A1.48,1.48,0,0,1,291.29,43a1.51,1.51,0,1,1,1.52-1.52Z"/><path class="cls-5" d="M208.27,32.18c-.36,0-.83.15-1.06-.07s-.07-.69-.06-1.05-.18-.91.07-1.13.73-.07,1.1-.06.86-.17,1.09.08.07.69.06,1.06.17.87-.06,1.09S208.66,32.14,208.27,32.18Z"/><path class="cls-5" d="M228.8,31.31c0,.31.17.79-.08,1s-.69.06-1.06.06-.86.16-1.09-.07-.07-.72-.08-1.09-.16-.86.07-1.1.72-.07,1.09-.07.87-.17,1.09.08,0,.69.06,1.06Z"/><path class="cls-5" d="M209.48,27.41c0,.29.16.76-.07,1s-.69.06-1,.08-.65,0-1,0c-.17,0-.25-.06-.24-.24,0-.62,0-1.24,0-1.86,0-.2.1-.22.26-.22.6,0,1.21,0,1.81,0,.24,0,.28.1.27.31S209.48,27.05,209.48,27.41Z"/><path class="cls-5" d="M228.8,27.41c0,.3.16.77-.06,1s-.72.08-1.1.07-.87.18-1.08-.08-.07-.69-.07-1.06-.12-.87.07-1.1.71-.07,1.09-.06.87-.17,1.09.07,0,.7.06,1.06Z"/><path class="cls-5" d="M253.32,28.36c0-.76,0-.76.73-.58l2.18.51c.23.05.38.13.34.41s.18.95-.09,1.16-.73-.13-1.12-.21c-.54-.13-1.09-.27-1.64-.38-.33-.06-.46-.2-.41-.53A1.6,1.6,0,0,0,253.32,28.36Z"/><path class="cls-5" d="M256.57,34.07c0,.76,0,.76-.74.58s-1.44-.36-2.17-.51c-.26,0-.37-.13-.35-.41s-.12-.93.08-1.13.72.1,1.09.17c.54.11,1.07.29,1.61.37s.55.25.48.64A1.4,1.4,0,0,0,256.57,34.07Z"/><path class="cls-5" d="M177.85,31.5c0-.28-.08-.35-.35-.35q-2.37,0-4.74,0c-.27,0-.36.06-.36.34,0,1.89,0,3.79,0,5.67,0,.53.16.69.68.69h4c.56,0,.73-.18.73-.74V34.33C177.84,33.39,177.83,32.44,177.85,31.5Zm-2.73,5.68c-.72,0-.88,0-.88-.74v-2c0-.74.17-1.49.15-2.24,0-.29.14-.38.45-.38.77,0,.81,0,.81.78,0,1.38-.07,2.76-.06,4.13C175.6,37.08,175.46,37.19,175.12,37.18Z"/><path class="cls-5" d="M177.72,39.55,172.65,41c-.19,0-.25,0-.25-.2,0-.49,0-1,0-1.48,0-.23.1-.27.3-.27.83,0,1.66,0,2.49,0h2.45c.11,0,.28-.07.28.14S178,39.48,177.72,39.55Z"/><path class="cls-5" d="M177.85,31.5c0-.28-.08-.35-.35-.35q-2.37,0-4.74,0c-.27,0-.36.06-.36.34,0,1.89,0,3.79,0,5.67,0,.53.16.69.68.69h4c.56,0,.73-.18.73-.74V34.33C177.84,33.39,177.83,32.44,177.85,31.5Zm-2.73,5.68c-.72,0-.88,0-.88-.74v-2c0-.74.17-1.49.15-2.24,0-.29.14-.38.45-.38.77,0,.81,0,.81.78,0,1.38-.07,2.76-.06,4.13C175.6,37.08,175.46,37.19,175.12,37.18Z"/><path class="cls-5" d="M177.72,39.55,172.65,41c-.19,0-.25,0-.25-.2,0-.49,0-1,0-1.48,0-.23.1-.27.3-.27.83,0,1.66,0,2.49,0h2.45c.11,0,.28-.07.28.14S178,39.48,177.72,39.55Z"/></svg>