<svg id="圖層_1" data-name="圖層 1" xmlns="http://www.w3.org/2000/svg" xmlns:xlink="http://www.w3.org/1999/xlink" viewBox="0 0 1221.01 350.69"><defs><style>.cls-1{fill:none;}.cls-2{clip-path:url(#clip-path);}.cls-3{clip-path:url(#clip-path-2);}.cls-4{fill:#014076;}.cls-5{fill:#00689f;}.cls-6{fill:#70cedb;}</style><clipPath id="clip-path"><rect class="cls-1" x="-0.72" width="1222.45" height="350.69"/></clipPath><clipPath id="clip-path-2"><path class="cls-1" d="M1232.18-18.13c0-2,3.06-6,3.06-8,.93-28.84,7.66-60.94-1.51-89H-.82c-6.24,125.2-4.38,250.4-9.36,375.6,21,6.57,41.83,13.31,62,21.84,54.79,23.5,122.09,29.4,179.75,9.09,38.91-18.42,66-34.54,111.07-21.27C371,277.68,394,293,420.21,304.23c116.93,41.18,250.21,61.84,372.63,33.09,131.83-38.37,235.7-129.77,373.67-38.67,16.1,10.9,35.34,15.25,55.44,15.88C1225.77,203.85,1213.46,91.28,1232.18-18.13Z"/></clipPath></defs><g class="cls-2"><g class="cls-3"><path class="cls-4" d="M-71,188.75c66.76,5.16,76.68,65,126.75,91.45,54.79,23.49,122.1,29.39,179.76,9.08,39-18.44,66-34.53,111.06-21.27,28.35,7.51,51.39,22.86,77.6,34.06,116.93,41.18,250.21,61.84,372.63,33.09,67.93-16,124.29-55.31,192.5-70.59,141.78-40.88,171.8,82.44,311.62,38.05,64.62-11.47,119.15-48,183.78-57.52V-117.25H-254.58V207.47c0-.66,72.45-5.09,76.77-4.75C-116.48,183.33-158.19,170.29-71,188.75Z"/><path class="cls-5" d="M1485.69,117.8c-.06,3.74-26,10.57-31.77,12.77-21.58,8.23-43.74,12.68-65.32,19.56-20,6.37-35.28,26-54.56,35.19-52,25.32-106.18,8.15-149.33-24.72-24.68-10.68-58.59.39-82.86,7.8-28.91,8.83-60.54,17.88-94.71,19.64C935,191.89,871.39,135.8,798.42,157.92c-39.49,9.92-79,26.53-116,42.88-39.23,17.37-83.22,20.5-125,11.26-117.74-7.67-226-78.64-345.57-64.84-152.06,39.06-80.41,46.48-250.15,16-87.07-15.16-134.9,57.55-216.1,36.16.31,14.15-1.19,28.82.19,42.88,15.18,3.2,29.67,11.63,45.85,11.91,34.68,5.12,64.44-13.54,95.76-24.06,33.94-14.1,51.33-8.71,85.44-.73,103.23,32.37,205.09,52.46,311.65,15,19.92-3.54,42.21-2.71,62.09.46,28.35,4.51,51.39,13.73,77.6,20.46,69.17,16.39,143.62,22.68,215.72,27.23,83.39,3.57,169.7-3.56,248-27.64C977.08,237.73,1083,225.17,1170.5,262c100.52,31.16,213.13-21.23,314.22-30.88C1484.4,194.79,1485.55,154.47,1485.69,117.8Z"/><path class="cls-6" d="M1484.72,164.52c-56.59,18.5-83.58,69.26-136.52,91.76-142.57,49.36-128.61-76.22-251.81-42.39-46.83,12.34-93.62,23.69-140.71,35.51-20.29,6.13-39.13-14.73-59.43-18.42C798.57,220,748.67,332.88,562.31,268.41c-72.74-34.73-122.65-72.7-209.59-54.61-31.88,4.91-62.32,20.87-95.66,13.5-27.59-7-52.93-23.9-82.94-18.39-64,21.76-120.45,36.44-183.51,3.54-27.08-13.37-60-21.58-90.9-13.52s-45.65,34.66-75,43.73c-22.65,5.1-65,9.49-81.35-6,0,4.93,0,55.71-.75,55.71,74.51,7.1,101.44-17.34,167.23-37,50.65-14.3,101.85,3,145.92,26.88,73,33.24,159.24,26,228.73-12.94,50-15,96.6,14.77,139.69,34.81,139.25,57.65,325.47,70.08,463.67-.68,31.89-16,66.67-27,101.46-36.82C1131,225.68,1161.19,349,1300.94,304.62c64.63-11.47,119.15-48,183.78-57.52Z"/></g></g></svg>