<svg xmlns="http://www.w3.org/2000/svg" viewBox="0 0 993.19 342.59"><defs><style>.cls-1{isolation:isolate;}.cls-2{fill:#ffca7e;}.cls-17,.cls-3,.cls-56{mix-blend-mode:multiply;}.cls-4,.cls-56{fill:#efbd94;}.cls-5{fill:#ef9954;}.cls-6{fill:#c3e0ea;}.cls-48,.cls-66,.cls-7,.cls-8{fill:#fff;}.cls-7{opacity:0.59;}.cls-9{fill:#6d6163;}.cls-10{opacity:0.35;}.cls-11{fill:#2c2c44;}.cls-12{fill:#8c7e84;}.cls-13{opacity:0.48;}.cls-14{fill:#a09a9f;}.cls-15{opacity:0.67;}.cls-16{fill:#fafafc;}.cls-17{fill:#ccc;}.cls-18{fill:#eda982;}.cls-19,.cls-22{fill:#38180f;}.cls-19,.cls-21{opacity:0.5;}.cls-20{fill:#d19a3a;}.cls-23{fill:#d9d9d9;}.cls-24{fill:#29180e;}.cls-25{fill:#c55c56;opacity:0.2;}.cls-26{fill:#3b4b66;}.cls-27{fill:#ffbc47;}.cls-28{fill:#0f0f0f;opacity:0.8;}.cls-29{fill:#4171b0;}.cls-30,.cls-32{fill:#f2f2f2;}.cls-30,.cls-31{opacity:0.18;}.cls-33{fill:#f4ad75;}.cls-34{fill:#e29460;}.cls-35{fill:#5e4e29;}.cls-36{fill:#c9a967;}.cls-37{fill:#f48787;}.cls-38{fill:#474b60;}.cls-39{fill:#f99d9d;}.cls-40{fill:#ffd6cc;}.cls-41{fill:#ffbbae;}.cls-42{fill:#353a4c;}.cls-43{fill:#232733;}.cls-44{fill:#51566d;}.cls-45{fill:#4a6fa8;}.cls-46{opacity:0.78;}.cls-47{fill:#e4ebef;}.cls-48{opacity:0.82;}.cls-49{fill:#f5e5de;}.cls-50{fill:#a49e92;}.cls-51{fill:#3f2a2a;}.cls-52{fill:#fb5353;}.cls-53{fill:#fd8484;}.cls-54{opacity:0.58;}.cls-55{fill:#fed2d2;}.cls-57{fill:#7e4b39;opacity:0.61;}.cls-58{fill:#6887b0;}.cls-59{fill:#7faed4;}.cls-60{fill:#314e63;}.cls-61{fill:#c9ced1;}.cls-62{fill:#e0603d;}.cls-63{fill:#824323;}.cls-64{fill:#2d2c31;}.cls-65{fill:#894929;}.cls-66{opacity:0.12;}.cls-67{fill:#232625;}.cls-68{fill:#ecddd6;}.cls-69{fill:#282828;}.cls-70{fill:#c0b77e;}.cls-71{fill:#75610e;}</style></defs><g class="cls-1"><g id="圖層_1" data-name="圖層 1"><g id="sand"><rect class="cls-2" y="114.2" width="993.19" height="228.39"/><g class="cls-3"><path class="cls-4" d="M721.37,294.37h1.32c.74,0,1.46.42,1.43.91s-.63.91-1.43.91h-1.32c-.74,0-1.46-.42-1.43-.91s.63-.91,1.43-.91Z"/></g><g class="cls-3"><path class="cls-4" d="M806.62,241H805.3c-.74,0-1.46-.42-1.43-.92s.63-.91,1.43-.91h1.32c.75,0,1.46.42,1.43.91s-.63.92-1.43.92Z"/></g><g class="cls-3"><path class="cls-4" d="M625.34,262.58l-.65.5a2,2,0,0,1-1,.26,2,2,0,0,1-1-.26.84.84,0,0,1-.42-.65l0-.24a.88.88,0,0,1,.37-.4l.66-.5a1.9,1.9,0,0,1,1-.27,1.92,1.92,0,0,1,1,.27.78.78,0,0,1,.42.64l0,.25a1,1,0,0,1-.37.4Z"/></g><g class="cls-3"><path class="cls-4" d="M555.48,284.74h-.66a2,2,0,0,1-1-.26.82.82,0,0,1-.42-.65.81.81,0,0,1,.42-.64,2,2,0,0,1,1-.27h.66a1.92,1.92,0,0,1,1,.27.78.78,0,0,1,.42.64.8.8,0,0,1-.42.65,2,2,0,0,1-1,.26Z"/></g><g class="cls-3"><path class="cls-4" d="M430.6,290l-.66.5a2,2,0,0,1-2,0,.8.8,0,0,1-.42-.65l.05-.24a.93.93,0,0,1,.37-.4l.65-.5a2,2,0,0,1,2,0,.82.82,0,0,1,.42.65l-.06.24a.91.91,0,0,1-.36.4Z"/></g><g class="cls-3"><path class="cls-4" d="M193.53,296.69h-1.31c-.75,0-1.47-.42-1.43-.91s.63-.92,1.43-.92h1.31c.75,0,1.47.42,1.43.92s-.63.91-1.43.91Z"/></g><g class="cls-3"><path class="cls-4" d="M47.84,232.57v-1.49c0-.48.66-.94,1.43-.92s1.44.41,1.44.92v1.49c0,.48-.66.93-1.44.91s-1.43-.4-1.43-.91Z"/></g><g class="cls-3"><path class="cls-4" d="M674.52,156.28l.66.49a.85.85,0,0,1,.42.65.81.81,0,0,1-.42.64,2,2,0,0,1-1,.27,1.81,1.81,0,0,1-1-.27l-.65-.5a.82.82,0,0,1-.42-.64.78.78,0,0,1,.42-.64,1.92,1.92,0,0,1,1-.27,1.81,1.81,0,0,1,1,.27Z"/></g><g class="cls-3"><path class="cls-4" d="M947.59,208.76h.66a2,2,0,0,1,1,.27.8.8,0,0,1,.42.65.81.81,0,0,1-.42.64,2,2,0,0,1-1,.27h-.66a2,2,0,0,1-1-.27.71.71,0,0,1,0-1.29,2.05,2.05,0,0,1,1-.27Z"/></g><g class="cls-3"><path class="cls-4" d="M956.11,292.28l-.66,1a1.46,1.46,0,0,1-.86.42,2.14,2.14,0,0,1-1.1-.09,1.11,1.11,0,0,1-.66-.54.75.75,0,0,1,.15-.71l.66-1a1.59,1.59,0,0,1,.86-.42,2.14,2.14,0,0,1,1.1.1,1.08,1.08,0,0,1,.66.54.73.73,0,0,1-.15.7Z"/></g><g class="cls-3"><path class="cls-4" d="M923.33,314.6h-2c-.75,0-1.47-.41-1.44-.91s.63-.91,1.44-.91h2c.75,0,1.47.42,1.43.91s-.63.91-1.43.91Z"/></g><g class="cls-3"><path class="cls-4" d="M865,309.13h-.65a1.92,1.92,0,0,1-1-.27.78.78,0,0,1-.42-.64.8.8,0,0,1,.42-.65,2,2,0,0,1,1-.26H865a2.06,2.06,0,0,1,1,.26.85.85,0,0,1,.42.65.81.81,0,0,1-.42.64,2,2,0,0,1-1,.27Z"/></g><g class="cls-3"><path class="cls-4" d="M79.29,300.08l-.66.5a1,1,0,0,1-1,0,.36.36,0,0,1,0-.65l.65-.49a1,1,0,0,1,1,0c.28.19.25.44,0,.64Z"/></g><g class="cls-3"><path class="cls-4" d="M97.14,314.73h.66c.37,0,.73.21.71.46s-.31.45-.71.45h-.66c-.37,0-.73-.21-.72-.45s.32-.46.72-.46Z"/></g><g class="cls-3"><path class="cls-4" d="M143.85,288l.65-.5a1,1,0,0,1,1,0,.36.36,0,0,1,0,.65l-.65.49a1,1,0,0,1-1,0c-.29-.19-.26-.45,0-.64Z"/></g><g class="cls-3"><path class="cls-4" d="M179.76,265.46h2c.92,0,.92.91,0,.91h-2c-.92,0-.92-.91,0-.91Z"/></g><g class="cls-3"><path class="cls-4" d="M308.61,319.82l1.31-.5a1,1,0,0,1,1,.16c.19.22.07.5-.26.63l-1.31.5a1,1,0,0,1-1-.16c-.2-.22-.07-.5.26-.63Z"/></g><g class="cls-3"><path class="cls-4" d="M317.4,305.73v-.5c0-.24.33-.46.71-.45s.72.2.72.45v.5c0,.24-.33.47-.72.46s-.71-.2-.71-.46Z"/></g><g class="cls-3"><path class="cls-4" d="M439,251.49l3.27.51c.9.13.52,1-.38.87l-3.27-.5c-.9-.14-.52-1,.38-.88Z"/></g><g class="cls-3"><path class="cls-4" d="M480.13,269.4v1c0,.59-1.43.59-1.43,0v-1c0-.59,1.43-.59,1.43,0Z"/></g><g class="cls-3"><path class="cls-4" d="M526.63,168.82H526c-.37,0-.73-.21-.71-.45s.31-.46.71-.46h.66c.37,0,.73.21.71.46s-.31.45-.71.45Z"/></g><g class="cls-3"><path class="cls-4" d="M332.54,150.91h-.66c-.37,0-.73-.21-.71-.46s.31-.46.71-.46h.66c.37,0,.73.21.72.46s-.32.46-.72.46Z"/></g><g class="cls-3"><path class="cls-4" d="M258.48,166.14l-.67,1a1,1,0,0,1-1,.16c-.36-.14-.41-.39-.25-.62l.66-1a1,1,0,0,1,1-.17c.37.14.41.4.26.63Z"/></g><g class="cls-3"><path class="cls-4" d="M39.93,199.92l2,1a.36.36,0,0,1,0,.65,1.06,1.06,0,0,1-1,0l-2-1a.35.35,0,0,1,0-.64,1.06,1.06,0,0,1,1,0Z"/></g><g class="cls-3"><path class="cls-4" d="M679.41,320.7h3.28c.92,0,.92.91,0,.91h-3.28c-.92,0-.92-.91,0-.91Z"/></g><g class="cls-3"><path class="cls-4" d="M752.62,271.94l-2.62-.49c-.88-.17-.51-1.05.38-.88l2.62.49c.88.17.51,1.05-.38.88Z"/></g><g class="cls-3"><path class="cls-4" d="M709.51,264.42v-1c0-.59,1.43-.59,1.43,0v1c0,.59-1.43.59-1.43,0Z"/></g><g class="cls-3"><path class="cls-4" d="M737.05,240v-.49c0-.24.33-.47.72-.46s.71.2.71.46V240c0,.24-.33.47-.71.46s-.72-.2-.72-.46Z"/></g><g class="cls-3"><path class="cls-4" d="M747,308.67h-1.31c-.93,0-.93-.91,0-.91H747c.92,0,.92.91,0,.91Z"/></g><g class="cls-3"><path class="cls-4" d="M709,325.14v.5c0,.24-.33.46-.72.45s-.72-.2-.72-.45v-.5c0-.24.33-.47.72-.46s.72.2.72.46Z"/></g><g class="cls-3"><path class="cls-4" d="M677.44,338.54h-.65c-.38,0-.74-.21-.72-.46s.31-.46.72-.46h.65c.38,0,.74.21.72.46s-.32.46-.72.46Z"/></g><g class="cls-3"><path class="cls-4" d="M655.09,333.1v-.49c0-.24.33-.47.71-.46s.72.2.72.46v.49c0,.24-.33.47-.72.46s-.71-.2-.71-.46Z"/></g><g class="cls-3"><path class="cls-4" d="M627,298.22h-.65c-.38,0-.74-.21-.72-.45s.32-.46.72-.46H627c.38,0,.74.21.72.46s-.32.45-.72.45Z"/></g><g class="cls-3"><path class="cls-4" d="M586.36,310.71v2c0,.58-1.43.59-1.43,0v-2c0-.59,1.43-.59,1.43,0Z"/></g><g class="cls-3"><path class="cls-4" d="M478,324.24l-.64,1.5c-.24.56-1.62.32-1.38-.25s.43-1,.64-1.49,1.62-.33,1.38.24Z"/></g><g class="cls-3"><path class="cls-4" d="M404.84,337l-3.93.51c-.9.12-1.28-.76-.38-.88l3.93-.51c.9-.12,1.29.76.38.88Z"/></g><g class="cls-3"><path class="cls-4" d="M182.38,324.6h-.65c-.38,0-.74-.21-.72-.46s.32-.45.72-.45h.65c.38,0,.74.21.72.45s-.32.46-.72.46Z"/></g><g class="cls-3"><path class="cls-4" d="M29.66,238v.5c0,.24-.33.47-.71.46s-.72-.2-.72-.46V238c0-.23.33-.46.72-.45s.71.2.71.45Z"/></g><g class="cls-3"><path class="cls-4" d="M15.18,253.78h.65a1.5,1.5,0,0,1,.76.2.62.62,0,0,1,.32.49c0,.37-.48.68-1.08.68h-.65a1.41,1.41,0,0,1-.76-.2.6.6,0,0,1-.32-.48c0-.37.48-.69,1.08-.69Z"/></g><g class="cls-3"><path class="cls-4" d="M2.06,323.46h.66a1.56,1.56,0,0,1,.76.2.61.61,0,0,1,.31.48c0,.37-.47.69-1.07.69H2.06a1.56,1.56,0,0,1-.76-.2.63.63,0,0,1-.31-.49c0-.37.47-.68,1.07-.68Z"/></g><g class="cls-3"><path class="cls-4" d="M167.06,249.49v.5c0,.36-.49.7-1.07.68s-1.07-.3-1.07-.68v-.5c0-.36.49-.7,1.07-.68s1.07.3,1.07.68Z"/></g><g class="cls-3"><path class="cls-4" d="M68.05,168.37v.49c0,.36-.49.71-1.07.69s-1.08-.3-1.08-.69v-.49c0-.36.5-.7,1.08-.69s1.07.3,1.07.69Z"/></g><g class="cls-3"><path class="cls-4" d="M262.38,180.23h-1.31c-.75,0-1.47-.42-1.43-.91s.62-.92,1.43-.92h1.31c.75,0,1.47.42,1.43.92s-.63.91-1.43.91Z"/></g><g class="cls-3"><path class="cls-4" d="M177.14,233.65h1.31c.75,0,1.46.42,1.43.91s-.63.91-1.43.91h-1.31c-.75,0-1.47-.42-1.43-.91s.62-.91,1.43-.91Z"/></g><g class="cls-3"><path class="cls-4" d="M358.41,212l.66-.5a1.9,1.9,0,0,1,1-.27,1.92,1.92,0,0,1,1,.27.78.78,0,0,1,.42.64l-.05.25a1,1,0,0,1-.37.4l-.65.5a2,2,0,0,1-1,.26,2,2,0,0,1-1-.26.81.81,0,0,1-.42-.65l.05-.24a.88.88,0,0,1,.37-.4Z"/></g><g class="cls-3"><path class="cls-4" d="M428.27,189.85h.66a1.92,1.92,0,0,1,1,.27.8.8,0,0,1,.42.64.82.82,0,0,1-.42.65,2,2,0,0,1-1,.26h-.66a2,2,0,0,1-1-.26.82.82,0,0,1-.42-.65.81.81,0,0,1,.42-.64,2.05,2.05,0,0,1,1-.27Z"/></g><g class="cls-3"><path class="cls-4" d="M553.16,184.64l.65-.49a2,2,0,0,1,2,0,.81.81,0,0,1,.42.64l0,.24a1,1,0,0,1-.37.41l-.66.49a2,2,0,0,1-2,0,.78.78,0,0,1-.42-.64l0-.24a1,1,0,0,1,.37-.41Z"/></g><g class="cls-3"><path class="cls-4" d="M790.22,177.91h1.32c.74,0,1.46.42,1.43.91s-.63.91-1.43.91h-1.32c-.75,0-1.46-.42-1.43-.91s.63-.91,1.43-.91Z"/></g><g class="cls-3"><path class="cls-4" d="M935.91,242v1.49c0,.48-.66.93-1.43.91s-1.43-.4-1.43-.91V242c0-.48.66-.94,1.43-.92s1.43.4,1.43.92Z"/></g><g class="cls-3"><path class="cls-4" d="M309.23,318.32l-.65-.5a.85.85,0,0,1-.42-.64.8.8,0,0,1,.42-.65,1.83,1.83,0,0,1,1-.26,1.9,1.9,0,0,1,1,.26l.66.5a.85.85,0,0,1,.42.64.81.81,0,0,1-.42.65,2,2,0,0,1-2,0Z"/></g><g class="cls-3"><path class="cls-4" d="M36.16,265.83H35.5a2,2,0,0,1-1-.27.79.79,0,0,1-.42-.64.82.82,0,0,1,.42-.65,2,2,0,0,1,1-.26h.66a2,2,0,0,1,1,.26.71.71,0,0,1,0,1.29,1.92,1.92,0,0,1-1,.27Z"/></g><g class="cls-3"><path class="cls-4" d="M27.64,182.31l.66-1a1.66,1.66,0,0,1,.86-.42,2.26,2.26,0,0,1,1.1.09,1.13,1.13,0,0,1,.66.55.73.73,0,0,1-.14.7l-.67,1a1.46,1.46,0,0,1-.85.42,2.3,2.3,0,0,1-1.11-.09,1.16,1.16,0,0,1-.66-.55.74.74,0,0,1,.15-.7Z"/></g><g class="cls-3"><path class="cls-4" d="M60.42,160h2c.75,0,1.46.42,1.43.91s-.63.91-1.43.91h-2c-.75,0-1.47-.42-1.43-.91s.63-.91,1.43-.91Z"/></g><g class="cls-3"><path class="cls-4" d="M118.78,165.46h.65a2.06,2.06,0,0,1,1,.27.82.82,0,0,1,.42.65.81.81,0,0,1-.42.64,2.06,2.06,0,0,1-1,.27h-.65a1.92,1.92,0,0,1-1-.27.71.71,0,0,1,0-1.29,2,2,0,0,1,1-.27Z"/></g><g class="cls-3"><path class="cls-4" d="M904.47,174.51l.65-.49a1,1,0,0,1,1,0c.29.19.26.45,0,.64l-.65.5a1,1,0,0,1-1,0,.36.36,0,0,1,0-.65Z"/></g><g class="cls-3"><path class="cls-4" d="M886.61,159.86H886c-.38,0-.74-.21-.72-.45s.32-.46.72-.46h.65c.38,0,.74.21.72.46s-.32.45-.72.45Z"/></g><g class="cls-3"><path class="cls-4" d="M839.91,186.61l-.66.49a1,1,0,0,1-1,0c-.28-.19-.26-.44,0-.64l.66-.5a1,1,0,0,1,1,0,.36.36,0,0,1,0,.65Z"/></g><g class="cls-3"><path class="cls-4" d="M804,209.14h-2c-.92,0-.93-.92,0-.92h2c.92,0,.93.92,0,.92Z"/></g><g class="cls-3"><path class="cls-4" d="M675.14,154.77l-1.3.51a1,1,0,0,1-1-.17c-.2-.21-.08-.49.25-.62l1.31-.51a1,1,0,0,1,1,.17c.2.21.08.49-.26.62Z"/></g><g class="cls-3"><path class="cls-4" d="M666.35,168.86v.5c0,.24-.32.47-.71.46s-.72-.2-.72-.46v-.5c0-.23.33-.46.72-.45s.71.2.71.45Z"/></g><g class="cls-3"><path class="cls-4" d="M544.78,223.11l-3.27-.51c-.9-.14-.52-1,.38-.88l3.28.51c.89.14.51,1-.39.88Z"/></g><g class="cls-3"><path class="cls-4" d="M503.62,205.2v-1c0-.59,1.43-.59,1.43,0v1c0,.58-1.43.58-1.43,0Z"/></g><g class="cls-3"><path class="cls-4" d="M457.12,305.77h.66c.37,0,.73.21.72.46s-.32.45-.72.45h-.66c-.37,0-.73-.21-.71-.45s.31-.46.71-.46Z"/></g><g class="cls-3"><path class="cls-4" d="M651.21,323.69h.66c.37,0,.73.21.72.45s-.32.46-.72.46h-.66c-.37,0-.73-.21-.71-.46s.31-.45.71-.45Z"/></g><g class="cls-3"><path class="cls-4" d="M725.27,308.46l.67-1a1,1,0,0,1,1-.17c.37.14.41.4.26.63l-.67,1a1,1,0,0,1-1,.16c-.37-.14-.41-.39-.26-.62Z"/></g><g class="cls-3"><path class="cls-4" d="M943.83,274.68l-2-1a.35.35,0,0,1,0-.64,1,1,0,0,1,1,0l2,1a.36.36,0,0,1,0,.65,1.06,1.06,0,0,1-1,0Z"/></g><g class="cls-3"><path class="cls-4" d="M304.34,153.89h-3.27c-.93,0-.93-.91,0-.91h3.27c.93,0,.93.91,0,.91Z"/></g><g class="cls-3"><path class="cls-4" d="M231.13,202.65l2.63.5c.88.16.5,1-.38.88l-2.63-.5c-.88-.16-.5-1,.38-.88Z"/></g><g class="cls-3"><path class="cls-4" d="M274.24,210.17v1c0,.59-1.43.59-1.43,0v-1c0-.58,1.43-.58,1.43,0Z"/></g><g class="cls-3"><path class="cls-4" d="M246.7,234.56v.5c0,.24-.33.46-.71.45s-.72-.2-.72-.45v-.5c0-.24.33-.47.72-.46s.71.2.71.46Z"/></g><g class="cls-3"><path class="cls-4" d="M236.81,165.92h1.31c.92,0,.92.91,0,.91h-1.31c-.92,0-.93-.91,0-.91Z"/></g><g class="cls-3"><path class="cls-4" d="M274.78,149.46V149c0-.24.33-.47.71-.46s.72.2.72.46v.5c0,.23-.33.46-.72.45s-.71-.2-.71-.45Z"/></g><g class="cls-3"><path class="cls-4" d="M306.31,136.06H307c.37,0,.73.21.71.46s-.31.45-.71.45h-.66c-.37,0-.73-.21-.71-.45s.31-.46.71-.46Z"/></g><g class="cls-3"><path class="cls-4" d="M328.67,141.49v.5c0,.24-.33.47-.72.46s-.72-.2-.72-.46v-.5c0-.24.33-.46.72-.45s.72.2.72.45Z"/></g><g class="cls-3"><path class="cls-4" d="M356.8,176.37h.66c.37,0,.73.21.71.46s-.31.45-.71.45h-.66c-.37,0-.73-.21-.72-.45s.32-.46.72-.46Z"/></g><g class="cls-3"><path class="cls-4" d="M397.39,163.89v-2c0-.59,1.44-.59,1.44,0v2c0,.58-1.44.59-1.44,0Z"/></g><g class="cls-3"><path class="cls-4" d="M505.72,150.36l.64-1.5c.24-.57,1.62-.33,1.38.24l-.64,1.5c-.24.56-1.62.32-1.38-.24Z"/></g><g class="cls-3"><path class="cls-4" d="M578.91,137.63l3.93-.51c.9-.12,1.28.76.38.87l-3.93.52c-.9.11-1.28-.76-.38-.88Z"/></g><g class="cls-3"><path class="cls-4" d="M801.37,150H802c.37,0,.73.21.71.46s-.31.46-.71.46h-.66c-.37,0-.73-.21-.72-.46s.32-.46.72-.46Z"/></g><g class="cls-3"><path class="cls-4" d="M954.09,236.55v-.5c0-.24.33-.46.72-.45s.71.2.71.45v.5c0,.24-.33.47-.71.46s-.72-.2-.72-.46Z"/></g><g class="cls-3"><path class="cls-4" d="M968.58,220.81h-.66a1.56,1.56,0,0,1-.76-.2.57.57,0,0,1-.31-.48c0-.37.47-.69,1.07-.69h.66a1.56,1.56,0,0,1,.76.2.63.63,0,0,1,.31.49c0,.37-.47.68-1.07.68Z"/></g><g class="cls-3"><path class="cls-4" d="M981.69,151.13H981a1.4,1.4,0,0,1-.75-.2.59.59,0,0,1-.32-.48c0-.37.47-.68,1.07-.68h.66a1.43,1.43,0,0,1,.76.2.57.57,0,0,1,.31.48c0,.37-.47.68-1.07.68Z"/></g><g class="cls-3"><path class="cls-4" d="M816.69,225.1v-.49c0-.36.49-.7,1.07-.69s1.08.3,1.08.69v.49c0,.36-.5.7-1.08.69s-1.07-.3-1.07-.69Z"/></g><g class="cls-3"><path class="cls-4" d="M915.7,306.23v-.5c0-.36.5-.7,1.08-.68s1.07.3,1.07.68v.5c0,.36-.49.7-1.07.68s-1.08-.3-1.08-.68Z"/></g><g class="cls-3"><path class="cls-4" d="M59.33,303.1h-.22a1.56,1.56,0,0,1-.76-.2.61.61,0,0,1-.31-.48c0-.37.47-.69,1.07-.69h.22a1.5,1.5,0,0,1,.76.2.62.62,0,0,1,.32.49c0,.37-.48.68-1.08.68Z"/></g><g class="cls-3"><path class="cls-4" d="M27.86,301.61h-.22a1.56,1.56,0,0,1-.76-.2.63.63,0,0,1-.31-.49c0-.37.47-.68,1.07-.68h.22a1.5,1.5,0,0,1,.76.2.6.6,0,0,1,.32.48c0,.37-.48.69-1.08.69Z"/></g><g class="cls-3"><path class="cls-4" d="M204.23,331.13H204a1.46,1.46,0,0,1-.76-.2.57.57,0,0,1-.31-.48c0-.37.47-.68,1.07-.68h.22a1.46,1.46,0,0,1,.76.2.6.6,0,0,1,.31.48c0,.37-.47.68-1.07.68Z"/></g><path class="cls-5" d="M118.24,297.84a.41.41,0,0,0,0,.74,1.15,1.15,0,0,0,1.16,0,.4.4,0,0,0,0-.74A1.2,1.2,0,0,0,118.24,297.84Z"/><path class="cls-5" d="M127.86,333.88a.4.4,0,0,0,0,.74,1.15,1.15,0,0,0,1.16,0,.41.41,0,0,0,0-.74A1.2,1.2,0,0,0,127.86,333.88Z"/><path class="cls-5" d="M279.64,311.69a.41.41,0,0,0,0,.74,1.2,1.2,0,0,0,1.16,0,.41.41,0,0,0,0-.74A1.15,1.15,0,0,0,279.64,311.69Z"/></g><g id="sea"><path class="cls-6" d="M.11,78.33V194.7q9.89-.28,19.6-.61c60.57-2,126.53-4.71,166.44-17.3,17.57-5.54,28.43-12.56,45.93-18.12,51.66-16.41,143.47-15.82,222.84-13.23,128.7,4.21,257.47,10.41,386.44,9.95,51-.18,102.08-1.47,151.83-4.28V104.35l-.25-14.49-.19-11.53Z"/><path class="cls-6" d="M992.94,89.86l.25,14.49V89.92Z"/><path class="cls-7" d="M136.54,157.34c17.56-4.47,28.42-10.14,45.91-14.62C234.1,129.48,325.88,130,405.22,132.05c111.1,2.93,218,10.58,329.46,13.3,65.68,1.6,131.72,2.08,197.37,1.44q30.65-.3,61.14-.93v5.25c-49.75,2.81-100.83,4.1-151.83,4.28-129,.46-257.74-5.74-386.44-9.95-79.37-2.59-171.18-3.18-222.84,13.23-17.5,5.56-28.36,12.58-45.93,18.12-39.91,12.59-105.87,15.32-166.44,17.3q-9.71.33-19.6.61V170.43C51.54,168.77,103.15,165.84,136.54,157.34Z"/><path class="cls-8" d="M973,140.27l-15.73.47c-2.62.07-5.24.17-7.86.22l-7.88.19-7.88.18c-2.62.07-5.24.14-7.87.17l-15.77.27-3.94.07-3.95,0-7.89.09c-5.26.06-10.51.13-15.78.13l-15.78.07-15.78,0-7.89,0-7.89-.07c-5.26-.05-10.52-.07-15.77-.15l-15.76-.24-3.94-.06-3.93-.09-7.87-.17c-10.5-.19-21-.53-31.43-.81-5.23-.17-10.45-.36-15.68-.54l-7.83-.28-7.81-.33c-20.85-.83-41.59-1.91-62.23-3.12l-15.45-1c-5.14-.34-10.26-.71-15.38-1.06l-7.69-.53-7.66-.57q-7.67-.57-15.31-1.18c-40.79-3.18-81.31-6.92-122.88-9.58-20.79-1.32-41.78-2.39-63-3s-42.63-.66-63.88-.11-42.39,1.75-62.65,3.82c-10.12,1-20,2.27-29.56,3.74-4.79.72-9.42,1.53-14,2.36s-9,1.74-13.31,2.7c-8.65,1.9-16.68,4-24.51,6.16s-15.43,4.35-23.18,6.48-15.65,4.22-24,6.12c-4.15.95-8.52,1.82-12.92,2.67S134.55,155,130,155.81c-18.11,3.2-36.77,6.15-56.18,8.58-9.71,1.2-19.6,2.29-29.79,3.05-5.09.38-10.27.68-15.51.8A123.62,123.62,0,0,1,13,167.75a123.19,123.19,0,0,0,15.62.62c5.28-.08,10.52-.33,15.68-.67,10.33-.68,20.38-1.69,30.22-2.84s19.51-2.43,29-3.81,18.87-2.86,28.07-4.43,18.28-3.2,27-5.06,16.92-3.88,24.86-6c15.94-4.19,31.15-8.6,48.17-12.2,4.22-.91,8.61-1.74,13.05-2.55s9-1.54,13.69-2.21c9.3-1.38,19-2.53,28.86-3.48,19.77-1.9,40.34-3,61.09-3.5,10.38-.25,20.81-.32,31.23-.28s20.85.24,31.25.54c20.78.62,41.47,1.7,62,3q15.39,1,30.7,2.18T534,129.48c20.39,1.64,40.76,3.35,61.29,4.93,41.09,3.14,82.83,5.58,124.9,7.07l7.88.29,7.9.24c5.27.15,10.53.32,15.81.46,10.55.23,21.09.52,31.66.65l7.93.12,4,.06,4,0,15.86.13c5.28,0,10.57,0,15.85,0H839l7.92,0,15.85-.11,15.82-.21c5.28,0,10.55-.17,15.81-.28l7.9-.16c2.64,0,5.27-.11,7.89-.19C931.2,142,952.13,141.21,973,140.27Z"/><path class="cls-8" d="M135.86,106.68l14,0c.47,0,.85-.17.85-.37s-.39-.37-.86-.37l-14.05,0c-.47,0-.85.17-.85.38S135.39,106.69,135.86,106.68Z"/><path class="cls-8" d="M121.63,103.7l9.4,0c.47,0,.85-.17.85-.37s-.39-.37-.86-.37l-9.39,0c-.47,0-.85.17-.85.37S121.16,103.7,121.63,103.7Z"/><path class="cls-8" d="M106.62,115l9.39,0c.47,0,.86-.17.85-.38s-.38-.37-.85-.37l-9.4,0c-.47,0-.85.17-.85.38S106.15,115,106.62,115Z"/><path class="cls-8" d="M198.82,114.7l9.4,0c.47,0,.85-.17.85-.37s-.39-.37-.86-.37l-9.39,0c-.47,0-.85.17-.85.37S198.35,114.7,198.82,114.7Z"/><path class="cls-8" d="M177.14,111.49l9.4,0c.47,0,.85-.17.84-.38s-.38-.37-.85-.37l-9.4,0c-.47,0-.85.17-.85.37S176.67,111.49,177.14,111.49Z"/><path class="cls-8" d="M230.67,107.87l9.39,0c.47,0,.85-.17.85-.38s-.38-.37-.86-.37l-9.39,0c-.47,0-.85.17-.85.38S230.19,107.87,230.67,107.87Z"/><path class="cls-8" d="M186.48,105.07l9.4,0c.47,0,.85-.16.85-.37s-.39-.37-.86-.37l-9.39,0c-.48,0-.86.17-.85.37S186,105.07,186.48,105.07Z"/><path class="cls-8" d="M44.37,112.55l9.4,0c.47,0,.85-.17.85-.38s-.39-.37-.86-.37l-9.4,0c-.47,0-.85.17-.85.37S43.9,112.55,44.37,112.55Z"/><path class="cls-8" d="M58.79,111.84l9.4,0c.47,0,.85-.17.85-.38s-.39-.37-.86-.37l-9.4,0c-.47,0-.85.17-.85.37S58.32,111.85,58.79,111.84Z"/><path class="cls-8" d="M39.46,106.37l9.4,0c.47,0,.85-.17.85-.38s-.39-.37-.86-.37l-9.39,0c-.48,0-.86.17-.85.38S39,106.38,39.46,106.37Z"/><path class="cls-8" d="M67.84,106.89l9.4,0c.47,0,.85-.17.85-.38s-.39-.37-.86-.37l-9.39,0c-.47,0-.85.17-.85.38S67.37,106.89,67.84,106.89Z"/><path class="cls-8" d="M26,119.08l9.39,0c.47,0,.85-.16.85-.37s-.38-.37-.85-.37l-9.4,0c-.47,0-.85.17-.85.37S25.54,119.08,26,119.08Z"/><path class="cls-8" d="M107.64,110.37l14,0c.47,0,.85-.17.85-.37s-.39-.37-.86-.37l-14.05,0c-.47,0-.85.17-.85.37S107.17,110.37,107.64,110.37Z"/><path class="cls-8" d="M88.92,113l14,0c.47,0,.85-.17.85-.37s-.39-.37-.86-.37l-14,0c-.47,0-.85.17-.85.37S88.45,113,88.92,113Z"/><path class="cls-8" d="M25.08,110.16l14.05,0c.47,0,.85-.17.85-.38s-.39-.37-.86-.37l-14,0c-.47,0-.85.17-.85.38S24.61,110.16,25.08,110.16Z"/><path class="cls-8" d="M74.91,118.05l14,0c.47,0,.85-.17.85-.38s-.38-.37-.86-.37l-14,0c-.48,0-.86.17-.85.38S74.44,118.05,74.91,118.05Z"/><path class="cls-8" d="M150.81,109.71l14.05,0c.48,0,.86-.17.85-.37s-.38-.37-.85-.37l-14.05,0c-.47,0-.85.17-.85.37S150.34,109.72,150.81,109.71Z"/><path class="cls-8" d="M205.28,110.08l14.05,0c.47,0,.85-.17.85-.37s-.39-.37-.86-.37l-14,0c-.47,0-.85.17-.85.37S204.81,110.09,205.28,110.08Z"/><path class="cls-8" d="M804.74,108l14,0c.47,0,.85-.17.85-.37s-.38-.37-.85-.37l-14,0c-.48,0-.86.17-.85.37S804.27,108,804.74,108Z"/><path class="cls-8" d="M790.52,105l9.39,0c.47,0,.85-.17.85-.37s-.38-.37-.85-.37l-9.4,0c-.47,0-.85.16-.85.37S790.05,105,790.52,105Z"/><path class="cls-8" d="M775.5,116.3l9.4,0c.47,0,.85-.16.85-.37s-.39-.37-.86-.37l-9.39,0c-.48,0-.86.17-.85.37S775,116.3,775.5,116.3Z"/><path class="cls-8" d="M867.71,116l9.39,0c.47,0,.85-.17.85-.37s-.38-.37-.85-.37l-9.4,0c-.47,0-.85.17-.85.37S867.24,116,867.71,116Z"/><path class="cls-8" d="M846,112.82l9.4,0c.47,0,.85-.17.85-.37s-.39-.37-.86-.37l-9.39,0c-.47,0-.85.17-.85.37S845.55,112.82,846,112.82Z"/><path class="cls-8" d="M899.55,109.19l9.39,0c.47,0,.86-.17.85-.38s-.38-.37-.85-.37l-9.4,0c-.47,0-.85.17-.85.37S899.08,109.19,899.55,109.19Z"/><path class="cls-8" d="M855.37,106.4l9.39,0c.47,0,.85-.17.85-.37s-.39-.37-.86-.37l-9.39,0c-.47,0-.85.17-.85.37S854.89,106.4,855.37,106.4Z"/><path class="cls-8" d="M713.25,113.88l9.4,0c.47,0,.85-.17.85-.37s-.39-.37-.86-.37l-9.39,0c-.47,0-.85.17-.85.37S712.78,113.88,713.25,113.88Z"/><path class="cls-8" d="M727.67,113.17l9.4,0c.47,0,.85-.16.85-.37s-.39-.37-.86-.37l-9.39,0c-.47,0-.85.17-.85.37S727.2,113.17,727.67,113.17Z"/><path class="cls-8" d="M708.34,107.7l9.4,0c.47,0,.85-.17.85-.38s-.39-.37-.86-.37l-9.39,0c-.47,0-.85.17-.85.37S707.87,107.7,708.34,107.7Z"/><path class="cls-8" d="M736.73,108.21l9.39,0c.47,0,.85-.17.85-.38s-.38-.37-.85-.37l-9.4,0c-.47,0-.85.17-.85.37S736.26,108.22,736.73,108.21Z"/><path class="cls-8" d="M694.9,120.41l9.39,0c.48,0,.86-.17.85-.37s-.38-.37-.85-.37l-9.4,0c-.47,0-.85.17-.85.37S694.43,120.41,694.9,120.41Z"/><path class="cls-8" d="M776.52,111.7l14.05,0c.47,0,.85-.17.85-.37s-.38-.38-.85-.37l-14.05,0c-.47,0-.86.17-.85.37S776.05,111.7,776.52,111.7Z"/><path class="cls-8" d="M757.8,114.34l14.05,0c.47,0,.85-.17.85-.38s-.38-.37-.85-.36l-14.05,0c-.47,0-.85.17-.85.37S757.33,114.34,757.8,114.34Z"/><path class="cls-8" d="M694,111.49l14,0c.47,0,.85-.17.85-.37s-.38-.37-.85-.37l-14,0c-.47,0-.85.17-.85.38S693.49,111.49,694,111.49Z"/><path class="cls-8" d="M743.79,119.38l14.05,0c.48,0,.86-.17.85-.37s-.38-.37-.85-.37l-14.05,0c-.47,0-.85.17-.85.38S743.32,119.38,743.79,119.38Z"/><path class="cls-8" d="M819.7,111l14,0c.47,0,.85-.17.85-.37s-.39-.37-.86-.37l-14,0c-.47,0-.85.17-.85.37S819.23,111,819.7,111Z"/><path class="cls-8" d="M874.16,111.41l14.05,0c.47,0,.85-.17.85-.37s-.39-.37-.86-.37l-14.05,0c-.47,0-.85.17-.85.37S873.69,111.41,874.16,111.41Z"/></g><g id="rocks"><path class="cls-9" d="M891.25,206.47c.42,1,.89,2,1.41,2.95l38.22-.68c-.25-.75-.54-1.5-.86-2.27-5.3-12.57-18.27-22.77-29-22.77a12.09,12.09,0,0,0-7.77,2.49l-.33.27a10.86,10.86,0,0,0-2.71,3.7h0c0,.1-.09.19-.13.29C888.37,194.57,888.61,200.23,891.25,206.47Z"/><g class="cls-10"><path class="cls-11" d="M892.94,186.46a46.42,46.42,0,0,1,27.92,15.24l.24-.21a46.7,46.7,0,0,0-27.83-15.3Z"/><path class="cls-11" d="M890.1,190.45A58.1,58.1,0,0,1,907.33,205l.25-.2a58.45,58.45,0,0,0-17.35-14.59C890.19,190.26,890.14,190.35,890.1,190.45Z"/><path class="cls-11" d="M901.56,206.88l.28-.16a58.47,58.47,0,0,0-12.09-15.32l-.15.47A56.56,56.56,0,0,1,901.56,206.88Z"/></g><path class="cls-12" d="M898.09,214.5a16.25,16.25,0,0,0,.17,2.32l12.9-.18h.46l3.35,0h.74l19.37-.27a1.8,1.8,0,0,0,1.79-1.79h0a17.48,17.48,0,0,0-7.42-14.12l-.27-.19a20.25,20.25,0,0,0-10.36-3.58l-.32,0q-.51,0-1,0C906.77,196.56,898.09,204.59,898.09,214.5Z"/><g class="cls-13"><path class="cls-11" d="M911.16,216.64h.46a25.66,25.66,0,0,0,7.2-20l-.32,0A25.32,25.32,0,0,1,911.16,216.64Z"/><path class="cls-11" d="M915,216.58h.74a27.71,27.71,0,0,0,13.74-16.19l-.27-.19A27.42,27.42,0,0,1,915,216.58Z"/></g><path class="cls-14" d="M873.79,215.55h0a1.8,1.8,0,0,0,1.84,1.78l9.47-.13h.59l4.81-.07h.32l2.54,0h.34l10.42-.15a10.8,10.8,0,0,0,.08-1.39,13.81,13.81,0,0,0-6.91-11.79l0,0c-.42-.24-.85-.48-1.29-.69h0q-.62-.3-1.26-.54l-.31-.11a16.28,16.28,0,0,0-7.94-.72h0l-.45.07h0a16.26,16.26,0,0,0-4.87,1.75l-.38.22a14.41,14.41,0,0,0-5.91,6.65l-.12.3A13,13,0,0,0,873.79,215.55Z"/><g class="cls-15"><path class="cls-11" d="M893.67,217.27a0,0,0,0,1,0,0h0Z"/><path class="cls-11" d="M893.36,217.09h.32a12.82,12.82,0,0,0,0-2.32h0a18.62,18.62,0,0,0-7.25-13.08h0l-.45.07C890.81,205.12,893.91,211.55,893.36,217.09Z"/><path class="cls-11" d="M880.76,203.72a13.43,13.43,0,0,1,9.74,13.41c0,.08,0,.17,0,.25l.32,0c0-.09,0-.18,0-.27a13.72,13.72,0,0,0-9.68-13.63Z"/><path class="cls-11" d="M874.73,210.67l10.37,6.54h.59l-10.84-6.83Z"/><path class="cls-11" d="M901.89,216.73l.32,0a16.35,16.35,0,0,0-4.92-13l0,0c-.42-.24-.85-.48-1.29-.69A16,16,0,0,1,901.89,216.73Z"/><polygon class="cls-11" points="893.66 217.3 893.51 217.28 893.66 217.31 893.66 217.3"/><path class="cls-11" d="M893.68,217.09c0,.06,0,.12,0,.18l0-.18a83.72,83.72,0,0,0,1-14.58v-.12h-.32a83.75,83.75,0,0,1-.68,12.36h0c-.1.77-.21,1.55-.34,2.32Z"/></g><path class="cls-12" d="M854.05,203.11h0a1.3,1.3,0,0,0,1.32,1.3l4.9-.06h1.46l4.58-.06h.48l8.48-.12a1,1,0,0,0,1-1h0a10,10,0,0,0-4.43-8.22l-.29-.19a11.58,11.58,0,0,0-5.45-1.85l-.32,0-.64,0a11.6,11.6,0,0,0-7.29,2.52l-.25.21A9.91,9.91,0,0,0,854.05,203.11Z"/><path class="cls-11" d="M861.33,204.34h.4a24.83,24.83,0,0,0,4.41-11.48l-.32,0A24.49,24.49,0,0,1,861.33,204.34Z"/><path class="cls-11" d="M866.31,204.27h.48a17.33,17.33,0,0,0,5.09-9.37l-.29-.19A17,17,0,0,1,866.31,204.27Z"/><path class="cls-11" d="M857.64,195.54a24.34,24.34,0,0,1,2.63,8.82h.32a24.87,24.87,0,0,0-2.7-9Z"/><path class="cls-9" d="M846.25,197.93a1.15,1.15,0,0,1,0,.16.48.48,0,0,0,.48.53l3.77-.05H852l1.59,0a.38.38,0,0,0,.38-.43,1.37,1.37,0,0,1,0-.16,3.51,3.51,0,0,0-3.54-3.41h-.33a4.2,4.2,0,0,0-2.39.74l-.28.22A3,3,0,0,0,846.25,197.93Z"/><path class="cls-11" d="M847.43,195.46a5.94,5.94,0,0,1,3.05,3.11h.34a6.27,6.27,0,0,0-3.11-3.32Z"/><path class="cls-11" d="M850,194.5a5.93,5.93,0,0,1,1.69,4.05H852a5.79,5.79,0,0,0-1.59-4H850Z"/><path class="cls-14" d="M357.91,242.16a12.68,12.68,0,0,0,.13,1.76l10.8-.15h.56l4.65-.07h.31l2.45,0h.33l10.07-.14a12.21,12.21,0,0,0,.07-1.35,13.33,13.33,0,0,0-6.67-11.38l0,0c-.41-.23-.82-.46-1.25-.67h0c-.39-.19-.8-.36-1.21-.52l-.3-.1a15.46,15.46,0,0,0-5.22-.89,16.42,16.42,0,0,0-2.45.19h0l-.43.07h0a15.21,15.21,0,0,0-4.71,1.69l-.36.21a13.89,13.89,0,0,0-5.71,6.43l-.12.28A12.62,12.62,0,0,0,357.91,242.16Z"/><g class="cls-15"><path class="cls-11" d="M377.11,243.82a.06.06,0,0,1,0,0h0Z"/><path class="cls-11" d="M376.81,243.65h.32a12.87,12.87,0,0,0,0-2.24h0a18,18,0,0,0-7-12.63h0l-.43.07C374.35,232.1,377.35,238.3,376.81,243.65Z"/><path class="cls-11" d="M364.65,230.74a13.3,13.3,0,0,1,6.74,4.58,13.16,13.16,0,0,1,2.66,8.37c0,.08,0,.17,0,.25l.31,0c0-.09,0-.18,0-.27A13.28,13.28,0,0,0,365,230.53Z"/><path class="cls-11" d="M358.82,237.45l10,6.32h.56l-10.46-6.59Z"/><path class="cls-11" d="M385.05,243.3l.31,0a15.81,15.81,0,0,0-4.75-12.56l0,0c-.41-.23-.82-.46-1.25-.67A15.43,15.43,0,0,1,385.05,243.3Z"/><polygon class="cls-11" points="377.11 243.86 376.95 243.84 377.11 243.86 377.11 243.86"/><path class="cls-11" d="M377.13,243.65c0,.06,0,.11,0,.17l0-.17a81.91,81.91,0,0,0,1-14.08.37.37,0,0,1,0-.11h-.31a80.73,80.73,0,0,1-.65,11.93h0c-.1.75-.2,1.5-.32,2.24Z"/></g><path class="cls-12" d="M338.85,230.15a9.11,9.11,0,0,0,.09,1.29l5.91-.09h1.42l4.42-.06h.46l9.14-.13a8.22,8.22,0,0,0,.06-1,9.68,9.68,0,0,0-4.28-7.93l-.28-.19a11.18,11.18,0,0,0-5.27-1.78l-.31,0h-.62a11.15,11.15,0,0,0-7,2.43,2.43,2.43,0,0,0-.25.2A9.58,9.58,0,0,0,338.85,230.15Z"/><path class="cls-16" d="M345.88,231.34h.39a24,24,0,0,0,4.25-11.08l-.31,0A23.55,23.55,0,0,1,345.88,231.34Z"/><path class="cls-16" d="M350.69,231.27h.46a16.81,16.81,0,0,0,4.92-9.05l-.28-.19A16.39,16.39,0,0,1,350.69,231.27Z"/><path class="cls-16" d="M342.31,222.84a23.36,23.36,0,0,1,2.54,8.51h.31a23.75,23.75,0,0,0-2.6-8.71A2.43,2.43,0,0,0,342.31,222.84Z"/><path class="cls-14" d="M331.22,225.37a3.4,3.4,0,0,0,0,.45l4.15-.06h1.49l1.94,0c0-.12,0-.24,0-.35a3.66,3.66,0,0,0-3.5-3.52H335a4,4,0,0,0-2.3.71l-.28.21A3.43,3.43,0,0,0,331.22,225.37Z"/><path class="cls-16" d="M332.45,222.76a5.76,5.76,0,0,1,2.95,3h.33a6.07,6.07,0,0,0-3-3.21Z"/><path class="cls-16" d="M335,221.84a5.74,5.74,0,0,1,1.63,3.91h.31a5.64,5.64,0,0,0-1.54-3.89H335Z"/></g><g id="man"><path class="cls-17" d="M79.38,283.46c-14.4-4.16,24.34-2.68,26.78-2.93,18.9-1.94,35.72-1.14,55,0a237.41,237.41,0,0,0,30.77-.32c10.67-.66,20.64,2.58,31.23,2.76,3.15,0,52.7-.62,50.36,6.45-.49,1.48-34.27,1.33-38.17,1.2-15.55-.5-29.65-4.59-45-3.19-18.63,1.7-39.49,3.21-58.25.55C113.1,285.29,97.82,285.85,79.38,283.46Z"/><path class="cls-18" d="M198.33,127.82l-1-3.41c-5.44,1.32-11.06,2.33-16.21,4.42a5.18,5.18,0,0,1-1.1.41l1.44,4a10.41,10.41,0,0,0,3.17,4.51L208,157.05l11.12-1Z"/><path class="cls-19" d="M198.33,127.82l-1-3.41c-5.44,1.32-11.06,2.33-16.21,4.42a5.18,5.18,0,0,1-1.1.41l1.44,4a10.41,10.41,0,0,0,3.17,4.51L208,157.05l11.12-1Z"/><path class="cls-20" d="M228.68,162l-.14-.25c-.76-1.24-1.13-.86-2.49-2.06v0l-.29-.26a25.19,25.19,0,0,0-4.17-2.85,10.49,10.49,0,0,0-1.74-1l-.45-.43-.16-.11-4.68-7.26c-3.77,1.84-8.08,7.14-10.75,10.63l1.08.47a17.8,17.8,0,0,1,6.85,5.38h0c1.6,1.89,8.83,6.41,9.1,6.53.53.24,2.92,3.67,3.85,3.37s.46-1.72.46-1.72A2.27,2.27,0,0,0,227,170.3c2.16-.71,1.89-3.24,1.89-3.24l.08-.08c1.45,1.21,1.84,3.59,3,2.88.92-.58.18-2.3-.3-3.35A18.23,18.23,0,0,0,228.68,162Z"/><path class="cls-19" d="M225.7,162.93a.07.07,0,1,1,.12-.08,16.73,16.73,0,0,0,1.21,1.47,8.65,8.65,0,0,1,1.88,2.66.1.1,0,0,1,0,.1.09.09,0,0,1-.1-.05,8.72,8.72,0,0,0-1.84-2.61,14,14,0,0,1-1.22-1.48Z"/><path class="cls-19" d="M224.11,166a.06.06,0,0,1,0-.09.07.07,0,0,1,.1,0,11,11,0,0,1,2.88,4.45.08.08,0,0,1,0,.1.09.09,0,0,1-.09-.06,11,11,0,0,0-2.84-4.39Z"/><path class="cls-19" d="M221.69,167.58a.07.07,0,1,1,.12-.08c.39.6.86,1.19,1.32,1.77a12.28,12.28,0,0,1,2.07,3.22.06.06,0,0,1,0,.09.06.06,0,0,1-.09,0,12.54,12.54,0,0,0-2.06-3.18c-.45-.57-.93-1.17-1.32-1.77Z"/><path class="cls-20" d="M229.65,159.45a1,1,0,0,1-.71,1.72,11.59,11.59,0,0,1-4.18-1.23c-1.74-.84-9.67-4.59-6.48-4.82C220.08,155,227.6,157.47,229.65,159.45Z"/><g class="cls-21"><path class="cls-22" d="M227.69,161h0a8.52,8.52,0,0,0-4.33-.29c-1.67.19-3.25.38-5-1.28a.09.09,0,0,1,0-.13.09.09,0,0,1,.13,0c1.65,1.6,3.12,1.43,4.82,1.23a8.78,8.78,0,0,1,4.41.31.1.1,0,0,1,.06.12A.1.1,0,0,1,227.69,161Z"/></g><path class="cls-20" d="M197.31,124.41,186.69,88.8l-12.37,24.75,5,16a11.93,11.93,0,0,0,1.74-.7C186.25,126.74,191.87,125.73,197.31,124.41Z"/><path class="cls-23" d="M178.65,127.15l-.17-.49c.08,0,8.72-3,12.86-4.21s10.14-2.42,10.2-2.44l.1.51c-.06,0-6,1.22-10.15,2.42S178.73,127.12,178.65,127.15Z"/><path class="cls-23" d="M177.82,124.85l-.17-.48c.09,0,8.72-3,12.86-4.21s10.14-2.42,10.2-2.44l.1.51c-.06,0-6,1.22-10.15,2.42S177.9,124.82,177.82,124.85Z"/><path class="cls-18" d="M181,51.17l15.92,8.95,12.61-8.93,6.66,2.55a2.4,2.4,0,0,0,3.11-1.37l2.78-6.65,2.59.05a1.17,1.17,0,0,0,1.2-1.29c-.18-1.82-.51-5.07-.76-6.71a8.05,8.05,0,0,1,.14-2.26c.14-.87.31-1.85.39-2.83.15-2-.12-4.13-2-5.57-3.79-2.84-13.77-7.3-18.77-1.94A21.18,21.18,0,0,0,199.4,37.1Z"/><path class="cls-19" d="M216,30.39a10.48,10.48,0,0,0,6.39,4.77,7.56,7.56,0,0,0,2.88.35c.14-.87.31-1.85.39-2.83l-.11-.07a5.45,5.45,0,0,0-1.64-.54Z"/><path class="cls-24" d="M197.8,23.7c2.35-3.07,6.61-4.82,10-3.05,0-2.15,2-3.44,4-3.88a4.93,4.93,0,0,1,5.07,1.85,8.56,8.56,0,1,1,1.29,13.46A8.23,8.23,0,0,1,217,31.2c-1.5-.53-2.88.31-4.19,1.26a19.62,19.62,0,0,0-1.64,1.38,2.44,2.44,0,0,0-1.9-.61,3.22,3.22,0,0,0-2.45,1.44,4.83,4.83,0,0,0-.78,2.8,5.07,5.07,0,0,0,0,.55,2.88,2.88,0,0,1-1.19.81A5,5,0,0,1,201,38.3a5.28,5.28,0,0,1-1.9-1.57,2.91,2.91,0,0,1-.5-2c-.11-.11-.22-.21-.32-.32A8.59,8.59,0,0,1,197.8,23.7Z"/><polygon class="cls-19" points="206.87 39.39 206.1 38.02 204.91 38.83 206.87 39.39"/><path class="cls-19" d="M208.25,34.78A2.13,2.13,0,0,0,207.5,37l2.26-1C211.84,35,209.56,33.78,208.25,34.78Z"/><path class="cls-24" d="M219,36a.61.61,0,0,0,.26.08,11.47,11.47,0,0,1,4.4.91.49.49,0,0,0,.38-.9,12.66,12.66,0,0,0-4.77-1,.51.51,0,0,0-.5.49A.49.49,0,0,0,219,36Z"/><path class="cls-24" d="M221.31,38.68c-.34.53-.41,1.08-.17,1.24s.72-.15,1.05-.68.41-1.09.17-1.24S221.64,38.15,221.31,38.68Z"/><circle class="cls-25" cx="217.49" cy="41.06" r="2.79"/><rect class="cls-22" x="219.74" y="45.9" width="0.49" height="2.68" transform="translate(29.44 166.9) rotate(-44.25)"/><path class="cls-19" d="M216.17,53.74s-6.62-5.93-9-11.55c-.84,2,2.37,9,2.37,9Z"/><path class="cls-18" d="M213.15,113.07a18.94,18.94,0,0,1-2.33-7.95c-7.76,1.75-14.2,1.64-21.46,4.85l1,7.59a6.33,6.33,0,0,0,1.65,3.75l28.05,28.91a29.83,29.83,0,0,1,11.56-6.64Z"/><path class="cls-26" d="M250.67,158.29c-3.37-1.58-4.1-5.1-1.32-7.57l-5.8-7.82c-7.37,12.71-24.2,19.78-29,33.67s-9.46,28.86-14.54,42.64-6.85,30,.7,42.6c6.74,11.23,19.73,17.45,32.67,19.49,8.86,1.4,18.4,1,26.14-3.53,10.45-6.13,15.65-19,15.13-31.1s-5.93-23.51-12.64-33.59-26.73-31.68-29-40.24C230.7,164.06,241.93,158.9,250.67,158.29Z"/><path d="M220.85,257.35a7.07,7.07,0,0,1-2.52-.46,7.33,7.33,0,0,1-4.61-6.15l.19,0a7,7,0,0,0,11.83,4.52l.14.14A7.35,7.35,0,0,1,220.85,257.35Z"/><path d="M239,271.43a32.25,32.25,0,0,1-4.9-.38l0-.19a32.33,32.33,0,0,0,23.59-5.6l.11.16A32.54,32.54,0,0,1,239,271.43Z"/><path d="M242.85,245.39a11.71,11.71,0,0,1-6.27-1.79l.1-.16a11.69,11.69,0,0,0,12.15.11l.1.17A11.71,11.71,0,0,1,242.85,245.39Z"/><rect x="260.06" y="220.99" width="0.19" height="7.79" transform="translate(-26.1 34.33) rotate(-7.19)"/><path d="M217.28,224.65a8.92,8.92,0,0,1-4-1,8.28,8.28,0,0,1-4.44-5.56l.19,0a8.46,8.46,0,0,0,11.27,5.77l.08.17A7.4,7.4,0,0,1,217.28,224.65Z"/><path d="M266.75,255.36l-.36,0,0-.19a3.43,3.43,0,0,0,2.22-6.31l.1-.16a3.62,3.62,0,0,1-2,6.68Z"/><path d="M238.7,196.22a53.46,53.46,0,0,1-11.1-19.89l.18-.06a53.15,53.15,0,0,0,11.07,19.83Z"/><rect x="211.59" y="194.77" width="21.78" height="0.19" transform="translate(-4.44 384.54) rotate(-81.11)"/><rect x="238.35" y="151.54" width="7.43" height="0.19" transform="translate(-43.04 169.04) rotate(-35.56)"/><path class="cls-27" d="M244.32,160.45c0-.09,0-.19,0-.29a8.72,8.72,0,0,0-2.35-4.4v0a4.15,4.15,0,0,0-.27-.32,26.11,26.11,0,0,0-3.9-3.51,11.67,11.67,0,0,0-1.66-1.29l-.41-.49-.15-.14-3.66-8c-4.31,1.19-9.81,5.75-13.25,8.77l1.06.65A18.41,18.41,0,0,1,226,158h0a14.06,14.06,0,0,0,3.44,4,12.84,12.84,0,0,1,1.94,1.75c.62.69,1.1,1.18,1.24,1.33.39.45,1.09,4.61,2.13,4.75s1.26-1.37,1.26-1.37c2.18.26,2.77-1.18,2.77-1.18a3.29,3.29,0,0,0,3.35-2.1l.11,0c.83,1.73.09,4.06,1.52,3.92,1.16-.12,1.26-2,1.29-3.17A17.76,17.76,0,0,0,244.32,160.45Z"/><path class="cls-27" d="M185.58,269.9s-2.87-1.51-2.91-3.17-21-.66-21-.66l-1,7s14.88,3.73,18.85,2.73a11.72,11.72,0,0,0,6-3.6Z"/><path class="cls-28" d="M182.11,267.69c-11.59,4.57-20.87,1.16-20.87,1.16l.39-2.78S178.53,266.28,182.11,267.69Z"/><path class="cls-26" d="M203.78,276.68a82.47,82.47,0,0,1-19.14-7.47,3.77,3.77,0,0,1,0,.58,3.45,3.45,0,0,1-2.2,2.92,10.09,10.09,0,0,1-3.79.61c-4.39.14-5.65.42-10.19-.13-2.43-.29-5.58-.75-7.52-2.6a.77.77,0,0,0-1.25.32,21.35,21.35,0,0,0-1,7.55,3.29,3.29,0,0,0,3.3,3.3c9.84,0,39.09-.05,41.58,0C206.62,281.88,206.57,277.28,203.78,276.68Z"/><rect class="cls-8" x="158.89" y="280.71" width="46.87" height="4.17" transform="translate(9.01 -5.61) rotate(1.81)"/><path class="cls-27" d="M115.33,268.13s-2.86-1.52-2.9-3.17-21-.66-21-.66l-1,7S105.28,275,109.26,274a11.66,11.66,0,0,0,6-3.6Z"/><path class="cls-28" d="M111.86,265.92C100.28,270.49,91,267.07,91,267.07l.4-2.77S108.28,264.51,111.86,265.92Z"/><path class="cls-26" d="M133.53,274.9a82.79,82.79,0,0,1-19.14-7.46,5.44,5.44,0,0,1,0,.58,3.47,3.47,0,0,1-2.2,2.92,10.56,10.56,0,0,1-3.8.61c-4.38.14-5.64.41-10.19-.13-2.42-.29-5.57-.75-7.52-2.6a.75.75,0,0,0-1.24.32,21.13,21.13,0,0,0-1,7.55A3.27,3.27,0,0,0,91.78,280c9.84,0,39.09,0,41.59,0C136.38,280.11,136.32,275.51,133.53,274.9Z"/><rect class="cls-8" x="88.65" y="278.94" width="46.87" height="4.17" transform="translate(8.91 -3.39) rotate(1.81)"/><path class="cls-29" d="M188.27,267.27,197,210.89a8.6,8.6,0,0,0-.37-4.15l-29.38-85.36L121.46,118s-6.16,9.33-8,29.1c-.38,3.94-5.32,41.52-8.55,63.88-.89,6.18-18.65,53.31-18.65,53.31s19.75,4.45,30.45.82l20.69-51.42a18.83,18.83,0,0,0,.89-2.85l9.18-40.12,19.23,42.77-6.46,52.91S167,270.11,188.27,267.27Z"/><path class="cls-27" d="M212.49,104.78c-7.76,1.74-16.24,2.16-23.5,5.38l-1.87-12.88-18.81,26.06s-47.1-4.23-46.85-5.35c2.26-10.2,11-31.26,27.79-49.42,8.59-9.26,19.08-16.54,31.56-18.74,7.55-1.33,19.69,1.21,25.68,12.81a31.73,31.73,0,0,1,3.06,9.69C210.09,75.78,211.6,93.9,212.49,104.78Z"/><path class="cls-19" d="M241,160a.08.08,0,0,1,.16,0,13.81,13.81,0,0,0,.48,1.86,8.41,8.41,0,0,1,.56,3.23.08.08,0,0,1-.16,0,8.18,8.18,0,0,0-.55-3.18A15.41,15.41,0,0,1,241,160Z"/><path class="cls-19" d="M238.07,162a.08.08,0,0,1,.06-.08.07.07,0,0,1,.09.05,10.5,10.5,0,0,1,.69,5.3.07.07,0,0,1-.09.06.08.08,0,0,1-.06-.1,10.36,10.36,0,0,0-.69-5.22Z"/><path class="cls-19" d="M235,162.4a.08.08,0,0,1,.16,0,21,21,0,0,0,.44,2.18,12,12,0,0,1,.5,3.83.1.1,0,0,1-.09.07.09.09,0,0,1-.07-.09,11.81,11.81,0,0,0-.49-3.78,18.5,18.5,0,0,1-.45-2.19Z"/><path class="cls-27" d="M243.45,153.53a1,1,0,0,1-.49,1.83,13,13,0,0,1-4.63-.63c-2-.59-6.15-4.13-2.8-4.82C237.43,149.52,241,151.86,243.45,153.53Z"/><polygon class="cls-28" points="147.45 170.71 137.85 146.35 142.67 190.55 147.45 170.71"/><path class="cls-28" d="M186.55,80.54l.57,16.74a79.79,79.79,0,0,1-4.55,6.92Z"/><path class="cls-30" d="M103.27,262.81a50.9,50.9,0,0,0,9.76-.51l-.12-.71c-9,1.53-21.43-.66-21.56-.69l-.13.71A92.75,92.75,0,0,0,103.27,262.81Z"/><path class="cls-30" d="M170.59,263.24A67.44,67.44,0,0,0,178,263c4.41-.35,7.84-1,7.87-1l-.13-.71s-3.43.61-7.81,1c-4,.32-9.74.47-14.08-.61l-.18.69A32.81,32.81,0,0,0,170.59,263.24Z"/><g class="cls-31"><path class="cls-32" d="M181.83,259.19l-.5-.13c.11-.43,11-43.65,11-50s-28.42-78.44-28.71-79.17l.48-.19c1.17,3,28.75,73,28.75,79.36S182.28,257.41,181.83,259.19Z"/></g><g class="cls-31"><polygon class="cls-32" points="108.71 259.48 108.23 259.29 129 206.98 139.77 156.97 140.27 157.08 129.5 207.13 129.49 207.15 108.71 259.48"/></g><rect class="cls-32" x="146.41" y="92.9" width="0.51" height="48.25" transform="translate(12.94 248.64) rotate(-83.13)"/><rect class="cls-32" x="147.84" y="89.19" width="0.52" height="50.19" transform="translate(17.54 248.26) rotate(-83.4)"/><path class="cls-32" d="M188.74,107.42l-.12-.49c.08,0,8.94-2.24,13.18-3.08s10.3-1.54,10.36-1.55l.06.51c-.06,0-6.11.7-10.32,1.54S188.83,107.4,188.74,107.42Z"/><path class="cls-32" d="M188.65,104.77l-.12-.49c.09,0,8.95-2.24,13.18-3.09s10.31-1.53,10.37-1.54l.06.51c-.06,0-6.11.69-10.33,1.54S188.74,104.75,188.65,104.77Z"/></g><g id="bottle"><path class="cls-17" d="M66.07,319.49c-5.74,1.74-13.93-.49-19.48-1.3-4.52-.67-9.73.62-14.27,0-1.5-.2-5-1.27-4.62-2.69.44-1.69,4.75-1.42,6.65-1.41,6.88,0,14.36-.67,21.13,0A17.69,17.69,0,0,1,66.07,319.49Z"/><path class="cls-33" d="M30,287.82c-.26-.29.27-1.35,1-2.34a10.7,10.7,0,0,1,1-1.23c.53-.55,1-.9,1.26-.78A36.06,36.06,0,0,1,36.62,286l0,.58-.67.89-2,2.67-.54.21A36.6,36.6,0,0,1,30,287.82Z"/><path class="cls-34" d="M30,287.82c-.26-.29.27-1.35,1-2.34a12,12,0,0,0,1.21.91,6.38,6.38,0,0,0,.87.51,6.14,6.14,0,0,0,2.42.58l.48,0-2,2.67-.54.21A36.6,36.6,0,0,1,30,287.82Z"/><path class="cls-35" d="M63.93,323.57l.55.38Z"/><path class="cls-35" d="M64.59,324l.53.38Z"/><path class="cls-35" d="M62.58,322.6c-2.39-1.72-4.74-3.51-6.31-4.92A79.31,79.31,0,0,0,62.58,322.6Z"/><path class="cls-35" d="M65.22,324.47l.55.39Z"/><path class="cls-35" d="M62.59,322.62l.6.43Z"/><path class="cls-35" d="M63.27,323.1l.56.39Z"/><path class="cls-36" d="M63.83,323.49l.1.08Z"/><path class="cls-36" d="M63.19,323.05l.08.05Z"/><path class="cls-36" d="M62.58,322.6v0Z"/><path class="cls-36" d="M65.12,324.41l.1.06Z"/><path class="cls-36" d="M64.48,324l.11.08Z"/><polygon class="cls-36" points="65.77 324.86 65.79 324.87 65.79 324.87 65.77 324.86"/><polygon class="cls-36" points="56.27 317.68 56.27 317.68 56.27 317.68 56.27 317.68"/><path class="cls-37" d="M65.22,324.47l-.1-.06-.53-.38-.11-.08-.55-.38-.1-.08-.56-.39-.08-.05-.6-.43v0a79.31,79.31,0,0,1-6.31-4.92h0c.63,0,1.76-.76,3.14-2.06,1.49,1.25,3.4,2.69,5.33,4.08l0,0,.6.43.08.05.55.4.11.07.55.39.11.07.53.38.1.06.55.39h0l1.13.78c-1.49,1.42-2.7,2.22-3.3,2.12h0Z"/><path class="cls-38" d="M84.48,312S71.8,301.26,67.67,299.43c-3.84-1.69-11.35-2.38-14.45-2.34a3.78,3.78,0,0,1-2.34-.77l-11.57-8.66.07-.77a8.61,8.61,0,0,0-2-1.53c-.34-.16-1,.31-1.72,1.05-1.49,1.55-3.21,4.27-2.7,4.84a8.54,8.54,0,0,0,2,1.53l.72-.28,1.14.85,10.43,7.81a3.72,3.72,0,0,1,1.39,2c.85,3,3.62,10,6.33,13.2a14.12,14.12,0,0,0,1.29,1.3c.63,0,1.76-.76,3.14-2.06A44.47,44.47,0,0,0,64.26,310c.51-.68,1-1.35,1.45-2a1,1,0,0,1,1.48-.25l7.94,5.94a1.06,1.06,0,0,1,.24,1.43c-.47.68-1,1.38-1.49,2.09a45.46,45.46,0,0,1-4.79,5.51c-1.49,1.42-2.7,2.22-3.3,2.12,3,2.07,6,4.1,6,4.1l.06-.08c.94.7,4.52-2.51,8-7.17.37-.49.72-1,1.06-1.47C83.75,316.18,85.31,312.64,84.48,312Z"/><path class="cls-39" d="M65.71,308a1,1,0,0,1,1.48-.25l7.94,5.94a1.06,1.06,0,0,1,.24,1.43c-.47.68-1,1.38-1.49,2.09a45.46,45.46,0,0,1-4.79,5.51L68,322h0l-.55-.39-.1-.06-.53-.38-.11-.07-.55-.39L66,320.6l-.55-.4-.08-.05-.6-.43,0,0c-1.93-1.39-3.84-2.83-5.33-4.08A44.47,44.47,0,0,0,64.26,310C64.77,309.36,65.26,308.69,65.71,308Z"/><path class="cls-40" d="M62,317.65a45.12,45.12,0,0,0,4.23-4.84.66.66,0,0,1,.93-.12.66.66,0,0,1,.13.92h0A46.9,46.9,0,0,1,63,318.46Z"/><path class="cls-41" d="M60.1,320.78c-.44-.33-.87-.66-1.28-1a.76.76,0,0,1,.27-.05s.68,0,2.67-1.88l.21-.21,1.07.81-.37.36A11.57,11.57,0,0,1,60.1,320.78Z"/><path class="cls-40" d="M64.74,319.7l-.54-.4a45.06,45.06,0,0,0,4.22-4.83.67.67,0,0,1,.93-.13.68.68,0,0,1,.12.93h0a45.17,45.17,0,0,1-4.19,4.82l-.52-.37Z"/><path class="cls-41" d="M61.3,321.4s.69,0,2.68-1.88l.22-.22.54.4,0,0,.52.37-.4.39a12,12,0,0,1-2.54,1.95c-.45-.32-.89-.64-1.32-1A.64.64,0,0,1,61.3,321.4Z"/><path class="cls-42" d="M69.09,322.75,74,326.07,74,326c.84.63,3.79-1.87,6.9-5.74-.34.49-.69,1-1.06,1.47-3.49,4.66-7.07,7.87-8,7.17l-.06.08s-3-2-6-4.1C66.39,325,67.6,324.17,69.09,322.75Z"/><path class="cls-42" d="M35.09,288.35a8.54,8.54,0,0,0,2,1.53l.72-.28,1.14.85,10.43,7.81a3.71,3.71,0,0,1,1.39,2c.85,3,3.62,10,6.33,13.2a15.57,15.57,0,0,0,1.29,1.29h0c.3.27.63.55,1,.84-1.38,1.3-2.51,2.07-3.14,2.06a14.12,14.12,0,0,1-1.29-1.3c-2.71-3.2-5.48-10.21-6.33-13.2a3.72,3.72,0,0,0-1.39-2l-10.43-7.81-1.14-.85-.72.28a8.54,8.54,0,0,1-2-1.53c-.51-.57,1.21-3.29,2.7-4.84C35.11,287.31,34.85,288.08,35.09,288.35Z"/><path class="cls-43" d="M38.33,288.8c.06.07-.76,2.44-1.5,4.55l-1.14-.85-.72.28S38.24,288.68,38.33,288.8Z"/><path class="cls-44" d="M65.55,301a2.78,2.78,0,0,1,1.3.57,1,1,0,0,1,.2,1.3,1.51,1.51,0,0,1-1,.4l-4.91.54a11.68,11.68,0,0,1-3,.07,3.83,3.83,0,0,1-2.57-1.46c-.39-.56-.78-2-.15-2.51s2.23-.09,3,0A43.32,43.32,0,0,1,65.55,301Z"/><path class="cls-2" d="M106.3,323c-.41-2.22-5.71-5.65-8.35-6.56-3.68-1.28-7.83-.45-11.71-.72-6.72-.47-11.63-3.14-18.4-1.52C60.91,315.92,54.1,316.09,47,317c-2.9.38-6,.17-8.71,1.41-2,.92-8.75,5.13-8.76,6.67-.09,7.46,42.08,4.22,47.41,3.92C88.7,328.38,99.81,324.58,106.3,323Z"/><path class="cls-5" d="M78.86,319.59a.44.44,0,1,0,.44-.43A.44.44,0,0,0,78.86,319.59Z"/><path class="cls-5" d="M64.41,322.8a.54.54,0,1,0,.77,0A.55.55,0,0,0,64.41,322.8Z"/></g><g id="glass"><path class="cls-17" d="M515.5,305.06a1.23,1.23,0,0,1-.21,2.39,136.64,136.64,0,0,1-18.85,1c-5.25,0-9.85-.58-15.11-.54-1.73,0-8.23.34-7.91-.79.38-1.34,6.31-1,8.49-1.23,7.9-.76,16.61-1.32,24.44-1.56C509.47,304.19,512.88,304.2,515.5,305.06Z"/><g id="glass_of_water" data-name="glass of water"><rect class="cls-45" x="473.96" y="302.92" width="26.84" height="1.67" transform="translate(-21.68 37.93) rotate(-4.36)"/><g class="cls-46"><path class="cls-47" d="M515.53,296.79l-2,10.67a2.07,2.07,0,0,1-2.21,1.67l-26.37-2.27,4-21.12,25.22,8.71A2.07,2.07,0,0,1,515.53,296.79Z"/><polygon class="cls-48" points="490 288.44 501.19 292.41 500.84 294.24 489.48 291.13 490 288.44"/></g></g><path class="cls-2" d="M529.15,310.68c-.27-1.52-3.68-3.85-5.38-4.48-2.37-.87-5-.3-7.54-.49-4.32-.32-7.48-2.14-11.84-1s-8.84,1.26-13.41,1.9c-1.87.27-3.89.12-5.6,1-1.29.63-5.63,3.5-5.65,4.55-.05,5.09,27.09,2.88,30.52,2.67C517.82,314.32,525,311.73,529.15,310.68Z"/><path class="cls-5" d="M491.86,309.9a.54.54,0,1,0,.77,0A.55.55,0,0,0,491.86,309.9Z"/></g><g id="paper"><path class="cls-17" d="M328,214.44c-3.29,2.49-9,1.46-12.71,1.43-3,0-6.07,2-9.1,2-1,0-3.46-.55-3.52-2-.08-1.7,2.73-2,3.94-2.3,4.39-.94,9-2.64,13.49-2.93C322.88,210.48,326.28,212.41,328,214.44Z"/><path class="cls-49" d="M324.78,206a5.82,5.82,0,0,0-3.37-3.31,25.56,25.56,0,0,1-2.61-.83,2.22,2.22,0,0,1-1.41-2.14c-1.35-.59-2.9.29-3.88,1.38s-1.72,2.45-3,3.24c-1.46.93-3.3.89-5,1s-3.64.6-4.53,2.08a1.39,1.39,0,0,0-.16,2.11,4.34,4.34,0,0,0,2.21,1,3.54,3.54,0,0,1,2.12,1.13c.81,1.13.18,2.83.93,4a2.69,2.69,0,0,0,3,.89,9.46,9.46,0,0,0,2.89-1.68,5.94,5.94,0,0,1,3-1.36c1.37-.1,2.71.67,4.08.5a5.93,5.93,0,0,0,3.23-2c3-3,6.66-6.39,8.6-10.25C328.81,202.65,326.67,204.7,324.78,206Z"/><path class="cls-50" d="M314.74,213.28l.18-.23a13.12,13.12,0,0,0,2.46-10l-.31.05a12.78,12.78,0,0,1-2.23,9.51l0-.08-.3.11Z"/><rect class="cls-50" x="309.95" y="206.51" width="3.1" height="0.32" transform="translate(-9.78 15.55) rotate(-2.82)"/><rect class="cls-50" x="320.64" y="208.08" width="4.51" height="0.32" transform="translate(-48.3 307.42) rotate(-47.78)"/><path class="cls-50" d="M320.92,206.15a5.33,5.33,0,0,0-1.6-3.44l-.22.23a5,5,0,0,1,1.5,3.23Z"/><path class="cls-50" d="M307.68,213.36a5.3,5.3,0,0,1,.57-5.84l-.24-.2a5.59,5.59,0,0,0-.6,6.19Z"/><rect class="cls-50" x="304.47" y="209.21" width="1.8" height="0.32" transform="translate(-56.92 133.02) rotate(-22.53)"/><path class="cls-17" d="M339.84,328.73c-3.75,1.73-9.1-.49-12.72-1.31-2.95-.66-6.36.63-9.33,0-1-.2-3.25-1.27-3-2.7.29-1.68,3.1-1.41,4.34-1.41,4.5,0,9.38-.66,13.8,0C335.65,323.76,338.55,326.38,339.84,328.73Z"/><path class="cls-49" d="M349.28,323.21a8.51,8.51,0,0,0-1.65-6.71c-.82-1.05-1.9-1.91-2.62-3a3.27,3.27,0,0,1-.1-3.75c-1.23-1.77-3.83-1.86-5.89-1.25s-4,1.72-6.17,1.75c-2.53,0-4.79-1.42-7-2.58s-5-2.05-7.24-.9c-1.19-.11-2,1.34-1.81,2.52a6.3,6.3,0,0,0,2,2.95,5.2,5.2,0,0,1,1.78,3c.14,2-1.95,3.67-1.92,5.7a4,4,0,0,0,3.06,3.41,14,14,0,0,0,4.88.13,8.7,8.7,0,0,1,4.8.62c1.78.94,2.86,2.93,4.7,3.76s3.74.39,5.58,0c6.09-1.43,13.2-2.84,18.58-6.16C356.9,322.09,352.66,323,349.28,323.21Z"/><path class="cls-50" d="M331.22,324.52l.4-.15a19.14,19.14,0,0,0,10.73-10.55l-.42-.17a18.7,18.7,0,0,1-10.08,10.13l0-.12-.45-.1Z"/><rect class="cls-50" x="332.03" y="311.54" width="0.46" height="4.54" transform="translate(-102.93 453.36) rotate(-61.14)"/><rect class="cls-50" x="341.94" y="324.28" width="6.59" height="0.46" transform="translate(-76.47 108.5) rotate(-16.1)"/><path class="cls-50" d="M344.39,320.39a7.75,7.75,0,0,0,.64-5.51l-.44.11a7.33,7.33,0,0,1-.61,5.18Z"/><path class="cls-50" d="M322.37,319.2a7.74,7.74,0,0,1,5.19-6.83l-.14-.44a8.2,8.2,0,0,0-5.51,7.25Z"/><rect class="cls-50" x="322.33" y="311.14" width="0.46" height="2.64" transform="translate(-37.16 581.3) rotate(-80.86)"/></g><g id="lollipop"><path class="cls-17" d="M907.61,312.24a.94.94,0,0,1-.32,1.81c-4,.13-8.78-.67-12.21-1s-7.61.33-11.16,0c-1.17-.1-3.9-.67-3.61-1.41s3.71-.74,5.19-.74c5.38,0,11.23-.35,16.53,0A18.55,18.55,0,0,1,907.61,312.24Z"/><path class="cls-51" d="M896.09,308.4q-7.3.81-14.65,1.34l-.1-.88q7.33-.53,14.64-1.34Z"/><path class="cls-52" d="M897.9,313.08a6.2,6.2,0,0,1-2.63-4.84,6.05,6.05,0,0,1,3.86-6.47S895.6,306.05,897.9,313.08Z"/><path class="cls-52" d="M901.19,314.16a6.44,6.44,0,0,1-3.29-1.08c-2.3-7,1.21-11.28,1.23-11.31a7,7,0,0,1,1.62-.42A39.31,39.31,0,0,0,901.19,314.16Z"/><path class="cls-52" d="M900.75,301.35a6.44,6.44,0,1,1,.44,12.81A39.31,39.31,0,0,1,900.75,301.35Z"/><path class="cls-53" d="M901.77,310.32a22.08,22.08,0,0,0,1,4,.37.37,0,0,1-.3.48,5,5,0,0,1-2.58-.36.34.34,0,0,1-.18-.19,19.92,19.92,0,0,1-.4-13.08.36.36,0,0,1,.27-.25,19,19,0,0,1,2.45-.29.35.35,0,0,1,.36.45A22.32,22.32,0,0,0,901.77,310.32Z"/><g class="cls-54"><path class="cls-53" d="M902.71,302.3a1.05,1.05,0,0,0-.84.92.73.73,0,0,0,0,.25.31.31,0,0,0-.06.13c-.25.71.31,1.35.7,1.88a20.09,20.09,0,0,1,1.25,1.81,7,7,0,0,1,.48.95,6.75,6.75,0,0,0,.46,1l0,.07a2.05,2.05,0,0,0,.55.84,1.21,1.21,0,0,0,1.28.25,1,1,0,0,0,.49-.51.36.36,0,0,0,.15-.19,2.82,2.82,0,0,0,.2-1.15c0-.15,0-.31,0-.45a6.47,6.47,0,0,0-1.51-4.5,4.09,4.09,0,0,0-1.85-1.18,2.33,2.33,0,0,0-.46-.08A1.69,1.69,0,0,0,902.71,302.3Zm1.22,3Z"/></g><path class="cls-55" d="M906.06,307.57l-.09.05a.51.51,0,0,0-.26.35.48.48,0,0,0,0,.39l0,0a.48.48,0,0,0,.56.29.54.54,0,0,0,.4-.37.69.69,0,0,0,0-.49.5.5,0,0,0-.43-.27A.5.5,0,0,0,906.06,307.57Zm.15.52h0Zm0,.05h0Zm0,0h0Z"/><path class="cls-55" d="M904.26,303.44a2.59,2.59,0,0,1,1,.58,3.77,3.77,0,0,1,.7.84,3.2,3.2,0,0,1,.27.56,1.34,1.34,0,0,1,.13.68.7.7,0,0,1-.32.54.58.58,0,0,1-.48.05.2.2,0,0,1-.13,0,.72.72,0,0,1-.25-.27,13.69,13.69,0,0,1-.88-1.13l-.37-.37a1.11,1.11,0,0,1-.49-1A.65.65,0,0,1,904.26,303.44Z"/><path class="cls-2" d="M915.48,313.62c-1.15,0-2.3.1-3.46.1a14,14,0,0,1-3.72-.06,20.27,20.27,0,0,1-2-1.17c-1.33-.6-3.11-.34-4.56-.21s-2.23-.33-3.52-.38c-1.78-.08-3.59,0-5.38,0h-4.55a25.59,25.59,0,0,0-4.55.18c-1.12.2-2.21.57-3.32.8a25.22,25.22,0,0,1-4.43.46c-1.29,0-3.17-.27-4.34.46-1.73,1.09.76,2.07,2,2.24,3.62.5,7.59.08,11.25.08H896.6c5.77,0,11.83.59,17.55-.12.85-.11,5.44-.81,4.49-2.18C918,312.9,915.25,313.23,915.48,313.62Z"/><path class="cls-56" d="M888.34,314.34a.63.63,0,1,0,.63-.62A.63.63,0,0,0,888.34,314.34Z"/></g><g id="woman"><path class="cls-17" d="M878.42,280.88c13-3.95-21.78-3.05-24-3.34-16.92-2.24-32-1.69-49.27-.84a190.81,190.81,0,0,1-27.59-.79c-9.56-.82-18.54,2.28-28,2.29-2.82,0-47.24-1.42-45.24,5.69.43,1.5,30.71,1.86,34.21,1.79,14-.26,26.64-4.15,40.4-2.51,16.68,2,35.36,3.81,52.22,1.43C848.17,282.2,861.86,283,878.42,280.88Z"/><path class="cls-18" d="M824.39,231.62c-.24,1.39,2.42,31.15.48,37.23s12,5.09,11.33,2.88,5.84-31.64,5.47-37.45Z"/><path class="cls-57" d="M825.28,263.53c4.43.88,6.43.78,11.25,3.57.27-1.8,1.36-4.82,1.15-6.68-.1,0-2,.52-2.15.51-2.17-.08-4.42.2-6.59.3l-3.38.15C824.9,261.41,826,263.76,825.28,263.53Z"/><path class="cls-58" d="M840.8,278.22c-.12-1.07-1.67-8-3.58-9.74s-2.48,2.61-4.86,2.49-7.16-4.05-7.16-4.05-2,5-6.51,5.89S808,276.08,808,278.22C808,279.15,840.8,278.22,840.8,278.22Z"/><polygon class="cls-26" points="807.98 281.19 840.8 281.4 840.8 277.27 807.98 278.22 807.98 281.19"/><path class="cls-18" d="M848.32,272.83s11.36,7.37,11.52-4.84v0c0-1.28.12-3.61.29-6.64.57-10.34,1.85-28.67,2.48-39.63l-13.13,20c.56,3.47.15,12.58-.33,20.06-.06.87-.12,1.71-.17,2.52C848.64,269.16,848.32,272.83,848.32,272.83Z"/><path class="cls-57" d="M859.84,268v0c0-1.28.12-3.61.29-6.64a3.4,3.4,0,0,0-.57-.08c-2.17-.07-4.43.2-6.61.3l-3.39.15-.41.07c-.06.87-.12,1.71-.17,2.52A90.51,90.51,0,0,1,859.84,268Z"/><path class="cls-58" d="M854.84,267.56a10.25,10.25,0,0,0-2.6-.83c-1.9-.31-3.49,1.36-4.69,2.86l-2.81,7a1.64,1.64,0,0,0,1.8,2.62l16.65-.2c.61-1.88-.72-3.78-2-5.31s-1.31-2.22-2.6-3.66A14.41,14.41,0,0,0,854.84,267.56Z"/><path class="cls-26" d="M844.28,281.07l18.9.12s.16-3,.16-3c0,.15-7.92-1.27-8.58-1.3a32.72,32.72,0,0,0-8,.63c-1,.21-2,.2-2.44,1.13A8.36,8.36,0,0,0,844.28,281.07Z"/><path class="cls-59" d="M858.51,108.45s4.87,25.7,4.87,31.46-2.21,44.75-2.66,52.28,5.45,68.41,5.45,68.41l-20.07,1.6-6.64-50.51a188.85,188.85,0,0,1,2.21,25.25,189.1,189.1,0,0,1-2.21,25.26H823.34s-4.49-46.87-5.38-54.84-5.09-34.23-5.09-48.41a334.51,334.51,0,0,1,3.55-47C818.63,97.82,858.51,108.45,858.51,108.45Z"/><path class="cls-60" d="M841.74,239l-1-18c-.15-2.72-4.26-17.88-4.7-29.69-.42-11.42-2.2-39.85-3.55-43.9l-2.66-8-.21.07,2.66,8c1.34,4,3.12,32.42,3.54,43.84C836.24,203.15,841.59,236.26,841.74,239Z"/><polygon class="cls-61" points="845.22 263.53 866.11 263.4 866.11 258.09 845.22 258.21 845.22 263.53"/><rect class="cls-61" x="822.46" y="258.21" width="18.61" height="5.32" transform="translate(1663.54 521.73) rotate(-180)"/><path class="cls-62" d="M779.2,97.82s16.39-12.41,17.28-14.18,17.28-31.9,20.38-35.45,14.84-4.65,22.37-4.65,19.72.22,23.27,2.88,31.68,37.44,32.56,40.1-.66,6-.66,6S884,88.73,878,90.28L866,73.45A115.09,115.09,0,0,0,861.61,89c-1.33,7.09-.44,21.71-.44,21.71s-33.77-4.21-43.58-1.55c0,0,.23-11,.38-13.29.66-10-1.11-11.74-1.11-15.73,0,0-4.21,11.74-5.54,13.52s-23.93,14.17-23.93,14.17S782.3,100.47,779.2,97.82Z"/><path class="cls-63" d="M866.17,73.48s-1.8-2.2-2.93-3.56a38.81,38.81,0,0,0-4.88-5.2l-.14.17c1.74,1.43,5.2,10.56,4.37,18.81C862.41,85.47,866.17,73.48,866.17,73.48Z"/><path class="cls-63" d="M814.14,87.31l2.71-7.17c0-6.62-.55-10.88,1.63-17.08l-.21-.07A91.47,91.47,0,0,0,814.14,87.31Z"/><path class="cls-63" d="M877.3,89.31A12.3,12.3,0,0,1,886.42,85v-.23a12.56,12.56,0,0,0-9.29,4.42Z"/><path class="cls-18" d="M779.2,97.82s-11.08,6.64-14.18,8.41,7.53,8.42,7.53,8.42l14.62-7.09S785.84,104,779.2,97.82Z"/><path class="cls-27" d="M764.58,105.79l10.19,12s-8.87,1.33-11.52,2.22-8.87,3.1-10.64,4-16.39,2.66-18.16,0,2.65-8,5.76-9.31,10.19-2.66,13.29-3.54S764.58,105.79,764.58,105.79Z"/><path class="cls-64" d="M820.17,18.19a34,34,0,0,0,3.63,9c1.41,2,2.44-3.09,4.1-1.29a19.43,19.43,0,0,0,8.57,5.74c3.33,1,3.17,2.6,5.91.45a16.71,16.71,0,0,0,5.27-9.85,6.27,6.27,0,0,0-.09-2h.28c3.44.09,4.18,9.57,5.63,14a12.73,12.73,0,0,0,2.23,4.57,4.25,4.25,0,0,0,4.54,1.46,9.18,9.18,0,0,1-1-3.11,25.23,25.23,0,0,1-.18-4.6c.16-6.35.46-12.83-1.33-18.91S851.55,1.77,845.45.28a6.91,6.91,0,0,0-4.58.22l0,0a3.7,3.7,0,0,0-2.14,3.7l0,.15a18.85,18.85,0,0,0-10.11.14A13,13,0,0,0,825.48,6C822.46,8,819.73,14.48,820.17,18.19Z"/><path class="cls-18" d="M820.76,19.94c.23,3.57,1.44,20.89,9.16,20.47.32,0,1.25-.22,1.25-.22v.08c.06.38.33,2.07.66,4a46.67,46.67,0,0,0,1.26,5.9c1,2.41,1,5.68,3.83,5.68,5.82,0,9.83-8.76,10.22-11.86a6.38,6.38,0,0,0-.56-1.87l-1.35-4.4c-.92-2.93-1.91-5.46-2.58-8.45a4.56,4.56,0,0,0,2.22-2.51,3.42,3.42,0,0,0,0-3.23A2.86,2.86,0,0,0,842,22.1a3.35,3.35,0,0,0-1.72.95c-.34.34-.62,1-1.06,1.08s-1.41-.65-1.79-.85A14.77,14.77,0,0,1,832,18.77a9.25,9.25,0,0,0-8.51-4.26C821.17,14.9,820.56,16.82,820.76,19.94Z"/><path class="cls-64" d="M839,23.51c-2.55-4-6.41-8.87-11-10-1.54-.38-4.94-.37-3.35,1.95a14.13,14.13,0,0,0,4,3.72c1.55,1,3.63,2.59,5.39,3.11C836,22.87,838.93,23.44,839,23.51Z"/><path class="cls-65" d="M831.18,40.27c.06.38.33,2.07.66,4,.86-.54,1.95-1.25,2.1-1.38a14.72,14.72,0,0,0,2.6-2.86,16.67,16.67,0,0,0,2.62-7.23A12.55,12.55,0,0,1,831.18,40.27Z"/><path class="cls-64" d="M833.87,23.72a.61.61,0,0,0,.57-.41.6.6,0,0,0-.36-.78,12.08,12.08,0,0,0-6.14-.66c-.33.08-.08.9,0,1.23s.08.48.41.41a10.17,10.17,0,0,1,5.31.17A.78.78,0,0,0,833.87,23.72Z"/><path class="cls-64" d="M821.6,24.33a.52.52,0,0,0,.27-.07,5.89,5.89,0,0,1,2.17-.4h.26a.62.62,0,0,0,.57-.66c0-.33.13-.93-.2-.91h-.82a6.15,6.15,0,0,0-2.52.88.62.62,0,0,0-.28.83A.63.63,0,0,0,821.6,24.33Z"/><path class="cls-65" d="M827.3,30.52a.21.21,0,0,0,.09-.39l-1.77-.92-.12-4.79a.2.2,0,0,0-.21-.2.2.2,0,0,0-.2.21l.12,5,2,1A.19.19,0,0,0,827.3,30.52Z"/><path class="cls-65" d="M827.36,33.22A5.26,5.26,0,0,0,831,31.77a.2.2,0,1,0-.28-.29,4.82,4.82,0,0,1-4.65,1.14.21.21,0,0,0-.26.14.2.2,0,0,0,.14.25A4.88,4.88,0,0,0,827.36,33.22Z"/><path class="cls-65" d="M828.93,34.19a1.75,1.75,0,0,0,1.1-.38.2.2,0,1,0-.25-.32,1.42,1.42,0,0,1-1.26.23.2.2,0,0,0-.26.13.22.22,0,0,0,.14.26A1.89,1.89,0,0,0,828.93,34.19Z"/><ellipse class="cls-64" cx="831" cy="25.76" rx="1.02" ry="1.43"/><path class="cls-64" d="M822.66,26.48c.1.69.55,1.2,1,1.13s.74-.68.64-1.37-.55-1.2-1-1.13S822.55,25.79,822.66,26.48Z"/><path class="cls-65" d="M841.15,24.67a.2.2,0,0,0,.19-.14,1.82,1.82,0,0,1,1.3-1.11,1.78,1.78,0,0,1,1.64.5.2.2,0,1,0,.29-.28,2.18,2.18,0,0,0-3.61.75.2.2,0,0,0,.12.26Z"/><path class="cls-65" d="M844.09,26.26a.2.2,0,0,0,.2-.17,2.71,2.71,0,0,0-1.81-2.93.19.19,0,0,0-.25.13.2.2,0,0,0,.13.26A2.29,2.29,0,0,1,843.89,26a.2.2,0,0,0,.16.24Z"/><path class="cls-66" d="M826.91,8.56a30.28,30.28,0,0,1,8.23-.26,7.9,7.9,0,0,1,2.25.56,8.28,8.28,0,0,1,2,1.16c4.2,3.55,6.37,7.2,8.27,12.22a6.27,6.27,0,0,0-.09-2h.28a28.65,28.65,0,0,0-1.64-8.34,15.14,15.14,0,0,0-2.69-4.52,10.55,10.55,0,0,0-4.81-3.15l0,.15a18.85,18.85,0,0,0-10.11.14,12.59,12.59,0,0,1,3.48.75l.12.07C830.45,5.26,828,7.43,826.91,8.56Z"/><path class="cls-66" d="M840.87.5c.89.25,2,.29,2.57.46a13.55,13.55,0,0,1,9.21,10.83,12.28,12.28,0,0,0,.9,4.15,25.61,25.61,0,0,0,1.94,2.49c1.6,2.27,1.53,5.28,1.23,8s-.74,5.65.29,8.22a4.32,4.32,0,0,0,2.21,2.42,25.23,25.23,0,0,1-.18-4.6c.16-6.35.46-12.83-1.33-18.91S851.55,1.77,845.45.28A6.91,6.91,0,0,0,840.87.5Z"/><path class="cls-26" d="M752.05,124.77c2.91.72,6.14.81,8.5,2.66s3.12,4.64,3.9,7.35L770,154c1.58,5.47,3.17,11,3.17,16.73s-1.78,11.66-6,15.47c-3.53,3.18-8.23,4.54-12.34,6.8-2.48,1.36-2.78,2.59-3.76,5.27s-2,5.58-3,8.39c-1.61,4.71-3.16,9.53-3.33,14.5-.12,3.68.51,7.33.6,11s-.43,7.54-2.58,10.52c-4.58,6.34-13.34,3.39-19.44,1.52-7.07-2.18-14.15-5.37-18.93-11.23-4.45-5.45-6.37-12.57-7.08-19.58a68.4,68.4,0,0,1,11.73-45.34c5.52-7.95,13-15.21,14.62-24.75.84-4.88.07-10,1.7-14.7a15.15,15.15,0,0,1,8.49-8.92c3.07-1.24,7.66-1.77,10.72-.14C747.41,121.09,748.64,123.91,752.05,124.77Z"/><path d="M742.24,193.2a22.65,22.65,0,0,0,9.82-2.24l-.19-.4a22.17,22.17,0,0,1-14.49,1.66l-.1.43A22.44,22.44,0,0,0,742.24,193.2Z"/><path d="M734.54,174.89l.36-.26a26.26,26.26,0,0,1-4.68-19.74l-.43-.08A26.66,26.66,0,0,0,734.54,174.89Z"/><path d="M731.37,230.38a16.41,16.41,0,0,0,10.33-6.46l-.35-.26a15.94,15.94,0,0,1-10.06,6.28Z"/><rect x="727.8" y="220.77" width="0.44" height="10.64" transform="translate(489.88 950.25) rotate(-89.05)"/><path d="M709.61,212.9l.23-.38a12.57,12.57,0,0,1-5.78-11.78l-.44,0A12.83,12.83,0,0,0,709.61,212.9Z"/><path class="cls-67" d="M734.31,123.07a12.63,12.63,0,0,0-5.8,11.29c.23,3.61,2,6.91,3.35,10.28,2.27,5.73,3.27,11.87,4.78,17.85s3.62,12,7.7,16.62,10.46,7.62,16.47,6.22c6.76-1.58,11.36-8.74,11.53-15.44a40.55,40.55,0,0,0-1.33-9.77q-2.52-11.44-5-22.9c-.55-2.48-1.18-5.12-3-6.86a12.74,12.74,0,0,0-4.18-2.3c-4.18-1.66-8.37-3.27-12.39-5.22S738.16,120.67,734.31,123.07Z"/><path class="cls-68" d="M759,139.17a8.12,8.12,0,0,0,0-6.62c-.52-1.18-1.33-2.22-1.73-3.44a3.13,3.13,0,0,1,.78-3.52c-.73-1.92-3.13-2.61-5.19-2.53s-4.14.66-6.14.19c-2.36-.55-4.13-2.43-6-4s-4.16-3.07-6.52-2.52c-1.08-.38-2.21.77-2.27,1.92a6,6,0,0,0,1.14,3.2,5,5,0,0,1,.94,3.24c-.34,1.92-2.67,2.95-3.11,4.85a3.79,3.79,0,0,0,2,3.88,13.35,13.35,0,0,0,4.51,1.26,8.4,8.4,0,0,1,4.32,1.69c1.44,1.29,2,3.39,3.5,4.6s3.38,1.23,5.2,1.25c6,.1,12.93.43,18.7-1.4C766.36,139.9,762.2,139.76,759,139.17Z"/><path class="cls-50" d="M741.91,136.18l.41-.05a18.34,18.34,0,0,0,12.43-7.3l-.35-.27a18,18,0,0,1-11.73,7.08l.05-.1-.39-.2Z"/><rect class="cls-50" x="745.15" y="124.29" width="0.44" height="4.35" transform="translate(145.33 586.38) rotate(-47.1)"/><rect class="cls-50" x="751.79" y="139.21" width="6.32" height="0.44" transform="translate(-4.52 27.22) rotate(-2.06)"/><path class="cls-50" d="M755.12,135.4a7.39,7.39,0,0,0,1.88-5h-.44a7,7,0,0,1-1.77,4.68Z"/><path class="cls-50" d="M734.92,129.17a7.42,7.42,0,0,1,6.42-5.14l0-.44a7.86,7.86,0,0,0-6.81,5.46Z"/><rect class="cls-50" x="736.45" y="121.69" width="0.44" height="2.53" transform="translate(333.63 751.73) rotate(-66.82)"/><rect class="cls-69" x="753.49" y="124.62" width="28.37" height="0.44" transform="translate(-3.52 24.04) rotate(-1.79)"/><path class="cls-70" d="M765.9,127.5H766l140.45-4a2.22,2.22,0,0,0-.12-4.43l-140.46,4a2.22,2.22,0,0,0,.06,4.43Z"/><path class="cls-18" d="M860.89,102.46l7.37,10,1.44-.91c4.47-2.81,18-11.28,19.82-12.39,2.22-1.32,5.32-2.65,5.76-4,.23-.69-.6-3-1-4.18a1.66,1.66,0,0,0-1-1c-2.19-.77-9.09-2.81-15.68-.61l-16.65,13Z"/><path class="cls-27" d="M860.72,102.25S846.1,112,843.44,112.44s-7.09.88-8.86,2.66-4.43,5.31-4.87,6.64.88,5.76,3.1,7.53,3.54,0,3.54-.88c0,0,7.54.88,9.31,0s1.33-2.66,2.21-3.55S852.3,120,852.3,120l18.61-4Z"/><path class="cls-71" d="M835.93,128.21a.16.16,0,0,0,.09,0,.17.17,0,0,0,.06-.23,11.4,11.4,0,0,1-1.59-5,.17.17,0,0,0-.18-.15.17.17,0,0,0-.15.18,11.89,11.89,0,0,0,1.63,5.15A.16.16,0,0,0,835.93,128.21Z"/><path class="cls-71" d="M840.12,128.78l.07,0a.16.16,0,0,0,.08-.22l-.21-.43c-.77-1.54-1.81-3.64-1.55-5.23a.16.16,0,0,0-.14-.19.16.16,0,0,0-.19.13c-.28,1.7.79,3.86,1.58,5.44l.21.42A.18.18,0,0,0,840.12,128.78Z"/><path class="cls-71" d="M844.58,129.08a.17.17,0,0,0,.12-.28c-1.11-1.17-2.69-3.69-2.2-5.46a.17.17,0,0,0-.33-.09c-.51,1.91,1.13,4.56,2.29,5.78A.18.18,0,0,0,844.58,129.08Z"/><path class="cls-65" d="M860.89,102.46l7.37,10,1.44-.91-8.79-9.09Z"/><polygon class="cls-65" points="765.02 106.23 774.77 113.58 772.55 114.65 765.02 106.23"/></g></g></g></svg>