<?xml version="1.0" encoding="utf-8"?>
<!-- Generator: Adobe Illustrator 16.0.0, SVG Export Plug-In . SVG Version: 6.00 Build 0)  -->
<!DOCTYPE svg PUBLIC "-//W3C//DTD SVG 1.1//EN" "http://www.w3.org/Graphics/SVG/1.1/DTD/svg11.dtd">
<svg version="1.1" id="圖層_1" xmlns="http://www.w3.org/2000/svg" xmlns:xlink="http://www.w3.org/1999/xlink" x="0px" y="0px"
	 width="30px" height="30px" viewBox="0 0 30 30" enable-background="new 0 0 30 30" xml:space="preserve">
<g>
	<g>
		<path fill-rule="evenodd" clip-rule="evenodd" fill="#FFFFFF" d="M28.501,10.76h-4.503v4.891c-0.726,0.026-1.45,0.052-2.175,0.078
			c0-1.63-0.078-3.338-0.078-4.969c-1.656-0.026-3.235,0.025-4.892,0V8.586h4.892v-4.97h2.253v4.97h4.503
			C28.526,6.553,29,2.65,27.803,1.752c-1.068-0.8-4.165-0.388-5.902-0.388H7.536c-1.739,0-4.513-0.35-5.514,0.466
			C1.187,2.511,1.38,4.508,1.401,6.023h0.077c2.988-3.17,8.227-2.444,15.375-2.407c-0.643,0.388-1.41,1.036-2.175,1.631
			c-0.23,0.18-1.26,0.104-2.251,0.078c2.074,1.715,3.392,5.177,1.165,8.696c-0.645,1.018-3.628,2.506-3.262,4.193
			c0.267,1.224,1.846,1.966,2.718,2.64c2.578,1.997,4.288,4.067,3.028,7.61c2.124,0.017,10.522,0.385,11.569-0.311
			c1.125-0.745,0.854-2.878,0.854-4.735V10.76z M8.39,15.885c5.288-1.147,2.782-10.878-2.097-11.027
			C4.632,5.559,3.568,5.785,3.032,7.576C1.986,11.067,4.747,16.674,8.39,15.885z M1.401,15.885v6.678
			c0.672-0.207,1.346-0.415,2.019-0.621c1.449-0.182,2.899-0.364,4.349-0.544c-0.708-0.929-1.516-2.041-0.776-4.115v-0.079
			c-1.675,0.025-3.037,0.005-4.271-0.542C2.281,16.402,1.841,16.144,1.401,15.885z M9.088,22.485
			c-1.112-0.039-2.537,0.155-3.339,0.232c-2.004,0.396-3.311,0.932-4.348,2.252c-0.022,1.393-0.005,2.533,0.776,3.107
			c1.305,0.956,9.247,0.424,11.648,0.387C14.524,25.36,9.909,23.124,9.088,22.485z"/>
	</g>
</g>
</svg>
