<svg width="25" height="23" viewBox="0 0 25 23" fill="none" xmlns="http://www.w3.org/2000/svg">
<path d="M1.0299 22.4158C1.4079 22.5838 1.8559 22.4998 2.1639 22.2198L12.3419 12.6718L12.3419 21.4498C12.3419 21.8698 12.5939 22.2478 12.9719 22.4158C13.3499 22.5838 13.7979 22.4998 14.1059 22.2198L24.5639 12.4198C24.7739 12.2238 24.8999 11.9438 24.8999 11.6498C24.8999 11.3558 24.7739 11.0758 24.5639 10.8798L14.1059 1.07975C13.9099 0.897754 13.6439 0.799752 13.3919 0.799752C13.2519 0.799752 13.1119 0.82775 12.9719 0.883752C12.5939 1.05175 12.3419 1.42975 12.3419 1.84975L12.3419 10.6278L2.1639 1.07975C1.96791 0.897753 1.7019 0.799751 1.44991 0.799751C1.3099 0.799751 1.16991 0.827749 1.02991 0.883751C0.651905 1.05175 0.399904 1.42975 0.399904 1.84975L0.399902 21.4498C0.399902 21.8698 0.651903 22.2478 1.0299 22.4158ZM14.4419 4.27175L22.3099 11.6498L14.4419 19.0278L14.4419 4.27175ZM2.4999 4.27175L10.3679 11.6498L2.4999 19.0278L2.4999 4.27175Z" fill="white"/>
</svg>
