<svg width="32" height="27" viewBox="0 0 32 27" fill="none" xmlns="http://www.w3.org/2000/svg">
<path d="M6.36903 19.4741C3.77217 19.4741 1.66699 17.703 1.66699 15.1061C1.66699 12.5093 3.77217 10.4041 6.36903 10.4041C6.54563 10.4041 6.71995 10.4138 6.89148 10.4328V10.4041H6.95616C6.91347 10.0618 6.89148 9.71305 6.89148 9.35918C6.89148 4.74253 10.634 1 15.2507 1C18.3769 1 21.1024 2.71618 22.5362 5.25783C22.8866 5.20629 23.2451 5.17959 23.6099 5.17959C27.6494 5.17959 30.9241 8.45431 30.9241 12.4939C30.9241 15.8192 28.7051 18.3541 25.667 19.1897M16.0647 25.8V13.8M16.0647 13.8L11.267 18.7489M16.0647 13.8L20.867 18.7489" stroke="white" stroke-width="2" stroke-linecap="round" stroke-linejoin="round"/>
</svg>
