<svg width="28" height="24" viewBox="0 0 28 24" fill="none" xmlns="http://www.w3.org/2000/svg">
<path d="M24.1055 9.97874V5.58927C24.1055 5.03698 23.6577 4.58927 23.1055 4.58927H13.7407C13.4755 4.58927 13.2212 4.48391 13.0336 4.29638L10.9247 2.18742C10.7371 1.99989 10.4828 1.89453 10.2176 1.89453H2.2002C1.64791 1.89453 1.2002 2.34225 1.2002 2.89453V21.1051C1.2002 21.6573 1.64791 22.1051 2.2002 22.1051H4.2423C4.79458 22.1051 5.2423 21.6573 5.2423 21.1051V20.939C5.2423 20.8191 5.26387 20.7002 5.30597 20.5879L9.04108 10.6276C9.18744 10.2373 9.56056 9.97874 9.9774 9.97874H25.4128C26.0953 9.97874 26.5773 10.6474 26.3614 11.295L22.986 21.4213C22.8499 21.8296 22.4678 22.1051 22.0373 22.1051H3.89493" stroke="white" stroke-width="2" stroke-linecap="round" stroke-linejoin="round"/>
</svg>
