<svg width="28" height="28" viewBox="0 0 28 28" fill="none" xmlns="http://www.w3.org/2000/svg">
<path d="M8.04981 4.20031C8.27716 4.19929 8.49854 4.27308 8.67981 4.41031L19.8798 12.8103C20.0102 12.9081 20.1161 13.0349 20.189 13.1807C20.2619 13.3265 20.2998 13.4873 20.2998 13.6503C20.2998 13.8133 20.2619 13.9741 20.189 14.1199C20.1161 14.2657 20.0102 14.3925 19.8798 14.4903L8.6798 22.8903C8.52303 23.0084 8.33631 23.0801 8.14082 23.0975C7.94533 23.1148 7.74889 23.077 7.5738 22.9883C7.40177 22.8991 7.25739 22.7645 7.15623 22.5992C7.05507 22.4339 7.00098 22.2441 6.9998 22.0503L6.99981 5.25031C7.00098 5.05651 7.05507 4.86672 7.15623 4.70141C7.25739 4.5361 7.40178 4.40156 7.57381 4.31231C7.72287 4.24204 7.88504 4.20388 8.04981 4.20031ZM17.4998 13.6503L9.09981 7.35031L9.0998 19.9503L17.4998 13.6503Z" fill="white"/>
</svg>
