<svg id="圖層_1" data-name="圖層 1" xmlns="http://www.w3.org/2000/svg" viewBox="0 0 170.03 116.97"><defs><style>.cls-1{fill:#73a433;}.cls-2{fill:#007dbd;}.cls-3{fill:#ec1b23;}.cls-4{fill:#221e1f;}.cls-5{fill:#231f20;}.cls-6{fill:#252122;}.cls-7{fill:#272324;}.cls-8{fill:#242021;}.cls-9{fill:#262223;}.cls-10{fill:#2c292a;}.cls-11{fill:#282425;}.cls-12{fill:#312d2e;}.cls-13{fill:#3e3a3b;}</style></defs><path class="cls-1" d="M35.63,0a37.86,37.86,0,0,1,19.24,5.3c12.26,7.12,21.29,17.33,28,29.67a17.11,17.11,0,0,1,2,6.11c.54,4.44-3,7.54-7.32,6.37a27.16,27.16,0,0,1-7.75-4A65.68,65.68,0,0,0,63,39.06,25.76,25.76,0,0,0,45.61,37c-5.38,1.1-10.79,1.53-16.17-.08-7.85-2.36-13.8-10-14-17.85C15.28,10,21.5,2.5,30.76.61A23.43,23.43,0,0,1,35.63,0Z"/><path class="cls-2" d="M0,56.22A60.56,60.56,0,0,1,2.81,38.39C4.14,34.14,7,32.1,11,32.21a8,8,0,0,1,5.34,2.5,22.63,22.63,0,0,1,4.26,5.54A40.23,40.23,0,0,0,32,53.1C35.88,56,39.24,59.42,41.14,64a15.52,15.52,0,0,1,1.38,6.8,10.66,10.66,0,0,1-5.71,9c-5,3-10.49,3.65-16.17,3.14a29.46,29.46,0,0,1-9.35-2.58C5.4,77.74,2.58,72.81,1.14,66.85A43.62,43.62,0,0,1,0,56.22Z"/><path class="cls-3" d="M75,67.59a17.67,17.67,0,0,1-1.67,7.84c-3.21,6.62-12.47,9.71-19.07,6.38a7,7,0,0,1-4.19-6.56c0-3.81-.12-7.59-1.68-11.17a52.4,52.4,0,0,0-4-7,9.19,9.19,0,0,1-1.7-6.36,7.56,7.56,0,0,1,4.8-6.06,15.12,15.12,0,0,1,13.61.65A27.45,27.45,0,0,1,75,67.59Z"/><path class="cls-4" d="M107.52,69.37c0,4.3,0,8.6,0,12.9,0,1-.18,1.34-1.26,1.33-3.09,0-3.09,0-3.09-3.06V69.17c-3.66,5.54-8.74,8.7-14.1,11.56-1,.51-1.43.48-2-.49-1.3-2.12-1.35-2.08.89-3.17a35.58,35.58,0,0,0,10-6.65,4.52,4.52,0,0,0,1.23-1.59c-3.92,0-7.75,0-11.58,0-.42,0-1.16.35-1.23-.38a6.11,6.11,0,0,1,.12-2.82c.06-.15.67-.12,1-.12,4.76,0,9.53,0,14.3,0,1,0,1.56-.2,1.34-1.32s.27-1.66,1.47-1.46a3.38,3.38,0,0,0,1.1,0c1.39-.23,2,.26,1.76,1.72-.17.86.2,1.07,1,1.06,4.82,0,9.63,0,14.44,0,1,0,1.55.17,1.35,1.31a3.62,3.62,0,0,0,0,1.09c.11.81-.25,1-1,1-3.71,0-7.42,0-11.14,0-.21.49.23.66.44.91,3,3.56,7,5.66,11.28,7.31,1,.38,1.19.71.65,1.68C123.36,81,123.42,81,121.1,79.9,115.77,77.47,110.94,74.42,107.52,69.37Z"/><path class="cls-4" d="M86.86,51.51c5.11-.06,10,0,15-.25,5.72-.23,11.44-.47,17.13-1.17,1.7-.22,2.83.13,3.64,1.71.45.86.92,1.2-.55,1.38a276.54,276.54,0,0,1-33,1.71c-.78,0-1.17-.19-1.35-1A24.4,24.4,0,0,0,86.86,51.51Z"/><path class="cls-5" d="M134.67,91.29a27.23,27.23,0,0,1,4.8.3c3.14.78,4.36,2.29,4.36,5.49,0,1.65,0,3.3,0,5,0,.64,0,1.2-.88,1.21s-.83-.66-.84-1.24c0-1.74-.13-3.49,0-5.22.17-2.55-1.25-3.64-3.27-4a25.77,25.77,0,0,0-8.89,0c-2.31.42-3.2,1.67-3.2,4V102c0,.63,0,1.21-.91,1.2S125,102.6,125,102c0-2.06-.06-4.13,0-6.19s1.49-3.14,3.21-3.87C130.17,91.09,132.3,91.31,134.67,91.29Z"/><path class="cls-5" d="M12.66,103.28c-2.5-.15-5,.33-7.51-.36S.58,100.8.87,96.41C1,93.94,2.46,92.29,5.3,91.59a20.85,20.85,0,0,1,4.92-.3c2.61,0,5.22,0,7.82,0,.57,0,1.52-.35,1.52.63s-.92.54-1.44.54c-3.2,0-6.41,0-9.61,0a11.84,11.84,0,0,0-2.45.24c-2.38.49-3.32,1.67-3.35,4.08,0,3.62,1.41,5.15,5.1,5.2,3.29,0,6.59,0,9.88,0,.32,0,.64,0,1,0,.49,0,1.15-.09,1.12.65s-.64.54-1.07.55c-1.88,0-3.75,0-5.63,0Z"/><path class="cls-4" d="M69,103.26c-1.77-.12-4.36.33-6.88-.35A5.05,5.05,0,0,1,58,97.52c0-4,1.81-6,5.85-6.15s7.89-.06,11.83-.06c.46,0,1,0,1,.64s-.64.54-1.07.54H66a13.64,13.64,0,0,0-1.92.08c-4.42.64-4.84,2.88-4.09,6.7.28,1.42,1.53,2.13,2.88,2.47a11.14,11.14,0,0,0,2.44.28c3.3,0,6.61,0,9.91,0,.57,0,1.54-.33,1.57.56s-1,.61-1.51.62C73.45,103.29,71.62,103.26,69,103.26Z"/><path class="cls-6" d="M80.35,97.26c0-1.6,0-3.2,0-4.8,0-.6.06-1.09.85-1.12s.88.46.88,1.07c0,1,.06,2.1,0,3.15-.06.9.24,1.18,1.15,1.17,3.2,0,6.41,0,9.61,0a8.14,8.14,0,0,1,3.61.67,4.6,4.6,0,0,1,2.62,5.22.69.69,0,0,1-.72.65c-.44,0-.84-.08-.89-.62,0-.27,0-.55,0-.83,0-2.34-1.15-3.77-3.49-3.87-3.7-.16-7.41-.07-11.12-.12-.74,0-.78.44-.77,1,0,1.19,0,2.38,0,3.57,0,.61-.19,1-.85.94s-.87-.33-.86-1C80.37,100.65,80.35,99,80.35,97.26Z"/><path class="cls-5" d="M51.53,110.27c0,1.87,0,3.73,0,5.58,0,.69-.17,1-.91,1s-.85-.39-.85-1c0-2,0-3.94,0-5.9,0-.5-.48-1.37.4-1.46S52,108,52.71,109c1.27,1.73,2.65,3.38,4,5.06l.83,1c0-2.11,0-3.9,0-5.7,0-.63,0-1,.85-1s1,.27,1,1c0,2,0,3.94,0,5.9,0,.49.36,1.28-.34,1.42s-1.7.4-2.38-.5c-1.36-1.78-2.78-3.51-4.19-5.25C52.2,110.7,52.1,110.28,51.53,110.27Z"/><path class="cls-4" d="M146.66,109.85c0,2.11,0,3.78,0,5.46,0,.6.46,1.54-.88,1.51s-.78-1-.8-1.57c-.08-1.74-.06-3.48,0-5.22,0-.54-.38-1.43.29-1.56.9-.16,1.93-.41,2.7.67,1.42,2,3,3.8,4.74,6,0-2,0-3.74,0-5.44,0-.62-.3-1.37.9-1.35s.81.72.82,1.29c0,1.83.05,3.66,0,5.49,0,.54.49,1.43-.45,1.61a2.14,2.14,0,0,1-2.42-.75C150.06,114,148.47,112.13,146.66,109.85Z"/><path class="cls-4" d="M8.28,110.25c0,1.87,0,3.73,0,5.59,0,.66-.1,1-.88,1s-.88-.37-.87-1c0-1.92,0-3.85,0-5.77,0-.55-.45-1.45.43-1.59s1.82-.34,2.56.71c1.4,2,3,3.82,4.74,6,0-2.12,0-3.92,0-5.71,0-.61-.1-1.13.86-1.12s.88.49.87,1.11c0,2,0,4,0,5.92,0,.46.39,1.26-.41,1.35s-1.61.35-2.26-.51c-1.41-1.86-2.89-3.67-4.36-5.48C8.82,110.55,8.74,110.24,8.28,110.25Z"/><path class="cls-4" d="M109.48,115.09c0-2.12,0-3.94,0-5.75,0-.63,0-1,.86-1s.91.27.9.95c0,2,0,4,0,6.05,0,.47.37,1.26-.4,1.37s-1.61.33-2.25-.52c-1.38-1.83-2.84-3.6-4.27-5.38-.19-.24-.31-.56-.81-.66,0,1.88,0,3.74,0,5.59,0,.58,0,1-.82,1s-.94-.39-.93-1.08c0-1.92,0-3.85,0-5.77,0-.52-.45-1.39.35-1.51s1.85-.41,2.59.63c1.26,1.74,2.66,3.38,4,5.06C108.89,114.39,109.09,114.62,109.48,115.09Z"/><path class="cls-5" d="M113,62.59a27.52,27.52,0,0,0,4.81-7.31.7.7,0,0,1,1-.43c1,.28,2.12.51,3.27.79a34.1,34.1,0,0,1-4.65,7.6,1,1,0,0,1-1.2.3Z"/><path class="cls-7" d="M29.66,112.53c0-1.32-.52-3.09.14-3.85s2.56-.2,3.91-.28a15.27,15.27,0,0,1,1.79,0c.36,0,.86-.19.87.51s-.43.58-.83.58c-1.15,0-2.29.05-3.43,0-.93,0-.82.55-.74,1.06s-.47,1.4.71,1.38h3.15c.37,0,.76,0,.73.55s-.38.54-.77.54a22.76,22.76,0,0,1-2.74,0c-1.11-.12-1.18.45-1.11,1.29s-.3,1.63,1.06,1.49a30.08,30.08,0,0,1,3.15,0c.34,0,.78-.13.81.45s-.41.6-.83.6c-1.69,0-3.38,0-5.08,0-.77,0-.91-.33-.89-1,0-1.1,0-2.2,0-3.3Z"/><path class="cls-5" d="M89.72,56.93c1.11-.31,2.2-.58,3.27-.92.49-.16.66.11.87.41a36.42,36.42,0,0,1,3,5.36c.23.5.18.74-.39.79a.93.93,0,0,0-.13,0c-3.08.89-3.06.88-4.54-2C91.16,59.4,90.46,58.23,89.72,56.93Z"/><path class="cls-8" d="M163.33,117a8.63,8.63,0,0,1-4.48-1.1,3.65,3.65,0,0,1-.14-6.43,9.29,9.29,0,0,1,6.75-1c.44.07.6.31.53.78s-.39.43-.77.33a6.7,6.7,0,0,0-4.31.22,2.91,2.91,0,0,0,0,5.62,7.1,7.1,0,0,0,4.18.29c.37-.07.8-.34.95.33s-.38.73-.79.8C164.61,116.91,164,116.92,163.33,117Z"/><path class="cls-5" d="M104.74,62.23c-.47.06-.64-.18-.78-.59A27.78,27.78,0,0,0,102,57.11c-.26-.49-.2-.73.37-.8l.12-.05c3.68-.79,2.64-1.62,4.52,2,0,.08.09.16.12.24.33,1,1.43,2.26.91,2.79C107.36,62,105.89,62,104.74,62.23Z"/><path class="cls-9" d="M22.86,108.39c1.19,0,2.38,0,3.56,0,.38,0,1-.3,1,.49s-.54.57-1,.58c-2.83.12-2.83.11-2.83,2.94,0,1.19,0,2.38,0,3.57,0,.7-.28.83-.89.82s-.94-.08-.92-.81c0-1.83,0-3.65,0-5.48,0-.86-.25-1.13-1.08-1-.68.07-1.37,0-2,0-.46,0-.66-.14-.65-.62s.31-.48.64-.48Z"/><path class="cls-5" d="M77,108.4c1.28,0,2.56,0,3.84,0,.32,0,.76-.15.8.45s-.34.66-.79.64H80.6c-2.75.06-2.75.06-2.75,2.88,0,1.14,0,2.28,0,3.42,0,.6,0,1-.83,1s-.94-.41-.92-1.1c0-1.73,0-3.47,0-5.2,0-.87-.26-1.14-1.09-1.06-.68.07-1.37,0-2,0-.42,0-.69,0-.69-.58s.38-.51.74-.51C74.37,108.39,75.7,108.4,77,108.4Z"/><path class="cls-10" d="M47.5,97.34c0,1.55,0,3.11,0,4.67,0,.62-.13,1.11-.87,1.12s-.88-.48-.87-1.11c0-3.2,0-6.41,0-9.61,0-.57.12-1,.8-1s1,.35,1,1c0,1.65,0,3.3,0,5Z"/><path class="cls-11" d="M126.83,112.5c0-1,0-2,0-3,0-.62-.08-1.11.86-1.12s1,.41,1,1.15c0,1.51.1,3-.05,4.52s.45,1.89,1.82,1.73a18.35,18.35,0,0,1,2.46,0c.35,0,.77-.11.79.47s-.43.58-.84.58c-1.74,0-3.47,0-5.21,0-.67,0-.86-.25-.84-.89C126.86,114.78,126.83,113.64,126.83,112.5Z"/><path class="cls-12" d="M141.89,112.73c0,1.1,0,2.2,0,3.29,0,.74-.37.79-.94.8s-.93-.11-.91-.82c0-2.29,0-4.57,0-6.85,0-.76.4-.77,1-.77s.94.06.91.79C141.85,110.36,141.89,111.55,141.89,112.73Z"/><path class="cls-4" d="M3.1,112.53c0,1.1,0,2.19,0,3.29,0,.64-.08,1-.87,1s-.9-.31-.89-1c0-2.19,0-4.38,0-6.57,0-.59.06-.92.79-.9s1,.08,1,.88C3.05,110.34,3.1,111.44,3.1,112.53Z"/><path class="cls-4" d="M83.35,112.59c0-1.1,0-2.2,0-3.29,0-.57,0-1,.77-.92.59,0,1,0,1,.83-.05,2.24,0,4.48,0,6.72,0,.81-.39.84-1,.88s-.78-.37-.77-.93C83.37,114.78,83.35,113.69,83.35,112.59Z"/><path class="cls-13" d="M168.77,116.81c-.18,0-.72.18-.75-.65s.5-.78,1-.79,1,0,1,.75S169.56,116.85,168.77,116.81Z"/><path class="cls-4" d="M165.28,68c0-1.11-.38-1.24-1.33-1.23-5.36,0-10.72,0-16.08,0s-10.62,0-15.94,0c-1.32,0-1.55.41-1.53,1.6.07,4.08,0,8.15,0,12.23,0,3.17,0,3.15,3.16,3.08.69,0,1-.16.92-.91s.18-.84.83-.84q12.43,0,24.87,0c.63,0,1,.15.87.84s.25.94.94.89a10.91,10.91,0,0,1,2.06,0c1,.11,1.2-.29,1.19-1.23C165.23,77.66,165.21,72.85,165.28,68Zm-5.55,10.87c-4-.11-8.06,0-12.09,0s-8,0-11.95,0c-1,0-1.23-.26-1.21-1.22.06-2,0-2,2-2,7.73,0,15.47,0,23.21,0,1.45,0,1.37.64,1.37,1.62S161.17,79,159.73,78.91Zm.08-6.12c-4-.09-8,0-12,0s-8.07-.06-12.1,0c-1.23,0-1.3-.5-1.25-1.43s-.2-1.52,1.17-1.5q12.11.12,24.2,0c1.3,0,1.21.59,1.23,1.48S161,72.81,159.81,72.79Z"/><path class="cls-4" d="M162.24,50.51c-4.77.07-9.53,0-14.3,0s-9.62,0-14.43,0c-.91,0-1.26.14-1.25,1.16.07,3.94.05,7.88,0,11.82,0,.84.13,1.18,1.1,1.18q14.56-.06,29.14,0c.92,0,1.14-.27,1.13-1.15,0-3.85-.06-7.7,0-11.55C163.67,50.85,163.41,50.49,162.24,50.51Zm-3.79,11.12c-7-.06-14.09-.05-21.14,0-1.42,0-.85-.94-.95-1.59-.13-.8,0-1.21,1-1.19,3.48.07,7,0,10.43,0s7,0,10.57,0c1.19,0,1.08.62,1.05,1.37S159.7,61.63,158.45,61.63Zm-.16-5.57c-3.48-.06-7,0-10.44,0s-7,0-10.45,0c-1.05,0-1.07-.48-1.06-1.25s-.07-1.25,1-1.24q10.51.08,21,0c1,0,1.08.4,1.09,1.21S159.31,56.08,158.29,56.06Z"/><path class="cls-5" d="M42.05,94.81c-.61-2.48-3-3.26-5.18-3.39-4.11-.23-8.24-.11-12.36-.12-.41,0-.91,0-.87.62s.51.57.93.57c1.37,0,2.75,0,4.12,0,2.88.07,5.77-.21,8.64.22a3.94,3.94,0,0,1,3.16,2.86c.11.72,0,1.09-.88,1.06-1.92-.06-3.84,0-6.25,0-1.81.11-4.1-.18-6.38.15s-3.55,1.33-3.58,3.06,1.32,2.86,3.47,3.29l.41.06a54.73,54.73,0,0,0,9.75-.05C42.1,102.49,43.09,99.05,42.05,94.81ZM40.44,99a3.55,3.55,0,0,1-3,2.8,37.76,37.76,0,0,1-10.24,0,1.91,1.91,0,0,1-2-2c.05-1.41,1.11-1.72,2.19-1.77,2.09-.08,4.2,0,6.3,0v0c2,0,3.93,0,5.9,0C40.47,97.88,40.63,98.22,40.44,99Z"/><path class="cls-5" d="M119.67,92.7a8.12,8.12,0,0,0-4.26-1.37c-1.87,0-3.75,0-5.63,0v0c-1.7,0-3.39-.05-5.08,0-.65,0-1.8-.45-1.81.57s1.14.57,1.78.6c3.93.15,7.87-.24,11.8.25a3.76,3.76,0,0,1,3,2.28c.57,1.21.26,1.61-1.07,1.61H108a9.29,9.29,0,0,0-3.51.55,2.75,2.75,0,0,0-1.87,2.48,2.81,2.81,0,0,0,1.5,2.72,5.06,5.06,0,0,0,2.46.81,68.49,68.49,0,0,0,9.61,0c2.81-.23,4.69-1.65,5.15-4C121.91,96.24,121.58,93.89,119.67,92.7Zm0,6.13a3.84,3.84,0,0,1-3.08,3c-1.76.46-3.55.19-5.37.28a27.67,27.67,0,0,1-4.88-.24c-1.13-.27-2-.79-1.94-2.09S105.52,98,106.61,98c4.11-.07,8.23,0,12.35-.07C119.72,97.9,119.79,98.24,119.66,98.83Z"/><path class="cls-5" d="M166.17,99.53a2.73,2.73,0,0,0-2-2.39,9.4,9.4,0,0,0-3.37-.52c-3.53,0-7.06-.05-10.58,0-1.31,0-1.35-.53-1-1.47a3.49,3.49,0,0,1,.9-1.35c1.21-1.23,2.79-1.29,4.34-1.32,3.39-.05,6.78,0,10.17,0,.5,0,1.28.22,1.31-.57s-.75-.62-1.26-.62c-1.88,0-3.76,0-5.64,0v.06c-2,0-4-.11-6,0a6.13,6.13,0,0,0-4.91,2.34,6,6,0,0,0,4.65,9.44,67.56,67.56,0,0,0,9.33,0,5.52,5.52,0,0,0,2.47-.75A2.86,2.86,0,0,0,166.17,99.53Zm-3.9,2.3a37.89,37.89,0,0,1-10-.06A3.69,3.69,0,0,1,149.16,99c-.21-.74-.13-1.18.86-1.14,2,.08,3.94,0,5.91,0v0c2,0,4,0,6,0,1.13,0,2.25.26,2.45,1.68C164.57,100.76,163.81,101.65,162.27,101.83Z"/><path class="cls-5" d="M97.27,109.2a7.54,7.54,0,0,0-7.74,0,3.9,3.9,0,0,0,0,6.8,7.16,7.16,0,0,0,3.83.9,7.09,7.09,0,0,0,3.83-.87A3.89,3.89,0,0,0,97.27,109.2ZM94,115.83c-.23,0-.46,0-.69,0A3.79,3.79,0,0,1,90,114.35a3.38,3.38,0,0,1-.51-1.26c-.35-1.87,1-3.42,3.29-3.75s4.4.9,4.63,2.82S96.24,115.67,94,115.83Z"/><path class="cls-5" d="M44.64,112.63c.11,0,.21-.12.33-.17,1-.38,2-.79,1.77-2.09s-1.11-1.55-2.15-1.78a34,34,0,0,0-4.51-.21c-.91-.08-1,.28-1,1.08.05,2.1,0,4.21,0,6.32,0,.58-.06,1,.81,1s1-.39.94-1.09,0-1.28,0-1.92c0-.31-.07-.71.39-.73,1.05,0,2.14-.21,2.81.94.32.56.76,1,1,1.62.53,1.21,1.42,1.32,2.68,1C46.59,115.26,45.9,113.75,44.64,112.63Zm-.72-.89a4,4,0,0,1-1.59.24,1.49,1.49,0,0,1-1.5-2.21.59.59,0,0,1,.42-.27,8.23,8.23,0,0,1,2.71.17c.5.18.93.43.91,1S44.42,111.55,43.92,111.74Z"/><path class="cls-8" d="M68.43,109a1.6,1.6,0,0,0-2.5,0c-1.62,2.54-3.19,5.1-4.92,7.89,1-.11,1.87.36,2.21-.59.52-1.47,1.56-1.67,2.91-1.54a17.31,17.31,0,0,0,2.88,0,1.37,1.37,0,0,1,1.59.93c.45,1.23,1.31,1.43,2.51,1C71.53,114,70,111.48,68.43,109Zm-3.67,4.63,2.34-4,2.34,4Z"/><path class="cls-8" d="M120.34,109a1.62,1.62,0,0,0-2.51,0c-1.59,2.54-3.15,5.11-4.86,7.89.94-.1,1.81.38,2.17-.57.54-1.41,1.54-1.71,2.91-1.55a13.77,13.77,0,0,0,2.87,0,1.44,1.44,0,0,1,1.68,1c.45,1.22,1.29,1.3,2.45.92C123.45,114,121.91,111.46,120.34,109Zm-3.65,4.63c.81-1.38,1.51-2.59,2.34-4,.81,1.39,1.53,2.65,2.33,4Z"/></svg>