<svg id="圖層_1" data-name="圖層 1" xmlns="http://www.w3.org/2000/svg" viewBox="0 0 32.62 32.62"><defs><style>.cls-1{fill:#5f5e5e;}</style></defs><path class="cls-1" d="M16.28,13a3.22,3.22,0,0,0-3.22,3.33,3.21,3.21,0,0,0,3.23,3.32,3.33,3.33,0,1,0,0-6.65Z"/><path class="cls-1" d="M24.24,10.69a3,3,0,0,0-2.48-2.36A21.25,21.25,0,0,0,17.4,8a51,51,0,0,0-5.93.2A3.35,3.35,0,0,0,8.25,11.4a64,64,0,0,0,0,9.79,3.35,3.35,0,0,0,3.11,3.16,42.19,42.19,0,0,0,4.9.11c1.36,0,2.73,0,4.09,0a4.08,4.08,0,0,0,3.17-1.25,4.38,4.38,0,0,0,.94-3c0-2.59,0-5.19,0-7.78A6.6,6.6,0,0,0,24.24,10.69ZM16.3,21.54a5.19,5.19,0,0,1-5.22-5.26,5.13,5.13,0,0,1,5.22-5.22,5.24,5.24,0,1,1,0,10.48Zm5.47-9.4a1.29,1.29,0,0,1-1.31-1.25,1.21,1.21,0,0,1,1.25-1.22,1.16,1.16,0,0,1,1.22,1.23A1.19,1.19,0,0,1,21.77,12.14Z"/><path class="cls-1" d="M16.31,0A16.31,16.31,0,1,0,32.62,16.31,16.31,16.31,0,0,0,16.31,0ZM26.38,21.13C25.9,24.36,24.23,26,21,26.3a49.28,49.28,0,0,1-9.79-.06,5.47,5.47,0,0,1-5-5.56c-.09-2.3-.14-4.61-.07-6.92a13.3,13.3,0,0,1,.38-3.54,5.56,5.56,0,0,1,5.08-4c2.68-.16,5.35-.09,8-.08a7.41,7.41,0,0,1,4.45,1.15,6,6,0,0,1,2.36,5c.07,1.34,0,2.69,0,4.59A34.11,34.11,0,0,1,26.38,21.13Z"/></svg>