<svg id="圖層_1" data-name="圖層 1" xmlns="http://www.w3.org/2000/svg" viewBox="0 0 22 21.01"><defs><style>.cls-1{fill:#666;}</style></defs><path class="cls-1" d="M6.24,21a5.73,5.73,0,0,1-4.1-9.74c.79-.81,1.59-1.6,2.39-2.4.24-.23.46-.52.85-.34s.36.51.37.84a.72.72,0,0,0,0,.26,1.74,1.74,0,0,1-.72,2.12A10.24,10.24,0,0,0,3.64,13.2a3.2,3.2,0,0,0-.36,3.59,3.1,3.1,0,0,0,2.94,1.8,3.34,3.34,0,0,0,2.53-1c1-1,2-2,2.95-2.95a3.4,3.4,0,0,0-.58-5.31c-.33-.21-.7-.37-.58-.87A2,2,0,0,1,11.59,7c.16-.08.33,0,.49.11a5.73,5.73,0,0,1,1.45,9c-1,1-2.06,2.07-3.09,3.1A5.46,5.46,0,0,1,6.24,21Z"/><path class="cls-1" d="M21.5,5.8a5.42,5.42,0,0,1-1.65,4l-2.44,2.43c-.19.2-.4.4-.72.29s-.39-.41-.4-.72a1.8,1.8,0,0,0,0-.52c-.35-.87.09-1.42.7-2a12.54,12.54,0,0,0,1.51-1.58,3.35,3.35,0,0,0-.27-4.32A3.28,3.28,0,0,0,13.87,3,27.76,27.76,0,0,0,10,6.87a3.34,3.34,0,0,0,1,4.92.78.78,0,0,1,.44,1.07,2.43,2.43,0,0,1-.51.84.74.74,0,0,1-1.06.17A5.61,5.61,0,0,1,7,9.53a5.58,5.58,0,0,1,1.8-4.89c1-1,1.92-2,2.91-2.92A5.53,5.53,0,0,1,17.59.34,5.6,5.6,0,0,1,21.47,5a2.3,2.3,0,0,1,0,.26Z"/></svg>