<svg id="圖層_1" data-name="圖層 1" xmlns="http://www.w3.org/2000/svg" viewBox="0 0 23 21.01"><defs><style>.cls-1{fill:#666;}</style></defs><path class="cls-1" d="M22.55,8.9a6.6,6.6,0,0,0-1.62-4.71,11.14,11.14,0,0,0-8-4.13C8.74-.28,5.13.8,2.31,4a7.5,7.5,0,0,0-.75,8.9,10.87,10.87,0,0,0,7.6,4.86c1.6.31,1.8.58,1.63,2.17,0,.33-.27.74.08,1s.74,0,1.06-.2a31.68,31.68,0,0,0,8.24-6.06A7.62,7.62,0,0,0,22.55,8.9Zm-15.39,3c-.43,0-.87,0-1.31,0-1.91,0-1.92,0-1.91-1.86V7.23c0-.47.17-.79.71-.79s.72.3.72.78c0,.82,0,1.64,0,2.45s.21,1,.91.93a6.36,6.36,0,0,1,.87,0c.35,0,.5.24.52.58S7.57,11.85,7.16,11.88Zm2.44-.8c0,.46-.15.8-.69.82s-.73-.3-.73-.77c0-1.29,0-2.57,0-3.86,0-.44.13-.82.69-.83s.73.38.73.87v3.77ZM15,10.93c0,.38,0,.8-.46.93a1,1,0,0,1-1.16-.4L11.82,9.4l-.28.06v1.71c0,.47-.14.82-.67.84s-.77-.34-.77-.84c0-1.23,0-2.46,0-3.68,0-.4-.08-.88.46-1a1.12,1.12,0,0,1,1.24.43c.44.59.86,1.19,1.29,1.78a.67.67,0,0,0,.51.35V7.19c0-.44.16-.73.65-.75s.78.22.78.72C15,8.42,15,9.68,15,10.93Zm2-2.7c0,.17.16.24.32.25l1.13,0c.45,0,.72.16.75.66a.65.65,0,0,1-.72.77c-.35,0-.7,0-1.05,0-.2,0-.44,0-.41.34s.2.27.38.28l1.14,0c.43,0,.65.19.65.63a.56.56,0,0,1-.63.66H16.26c-.53,0-.73-.29-.73-.78V7.19a.66.66,0,0,1,.75-.76h2.28c.46,0,.69.2.7.69s-.23.75-.74.75-.76,0-1.14,0C17.19,7.91,17,8,17.06,8.23Z"/></svg>