<svg id="圖層_1" data-name="圖層 1" xmlns="http://www.w3.org/2000/svg" viewBox="0 0 20.52 18.66"><defs><style>.cls-1{fill:#fff;}</style></defs><path class="cls-1" d="M10.31,13.93h9.22c1,0,1.14.24.9,1.14a4.64,4.64,0,0,1-4.63,3.55c-3.68,0-7.36-.05-11,0A4.82,4.82,0,0,1,0,14.89c-.14-.68.06-1,.76-1h9.51Z"/><path class="cls-1" d="M9,6.45V.79a.66.66,0,0,1,1.24-.4l1.33,1.9,6.56,9.39c.18.25.33.49.16.8a.76.76,0,0,1-.78.38H10c-.76,0-1-.21-1-1Z"/><path class="cls-1" d="M8,8.15c0,1.21,0,2.41,0,3.62,0,.89-.21,1.09-1.1,1.09H3c-.89,0-1.15-.44-.71-1.22l4.3-7.52a2.41,2.41,0,0,1,.26-.39A.6.6,0,0,1,7.94,4,2,2,0,0,1,8,4.68Z"/></svg>