<svg id="圖層_1" data-name="圖層 1" xmlns="http://www.w3.org/2000/svg" viewBox="0 0 45 45"><defs><style>.cls-1{fill:#fff;}</style></defs><path class="cls-1" d="M11.36.22A5.58,5.58,0,0,0,5.79,5.79V39.21a5.58,5.58,0,0,0,5.57,5.57H33.64a5.58,5.58,0,0,0,5.57-5.57V14.15H28.07a2.79,2.79,0,0,1-2.79-2.79V.22Zm16.71,0V11.36H39.21ZM24.59,20.41V29.3l2.7-2.7a2.08,2.08,0,0,1,2.95,0,2.1,2.1,0,0,1,0,2.95L24,35.81a2.08,2.08,0,0,1-2.95,0l-6.26-6.26a2.09,2.09,0,0,1,3-2.95l2.69,2.7V20.41a2.09,2.09,0,0,1,4.18,0Z"/></svg>