<svg id="圖層_1" data-name="圖層 1" xmlns="http://www.w3.org/2000/svg" xmlns:xlink="http://www.w3.org/1999/xlink" viewBox="0 0 9.92 11.54"><defs><style>.cls-1{fill:none;}.cls-2{clip-path:url(#clip-path);}.cls-3{fill:#61646b;}.cls-4{fill:#6c7078;}.cls-5{clip-path:url(#clip-path-2);}.cls-6{fill:#fff;}.cls-7{fill:#696969;}</style><clipPath id="clip-path"><rect class="cls-1" x="-817.26" y="-409.26" width="1500" height="346.96"/></clipPath><clipPath id="clip-path-2"><rect class="cls-1" x="-696.73" y="-18.72" width="458.44" height="23.9"/></clipPath></defs><g class="cls-2"><path class="cls-3" d="M85-126.06l-.24,20.17h0l0,.78-.22,18.74L84-44.54v.83L83.23,17.1-70.07-1.14-177.61-38.78s4.66-2.48,12.69-6.48C-153.1-51.18-134-60.42-111.77-70l2.17-.93C-88.21-80.08-64.12-89.43-41-96.39c21.29-6.39,42.19-11.78,60.67-16.15l2.83-.66h0C58.76-121.68,85-126.06,85-126.06Z"/><path class="cls-4" d="M114.59,22.88V48.79H-886.76v-181.6h263.55L-325.7-70l2.1.45,114.32,24.12,6.38,1.34,2.11.45,22.42,4.73.76.16.67.22h0c5.12,1.6,38.76,11.61,83,12.73l2.43.06,4.5.05c51.52.19,79.92.92,96.36,19.19A39.6,39.6,0,0,0,21.38,2l1.21.58c22.85,10.7,59.69,13.51,59.69,13.51Z"/><path class="cls-3" d="M107.85-52.14C88.62-40.17,57.07-20.42,21.38,2-2.45,16.92-28.13,33-53.2,48.79H-51L22.59,2.55C58-19.63,89.35-39.29,108.45-51.19Z"/></g><g class="cls-5"><path class="cls-6" d="M-748.18-18.72V-2.07c14.77,6.2,35.51,5.23,53.15,2.41,24.85-3.95,49.14-10.91,74.56-9.57,27.22,1.43,53.2,14.8,80.65,9.77C-528-1.62-516.94-5.58-505-7.55c27.88-4.63,53.28,10.73,81.47,10,19.08-.49,36.1-8.85,54.39-12.08,27.48-4.85,58-5.67,84.84,1.4,14.45,3.81,28.68,9.54,44.1,9C-222.78.07-200-7.42-183-10.3-110.18-22.66-88.57,6.87-35.06-5-17.49-8.94-.24-14.41,18.2-15,41.53-15.69,60.64-6.6,82.7-3.58c21.07,2.87,40.82-.53,60.5-6,17.13-4.73,44.09-4.25,68.78,4.29C248.5,7.37,290.59-8,330.81-10.34c22.39-1.28,37.84,3.29,57.8,9,48.47,13.93,86.53-9.57,134.14-6C546.2-5.52,567.41,4.26,591,5.12c31,1.14,60.53-13.4,91.37-10.63C690.83-4.75,699-2.69,707-.65c14.8,3.77,30.37,5.83,44.41,1.53,0,0,.16-3.29.39-19.6Z"/></g><path class="cls-7" d="M.39,5.84a5.85,5.85,0,0,1,4.5,4.78.07.07,0,0,0,.14,0,5.85,5.85,0,0,1,4.5-4.78.07.07,0,0,0,0-.14A5.86,5.86,0,0,1,5,.92a.07.07,0,0,0-.14,0A5.86,5.86,0,0,1,.39,5.7.07.07,0,0,0,.39,5.84Z"/></svg>