<svg id="圖層_1" data-name="圖層 1" xmlns="http://www.w3.org/2000/svg" xmlns:xlink="http://www.w3.org/1999/xlink" viewBox="0 0 458.44 23.9"><defs><style>.cls-1{fill:none;}.cls-2{clip-path:url(#clip-path);}.cls-3{fill:#6c7078;}.cls-4{fill:#61646b;}.cls-5,.cls-8{fill:#fff;}.cls-5{opacity:0.05;}.cls-6{fill:#fea689;}.cls-7{fill:#f2e7e1;}.cls-9{fill:#232c44;}.cls-10{fill:#6b3939;}.cls-11{clip-path:url(#clip-path-2);}</style><clipPath id="clip-path"><rect class="cls-1" x="-120.54" y="-390.54" width="1500" height="346.96"/></clipPath><clipPath id="clip-path-2"><rect class="cls-1" width="458.44" height="23.9"/></clipPath></defs><g class="cls-2"><path class="cls-3" d="M811.32,41.61v25.9H-190v-181.6H73.51L371-51.31l2.1.45L487.45-26.74l6.38,1.35,2.11.44,22.42,4.73.76.16.67.22h0c5.12,1.6,38.77,11.61,83,12.74l2.43,0c1.49,0,3,0,4.5,0,51.51.19,79.91.92,96.35,19.2a39.81,39.81,0,0,0,12.08,8.49l1.21.59C742.17,32,779,34.79,779,34.79Z"/><path class="cls-4" d="M105.17-89.31C102-88.63-92.58-17.69-190,17.86V16.64C-86.78-21,103.63-90.45,105.08-90.45v.57Z"/><path class="cls-4" d="M231.93-70c-3.6.81-271.39,99.08-376.17,137.54h-3.31C-34.32,25.94,230.27-71.16,231.84-71.16v.57Z"/><path class="cls-4" d="M384.35-54.79c-.42.1-4.41,1.49-11.22,3.93C321-32.22,103.24,47.24,47.71,67.51H44.38C109.89,43.6,316.59-31.84,371-51.31c8.26-2.95,13-4.61,13.24-4.61v.57Z"/><path class="cls-4" d="M502-31.9c-4,1.45-8.42,3-13.1,4.73C425.51-4.25,305.11,41,232.3,67.51h3.33C306,41.83,428.07-4,491-26.73L502.88-31C502.58-31.31,502.29-31.61,502-31.9Z"/><path class="cls-4" d="M610.71-11.13l-8,4c-43.42,22-98.47,49.93-147.07,74.61h2.54C506.4,43,561.76,14.93,605.18-7l7.05-3.57C611.71-10.77,611.2-10.94,610.71-11.13Z"/><path class="cls-4" d="M8,23c-1-2.44-3.27-3.94-5.63-4.85A39.53,39.53,0,0,0-7.2,16.23,123.25,123.25,0,0,0-34,16c-10.69,1-21.06-.17-31.62,2.43-3.37.83-7,1.71-10,3.58-2.5,1.56-4.44,4.19-4.15,7.27s2.81,4.47,5.52,4.94a52.89,52.89,0,0,0,11.73.31c5.31-.29,11-2,16.26-.63,6.71,1.76,12.93,3.24,19.92,3.27a120.89,120.89,0,0,0,12.18-.65c3.87-.37,7.79-.69,11.62-1.38,3.33-.59,6.71-1.76,8.94-4.43A7.72,7.72,0,0,0,8,23Z"/><path class="cls-4" d="M199.1,13.48c-1.8-2.3-5.06-3.6-7.79-4.37A41.65,41.65,0,0,0,182,7.81c-3.72-.16-7.45-.2-11.17-.29-8.11-.2-16.29-.79-24.35.37a40.37,40.37,0,0,0-11.36,3.23c-2.53,1.18-5.58,1.38-7.91,3s-3.94,5.79-1,7.7a6.8,6.8,0,0,0,3.12.81c10.87,1,21.46,1.37,32.34,1.37,3.9,0,7.81.08,11.71.24,3.53.14,7.06.44,10.6.59,4.81.2,10.87,0,14.28-3.94C200,18.84,200.9,15.78,199.1,13.48Z"/><path class="cls-4" d="M481.5-11l-1.58-.46c-4.4-1.23-8.53.45-12.89.85a79.62,79.62,0,0,1-19-.75,93.83,93.83,0,0,0-14.27-1.48c-4.1,0-8.65.45-11.49,3.8a5.13,5.13,0,0,0-.92,5.65c1.83,3.76,7,5.46,10.81,6.12,8.53,1.5,17.2,0,25.76-.46L476,1.22c4-.24,10.73-.06,11.43-5.41C488-8.4,484.78-10,481.5-11Z"/><polygon class="cls-5" points="381.18 67.52 477.62 -2.13 89.11 -57.51 -81.54 67.51 381.18 67.52"/><polygon class="cls-5" points="-190.03 -82.36 28.04 -84.52 -190.03 67.51 -190.03 -82.36"/><path class="cls-6" d="M-19.35-1.59l6.27,20.45s.31,1.63.71,3.23a9.61,9.61,0,0,0,1.09,3c.65.71,2.1.93,3.88,1.06l1.33.09c2.36.15,5.86-.14,6.43-1.15a1.19,1.19,0,0,0,.13-.34c.23-.91-.65-1.88-2.24-2.66l-.05,0-.45-.23c-1.43-.75-3.36-2-4.17-2.49l-.38-.25h0L-9.69-4Z"/><path class="cls-7" d="M.85,25.56c-.13.54-4.06,1.3-6.28,1.21s-5.35-.45-6.17-1.08a2.9,2.9,0,0,1-.61-1.25A16.9,16.9,0,0,1-13,19.27c.25-.32,2.09.65,3,.05s2.44-1.88,3-1.31a8.23,8.23,0,0,0,2.79,2.14,29.6,29.6,0,0,1,2.88,1.44A5.15,5.15,0,0,1,.53,23,4.49,4.49,0,0,1,.85,25.56Z"/><path class="cls-8" d="M.53,23a5.15,5.15,0,0,0-1.81-1.44,4.38,4.38,0,0,0-.66.24,8.45,8.45,0,0,0-2,1.34c-.78.67-1.54,1.85-2.61,2a12.93,12.93,0,0,1-3-.16,7.59,7.59,0,0,1-2.6-.59,2.9,2.9,0,0,0,.61,1.25c.82.63,3.95,1,6.17,1.08S.72,26.1.85,25.56A4.49,4.49,0,0,0,.53,23Z"/><path class="cls-6" d="M141.34,15.35a1.14,1.14,0,0,0,.18.32c.71.92,4.21.71,6.53.22l1.3-.28c1.74-.39,3.14-.81,3.69-1.61a4.5,4.5,0,0,0,.43-1.46c.08-.5.16-1.08.22-1.65.17-1.64.24-3.3.24-3.3l3.27-21.14-9.91-1,.47,23.31h0l-.34.3c-.73.63-2.47,2.11-3.77,3.06l-.12.08-.3.21,0,0C141.72,13.4,141,14.48,141.34,15.35Z"/><path class="cls-9" d="M141.34,15.35a1.14,1.14,0,0,0,.18.32c.71.92,4.21.71,6.53.22l1.3-.28c1.74-.39,3.14-.81,3.69-1.61a4.5,4.5,0,0,0,.43-1.46l-6.08,1.66a6.36,6.36,0,0,0-2.52-1.8,11,11,0,0,0-1.35-.24l-.3.21,0,0C141.72,13.4,141,14.48,141.34,15.35Z"/><path class="cls-6" d="M186.24,13.77a1.45,1.45,0,0,1-.18.32c-.71.93-4.21.71-6.53.22-.45-.09-.89-.18-1.3-.28-1.74-.39-3.15-.8-3.69-1.6a4.18,4.18,0,0,1-.43-1.47c-.09-.5-.16-1.07-.22-1.65-.18-1.64-.24-3.3-.24-3.3l-3.27-21.13,9.91-1.06-.48,23.32h0l.34.3c.73.63,2.46,2.12,3.77,3.06l.11.08.3.21,0,0C185.86,11.82,186.59,12.91,186.24,13.77Z"/><path class="cls-9" d="M186.24,13.77a1.45,1.45,0,0,1-.18.32c-.71.93-4.21.71-6.53.22-.45-.09-.89-.18-1.3-.28-1.74-.39-3.15-.8-3.69-1.6a4.18,4.18,0,0,1-.43-1.47l6.07,1.66a6.45,6.45,0,0,1,2.52-1.8,11.35,11.35,0,0,1,1.35-.24l.3.21,0,0C185.86,11.82,186.59,12.91,186.24,13.77Z"/><path class="cls-10" d="M169.33-67.3c-2.93-.79-5.94-.6-8.93-.47a36.23,36.23,0,0,1-4.66,0,50.24,50.24,0,0,1-5.33-.9c-2.23-.48-4.76-.61-6.27,1.42-1.38,1.85-1.37,4.46-1.51,6.66-.44,6.73-.49,13.47-.56,20.21s-.14,13.47-.25,20.2c-.12,7.68-.29,15.36-.59,23a.18.18,0,0,0,.14.18c3,.41,5.94.72,8.93.92,1.36.09,3.48.16,4.85.21.95,0,2.57.41,3.3-.43a7.37,7.37,0,0,0,1-2.91c.38-1.49.67-3,.93-4.51.48-2.8.83-5.63,1.34-8.43s3.29-20.46,3.5-23.25c.45-6,.56-5.24.95-11.22l1.33-20.6a.17.17,0,0,0,0-.1,15.79,15.79,0,0,1,1.79.37C169.46-66.87,169.57-67.24,169.33-67.3Z"/><path class="cls-10" d="M186-52.22a46.73,46.73,0,0,0-.8-8.6c-.28-1.34-.71-2.71-1-4.05-.66-2.79-1.49-4.08-1.64-4.11s-7.77-.39-10.31-.21a23.57,23.57,0,0,0-7.58,1.48,2.94,2.94,0,0,0-1.92,2.17,41.74,41.74,0,0,0-.3,4.74c0,2.93.2,5.86.45,8.78s.54,6.11.6,9.18c0,2.88.49,4,.84,6.82s1.64,16.15,1.59,19.31c0,3.31.23,6.61.48,9.9.26,3.48.9,7,1.16,10.44a.19.19,0,0,0,.19.19c3.13-.06,7.77-.18,10.9-.37,1.45-.09,2.92-.16,4.37-.31a3.65,3.65,0,0,0,2.37-.9c.7-.77.53-2,.54-2.94,0-1.64.05-3.28.08-4.91q.06-4.74.1-9.46C186.17-27.45,186.22-39.85,186-52.22Z"/><path class="cls-8" d="M155.67,2.26c1.64.26,3-1.61,3.42-3,.07-.24-.31-.3-.37-.07C158.42.29,157.27,2,156,1.89c-1.77-.16-1.21-2.69-.92-3.81.06-.24-.31-.3-.37-.07C154.35-.81,153.83,2,155.67,2.26Z"/><path class="cls-8" d="M169.68-1.95c-1.1,1.26-.26,3.44.69,4.48.17.18.42-.1.26-.28-.74-.82-1.59-2.71-.79-3.76,1.08-1.41,2.93.41,3.72,1.25.17.18.42-.1.26-.28C173-1.43,170.91-3.35,169.68-1.95Z"/></g><g class="cls-11"><path class="cls-8" d="M-51.46,0V16.65c14.78,6.2,35.51,5.23,53.16,2.42,24.85-4,49.13-10.91,74.56-9.58,27.21,1.44,53.19,14.8,80.65,9.78,11.83-2.17,22.87-6.13,34.77-8.1,27.89-4.62,53.29,10.73,81.47,10,19.09-.49,36.11-8.85,54.4-12.08,27.47-4.85,58-5.67,84.84,1.4,14.45,3.81,28.67,9.55,44.1,9,17.46-.66,40.26-8.16,57.26-11,72.8-12.36,94.41,17.18,147.91,5.27,17.57-3.91,34.82-9.38,53.26-9.94,23.34-.72,42.45,8.37,64.51,11.39,21.07,2.88,40.82-.52,60.49-6,17.13-4.73,44.09-4.25,68.79,4.29,36.52,12.63,78.61-2.79,118.82-5.09,22.4-1.28,37.85,3.3,57.8,9,48.48,13.94,86.54-9.57,134.15-6,23.45,1.78,44.65,11.55,68.21,12.41,31,1.14,60.53-13.4,91.37-10.63,8.49.76,16.62,2.82,24.66,4.87,14.81,3.76,30.38,5.82,44.42,1.52,0,0,.16-3.28.39-19.6Z"/></g></svg>