<svg id="圖層_1" data-name="圖層 1" xmlns="http://www.w3.org/2000/svg" xmlns:xlink="http://www.w3.org/1999/xlink" viewBox="0 0 815.43 91.05"><defs><style>.cls-1{fill:none;}.cls-2{clip-path:url(#clip-path);}.cls-3{fill:#003171;}</style><clipPath id="clip-path"><rect class="cls-1" width="815.43" height="91.05"/></clipPath></defs><g class="cls-2"><rect class="cls-3" x="-106.53" width="1500.98" height="74.16"/><path class="cls-3" d="M1393.47,73.16c-.15,9.84-.4,8.19-.79,8.49-7.22,5.43-16.34,7.77-26.1,8.3-16,.86-37.8-3.71-51.63-6.92-5.5-1.27-11.26-3.33-17-3.18-7.41.18-15.46,2.05-22.54,3.61-18.57,4.08-39.05,6.6-58.91,5.86s-38.72-6-58.48-7.67c-31.5-2.6-58.39,6.31-89.13,8.72-23.64,1.86-47.3-.81-68.45-8.78C970.39,70.27,949.82,88.72,911,91c-20.38,1.17-64.77-9.57-82.09-13.88-21-5.23-41.14,7.94-61.1,11.62a134,134,0,0,1-49.67-.33c-15.54-3.08-29-11-45.15-12.4-20.41-1.79-40,4.5-59.11,9-29,6.84-58.38,2-87.11-2.91-29.11-4.92-49.89-5.41-78.81.88-15.7,3.41-31.83,7.17-48.32,7.27-15.68.09-28.42-5.18-43.17-8.45-28.85-6.39-62.54-9.25-90,.2-21,7.23-44.39,11.15-67.39,7.81-20.58-3-40.48-12.3-62.07-10.2C122.28,81,108.86,86,93.68,86.83,64,88.38,37.22,74.54,8.09,75.49c-21.42.7-40.68,9.13-61.35,12.72-17.62,3.06-38.51,2.49-53.27-4.27V73.16Z"/></g></svg>