<svg xmlns="http://www.w3.org/2000/svg" xmlns:xlink="http://www.w3.org/1999/xlink" viewBox="0 0 1500.98 478.62"><defs><style>.cls-1,.cls-24,.cls-25,.cls-27,.cls-28,.cls-30,.cls-31,.cls-32,.cls-33,.cls-34{fill:none;}.cls-2{isolation:isolate;}.cls-3{clip-path:url(#clip-path);}.cls-4{fill:#1f3b6f;}.cls-5{fill:#01509c;}.cls-6{fill:#00b3d7;}.cls-7{fill:#e27373;}.cls-8,.cls-9{fill:#0fa4e2;mix-blend-mode:multiply;}.cls-9{opacity:0.39;}.cls-10{fill:#fff;}.cls-11{fill:#2d3861;}.cls-12{fill:#f08486;}.cls-13{opacity:0.31;}.cls-14{clip-path:url(#clip-path-2);}.cls-15{fill:#db5e59;}.cls-16{opacity:0.41;}.cls-17{fill:#bc4a4b;}.cls-18{clip-path:url(#clip-path-3);}.cls-19{fill:#fff8ee;}.cls-20{fill:#fbc61d;}.cls-21{fill:#ef9ca1;}.cls-22{fill:#ec7b70;}.cls-23{fill:#e6f1ef;}.cls-24,.cls-27,.cls-28{stroke:#fdebb8;}.cls-24,.cls-25,.cls-27,.cls-28,.cls-30{stroke-linecap:round;stroke-linejoin:round;}.cls-24{stroke-width:1.24px;}.cls-25{stroke:#ec7b70;stroke-width:1.35px;}.cls-26{fill:#f9be2d;}.cls-27{stroke-width:1.27px;}.cls-28{stroke-width:1.96px;}.cls-29{fill:#1ec1fd;}.cls-30{stroke:#1692c1;stroke-width:1.44px;}.cls-31,.cls-32,.cls-33,.cls-34{stroke:#fff;stroke-miterlimit:10;}.cls-31{stroke-width:0.66px;}.cls-32{stroke-width:1.02px;}.cls-33{stroke-width:0.62px;}.cls-34{stroke-width:0.55px;}.cls-35{fill:#ce5140;}.cls-36{fill:#093750;}.cls-37{fill:#e67740;}.cls-38{fill:#bf4130;}.cls-39{fill:#1a325e;}</style><clipPath id="clip-path"><rect class="cls-1" width="1500.98" height="478.62"/></clipPath><clipPath id="clip-path-2"><path class="cls-1" d="M764.4,299.18s-4.88-.44-6,6.82c-1.45,9,17.8,23.47,44.79,24.25A22.2,22.2,0,0,0,813.22,329c5-1.92,24.73-29.14,20.27-45.83-.71-2.66-2.93-9.88-9.54-8.27,0,0-3.52-14.64-15.53-5.73,0,0-2.51-7.17-10.72-4.75-6.44,1.89-7.83,6.39-7.83,6.39s-6-1.44-10,.78a11.5,11.5,0,0,0-5.62,9.12s-7.11.08-10,5.87S764.4,299.18,764.4,299.18Z"/></clipPath><clipPath id="clip-path-3"><rect class="cls-1" y="53.07" width="1500.98" height="425.23"/></clipPath></defs><g class="cls-2"><g id="圖層_1" data-name="圖層 1"><g class="cls-3"><path class="cls-4" d="M1541.51,21c-21.91,6.77-41.9,24.55-64.49,32-26.62,8.81-60.46,5-77.68,27.12-16.54,21.26-18.76,57-17.49,82.69.39,7.93,1.25,16.19-1.8,23.51-3.57,8.54-11.86,14.19-20.38,17.78C1310.84,224.66,1249,192.24,1203.9,220c-17.75,10.94-32.67,30.93-53.49,29.7-8.35-.5-16.07-4.56-24.3-6-21.9-3.85-42.24,10.85-60.12,24.07-54.08,40-136.79,25.58-200,24.06-52.9-1.26-108.65-11.05-160.64-3.69-46.3,6.57-92.13,17-138.88,20.08-45.48,3-91.91-2.63-137.51-3.64-11.23-.25-22.94-.62-32.83-5.92a21.51,21.51,0,0,1-6.59-5.14c-2.54-3.11-3.74-7.07-5.25-10.79-14.15-35-56.11-50.2-93.8-50.7-14.88-.19-30.34,1-45-2.26-15.12-3.39-24.67-13.57-38.29-19.9-22.82-10.59-51.38-7.46-71.36-22.75-16.19-12.39-23.57-22.84-43.28-29.25C82.4,154.55,78,143,73.17,133.39A92.94,92.94,0,0,0,25.64,89.64c-10.4-4.23-21.48-6.51-32.08-10.2A127.85,127.85,0,0,1-35.45,65V538.34h1577Z"/><path class="cls-4" d="M1541.51,21c-21.91,6.77-41.9,24.55-64.49,32-26.62,8.81-60.46,5-77.68,27.12-16.54,21.26-18.76,57-17.49,82.69.39,7.93,1.25,16.19-1.8,23.51-3.57,8.54-11.86,14.19-20.38,17.78C1310.84,224.66,1249,192.24,1203.9,220c-17.75,10.94-32.67,30.93-53.49,29.7-8.35-.5-16.07-4.56-24.3-6-21.9-3.85-42.24,10.85-60.12,24.07-54.08,40-136.79,25.58-200,24.06-52.9-1.26-108.65-11.05-160.64-3.69-46.3,6.57-92.13,17-138.88,20.08-45.48,3-91.91-2.63-137.51-3.64-11.23-.25-22.94-.62-32.83-5.92a21.51,21.51,0,0,1-6.59-5.14c-2.54-3.11-3.74-7.07-5.25-10.79-14.15-35-56.11-50.2-93.8-50.7-14.88-.19-30.34,1-45-2.26-15.12-3.39-24.67-13.57-38.29-19.9-22.82-10.59-51.38-7.46-71.36-22.75-16.19-12.39-23.57-22.84-43.28-29.25C82.4,154.55,78,143,73.17,133.39A92.94,92.94,0,0,0,25.64,89.64c-10.4-4.23-21.48-6.51-32.08-10.2A127.85,127.85,0,0,1-35.45,65V538.34h1577Z"/><path class="cls-5" d="M201.46,323.6c51.86,20.61,110.54,7.55,165.87,14.78,48.92,6.4,97.06,28.83,145.66,20.31-37.25,7.34-75.42,11.94-113.2,8.13-27.2-2.74-53.93-9.82-81.25-10.87-22.93-.89-46,3.15-68.85,1.42-21.24-1.61-42.83-7-63.59-11.56-2,3.16,1.48,6.85,4.54,9,16.14,11.1,32.39,22.28,50.35,30.11,31.32,13.65,66.15,16.44,100.26,18.52,12.93.78,26,1.53,38.3,5.71s23.75,12.34,28.95,24.2c-28.39-19.19-65.76-14.54-100-14.05-19.54.28-39.42-1.11-57.77-7.82-36.58-13.37-61.79-47.41-98-60.32-16.88-6-33.6-12.76-51.13-16.94A1166.59,1166.59,0,0,1-16,299.47a161.62,161.62,0,0,1,87.67,7.12c29.46,11,59.42,31.49,92.33,23.94-4-6.66-9-15.88-14.29-21.42-10.61-11-25.58-16.47-39.11-23.63-16.22-8.58-30.8-19.94-44.82-31.78,6.33-1.78,12.91,1.3,18.67,4.47,19.32,10.65,37.48,23.46,57.6,32.64C162.63,300.2,180.13,315.12,201.46,323.6Z"/><path class="cls-5" d="M1158,353.88c12.55-.76,25.09-1.52,37.61-.62,37,2.66,72.55,19.7,109.59,17.55-7.43,8.59-19.66,11.63-31,11s-22.22-4.47-33.16-7.49a242.9,242.9,0,0,0-52.27-8.44c-17.26-.88-27.59,4.82-44,8.52-19.11,4.31-38.91-.7-58.32-3.39-66.62-9.24-126,14.46-187.38,36,38.94-12,80.74-2.65,121.34.85,31.82,2.74,63.82,1.81,95.73.58,17.93-.7,36.17-1.45,53.51,3.14,20.36,5.38,38.56,17.9,59.36,21.17-15.58,3.36-31.68-.52-47.29-3.72a548.61,548.61,0,0,0-139.94-10.29c-19.46,1.07-38.94,3.18-58.41,2.11-54.75-3-107.69-8.59-162.24-13.09-63.45-5.24-127.14,0-190.68-1.31-7.57-.16-15.36-.46-22.31-3.48,67.81-1.64,135.49-24.82,202.34-13.31,40.08,6.9,73.6,8.53,111.7-7.43,38.3-16,75.47-33.46,118-32.65,32.43.62,64.7,6,97.13,5.3C1144.21,354.72,1151.09,354.3,1158,353.88Z"/><path class="cls-5" d="M1407.16,195.81c-9,24.8-30.52,53.6-57.93,56.92-12.58,1.52-22.26.63-34.85,5.24-10.42,3.81-35.18,10.83-41.59,20.34,9.33-13.82,25.12-21.73,40.71-27.66,22.51-8.57,50.76-17.44,67.37-36,10.45-11.7,13.51-28.41,23.11-40.82,13.6-17.59,38.12-23.87,51.93-41.29,4.32-5.45,7.43-11.81,12.1-17,4.64-4.63,9.63-6.39,14.81-9.76,5.64-3.67,10.47-10.22,14.67-15.39a149.72,149.72,0,0,0,13.16-19c1.63-2.79,10.17-15.15,9-18.14,4.29,10.84,2.79,23.34-1.87,34s-12.2,19.85-20.12,28.41c-14,15.15-29.76,29.18-48.23,38.67-5.3,2.72-11.89,6.2-16.1,10.47-2.64,2.68-4.35,6.56-3.46,10.21,1.38,5.7,8.61,9.91,7,15.57-.55,2-2.18,3.65-2.17,5.71,0,1.88,1.39,3.42,2.35,5a12.94,12.94,0,0,1-1.11,14.46c-2,2.38-5,4.77-4.28,7.76.66,2.59,4.27,2.9,5.89,5a8.53,8.53,0,0,1,.64,9.32c12-1,23-6.88,34.2-11.48,3.79,0,9.68-3.7,13.41-4.89,4.91-1.56,9.9-2.9,14.93-4,9.47-2.11,18.25-3.55,27.92-3.58a410.22,410.22,0,0,1-60,24.13c-6.45,2-13.06,3.93-18.76,7.57-5.42,3.45-9.77,8.3-14.48,12.66-13.06,12.07-29.72,16.29-43.22,26.8-15.58,12.11-30.82,24.64-46.61,36.47.59-6.22,5.05-11.32,9.61-15.58,14.89-13.92,33-23.93,49-36.48,6.12-4.78,12.07-10.09,15.71-16.94,4.37-8.21,2.72-14.61,1-23.06-1.69-8.14,2.1-13.95,4.95-21.33a34.7,34.7,0,0,0,.77-22.19c-.85-2.87-2.82-13.3-6.42-13.83-6.89-1-10.9,17.59-12.43,22.06C1407.56,194.7,1407.36,195.25,1407.16,195.81Z"/><path class="cls-5" d="M762.21,332A418.34,418.34,0,0,0,707,333.76c-33.94,3.45-67.54,9.7-100.8,17.16,26.45,1.81,52.67-4.84,79.07-7.24,19.5-1.77,39.13-1.23,58.71-1.18q50.52.13,100.94-4.15l-40.38-3.66C790.24,333.39,776.22,332.41,762.21,332Z"/><path class="cls-5" d="M414.44,491.89c-17.82,2.23-32.28,5.54-50.45,1.83A236.81,236.81,0,0,1,309.51,475c10.35,5,22.26,5.66,33.75,5.16,13.41-.6,28.88.74,41.78-2,38.21-8,78-1.27,115.68,8.87,10.61,2.85,21.27,6,32.25,6.5,27.52,1.25,55.77-14,81.69-4.69q-41.77,4.45-83.62,8c-15.1,1.27-30.48,2.44-45.26-.87-8.74-2-17.1-5.46-25.93-6.95C444.83,486.58,429.55,490,414.44,491.89Z"/><path class="cls-5" d="M58.05,153.86c21.37-1,29.81,15,48.52,21,6.62,2.12,13.67,2.87,20.08,5.56.76.32,1.51.68,2.25,1.07-11.79-9.91-19.65-18.21-36.29-23.62C82.4,154.55,78,143,73.17,133.39c-.41-.81-.9-1.57-1.34-2.37a38.12,38.12,0,0,1-3.7,2.79,110.08,110.08,0,0,1-54.75,18.33c-10.17.57-22,.4-28.43,8.29,3.45-4.21,29-3.42,34.81-4Q38.87,154.73,58.05,153.86Z"/><path class="cls-5" d="M2.48,218.79a52,52,0,0,1-13.25-1.52A46.29,46.29,0,0,0,2.48,218.79Z"/><path class="cls-5" d="M160.47,199.16c.71-.24,1.37-.41,2.06-.62-9.51-2.24-18.57-5.36-26.35-11.22a14.91,14.91,0,0,1,3.52,8,6.84,6.84,0,0,1-1.12,4.87,7.39,7.39,0,0,1-3.49,2.19c-7.22,2.56-15.16.92-22.71-.36-17-2.88-34.7-3.74-51.52.29-12,2.89-23.35,8.2-35.13,12a81.47,81.47,0,0,1-23.25,4.41c8.09.05,16.6-1,23.75-1.49,13.45-.9,26.84-2.48,40.29-3.43,14.83-1.05,29.66.26,44.47.88,11.46.47,28.44-3,38.89,2.29,4.46,2.25,8.21,5.66,12.09,8.8a126.36,126.36,0,0,0,70.56,27.64c-.45-1.91-2.44-3-4.21-3.8-17.28-8.22-33.12-19.13-48.88-30l-7.2-5c-4.65-3.2-9.3-6.41-13.65-10A3.81,3.81,0,0,1,157,202.6C156.77,200.85,158.8,199.73,160.47,199.16Z"/><path class="cls-5" d="M1153.85,501.7c-19.54-1.85-39.32,2.55-58.21-1.73-21.44-4.87-41.14-15.42-62.57-20.36-44.59-10.27-93.15-.44-138.66-3.87-19.54-1.47-42.43,5.65-60.73-4.23,17.12-8.9,55.19-1.66,76-4.15,18.92-2.27,37.65-6.37,56.69-7.22,18.71-.82,37.4,1.51,55.95,4.08,86.19,11.94,172.44,29.16,259.38,25.46C1243,509.38,1197.07,505.78,1153.85,501.7Z"/></g><path class="cls-6" d="M607.56,301.61a10.38,10.38,0,0,0-1.69,2.17,23.94,23.94,0,0,1,11.44,5c-.16-.55-.35-1.09-.55-1.63A30.36,30.36,0,0,0,607.56,301.61Z"/><path class="cls-7" d="M627.63,280.18s.89-18.18,30.15-20.32c20.86,1.67,22.23,15.71,22.23,15.71Z"/><path class="cls-8" d="M628.85,284s.89-18.18,30.15-20.32c20.87,1.67,22.24,15.71,22.24,15.71Z"/><path class="cls-9" d="M634.76,282.09s.68-13.78,22.87-15.41c15.82,1.27,16.86,11.92,16.86,11.92Z"/><path class="cls-7" d="M679,271.91c-2.91,1.54-8.93,2.12-16.17,2.55-3.54.2-7.38.37-11.29.6A160.52,160.52,0,0,0,632.48,277C615.72,280.06,617,291.85,617,291.85s-7.4.24-9.64,9.57a33.58,33.58,0,0,1,9.41,6.19c.12.36.25.72.35,1.08l-.23-.18a23.79,23.79,0,0,0-11-4.73A6.55,6.55,0,0,0,605,309l-.16-.1s-3.92,3.52-2.66,8,10.74,3.09,13.1,2.34a19.35,19.35,0,0,0-1.35-2.1,15.84,15.84,0,0,1,1.54,2.29,20.17,20.17,0,0,0,2.18,1.07l0-.11c2.63,1.07,6.78,2.11,9.22-.46.22.37.45.72.67,1.1l.11,0c1,.24,9.3,2,14-1.24.3.7.46,1.13.46,1.13,14.9,3.88,27.88-12.12,28.88-17.15s8.85-22.83,10.11-25S683.74,271.94,679,271.91Zm-59.87,21.22q.66.74,1.29,1.5c-.42-.51-.86-1-1.31-1.51Zm3.34,4.11c-.52-.71-1.07-1.41-1.63-2.11C621.42,295.83,622,296.53,622.49,297.24Zm0,0c.12.16.22.33.34.49C622.72,297.58,622.62,297.41,622.5,297.25Zm1,1.5c.14.21.28.42.41.63C623.82,299.17,623.68,299,623.54,298.75Zm1,1.53c.14.22.27.45.39.67C624.78,300.73,624.65,300.5,624.51,300.28Zm.91,1.6.34.63Zm.91,1.82c.06.13.13.26.18.39C626.46,304,626.39,303.83,626.33,303.7Zm.82,2,.2.57Zm.55,1.65c.07.22.13.43.19.65C627.83,307.74,627.77,307.53,627.7,307.31Zm.59,2.35c0-.22-.09-.43-.14-.65C628.2,309.23,628.25,309.44,628.29,309.66Zm.4,5.82c0-.21,0-.42,0-.63C628.72,315.06,628.7,315.27,628.69,315.48Zm-.5,3.71c0-.2.07-.4.11-.6C628.26,318.79,628.23,319,628.19,319.19Zm.32-1.85c0-.22.06-.45.08-.67C628.57,316.89,628.54,317.12,628.51,317.34Zm0-6.49c0,.18.06.35.08.52C628.55,311.2,628.52,311,628.49,310.85Zm.22,2.23c0,.14,0,.29,0,.43C628.72,313.37,628.72,313.22,628.71,313.08Z"/><path class="cls-10" d="M642.86,319.76a1,1,0,0,1-.53,1.13,1,1,0,0,1-1.29-.46,63.69,63.69,0,0,0-24.44-27.16,1,1,0,1,1,1-1.67,65.71,65.71,0,0,1,25.19,28A.76.76,0,0,1,642.86,319.76Z"/><path class="cls-10" d="M627.86,320.29a1,1,0,0,1-1.76.77,57.82,57.82,0,0,0-18-18.17,1,1,0,0,1-.3-1.34,1,1,0,0,1,1.34-.31A59.72,59.72,0,0,1,627.75,320,.85.85,0,0,1,627.86,320.29Z"/><path class="cls-10" d="M616.47,318.77a1,1,0,0,1-.46,1.1,1,1,0,0,1-1.33-.38,23.7,23.7,0,0,0-9.3-9.25,1,1,0,1,1,.93-1.71,25.69,25.69,0,0,1,10.08,10A1.43,1.43,0,0,1,616.47,318.77Z"/><path class="cls-10" d="M662.29,314.27a1,1,0,0,1-1.82.67,78.65,78.65,0,0,0-33.13-34.75,1,1,0,0,1,.93-1.71,80.59,80.59,0,0,1,34,35.62A.85.85,0,0,1,662.29,314.27Z"/><path class="cls-11" d="M793.61,325.3s-5.3,8.95-1.07,13.59,16.22-10.21,16.22-10.21Z"/><path class="cls-11" d="M822.5,314.26s9.92,3.15,9.86,9.43-18.91,3.19-18.91,3.19Z"/><path class="cls-12" d="M764.4,299.18s-4.88-.44-6,6.82c-1.45,9,17.8,23.47,44.79,24.25A22.2,22.2,0,0,0,813.22,329c5-1.92,24.73-29.14,20.27-45.83-.71-2.66-2.93-9.88-9.54-8.27,0,0-3.52-14.64-15.53-5.73,0,0-2.51-7.17-10.72-4.75-6.44,1.89-7.83,6.39-7.83,6.39s-6-1.44-10,.78a11.5,11.5,0,0,0-5.62,9.12s-7.11.08-10,5.87S764.4,299.18,764.4,299.18Z"/><g class="cls-13"><g class="cls-14"><path class="cls-10" d="M764.78,325.3a2.47,2.47,0,0,1-2.45-2.2A14.81,14.81,0,0,1,770.39,308a12.92,12.92,0,0,1,1.12-9.37,10.39,10.39,0,0,1,9.67-5.7,10.57,10.57,0,0,1,5.64-7.08,11.94,11.94,0,0,1,7.85-1.19c1-1.79,3.06-3.87,7.52-4.85a8.54,8.54,0,0,1,8.83,3.56c2.58-1.74,5.09-2.31,7.49-1.68,3.33.87,5.36,3.8,6.42,5.9a13.24,13.24,0,0,1,8.87,1.27c5.42,2.87,8,8.7,8.51,10.52a2.47,2.47,0,0,1-4.78,1.27,14.07,14.07,0,0,0-6-7.42,8.58,8.58,0,0,0-7.19-.36,2.49,2.49,0,0,1-1.93-.13,2.46,2.46,0,0,1-1.25-1.47c-.34-1.07-1.79-4.27-3.87-4.8-1.72-.45-3.79,1.08-5.22,2.43a2.5,2.5,0,0,1-2.25.61A2.46,2.46,0,0,1,808,288c-.16-.4-1.69-4-4.78-3.34-4,.87-4.43,2.65-4.48,3a2.29,2.29,0,0,1-1,2.12,2.47,2.47,0,0,1-2.47.17,7.75,7.75,0,0,0-6.09.25c-3.64,2-3.33,4.75-3.28,5.05a2.46,2.46,0,0,1-.73,2.25,2.49,2.49,0,0,1-2.31.59c-4.87-1.16-6.76,2.36-7,2.76-2.13,4.33-.34,7-.32,7a2.47,2.47,0,0,1-1.26,3.83c-.32.1-8,2.68-7.12,10.88a2.47,2.47,0,0,1-2.18,2.73Zm34-37.7"/><path class="cls-10" d="M780.9,337.07a2.44,2.44,0,0,1-1.62-.61,10.9,10.9,0,0,1-2.49-12.93c2.23-4.52,6.74-5.6,10.27-5.48.28-3,1.33-7.61,5-10.65a15.2,15.2,0,0,1,10.79-3.25c.91-1.84,3-4.08,7.67-5.11s8.44,2.19,10.52,4.52a9.76,9.76,0,0,1,7.75-1.89c5.69,1.16,8.6,7.56,8.92,8.29a2.47,2.47,0,0,1-4.54,2c-.58-1.32-2.68-4.87-5.38-5.42-1.61-.32-3.45.47-5.45,2.37a2.48,2.48,0,0,1-3.79-.48c0-.05-3.5-5.29-7-4.53-3.95.87-4.43,2.65-4.49,3a2.27,2.27,0,0,1-.82,2,2.43,2.43,0,0,1-2.23.44s-5.16-1.14-8.8,1.91-3.28,9.42-3.27,9.48a2.5,2.5,0,0,1-.88,2.1,2.47,2.47,0,0,1-2.23.49c-.22-.05-5.68-1.41-7.6,2.47a5.94,5.94,0,0,0,1.34,7,2.48,2.48,0,0,1-1.66,4.31Z"/></g></g><path class="cls-15" d="M811.33,330.37h-.06c-9.67-.49-20.65-5.78-32.63-15.73a131.91,131.91,0,0,1-15.08-14.75,1.1,1.1,0,1,1,1.69-1.41c.23.28,24.15,28.58,46.13,29.69a1.1,1.1,0,0,1,0,2.2Z"/><path class="cls-15" d="M811.53,330.47a1.13,1.13,0,0,1-.71-.26c-17.91-15.23-37.3-48.58-37.49-48.91a1.12,1.12,0,0,1,.4-1.51,1.1,1.1,0,0,1,1.5.41c.19.33,19.4,33.35,37,48.33a1.1,1.1,0,0,1-.72,1.94Z"/><path class="cls-15" d="M811.78,330.38a1.1,1.1,0,0,1-1.06-.83c-5.47-21.61-21.69-57.89-21.86-58.25a1.1,1.1,0,1,1,2-.9c.16.36,16.46,36.81,22,58.61a1.1,1.1,0,0,1-.8,1.33A1.26,1.26,0,0,1,811.78,330.38Z"/><path class="cls-15" d="M812,330.28h-.16a1.1,1.1,0,0,1-.93-1.25c1.72-11.44-3.56-59.2-3.61-59.69a1.09,1.09,0,0,1,1-1.21,1.11,1.11,0,0,1,1.21,1c.22,2,5.36,48.53,3.6,60.26A1.1,1.1,0,0,1,812,330.28Z"/><path class="cls-15" d="M812.31,330.29a1,1,0,0,1-.6-.19,1.09,1.09,0,0,1-.31-1.52c10-15.08,11.33-49.67,11.45-53.57v-.09h0a1.1,1.1,0,1,1,2.2,0v.14c-.19,6.46-1.68,39.45-11.81,54.72A1.09,1.09,0,0,1,812.31,330.29Z"/><path class="cls-15" d="M814.6,286.71c1.74,0,2-2.72.27-2.72s-2,2.72-.27,2.72Z"/><path class="cls-15" d="M828.77,295.8c1.74,0,2-2.71.27-2.71s-2,2.71-.27,2.71Z"/><path class="cls-15" d="M799.44,276c1.74,0,2-2.72.27-2.72s-2,2.72-.27,2.72Z"/><path class="cls-15" d="M805.6,294.5c1.74,0,2-2.72.27-2.72s-2,2.72-.27,2.72Z"/><path class="cls-15" d="M785.24,286.31c1.74,0,2-2.72.27-2.72s-2,2.72-.27,2.72Z"/><path class="cls-15" d="M795.84,303.12c1.74,0,2-2.71.26-2.71s-2,2.71-.26,2.71Z"/><path class="cls-15" d="M785.78,312.41c1.74,0,2-2.72.27-2.72s-2,2.72-.27,2.72Z"/><path class="cls-15" d="M775.11,300.15c1.74,0,2-2.71.27-2.71s-2,2.71-.27,2.71Z"/><path class="cls-15" d="M770.31,315.59c1.74,0,2-2.71.27-2.71s-2,2.71-.27,2.71Z"/><path class="cls-15" d="M781.86,323.52c1.74,0,2-2.72.27-2.72s-2,2.72-.27,2.72Z"/><path class="cls-15" d="M817.17,305.31c1.74,0,2-2.71.27-2.71s-2,2.71-.27,2.71Z"/><g class="cls-16"><path class="cls-17" d="M831.45,301.77c-4.84,13.27-14.84,26-18.23,27.27a22.2,22.2,0,0,1-10.07,1.21,74.85,74.85,0,0,1-18.59-2.85s15.64-1.44,27.77-7.81S831.45,301.77,831.45,301.77Z"/></g><g class="cls-18"><path class="cls-19" d="M1262.32,336.39c0,1,.06,2,.16,3,2.47,27.56,31.8,50.26,19.84,79.59-.46,1.14-1.14,2.38-2.35,2.67-1.89.46-3.31-1.69-4-3.51-3.7-9.65-3.41-19.8-6.81-29.39-3.45-9.75-9.09-18.52-13.77-27.68-5.3-10.38-8.41-20.73-7.88-32.44.42-9.18,5.91-16.63,6.39-25.93.62-11.72,2.25-23.85-1-35.46a2.36,2.36,0,0,1,0-2,1.79,1.79,0,0,1,.63-.49,4.47,4.47,0,0,1,4.19.05c4.6,2.58,5.7,12.09,6.62,16.64a90.61,90.61,0,0,1,1.7,21.61C1265.66,314.26,1262.13,325.21,1262.32,336.39Z"/><path class="cls-19" d="M1266.18,373.19a86.9,86.9,0,0,1,13.16,22c2.44,6.28,5.37,14.56,3.73,21.26a10,10,0,0,1-2.3,4.66,5,5,0,0,1-4.77,1.51,6.52,6.52,0,0,1-3.46-3.19c-2.79-4.67-4.63-9.61-8-13.94-3.71-4.76-7.35-9.57-10.78-14.54a149.52,149.52,0,0,1-16.87-31.1,67,67,0,0,1-4.38-17c-1.13-11.17.16-22.55,0-33.69-.14-10-2.77-19.38-9.75-26.87-2.37-2.54-11.27-10.32-4.71-13.13,4.27-1.83,10.66,3.18,13.06,6.17,9.78,12.19,11.49,31.1,12.5,46,.65,9.64,1,19.59,5,28.38S1260.11,365.5,1266.18,373.19Z"/><path class="cls-19" d="M1233.87,389.54a56.86,56.86,0,0,1-8-13.1c-2.21-5-3.71-10.32-5.78-15.4-3.86-9.47-9.41-21.07-18.76-26.05-4.14-2.22-8.66-3.83-12.36-6.72a4.48,4.48,0,0,1-1.51-1.76,1.75,1.75,0,0,1,.53-2.1,2.44,2.44,0,0,1,1.25-.27c9.82-.23,19.57,5.52,26.85,11.58,8.67,7.21,15.54,16.38,21.25,26,2.73,4.62,5.25,9.4,8.55,13.64,4.49,5.77,10.9,9.51,15.52,15,4.38,5.22,9.56,9.71,13.31,15.51a26.17,26.17,0,0,1,3.65,7.88,12.58,12.58,0,0,1-.74,8.51,3.1,3.1,0,0,1-1.24,1.45c-1,.52-2.18.06-3.14-.48-3.68-2.06-6.49-5.34-9.23-8.55a26.12,26.12,0,0,0-5.51-5.45c-1.94-1.26-4.16-2-6-3.53-3-2.45-6-4.64-9.1-7A53.73,53.73,0,0,1,1233.87,389.54Z"/><path class="cls-20" d="M1267.13,369.6c-1.35.57-.72,2.6.54,2.82a1.44,1.44,0,0,0,1.52-.81,1.52,1.52,0,0,0-.34-1.7A1.62,1.62,0,0,0,1267.13,369.6Z"/><path class="cls-20" d="M1267.26,376.18c-1.92.8-1,3.7.76,4a2.08,2.08,0,0,0,2.17-1.16,2.16,2.16,0,0,0-.48-2.42A2.3,2.3,0,0,0,1267.26,376.18Z"/><path class="cls-20" d="M1277.35,400.5c-1.86-.9-.77-3.68,1-3.89a2.06,2.06,0,0,1,2.08,1.26,2.1,2.1,0,0,1-.64,2.34A2.37,2.37,0,0,1,1277.35,400.5Z"/><path class="cls-20" d="M1225,276.2c-1.52-1.41.33-3.75,2.12-3.42a2.07,2.07,0,0,1,1.63,1.81,2.13,2.13,0,0,1-1.29,2.06A2.4,2.4,0,0,1,1225,276.2Z"/><path class="cls-20" d="M1236.12,328.47c-1.51-1.4.34-3.75,2.13-3.41a2,2,0,0,1,1.62,1.8,2.12,2.12,0,0,1-1.29,2.06A2.39,2.39,0,0,1,1236.12,328.47Z"/><path class="cls-20" d="M1210.74,339.17c-1.52-1.41.33-3.75,2.12-3.42a2.06,2.06,0,0,1,1.63,1.81,2.13,2.13,0,0,1-1.29,2.06A2.4,2.4,0,0,1,1210.74,339.17Z"/><path class="cls-20" d="M1278.47,390.51c-1.34.56-.72,2.6.54,2.82a1.45,1.45,0,0,0,1.52-.81,1.52,1.52,0,0,0-.34-1.7A1.62,1.62,0,0,0,1278.47,390.51Z"/><path class="cls-20" d="M1275,379.63c-2-1.16-3.51,2.71-.93,2.82a1.62,1.62,0,0,0,1.58-1.06A1.52,1.52,0,0,0,1275,379.63Z"/><path class="cls-20" d="M1235.18,292.51c-2.32.36-2.33-3.77.13-3a1.62,1.62,0,0,1,1.11,1.55A1.52,1.52,0,0,1,1235.18,292.51Z"/><path class="cls-20" d="M1237.38,319.92c-2.33.36-2.33-3.77.12-3a1.63,1.63,0,0,1,1.11,1.55A1.51,1.51,0,0,1,1237.38,319.92Z"/><path class="cls-20" d="M1242,333c-2.33.36-2.33-3.77.13-3a1.64,1.64,0,0,1,1.1,1.55A1.51,1.51,0,0,1,1242,333Z"/><path class="cls-20" d="M1273.09,391.63c1.51-.42.37-2.92-.9-1.76a1.1,1.1,0,0,0-.24,1.25A1,1,0,0,0,1273.09,391.63Z"/><path class="cls-20" d="M1281.07,407.29c1.51-.43.37-2.93-.9-1.76a1.09,1.09,0,0,0-.24,1.24A1,1,0,0,0,1281.07,407.29Z"/><path class="cls-20" d="M1274,404.59c1.51-.43.37-2.93-.9-1.77a1.1,1.1,0,0,0-.24,1.25A1,1,0,0,0,1274,404.59Z"/><path class="cls-20" d="M1260.68,270.18c1.48.51.16,2.88-1,1.67a1,1,0,0,1-.15-1.23A1,1,0,0,1,1260.68,270.18Z"/><path class="cls-20" d="M1260.19,297.51c1.47.5.16,2.88-1,1.67A1,1,0,0,1,1259,298,1,1,0,0,1,1260.19,297.51Z"/><path class="cls-20" d="M1233.34,279.74c1.27.91-.68,2.8-1.45,1.3a1,1,0,0,1,.2-1.23A1,1,0,0,1,1233.34,279.74Z"/><path class="cls-20" d="M1238.37,301.1c1.27.91-.68,2.81-1.46,1.3a1,1,0,0,1,.21-1.22A1,1,0,0,1,1238.37,301.1Z"/><path class="cls-20" d="M1260.87,294.22c-1.21-1.68,1.07-3.61,2.76-2.92a2.06,2.06,0,0,1,1.24,2.09,2.13,2.13,0,0,1-1.68,1.76A2.38,2.38,0,0,1,1260.87,294.22Z"/><path class="cls-20" d="M1258.26,309.34c-1.21-1.68,1.07-3.6,2.76-2.92a2,2,0,0,1,1.23,2.1,2.12,2.12,0,0,1-1.68,1.75A2.37,2.37,0,0,1,1258.26,309.34Z"/><path class="cls-20" d="M1259.67,317.48c-1.21-1.68,1.07-3.61,2.76-2.92a2.06,2.06,0,0,1,1.24,2.09,2.13,2.13,0,0,1-1.68,1.76A2.38,2.38,0,0,1,1259.67,317.48Z"/><path class="cls-20" d="M1275.44,414.28c-1.21-1.68,1.07-3.61,2.76-2.92a2,2,0,0,1,1.23,2.09,2.12,2.12,0,0,1-1.67,1.76A2.38,2.38,0,0,1,1275.44,414.28Z"/><path class="cls-20" d="M1200.18,331c-2.3.5-2.56-3.62,0-3a1.63,1.63,0,0,1,1.2,1.47A1.53,1.53,0,0,1,1200.18,331Z"/><path class="cls-20" d="M1261.39,278.88c-2.35-.11-1.53-4.16.72-2.88a1.62,1.62,0,0,1,.77,1.74A1.51,1.51,0,0,1,1261.39,278.88Z"/><path class="cls-20" d="M1263.57,301.24c1.06,1.15-1.22,2.62-1.69,1a1.06,1.06,0,0,1,.45-1.16A1,1,0,0,1,1263.57,301.24Z"/><path class="cls-20" d="M1263.26,283.92c1,1.14-1.23,2.61-1.69,1a1,1,0,0,1,.45-1.16A1,1,0,0,1,1263.26,283.92Z"/><path class="cls-20" d="M1243.16,344.79c1.26.92-.68,2.81-1.46,1.3a1,1,0,0,1,1.46-1.3Z"/><path class="cls-20" d="M1208.45,332c1.26.92-.68,2.81-1.46,1.3a1,1,0,0,1,1.46-1.3Z"/><path class="cls-20" d="M1240.71,339.29c1.27.91-.68,2.81-1.45,1.3a1,1,0,0,1,1.45-1.3Z"/><path class="cls-20" d="M1218.82,340c1.27.91-.68,2.8-1.45,1.3a1,1,0,0,1,1.45-1.3Z"/><path class="cls-20" d="M1205.34,328.67c1.26.91-.68,2.81-1.46,1.3a1.05,1.05,0,0,1,.21-1.22A1,1,0,0,1,1205.34,328.67Z"/><path class="cls-20" d="M1191.67,325.86c1.55.1.9,2.74-.55,1.87a1,1,0,0,1,.55-1.87Z"/><path class="cls-21" d="M716.44,463.31c.16,1,.29,2.07.38,3.12,2.37,28.73-23.68,57.26-6.19,85.22.69,1.1,1.61,2.25,2.89,2.33,2,.13,3.1-2.32,3.49-4.32,2.09-10.56,0-20.93,1.75-31.37,1.81-10.62,6-20.63,9.2-30.87,3.59-11.6,4.93-22.78,2.3-34.7-2.06-9.34-9-16-11.18-25.47-2.72-11.92-6.55-24.08-5.33-36.56a2.44,2.44,0,0,0-.41-2,1.84,1.84,0,0,0-.74-.4,4.62,4.62,0,0,0-4.28.8c-4.27,3.47-3.7,13.42-3.83,18.26a94.33,94.33,0,0,0,2.11,22.48C709.07,441.19,714.63,451.8,716.44,463.31Z"/><path class="cls-21" d="M719,501.77c-4.24,7.84-7.82,16.19-9.58,25-1.38,6.88-2.92,15.9,0,22.48a10.55,10.55,0,0,0,3.19,4.38,5.17,5.17,0,0,0,5.17.7,6.81,6.81,0,0,0,3-3.9c2-5.29,3-10.69,5.73-15.73,3-5.55,5.84-11.13,8.47-16.85a155.46,155.46,0,0,0,11.77-34.92,69.92,69.92,0,0,0,1.45-18.24c-.83-11.67-4.17-23.12-6-34.58-1.64-10.31-.61-20.38,5.22-29.32,2-3,9.72-12.6,2.49-14.32-4.71-1.11-10.38,5.17-12.3,8.67-7.87,14.25-6.25,34-4.62,49.48,1,10,2.48,20.28-.08,30S723.89,492.79,719,501.77Z"/><path class="cls-21" d="M755.11,512.79A59.66,59.66,0,0,0,761,497.92c1.37-5.55,2-11.26,3.18-16.84,2.28-10.41,5.9-23.3,14.61-30.08,3.86-3,8.2-5.47,11.48-9.1a4.6,4.6,0,0,0,1.24-2.08,1.81,1.81,0,0,0-.92-2.06,2.71,2.71,0,0,0-1.33-.05c-10.12,1.52-19.09,9.15-25.49,16.68-7.6,8.94-13,19.57-17.16,30.5-2,5.23-3.72,10.58-6.35,15.51-3.58,6.73-9.49,11.71-13.25,18.18-3.56,6.14-8.08,11.66-10.89,18.3a26.68,26.68,0,0,0-2.34,8.73,13.14,13.14,0,0,0,2.27,8.61,3.26,3.26,0,0,0,1.54,1.26c1.09.35,2.24-.33,3.13-1.05,3.41-2.78,5.71-6.65,7.94-10.43a27.51,27.51,0,0,1,4.69-6.57c1.76-1.64,3.9-2.84,5.5-4.68,2.63-3,5.3-5.84,8.09-8.78A56.12,56.12,0,0,0,755.11,512.79Z"/><path class="cls-22" d="M744.05,394.87c1.31-1.71-1-3.78-2.79-3.12a2.15,2.15,0,0,0-1.35,2.14,2.23,2.23,0,0,0,1.7,1.88A2.47,2.47,0,0,0,744.05,394.87Z"/><path class="cls-22" d="M741.91,450.51c1.31-1.71-1-3.79-2.79-3.12a2.14,2.14,0,0,0-1.35,2.14,2.23,2.23,0,0,0,1.7,1.88A2.48,2.48,0,0,0,741.91,450.51Z"/><path class="cls-22" d="M769.87,457c1.31-1.71-1-3.78-2.79-3.12a2.15,2.15,0,0,0-1.35,2.14,2.23,2.23,0,0,0,1.7,1.88A2.47,2.47,0,0,0,769.87,457Z"/><path class="cls-22" d="M736.46,413.43c2.46,0,1.72-4.28-.66-3a1.71,1.71,0,0,0-.86,1.78A1.57,1.57,0,0,0,736.46,413.43Z"/><path class="cls-22" d="M739.1,442c2.45,0,1.72-4.29-.66-3a1.7,1.7,0,0,0-.86,1.79A1.59,1.59,0,0,0,739.1,442Z"/><path class="cls-22" d="M736.67,456.18c2.46,0,1.72-4.29-.66-3a1.72,1.72,0,0,0-.86,1.79A1.58,1.58,0,0,0,736.67,456.18Z"/><path class="cls-22" d="M706.32,395.06c-1.43.79.34,3,1.34,1.54a1.1,1.1,0,0,0-.06-1.29A1.07,1.07,0,0,0,706.32,395.06Z"/><path class="cls-22" d="M711.69,423c-1.42.79.35,3,1.34,1.53a1.07,1.07,0,0,0-.06-1.29A1.08,1.08,0,0,0,711.69,423Z"/><path class="cls-22" d="M736.07,400c-1.13,1.16,1.2,2.76,1.73,1.07a1.08,1.08,0,0,0-.43-1.21A1.06,1.06,0,0,0,736.07,400Z"/><path class="cls-22" d="M734.72,422.82c-1.13,1.16,1.2,2.76,1.73,1.08a1,1,0,0,0-1.73-1.08Z"/><path class="cls-22" d="M710.41,419.77c.94-1.94-1.75-3.51-3.36-2.51a2.15,2.15,0,0,0-.89,2.37,2.21,2.21,0,0,0,2,1.51A2.48,2.48,0,0,0,710.41,419.77Z"/><path class="cls-22" d="M715.78,434.83c.94-1.94-1.74-3.51-3.35-2.51a2.12,2.12,0,0,0-.89,2.37,2.2,2.2,0,0,0,2,1.5A2.48,2.48,0,0,0,715.78,434.83Z"/><path class="cls-22" d="M715.78,443.43c.94-1.94-1.74-3.51-3.35-2.51a2.13,2.13,0,0,0-.89,2.37,2.22,2.22,0,0,0,2,1.51A2.47,2.47,0,0,0,715.78,443.43Z"/><path class="cls-22" d="M779.24,446.66c2.45.11,2-4.17-.47-3.06a1.69,1.69,0,0,0-1,1.73A1.58,1.58,0,0,0,779.24,446.66Z"/><path class="cls-22" d="M707.14,404.12c2.39-.53.83-4.54-1.25-2.83a1.69,1.69,0,0,0-.49,1.92A1.59,1.59,0,0,0,707.14,404.12Z"/><path class="cls-22" d="M708.89,427.46c-.88,1.37,1.72,2.46,1.9.71a1.1,1.1,0,0,0-.66-1.11A1.08,1.08,0,0,0,708.89,427.46Z"/><path class="cls-22" d="M706.12,409.62c-.88,1.37,1.73,2.46,1.91.71a1,1,0,0,0-1.91-.71Z"/><path class="cls-22" d="M737.6,468.52c-1.13,1.16,1.2,2.75,1.73,1.07a1.1,1.1,0,0,0-.43-1.22A1.07,1.07,0,0,0,737.6,468.52Z"/><path class="cls-22" d="M770.94,449.16c-1.14,1.16,1.2,2.76,1.73,1.07a1.07,1.07,0,0,0-.44-1.21A1.06,1.06,0,0,0,770.94,449.16Z"/><path class="cls-22" d="M739.13,462.43c-1.14,1.17,1.2,2.76,1.73,1.08a1.1,1.1,0,0,0-.43-1.22A1.09,1.09,0,0,0,739.13,462.43Z"/><path class="cls-22" d="M761.71,459.21c-1.13,1.16,1.2,2.76,1.73,1.07a1.08,1.08,0,0,0-.43-1.21A1.06,1.06,0,0,0,761.71,459.21Z"/><path class="cls-22" d="M773.54,445.23c-1.14,1.16,1.2,2.76,1.73,1.07a1.08,1.08,0,0,0-.43-1.21A1.07,1.07,0,0,0,773.54,445.23Z"/><path class="cls-22" d="M787.07,439.9c-1.58.39-.44,3,.9,1.83a1.09,1.09,0,0,0,.28-1.26A1.08,1.08,0,0,0,787.07,439.9Z"/><path class="cls-19" d="M394.9,422.53a.87.87,0,0,0-.84-.42,1.15,1.15,0,0,0-.69.4,9.06,9.06,0,0,0-1.08,2.38,15.74,15.74,0,0,1-3.2,4.29,35,35,0,0,1-6.09,4.57l-1.48.91-.66.4a6.79,6.79,0,0,1-.07-2.06,15.82,15.82,0,0,1,1-3.11c.07-.17.14-.33.22-.5s.17-.33.24-.51c.49-1,1.06-1.92,1.63-2.88.41-.69,1.22-1.59.77-2.29a.37.37,0,0,0-.18-.17l-.09,0a.93.93,0,0,0-.29,0,4.2,4.2,0,0,0-2.9,1.81,17.49,17.49,0,0,0-2.1,3l-.29.58a6,6,0,0,0-.25.58,7.65,7.65,0,0,0-.37,5.43,3.74,3.74,0,0,0,.79,1.31c-2.19,1.28-4.3,2.52-6.12,3.76a31.08,31.08,0,0,0-5.09,4.14c-.23.24-.45.48-.68.71a18.52,18.52,0,0,0,.5-2.14,16.29,16.29,0,0,0,.11-4.52,41.07,41.07,0,0,0-.81-4.49c-.37-1.51-.61-2.95-1-4.58a23.13,23.13,0,0,0-1.37-3.7,26.72,26.72,0,0,0-1.95-3.53,36.67,36.67,0,0,0-4.25-5.36l.15-.09a28.13,28.13,0,0,0,5-3.73c1.29-1.28,2.75-2.48,3.9-3.84a25.21,25.21,0,0,0,3.66-5.89l.58-.11a21.45,21.45,0,0,0,5.34-2h0l.56-.34c.19-.1.37-.21.56-.33h0a11,11,0,0,0,3.62-3.47c.57-1,.52-1.68.06-1.78-1.09-.23-2.62,1.73-5.83,3.63h0l-.47.29-.49.28h0c-1.11.64-2.19,1.18-3.12,1.65.06-.19.13-.37.18-.56A31.31,31.31,0,0,0,373,389a14.47,14.47,0,0,0-.58-3.58,1.44,1.44,0,0,0-.65-.74,1.17,1.17,0,0,0-1.47.37,1.76,1.76,0,0,0-.37,1.19,36.19,36.19,0,0,0,.13,4.54,24.22,24.22,0,0,1-1.4,9.09c-.12.42-.28.83-.41,1.24s-.3.82-.48,1.24a26.2,26.2,0,0,1-4.11,6.8c-.48-1.72-1.36-4.17-1.36-4.17l-.12-.45c0-.15-.06-.3-.1-.45-.67-3,.48-5.41-.47-5.68-.5-.13-1.34.41-2,1.54a7,7,0,0,0-.85,4.6,13,13,0,0,0,2.14,5.31A4.53,4.53,0,0,0,362,411c-.37.37-.74.73-1.1,1.06-1,.89-2,1.72-3,2.58l-.73.58L356,414a54.17,54.17,0,0,1-5.87-6.92c-.56-.8-1.09-1.61-1.59-2.42a31.29,31.29,0,0,1-2.92-6.18c.34-.49.79-1.2,1.45-2s1.51-1.84,2.52-3a36.56,36.56,0,0,0,3.21-4c.21-.31.37-.62.55-.92s.33-.62.49-.94c1.09-2.24,2.22-5.49,0-7.39a1.46,1.46,0,0,0-.93-.38h-.15a1,1,0,0,0-.67.44,1.44,1.44,0,0,0-.16.63c-.1,1.06,0,2.13-.11,3.19a9.25,9.25,0,0,1-1.16,3c-.15.28-.28.56-.44.83s-.31.54-.49.82c-.84,1.36-1.9,2.64-2.79,3.85a19.79,19.79,0,0,0-2.1,3.33,40.76,40.76,0,0,1-1.25-8.64,16,16,0,0,0-.35-3.38,5,5,0,0,0-.52-1.85c-.82-1.07-1.7.22-1.84.85a15,15,0,0,0-.31,2.39,32.78,32.78,0,0,0,.37,7l-.38-.35c-.69-.61-1.45-1.29-2.21-2h0l-.46-.43-.44-.44h0a32.8,32.8,0,0,1-3.35-3.83c-.76-1-1.28-1.66-1.81-1.57s-.82.92-.52,2.2a10.72,10.72,0,0,0,2.84,4.59h0l.49.48.5.47h0a34.56,34.56,0,0,0,4.72,3.4c.69.44,1.06.81,1.39,1a41.21,41.21,0,0,0,5.64,12.32,52.24,52.24,0,0,0,5.89,7.23,46.76,46.76,0,0,1,6.22,7.54,25.64,25.64,0,0,1,1.29,2.26,37.57,37.57,0,0,1-6.43-1.22c-.25-.07-.5-.13-.74-.21-2.36-.79-4.16-2.18-6.26-3.22a2,2,0,0,0-.83-.25,1.35,1.35,0,0,0-.87.27,1,1,0,0,0-.4.49c-.36,1,1,1.91,1.89,2.54a17.88,17.88,0,0,0,4,2l.84.28c.27.09.56.17.86.24a23.72,23.72,0,0,0,7.84.76l.85-.1a23.7,23.7,0,0,1,1.06,2.92c.37,1.43.67,3.05,1,4.51a39.64,39.64,0,0,1,.85,4.32,15.27,15.27,0,0,1,0,4.11,21.27,21.27,0,0,1-1,4c-1.78,4.92-4.44,9.32-5.89,13.22-.42-5.23-2.78-12.25-8.49-18.93-.61-.72-1.24-1.4-1.87-2.08l-.22-.22c-.25-1.14-1.41-3.31-1.73-6.11,0-.2-.05-.39-.08-.58s0-.4-.07-.6a28.68,28.68,0,0,0-.42-3,4.9,4.9,0,0,0-1.26-2.31,1.32,1.32,0,0,0-1.21-.42.89.89,0,0,0-.57.45,5.25,5.25,0,0,0,0,2.43c.05,1,.07,2.1.12,3.15,0,.22,0,.42.06.63s0,.43.09.64.08.38.12.57a42.06,42.06,0,0,1-5.08-6.15,13.43,13.43,0,0,1-2.37-8.55,19.27,19.27,0,0,1,1.69-6,13.67,13.67,0,0,0,1.07-2.26.93.93,0,0,0-.15-.86,1,1,0,0,0-.79-.24,1.82,1.82,0,0,0-1.18.74,14.45,14.45,0,0,0-3.42,10.64c-.58-.64-1.22-1.32-1.85-2.06h0l-.37-.42-.34-.42h0a13.72,13.72,0,0,1-2.22-3.72c-.4-1-.58-1.66-1.11-1.69s-1.2.69-1.32,2a6.88,6.88,0,0,0,1.65,4.65h0l.39.48.4.48h0a22.19,22.19,0,0,0,4.15,3.42,9.45,9.45,0,0,0,1.16.64l0,.08a15.48,15.48,0,0,0,1.74,4.11c1.95,3.31,5.07,6.56,8.31,9.89l1.44,1.49c-.9-.3-1.86-.59-2.85-.86l-.86-.23-.84-.22a41,41,0,0,1-4.53-1.56c-.76-.33-2.33-1.68-3.36-1.28a.84.84,0,0,0-.56.8c0,1,1.41,1.78,2.4,2.34a21.84,21.84,0,0,0,4.5,1.83l.9.25.89.23a64,64,0,0,1,6.93,2l.44.17a40.73,40.73,0,0,1,5.71,9.14,34.71,34.71,0,0,1,2.59,8.85c.14.8.31,1.59.49,2.38-.44-.79-.92-1.59-1.47-2.4-2.48-3.62-6.8-7-11.95-9.85-1-.59-2.08-1.13-3.13-1.67l-2.62-1.32c-.94-1.31-2.74-3.49-5-6.39-3.69-4.74-8.74-11.44-11.85-19.7-.34-.82-.59-1.65-.88-2.47s-.5-1.65-.7-2.5v0c.38-.58.85-1.41,1.48-2.43a33.27,33.27,0,0,1,2.48-3.49c1.05-1.3,2.34-2.73,3.65-4.34l.75-1c.25-.32.48-.66.71-1a13.39,13.39,0,0,0,2.19-5.05c.32-1.8.4-4.29-1-5.81a1.08,1.08,0,0,0-.48-.34,1,1,0,0,0-.57,0l-.13.05a.66.66,0,0,0-.32.44,10.65,10.65,0,0,0-.08,2.39,16.7,16.7,0,0,1-.24,2.23,13.58,13.58,0,0,1-2.41,5.3c-.22.31-.43.62-.66.93s-.47.61-.7.92c-1.21,1.56-2.45,3.06-3.43,4.48a17.8,17.8,0,0,0-1.89,3.45,37.25,37.25,0,0,1-.35-8.68,36.09,36.09,0,0,1,1.08-6.11,27.31,27.31,0,0,1,1.5-4,18,18,0,0,1,.89-1.9,3.94,3.94,0,0,0,.84-1.83c0-.59-.57-.91-1.39-.6a2.55,2.55,0,0,0-1.38,1.27c-.12.2-.22.41-.33.61-.48.84-.9,1.7-1.31,2.55a33,33,0,0,0-3,10.08,36.76,36.76,0,0,0-.21,4.12.89.89,0,0,1-.14-.37,18.21,18.21,0,0,1-3.66-7.12,18.7,18.7,0,0,1-.61-3.92c0-.67,0-2.42-1.25-2.55h-.18c-2.67,0-1.73,6.24-1.54,7.22.07.29.13.58.2.87s.17.58.28.87a17.75,17.75,0,0,0,7.12,8.93,35.9,35.9,0,0,0,.74,4.47c.2.89.48,1.74.72,2.61s.56,1.7.91,2.56c3.33,8.52,8.78,15.27,13,19.86,1.34,1.44,2.57,2.67,3.64,3.68a45.47,45.47,0,0,1-4.3-2.46,40.69,40.69,0,0,1-5.58-4.37,45.37,45.37,0,0,1-7.12-8.57c-1.7-2.64-3-5.43-5.06-7.9a1.06,1.06,0,0,0-1.46-.27A1.12,1.12,0,0,0,309,424a9.45,9.45,0,0,0,1.31,3.5c.56,1.12,1.16,2.24,1.84,3.33.5.81,1.05,1.59,1.61,2.38l-.16-.07a28.77,28.77,0,0,1-4.34-1.69l-.49-.23s-.47-.26-.48-.25-3.49-2.05-4-2.21a1.69,1.69,0,0,0-1.11,0,.89.89,0,0,0-.56.6c-.33,1.36,2.08,2.74,3.37,3.49l.56.3a20.19,20.19,0,0,0,8.91,2.35c.19.23.37.48.56.71,1.39,1.63,2.83,3.28,4.41,4.82.37.37.76.74,1.16,1.1-1.29-.23-3.05-.48-4.93-1-.19,0-.38-.08-.57-.13,0,0-.56-.15-.57-.14-1.48-.38-2.87-.87-4.28-1.35a3.15,3.15,0,0,0-1.57-.29c-.67.09-1.16.47-1,.93s.85.8,1.28,1.07a16,16,0,0,0,4.07,1.78c.22.07.44.12.66.17a19.54,19.54,0,0,0,4.38.67c1.58.06,3.17.2,4.76.12.75.59,1.54,1.18,2.38,1.74a65.08,65.08,0,0,0,7.5,4.2l3.13,1.58.64.34-1.15-.11c-2-.12-4.37,0-6.9.05a46.45,46.45,0,0,1-7.94-.26c-.56,0-1.1-.15-1.63-.24s-1.07-.19-1.6-.3a33.85,33.85,0,0,1-7.48-2.47,30.57,30.57,0,0,1-2.84-1.51,16.39,16.39,0,0,1-2.29-1.88,4.63,4.63,0,0,0-1.42-.79,1.41,1.41,0,0,0-.93-.07.58.58,0,0,0-.37.4.81.81,0,0,0,.05.46c.6,1.89,3.11,3.5,5.18,4.71a30.91,30.91,0,0,0,8.82,3.35h0l-3.13.28-.82.07-.82.07c-1.44.12-2.87.21-4.3.3-.87.06-2.67,0-2.93.81a.46.46,0,0,0,0,.26c.22.9,1.72,1,2.85,1,.39,0,4.43,0,4.43-.07l.87-.07.88-.08c1.45-.15,2.82-.35,4-.57,1.94-.37,3.9-.73,5.82-1.17a50.91,50.91,0,0,0,5.49-.14c2.61-.2,4.83-.41,6.67-.47a39,39,0,0,1,4.44.07c4.72,2.65,8.51,5.58,10.83,8.74l.32.45-1.48.06c-3.05.14-7.27.48-12,.53l-1.41,0h-1.39a74,74,0,0,1-11.44-1c-.67-.12-3.69-.78-3.29.52.19.6,1.61.83,2.32,1.06a40.49,40.49,0,0,0,7.5,1.42l-.91.43-3.51,1.76-.49.24-.49.25c-1.3.64-4.1,1.6-4.45,2.76a.52.52,0,0,0,.07.47.49.49,0,0,0,.18.17c.59.33,2-.05,2.68-.26a30.84,30.84,0,0,0,3.29-1.3l.54-.26.53-.27a36.71,36.71,0,0,0,3.64-2.15,10.76,10.76,0,0,0,2-1.61l1.47.05,1.48,0,1.49,0a88.93,88.93,0,0,0,12.35-1.19q1.22-.21,2.16-.42a34.53,34.53,0,0,1,3.59,7.63c1.78,5.57,1.61,9.18,2.21,9.15s1.34-3.18.43-8.35c0-.44,0-.88,0-1.31a14.41,14.41,0,0,0-.42-4,9.35,9.35,0,0,1-.33-1.26,26.18,26.18,0,0,1,1.63-5c.81-1.92,1.93-4,3.15-6.31.92-1.73,1.92-3.57,2.79-5.54a38.15,38.15,0,0,1,4.13-3.88l.12-.1a7.64,7.64,0,0,0,1.89.28c1.24.09,2.92.29,5.14.41h1.36a12.46,12.46,0,0,0,6-1.35c1.33-.79,1.53-1.56,1.12-1.72s-1.19.08-2.27.33a17.44,17.44,0,0,1-4.54.45h-.59l-.6,0h0a27.59,27.59,0,0,0-5.62.23h-.06c1-.68,2-1.39,3.24-2.13,2.1-1.29,4.58-2.64,7.23-4.14l1.56-.93c.51-.32,1-.63,1.54-1a32.25,32.25,0,0,0,6.45-5.16,12.91,12.91,0,0,0,3-5C394.89,424.37,395.37,423.27,394.9,422.53Z"/><path class="cls-19" d="M866.19,455.62a1,1,0,0,0-1.49-.05l-1.57,1.14q1.41,7.62,2.29,15.32c.65,5.7,1.07,11.59-.6,17.08l1.85-.78a141.83,141.83,0,0,0,.05-31.1A2.82,2.82,0,0,0,866.19,455.62Z"/><path class="cls-20" d="M890.21,425.46a2.54,2.54,0,0,0-3.29,0,6.73,6.73,0,0,0-2,3c-1.7,4.12-2.82,8.47-4.78,12.47s-4.93,7.75-9.09,9.36A45.83,45.83,0,0,0,875.75,416a4,4,0,0,0-3.31-3.07c-2.94-.34-4.18,3.18-4.35,5.94-.28,4.82.25,9.66-.06,14.48s-1.6,9.81-4.93,13.31A67.32,67.32,0,0,1,858,429.86a2.42,2.42,0,0,0-4.73-.26,12.33,12.33,0,0,0,0,6.41c1.15,4.31,4,7.93,6.18,11.82a35.9,35.9,0,0,1-15.59-16.65c-.93-2-1.86-4.38-4.41-4.68a4.34,4.34,0,0,0-3.9,1.72c-2,2.56-1.57,5.85-.66,8.74,4.16,13.32,18.5,22.66,32.37,21.07,13.7-1.57,26.2-17,23.65-30.78A3.48,3.48,0,0,0,890.21,425.46Z"/><path class="cls-20" d="M888.2,465.36a3.82,3.82,0,0,0-3.65-.68c-2.1.77-2.42,2.93-2.8,4.84a31.19,31.19,0,0,1-9.88,17.19c1.07-3.73,2.76-7.36,2.88-11.23.06-1.85.39-7.38,0-9.18-1.13-4.74-9.67-6.61-7.78,1.21,1.19,5,2.64,13.94,1.65,18.95-3.51-2.3-5.59-6.26-6.81-10.28S860,468,858.83,463.94c-.69-2.3-2.45-5-4.86-4.16a3.51,3.51,0,0,0-2.2,3.26,39.9,39.9,0,0,0,10.75,28c-3.83-.53-7.1-3.11-9.55-6.11s-4.27-6.45-6.52-9.6a5.86,5.86,0,0,0-2.25-2.12,2.22,2.22,0,0,0-2.78.69,3,3,0,0,0-.26,1.65c.59,12.19,14.23,22.74,26.13,21.35,12.05-1.42,22.33-12.16,23.2-24.26C890.68,470,890.4,467.13,888.2,465.36Z"/><path class="cls-23" d="M874.47,454.48a.5.5,0,0,1-.17-1c4.39-1.63,13.54-12.39,13.2-17.81a.5.5,0,1,1,1-.06c.37,5.87-9.12,17.05-13.85,18.8A.47.47,0,0,1,874.47,454.48Z"/><path class="cls-23" d="M872.74,434.81h-.12a.51.51,0,0,1-.36-.61,55.39,55.39,0,0,0,1.5-7.42,27.38,27.38,0,0,0-.17-7.4.5.5,0,0,1,.42-.56.47.47,0,0,1,.56.41,28.49,28.49,0,0,1,.18,7.66,54.86,54.86,0,0,1-1.53,7.55A.48.48,0,0,1,872.74,434.81Z"/><path class="cls-23" d="M873,478.29h0a.5.5,0,0,1-.48-.52,65.51,65.51,0,0,0-.36-9.7.49.49,0,0,1,.43-.55.48.48,0,0,1,.55.44,66.14,66.14,0,0,1,.38,9.85A.5.5,0,0,1,873,478.29Z"/><path class="cls-23" d="M859.71,484.69a.49.49,0,0,1-.3-.1,5.81,5.81,0,0,1-1.32-1.61,29.67,29.67,0,0,1-3.5-8.43.5.5,0,0,1,.36-.6.48.48,0,0,1,.6.37,29.06,29.06,0,0,0,3.39,8.14A4.87,4.87,0,0,0,860,483.8a.49.49,0,0,1,.1.69A.51.51,0,0,1,859.71,484.69Z"/><path class="cls-20" d="M176.7,271.78a8.91,8.91,0,0,0-5.18.4c-15.92,6.27-22.15,25.15-25,39.83-3.91-3.06-2.49-10.51-2.06-14.81s3-7.63,2.54-12c-.33-2.8-3.33-2.64-4.25-2.93a3.36,3.36,0,0,0-2.12.23c-7.74,2.89-11,10.57-12.54,17.79a73.86,73.86,0,0,0-1,23.71c1.13,9.69,4.14,19.46,3,29-5.48-3.13-6.35-9.46-7.75-14.84s-5.85-11.79-12.12-11.29c-5.31.43-7.73,5.74-7.48,10.35a21.3,21.3,0,0,0,2.61,9c2,3.73,5.11,7,7.73,10.47,8.43,11.2,12,24.8,9.77,37.33l-6.66,7.75a58.7,58.7,0,0,0,18.42,6.67,6.74,6.74,0,0,0,2.82.09,5.62,5.62,0,0,0,2.27-1.44L164.05,385c1.72-1.57,3.5-3.21,4.18-5.32l.15-.56c1.22-5.52-5.56-10.46-11.79-8.82-4.25,1.13-9.93,5.27-13.76,10.52-1.34-13.17,12-22.58,19.5-29.29s14.82-14.81,14.16-24.48c-.13-1.93-.66-4-3.37-4.95a6.52,6.52,0,0,0-5.12.45c-3.42,1.83-4.43,5.28-6.68,7.93-1.87,2.19-5.36,3.85-8.37,2.49,4.49-18.2,22.53-31.19,28.54-49C183,279.54,182.72,273.15,176.7,271.78Z"/><path class="cls-24" d="M167.25,278.94a18.19,18.19,0,0,1-3.47,5.93"/><path class="cls-24" d="M173.71,288.79a16.86,16.86,0,0,1-4.34,6"/><path class="cls-24" d="M162.28,292.82a6,6,0,0,0-3.1,4.1"/><path class="cls-24" d="M159.18,305.74s.74.63-.87,2.24"/><path class="cls-24" d="M153.46,303.51s-2.11,2.23-2.85,7.7"/><path class="cls-24" d="M152.84,317.05s0,1.49-2.23,4.22"/><path class="cls-24" d="M142.49,289.34s-3.07,4.1-3.69,7"/><path class="cls-24" d="M133.58,293.44a13.56,13.56,0,0,0-2,6.23"/><path class="cls-24" d="M138.8,286.74s-2.61,1-3.1,2.6"/><path class="cls-24" d="M177.69,277.29a6.11,6.11,0,0,1,0,4.71"/><line class="cls-24" x1="171.54" y1="282" x2="169.37" y2="284.87"/><path class="cls-24" d="M140.65,303.51a17.37,17.37,0,0,0-.6,7.08"/><path class="cls-24" d="M134.11,304.13s-.22,5.47,0,7.08"/><path class="cls-24" d="M128.49,311.83s.62,3.23.87,5.22"/><path class="cls-24" d="M132.59,316.18s.75,3,1,4.1"/><path class="cls-24" d="M138.8,318.23a52.39,52.39,0,0,1,0,6.4"/><path class="cls-24" d="M145.64,317.05s1,3.11,0,5"/><path class="cls-24" d="M149.49,333.57a23.47,23.47,0,0,0-2.36,5.72"/><path class="cls-24" d="M144.39,330.22a45.3,45.3,0,0,0-2.48,6.21"/><path class="cls-24" d="M134,328.48s1.18,5.47,0,7.21"/><path class="cls-24" d="M169.37,325.5a21.91,21.91,0,0,0-3.36,4.72"/><path class="cls-24" d="M172.84,330.22a70.92,70.92,0,0,1-3.47,6.83"/><path class="cls-24" d="M168.37,335.06s-2.61,2.61-3.48,3.36"/><path class="cls-24" d="M159.35,336.43a7.91,7.91,0,0,1-2.9,2"/><path class="cls-24" d="M162.28,347a21.43,21.43,0,0,1-4,2.86"/><path class="cls-24" d="M157.9,347a48.22,48.22,0,0,1-6.18,3.85"/><path class="cls-24" d="M147.13,347a34.62,34.62,0,0,0-4,4.85"/><path class="cls-24" d="M138.91,342.57s-2.34,5.91-2.72,6.84"/><path class="cls-24" d="M148.31,358.17a21.92,21.92,0,0,0-3.92,5"/><path class="cls-24" d="M136.19,359.79a22.3,22.3,0,0,0-1,6.21"/><path class="cls-24" d="M129.11,358.17s.13,2.86,0,5"/><path class="cls-24" d="M117.24,348.42a57.46,57.46,0,0,1,.94,6.65"/><path class="cls-24" d="M117.24,339.29s3.18,7,3.05,9.63"/><path class="cls-24" d="M118.19,333.64a11.09,11.09,0,0,1,1.6,4.78"/><path class="cls-24" d="M105.26,331.59s-1.62,5.46,0,9.44"/><path class="cls-24" d="M108.86,338.42a18.1,18.1,0,0,0,2,5.68"/><path class="cls-24" d="M112.34,333.57s1.61,3.48,1.24,5.72"/><path class="cls-24" d="M122.15,359.79s3,5.59,4,7.95"/><path class="cls-24" d="M138.91,371.47a7.84,7.84,0,0,0-.73,5.22"/><path class="cls-24" d="M130.73,370.72s.62,3.85-.75,6.59"/><path class="cls-24" d="M133.21,381.9a21.68,21.68,0,0,0-.87,5.35"/><path class="cls-24" d="M153.59,377.93s-4.85,5-5.28,6.64"/><path class="cls-24" d="M156,374.08a9.62,9.62,0,0,0-3.73,2"/><path class="cls-24" d="M163.9,376.06s-1.49,4.48-2.73,5.84"/><line class="cls-24" x1="140.17" y1="381.9" x2="140.17" y2="386.38"/><path class="cls-21" d="M49.63,153a6.25,6.25,0,0,0-1.2,2.15c-.31,2.18-.07,2.9,1.87,5.66,1.25,1.77,8.85,8,9.8,6.58,1.31-2-1.65-9.89-4.33-13.08C54.44,152.72,51.58,151,49.63,153Z"/><path class="cls-21" d="M66.47,155.09c-3.25,2.62-7.65,9.84-6.73,12,.66,1.57,9.3-3.1,10.87-4.61,2.42-2.34,2.8-3,2.91-5.21a6.41,6.41,0,0,0-.78-2.34C71.2,152.67,68.07,153.79,66.47,155.09Z"/><path class="cls-21" d="M43.85,165.19a8.3,8.3,0,0,0-2.19,2.31c-1.07,2.64-1,3.62.57,7.68,1,2.62,8.56,12.81,10.2,11.34,2.26-2.05,1-12.91-1.31-17.75C50,166.39,46.9,163.36,43.85,165.19Z"/><path class="cls-21" d="M64.27,173.14c-4.89,2.26-12.68,9.91-12.21,12.93.33,2.18,12.63-.95,15.06-2.35,3.78-2.16,4.46-2.88,5.29-5.6a8.11,8.11,0,0,0-.24-3.17C71,171.6,66.68,172,64.27,173.14Z"/><path class="cls-21" d="M36.75,182.16a8.17,8.17,0,0,0-2.52,2c-1.48,2.43-1.55,3.41-.65,7.67.59,2.75,6.47,14,8.31,12.79C44.45,202.9,45,192,43.37,186.84,42.59,184.3,40.05,180.83,36.75,182.16Z"/><path class="cls-21" d="M55.68,193.21c-5.18,1.47-14.07,7.81-14.09,10.86,0,2.21,12.63,1,15.25,0,4.07-1.55,4.85-2.14,6.1-4.7a8.5,8.5,0,0,0,.26-3.18C62.53,192.73,58.23,192.48,55.68,193.21Z"/><path class="cls-21" d="M25.63,201.09A8.17,8.17,0,0,0,23.11,203c-1.48,2.43-1.55,3.41-.64,7.67.58,2.75,6.46,14,8.3,12.79,2.56-1.67,3.06-12.58,1.48-17.73C31.47,203.23,28.93,199.76,25.63,201.09Z"/><path class="cls-21" d="M44.56,212.13C39.38,213.61,30.49,220,30.48,223c0,2.2,12.62,1,15.24,0,4.07-1.55,4.86-2.14,6.1-4.7a8.11,8.11,0,0,0,.26-3.18C51.41,211.66,47.12,211.41,44.56,212.13Z"/><path class="cls-21" d="M13.08,226a8.27,8.27,0,0,0-1.54,2.78c-.39,2.82-.07,3.75,2.45,7.3,1.62,2.29,11.47,10.29,12.69,8.45C28.37,242,24.5,231.73,21,227.63,19.29,225.61,15.58,223.43,13.08,226Z"/><path class="cls-21" d="M34.84,228.6c-4.18,3.4-9.83,12.75-8.63,15.56.86,2,12-4.06,14-6,3.12-3,3.61-3.89,3.73-6.73a8.24,8.24,0,0,0-1-3C40.94,225.45,36.89,226.92,34.84,228.6Z"/><path class="cls-21" d="M14.22,251.41a8.25,8.25,0,0,0-.64,3.12c.47,2.8,1.06,3.6,4.52,6.23,2.24,1.7,14,6.38,14.64,4.26.85-2.93-5.89-11.52-10.45-14.39C20,249.21,15.85,248.25,14.22,251.41Z"/><path class="cls-21" d="M43.44,244.79c-2.79-2.21-6.21.41-7.67,2.63-3,4.49-5.56,15.1-3.57,17.42,1.43,1.68,10.23-7.46,11.57-9.93,2.07-3.83,2.27-4.79,1.54-7.54A8.17,8.17,0,0,0,43.44,244.79Z"/><path class="cls-21" d="M20.13,270.76a8.17,8.17,0,0,0-.64,3.12c.47,2.8,1.05,3.6,4.52,6.23,2.24,1.7,14,6.38,14.64,4.26.85-2.93-5.9-11.52-10.45-14.39C26,268.56,21.76,267.59,20.13,270.76Z"/><path class="cls-21" d="M49.34,264.14c-2.78-2.21-6.2.41-7.66,2.62-3,4.5-5.56,15.11-3.58,17.43,1.43,1.68,10.24-7.46,11.57-9.93,2.07-3.83,2.28-4.79,1.55-7.54A8.2,8.2,0,0,0,49.34,264.14Z"/><path class="cls-21" d="M24.25,285.46a8.21,8.21,0,0,0-2,2.51c-.82,2.72-.65,3.69,1.28,7.59,1.25,2.52,9.73,11.95,11.22,10.33,2.07-2.25-.16-12.94-3-17.54C30.44,286.08,27.11,283.35,24.25,285.46Z"/><path class="cls-21" d="M45.33,291.46c-4.65,2.71-11.69,11.06-10.95,14,.54,2.14,12.49-2.13,14.78-3.75,3.56-2.51,4.17-3.29,4.74-6.07a8.28,8.28,0,0,0-.54-3.14C51.85,289.3,47.62,290.12,45.33,291.46Z"/><path class="cls-21" d="M18.85,305a8.09,8.09,0,0,0-2,2.51c-.83,2.72-.65,3.69,1.28,7.59,1.25,2.52,9.73,11.95,11.22,10.33,2.06-2.26-.16-13-3-17.55C25,305.66,21.71,302.93,18.85,305Z"/><path class="cls-21" d="M39.93,311c-4.66,2.71-11.69,11.06-10.95,14,.54,2.14,12.48-2.13,14.78-3.75,3.55-2.52,4.17-3.29,4.73-6.08a8.11,8.11,0,0,0-.53-3.14C46.45,308.88,42.22,309.7,39.93,311Z"/><path class="cls-21" d="M23.07,332.94c-2.48-.94-6.78-1.07-7.76,2.35a8.16,8.16,0,0,0,0,3.19c1,2.66,1.74,3.32,5.66,5.22,2.53,1.23,15,3.5,15.19,1.3C36.4,342,28.1,334.86,23.07,332.94Z"/><path class="cls-21" d="M42.66,323.06c-3.17-1.61-6,1.62-7,4.08-2,5-2.48,15.91-.08,17.79,1.73,1.36,8.57-9.32,9.39-12,1.28-4.16,1.29-5.15,0-7.7A8.19,8.19,0,0,0,42.66,323.06Z"/><path class="cls-25" d="M59.74,167.11S57.27,187.44,38.82,211c-22.61,28.87-5.13,54.14-1.35,67.07s-9.92,40.35-7.86,54.07a36.13,36.13,0,0,0,11.64,21.39"/><path class="cls-26" d="M255.75,309.75a3.85,3.85,0,0,0-.63,1.4c-.08,1.36.12,1.8,1.47,3.4.87,1,5.91,4.47,6.42,3.54.7-1.29-1.56-6-3.39-7.86C258.71,309.33,256.84,308.44,255.75,309.75Z"/><path class="cls-26" d="M266.28,310.14c-1.86,1.8-4.2,6.51-3.51,7.81.5.93,5.59-2.43,6.47-3.45,1.38-1.58,1.58-2,1.52-3.38a4,4,0,0,0-.61-1.4C269.08,308.39,267.2,309.26,266.28,310.14Z"/><path class="cls-26" d="M252.83,317.62a5.08,5.08,0,0,0-1.22,1.55c-.53,1.69-.42,2.3.76,4.72.77,1.57,6,7.47,6.93,6.46,1.29-1.39-.05-8-1.77-10.9C256.68,318,254.62,316.32,252.83,317.62Z"/><path class="cls-26" d="M265.9,321.43c-2.9,1.67-7.3,6.83-6.85,8.67.32,1.33,7.76-1.28,9.19-2.27,2.22-1.55,2.6-2,3-3.76a5.22,5.22,0,0,0-.32-1.95C270,320.12,267.33,320.61,265.9,321.43Z"/><path class="cls-26" d="M249.36,328.51a5.16,5.16,0,0,0-1.45,1.34c-.78,1.59-.78,2.2,0,4.79.51,1.66,4.75,8.3,5.83,7.46,1.49-1.17,1.21-8,0-11.05C253.09,329.52,251.33,327.51,249.36,328.51Z"/><path class="cls-26" d="M261.68,334.32c-3.13,1.19-8.29,5.6-8.13,7.49.11,1.36,7.87-.05,9.44-.81,2.43-1.18,2.88-1.59,3.51-3.24a4.89,4.89,0,0,0,0-2C265.89,333.65,263.22,333.73,261.68,334.32Z"/><path class="cls-26" d="M243.51,340.83a5.19,5.19,0,0,0-1.46,1.34c-.78,1.59-.77,2.2,0,4.79.52,1.66,4.76,8.3,5.84,7.46,1.49-1.18,1.21-7.95,0-11.05C247.24,341.84,245.48,339.83,243.51,340.83Z"/><path class="cls-26" d="M255.82,346.64c-3.12,1.19-8.28,5.6-8.12,7.49.11,1.36,7.87-.05,9.44-.81,2.43-1.18,2.88-1.6,3.51-3.25a5.08,5.08,0,0,0,0-2C260,346,257.37,346.05,255.82,346.64Z"/><path class="cls-26" d="M237.1,356.9a5,5,0,0,0-.81,1.81c-.09,1.76.16,2.32,1.91,4.38,1.13,1.33,7.66,5.74,8.32,4.54.9-1.67-2-7.78-4.43-10.13C240.92,356.35,238.5,355.2,237.1,356.9Z"/><path class="cls-26" d="M250.7,357.35c-2.4,2.34-5.39,8.43-4.49,10.1.64,1.21,7.2-3.16,8.34-4.48,1.77-2.05,2-2.61,1.95-4.37a5.2,5.2,0,0,0-.8-1.82C254.31,355.07,251.88,356.2,250.7,357.35Z"/><path class="cls-26" d="M239.19,372.59a4.87,4.87,0,0,0-.23,2c.44,1.71.85,2.17,3.13,3.61,1.48.93,9,3.19,9.3,1.85.36-1.87-4.28-6.81-7.26-8.34C242.67,370.91,240,370.54,239.19,372.59Z"/><path class="cls-26" d="M256.9,366.91c-1.84-1.22-3.81.58-4.6,2-1.59,2.94-2.62,9.65-1.26,11,1,1,5.93-5.17,6.62-6.77,1.07-2.48,1.14-3.09.54-4.75A4.88,4.88,0,0,0,256.9,366.91Z"/><path class="cls-26" d="M243.89,384.24a5.28,5.28,0,0,0-.23,2c.45,1.71.85,2.17,3.14,3.61,1.48.93,9,3.18,9.29,1.84.37-1.86-4.27-6.81-7.25-8.34C247.37,382.57,244.73,382.19,243.89,384.24Z"/><path class="cls-26" d="M261.61,378.56c-1.84-1.22-3.82.59-4.6,2-1.59,2.94-2.62,9.65-1.27,11,1,1,5.93-5.18,6.62-6.78,1.08-2.48,1.15-3.09.55-4.75A5,5,0,0,0,261.61,378.56Z"/><path class="cls-26" d="M247.24,393.12a5.06,5.06,0,0,0-1.08,1.66c-.36,1.72-.2,2.32,1.21,4.62.91,1.49,6.67,6.87,7.5,5.78,1.16-1.5-.8-8-2.78-10.69C251.11,393.16,248.9,391.65,247.24,393.12Z"/><path class="cls-26" d="M260.61,395.68c-2.73,1.93-6.63,7.48-6,9.28.45,1.29,7.61-2,8.94-3.13,2.06-1.75,2.4-2.26,2.6-4a5,5,0,0,0-.5-1.91C264.53,394,262,394.73,260.61,395.68Z"/><path class="cls-26" d="M245,405.52a5.25,5.25,0,0,0-1.07,1.66c-.37,1.73-.21,2.32,1.2,4.63.91,1.49,6.67,6.87,7.51,5.78,1.15-1.5-.81-8-2.79-10.69C248.83,405.57,246.62,404.06,245,405.52Z"/><path class="cls-26" d="M258.33,408.09c-2.73,1.93-6.63,7.48-6,9.27.45,1.3,7.61-2,8.94-3.12,2.07-1.75,2.4-2.26,2.6-4a5,5,0,0,0-.5-1.91C262.25,406.4,259.68,407.14,258.33,408.09Z"/><path class="cls-26" d="M249.09,422.56c-1.59-.45-4.25-.29-4.67,1.88a5,5,0,0,0,.16,2c.77,1.59,1.26,2,3.79,2.93,1.63.62,9.48,1.34,9.47,0C257.83,427.42,252.31,423.48,249.09,422.56Z"/><path class="cls-26" d="M260.68,415.38c-2.05-.82-3.63,1.33-4.12,2.91-1,3.2-.67,10,.92,11,1.15.75,4.8-6.23,5.16-7.94.57-2.65.52-3.26-.4-4.77A5.16,5.16,0,0,0,260.68,415.38Z"/><path class="cls-27" d="M262.77,318s-.43,12.71-10.56,28.3C239.79,365.35,252,380,255,387.83s-3.94,25.51-1.93,33.88a22.46,22.46,0,0,0,8.37,12.61"/><path class="cls-26" d="M1437.34,112.48a8.53,8.53,0,0,1,2.31,2.33c1.17,2.69,1.11,3.7-.4,7.92-1,2.73-8.52,13.39-10.23,11.91-2.39-2.06-1.39-13.26.93-18.3C1431.09,113.86,1434.16,110.67,1437.34,112.48Z"/><path class="cls-26" d="M1416.51,121.15c5.08,2.21,13.28,9.91,12.88,13-.3,2.25-13-.69-15.57-2.07-3.94-2.14-4.66-2.86-5.57-5.64a8.45,8.45,0,0,1,.17-3.28C1409.58,119.72,1414,120.06,1416.51,121.15Z"/><path class="cls-26" d="M1449.08,126.09a10.9,10.9,0,0,1,3.62,2.2c2.31,3,2.56,4.28,2,10-.37,3.72-6.45,19.46-9.07,18.14-3.63-1.82-5.92-16.16-4.6-23.21C1441.68,129.79,1444.52,124.82,1449.08,126.09Z"/><path class="cls-26" d="M1425.71,143.52c7.07,1.17,19.76,8.22,20.24,12.26.34,2.91-16.53,3.24-20.15,2.31-5.61-1.44-6.74-2.11-8.76-5.3a10.94,10.94,0,0,1-.82-4.16C1416.58,143.91,1422.22,142.94,1425.71,143.52Z"/><path class="cls-26" d="M1464.19,145.35a10.79,10.79,0,0,1,3.92,1.6c2.76,2.59,3.2,3.83,3.54,9.61.23,3.73-3.33,20.22-6.12,19.33-3.87-1.23-8.37-15-8.17-22.21C1457.46,150.15,1459.49,144.8,1464.19,145.35Z"/><path class="cls-26" d="M1443.83,166.2c7.16.06,20.81,5,21.9,9,.8,2.82-15.82,5.79-19.53,5.44-5.77-.55-7-1-9.48-3.88a10.91,10.91,0,0,1-1.46-4C1434.88,168,1440.3,166.18,1443.83,166.2Z"/><path class="cls-26" d="M1485.14,165.68a10.94,10.94,0,0,1,3.93,1.6c2.75,2.6,3.19,3.83,3.54,9.61.22,3.73-3.34,20.23-6.13,19.34-3.87-1.24-8.37-15-8.17-22.21C1478.41,170.49,1480.45,165.14,1485.14,165.68Z"/><path class="cls-26" d="M1464.78,186.54c7.17.05,20.81,5,21.91,9,.79,2.82-15.82,5.79-19.54,5.44-5.77-.55-7-1-9.48-3.88a10.91,10.91,0,0,1-1.46-4C1455.83,188.35,1461.25,186.51,1464.78,186.54Z"/><path class="cls-26" d="M1510,193.12a10.84,10.84,0,0,1,3,3c1.5,3.47,1.42,4.78-.55,10.22-1.28,3.52-11.08,17.25-13.29,15.33-3.06-2.67-1.72-17.13,1.3-23.63C1502,194.87,1505.94,190.76,1510,193.12Z"/><path class="cls-26" d="M1483.08,204.21c6.55,2.88,17.1,12.87,16.56,16.89-.39,2.91-16.82-.95-20.09-2.75-5.08-2.79-6-3.72-7.17-7.31a10.86,10.86,0,0,1,.24-4.24C1474.14,202.33,1479.84,202.78,1483.08,204.21Z"/><path class="cls-26" d="M1517.58,226.16a11,11,0,0,1,1.93,3.77c.38,3.76-.09,5-3.6,9.59-2.26,3-15.73,13.15-17.26,10.65-2.12-3.46,3.48-16.86,8.31-22.16C1509.34,225.4,1514.37,222.68,1517.58,226.16Z"/><path class="cls-26" d="M1477.78,228c2.79-3.81,8.1-1.67,10.76.65,5.39,4.72,12.47,17.4,10.75,21.08-1.24,2.66-15.76-5.94-18.35-8.63-4-4.18-4.61-5.35-4.65-9.13A10.89,10.89,0,0,1,1477.78,228Z"/><path class="cls-26" d="M1516.85,253.06a10.81,10.81,0,0,1,1.93,3.77c.39,3.76-.08,5-3.59,9.59-2.27,3-15.73,13.14-17.26,10.65-2.13-3.47,3.48-16.86,8.3-22.16C1508.62,252.3,1513.65,249.58,1516.85,253.06Z"/><path class="cls-26" d="M1477.05,254.91c2.8-3.82,8.1-1.67,10.76.65,5.39,4.72,12.47,17.4,10.75,21.08-1.24,2.65-15.76-5.94-18.35-8.64-4-4.18-4.61-5.34-4.65-9.12A10.89,10.89,0,0,1,1477.05,254.91Z"/><path class="cls-26" d="M1491.87,288.52c6.93,1.83,18.9,10,19,14.11.06,2.92-16.76,1.68-20.28.41-5.45-2-6.51-2.74-8.22-6.11a10.85,10.85,0,0,1-.43-4.21C1482.75,288.06,1488.45,287.61,1491.87,288.52Z"/><path class="cls-26" d="M1505.72,311.71c6.93,1.83,18.91,10,19,14.1.07,2.93-16.76,1.69-20.28.42-5.44-2-6.5-2.74-8.22-6.11a11,11,0,0,1-.42-4.21C1496.6,311.25,1502.31,310.8,1505.72,311.71Z"/><path class="cls-28" d="M1429.39,134.18s10.36,25.2,42.36,48.88c39.2,29,25.74,67.6,25.46,85.53s27,48.22,29.21,66.53a48.09,48.09,0,0,1-7.35,31.55"/><path class="cls-29" d="M1377,333.11c-4.13-5.15-6.58-11.5-10.8-16.56-2.38-2.84-5.3-5.27-7.15-8.48a69,69,0,0,1-2.91-6.71,28.56,28.56,0,0,0-14.91-14.61c-6.94-2.9-11.42-.81-9,7.18,1.58,5.11,4.86,11.36,9,14.88,4.6,3.88,10.69,6.58,13.1,12.09,2.57,5.89,3,11.18,8.86,15,5,3.23,11.12,4,16.44,6.56a112.42,112.42,0,0,1,11.26,6.74c3.66,2.3,7.58,4.15,11.45,6.08a3.47,3.47,0,0,0,1.49.47c-1.62-2.81-4.31-4.79-6.74-6.86a54,54,0,0,0-8-5.91C1384.37,340.19,1381.22,336.48,1377,333.11Z"/><path class="cls-29" d="M1391,321.2c2.75,6.94,8.41,13.81,9.84,21.15.45,2.33,0,4.65.51,7,.24,1,.9,2,1.14,3,.1.42.49,2.87.83,2.95a5.8,5.8,0,0,1-3.81-3.42q-1.58-3.12-3.17-6.22c-2.06-4-4.13-8.07-6.14-12.13-1.68-3.39-3.23-6.88-5.59-9.83-3.35-4.19-7.94-6.72-10.25-11.77-2-4.38-.89-10-3.83-13.81a14.44,14.44,0,0,0-5-3.7c-4.18-2.14-8.54-3.95-12.42-6.59s-7.2-6.21-8.6-10.78c-1.23-4-1.48-9.19-3.4-12.86-1.47-2.8-4.53-4.28-7.08-6.15-5.71-4.17-9.35-11.38-8.31-18.37.38-2.61,1.38-5.23.79-7.8-.46-2-1.87-3.76-2.13-5.81-.33-2.6,2-8,4.83-8.72s6.43,3,8.24,4.66c4.58,4.24,9.37,8.8,11.07,14.8,1,3.52.85,7.27,1.74,10.81,1.7,6.78,6.92,12,11.6,17.21a39.48,39.48,0,0,1,9,16.25c1.48,4.9,2.29,11.07,5.05,15.41,1.93,3.05,5,5.14,7.39,7.89C1387.28,309.11,1388.73,315.43,1391,321.2Z"/><path class="cls-29" d="M1400.17,309.8c2.39,13.12,3.6,26.63,4.92,39.9a11.46,11.46,0,0,1-.41,5.71,1,1,0,0,1-.52.61,1,1,0,0,1-.88-.22c-2.74-1.83-3.59-8.68-4.52-11.71-1.52-5-2.75-10.16-5.58-14.61a61,61,0,0,1-8.66-26.3c-1-10.42-.17-21.57-4.62-31.36-2.37-5.23-6.09-9.71-9.22-14.52s-5.77-10.27-5.54-16c.11-2.8.9-5.53,1.17-8.32.62-6.4-1.51-12.73-4-18.65s-5.42-11.76-6.52-18.09-.06-13.44,4.46-18c5.07-5.14,11.88,3.48,14.61,7.28,3.23,4.5,6.53,9.16,7.73,14.57,2.16,9.68-2.78,20.1.26,29.54,1.45,4.48,4.54,8.2,6.8,12.32a35.83,35.83,0,0,1,4.37,17.64c-.13,9-3.68,18.1-1.8,26.95.89,4.18,3,8,4.6,12A53.67,53.67,0,0,1,1400.17,309.8Z"/><path class="cls-29" d="M1402.74,343.55a25.39,25.39,0,0,0,1.5,12.18c1-6.56-.25-12.89,3.62-18.51,4.7-6.81,6.87-14.63,3.45-22.6-1.35-3.16-3.45-6-5-9a28.43,28.43,0,0,1-2.6-17.19,34,34,0,0,0,.84-6.16c-.18-6.24-5.86-11.71-4.76-17.85.62-3.45,3.25-6.11,5.15-9.06a23.64,23.64,0,0,0,1.8-21.83c-1.65-3.82-4.31-7.15-5.79-11a8.13,8.13,0,0,1-.58-4.8c.84-3.4,5.13-5,8.5-4s5.9,3.71,7.94,6.56c3.44,4.78,6.1,10.46,5.75,16.35-.27,4.55-2.32,8.85-2.78,13.39-.7,6.94,2.37,13.8,2,20.77-.37,7.35-4.48,14-6.06,21.18a31.4,31.4,0,0,0,.18,14.3c1.26,5.08,3.79,9.9,4,15.13.39,7.68-4.16,14.69-9,20.63-3.31,4-7,8.21-7.56,13.39a20.21,20.21,0,0,1-.21-11.25"/><path class="cls-29" d="M1422.73,339.66c-3.15,3-7.29,3.9-10.34,6.79-2,1.9-8.12,7.37-8.21,10.29.14-4.57,2-8.08,4.69-11.63,1.73-2.28,4-4.13,5.9-6.26a28.79,28.79,0,0,0,7.14-22.16c-.72-6.45-3.64-12.76-2.67-19.18a32.61,32.61,0,0,1,3.15-8.78l6-12.8c.88-1.87,2-4,4-4.42,2.64-.59,4.9,2,6,4.45a23.13,23.13,0,0,1-.49,19.82c-2.52,4.9-6.88,9.1-7.53,14.57-.51,4.25,1.36,8.48,1.07,12.74-.24,3.31-1.76,6.39-3.42,9.28A30.48,30.48,0,0,1,1422.73,339.66Z"/><path class="cls-30" d="M1363.83,190.51a146.88,146.88,0,0,0,6.48,18.75c4.8,11.74,2.54,23.08,3.38,30.83s12.43,15.75,12.43,25.16-2.82,18.39,2,29.86,11.77,32.5,11.19,45.39"/><path class="cls-30" d="M1331.63,228.47s1.68.52,1.68,8.11,1.51,12.1,9,18.5,8.85,11.39,12.05,18.5,10.51,17.43,16,21.53c13.52,10.08,27.13,44.84,27.13,44.84"/><path class="cls-30" d="M1386.21,342.83s-14.12-3.78-20.14-12.44-6-15.23-16-22.21a30.06,30.06,0,0,1-12-16.55"/><path class="cls-30" d="M1409.37,222s7.15,9.21,4.89,23.33-7.9,15.76-4.89,29.53-2.26,5.5.38,19,8.46,26.48,2.82,39.86-8.39,14.55-8.39,14.55"/><path class="cls-30" d="M1432,278.61s-4.14,16.09-6.59,22.17,1.51,14.73,0,22.83a35,35,0,0,1-12.61,21.45"/><circle class="cls-31" cx="943.44" cy="257.01" r="3.03"/><circle class="cls-31" cx="1019.61" cy="318.93" r="3.03"/><circle class="cls-31" cx="1218.88" cy="359.2" r="3.03"/><circle class="cls-31" cx="992.7" cy="431.17" r="3.03"/><circle class="cls-31" cx="1198.44" cy="359.21" r="3.03"/><path class="cls-32" d="M1041.08,338.75a4.68,4.68,0,1,1-3.53-5.59A4.68,4.68,0,0,1,1041.08,338.75Z"/><circle class="cls-31" cx="1001.22" cy="229.62" r="3.03"/><path class="cls-32" d="M1022.69,249.45a4.68,4.68,0,1,1-3.54-5.6A4.7,4.7,0,0,1,1022.69,249.45Z"/><path class="cls-32" d="M1093.32,386.84a4.68,4.68,0,1,1-3.54-5.6A4.69,4.69,0,0,1,1093.32,386.84Z"/><path class="cls-32" d="M998.56,412.88a4.68,4.68,0,1,1-3.54-5.6A4.68,4.68,0,0,1,998.56,412.88Z"/><path class="cls-33" d="M1136.91,403.13a2.87,2.87,0,1,1-2.16-3.42A2.85,2.85,0,0,1,1136.91,403.13Z"/><path class="cls-32" d="M1180.41,402.89a4.68,4.68,0,1,1-3.54-5.6A4.68,4.68,0,0,1,1180.41,402.89Z"/><circle class="cls-34" cx="962.26" cy="219.35" r="2.53"/><path class="cls-35" d="M1211.15,409c-6.74,4.26-6.66,11.31-6.79,16.82s.7,19-16.11,24.78-31.75-9.74-43.46-11.83a20.65,20.65,0,0,0-3-.31c-10.22-.3-18,7.38-23.86,14.16-6.44,7.42-21.93,12.32-21.93,12.32s1.18.45,14.14,5a77.87,77.87,0,0,0,26.36,3.92l-2,17.92-.41,3.82c-39.25,3.42-66.65-18.89-67-19.15h0c2.56,17,10.38,26.47,16.17,34.53s6.1,19.36,6.14,19.69-6.59,2.75-6.59,2.75l-12.67,8.75s-1.81-12.45-4-17.61-9-5.73-15.93-16.95c-6.41-10.39-4-29.07-3.67-31.75v0h0v-.07s0,.05,0,.08v.05c-.07.45-.18.95-.31,1.5a53.86,53.86,0,0,1-7.63,16.74c-4.65,6.66-13,13.22-15.56,17.29s-3.14,9.13-2.48,12,.85,6.78-1.28,13.33-16,16.38-16,16.38l-1.66-1.05-13-8.32s10.47-8.62,15.08-15.85-.63-12.67-.83-22.66,5.37-16.35,13.44-21.14c7.88-4.68,10.72-9.78,10.84-10h0c-6.58,4.47-17.39,5-25.31,7.6s-7,10-13.32,18.09S965,510.32,965,510.32l-2.47-4.17-6-10,5.94-1.77s16.46-5.88,15.43-11.52-1.21-13.79,6.22-20.35,16.75-5.27,24.07-6,13.2-4.18,16-11.94-7.51-13.57-13.93-30.46-3.63-36.16,5-47.92,37.15-20,52.86-.64,5.24,39.23,2.08,48.29-6,20.78,2.11,26.71,17.84,5.89,30.9-6.62,19.93-17.64,38.86-14.64,21.59,16.41,31.56,20.56,21.37-7.65,22.72-17.45,5.59-18,12.84-18.56S1217.9,404.69,1211.15,409Z"/><ellipse class="cls-10" cx="1051.7" cy="404.13" rx="9.76" ry="9.79" transform="translate(426.12 1341.17) rotate(-77.29)"/><ellipse class="cls-36" cx="1051.7" cy="404.13" rx="6.63" ry="6.64" transform="translate(426.12 1341.17) rotate(-77.29)"/><ellipse class="cls-10" cx="1021.41" cy="405.6" rx="9.76" ry="9.79" transform="translate(401.38 1312.99) rotate(-77.31)"/><ellipse class="cls-36" cx="1021.41" cy="405.6" rx="6.63" ry="6.64" transform="translate(401.53 1313.1) rotate(-77.32)"/><path class="cls-36" d="M1031.73,417.36c.83,2.46,2.78,4.91,5.68,4.51,2.7-.38,3.56-3.15,3.73-5.49,0-.64-.94-.64-1,0-.14,2-.81,4.48-3.25,4.53-2.24,0-3.58-1.94-4.21-3.81-.2-.61-1.16-.35-1,.26Z"/><path class="cls-37" d="M1029.65,470c-1.05,1.83-2.45,4-2.45,4-6.58,4.47-17.39,5-25.31,7.6s-7,10-13.32,18.09S965,510.32,965,510.32l-2.47-4.17c2.37-.69,5.1-1.53,8.21-2.57,16.29-5.44,18.55-15.48,21-21s6.66-9.14,20-9.28S1029.65,470,1029.65,470Z"/><path class="cls-37" d="M1023.13,511.41c-2.54,4.08-3.14,9.13-2.48,12s.85,6.78-1.28,13.33-16,16.38-16,16.38l-1.66-1.05c2.13-1.83,4.65-4.18,7.37-7,7.63-8,8.1-12.2,6.9-20.07s-1-15.09,11.1-25,19.38-23.81,19.57-24.16h0v.06l-.31,1.5a53.86,53.86,0,0,1-7.63,16.74C1034,500.78,1025.67,507.34,1023.13,511.41Z"/><path class="cls-37" d="M1134.16,495.58c-39.25,3.42-66.65-18.89-67-19.15h0a39.76,39.76,0,0,1-.28-9.11s21.91,27.39,67.23,24.47l.42,0Z"/><path class="cls-37" d="M1141.81,438.41c-10.22-.3-18,7.38-23.86,14.16-6.44,7.42-21.93,12.32-21.93,12.32l-7-2s12.73-.92,21.29-7.84,17.22-18.7,31.14-16.67Z"/><path class="cls-38" d="M1096.19,464.17a53.87,53.87,0,0,1-19.7-8.52c-.53-.37-1,.49-.5.86a54.37,54.37,0,0,0,19.93,8.62c.63.13.9-.83.27-1Z"/><path class="cls-38" d="M1029.65,469.24a31.13,31.13,0,0,1-6.28,9.2c-.44.46.26,1.16.71.71a32.11,32.11,0,0,0,6.43-9.41c.26-.58-.6-1.09-.86-.5Z"/><path class="cls-38" d="M1044.66,359.89a1.19,1.19,0,0,0-1.19,1.75c.56,1.08,2.82,1.67,3.2.11A1.68,1.68,0,0,0,1044.66,359.89Z"/><path class="cls-38" d="M1046,377.82a2,2,0,0,0-1.49-1.59,4.57,4.57,0,0,0-3.12-.43,1.76,1.76,0,0,0-.93,2.6c.61,1.12,2.17,1.49,3.35,1.46A2.05,2.05,0,0,0,1046,377.82Z"/><path class="cls-38" d="M1031.62,373.61a.73.73,0,0,0,0-.2.14.14,0,0,1,0-.06,5.07,5.07,0,0,0-1.79-2.51,5.86,5.86,0,0,0-4.49-1.59,5.3,5.3,0,0,0-4.95,4.91,4.87,4.87,0,0,0,1.12,3.36,5.73,5.73,0,0,0,3.88,1.78c2.44.24,5.32-.71,6.19-3.23A4.32,4.32,0,0,0,1031.62,373.61Zm-7.14-.26a2.34,2.34,0,0,1,.49-.33A5.25,5.25,0,0,0,1024.48,373.35Z"/><path class="cls-38" d="M1039.26,365.55a.47.47,0,0,0,0-.53,4.37,4.37,0,0,0-.25-.48,2.16,2.16,0,0,0-.22-.36,4.92,4.92,0,0,0-3.53-2.14,2.89,2.89,0,0,0-2.4.69,2.07,2.07,0,0,0-.36,2.35c.79,1.7,3.37,2.22,5,2a1.76,1.76,0,0,0,1.66-1.45Z"/><path class="cls-38" d="M1056,382.43a1.59,1.59,0,0,0-2.79,1.07,2.12,2.12,0,0,0,2.68,2.23C1057.38,385.16,1057,383.28,1056,382.43Z"/><path class="cls-38" d="M1072.79,380.55a1.69,1.69,0,0,0-.9-1.33,1.79,1.79,0,0,0-2.4.92,2.73,2.73,0,0,0,.54,2.95,1.65,1.65,0,0,0,2.49-.3A2.61,2.61,0,0,0,1072.79,380.55Z"/><path class="cls-38" d="M1058.1,362.51a1.24,1.24,0,0,0-1-1.12,1.14,1.14,0,0,0-1.72.41,1.51,1.51,0,0,0,1,2.08A1.38,1.38,0,0,0,1058.1,362.51Zm-1.4.22a.23.23,0,0,1-.18-.13h.13a.79.79,0,0,0,.22.06A.17.17,0,0,1,1056.7,362.73Z"/><path class="cls-38" d="M1046.89,368.39a.78.78,0,0,0-.38-.42.44.44,0,0,0-.23-.06.46.46,0,0,0-.23,0,.58.58,0,0,0-.34.29.37.37,0,0,0,0,.11.61.61,0,0,0-.14.52.64.64,0,0,0,.5.51.76.76,0,0,0,.55-.09.7.7,0,0,0,.17-.13.57.57,0,0,0,.14-.25A.72.72,0,0,0,1046.89,368.39Z"/><path class="cls-38" d="M1063.39,385a.62.62,0,0,0,0-.27.8.8,0,0,0-.19-.32.67.67,0,0,0-.14-.09.44.44,0,0,0-.16-.06.58.58,0,0,0-.32,0,.75.75,0,0,0-.3.18v0h0l-.06.05a.23.23,0,0,0-.11.11.51.51,0,0,0-.1.21.8.8,0,0,0,0,.31.45.45,0,0,0,.12.2.5.5,0,0,0,.17.15l.2.1a.59.59,0,0,0,.47,0,.64.64,0,0,0,.34-.29,1.33,1.33,0,0,0,.1-.24A.49.49,0,0,0,1063.39,385Z"/><path class="cls-38" d="M1069.63,373.27a.61.61,0,0,0-.69-.56.64.64,0,0,0-.61.58,2.46,2.46,0,0,0-.07,1.81.6.6,0,0,0,.89.33A1.72,1.72,0,0,0,1069.63,373.27Z"/><path class="cls-38" d="M1064.19,372.36a9.33,9.33,0,0,0-2-3.37.45.45,0,0,0-.22-.4l-.86-.63-.23-.18a9.87,9.87,0,0,0-2.65-1.5,7.09,7.09,0,0,0-2.14-.54,5.16,5.16,0,0,0-4.46,1.72,4.4,4.4,0,0,0,.18,5.26,13.49,13.49,0,0,0,5,3.86c1.81.89,4,1.66,5.9.65S1064.77,374.13,1064.19,372.36Zm-7.76-3.28.3.17.16.1h-.06Zm5.56,3.5s0,0,0-.05a2.59,2.59,0,0,1,.14.29A2.5,2.5,0,0,0,1062,372.58Z"/><path class="cls-38" d="M998.06,461.76a1.15,1.15,0,0,0-.6-.82.66.66,0,0,0-.18-.14,4.77,4.77,0,0,0-2.88-.45c-.85.14-2.12.56-2.31,1.55s.79,1.56,1.57,1.81a4.36,4.36,0,0,0,2.83-.07C997.27,463.35,998.24,462.74,998.06,461.76Z"/><path class="cls-38" d="M987.9,464a2,2,0,0,0-1.84.77,2.17,2.17,0,0,0-.95.92,1.53,1.53,0,0,0,.27,1.77c1.25,1.1,2.9-.66,3.26-1.8A1.24,1.24,0,0,0,987.9,464Z"/><path class="cls-38" d="M992.24,468.15a1.11,1.11,0,0,0-1.08-.57,1.51,1.51,0,0,0-.66.25,1.74,1.74,0,0,0-1.16,1.2,1.05,1.05,0,0,0,.56,1.09,1.38,1.38,0,0,0,1.22,0C991.86,469.81,992.7,469,992.24,468.15Z"/><path class="cls-38" d="M1100.66,473.63c-.28-1.43-2.41-1.91-3.63-2a3.55,3.55,0,0,0-2.17.39,1.19,1.19,0,0,0-.34,1.64,1.61,1.61,0,0,0,.33.36C1096.14,476,1101.17,476.18,1100.66,473.63Z"/><path class="cls-38" d="M1107.8,477.26a1.39,1.39,0,0,0-.79-1.21l-.1-.07a3,3,0,0,0-2-.39,1.54,1.54,0,0,0-1.14,1.21c-.2,1.49,1.73,2.21,2.9,1.85A1.55,1.55,0,0,0,1107.8,477.26Z"/><path class="cls-38" d="M1126.52,422.34a3,3,0,0,0-2.34.21,2.74,2.74,0,0,0-1.71.78,1.45,1.45,0,0,0,.15,2.09,3.07,3.07,0,0,0,2.47.19,3.87,3.87,0,0,0,2.26-1.27A1.37,1.37,0,0,0,1126.52,422.34Z"/><path class="cls-38" d="M1130.31,428.69a1.61,1.61,0,0,0-1.82-.85,3,3,0,0,0-1.41.49,1.63,1.63,0,0,0-.95,1.74c.41,1.44,2.59,1.23,3.53.52A1.58,1.58,0,0,0,1130.31,428.69Z"/><path class="cls-38" d="M1136.92,424.06a1.44,1.44,0,0,0-.28-.27.54.54,0,0,0-.28-.25c-1.31-.5-3-1-4.21.09a1.12,1.12,0,0,0,0,1.77,3.74,3.74,0,0,0,2.06.61,4.6,4.6,0,0,0,2.14-.37A1.06,1.06,0,0,0,1136.92,424.06Z"/><path class="cls-39" d="M1530.74,248c-21.9,6.77-41.89,24.54-64.49,32-14.49,4.79-29.84,5.5-44.61,9.05-15.43,3.71-24.93,11.42-37.38,20.09-26.76,18.65-48.91,37.56-62,68.55-2.86,6.79-5.25,13.93-9.79,19.74-8.46,10.83-22.71,15.09-36.16,17.89a331.84,331.84,0,0,1-48.44,6.4c-9,.51-18,.67-26.78,2.7s-16.76,5.78-24.81,9.53c-26.32,12.26-50,19.44-77.83,27.5-42.17,12.21-85.3,20.74-128.37,29.26-21.15,4.19-42.39,8.38-63.93,9.59-14.17.79-28.45.29-42.52,2.19-14.59,2-26.38,8.86-40.14,12.59-12.26,3.31-26.65.17-39.56-.72-29.72-2-59.75-3.42-89.36.77C647,521.94,593.54,504.79,546.5,495c-33.27-6.9-65.42-16.7-99.15-18.26a555.54,555.54,0,0,1-107.84-15.71c-5.46-1.35-11-2.83-15.79-5.77s-8.76-7.39-13.05-11.21a71.73,71.73,0,0,0-47-18c-17.23-.06-34.15,6.14-51.35,5-30.54-2-55.13-26.1-84.75-33.8-16.44-4.27-36.47-4.76-45.79-19-5.42-8.26-5.37-19-9.55-27.94-5.46-11.71-17.71-19.09-30.31-21.91s-25.72-1.76-38.59-.67c-18.13,1.53-42,3.56-50.76,22.21-7.71,16.33,1.21,33.87,1.22,50.8V765.38h1577Z"/></g></g></g></svg>