<svg id="圖層_1" data-name="圖層 1" xmlns="http://www.w3.org/2000/svg" xmlns:xlink="http://www.w3.org/1999/xlink" viewBox="0 0 1500 94.55"><defs><style>.cls-1{fill:none;}.cls-2{clip-path:url(#clip-path);}.cls-3{fill:#0072b3;}.cls-4{fill:#439fe6;}.cls-5{fill:#fff;}.cls-6{fill:#a3deff;}</style><clipPath id="clip-path"><rect class="cls-1" width="1500" height="94.55"/></clipPath></defs><g class="cls-2"><path class="cls-3" d="M1551.33,31.36c0,.72-.09,1.38-.12,2-.64,15.37,1.34,31.25-3.46,46.33-2,6.37-4.65,11.45-13.79,11.75-21.21.7-358.4.13-445.35.19-30.48,0-61,.63-91-4.14-24.46-3.88-42.07-16.1-64.07-23.84-21-7.4-46.23-7.86-68.95-7.86H766.75c-53.74,0-110.32,4.35-163.07-3.49-19.43-2.89-32.55-7.65-45.4-18.7C544.86,22,526,18.86,506.27,17.64c-31.13-1.93-63.24-1.2-94.43-1.25-78.34,0-156.7-.22-235-.22H-75c-2.75,0-6.21.83-8.88.15-4.1-1.05-3-3.2-3-6.26q0-8.19-.08-16.37c0-4.85,0-6.35,4.3-9.69A9.69,9.69,0,0,1-78-16.69q15.28.21,30.55.19l47.57,0,60.83,0,777,.31q269.28,0,538.57.21l156,0C1555.17-15.9,1552.21,18.51,1551.33,31.36Z"/><path class="cls-4" d="M1547.43,14.91c0,.72-.09,1.38-.12,1.95-.64,15.37,1.34,31.25-3.46,46.33-2,6.37-4.65,11.45-13.79,11.75-21.21.7-294.18.13-381.13.19-30.48,0-61,.63-91-4.14-24.46-3.88-42.07-16.1-64.07-23.84-21.05-7.4-46.24-7.86-69-7.86H827.06c-53.73,0-110.31,4.35-163.07-3.49-19.42-2.89-32.54-7.65-45.4-18.7-13.41-11.52-32.25-14.69-52-15.91C535.46-.74,503.35,0,472.15-.06c-78.33,0-156.69-.22-235-.22H-70c-2.75,0-6.22.83-8.88.15-4.1-1-3-3.2-3-6.26q0-8.19-.08-16.37c0-4.85,0-6.35,4.31-9.69A9.69,9.69,0,0,1-73-33.14q15.28.21,30.55.19l102.9,0,60.83,0,777,.31c179.52,0,415.43.14,595,.21l35.4,0C1551.27-32.35,1548.32,2.06,1547.43,14.91Z"/><path class="cls-5" d="M1295.39,47.37c-2.33,1.47-4.52,3.32-6.81,5.11a41.1,41.1,0,0,1-.54,12.58c4.33-2.35,8.69-4.66,12.94-7.17A41.47,41.47,0,0,0,1295.39,47.37Z"/><path class="cls-6" d="M1288,65.06a33.88,33.88,0,0,1-3.79,10c0,1,.1,2.11.14,3.15l17.79-.64a38.05,38.05,0,0,0-1.2-19.73C1296.73,60.4,1292.37,62.71,1288,65.06Z"/><path class="cls-6" d="M1282.65,33.78a50.4,50.4,0,0,1,5.93,18.7c2.29-1.79,4.48-3.64,6.81-5.11A86.66,86.66,0,0,0,1282.65,33.78Z"/><polygon class="cls-5" points="1302.27 79.75 1302.27 80.76 1284.53 81.51 1284.54 80.6 1302.27 79.75"/><path class="cls-5" d="M1284.3,76.21c0,1.08.1,2.16.14,3.23.06,1.73.18,1.09.18,1.16a4.84,4.84,0,0,0-.09.91c0,.58-.15,4.35.13,4.53l24.55-1.58L1302.09,92c-12.66.84-25.35,1.16-38,1.78l-6.81-6.18c8.76-.33,17.5-.82,26.24-1.53.07-1.34-.07-2.68-.11-4-.46-15.46-1.6-30.9-1.88-46.37l-.29-.7c.19-2.94-.25-5.88-.26-8.8,0-.46-.13-1.75-.08-1.88.23-.59,1.19-.67,1.26,2.08C1282.72,43,1283.65,59.61,1284.3,76.21Z"/><path class="cls-6" d="M1283.39,82.08,1259,84.24c11.11-24.62,11.11-24.62,22.23-49.23l.29.7C1281.79,51.18,1282.93,66.62,1283.39,82.08Z"/><path class="cls-5" d="M1150.73,55.12c-1.91,1.24-3.7,2.79-5.57,4.29a33.8,33.8,0,0,1-.33,10.39c3.56-2,7.14-3.93,10.62-6A33.89,33.89,0,0,0,1150.73,55.12Z"/><path class="cls-6" d="M1144.83,69.8a27.78,27.78,0,0,1-3,8.34c0,.86.1,1.73.14,2.6l14.68-.71a31.33,31.33,0,0,0-1.18-16.27C1152,65.87,1148.39,67.82,1144.83,69.8Z"/><path class="cls-6" d="M1140.09,44a41.83,41.83,0,0,1,5.07,15.39c1.87-1.5,3.66-3,5.57-4.29A71.93,71.93,0,0,0,1140.09,44Z"/><polygon class="cls-5" points="1156.72 81.79 1156.74 82.63 1142.1 83.42 1142.09 82.67 1156.72 81.79"/><path class="cls-5" d="M1141.85,79c.05.89.11,1.78.15,2.67.07,1.42.16.9.16,1a4.28,4.28,0,0,0-.06.76c0,.47-.09,3.59.15,3.73l20.25-1.54-5.8,6.32c-10.45.81-20.92,1.2-31.38,1.83l-5.68-5c7.23-.36,14.44-.84,21.65-1.51,0-1.11-.09-2.21-.13-3.31-.52-12.76-1.62-25.5-2-38.27l-.25-.58c.14-2.42-.26-4.84-.29-7.26,0-.37-.13-1.44-.09-1.55.19-.49,1-.56,1.06,1.71C1140.24,51.65,1141.16,65.34,1141.85,79Z"/><path class="cls-6" d="M1141.16,83.9l-20.12,2c8.94-20.43,8.94-20.43,17.87-40.86l.25.58C1139.54,58.4,1140.64,71.14,1141.16,83.9Z"/><path class="cls-5" d="M1020.93,65.23a49.4,49.4,0,0,0-4,2.93,23.81,23.81,0,0,1-.4,7.3c2.54-1.33,5.08-2.65,7.57-4.08A24,24,0,0,0,1020.93,65.23Z"/><path class="cls-6" d="M1016.55,75.46a19.55,19.55,0,0,1-2.26,5.82l.06,1.84,10.34-.27a22,22,0,0,0-.57-11.47C1021.63,72.81,1019.09,74.13,1016.55,75.46Z"/><path class="cls-6" d="M1013.62,57.25A29.54,29.54,0,0,1,1017,68.16a49.4,49.4,0,0,1,4-2.93A50.15,50.15,0,0,0,1013.62,57.25Z"/><polygon class="cls-5" points="1024.73 84.09 1024.73 84.68 1014.41 85 1014.42 84.48 1024.73 84.09"/><path class="cls-5" d="M1014.31,81.92c0,.63.05,1.26.06,1.88,0,1,.1.63.1.67a2.82,2.82,0,0,0-.06.53,16.06,16.06,0,0,0,.05,2.64l14.28-.77-4.19,4.35c-7.36.41-14.74.52-22.1.8l-3.92-3.64c5.09-.13,10.17-.36,15.25-.72.06-.78,0-1.56,0-2.33-.17-9-.74-18-.81-27l-.16-.41c.13-1.71-.11-3.42-.1-5.12,0-.26-.06-1,0-1.09.14-.34.69-.38.71,1.22C1013.6,62.62,1014,72.27,1014.31,81.92Z"/><path class="cls-6" d="M1013.75,85.33l-14.2,1.1c6.61-14.24,6.61-14.24,13.23-28.47l.16.41C1013,67.36,1013.58,76.34,1013.75,85.33Z"/></g></svg>