<svg id="圖層_1" data-name="圖層 1" xmlns="http://www.w3.org/2000/svg" viewBox="0 0 60 98.05"><defs><style>.cls-1{fill:#fff;fill-opacity:0.75;}.cls-2{fill:#213742;}</style></defs><rect class="cls-1" width="60" height="98.05" rx="11.01"/><polygon class="cls-2" points="40.86 28.93 35.43 22.78 30 16.62 24.57 22.78 19.14 28.93 26.35 28.93 26.35 38.75 33.65 38.75 33.65 28.93 40.86 28.93"/><path class="cls-2" d="M30.08,68.94H46.42c1.69,0,2,.41,1.58,2a8.21,8.21,0,0,1-8.2,6.27c-6.51,0-13-.08-19.53,0a8.51,8.51,0,0,1-8.37-6.63c-.25-1.21.09-1.7,1.35-1.7H30.08Z"/><path class="cls-2" d="M27.84,55.69v-10a1.21,1.21,0,0,1,.79-1.3A1.17,1.17,0,0,1,30,45c.79,1.11,1.57,2.24,2.36,3.36L44,64.94c.31.44.58.87.29,1.43a1.39,1.39,0,0,1-1.4.67H29.51c-1.34,0-1.67-.37-1.67-1.74Z"/><path class="cls-2" d="M26,58.71c0,2.13,0,4.26,0,6.4,0,1.58-.38,1.93-1.94,1.93h-6.9c-1.58,0-2-.78-1.25-2.16q3.8-6.67,7.61-13.32a4.54,4.54,0,0,1,.45-.69,1.09,1.09,0,0,1,1.9.38,4.06,4.06,0,0,1,.14,1.3Z"/></svg>