<svg id="圖層_1" data-name="圖層 1" xmlns="http://www.w3.org/2000/svg" viewBox="0 0 151.33 201.19"><defs><style>.cls-1{fill:#1a1a1a;}</style></defs><path class="cls-1" d="M0,100.8Q0,57.56,0,14.32C0,3.87,3.68.08,14.1.05q34-.12,68,0C88.25.06,89,.81,89,7c0,15,0,30,0,45,0,8.21,2.58,10.8,10.72,10.83,15.16,0,30.32.14,45.48-.07,4.58-.06,6.11,1.53,6.09,6.09-.12,40,0,80-.09,120,0,9-3.48,12.4-12.39,12.4q-63.24,0-126.47,0c-9,0-12.34-3.34-12.35-12.41Q0,144.79,0,100.8Zm64.12,7.54h0c0,4.16-.15,8.33,0,12.49s-1.62,6.11-5.86,6c-6.49-.09-13,0-19.47,0-2.62,0-5.06.36-6.14,3.22-1,2.71,0,4.8,1.95,6.72q18.06,18,36,36c3.36,3.37,6.56,3.44,9.93.06q18-18,36-36c2.1-2.09,3-4.44,1.85-7.22-1.07-2.62-3.51-2.78-5.9-2.78-6.33,0-12.65-.14-19,0-4.18.09-6-1.46-5.89-5.87.23-8.32,0-16.64,0-25,0-4.4-2.08-6.91-6.63-7-3.83,0-7.66-.09-11.49,0-3.55.12-5.5,2-5.48,5.7C64.15,99.35,64.13,103.85,64.13,108.34Z"/><path class="cls-1" d="M125.2,51.83c-6.33,0-12.66-.1-19,0-4.33.09-6.35-1.47-6.28-6.13.2-13.32,0-26.64.1-40C100.06.48,102.1-.7,107,1.4a16.91,16.91,0,0,1,5.14,3.9q17.13,17.13,34.25,34.28A20.91,20.91,0,0,1,149.28,43c1.36,2.13,2.6,4.58,1.29,7-1.19,2.21-3.77,1.81-5.88,1.83C138.19,51.88,131.7,51.83,125.2,51.83Z"/></svg>