<svg id="圖層_1" data-name="圖層 1" xmlns="http://www.w3.org/2000/svg" viewBox="0 0 20.52 18.66"><defs><style>.cls-1{fill:#1f1f1f;}</style></defs><path class="cls-1" d="M12.88,2.28h4.77a2.52,2.52,0,0,1,.86.12,1.08,1.08,0,0,1,.77,1.14,1.09,1.09,0,0,1-.78,1.13,2.54,2.54,0,0,1-.82.11H8.14a2.59,2.59,0,0,1-.83-.1,1.12,1.12,0,0,1-.85-1.09A1.17,1.17,0,0,1,7.24,2.4a2.07,2.07,0,0,1,.82-.12Z"/><path class="cls-1" d="M12.86,8.12H18a1.24,1.24,0,0,1,1.3.9,1.17,1.17,0,0,1-1,1.5H7.88c-.79,0-1.21-.27-1.37-.85A1.18,1.18,0,0,1,7.72,8.12Z"/><path class="cls-1" d="M12.86,16.31c-1.75,0-3.5,0-5.24,0a1.08,1.08,0,0,1-1.1-.77,1.23,1.23,0,0,1,.4-1.37A1.09,1.09,0,0,1,7.61,14H18.14a1.09,1.09,0,0,1,1.14,1.18,1.08,1.08,0,0,1-1.14,1.18C16.38,16.32,14.62,16.31,12.86,16.31Z"/><path class="cls-1" d="M3,5.34c-1.63,0-1.78-.15-1.78-1.77,0-.25,0-.5,0-.74a1,1,0,0,1,1-1.1c.49,0,1,0,1.48,0a1,1,0,0,1,1,1,5.18,5.18,0,0,1,0,1.62,1,1,0,0,1-1.18,1Z"/><path class="cls-1" d="M3.05,13.33h.24c1.28,0,1.56.28,1.58,1.58a6,6,0,0,1-.08,1.2.89.89,0,0,1-.81.78,7.87,7.87,0,0,1-1.94,0A.82.82,0,0,1,1.25,16a17.22,17.22,0,0,1,0-1.76.83.83,0,0,1,.83-.88c.32,0,.65,0,1-.06Z"/><path class="cls-1" d="M1.24,9.31c0-1.66.1-1.77,1.75-1.77h.6c.87,0,1.17.26,1.25,1.14a5.12,5.12,0,0,1,0,1.61.9.9,0,0,1-.93.81,14.1,14.1,0,0,1-1.72,0,.9.9,0,0,1-.91-1C1.23,9.86,1.24,9.59,1.24,9.31Z"/></svg>