<svg id="圖層_1" data-name="圖層 1" xmlns="http://www.w3.org/2000/svg" viewBox="0 0 20.52 18.66"><defs><style>.cls-1{fill:#fff;}</style></defs><path class="cls-1" d="M6.19,18.65c-1.13,0-2.26,0-3.39,0A1.72,1.72,0,0,1,1,16.83q0-1.95,0-3.9A1.77,1.77,0,0,1,2.81,11a1.27,1.27,0,0,0,1.36-.69,1,1,0,0,1,.91-.46H7.31a1.2,1.2,0,0,1,1.09.66.9.9,0,0,0,.91.48,1.91,1.91,0,0,1,2.18,2.19c0,1.13,0,2.26,0,3.38a1.83,1.83,0,0,1-2.06,2C8.35,18.66,7.27,18.65,6.19,18.65Zm0-2.15a1.63,1.63,0,0,0,1.71-1.63,1.71,1.71,0,0,0-1.68-1.69,1.64,1.64,0,0,0-1.69,1.66A1.57,1.57,0,0,0,6.2,16.5Z"/><path class="cls-1" d="M19.58,3.84c0,.84,0,1.67,0,2.5a1.61,1.61,0,0,1-.9,1.51,2.85,2.85,0,0,1-2.84,0,1.61,1.61,0,0,1-1-1.38,1.6,1.6,0,0,1,.89-1.43,2.23,2.23,0,0,1,1-.36c.29,0,.41-.15.4-.44s0-.77,0-1.16-.08-.4-.38-.33c-.88.18-1.76.36-2.64.52-.32.06-.36.26-.36.54V7a2.33,2.33,0,0,1-3.27,2.31,2.3,2.3,0,0,1-1.18-.79,1.53,1.53,0,0,1,.71-2.31,2.51,2.51,0,0,1,.79-.25c.42-.06.52-.27.5-.66,0-.87,0-1.73,0-2.6A1.32,1.32,0,0,1,12.6,1.18L18,.11a1.17,1.17,0,0,1,1.57,1.27Z"/><path class="cls-1" d="M10.31,2.56a2.6,2.6,0,0,1-.79,1.93C8.45,5.62,7.36,6.74,6.28,7.86c-.47.49-.78.49-1.25,0L1.77,4.51a2.59,2.59,0,0,1-.69-2.73,2.41,2.41,0,0,1,2-1.73A2.3,2.3,0,0,1,5.21.78c.3.32.5.33.82,0A2.39,2.39,0,0,1,8.84.24,2.44,2.44,0,0,1,10.31,2.56Z"/><path class="cls-1" d="M14.35,18.65a.62.62,0,0,1-.57-.91c.35-.86.73-1.71,1.09-2.56.23-.52.22-.53-.34-.54h-1.2a.69.69,0,0,1-.74-.44.68.68,0,0,1,.27-.78l4.35-3.81c.29-.25.61-.42,1-.15s.28.6.12.95c-.37.83-.71,1.68-1.09,2.51-.15.34,0,.44.3.43s.9,0,1.34,0,.6.08.7.43a.71.71,0,0,1-.26.78l-4.39,3.84A.81.81,0,0,1,14.35,18.65Z"/></svg>