<svg id="圖層_1" data-name="圖層 1" xmlns="http://www.w3.org/2000/svg" viewBox="0 0 20.52 18.66"><defs><style>.cls-1{fill:#fff;}</style></defs><path class="cls-1" d="M12.48,13.35a1.5,1.5,0,0,0-1.06.31,2,2,0,0,1-2.39,0,1.43,1.43,0,0,0-.95-.27,2.17,2.17,0,0,1-2.23-1.27,1.45,1.45,0,0,0-.67-.67A2.12,2.12,0,0,1,3.92,9.22a1.46,1.46,0,0,0-.26-1,2.1,2.1,0,0,1,0-2.48,1.49,1.49,0,0,0,.27-1,2.11,2.11,0,0,1,1.2-2.13,2,2,0,0,0,.8-.81A2.07,2.07,0,0,1,8,.69,1.71,1.71,0,0,0,9.06.39a2,2,0,0,1,2.39,0,1.74,1.74,0,0,0,1.09.29,2.06,2.06,0,0,1,2.05,1.16,2,2,0,0,0,.87.86,2,2,0,0,1,1.12,2,2,2,0,0,0,.32,1.17,2,2,0,0,1,0,2.39,1.42,1.42,0,0,0-.26.95,2.12,2.12,0,0,1-1.25,2.19,1.84,1.84,0,0,0-.75.79A2.12,2.12,0,0,1,12.48,13.35ZM14.71,5c0-.34.08-.68-.32-.85a2.49,2.49,0,0,1-1.31-1.32.54.54,0,0,0-.63-.36,2.3,2.3,0,0,1-1.79-.46.62.62,0,0,0-.8,0,2.25,2.25,0,0,1-1.79.46.58.58,0,0,0-.66.4A2.37,2.37,0,0,1,6.17,4.16.69.69,0,0,0,5.74,5a2.08,2.08,0,0,1-.41,1.58.66.66,0,0,0,0,.91,2.15,2.15,0,0,1,.43,1.66.61.61,0,0,0,.38.72,2.58,2.58,0,0,1,1.31,1.31.57.57,0,0,0,.67.37A2.22,2.22,0,0,1,9.81,12a.66.66,0,0,0,.88,0,2.21,2.21,0,0,1,1.74-.44.6.6,0,0,0,.68-.43,2.31,2.31,0,0,1,1.18-1.2.6.6,0,0,0,.42-.69,2.61,2.61,0,0,1,.5-1.79.65.65,0,0,0,0-.84A2.28,2.28,0,0,1,14.71,5Z"/><path class="cls-1" d="M16.28,16.88c-.28,0-.68-.07-1.07-.16a.81.81,0,0,0-1,.42c-.22.4-.51.78-.77,1.16a.63.63,0,0,1-1.17-.08c-.41-.93-.8-1.88-1.2-2.82-.1-.22-.05-.36.19-.47a5,5,0,0,1,1.83-.55,2.85,2.85,0,0,0,2.31-1.45c.08-.12.11-.32.31-.29s.17.21.23.33l1.2,2.87C17.42,16.55,17.17,16.91,16.28,16.88Z"/><path class="cls-1" d="M7.56,18.64a.74.74,0,0,1-.5-.37c-.27-.39-.56-.78-.8-1.19a.75.75,0,0,0-.86-.38,14.05,14.05,0,0,1-1.47.18c-.49,0-.8-.33-.63-.77.43-1.13.91-2.23,1.41-3.33.16-.34.29,0,.37.1a3.22,3.22,0,0,0,1.56,1.33,1.65,1.65,0,0,0,.8.19,3.27,3.27,0,0,1,1.8.51.33.33,0,0,1,.2.51c-.4.92-.79,1.84-1.19,2.77A.67.67,0,0,1,7.56,18.64Z"/><path class="cls-1" d="M10.26,9.36A2.41,2.41,0,0,1,7.86,7a2.4,2.4,0,0,1,2.42-2.35,2.34,2.34,0,0,1,0,4.68Z"/></svg>