<svg id="圖層_1" data-name="圖層 1" xmlns="http://www.w3.org/2000/svg" viewBox="0 0 20.52 18.66"><defs><style>.cls-1{fill:#1f1f1f;}</style></defs><path class="cls-1" d="M19.58,9.34V15.4a2.26,2.26,0,0,1,0,.45.78.78,0,0,1-.7.7A.72.72,0,0,1,18,16c-.1-.44-.4-.51-.76-.61q-2.27-.59-4.53-1.23c-.35-.09-.48,0-.59.33a3.06,3.06,0,0,1-3.34,2,3,3,0,0,1-2.69-3,4,4,0,0,1,0-.49c0-.58,0-.58-.54-.75-.84-.23-1.69-.46-2.54-.71-.29-.09-.45,0-.53.28a.79.79,0,0,1-.86.62A.84.84,0,0,1,1,11.65Q.94,9.32,1,7a.81.81,0,0,1,.75-.8.78.78,0,0,1,.84.68c.07.31.22.31.47.25l13.1-3.6,1.44-.38A.53.53,0,0,0,18,2.76a.8.8,0,0,1,.89-.67.84.84,0,0,1,.72,1C19.59,5.14,19.58,7.24,19.58,9.34Zm-1.65,0c0-1.39,0-2.78,0-4.16,0-.47,0-.47-.46-.35L12.14,6.3,3,8.78a.48.48,0,0,0-.41.55A.49.49,0,0,0,3,9.87c1.21.31,2.41.64,3.62,1l10.8,3c.47.12.48.11.49-.38ZM9.21,14.92A1.5,1.5,0,0,0,10.63,14c.1-.24.06-.38-.21-.45-.75-.19-1.49-.39-2.22-.61-.36-.1-.44.07-.47.37A1.51,1.51,0,0,0,9.21,14.92Z"/></svg>