<svg id="圖層_1" data-name="圖層 1" xmlns="http://www.w3.org/2000/svg" viewBox="0 0 20.52 18.66"><defs><style>.cls-1{fill:#1f1f1f;}</style></defs><path class="cls-1" d="M9.23,18.55H4.46a3.42,3.42,0,0,1-3.41-3.39C1,12.1,1.09,9,1,6A3.6,3.6,0,0,1,4.64,2.21c1.08,0,2.16,0,3.24,0A1.25,1.25,0,0,1,9.2,3.75a1.3,1.3,0,0,1-1.39.94c-.74,0-1.48,0-2.22,0H4.75C3.78,4.7,3.43,5,3.42,6c0,1.33,0,2.66,0,4v4.63c0,1.14.37,1.52,1.49,1.52h8.62c1,0,1.37-.35,1.37-1.36s0-2.07,0-3.11a1.24,1.24,0,0,1,1.64-1.28,1.11,1.11,0,0,1,.81,1,19.67,19.67,0,0,1-.11,4.34,3.4,3.4,0,0,1-3.38,2.75Z"/><path class="cls-1" d="M6.69,13.94a1,1,0,0,1-1-1.16c.37-1.16.78-2.31,1.18-3.46a2.4,2.4,0,0,1,.62-.87C9.31,6.63,11.15,4.81,13,3c.31-.31.51-.34.82,0,.94,1,1.89,1.92,2.86,2.86.3.29.29.48,0,.78q-2.77,2.76-5.53,5.54a3,3,0,0,1-1.25.76c-.95.3-1.88.63-2.82.94Z"/><path class="cls-1" d="M19.5,2.83a2.28,2.28,0,0,1-.67,1.56c-.26.27-.53.52-.78.79s-.35.25-.57,0c-1-1-2.05-2.06-3.08-3.08-.18-.18-.24-.35,0-.55A7.69,7.69,0,0,1,15.6.47a1.94,1.94,0,0,1,2.29,0A4.35,4.35,0,0,1,19.3,2.06,2.2,2.2,0,0,1,19.5,2.83Z"/></svg>