<svg id="圖層_1" data-name="圖層 1" xmlns="http://www.w3.org/2000/svg" viewBox="0 0 26.65 25.89"><defs><style>.cls-1{fill:#0072b3;}</style></defs><path class="cls-1" d="M12,9.55V.24q0-.39.3-.15c.58.44,1.17.86,1.72,1.32a27.89,27.89,0,0,1,5,5.37,20.09,20.09,0,0,1,3.53,8.52,17.26,17.26,0,0,1,.21,3.52c0,.3-.14.39-.44.39H12.46c-.41,0-.43,0-.43-.44Z"/><path class="cls-1" d="M10.05,4.3V18.72c0,.48,0,.48-.48.48-1.77,0-3.54,0-5.31,0-.11,0-.26.06-.33-.07s.06-.21.12-.3a45,45,0,0,0,3.74-7.44A44.52,44.52,0,0,0,9.45,6.64C9.68,5.87,9.81,5.08,10.05,4.3Z"/><rect class="cls-1" y="20.59" width="26.65" height="1.42" rx="0.71"/><path class="cls-1" d="M23.19,25.89H3.42a.44.44,0,0,1-.37-.19l-1.28-2a.38.38,0,0,1,.36-.57H24.48a.38.38,0,0,1,.36.57l-1.28,2A.44.44,0,0,1,23.19,25.89Z"/></svg>