<?xml version="1.0" encoding="utf-8"?>
<!-- Generator: Adobe Illustrator 16.0.0, SVG Export Plug-In . SVG Version: 6.00 Build 0)  -->
<!DOCTYPE svg PUBLIC "-//W3C//DTD SVG 1.1//EN" "http://www.w3.org/Graphics/SVG/1.1/DTD/svg11.dtd">
<svg version="1.1" id="圖層_1" xmlns="http://www.w3.org/2000/svg" xmlns:xlink="http://www.w3.org/1999/xlink" x="0px" y="0px"
	 width="50px" height="50px" viewBox="0 0 50 50" enable-background="new 0 0 50 50" xml:space="preserve">
<path fill="#51A8B0" d="M49,45.516c0,1.118-0.971,2.025-2.165,2.025H3.328c-1.197,0-2.167-0.907-2.167-2.025V4.484
	c0-1.119,0.97-2.026,2.167-2.026h43.507C48.029,2.458,49,3.365,49,4.484V45.516z"/>
<g>
	<path fill="#FFFFFF" d="M41.689,13.855c0,1.026-0.676,1.858-1.508,1.858H9.979c-0.832,0-1.507-0.832-1.507-1.858l0,0
		c0-1.026,0.675-1.857,1.507-1.857h30.203C41.016,11.999,41.689,12.83,41.689,13.855L41.689,13.855z"/>
	<path fill="#FFFFFF" d="M41.689,25c0,1.025-0.676,1.857-1.508,1.857H9.979c-0.832,0-1.507-0.832-1.507-1.857l0,0
		c0-1.026,0.675-1.857,1.507-1.857h30.203C41.016,23.143,41.689,23.974,41.689,25L41.689,25z"/>
	<path fill="#FFFFFF" d="M41.689,36.145c0,1.026-0.676,1.857-1.508,1.857H9.979c-0.832,0-1.507-0.831-1.507-1.857l0,0
		c0-1.024,0.675-1.856,1.507-1.856h30.203C41.016,34.286,41.689,35.118,41.689,36.145L41.689,36.145z"/>
</g>
</svg>
