<svg id="圖層_1" data-name="圖層 1" xmlns="http://www.w3.org/2000/svg" viewBox="0 0 251.05 201.04"><defs><style>.cls-1{fill:#333;}</style></defs><path class="cls-1" d="M88.37,201q-37,0-74,0c-9.8,0-15-5.17-14.33-14.91,2.53-36.58,28.79-62.95,63.05-66.57,15-1.58,30-.34,44.94-.79,5.52-.17,6,3.07,6,7.43.24,29,19.63,53.44,47.45,59.81a84.15,84.15,0,0,0,10.85,1.57c3.49.32,4.18,2.06,3.23,5.1C174,197.8,169.5,201,163.35,201Q125.87,201,88.37,201Z"/><path class="cls-1" d="M138.29,50.94C140,77.26,115,101.9,88,101.16,60.1,100.4,37.76,78.76,37.74,51c0-28.18,22.63-51.56,50.63-51C121.53.69,140.23,28.89,138.29,50.94Z"/><path class="cls-1" d="M226.17,126A48.84,48.84,0,0,1,220,149.9c-1.73,3-1.3,5,1.13,7.35,8.71,8.48,17.23,17.17,25.84,25.75,2.73,2.72,4.6,5.83,4,9.78a9.17,9.17,0,0,1-6.41,7.65,9,9,0,0,1-9.72-2c-8.9-8.76-17.92-17.38-26.56-26.38-3.08-3.21-5.45-3.61-9.45-1.62-33.49,16.66-71.4-4.7-73.63-42-1.18-19.85,7.4-35.76,24.76-45.89,16.88-9.85,34.39-10,51.3,0C217.51,92.17,226.22,108,226.17,126Zm-20.12,0A30.65,30.65,0,0,0,175.5,95c-16.35,0-30.23,13.92-30.33,30.32-.11,17.15,13.55,31.14,30.41,31.16A30.34,30.34,0,0,0,206.05,126Z"/></svg>