<?xml version="1.0" encoding="utf-8"?>
<!-- Generator: Adobe Illustrator 26.0.3, SVG Export Plug-In . SVG Version: 6.00 Build 0)  -->
<svg version="1.1" id="圖層_1" xmlns="http://www.w3.org/2000/svg" xmlns:xlink="http://www.w3.org/1999/xlink" x="0px" y="0px"
	 viewBox="0 0 506.9 506.9" style="enable-background:new 0 0 506.9 506.9;" xml:space="preserve">
<style type="text/css">
	.st0{fill:#FFFFFF;stroke:#000000;stroke-width:15;stroke-miterlimit:10;}
</style>
<path class="st0" d="M84.5,303c61.4,61.4,152.6,77.7,214.5,75.5l14.5,104.8c2,14.6,21.1,20.3,28.6,8.5l58.4-91.5l91.5-58.4
	c11.6-7.5,6-26.6-8.5-28.6L378.7,299c2.1-61.8-14.1-153-75.5-214.5C209.2-9.4,45.6,1.9,23.8,23.8S-9.4,209.2,84.5,303z M150.4,117.6
	c9.1,9.1,9.1,23.8,0,32.7c-9.1,9.1-23.8,9.1-32.7,0c-9.1-9.1-9.1-23.8,0-32.7C126.8,108.6,141.4,108.6,150.4,117.6z"/>
</svg>
