<?xml version="1.0" encoding="utf-8"?>
<!-- Generator: Adobe Illustrator 26.0.3, SVG Export Plug-In . SVG Version: 6.00 Build 0)  -->
<svg version="1.1" id="圖層_1" xmlns="http://www.w3.org/2000/svg" xmlns:xlink="http://www.w3.org/1999/xlink" x="0px" y="0px"
	 viewBox="0 0 521.2 506.9" style="enable-background:new 0 0 521.2 506.9;" xml:space="preserve">
<style type="text/css">
	.st0{fill:#FFFFFF;stroke:#000000;stroke-width:15;stroke-miterlimit:10;}
	.st1{fill:#FFFFFF;}
</style>
<g>
	<g>
		<path d="M427.4,245.1c-7.4,0-11.3-4-11.3-11.6c0-7.3,4-11.3,11.3-11.3h28.2V27.4h-28.2c-3,0-5.9-1.5-8.3-4.2c-2.1-1.8-3-3.9-3-7.1
			s0.9-6,2.8-8.5l0.1-0.1l0.1-0.1c1.8-1.8,4.5-2.7,8.3-2.7h79.1c3.8,0,6.6,0.9,8.3,2.7c2.9,2.9,3.9,6.3,3,10.1c0,3-1,5.2-3,6.9
			c-2.3,2.7-5.9,3-8.3,3h-28.2v194.7h28.2c7.3,0,11.3,4,11.3,11.3c0,7.6-3.9,11.6-11.3,11.6h-79.1V245.1z"/>
		<path d="M506.5,6.3c3.2,0,5.7,0.6,7.3,2.2c2.5,2.5,3.5,5.4,2.5,8.9c0,2.5-0.6,4.4-2.5,6c-1.6,1.9-4.1,2.5-7.3,2.5h-29.7v197.7
			h29.7c6.6,0,9.8,3.5,9.8,9.8c0,6.6-3.2,10.1-9.8,10.1h-79.1c-6.6,0-9.8-3.5-9.8-10.1c0-6.3,3.2-9.8,9.8-9.8h29.7V25.9h-29.7
			c-2.5,0-5.1-1.3-7.3-3.8c-1.9-1.6-2.5-3.5-2.5-6s0.6-5.1,2.5-7.6c1.6-1.6,4.1-2.2,7.3-2.2H506.5 M506.5,3.3h-79.1
			c-4.2,0-7.3,1-9.4,3.1l-0.2,0.2l-0.1,0.2c-2.1,2.8-3.1,5.9-3.1,9.4c0,2.2,0.4,5.5,3.4,8.2c2.7,3,6,4.7,9.4,4.7h26.7v191.7h-26.7
			c-8.1,0-12.8,4.7-12.8,12.8c0,8.5,4.5,13.1,12.8,13.1h79.1c8.3,0,12.8-4.7,12.8-13.1c0-8.1-4.7-12.8-12.8-12.8h-26.7V28.9h26.7
			c4.3,0,7.4-1.1,9.4-3.4c2.9-2.5,3.4-5.5,3.4-7.7c1-4.3-0.1-8.1-3.4-11.4C513.9,4.3,510.8,3.3,506.5,3.3L506.5,3.3z"/>
	</g>
</g>
<path class="st0" d="M84.2,302.9c61.5,61.5,152.7,77.8,214.6,75.6l14.5,104.9c2,14.6,21.1,20.3,28.6,8.5l58.5-91.5l91.5-58.5
	c11.7-7.5,6-26.6-8.5-28.6l-104.9-14.4c2.1-61.9-14.1-153.1-75.6-214.6C209-9.8,45.2,1.5,23.4,23.4S-9.8,209,84.2,302.9z
	 M150.1,117.3c9.1,9.1,9.1,23.8,0,32.8c-9.1,9.1-23.8,9.1-32.8,0c-9.1-9.1-9.1-23.8,0-32.8C126.5,108.3,141.1,108.3,150.1,117.3z"/>
<g>
	<g>
		<path class="st1" d="M447.6,25.9h-29.7c-2.5,0-5.1-1.3-7.3-3.8c-1.9-1.6-2.5-3.5-2.5-6s0.6-5.1,2.5-7.6c1.6-1.6,4.1-2.2,7.3-2.2
			H497c3.2,0,5.7,0.6,7.3,2.2c2.5,2.5,3.5,5.4,2.5,8.9c0,2.5-0.6,4.4-2.5,6c-1.6,1.9-4.1,2.5-7.3,2.5h-29.7v197.7H497
			c6.6,0,9.8,3.5,9.8,9.8c0,6.6-3.2,10.1-9.8,10.1h-79.1c-6.6,0-9.8-3.5-9.8-10.1c0-6.3,3.2-9.8,9.8-9.8h29.7V25.9z"/>
	</g>
</g>
<g>
	<g>
		<path class="st1" d="M417.9,245.1c-7.4,0-11.3-4-11.3-11.6c0-7.3,4-11.3,11.3-11.3h28.2V27.4h-28.2c-3,0-5.9-1.5-8.3-4.2
			c-2.1-1.8-3-3.9-3-7.1s0.9-6,2.8-8.5l0.1-0.1l0.1-0.1c1.8-1.8,4.5-2.7,8.3-2.7H497c3.8,0,6.6,0.9,8.3,2.7c2.9,2.9,3.9,6.3,3,10.1
			c0,3-1,5.2-3,6.9c-2.3,2.7-5.9,3-8.3,3h-28.2v194.7H497c7.3,0,11.3,4,11.3,11.3c0,7.6-3.9,11.6-11.3,11.6h-79.1V245.1z"/>
		<path d="M497,6.3c3.2,0,5.7,0.6,7.3,2.2c2.5,2.5,3.5,5.4,2.5,8.9c0,2.5-0.6,4.4-2.5,6c-1.6,1.9-4.1,2.5-7.3,2.5h-29.7v197.7H497
			c6.6,0,9.8,3.5,9.8,9.8c0,6.6-3.2,10.1-9.8,10.1h-79.1c-6.6,0-9.8-3.5-9.8-10.1c0-6.3,3.2-9.8,9.8-9.8h29.7V25.9h-29.7
			c-2.5,0-5.1-1.3-7.3-3.8c-1.9-1.6-2.5-3.5-2.5-6s0.6-5.1,2.5-7.6c1.6-1.6,4.1-2.2,7.3-2.2H497 M497,3.3h-79.1
			c-4.2,0-7.3,1-9.4,3.1l-0.2,0.2l-0.1,0.2c-2.1,2.8-3.1,5.9-3.1,9.4c0,2.2,0.4,5.5,3.4,8.2c2.7,3,6,4.7,9.4,4.7h26.7v191.7h-26.7
			c-8.1,0-12.8,4.7-12.8,12.8c0,8.5,4.5,13.1,12.8,13.1H497c8.3,0,12.8-4.7,12.8-13.1c0-8.1-4.7-12.8-12.8-12.8h-26.7V28.9H497
			c4.3,0,7.4-1.1,9.4-3.4c2.9-2.5,3.4-5.5,3.4-7.7c1-4.3-0.1-8.1-3.4-11.4C504.3,4.3,501.2,3.3,497,3.3L497,3.3z"/>
	</g>
</g>
</svg>
