<?xml version="1.0" encoding="utf-8"?>
<!-- Generator: Adobe Illustrator 26.0.3, SVG Export Plug-In . SVG Version: 6.00 Build 0)  -->
<svg version="1.1" id="圖層_1" xmlns="http://www.w3.org/2000/svg" xmlns:xlink="http://www.w3.org/1999/xlink" x="0px" y="0px"
	 viewBox="0 0 506.9 506.9" style="enable-background:new 0 0 506.9 506.9;" xml:space="preserve">
<style type="text/css">
	.st0{stroke:#FFFFFF;stroke-width:15;stroke-miterlimit:10;}
	.st1{fill:#FFFFFF;stroke:#FFFFFF;stroke-width:11;stroke-miterlimit:10;}
</style>
<g>
	<path class="st0" d="M85.1,303.3c61.3,61.3,152.3,77.6,214.1,75.4l14.5,104.6c2,14.6,21.1,20.3,28.5,8.4l58.3-91.3l91.3-58.3
		c11.6-7.5,6-26.5-8.4-28.5l-104.6-14.4c2.1-61.7-14.1-152.7-75.4-214.1C209.6-8.6,46.3,2.7,24.5,24.5S-8.6,209.6,85.1,303.3z"/>
	<path class="st1" d="M150.9,118.2c9,9,9,23.7,0,32.7c-9,9-23.7,9-32.7,0c-9-9-9-23.7,0-32.7C127.4,109.2,142,109.2,150.9,118.2z"/>
</g>
</svg>
