<svg id="圖層_1" data-name="圖層 1" xmlns="http://www.w3.org/2000/svg" viewBox="0 0 160.79 160.68"><defs><style>.cls-1{fill:#fff;}</style></defs><path class="cls-1" d="M160.79,80.33c0,45-35.51,80-80.71,80.35C35.61,161-.71,122.58,0,80,.77,35.14,35.77,0,81.13,0,125.4,0,160.79,35.72,160.79,80.33ZM80.68,85.6c-7.66,0-15.32,0-23,0-6.21,0-6.53.21-6.06,6.59a107.73,107.73,0,0,0,8.21,34.35c2.87,6.77,6.2,13.27,11.69,18.42,6.39,6,11.33,6.21,17.89.37a25.36,25.36,0,0,0,3.65-4.09c11-15.27,15.13-32.73,16.37-51.14.25-3.6-1.48-4.6-4.78-4.54C96.68,85.7,88.68,85.61,80.68,85.6ZM80.49,75c8,0,16-.12,24,0,3.58.07,5.26-1,5-4.86-1.22-17.19-5-33.64-14.52-48.26S75.69,7.39,66.24,22,52.77,53,51.51,70.2c-.28,3.82,1.43,4.92,5,4.85C64.49,74.88,72.49,75,80.49,75Zm-25,69.35A126.47,126.47,0,0,1,40.21,88.94c-.15-3-2-3.36-4.41-3.34-6.48,0-13,.18-19.45,0-4.35-.16-5,1.83-4.37,5.54A70.4,70.4,0,0,0,22.17,118C30.23,130.42,41.1,139.52,55.5,144.35Zm49,.41c23.69-7,42.09-31.2,44.71-55.6.28-2.62-1.05-3.57-3.52-3.55-5.15,0-10.31,0-15.46,0-10.77,0-9.26-.69-9.68,8.75,0,1.16-.28,2.31-.43,3.47C118,114.12,113.58,129.68,104.48,144.76ZM56.2,15.84c-22.15,6.58-42.9,32.78-44.42,55-.21,3.1.94,4.21,3.94,4.16,6.5-.1,13-.17,19.49,0,3.61.12,5-1.09,5.12-4.81A123.48,123.48,0,0,1,46.78,36.5C49.05,29.51,52.55,23.11,56.2,15.84Zm49.31.39a127.57,127.57,0,0,1,15.25,55.49c.13,2.67,1.65,3.31,4,3.28,5.17,0,10.33,0,15.5,0,9.92,0,10.12,0,7.88-9.52Q139.73,29.92,105.51,16.23Z"/></svg>