<svg id="圖層_1" data-name="圖層 1" xmlns="http://www.w3.org/2000/svg" viewBox="0 0 60 60"><defs><style>.cls-1{fill:#fff;}</style></defs><path class="cls-1" d="M55.13,48a94.2,94.2,0,0,0-2.94-11,61.32,61.32,0,0,1-1.89-7.67c-.6-3.76-.84-7.57-1.39-11.34a25.93,25.93,0,0,0-2.48-8.43A17.28,17.28,0,0,0,36.11.94,16.83,16.83,0,0,0,32.42.11a17.26,17.26,0,0,0-4,0,21.53,21.53,0,0,0-2.73.62,19.35,19.35,0,0,0-5,2.33A19.63,19.63,0,0,0,16.52,6.7a20.46,20.46,0,0,0-4.68,10.13c-.5,3.08-.81,6.18-1.17,9.28-.53,4.69-2,9.13-3.48,13.58a60.81,60.81,0,0,0-2.34,8.58C4.25,51.75,6.19,54,9.72,54a17.61,17.61,0,0,0,4.86-1,5.24,5.24,0,0,1,2.49-.27A6.72,6.72,0,0,1,20.57,55a19.24,19.24,0,0,0,3.17,2.88,12.52,12.52,0,0,0,17-2.83A10.65,10.65,0,0,1,42,53.64a4.15,4.15,0,0,1,4.2-.6A26,26,0,0,0,49.7,54c2.79.44,5-1,5.47-3.54A7.21,7.21,0,0,0,55.13,48ZM25.86,21.53a2.56,2.56,0,0,1-4.19-1.12,6.18,6.18,0,0,1-.46-2.47,7.9,7.9,0,0,1,1.45-4.38,2.74,2.74,0,0,1,4.8.29C28.64,16,27.79,20,25.86,21.53Zm6.73,10a2.54,2.54,0,0,1-4.42-.82,7,7,0,0,1,.1-5.6,3.2,3.2,0,0,1,3.15-2A3.46,3.46,0,0,1,34.14,26c.07.45.07.92.1,1.38A5.36,5.36,0,0,1,32.59,31.54ZM39.5,20.29a2.86,2.86,0,0,1-2.59,1.63,2.78,2.78,0,0,1-2.4-1.66,6.26,6.26,0,0,1-.85-3.32,4.79,4.79,0,0,1,.54-2.42,2.82,2.82,0,0,1,2.43-1.85,2.89,2.89,0,0,1,2.71,1.58A5.72,5.72,0,0,1,39.5,20.29Z"/></svg>