<svg id="圖層_1" data-name="圖層 1" xmlns="http://www.w3.org/2000/svg" viewBox="0 0 44.73 44.53"><defs><style>.cls-1{fill:#b3b3b3;}</style></defs><title>images</title><path class="cls-1" d="M19.7,44.53H7.21A6.87,6.87,0,0,1,0,37.46Q0,24.83,0,12.21A6.75,6.75,0,0,1,6.95,5.32c3.54,0,7.09,0,10.63,0,1,0,2,0,2.18,1.33.1,1-.73,1.65-2.25,1.66-3.28,0-6.55,0-9.83,0S3,9.82,3,13q0,12,0,23.91c0,3.07,1.61,4.61,4.73,4.61q12,0,23.91,0c3.08,0,4.67-1.53,4.72-4.65.06-3.32,0-6.64,0-10,0-.72,0-1.43.76-1.85a1.41,1.41,0,0,1,2.17,1.13c.05,4.24.42,8.51-.17,12.73a6.62,6.62,0,0,1-6.74,5.61C28.2,44.54,24,44.53,19.7,44.53Z"/><path class="cls-1" d="M38,0c3.11.17,5,2.09,6.25,4.66s.26,4.57-1.54,6.38Q33.28,20.46,23.9,29.87a6.38,6.38,0,0,1-3.21,1.75c-2.33.53-4.65,1.09-7,1.61-1.84.41-2.71-.46-2.31-2.33.54-2.51,1.13-5,1.71-7.51a6.11,6.11,0,0,1,1.81-2.9Q24.24,11.22,33.59,2A5.66,5.66,0,0,1,38,0ZM15.58,29.77c1.71-.45,3.42-.88,5.12-1.36a2.19,2.19,0,0,0,.88-.58L35.66,13.77a.94.94,0,0,0,0-1.57c-1-1-2.05-2-3-3-.75-.84-1.27-.75-2,0-4,4.06-7.91,8.24-12.15,12.05C16,23.45,15.67,26.23,15,29,14.86,29.5,15,29.83,15.58,29.77ZM37.87,3a3.74,3.74,0,0,0-2.79,1.56C33.76,6,33.75,6,35.05,7.28c.56.56,1.11,1.13,1.68,1.68,2.09,2,1.48,2.22,3.79,0a2.92,2.92,0,0,0,.79-3.37A4.38,4.38,0,0,0,37.87,3Z"/></svg>