<svg id="圖層_1" data-name="圖層 1" xmlns="http://www.w3.org/2000/svg" viewBox="0 0 33 33"><defs><style>.cls-1{fill:#fff;}</style></defs><title>icon</title><path class="cls-1" d="M13.77,11.17c0,2.07,0,4.14,0,6.21a2.24,2.24,0,0,0,.73,1.77c2.73,2.69,5.43,5.41,8.14,8.12,1.1,1.1,1,1.54-.25,2.4a14.28,14.28,0,0,1-16.84-1A14.18,14.18,0,0,1,.08,17,14.46,14.46,0,0,1,12.36,3.19c.92-.13,1.39.28,1.4,1.32,0,2.22,0,4.44,0,6.66ZM11.58,12.5c0-1.92,0-3.83,0-5.75,0-1.25-.12-1.32-1.33-.9a12.65,12.65,0,0,0-8,12c.08,7.31,8.39,15,17.62,10.88.73-.33.74-.58.18-1.12-2.56-2.51-5.08-5.07-7.64-7.58a2.48,2.48,0,0,1-.8-1.94C11.61,16.21,11.59,14.36,11.58,12.5Z"/><path class="cls-1" d="M16.46,8.52c0-2,0-4,0-5.93,0-1.29.48-1.68,1.77-1.49A14.58,14.58,0,0,1,30.86,12.93c0,.06,0,.12,0,.18.35,2.1,0,2.51-2.08,2.51h-11c-1.29,0-1.31,0-1.31-1.34Q16.45,11.4,16.46,8.52Zm2.1-.22c0,1.46,0,2.92,0,4.38,0,.6.16.89.82.88,2.86,0,5.71,0,8.57,0,.59,0,.82-.19.72-.82C28,8.51,23.5,4,19.31,3.39c-.57-.09-.77,0-.76.62C18.57,5.44,18.55,6.87,18.55,8.3Z"/><path class="cls-1" d="M25.07,18.32h6.2c1.47,0,1.85.49,1.56,1.92a13.87,13.87,0,0,1-3.91,7.37c-.86.85-1.29.86-2.14,0q-4.27-4.24-8.52-8.5c-.18-.18-.53-.34-.4-.64s.49-.16.75-.16Z"/></svg>