<svg id="圖層_1" data-name="圖層 1" xmlns="http://www.w3.org/2000/svg" viewBox="0 0 33 33"><defs><style>.cls-1{fill:#fff;}</style></defs><title>icon</title><path class="cls-1" d="M.08,22.92c0-2.21,0-4.43,0-6.64,0-1.31.27-1.73,1.52-2.18,2.27-.82,4.56-1.58,6.84-2.38,1.12-.39,1.12-.4.86-1.54a7,7,0,0,1,5.39-8A7.43,7.43,0,0,1,23.55,7a6.08,6.08,0,0,1-.5,4.76c-.36.69-.76,1.36-1.13,2-.11.21-.4.42-.17.68s.49,0,.72,0q4-1.48,8-3c2.08-.78,2.44-.54,2.44,1.67q0,6.21,0,12.42c0,1.67-.28,2-1.82,2.59-2.39.84-4.78,1.65-7.15,2.54a5.49,5.49,0,0,1-4,0c-2.61-1-5.25-1.88-7.86-2.85a2.64,2.64,0,0,0-2,0c-2.63,1-5.27,2-7.91,3C.58,31.4.08,31.06.08,29.39Q.08,26.15.08,22.92ZM2,22.3H2c0,1.84,0,3.68,0,5.52,0,.59.13.88.8.63,2.18-.81,4.37-1.61,6.55-2.4a1,1,0,0,0,.7-1q0-5.47,0-10.94c0-.7-.28-.76-.85-.56C7.1,14.26,5,15,2.81,15.73A1,1,0,0,0,2,16.87C2,18.68,2,20.49,2,22.3ZM31,19.88h0c0-1.87,0-3.74,0-5.61,0-.63-.17-.84-.81-.59-2.15.82-4.3,1.62-6.47,2.39a1,1,0,0,0-.77,1.16c0,.77,0,1.55,0,2.33q0,4.18,0,8.37c0,.47-.06,1,.73.73,2.2-.76,4.4-1.52,6.61-2.26A1,1,0,0,0,31,25.31C31,23.5,31,21.69,31,19.88Zm-9.14-11a4.2,4.2,0,0,0-.16-1.19A5.41,5.41,0,0,0,15,4.08,4.83,4.83,0,0,0,11.71,11,37,37,0,0,0,16,17.27c.39.47.61.34.92,0a33.47,33.47,0,0,0,4.24-6.17A4.54,4.54,0,0,0,21.83,8.84Zm-9.77,6.8q0,4.86,0,9.72c0,.38.26.55.58.66l7.57,2.64c.54.19.75,0,.75-.55q0-5.56,0-11.13c0-.26,0-.54-.29-.66s-.53.12-.71.34l-2.28,2.7c-1,1.12-1.42,1.11-2.4,0S13.21,16.89,12.06,15.64Z"/><path class="cls-1" d="M16.47,11.68a2.44,2.44,0,0,1-2.41-2.45A2.43,2.43,0,0,1,16.58,6.9a2.39,2.39,0,0,1-.11,4.78Z"/></svg>