<svg id="圖層_1" data-name="圖層 1" xmlns="http://www.w3.org/2000/svg" viewBox="0 0 33 33"><defs><style>.cls-1{fill:#fff;}</style></defs><title>icon</title><path class="cls-1" d="M2.12,16.56q0-6,0-11.92A4.28,4.28,0,0,1,6.6.1q8.82,0,17.64,0c2.8,0,4.6,1.85,4.65,4.74,0,.86,0,1.54,1.18,1.49.53,0,.77.42.8.92s0,1,0,1.45c0,1.54,0,1.55-1.51,1.86a.5.5,0,0,0-.48.58c0,.61,0,1.23,0,1.84-.07.89,0,1.61,1.19,1.47a.72.72,0,0,1,.75.75,24.14,24.14,0,0,1,0,2.61c0,.69-.59.88-1.19.87s-.81.23-.76.81a8.92,8.92,0,0,1,0,1.36c-.05,1-.08,1.84,1.28,1.81a.7.7,0,0,1,.66.72c0,.87,0,1.74,0,2.61a.85.85,0,0,1-1,.84c-.88-.08-1,.37-1,1.1a4.71,4.71,0,0,1-1.51,3.93,3.84,3.84,0,0,1-2.63,1H6.23a4.1,4.1,0,0,1-4.1-4.14C2.11,24.7,2.12,20.63,2.12,16.56Zm24.45,0q0-5.77,0-11.54c0-2-.66-2.71-2.64-2.71q-8.48,0-17,0C5,2.31,4.32,3.06,4.32,5q0,11.63,0,23.26c0,1.82.69,2.5,2.53,2.5H24.11c1.81,0,2.46-.64,2.46-2.44Q26.58,22.42,26.57,16.55Z"/><path class="cls-1" d="M15.39,16.08a4,4,0,1,1,4.07-3.91A3.9,3.9,0,0,1,15.39,16.08Z"/><path class="cls-1" d="M22.72,22.65c0,.32,0,.65,0,1,0,.82-.28,1.29-1.17,1.29s-1.16-.53-1.15-1.31,0-1.36,0-2a1.6,1.6,0,0,0-1.72-1.69,1.13,1.13,0,0,0-.29,0,16.79,16.79,0,0,1-5.85,0c-1.38-.18-2,.53-2,2,0,.68,0,1.36,0,2s-.48,1-1.15,1-1.16-.22-1.16-1A14.57,14.57,0,0,1,8.29,21a4,4,0,0,1,5-3.35,9.58,9.58,0,0,0,4.12,0,4.14,4.14,0,0,1,5.3,4.17c0,.26,0,.52,0,.78Z"/></svg>