<svg id="圖層_1" data-name="圖層 1" xmlns="http://www.w3.org/2000/svg" viewBox="0 0 36.47 34.35"><defs><style>.cls-1{fill:#b3b3b3;}</style></defs><title>images</title><path class="cls-1" d="M18.26,0c3.61,0,7.23,0,10.84,0a3.28,3.28,0,0,1,3.23,1.78c1,1.7,2.1,3.31,3.14,5a5.54,5.54,0,0,1-.52,7,5.69,5.69,0,0,1-7.12.33,1.29,1.29,0,0,0-1.83,0,5.79,5.79,0,0,1-7.07-.15.93.93,0,0,0-1.38,0,5.9,5.9,0,0,1-7.25,0,1,1,0,0,0-1.48,0C6.09,16,2.33,15.39.77,12.7a5.21,5.21,0,0,1,0-5.5C2,5.12,3.36,3.14,4.65,1.11A2.52,2.52,0,0,1,7,0Z"/><path class="cls-1" d="M18.26,34.35H7.92c-2.79,0-4.65-1.64-4.72-4.46-.1-4,0-7.91,0-11.86,0-.65.23-1,1-1C5.07,17.08,6,17,7,17c.77-.06.71.45.71.92,0,2.16,0,4.33,0,6.49,0,1.34,0,1.36,1.36,1.36,6.18,0,12.37,0,18.55,0,1,0,1.34-.33,1.3-1.34-.07-2.13,0-4.26,0-6.39,0-.8.15-1.19,1.08-1a12.32,12.32,0,0,0,2.43,0c.63,0,1,.21,1,.86,0,4.05.09,8.11-.08,12.16-.12,2.82-1.93,4.27-4.76,4.28Z"/></svg>