<svg id="圖層_1" data-name="圖層 1" xmlns="http://www.w3.org/2000/svg" viewBox="0 0 33 33"><defs><style>.cls-1{fill:#fff;}</style></defs><title>icon</title><path class="cls-1" d="M.08,16.42A16.5,16.5,0,0,1,17,.09,16.6,16.6,0,0,1,32.92,16.53,16.42,16.42,0,1,1,.08,16.42Zm30.44.1A13.67,13.67,0,0,0,22.59,3.79,13.58,13.58,0,0,0,8.39,4.91c-1,.71-1,.87-.18,1.73,2.93,2.9,5.87,5.79,8.79,8.7q4.77,4.75,9.52,9.53c.62.63,1,.57,1.45-.12A13,13,0,0,0,30.52,16.52Zm-14,14.13a14,14,0,0,0,8-2.56c1-.77,1-.78.13-1.69L6.63,8.32c-.94-.94-1.05-.95-1.78.15A13.55,13.55,0,0,0,4,23C6.65,28,11,30.48,16.56,30.65Z"/></svg>