<svg id="圖層_1" data-name="圖層 1" xmlns="http://www.w3.org/2000/svg" viewBox="0 0 174.87 78"><defs><style>.cls-1{fill:#b85600;}.cls-2{fill:#ff8c00;}.cls-3{font-size:25px;font-family:SourceHanSansTC-Bold-B5pc-H, Source Han Sans TC;font-weight:700;}.cls-3,.cls-4{fill:#fff;}</style></defs><title>orderbtn</title><path class="cls-1" d="M20,78A20,20,0,0,1,0,58V26A20,20,0,0,1,20,6H154.87a20,20,0,0,1,20,20V58a20,20,0,0,1-20,20"/><rect class="cls-2" x="0.5" y="0.5" width="173.87" height="71" rx="19.5" ry="19.5"/><path class="cls-1" d="M154.87,1a19,19,0,0,1,19,19V52a19,19,0,0,1-19,19H20A19,19,0,0,1,1,52V20A19,19,0,0,1,20,1H154.87m0-1H20A20,20,0,0,0,0,20V52A20,20,0,0,0,20,72H154.87a20,20,0,0,0,20-20V20a20,20,0,0,0-20-20Z"/><text class="cls-3" transform="translate(85.25 45.74)">訂單</text><path class="cls-4" d="M39.62,36q0-6.58,0-13.15c0-1.34.53-1.87,1.88-1.87H52c.86,0,.86,0,.86.89q0,3.43,0,6.86c0,1.16.47,1.62,1.64,1.62h7c.65,0,.7,0,.7.69q0,9.09,0,18.18c0,1.25-.53,1.76-1.77,1.76H41.32c-1.16,0-1.69-.54-1.69-1.72Q39.62,42.65,39.62,36Zm11.27-.08h4.72c.7,0,.86-.16.86-.87s-.2-.91-.85-.91H46.19c-.66,0-.87.23-.87.9s.17.88.86.88Zm0,5.72H46.18c-.29,0-.58,0-.76.3a1,1,0,0,0,.81,1.5h9.34c.71,0,.9-.21.9-.91s-.17-.89-.9-.9Zm0-2h4.72c.7,0,.87-.17.88-.81s-.16-1-.84-1H46.19c-.68,0-.88.24-.87,1s.2.83.87.83Z"/><path class="cls-4" d="M58.37,28.58c-1,0-2.1,0-3.14,0-.45,0-.66-.15-.65-.61,0-2.13,0-4.26,0-6.39,0-.55.23-.69.75-.52a2.27,2.27,0,0,1,.93.6l5.27,5.27a2,2,0,0,1,.6,1c.11.51,0,.65-.51.65Z"/></svg>