<svg id="圖層_1" data-name="圖層 1" xmlns="http://www.w3.org/2000/svg" viewBox="0 0 165.94 132.44"><defs><style>.cls-1{fill:#333;}</style></defs><title>icon</title><path class="cls-1" d="M82.83,124.39q-23.52,0-47,0c-11.8,0-19-6.9-19.13-18.72q-.26-30.82,0-61.64c.1-12.39,6.89-19.06,19.26-19.41q6.23-.17,12.47,0c2.35.06,3.85-.73,4.5-3.07C56.47,8.62,62.88,7.85,73,8.05c8.19.16,16.39,0,24.58,0s12.76,3.42,15.33,11.2c1.75,5.29,1.75,5.24,7.43,5.3,4.86.05,9.73-.24,14.58.42,7.71,1.05,14.29,7.59,14.36,15.36.19,22.8.24,45.61,0,68.41-.1,9-7.83,15.53-17.59,15.58C115.37,124.45,99.1,124.39,82.83,124.39Zm.05-8.8c16.28,0,32.55,0,48.83,0,5.65,0,8.78-2.94,8.79-8.46q.1-32.61,0-65.22c0-5.5-2.67-8-8.18-8q-9.27-.08-18.53,0c-3.8,0-6.35-1.49-7.42-5.28-.68-2.4-1.69-4.7-2.32-7.11-.82-3.15-2.89-4.55-6-4.56q-15-.07-29.94,0a5.68,5.68,0,0,0-6,4.6c-.65,2.4-1.61,4.72-2.3,7.12-1.1,3.78-3.65,5.29-7.46,5.24-5.82-.07-11.64,0-17.46,0-6.85,0-9.12,2.29-9.13,9.25q0,31.36,0,62.73c0,7.22,2.63,9.76,10,9.77Q59.36,115.61,82.88,115.6Z"/><path class="cls-1" d="M112.25,74.69A29.14,29.14,0,1,1,83.18,45.3,29.21,29.21,0,0,1,112.25,74.69ZM63,74.48A20.41,20.41,0,0,0,83.29,94.95,20.64,20.64,0,0,0,103.4,74.59C103.38,63.42,93.94,53.9,83,54A20.71,20.71,0,0,0,63,74.48Z"/></svg>