<svg id="圖層_1" data-name="圖層 1" xmlns="http://www.w3.org/2000/svg" viewBox="0 0 165.94 132.44"><defs><style>.cls-1{fill:#333;}</style></defs><title>icon</title><path class="cls-1" d="M83,124.38q-23.51,0-47,0c-12,0-19.27-6.89-19.34-18.88q-.21-39.18,0-78.37c.05-12,7.29-19,19.25-19q47-.06,94,0c12.68,0,19.42,6.77,19.42,19.32q0,39,0,78c0,12.19-6.75,18.94-19,19Q106.71,124.41,83,124.38Zm57-57.72c.3-.69.47-.9.47-1.12,0-13.66.15-27.32,0-41,0-4.76-2.89-7.14-7.93-7.15q-49.37,0-98.73,0c-5.33,0-7.89,2.49-7.91,7.88-.08,18.3,0,36.59,0,54.89,0,.88-.45,2.15.7,2.51,1,.31,1.68-.72,2.34-1.36,4.08-4,8.12-8,12.18-12,6.62-6.53,11.67-6.56,18.35,0,4.25,4.15,8.54,8.27,12.61,12.59,2.08,2.2,3.57,2.58,5.71.1,2.32-2.69,5-5.06,7.54-7.57,7.58-7.54,15.1-15.15,22.75-22.62,5.43-5.3,10.77-5.2,16.23.09,1.79,1.74,3.5,3.56,5.33,5.26C133,60.25,135.85,63.93,140,66.66Zm-43.6,48.92c11.64,0,23.28,0,34.91,0,6.25,0,9.19-2.9,9.24-9.11.06-7.48-.05-15,.05-22.44a7.63,7.63,0,0,0-2.44-6c-6.35-6.24-12.67-12.52-18.83-19-2.34-2.44-4-2.5-6.4,0Q86.36,85.87,59.64,112.56c-.69.69-2.13,1.32-1.5,2.5.54,1,2,.51,3,.51Q78.75,115.61,96.38,115.58ZM25.85,102.42c0,1.9,0,3,0,4,.1,6.31,2.87,9.06,9.18,9.12,2.13,0,4.27-.06,6.4,0a5.58,5.58,0,0,0,4.43-1.79q10.27-10.36,20.64-20.62c1.5-1.48,1.67-2.53.09-4.09C62.24,84.74,58,80.22,53.7,75.84c-2.8-2.83-4-2.82-6.81,0C41.34,81.33,36,87,30.27,92.39,27,95.45,24.76,98.58,25.85,102.42Z"/><path class="cls-1" d="M67.09,37.38c0,6.69-6.18,12.81-12.86,12.75A13.1,13.1,0,0,1,41.54,37.27,12.76,12.76,0,0,1,54.17,24.88C61.07,24.82,67.1,30.66,67.09,37.38Zm-13-3.48c-2.28.14-3.34,1.48-3.23,3.72s1.47,3.62,3.64,3.51,3.36-1.61,3.31-3.85S56.44,33.88,54.09,33.9Z"/></svg>