<svg id="圖層_1" data-name="圖層 1" xmlns="http://www.w3.org/2000/svg" viewBox="0 0 165.94 132.44"><defs><style>.cls-1{fill:#333;}</style></defs><title>icon</title><path class="cls-1" d="M38.36,124.45,42.89,97a12.86,12.86,0,0,1,.45-2.45c2.75-7.28-.05-12.33-5.67-17.19C30.59,71.27,24.3,64.24,17.58,57.69c-2.22-2.17-3.5-4.49-2.55-7.61s3.55-4,6.34-4.38c11.26-1.7,22.52-3.46,33.81-5,3-.41,4.87-1.6,6.18-4.43,4.53-9.81,9.29-19.52,14-29.26.41-.86.84-1.71,1.25-2.56C77.88,1.81,79.94.08,83,.11,86.16.14,88.16,2,89.5,4.83c4.75,10,9.73,19.84,14.25,29.91,1.77,3.93,4.07,5.68,8.45,6.14,10.26,1.07,20.45,2.78,30.66,4.27,3.33.48,6.72.95,8,4.83s-1.08,6.24-3.51,8.64C139.5,66.4,131.75,74.27,123.82,82a7,7,0,0,0-2.3,7c2,11.45,3.81,23,5.83,34.41.57,3.26,0,5.92-2.72,7.86s-5.39,1.17-8-.25c-10.16-5.43-20.35-10.8-30.47-16.31a5.89,5.89,0,0,0-6.3,0c-10.11,5.52-20.29,10.9-30.47,16.3C43.42,134.06,38.21,131.31,38.36,124.45Zm9.7-4c1.27.61,1.95,0,2.65-.38,8.71-4.62,17.47-9.15,26.09-13.93,4-2.22,7.67-2.59,11.74-.2,4.4,2.58,9,4.82,13.52,7.2,5,2.63,10,5.24,15.66,8.17-.21-2-.28-3.4-.51-4.76-1.61-9.48-3.11-19-4.94-28.42a10.37,10.37,0,0,1,3.25-10.27c7.25-7,14.36-14.2,21.49-21.35.69-.7,2.07-1.26,1.53-2.5-.4-.91-1.65-.74-2.58-.87-9.75-1.4-19.48-2.89-29.25-4.18a11.07,11.07,0,0,1-9.23-6.83c-4.12-8.83-8.34-17.6-12.58-26.37-.48-1-.61-2.64-2-2.59-1.17,0-1.34,1.52-1.79,2.45-4.29,8.88-8.59,17.75-12.77,26.68-1.64,3.5-4.12,5.8-8,6.39-10,1.52-20,3-29.93,4.43-1.12.17-2.68-.35-3.11,1-.36,1.13,1,1.76,1.73,2.48C36.16,63.83,43.29,71,50.5,78a9.91,9.91,0,0,1,3.13,9.66c-.75,3.72-1.29,7.49-1.93,11.23Z"/></svg>