<svg id="圖層_1" data-name="圖層 1" xmlns="http://www.w3.org/2000/svg" viewBox="0 0 165.94 132.44"><defs><style>.cls-1{fill:#333;}</style></defs><title>icon</title><path class="cls-1" d="M66.17,66.26q0-26.35,0-52.7c0-5.32.16-5.48,5.31-5.49,8,0,15.91.08,23.86,0,3.08,0,4.53.87,4.52,4.24q-.11,53.94,0,107.89c0,3.35-1.37,4.3-4.48,4.26-8.31-.12-16.62-.14-24.92,0-3.27.06-4.35-1.19-4.33-4.39C66.22,102.1,66.17,84.18,66.17,66.26Zm8.79,0c0,15.07.09,30.14-.07,45.21,0,3.33,1.07,4.48,4.3,4.19,2.35-.21,4.74,0,7.12,0,4.67,0,4.68,0,4.68-4.77q0-44.5,0-89c0-.59,0-1.19,0-1.78.12-2.24-.88-3.28-3.16-3.22-2.61.07-5.22,0-7.83,0-5,0-5,0-5,4.9Q74.94,44,75,66.21Z"/><path class="cls-1" d="M107.38,74.61q0-22.63,0-45.25c0-4.37.35-4.75,4.6-4.77,8.2,0,16.39.06,24.59,0,3.3,0,4.61,1.17,4.6,4.61q-.14,45.43,0,90.86c0,3.2-1.1,4.46-4.36,4.41q-12.65-.21-25.3,0c-3.12.05-4.14-1.15-4.12-4.2.1-15.2,0-30.41,0-45.61Zm25,.21q0-17.8,0-35.59c0-5.4,0-5.4-5.54-5.41-10.59,0-10.59,0-10.59,10.7q0,33.1,0,66.2c0,4.85,0,4.85,5,4.86,2.25,0,4.53-.18,6.76,0,3.48.34,4.5-1.13,4.45-4.5C132.25,99,132.34,86.92,132.34,74.82Z"/><path class="cls-1" d="M24.82,90.8c0-9.61.07-19.22,0-28.83,0-3,.9-4.27,4.08-4.21q12.81.24,25.63,0c3.16-.06,4.11,1.19,4.1,4.19q-.12,29.19,0,58.38c0,3.16-1.22,4.12-4.22,4.08q-12.63-.19-25.27,0c-3.27.05-4.37-1.24-4.32-4.43C24.9,110.26,24.82,100.53,24.82,90.8Zm8.82,0c0,7.13,0,14.25,0,21.38,0,2.39.84,3.5,3.33,3.41,3.2-.11,6.41-.09,9.62,0,2,0,3.08-.62,3.08-2.84q-.06-21.55,0-43.11c0-2.36-1.09-3.14-3.27-3.09-3.09.07-6.18.11-9.26,0-2.65-.11-3.55,1-3.51,3.61C33.7,77,33.64,83.92,33.64,90.81Z"/></svg>