<svg id="圖層_1" data-name="圖層 1" xmlns="http://www.w3.org/2000/svg" viewBox="0 0 32.61 32.62"><defs><style>.cls-1{fill:#5f5e5e;}</style></defs><path class="cls-1" d="M16.31,0A16.31,16.31,0,1,1,0,16.32,16.32,16.32,0,0,1,16.31,0ZM8.46,16.15a12.67,12.67,0,0,1,.68-4.32,6.69,6.69,0,0,1,4.07-4.37A9.54,9.54,0,0,1,17.48,7a7.06,7.06,0,0,1,5.7,3.27,8.6,8.6,0,0,1,.91,2c.08.27.19.34.46.26s.76-.22,1.14-.32c.23-.06.29-.18.22-.41a9.07,9.07,0,0,0-4.18-5.49A11.07,11.07,0,0,0,15.62,5,8.71,8.71,0,0,0,7.4,11.12a16.12,16.12,0,0,0-.09,10.09,8.47,8.47,0,0,0,5,5.67,11.52,11.52,0,0,0,5,.7,8.62,8.62,0,0,0,5.82-2.42,5.85,5.85,0,0,0-1.39-9.61.66.66,0,0,1-.42-.61,5.46,5.46,0,0,0-1.06-3,4.71,4.71,0,0,0-4.53-1.63,4.54,4.54,0,0,0-3.12,1.7c-.18.21-.22.36.06.53s.68.46,1,.69a.25.25,0,0,0,.4,0,3.09,3.09,0,0,1,2.8-1,2.58,2.58,0,0,1,2.46,2.18c.05.28,0,.4-.32.34a8.72,8.72,0,0,0-.88-.08,7.9,7.9,0,0,0-3.79.52,3.54,3.54,0,0,0-1.79,5,4.07,4.07,0,0,0,3.12,2A4.64,4.64,0,0,0,20.51,20,6.55,6.55,0,0,0,21.24,18c.08-.46.14-.48.52-.19a3.5,3.5,0,0,1,1.39,3.48A5,5,0,0,1,20,25.06a8.75,8.75,0,0,1-4.58.59,6.73,6.73,0,0,1-6.1-4.41A13.38,13.38,0,0,1,8.46,16.15Z"/><path class="cls-1" d="M17.44,16.55a12.63,12.63,0,0,1,1.73.15c.24,0,.33.16.3.41a5.48,5.48,0,0,1-.59,2c-.88,1.61-3.4,1.49-4.33.63a1.63,1.63,0,0,1-.48-.78A1.67,1.67,0,0,1,14.93,17,4.93,4.93,0,0,1,17.44,16.55Z"/></svg>