<svg id="圖層_1" data-name="圖層 1" xmlns="http://www.w3.org/2000/svg" viewBox="0 0 22 21.01"><defs><style>.cls-1{fill:#666;}</style></defs><path class="cls-1" d="M12.88,16.48c0,1.3,0,2.61,0,3.91,0,.45-.15.63-.61.61-1,0-1.95,0-2.92,0-.53,0-.7-.16-.69-.69,0-2.57,0-5.15,0-7.72,0-.69,0-.7-.7-.7H5.84c-.35,0-.5-.15-.5-.5,0-1,0-2,0-2.92,0-.36.16-.5.51-.5.76,0,1.53,0,2.3,0,.41,0,.54-.15.53-.55,0-.94,0-1.88,0-2.82A4.55,4.55,0,0,1,12.46.13a8.35,8.35,0,0,1,2.64,0c.38.05.76.12,1.14.15a.41.41,0,0,1,.42.48c0,.82,0,1.63,0,2.45,0,.35-.17.46-.48.46-.47,0-.94,0-1.41,0a1.74,1.74,0,0,0-1.88,1.86c0,.66,0,1.32,0,2,0,.43.16.54.56.53.85,0,1.7,0,2.56,0,.37,0,.5.13.44.5-.15,1-.29,2-.43,2.95a.49.49,0,0,1-.56.47H13.72c-.84,0-.84,0-.84.82Z"/></svg>