<svg id="圖層_1" data-name="圖層 1" xmlns="http://www.w3.org/2000/svg" viewBox="0 0 286.12 286.1"><defs><style>.cls-1{fill:#cfcfcf;}</style></defs><path class="cls-1" d="M178.88,0h99.49c7.6,0,7.74.15,7.74,7.91q0,99.48,0,199c0,8-.06,8-8.1,8q-28.24,0-56.5,0c-6.16,0-6.43.32-6.47,6.55q-.06,7.5,0,15c0,3.26-1.36,4.85-4.82,4.8-17.42-.25-14.12,2.08-14.35-13.56-.19-12.8,0-12.8-13.09-12.8h-104c-7.36,0-7.58-.22-7.58-7.56q0-54.75,0-109.49c0-4.16.51-8.29-5.8-7.77-2.16.18-2.58-1.74-2.61-3.52,0-3,.09-6-.09-9-.22-3.78.37-6.57,5.12-6.63,3.67,0,3.34-3.06,3.34-5.54q0-28,0-56C71.17,0,71.17,0,80.39,0Zm85.78,181.87,1.94-1.47c.07-1,.2-1.94.2-2.91q0-76.49.09-153c0-4.34-1.7-5.29-5.63-5.28q-82.74.14-165.48,0c-4.11,0-5.47,1.28-5.45,5.43.14,29.83.07,59.66.11,89.49,0,1.16-.7,2.68,1.37,3.7,7.67-7.7,15.41-15.48,23.16-23.25,5.46-5.47,5.48-5.47,10.78-.17Q151,119.7,176.31,145c7.07,7,5.79,6.89,12.54.17,5.32-5.28,10.6-10.61,15.9-15.91,4.57-4.55,4.57-4.54,9.29.18q23.15,23.17,46.25,46.37C262,177.52,263.22,179.82,264.66,181.87ZM251.5,195.71l.54-1.16q-20.46-20.48-40.93-40.94c-2.14-2.14-3.59-.33-5,1.06-6.4,6.33-12.92,12.55-19.08,19.1-3,3.19-5,3.1-8.07,0-18-18-36.34-35.77-54.38-53.79-3-3-4.75-3.58-7.92-.2-7.4,7.9-15.16,15.48-22.93,23a10.56,10.56,0,0,0-3.38,8.41c.14,12.67.05,25.33.06,38,0,6.49,0,6.5,6.7,6.5H251.5Z"/><path class="cls-1" d="M.11,93.77C.1,88,.18,82.12.07,76.3,0,72.79,1.33,71.05,5,71.07c12.15.07,24.3.05,36.45,0,3.32,0,4.81,1.46,4.78,4.85C46.05,93.46,48.18,90,32.67,90.27c-13.29.2-13.29,0-13.29,13.46v1c0,12.63-3.22,15-16,12.33-2.89-.61-3.19-2.57-3.2-4.81C.08,106.09.11,99.93.11,93.77Z"/><path class="cls-1" d="M22.77,286c-5.49,0-11-.22-16.46.06-4.86.25-6.51-1.82-6.28-6.48a153.31,153.31,0,0,0,0-15.46c-.24-4.62,1.26-6.94,6.21-6.39a35.07,35.07,0,0,0,6.48,0c4.27-.33,7.26.51,6.76,5.81-.26,2.76,1.78,3.16,4,3.15,6,0,12,.1,18,0,3.36-.07,4.85,1.29,4.82,4.7-.17,16.9,1.89,14.4-13.49,14.62C29.43,286.06,26.1,286,22.77,286Z"/><path class="cls-1" d="M19.37,156.94c0,5.82-.09,11.64,0,17.46.07,3.37-1.29,4.91-4.71,4.79s-6.65-.13-10,0c-3.53.15-4.66-1.64-4.64-4.88q.09-18,0-35.91c0-3.3,1.25-4.92,4.74-4.75,3.32.17,6.65.17,10,0,3.55-.17,4.66,1.55,4.61,4.83C19.29,144.64,19.37,150.79,19.37,156.94Z"/><path class="cls-1" d="M19.36,218.43c0,6-.07,12,0,18,.06,3.28-1.1,5-4.62,4.88q-5-.19-10,0c-3.49.15-4.72-1.54-4.71-4.82q.09-18,0-36c0-3.23,1.09-5,4.65-4.85s7,.12,10.49,0c3-.07,4.17,1.38,4.15,4.26C19.32,206.11,19.35,212.27,19.36,218.43Z"/><path class="cls-1" d="M85.26,286c-5.82,0-11.65-.08-17.47,0-3.47.06-5.17-1.18-5.1-4.95.32-17-2.16-14.1,13.6-14.33,9-.14,18,.07,26.95-.06,3.56-.05,5.16,1.23,5.09,4.93-.28,16.85,2.19,14.13-13.58,14.39C91.59,286.07,88.42,286,85.26,286Z"/><path class="cls-1" d="M147.22,286c-6,0-12,0-18,0-3.1,0-4.51-1.3-4.46-4.51.28-17.69-2.3-14.47,13.63-14.74,9-.15,18,.07,26.94-.06,3.64-.05,5.06,1.4,5,5-.3,16.69,2.25,14.05-13.66,14.31-3.16.05-6.32,0-9.48,0Z"/><path class="cls-1" d="M200.62,286c-16.09-.23-13.47,2.12-13.83-13.59-.09-3.84.89-6.14,5.23-5.74,2.78.26,4-1.18,3.75-3.88-.4-4.05,1.69-5.13,5.36-5.06,15.66.3,13.89-2.13,13.86,13.65C215,288.34,217.16,285.77,200.62,286Z"/><path class="cls-1" d="M250.29,71.94c0,19.81-16.63,36.39-36.36,36.23-19.57-.15-36-16.68-36-36.2,0-19.77,16.59-36.23,36.44-36.16C233.93,35.88,250.28,52.33,250.29,71.94ZM231,72.22c.08-9.87-7-17.06-16.74-17.1S197.16,62.26,197.17,72a16.91,16.91,0,0,0,33.81.23Z"/></svg>