<svg id="圖層_1" data-name="圖層 1" xmlns="http://www.w3.org/2000/svg" viewBox="0 0 1279.78 1188.96"><defs><style>.cls-1{fill:#fff;}</style></defs><path class="cls-1" d="M1.71,676.77a3.5,3.5,0,0,0,4.88-1.18,3.4,3.4,0,0,0,.35-2.82l118.3-42.49,31.39,125a3.52,3.52,0,1,0,3.56.85l50.89-56.26,70.41,118.77a5,5,0,0,0-1.77,1.77,5.47,5.47,0,0,0,1.79,7.49,5.47,5.47,0,0,0,7.44-7.65l63.73-44.88,76.72,92.09a4.1,4.1,0,0,0-.83,1,5.46,5.46,0,1,0,9.33,5.68,5.66,5.66,0,0,0,.65-4.2l84.05-24.77a5.43,5.43,0,0,0,7.2,3.37l72.94,165.09a7.43,7.43,0,0,0-3.72,3.23,7.94,7.94,0,1,0,11-2.7,8.19,8.19,0,0,0-2.94-1l12.89-111.93,191,273.39a7.51,7.51,0,0,0-2,2.25,8,8,0,1,0,10.91-2.65,8.17,8.17,0,0,0-5.25-1.08L745.18,856.24,911.59,895.7a8,8,0,0,0,3.69,8.39,7.88,7.88,0,0,0,10.9-2.7,8,8,0,0,0-2.58-11,8.24,8.24,0,0,0-5.22-1L878,663.85,980,662a3.48,3.48,0,0,0,1.68,2.72,3.55,3.55,0,0,0,4.87-1.17,3.51,3.51,0,0,0-1.14-4.86,3.65,3.65,0,0,0-1.88-.52L972.54,496l130.69,16.78a3.43,3.43,0,0,0,1.61,3.26,3.54,3.54,0,1,0,3.72-6,3.86,3.86,0,0,0-3.13-.29l-96.65-217.08,264.15-84.43a3.42,3.42,0,0,0,1.47,1.73,3.48,3.48,0,0,0,4.85-1.16,3.53,3.53,0,1,0-6-3.68,3.9,3.9,0,0,0-.55,1.78l-247.83,7.17,92.13-79.5a4.81,4.81,0,0,0,.64.54,3.6,3.6,0,0,0,4.91-1.22,3.52,3.52,0,0,0-1.22-4.82,3.44,3.44,0,0,0-4.26.47L954.44,5.51s0-.09.1-.1A3.56,3.56,0,0,0,953.31.56a3.44,3.44,0,0,0-4.83,1.12,3.57,3.57,0,0,0,1.11,4.89,1.48,1.48,0,0,1,.41.24L885.71,171.59l-4.55.84a2.94,2.94,0,0,0-3.4-1.91,2.81,2.81,0,0,0-2.09,3.24l-44.18,13.46a3,3,0,0,0-3.34-1.8,3,3,0,0,0-2.1,3.49,2.93,2.93,0,0,0,2.77,2.16l3.12,44.35-51,24.28a2.92,2.92,0,0,0-3.27-1.59,2.83,2.83,0,0,0-2.14,3.42,3,3,0,0,0,2.07,2.11l-7.07,34.42v0a3.52,3.52,0,0,0-2,0,4.92,4.92,0,0,0-1.91,1.54,3.53,3.53,0,0,0-.35,3.09l-74.68,26.12A2.9,2.9,0,0,0,688.1,327a3.07,3.07,0,0,0-2.27,3.65,3,3,0,0,0,1.23,1.72l-30.69,52.73L631.63,381a2.56,2.56,0,0,0-.06-1,2.84,2.84,0,0,0-5.52,1.34,2.72,2.72,0,0,0,.54,1.12l-12.11,11.14-62.21-7a3.52,3.52,0,1,0-5.54,2.65l-22.55,35.33-25.3-18.31a2.06,2.06,0,0,0,.26-1.73,2.27,2.27,0,0,0-2.73-1.69,2.31,2.31,0,0,0-1.79,2.78,3.2,3.2,0,0,0,.59,1.06L467,439a1.8,1.8,0,0,0-.62-.43,3.49,3.49,0,0,0-4.52.73l-75.46-53.63a3.55,3.55,0,0,0-6.18-3.51,3.56,3.56,0,0,0,1.18,4.84L340,464l-21.17-8.39a3.53,3.53,0,0,0-6.36-3,3.47,3.47,0,0,0,.36,4.08l-84.47,79.09L101.56,514.39a5.48,5.48,0,0,0-10.1-3.64,5.68,5.68,0,0,0-.75,3.67l.07.39a5.52,5.52,0,0,0,2.45,3.45l-44.4,76.8a1.78,1.78,0,0,0-1.49-.17,1.87,1.87,0,0,0-1.21,2.34,2,2,0,0,0,.83,1.06L5.14,670.67a3.5,3.5,0,0,0-3.43,6.1ZM97.31,519l22.12,88-2.93,1.67L49.72,597a1.84,1.84,0,0,0,0-.93,2,2,0,0,0-.54-.81l44.44-76.83A5.72,5.72,0,0,0,97.31,519ZM409.09,707.76l-63.42,58.57-9.58-11.56,50.39-67.07,22.35,15.92v0A3.6,3.6,0,0,0,409.09,707.76Zm151.7,108.06-7.63-10.89,3.5-5.34,35.68-20.79.55,10.4Zm32.14-26.14,4.37,78.37L561,816.14Zm39.24,32.24a7.67,7.67,0,0,0-2.91-1.07l8.38-65.19a3.9,3.9,0,0,0,1.43-.2l34.57,83.4-37.71-9A7.9,7.9,0,0,0,632.17,821.92Zm2.74-71.64a3.45,3.45,0,0,0-.22,3.33l-42,24.52-1.7-31,32.91-50.37a3.48,3.48,0,0,0,4.49-.87l14.12,9.74-4.38,43A3.35,3.35,0,0,0,634.91,750.28ZM747,662l48.48-65L823.3,664.5l-74.22,1.4A5.39,5.39,0,0,0,747,662Zm39.57-370.77h0l.82,2.91-14.52,5.79a2.44,2.44,0,0,0-.45-.63L785.65,288l.64,2.21Zm1.31,3.16,45.53-18.14-31.63,53.68L798,330ZM168.93,579l29.13-16.71a9,9,0,0,0,2,2.27l-18.71,25.59Zm23.64,21.83-25.84,13.42a4.69,4.69,0,0,0-1.36-1.49l16-22Zm7.83-36.09.31.22a7,7,0,0,0,2.17.95L195,599.61l-2,1-11.3-10.15Zm-5.56,35.34-.43,1.83-1.19-1ZM203.27,566a8,8,0,0,0,8-3l22.83,16.22-38.67,20.08Zm8.17-3.34a2.6,2.6,0,0,1,.24-.29,8.81,8.81,0,0,0,1.16-4.75l52-6.19-8.41,16.2-22,11.45ZM268.14,603l-21.62-15.36,10.24-19.74,27-14.08Zm.22.68,3.17,2.24-18.17,45Zm-22.12-16.24-11.39-8.13,21.33-11.07Zm19.1-36,20-2.4-1.39,4.36-26.88,13.94Zm25.07-1.43-6,3.08,1.28-4.11,4.21-.46A4.54,4.54,0,0,0,290.41,549.93Zm-24.86,1,4-7.73L286.25,546l-.82,2.58Zm21.07-4.79,3.32.49a10.06,10.06,0,0,0-.1,1.44l-4,.45Zm5.81,6.15a3.07,3.07,0,0,0,.67.31l-21.44,52.95-3.17-2.3,15.78-49.66,6.27-3.3A5.94,5.94,0,0,0,292.43,552.27Zm1,.48a10,10,0,0,0,1.46.31l-2.65,67.07L272,605.75Zm1.88.31a5.51,5.51,0,0,0,3.1-.95l46.06,62.51-10.23,35.46-41.62-29.63Zm256,249.18-7.95-11.38,28.78-98.42,15.42.29,3,54.29L556.41,799.3Zm4.6-2.23-3,4.55-1.4-2Zm34.7-52.32,1.68,30.68-35.14,20.47Zm35.83-57.39,18-94,10-8.63-10.29,101.5-15.08,3.54a3.23,3.23,0,0,0-1.58-2A2.9,2.9,0,0,0,626.44,690.3Zm2.23,5.26a3.63,3.63,0,0,0,.47-2.47l15-3.46-1.57,15.61-13.87-9.62A.07.07,0,0,0,628.67,695.56ZM849.82,523.44l-21.13,28.34-66.42-47c0-.08.07-.1.13-.17a7.6,7.6,0,0,0,.92-2.43l85.22,18A3.84,3.84,0,0,0,849.82,523.44Zm22.24-307.6,15-10.78L890.67,218l-17.81.52A5.07,5.07,0,0,0,872.06,215.84Zm19.07,2.52,62-1.81L955,243.17,903,249.07a3.4,3.4,0,0,0-1.63-2.45,3.25,3.25,0,0,0-2.5-.42Zm-230.06,191,13.79,12.1-.49,3.15-31.46-6.48a6.65,6.65,0,0,0-.29-2.45Zm-18.58,5.87a7.43,7.43,0,0,0-.93-1.46L653.89,403l6.88,6ZM377.08,511.74l8.39-5.31,41.23,30.51L429.5,564a7.66,7.66,0,0,0-4.46,2.13L376.59,515.9c.15-.17.29-.39.42-.56A3.59,3.59,0,0,0,377.08,511.74ZM418,645l-14.13,18.88-6.7-34.15,8.09-14,13.14,23.63a4.59,4.59,0,0,0-1.18,1.11A3.54,3.54,0,0,0,418,645Zm2.59-6.17a3.29,3.29,0,0,0-1.81.35l-13.31-23.83,21.25-36.51a8.82,8.82,0,0,0,2.49.84Zm9-59.06a7.48,7.48,0,0,0,3.39-.36l18.51,51.88-28,9.69a3.1,3.1,0,0,0-1.43-1.64,3.88,3.88,0,0,0-1.08-.48ZM397,629.17l-8.54-43.51L405,615.39Zm-.31.52L378.82,660.4,345,614.53l20.32-70.32,22.5,40.3Zm-43-107.17,17.17-7.46a3.49,3.49,0,0,0,1.29,1.43c.27.13.46.24.66.32l-7.59,26.42Zm19.54-5.59a4.23,4.23,0,0,0,1.28,0l13.06,66.3-22.09-39.62Zm1.69,0a3.73,3.73,0,0,0,1.37-.83l48.5,50.27a6.46,6.46,0,0,0-1.06,1.33,8,8,0,0,0,2.65,10.92L405.22,615l-17.05-30.58Zm52.21,20.3,13.55,10.06-6.84,17.38a7.42,7.42,0,0,0-3.93-.72ZM441,547.54l3.27,2.41-9.64,15.12c-.13-.08-.32-.12-.45-.2Zm-13.91-10.8L423,497.24l32.38,12.84-14.48,36.84Zm28.65-26.5,11.05,4.38-22.31,35-3.33-2.52ZM872,287l-33.29,39.48-2.07-29.61,7.62-19.24,26.64,6.61A3.37,3.37,0,0,0,872,287Zm-28-9.82-8-2L846.52,271ZM882.14,333l-41.9,14.42-1.21-17,42.69.06Zm.47.24,1.75-.59a3.77,3.77,0,0,0,.7,1.19L883,335.55Zm-44-3.23h-2.3l2.11-2.56Zm1.27,17.52L814,356.46l21.94-26.07,2.69,0ZM835.73,330l-12.27,0,12.86-32.25,2,29.16Zm36.63-42.78a.83.83,0,0,0,.24.22,3.6,3.6,0,0,0,2.24.48l6.88,42.12L839,330l-.17-3Zm9.81,43.2,1.8.06a4.8,4.8,0,0,0,.32,1.75l-1.74.65Zm3.13,3.72a2.11,2.11,0,0,0,.65.61L883.41,338l-.4-2Zm-2.62,1.66-40.93,32.7-1.5-20.69,42-14.46Zm0,.4.29,2.23-39.88,50.6-1.39-20ZM842.8,389.48l-18.73,23.81-2.46-.42-6.42-22.55,26.18-20.95Zm-134.54,15,3.28.35-2.2,3.86Zm-.51-.48-23.47-2.59,20.92-7.2Zm4.21.89,27,3-8.11,28.18L715.66,433l-6.14-23.72ZM680.3,426.2l13,11.39L689.1,445,673,436.25l1.7-11.18Zm-5.49-1.51.39-2.92,4.47,3.94Zm-65.34,15.24,10.84-8.68-2.63,15.93Zm8.1,7.71-.87,5.76-21.52-2,14-11.24Zm.35.29,7.09,6.28-7.94-.76Zm7.62,6.74,36.31,32.11a1,1,0,0,1-.23.34,3.33,3.33,0,0,1-.24.46l-47-17.71,2.68-16ZM504.88,526.32l11.92-2.79L533.7,550l-11.49,53.58a3.29,3.29,0,0,0-1.32.06l-19.65-70.77a5.54,5.54,0,0,0,3-2.39A5.32,5.32,0,0,0,504.88,526.32ZM502.42,523a3.54,3.54,0,0,0-.85-.42l5.16-14.84,3.16,4.95-7.35,10.42A.44.44,0,0,0,502.42,523ZM534,550.47l19.3,30.25-29,24a4.78,4.78,0,0,0-.78-.61,2.5,2.5,0,0,0-.88-.4Zm-16.74-27,23.3-5.44-6.75,31.41ZM541,517.94l24-5.58,7.72,52.3-19.09,15.82-19.55-30.59Zm48.88,119.32-2.39-3.74,15.29-93.16,59.33-49a2.31,2.31,0,0,0,.72.66l.16.05Zm73.41-145a5.25,5.25,0,0,0,.67.22L651.13,559.1,591,639l-.9-1.4ZM587.1,633l-5-7.91-8.92-60.24,29.14-24.07Zm-5.55-8.77-27.74-43.41,19-15.68ZM565.4,512.26l43.25-10.07-6.26,37.95-29.32,24.19Zm43.67-10.17L661.19,490a7.41,7.41,0,0,0,.59,1.11l-58.94,48.65Zm0-.42,5.19-31.44,47,17.73a2.63,2.63,0,0,0-.06,1.64Zm17.15-47,26.14,2.48,10.79,28.59a4.59,4.59,0,0,0-1.06.78Zm26.62,2.5,16.38,1.54-4,26.8a4,4,0,0,0-1.7.11Zm16.78,1.59,11.13,1.06-14.57,26a1.57,1.57,0,0,0-.62-.23ZM720,462.21a3.26,3.26,0,0,0-.27.88l-38.26-3.6,7.83-14Zm-30.54-17,4.08-7.35,26.92,23.65a1.22,1.22,0,0,0-.24.29Zm30.25,18.28a5.07,5.07,0,0,0,.18,1.46l-52.11,22.5a2.78,2.78,0,0,0-1.22-1.38l14.69-26.18Zm-50-5.11,3.24-21.71,16,8.64-8,14.16Zm11.36-32,16.5,3.38-4.18,7.51Zm17,3.5,17.21,3.5,7,26.93a3.49,3.49,0,0,0-1.62.93L693.73,437.5Zm.21-.39,11-19.66,5.92,23.13Zm91.59-15.85-12.74,32-24.63-5.06,34.07-27.32Zm-2.85-.73,4.6-3.71L790,413.26Zm-35,27.54-7.57-1.54,23.41-27.77,18.14,2.08Zm-8.05-1.62-5.09-1.05,16.44-28,12.07,1.3Zm-5.55-1.15-7.14-1.44,8.06-28.27,15.53,1.75Zm-26.21-33.17,5-8.77,24.16,4.05L739,407.55Zm29.46-4.66,17.32,2.94L755,409.31l-15.6-1.73Zm17.74,3L772.46,405l-4.82,5.73-12.17-1.38Zm13.59,2.26,19,3.21-.09.15-5.42,4.38-18.33-2Zm.27-.36,34.16-40.44.85,3.1-16.15,40.54ZM808.42,368l6.32,22.21L792.54,408Zm15.32,45.69-1.41,1.81-.61-2.19Zm19.09-23.54,1.87,26.64-20.18-3.4Zm2.3,27.08,39.21,6.6-39.05-4.37Zm-.21,2.22-22.18-2.53-.26-1,1.75-2.21,20.48,3.46Zm-23.78-6.62L793,408.05l21.85-17.45Zm.11.43.79,2.57-.72.94-31-3.47,1.84-4.58.37-.32Zm1,3.07.15.54-.56-.07Zm.19,1,6.62,23-31.1,6.84,23.61-29.93Zm6.74,23.38,4.64,16.5L796,449.4l1.44-1.8Zm-33.52,8.7-3.18-.65,4.49-1Zm-4.13-.87-14-2.83,12.74-31.95,30.8,3.4-23.76,30.11Zm-.91.23-15.64,3.42,2.47-6.09Zm-16.08,3.54-47.93,10.51a3.87,3.87,0,0,0-.48-1.1L752,440.86,777,445.93Zm-.19.41-6.57,16.57-41.06-5.29a2.78,2.78,0,0,0,0-.81Zm-48.51,8.7a.69.69,0,0,1-.2-.23l18.5-21.91,7.43,1.52Zm-.53-.5a.08.08,0,0,0-.06,0l13.36-22.75,5,1.07Zm-.39-.25a2.34,2.34,0,0,0-.6-.24l6.87-23.81,7,1.45Zm-.91-.34a3.44,3.44,0,0,0-1.28,0l-6.94-26.76,15,3Zm1.49,6.15,24.85,28.07a8,8,0,0,0-1.53,1.81,7.64,7.64,0,0,0-1,2.92l-46.62-5.85,20.1-26.7a.17.17,0,0,1,.14.08A3.55,3.55,0,0,0,725.46,466.42Zm-24.84,26.93-32.49-4.11a2.68,2.68,0,0,0-.23-1.47L720,465.3a4,4,0,0,0,.86,1.12Zm-.28.35-7.62,10.13-24.84-13.42a2.38,2.38,0,0,0,.17-.79Zm-7.85,10.44-13.08,17.41-13.23-29.4a3,3,0,0,0,1.45-1.32s0-.05,0-.07ZM679.13,522l-5.48,7.21-8.11-36.83a.67.67,0,0,0,.36-.06Zm-5.82,7.67L658.75,549l5.77-56.44.65,0Zm-15,19.91-6.58,8.78,12.23-63.84Zm-.06.79-3.68,36.74-10,8.57,7-36.38Zm-14.14,45.73-51.91,44.74-.89-1.43L650.92,560Zm-52.25,45-4,3.54c-.14-.12-.18-.2-.28-.28l3.47-4.62Zm-4.69,3s0-.05-.07-.06-.11,0-.11-.07l2.93-5.9.87,1.31Zm-.54-.27a2,2,0,0,0-.78-.23l1.57-9.56,2.29,3.63Zm-1.2-.29c-.2,0-.39,0-.6,0L582.18,626l4.86,7.58Zm-1,.09a3.4,3.4,0,0,0-2.06,1.37l-57.6-36.18a3.61,3.61,0,0,0-.26-3.8l29.06-24,28.13,44.12Zm.77,6.9,2.36,41.84-15.29-.3,12.15-41.61A1.79,1.79,0,0,0,585.17,650.52ZM571.83,692l-16.7-.26,28.28-41.69a1.55,1.55,0,0,0,.62.3Zm-.13.43-28.64,98L526,766l-.81-30.05,29.66-43.78Zm-46.52,42.73-1.11-43.57,30.33.53Zm-1.53-44-45.27-.86a4.64,4.64,0,0,0-.3-1.47l45.07-17.5Zm-.12-20L582,648.55a4.4,4.4,0,0,0,1.07,1.3l-28.39,41.9-30.61-.52Zm0-.47-1.62-60.18a3.84,3.84,0,0,0,2.66-1.47l57.6,36.2a3.33,3.33,0,0,0-.3,2.81Zm-4.55-66-74.13-54.94,22.37-35.1,27.29,10.79a5.49,5.49,0,0,0,2.21,6.77,5.67,5.67,0,0,0,4.16.67l19.64,70.76A3.33,3.33,0,0,0,519,604.81Zm-63.08-94.95,2.15-5.49,11.25,6.38L467,514.26Zm13.74,1.08,25.08,14.22s0,0,0,.06L467.4,514.41Zm.21-.37,19.35-30.34,17.27,27-5.26,15.2a5.48,5.48,0,0,0-6.29,2.35Zm11.81-42.92,18.12-4.75L489.2,479.48Zm18.68-4.89,23.86-6.27-17.57,50.33L489.41,479.9Zm24.28-6.36L552.38,449a4,4,0,0,0,1.18,1.7l-43.4,61.56-3.25-5Zm-12,60.56-8.89,7.11a8.08,8.08,0,0,0-.81-.77L510.14,513Zm.2.3,3.78,5.91-11.85,2.75a4.9,4.9,0,0,0-.81-1.55Zm.35-.22,33.3-26.66-5.84,27.21L517,523.09ZM547,490l13.15-10.55L565,511.93l-23.91,5.6Zm13.54-10.83,24.79-19.88,28.62,10.82-5.25,31.68-43.39,10.07Zm25.11-20.11,9-7.3,21.94,2.05L614,469.74ZM559.3,448a10.06,10.06,0,0,0-.17-1.12l40.42-15.27,9.32,8.31-14.31,11.43ZM600,431.49l21.59-8.16-1.16,7.37-11.21,9Zm22-8.34,10.26-3.84a4.48,4.48,0,0,0,.73,1.28l-12.15,9.76Zm11.23-2.24a4.86,4.86,0,0,0,1.32,1.19,5.5,5.5,0,0,0,4.8.48l12.84,34.2-26.53-2.48L618,447.47l2.71-16.54Zm6.42,1.54a5.68,5.68,0,0,0,2.49-2.16l.09-.24,30.37,16.43-3.3,21.89-16.65-1.62Zm2.79-2.8a6.08,6.08,0,0,0,.35-1.07L674.36,425l-1.7,11.05Zm19.11-10.46,16-5.48L674.92,421Zm16.36-5.64,5.43-1.86,24.51,2.74,1.2,4.82-11.24,20.11-17.36-3.51-5.16-4.55Zm.1-.44.3-2,4.11.49Zm.33-2.35,1.69-11.23,25,4.21,0,.08-21.76,7.48Zm27.22-6.69.61-.2,10.5,1.76-4.92,8.84-3.61-.38Zm1.38-.43L720.39,389l-3.45,6.33ZM721,388.79l26-8.94-5.65,19.55-24-4Zm26.39-9.11,31.42-10.77L759.16,402.4l-17.43-3Zm32-11L806,359.59l1.22,4.22-34.49,40.85-13.19-2.19Zm.3-.53,19.32-32.9,6.86,23.93Zm27.91-4.27,3.65-4.29-2.8,7.15Zm-.12-.44-1.14-4,5.78-2-.41.92Zm6-6.46,26.37-9,1.48,20.89-26.28,21.07-6.41-22.56,3.49-8.74Zm-.67-.17,10.5-26.45,12.06,0L813.24,356.7ZM823.09,330h-20.9L834,276l.76-.32,1.53,21.12Zm11.19-54.54.19-.25.25.09Zm.85.06.26-.09,8.52,2.12L836.59,296Zm0-.53-.08-.84L854,242.06l2.24,4.67-9.48,23.76L835.38,275Zm21.25-27.79,7.88,16.32-17.06,6.8Zm8.06,16.7,8.4,17.46a3.31,3.31,0,0,0-1.41,1.27,3.66,3.66,0,0,0-.48,1.22l-26.52-6.56,2.55-6.48Zm.38-.16,6.91-2.76,2.14,20a2.7,2.7,0,0,0-.72.23Zm7.29-2.92,24.24-9.66a3.22,3.22,0,0,0,1.34,1.54,3.65,3.65,0,0,0,3.92-.1l31.52,40.09-26.63,23-29.42-28.94a1.35,1.35,0,0,0,.39-.44,3.56,3.56,0,0,0-1.14-4.9,4,4,0,0,0-2.06-.5Zm83.31-17.33L985,240.18l2.45,5.63-30.07,26ZM957,272.13l-23.47,20.31-31.63-40.13a4.34,4.34,0,0,0,.71-.8,3.6,3.6,0,0,0,.57-2L955,243.57Zm-8.88,39.53-34.47,11L906.78,316l26.67-23Zm-34.92,11.15-18.57,6a4.67,4.67,0,0,0-.84-1.57l12.7-10.95Zm-19.7,4.11a4.58,4.58,0,0,0-1.12-1,5.76,5.76,0,0,0-4.28-.56l-12.3-37.63a3.75,3.75,0,0,0,1.09-.65L906.16,316Zm-5.82-1.45a5.08,5.08,0,0,0-2.84,2.32,5.39,5.39,0,0,0-.75,2.29h-1.93l-6.92-42.22a.18.18,0,0,0,.2,0Zm2.11,10.65,7.14,84.74-13.37-82.35,2.76-3.47c.05.11.22.18.35.29A5.66,5.66,0,0,0,889.74,336.12Zm7,86.14a3.61,3.61,0,0,0-2.35,1.58,7.1,7.1,0,0,0-.39,1l-2.47-.25-46.39-7.77-1.86-27.21L883.14,339Zm-2.85,3.18a3.09,3.09,0,0,0,0,.61L846.5,436.4l-1.2-16.57,46,5.14ZM846.09,436.5l-16.71,3.68-6.51-22.87,22,2.46Zm0,.42L847.78,460l-13.6-2.76-4.72-16.66Zm1.66,23.49,1.37,19.31-8.86-1.14-6-20.9Zm-7.9,18.11-60.67-7.78,16.52-20.95,38.16,7.78Zm-61.06-7.83-10.73-1.38,6.67-16.76,16.71-3.62,3.85.74Zm-.29.32-18.19,23.05a6.18,6.18,0,0,1-.64-.4,3.9,3.9,0,0,0-1.06-.53L768,469.68Zm-20.27,22a7.8,7.8,0,0,0-7.64,1.25l-24.9-28.06a2.24,2.24,0,0,0,.43-.62,3.15,3.15,0,0,0,.43-1.21l41,5.28Zm.36,14.85,16.85,40.72-22.34-12,2.06-28.11A8.81,8.81,0,0,0,758.64,507.83Zm-5.88,28.5L729,523.41l20.59-17.71a7.94,7.94,0,0,0,1.81,1.57,8.65,8.65,0,0,0,3.42,1.06Zm-24.17-13.1L693.1,504l7.71-10.26,46.86,5.89a7.9,7.9,0,0,0,1.7,5.77Zm-.31.28-34.75,30-14-31.44,13.36-17.68Zm-35,30.18-12,10.34-7.52-34.29,5.53-7.37Zm-12.36,10.66-26,22.36,3.82-37,14.74-19.59Zm0,.4L705.11,675l-60.57,14.11,10.33-101.79ZM626.12,690.22a3.84,3.84,0,0,0-2.22.39l-31.56-49.46L644,596.69Zm-2.53.67a2.47,2.47,0,0,0-.94,1,3.73,3.73,0,0,0-.46,1.07l-34.28-.62-2.32-41.77a3.57,3.57,0,0,0,2.61-1.64,3.52,3.52,0,0,0-.15-4l4-3.49Zm0,5.66L591,746.44l-3-53.72,34.21.63A3.47,3.47,0,0,0,623.56,696.55ZM551,802.45l-13.29,7.73,5.51-18.83Zm-13.79,8-10,5.78L526,766.72l16.92,24.22Zm-11.63-45.1-10.34-14.8,9.55-14.12Zm-10.64-15.16L476.37,695a5,5,0,0,0,1.2-1.4,5.25,5.25,0,0,0,.81-2.79l45.27.83,1.15,44.15ZM475.83,686.1,520,610.22a3.53,3.53,0,0,0,1.55.4l1.5,60.41L478,688.53A6.35,6.35,0,0,0,475.83,686.1Zm42.61-80.46L438,574.56a7.86,7.86,0,0,0-3.07-9.25l9.67-15.1,74.09,54.89a.84.84,0,0,0-.06.14A2.19,2.19,0,0,0,518.44,605.64Zm-.15.38a4.11,4.11,0,0,0-.06,2.06l-66.34,23-18.54-51.82a8.08,8.08,0,0,0,4-3.24,9.45,9.45,0,0,0,.55-1.11Zm.59,3.28-56.69,50.79L452,631.55l66.39-23.11A7.73,7.73,0,0,0,518.88,609.3Zm-57,51.06L414.29,703a2.45,2.45,0,0,0-.66-.54,3.32,3.32,0,0,0-1.15-.44l7.51-56.1a3.55,3.55,0,0,0,3.27-1.74,3.51,3.51,0,0,0,.4-2.78l28-9.76ZM412.11,702l-.76,0L404,664.43l14.35-19.08.12,0a3.88,3.88,0,0,0,1.21.46Zm-8.62-37.59-11,14.6-13.46-18.22,17.74-30.5Zm-11.22,15-5.87,7.82-16-11.39,8.49-14.59ZM370,675.51l-35.42-25.19L344.84,615l33.76,45.85Zm-71.3-123.64a4.82,4.82,0,0,0,1.27-1.45,5.2,5.2,0,0,0,.38-4.8l52.92-23,11.73,21-20.37,70.45Zm-.66-9,32.66-60.71,22.35,40.18-52.81,22.91a5.3,5.3,0,0,0-2.1-2.31C298.13,542.91,298.07,542.88,298.08,542.86Zm32.86-61.16,4-7.35,36.46,36.74c-.14.2-.26.35-.42.6a3.3,3.3,0,0,0-.23,3l-17.24,7.47Zm4.19-7.71L337,470.5l37.89,28.06L374.1,510a3.59,3.59,0,0,0-2.42.88Zm40.08,24.88,9.92,7.3-8.26,5.23a3.41,3.41,0,0,0-1.06-1,3.82,3.82,0,0,0-1.36-.48Zm.07-.51L376.69,479l31.56,12.48L385.5,505.93Zm33.42-6.75,13.85,5.47,4.1,39.31-40.83-30.18Zm.42-.26,9.34-5.92a3.24,3.24,0,0,0,1,.94,3.79,3.79,0,0,0,2.07.51l1,9.77Zm12.78-4.49a3.8,3.8,0,0,0,2.4-1.6l33.35,18.9-2.16,5.55L422.91,496.8Zm2.56-1.95a3.15,3.15,0,0,0,.3-2.28l46.16-12.1-13.07,33.25Zm47-14.55,9.86-2.59L489,479.89l-19.46,30.49L458.2,504Zm.17-.45,4.21-10.66,5.21,8.16ZM476,458.78l6.25-15.91,29,2.07-11.11,17.47-18.63,4.94ZM511.67,445l16.1,1.17-3.47,9.88-23.64,6.24Zm16.49,1.19,24.07,1.74a3.88,3.88,0,0,0,.07.71l-27.58,7.27Zm.17-.42,4.95-14.15L553,445.83a1.18,1.18,0,0,0-.24.29,4.37,4.37,0,0,0-.47,1.4Zm26.42,5.6-8.17,38.39L513,516.7l-2.55-4L553.87,451h0A3.09,3.09,0,0,0,554.75,451.37Zm.46.11c.23,0,.55,0,.75,0L560,479l-13,10.41Zm1.16-.06a3.37,3.37,0,0,0,2.35-1.61,1.54,1.54,0,0,0,.26-.43l25.86,9.73-24.47,19.56Zm2.74-2.41a1,1,0,0,0,.1-.59l34.9,3.28-8.86,7.15Zm-.67-3.32L586.37,420l12.8,11.35L559,446.59A3.62,3.62,0,0,0,558.44,445.69Zm28.26-25.92,15.74-14.53,20.93,7.28-1.7,10.34-22,8.35Zm37-7.12,8.61,2.92a5.86,5.86,0,0,0-.17,3.37l-10.07,3.77Zm.15-.41,2.68-16.89,21.36,2.35.72.67-8.38,14.39a5.43,5.43,0,0,0-7.48,1.84,2.46,2.46,0,0,0-.31.63Zm25.06-13.59,4.68,4.11-12.32,10.8a1.85,1.85,0,0,0-.73-.57Zm.21-.36.21-.37,8.73.92-4.2,3.67Zm9.38.65L678,401.09l-.3,2.16-16.49,5.64-6.94-6.12Zm.49-.38L671,388l8.68,1.46L678,400.7Zm12.43-10.89,9.78-8.61-1.46,10Zm10.23-9,15.91-13.93,7.33,28.56-24.82-4.19Zm16.27-14.18L737,330.21l16.26.05-32.57,58.2-14.57,5-.74-.13Zm55.73-34.2,7.48,0-14.08,49.11-25.8,8.86Zm7.91-.05,36.11.1,1.21,4.38-19.73,33.66-31.64,10.89Zm37.79,4.52,2.65-4.43,20.86,0L812.38,357l-6.11,2.06Zm-.16-.51-1.07-3.9,3.36,0ZM787.8,293.94l-1.49-5.13-.34-1,22.33-19L834,275.09l-.3.58Zm20.88-25.52,24.14-20.52L834.63,274l-.35.71Zm24.5-20.83,16.63-14.14,4,8.21L835,273.4Zm16.24-15.91-1.58-3.36,14.71-7a4.71,4.71,0,0,1,.32.59L850,232.82l-.55-1.14Zm13.68-9.51a5,5,0,0,0,1.38,1.23L854,241.22l-3.92-8Zm1.7,1.44a1.4,1.4,0,0,0,.47.24l-8.86,22.33-2.19-4.55Zm.85.44a5.87,5.87,0,0,0,2.21.27l3.86,36.2-7.06,2.81-8-16.67Zm2.59.22a5.27,5.27,0,0,0,3.89-2.56,5.52,5.52,0,0,0,.81-2.78l17.81-.55,7.74,27.89a3.46,3.46,0,0,0-1.91,1.53,3.34,3.34,0,0,0-.34,2.93l-24.14,9.69Zm1.43-10.41,11.57-29.78L887,204.71l-15.18,10.84a5.57,5.57,0,0,0-1.44-1.38C870.11,214,869.86,214,869.67,213.86Zm17.8-9,57.76-41.29a4.44,4.44,0,0,0,1.49,1.32,5.57,5.57,0,0,0,3,.84l3.46,50.46L891.06,218Zm62.68-39.2a6.17,6.17,0,0,0,1.47-.36L974,215.56l-20.4.61Zm24,50.34,10.64,23.78-29.4,3.33-1.82-26.53Zm.43-.05,49.17-1.42-27.85,24-10.68,1.17Zm20.8,23-7.6,6.54-2.43-5.39Zm12.84,53.43L959.73,307.9l-2.39-35.63,30.28-26.1ZM959.36,308l-10.92,3.5L933.7,292.74,957,272.62Zm0,.41L960.68,327l-11.93-15.16Zm1.35,19.27,3,44.36L913.9,323l34.43-11ZM964.19,373,1103,509.67,965.65,394.34Zm1,20.93-71.46-60a3.17,3.17,0,0,0,.33-.46,5.3,5.3,0,0,0,.61-4.39l18.78-6,50.28,49.47Zm0,.52,4.15,60.84-68.69-28.71a3.47,3.47,0,0,0-3.34-4.43l-7.28-86.07a5.83,5.83,0,0,0,3.45-1.81Zm4.14,61.34,2,29.4-93.18-19L896,429a3.51,3.51,0,0,0,4.35-1.41,3.55,3.55,0,0,0,.23-.52Zm-91.55,10.33-29.7-6.08-1.61-23.27,47.35-10.39a3.47,3.47,0,0,0,1.65,2.31s.05.08.12.08Zm-.16.34-7.55,15.91-20.56-2.65-1.39-19.3Zm-7.76,16.33-16.57,34.64a2.69,2.69,0,0,0-1.19-.23l-2.55-37.08ZM851.8,517.21a1.69,1.69,0,0,0-.52.06L840.41,479l8.76,1.16Zm-.88.2a3.4,3.4,0,0,0-1.84,1.45,6.27,6.27,0,0,0-.41.92l-85.22-18a8,8,0,0,0-2.82-7.42L779,471.12l61,7.78Zm1.54,6.81,9.19,50.87L829,552l21.12-28.34c0,.07.07.08.09.1A3.34,3.34,0,0,0,852.46,524.22ZM862.19,576,978.81,658.5l-112.74-61Zm3.39,21.35L815.45,570.2l13.34-17.89,32.94,23.34ZM815.06,570,776,548.85l-17-41.22a8.65,8.65,0,0,0,3-2.54l66.42,47Zm-.24.3-19.3,25.9-19.29-46.78Zm-68.13,91.4-.29-.17a6,6,0,0,0-2.2-.77L753.13,537l22.56,12.2,19.57,47.43Zm-2.91-1a4.77,4.77,0,0,0-2.23.42L693.69,553.85l35-30.12,24,13Zm-2.63.59a5.58,5.58,0,0,0-2.23,2,5.79,5.79,0,0,0-.72,3.9l-32.66,7.62L681.39,564.5l12-10.43Zm-1.94,8.14L709.63,693.6l-4-18.35,32.74-7.61A3.73,3.73,0,0,0,739.21,669.48Zm-30,24.41L671,724.94l-28.18-19.48,1.65-15.9,60.71-14.19Zm.1.41,14.77,67.44-52.74-36.5Zm14.93,68,8.44,38.46-91.57-47.17a3.54,3.54,0,0,0-.35-3.54L671,725.5ZM638.48,748.6l4.37-42.69,27.82,19.3L640.5,749.75a2.74,2.74,0,0,0-.75-.67A5.17,5.17,0,0,0,638.48,748.6Zm-3.41,5.62-41.75,34.64-.61-10.27L634.91,754C635,754.06,635,754.12,635.07,754.22Zm-74.58,61.85L531.86,839.8a4.67,4.67,0,0,0-.91-.86l22-33.62Zm-29.87,22.65a8.08,8.08,0,0,0-1.09-.51l8-27.47,13.66-8,1.52,2.16Zm-1.49-.63a8.3,8.3,0,0,0-1.29-.17l-.53-21.22,9.75-5.66Zm-2.27-21.59-7.08,4.15-18-50.25L515,750.94l10.56,15.17ZM501.6,769.93,475,695.78a3,3,0,0,0,1-.58l38.72,55.39ZM471.26,685.5l-8.9-25,56.8-50.9c.2.14.34.29.55.43l-44.22,75.9A5.14,5.14,0,0,0,471.26,685.5Zm-.37.15a5.14,5.14,0,0,0-2.64,2.21,5.39,5.39,0,0,0-.68,3.95L415.2,704.46a3.4,3.4,0,0,0-.62-1.19L462,660.79Zm-2.61,8-53,37.23L412.45,709a3.28,3.28,0,0,0,2.35-1.63,3.33,3.33,0,0,0,.47-2.45l52.37-12.67A5.33,5.33,0,0,0,468.28,693.62Zm-58.38,8.91-17.12-23.2,10.83-14.45,7.31,37.17A4.51,4.51,0,0,0,409.9,702.53Zm-.33.26a3,3,0,0,0-.49.52l-22.34-15.92,5.77-7.78Zm-73.74,51.66-6.58-8,40.89-70.41,16,11.36Zm-6.9-8.26L312.6,726.54l21.9-75.81,35.33,25.16Zm-16.66-20-22.75-27.34,3.11-77.92,41.56,29.54ZM289.13,698.4l-34.58-41.52a4.06,4.06,0,0,0,.62-.74,3.49,3.49,0,0,0-1.16-4.85,1.35,1.35,0,0,0-.38-.21l18.23-45,20.34,14.53Zm-39.44-46.65L224.91,629.4,246.34,588,268,603.4l-15.12,47.44A3.67,3.67,0,0,0,249.69,651.75Zm-25.14-22.58-29.82-26.89.58-2.39,39.1-20.38L246,587.76Zm-.13.36-25.44,49-15.89-26.76,11.55-49.1Zm-41.66,21.75-17.6-29.74a5.63,5.63,0,0,0,1.76-6.89l26-13.52,1.43,1.24Zm-23.38-39-13-20.26,22.2-12.77,12.55,11.3-16.09,22a.35.35,0,0,0-.16-.09A5.43,5.43,0,0,0,159.38,612.24Zm-.4.2a6.43,6.43,0,0,0-1.68,1.76,6.06,6.06,0,0,0-.62,1.48l-36.25-6.35-.56-2.14,26.2-15Zm-2.35,3.62a5.14,5.14,0,0,0,.1,2.5l-31.19,11.17-5-20ZM120,609.29l-2.87-.53,2.42-1.37Zm-21.07-91,46.91,73.51-26.05,15-22.1-88A6.55,6.55,0,0,0,98.92,518.33Zm1.11-.86L168.26,579l-22.07,12.65-47-73.55A3.46,3.46,0,0,0,100,517.47Zm1.16-1.68,96.25,39.56a8.07,8.07,0,0,0,.43,6.63l-29.28,16.79L100.3,517.18a7.21,7.21,0,0,0,.51-.72A7.58,7.58,0,0,1,101.19,515.79Zm126.89,20.35-17.53,16.49a8.56,8.56,0,0,0-1.52-1.25,8,8,0,0,0-11,2.68,5.36,5.36,0,0,0-.45.93l-96.28-39.57a6.32,6.32,0,0,0,.17-.69Zm.5.15,40.57,6.85L265.09,551l-52.33,6.25a7.94,7.94,0,0,0-1.93-4.31Zm85-78.85-44.23,85.31-40.43-6.83,84.17-78.83C313.26,457.19,313.4,457.31,313.58,457.44Zm.71.33-27.9,87.86-16.64-2.82,44.17-85.18A1.21,1.21,0,0,0,314.29,457.77Zm2.77-.12,13.44,24.07-32.79,61a5.45,5.45,0,0,0-7.06,2.05,5.27,5.27,0,0,0-.65,1.55l-3.25-.58,27.92-87.79A3.73,3.73,0,0,0,317.06,457.65Zm.81-.51L334.66,474l-3.93,7.25-13.35-23.81C317.56,457.34,317.73,457.25,317.87,457.14Zm.39-.46,18.4,13.61-1.85,3.37-16.68-16.81C318.21,456.82,318.24,456.73,318.26,456.68Zm21.55,7.71-3,5.52L318.5,456.38a0,0,0,0,1,0-.05c.08-.12.11-.2.18-.3Zm.38.15,36.12,14.26-1.38,19.3-37.8-28Zm42.7-77.07-6.56,90.92-35.94-14.21,41.36-77.08A3.32,3.32,0,0,0,382.89,387.47Zm37,92.63a3.85,3.85,0,0,0-1.61,1.41,3.63,3.63,0,0,0,0,3.58l-9.59,6.1-32-12.62,6.54-91.1a3.93,3.93,0,0,0,1.19-.16Zm41.76-40.48s-.08,0-.1.09a3.58,3.58,0,0,0,.21,4l-38.05,37.06a1.9,1.9,0,0,0-.57-.41,3.27,3.27,0,0,0-2.85-.37l-35.44-92.86a3.22,3.22,0,0,0,1.3-1.16Zm4.75,4.93,9.15,14.26L471.11,470l-46.49,12.25A2.94,2.94,0,0,0,424,481l38.05-37a4.78,4.78,0,0,0,.69.52A3.43,3.43,0,0,0,466.4,444.55Zm1.69-2.73,13.72,1-6.08,15.54-9-14a2.57,2.57,0,0,0,.86-.93A3.43,3.43,0,0,0,468.09,441.82Zm27.79-34.62L482,442.47l-13.86-1a4.4,4.4,0,0,0-.84-2.18L495.5,407A1.58,1.58,0,0,0,495.88,407.2ZM524,425l-12.55,19.61-29.1-2.08,13.85-35.15a2,2,0,0,0,1.21.05,2.21,2.21,0,0,0,1.2-.75Zm8.87,6.43-5,14.42-16-1.21,12.37-19.44Zm14.52-41.67L533,431l-8.55-6.15L547,389.48C547.17,389.62,547.35,389.65,547.42,389.71Zm3.85-.75,34.85,30.78-27.93,25.71a2.63,2.63,0,0,0-.61-.49,3.52,3.52,0,0,0-4.38.57l-19.83-14.31,14.43-41.36A3.71,3.71,0,0,0,551.27,389Zm.76-1.16,50,17.31-15.61,14.35-34.9-30.84c.08-.13.19-.18.26-.35A2.93,2.93,0,0,0,552,387.8Zm62.1,6.16-11.78,10.85-50.18-17.38a1,1,0,0,1,.1-.42Zm.55,0,11.57,1.32-2.86,16.81-20.64-7.18Zm13.52-10.53-1.91,11.48-11.23-1.26,11.82-10.89A2.63,2.63,0,0,0,628.2,383.45Zm2.61-.75,16.54,14.59-20.65-2.35,1.89-11.41a1.89,1.89,0,0,0,.92-.12A2.24,2.24,0,0,0,630.81,382.7Zm25.35,2.8-7,12-1.08-.16-17-14.88a2.74,2.74,0,0,0,.48-1.09Zm.4,0,14,2.38-12.13,10.6-8.88-1Zm31.63-52.66-6.83,45.6-10.42,9.09-14.18-2.4,30.62-52.58A1.33,1.33,0,0,0,688.19,332.88Zm1.19,0,8.09,31.42L681.76,378.1,688.54,333A3.33,3.33,0,0,0,689.38,332.9Zm2.44-2.73,44.57.08-38.54,33.81-8.11-31.22A3,3,0,0,0,691.82,330.17Zm75-26.57-29.9,26.25-45.09-.08c0-.17,0-.32,0-.53a.61.61,0,0,0,0-.12L766.43,303A1.91,1.91,0,0,1,766.78,303.6Zm1,.78-14.25,25.5-16-.07,29.58-25.92A2.41,2.41,0,0,0,767.75,304.38Zm.7.4-7.2,25.1h-7.33l14.16-25.31C768.2,304.62,768.34,304.72,768.45,304.78Zm4.17-1.52a3.44,3.44,0,0,0,.3-2.95l14.6-5.81,10.05,35.44-35.92-.06,7.2-25A3.53,3.53,0,0,0,772.62,303.26Zm6.23-39.61,6.7,24-13.4,11.32a6.09,6.09,0,0,0-.75-.51,1.71,1.71,0,0,0-.49-.31L778,263.71A3.06,3.06,0,0,0,778.85,263.65Zm2-1.66,27,6.69-22,18.68-6.66-23.83A2.83,2.83,0,0,0,780.87,262Zm51.07-26.14.86,11.59-24.63,20.92L781,261.6a2.26,2.26,0,0,0,0-1.41s0-.06,0-.08Zm.45-.19,15.05-7.2.94,1.9-.07,0,1.31,2.71-16.45,14Zm-2.54-44.8,17.44,37.29-14.94,7.09-3.18-44.17.34-.09A1.35,1.35,0,0,0,829.85,190.86Zm47.5-14.94-9.22,37.51a7,7,0,0,0-1.64,0l-.4.1a5,5,0,0,0-1,.36l-.36.2a5.38,5.38,0,0,0-1.92,1.87,5.44,5.44,0,0,0-.4,4.95l-14.76,7-17.41-37.23a2.84,2.84,0,0,0,1.37-3.11l44.09-13.46A3,3,0,0,0,877.35,175.92Zm1.71.15,2.07,7.38-11.85,30.21-.74-.17,9.16-37.44A3.11,3.11,0,0,0,879.06,176.07Zm6.46-4.07-4.22,10.82L879.38,176a2.85,2.85,0,0,0,1.87-3.18Zm.43,0,58.27-10.57a5.06,5.06,0,0,0,.77,1.82L887.35,204.4l-5.88-21ZM951.24,7l-1.82,147.7a5.5,5.5,0,0,0-4.53,2.63,5.43,5.43,0,0,0-.72,3.64l-58,10.53L950.33,6.93A4.49,4.49,0,0,0,951.24,7ZM1116,132.43l-161,26.72a5.49,5.49,0,0,0-2.52-3.6,5,5,0,0,0-2.62-.76L951.63,7.06a3.51,3.51,0,0,0,2.54-1.19l162.6,123.9c-.11.18-.22.32-.31.47A3.47,3.47,0,0,0,1116,132.43Zm-91.73,81.64-49.82,1.45-22.48-50.4a5,5,0,0,0,2.27-2.05,5.11,5.11,0,0,0,.79-3.58l161-26.73a3.56,3.56,0,0,0,.66,1.49Zm247.32-6.82L996.61,238.46l27.73-23.94Zm-263,85L988,245.91l8.11-7,276.72-31.34c0,.09,0,.16,0,.26Zm96.06,217.86L961,327.59l-1.24-19.28,48.58-15.54,96.71,217.16C1104.94,510,1104.85,510.06,1104.64,510.14Zm-.29.32-140.19-138-3-44.18,143.25,182.12C1104.32,510.42,1104.32,510.42,1104.35,510.46ZM969.8,455.53l-4.14-60.64L1103.89,511c0,.11-.16.16-.18.22a.56.56,0,0,0-.16.32Zm2,29.74-2-29.32,133.56,55.87c-.1.16-.05.22-.09.31Zm.7,10.31-.73-9.83,129.59,26.43Zm-.42-.05L870.54,482.47l7.58-15.9,93.26,19.06ZM981.3,659,854.62,523.18a2.71,2.71,0,0,0,.5-.59,3.56,3.56,0,0,0-1.16-4.88c-.11,0-.1,0-.19-.07l16.56-34.8,101.82,13.09,11,162.25A3,3,0,0,0,981.3,659Zm-.5.48-118.71-84-9.2-51.29a3.38,3.38,0,0,0,1.5-.72L981,659.26S980.87,659.41,980.8,659.44Zm-102.92,4L866.13,598l114.34,61.85a3.34,3.34,0,0,0-.37,1.66Zm-.43,0-53.77,1-28-67.83,19.49-26.18,50.56,27.3Zm39.19,226.3-92.8-224.87,53.71-1L918,889.46Zm-1.88,1-167.7-220.3a5.32,5.32,0,0,0,1.18-1.42,4.62,4.62,0,0,0,.78-2.74l74.45-1.44L916.27,890C915.76,890.18,915.23,890.5,914.76,890.77ZM913,892.56,724.62,762.07,709.74,694l29.7-24.14a5,5,0,0,0,1.31,1,5.38,5.38,0,0,0,6-.19L914.46,891A6.44,6.44,0,0,0,913,892.56Zm-.58.87L733.08,801l-8.34-38.32,188,130.29c0,.06-.11.1-.14.18S912.48,893.34,912.45,893.43Zm-167.4-37.62-11.84-54.33,179,92.32a6.86,6.86,0,0,0-.5,1.51Zm-.4-.12L674.1,838.94l-34.66-83.63a3.35,3.35,0,0,0,1.45-1.34s.08,0,.05-.08l91.8,47.34Zm68.09,317.89L674.31,839.42l70.46,16.7,69.37,317.06A9,9,0,0,0,812.74,1173.58Zm-.69.3L632,835.61a8,8,0,0,0,2.84-2.76,6.66,6.66,0,0,0,1-2.57l38,9,138.53,334.42A1.27,1.27,0,0,1,812.05,1173.88ZM620,900.52l7.36-63.89a8.08,8.08,0,0,0,4.29-.78l180.06,338.21a5.33,5.33,0,0,0-.46.32Zm-22.26-31.83-4.39-79.33,42-34.85a3,3,0,0,0,.73.65,4.3,4.3,0,0,0,1.17.44l-8.39,65.2a8,8,0,0,0-5,14.72,8.56,8.56,0,0,0,3.07,1.09l-7.33,63.49Zm8,144.32-8-143.54,21.81,31.22-13,112.37A5,5,0,0,0,605.74,1013ZM530.2,848.34a5.24,5.24,0,0,0,2.28-2.08,5.45,5.45,0,0,0-.35-6.2l28.58-23.68,36.63,52.43,8,144.23a8.22,8.22,0,0,0-2.26.43ZM519.91,821l7-4,.59,21a6.64,6.64,0,0,0-1.33.25Zm-81.84,47.77,81.51-47.57,6.17,17.14a5.32,5.32,0,0,0-2.63,2.2,5.81,5.81,0,0,0-.63,4.24l-84.07,24.81A2.78,2.78,0,0,0,438.07,868.76Zm-1.68-2,65.14-96,17.93,50L437.89,868.4A6.1,6.1,0,0,0,436.39,866.81Zm-1.76-.83,37.29-169.92a5.28,5.28,0,0,0,2.65-.12l26.76,74.42-65.25,96.27A7.36,7.36,0,0,0,434.63,866Zm-1.9-.09L415.37,731.27,468.46,694a5.74,5.74,0,0,0,1.6,1.38,3.44,3.44,0,0,0,1.49.64L434.26,865.91A5.63,5.63,0,0,0,432.73,865.89Zm-79.66-90.75L415,731.55l17.38,134.38a4.67,4.67,0,0,0-2.68,1.23Zm-7.13-8.5L409.39,708a3.8,3.8,0,0,0,.59.47,3.52,3.52,0,0,0,2.08.54l2.88,22L352.8,774.8Zm-57.41,53,57.14-52.76,6.78,8.12-63.74,44.84A2,2,0,0,0,288.53,819.68Zm-.68-.67,48-63.9,9.58,11.46L288.28,819.4A2.7,2.7,0,0,0,287.85,819Zm-.56-.46L329,746.85l6.57,7.94-48.07,64Zm-1.19-.48L312.43,727l16.33,19.57-41.83,71.83C286.65,818.28,286.41,818.16,286.1,818.07Zm-1.27-.32,4.71-118.34,22.62,27.22-26.44,91.3A3.8,3.8,0,0,0,284.83,817.75ZM211.4,699.51,249.86,657a2.37,2.37,0,0,0,.43.31,3.52,3.52,0,0,0,4-.16L289.14,699,284.4,817.8a4.87,4.87,0,0,0-2.57.62ZM199.21,679,224.7,629.8l24.73,22.3a2.28,2.28,0,0,1-.29.34,3.5,3.5,0,0,0,.45,4.25l-38.43,42.49Zm-39.7,76.57L199,679.41l11.88,20.07-50.94,56.38a4.41,4.41,0,0,0-.39-.25Zm-.8-.3L183,652.3,198.75,679l-39.57,76.41Zm-.71-.11,4.07-132.58a5.52,5.52,0,0,0,2.72-.77l17.83,30.05L158.31,755.14A.63.63,0,0,0,158,755.12Zm-32.36-125,31.24-11.21a5,5,0,0,0,2.25,2.78,5.39,5.39,0,0,0,2.54.84l-4,132.53-.59.08Zm-118.92,42L116.61,609.1l3.5.62,5,20.2L6.83,672.4A2.51,2.51,0,0,0,6.72,672.17ZM5.5,670.81l41.83-72.38a1.53,1.53,0,0,0,1.15,0,1.92,1.92,0,0,0,1.13-1L116,609,6.51,671.84A3.4,3.4,0,0,0,5.5,670.81Z"/></svg>