<svg id="圖層_1" data-name="圖層 1" xmlns="http://www.w3.org/2000/svg" viewBox="0 0 20.21 20.15"><defs><style>.cls-1{fill:gray;}</style></defs><path class="cls-1" d="M0,8.83C0,3.94,3.21.42,7.56,0a8.18,8.18,0,0,1,8.83,7.31,7.87,7.87,0,0,1-1.2,5.18.61.61,0,0,0,.13,1c1.42,1.37,2.82,2.76,4.22,4.15.77.76.88,1.57.3,2.16a1.5,1.5,0,0,1-2.21-.26c-1.39-1.45-2.82-2.86-4.22-4.3a.51.51,0,0,0-.77-.1A8.21,8.21,0,0,1,1,12,7.87,7.87,0,0,1,0,8.83ZM8.25,2.65a5.46,5.46,0,0,0-5.62,5.5,5.6,5.6,0,0,0,5.43,5.64A5.67,5.67,0,0,0,13.8,8.37,5.54,5.54,0,0,0,8.25,2.65Z"/></svg>