<svg width="32" height="32" viewBox="0 0 32 32" fill="none" xmlns="http://www.w3.org/2000/svg">
<path d="M14.7316 4.46825H6.73164C4.08067 4.46825 1.93164 6.61729 1.93164 9.26825V25.2684C1.93164 27.9194 4.08067 30.0684 6.73164 30.0684H22.7316C25.3826 30.0684 27.5316 27.9194 27.5316 25.2684L27.5316 17.2683M9.93164 22.0683L15.753 20.8953C16.062 20.833 16.3457 20.6809 16.5686 20.4579L29.6002 7.41916C30.225 6.79402 30.2245 5.7807 29.5992 5.15609L26.8387 2.39865C26.2136 1.7743 25.2008 1.77472 24.5762 2.3996L11.5433 15.4397C11.3209 15.6622 11.169 15.9454 11.1067 16.2538L9.93164 22.0683Z" stroke="white" stroke-width="2" stroke-linecap="round" stroke-linejoin="round"/>
</svg>
