<svg id="圖層_1" data-name="圖層 1" xmlns="http://www.w3.org/2000/svg" viewBox="0 0 182.17 198.72"><defs><style>.cls-1{fill:#d4d4d4;}.cls-2{fill:#787878;}.cls-3{fill:#9a7cff;}</style></defs><g id="_08_autism_mind_thought_user_human_brain" data-name="08, autism, mind, thought, user, human brain"><rect class="cls-1" x="56.44" y="176.63" width="78.67" height="15.92"/><path class="cls-2" d="M136.63,182.16H58a4.14,4.14,0,0,1,0-8.28h78.67a4.14,4.14,0,0,1,0,8.28Z"/><path class="cls-2" d="M136.63,198.72H58a4.14,4.14,0,0,1-4.14-4.14v-29H44.51a19.69,19.69,0,0,1-19.67-19.66V124.2H4.14a4.14,4.14,0,0,1-3.78-5.82l16.2-36.46v-7.4A74.49,74.49,0,0,1,90.13,0,72.38,72.38,0,0,1,117.42,5a4.14,4.14,0,1,1-3,7.72,64.44,64.44,0,0,0-24.2-4.38A66.48,66.48,0,0,0,24.84,74.52V82.8a4.21,4.21,0,0,1-.35,1.68l-14,31.44H29a4.14,4.14,0,0,1,4.14,4.14v25.88a11.39,11.39,0,0,0,11.39,11.38H58a4.15,4.15,0,0,1,4.15,4.14v29h70.4c-.17-12.81-.59-46.58,18.68-88a66.24,66.24,0,0,0,6-31.77,4.14,4.14,0,0,1,8.26-.5,74.42,74.42,0,0,1-6.77,35.76C137,152.55,141.35,189,140.75,195A4.15,4.15,0,0,1,136.63,198.72Z"/><path class="cls-2" d="M178,74.52h-62.1a4.14,4.14,0,0,1-4.14-4.14V53.3a16.57,16.57,0,0,1,0-32.08V4.14A4.14,4.14,0,0,1,115.93,0H178a4.14,4.14,0,0,1,4.14,4.14V70.38A4.14,4.14,0,0,1,178,74.52Z"/><path class="cls-3" d="M120.07,66.24h53.82v-58H120.07V24.84A4.14,4.14,0,0,1,115.93,29a8.28,8.28,0,0,0,0,16.56,4.14,4.14,0,0,1,4.14,4.14Z"/></g></svg>