<?xml version="1.0" encoding="utf-8"?>
<!-- Generator: Adobe Illustrator 26.0.3, SVG Export Plug-In . SVG Version: 6.00 Build 0)  -->
<svg version="1.1" id="圖層_1" xmlns="http://www.w3.org/2000/svg" xmlns:xlink="http://www.w3.org/1999/xlink" x="0px" y="0px"
	 viewBox="0 0 464.4 465.5" style="enable-background:new 0 0 464.4 465.5;" xml:space="preserve">
<style type="text/css">
	.st0{fill:none;stroke:#FFFFFF;stroke-width:26;stroke-miterlimit:10;}
</style>
<path class="st0" d="M13.5,62v149.5c0,17,6.7,33.3,18.7,45.3l176,176c25,25,65.5,25,90.5,0l133.5-133.5c25-25,25-65.5,0-90.5
	l-176-176c-12-12-28.3-18.7-45.3-18.7L61.5,14C35,14,13.5,35.5,13.5,62z M125.5,94c17.7,0,32,14.3,32,32s-14.3,32-32,32
	s-32-14.3-32-32S107.8,94,125.5,94z"/>
</svg>
