<svg id="圖層_1" data-name="圖層 1" xmlns="http://www.w3.org/2000/svg" viewBox="0 0 45 45"><defs><style>.cls-1{fill:#fff;}</style></defs><path class="cls-1" d="M14.66,4.5c3.13,0,6.26,0,9.39,0A4.89,4.89,0,0,1,28.72,7.1a5.41,5.41,0,0,1,.56,2.59c0,4.11,0,8.23,0,12.34a4.82,4.82,0,0,1-5.14,5.18c-3,0-6,0-9,0a2.81,2.81,0,0,0-1.88.64C11.91,29,10.46,30,9,31.09a1.49,1.49,0,0,1-1.65.33c-.65-.3-.73-.88-.73-1.5s0-1.14,0-1.7c.07-.8-.28-1-1-1A5.48,5.48,0,0,1,1.27,25.7a4.05,4.05,0,0,1-1.25-3C0,18.15,0,13.55,0,9A4.41,4.41,0,0,1,3.16,4.83,8,8,0,0,1,5.54,4.5Zm-.23,7.12v0c.5,0,1,0,1.52,0a.93.93,0,0,1,1,.77,1,1,0,0,1-.52,1.13c-.62.35-1.21.77-1.86,1.06a2,2,0,0,0-1.19,2.33,1.28,1.28,0,0,0,1,1.21,1.12,1.12,0,0,0,1.38-.72,2.26,2.26,0,0,1,1.11-1.09,11.32,11.32,0,0,0,1.31-.78,3.48,3.48,0,0,0,1.32-3.82,3.2,3.2,0,0,0-2.85-2.6,15.29,15.29,0,0,0-4.63,0A2.86,2.86,0,0,0,9.79,11a1.29,1.29,0,0,0,.42,1.8,1.39,1.39,0,0,0,1.86-.53,1.15,1.15,0,0,1,1.11-.6C13.59,11.63,14,11.62,14.43,11.62Zm1.9,10.43a1.82,1.82,0,0,0-1.68-1.91A1.87,1.87,0,0,0,12.82,22a1.72,1.72,0,0,0,1.73,1.86A1.63,1.63,0,0,0,16.33,22.05Z"/><path class="cls-1" d="M45,24.84c0,2,0,4,0,6,0,3-2,5.48-5.24,5.22-.21,0-.42,0-.63,0-.72-.09-1,.26-.92.94s0,1.31,0,2a1.36,1.36,0,0,1-.71,1.42,1.46,1.46,0,0,1-1.59-.28c-1.57-1.19-3.15-2.36-4.71-3.56a2.32,2.32,0,0,0-1.48-.5c-2.38,0-4.77,0-7.15,0a4.49,4.49,0,0,1-4.67-4.69c0-2.49-.31-2.19,2.18-2.21h4.2c4.24,0,7-2.7,7-7,0-2.41,0-4.83,0-7.24,0-1.35,0-1.36,1.32-1.36,2.41,0,4.83.09,7.24,0a4.81,4.81,0,0,1,5.09,5C45,20.66,45,22.75,45,24.84Z"/></svg>