<svg id="圖層_1" data-name="圖層 1" xmlns="http://www.w3.org/2000/svg" viewBox="0 0 45 45"><defs><style>.cls-1{fill:#fff;}</style></defs><path class="cls-1" d="M.38,7.75A4.93,4.93,0,0,1,5.3,2.83H17.59v9.84a2.46,2.46,0,0,0,2.46,2.45h9.83v9.66l-6.67,6.66A6.14,6.14,0,0,0,21.6,34.3l-1.44,5.75a3.64,3.64,0,0,0,.1,2.12H5.3A4.93,4.93,0,0,1,.38,37.24Zm29.5,4.92H20.05V2.83Zm12.73,8.27L43.72,22a3.1,3.1,0,0,1,0,4.35l-2.26,2.26L36,23.2l2.25-2.26a3.08,3.08,0,0,1,4.35,0ZM24.34,34.86l9.92-9.92,5.46,5.45-9.93,9.92a2.44,2.44,0,0,1-1.14.64L24,42.1a1.21,1.21,0,0,1-1.17-.32,1.23,1.23,0,0,1-.32-1.17L23.69,36a2.5,2.5,0,0,1,.65-1.15Z"/></svg>