<svg id="圖層_1" data-name="圖層 1" xmlns="http://www.w3.org/2000/svg" viewBox="0 0 150 150"><defs><style>.cls-1{fill:#586ba6;}.cls-1,.cls-3,.cls-4,.cls-5,.cls-7,.cls-8{stroke:#052a75;stroke-linecap:round;stroke-linejoin:round;stroke-width:5px;}.cls-2{fill:#67ccd1;}.cls-3{fill:none;}.cls-4{fill:#a6aecf;}.cls-5{fill:#c7cee6;}.cls-6{fill:#597ade;}.cls-7{fill:#86a3fd;}.cls-8{fill:#fff;}.cls-9{fill:#fd7da0;}</style></defs><rect class="cls-1" x="9.46" y="13.76" width="132.26" height="21.87"/><rect class="cls-2" x="14.54" y="35.63" width="121.11" height="87.05"/><rect class="cls-3" x="14.54" y="35.63" width="121.11" height="87.05"/><rect class="cls-4" x="7.5" y="122.68" width="133.24" height="11.93"/><rect class="cls-5" x="2.41" y="134.61" width="145.17" height="11.93"/><rect class="cls-6" x="49.52" y="86.82" width="25.48" height="47.8"/><rect class="cls-7" x="75.05" y="86.82" width="25.48" height="47.8"/><rect class="cls-3" x="49.52" y="86.82" width="25.48" height="47.8"/><rect class="cls-3" x="75.05" y="86.82" width="25.48" height="47.8"/><rect class="cls-8" x="31.31" y="54.81" width="11.87" height="11.87"/><rect class="cls-8" x="57.06" y="54.95" width="11.87" height="11.87"/><rect class="cls-8" x="81.51" y="54.95" width="11.87" height="11.87"/><circle class="cls-9" cx="75.2" cy="23.25" r="19.8"/><rect class="cls-8" x="107.54" y="54.81" width="11.87" height="11.87"/><circle class="cls-3" cx="75.2" cy="23.25" r="19.8"/><line class="cls-7" x1="65.8" y1="23.25" x2="84.78" y2="23.25"/><line class="cls-7" x1="75.29" y1="13.76" x2="75.29" y2="32.74"/></svg>