<svg id="圖層_1" data-name="圖層 1" xmlns="http://www.w3.org/2000/svg" viewBox="0 0 150 150"><defs><style>.cls-1{fill:#db4b86;}.cls-2{fill:none;}.cls-2,.cls-3,.cls-4,.cls-5,.cls-6,.cls-7{stroke:#052a75;stroke-linecap:round;stroke-linejoin:round;stroke-width:5px;}.cls-3{fill:#fd7da0;}.cls-4{fill:#fff;}.cls-5{fill:#c7cee6;}.cls-6{fill:#fdcb50;}.cls-7{fill:#86a3fd;}</style></defs><rect class="cls-1" x="9.65" y="56.46" width="88.96" height="67.65"/><rect class="cls-2" x="9.65" y="56.46" width="88.96" height="67.65"/><polygon class="cls-3" points="98.61 124.11 147.39 124.11 147.39 82.93 134.87 47.5 98.61 47.5 98.61 124.11"/><polygon class="cls-2" points="98.61 124.11 147.39 124.11 147.39 82.93 134.87 47.5 98.61 47.5 98.61 124.11"/><polygon class="cls-4" points="111.55 87.34 135.18 87.34 135.18 81.68 128.22 58.4 111.55 58.4 111.55 87.34"/><rect class="cls-1" x="9.65" y="104.63" width="88.96" height="19.48"/><rect class="cls-2" x="9.65" y="104.63" width="88.96" height="19.48"/><rect class="cls-5" x="18.52" y="66.76" width="68.35" height="8.66"/><rect class="cls-6" x="139.76" y="94.1" width="7.63" height="10.53"/><rect class="cls-5" x="2.61" y="110.92" width="7.04" height="9.88"/><circle class="cls-7" cx="33.01" cy="124.11" r="14.13"/><circle class="cls-7" cx="123.36" cy="124.11" r="14.13"/><path class="cls-6" d="M121.22,35.37h0a6.87,6.87,0,0,1,6.87,6.87V47.5a0,0,0,0,1,0,0H114.35a0,0,0,0,1,0,0V42.24A6.87,6.87,0,0,1,121.22,35.37Z"/><line class="cls-7" x1="121.25" y1="25.33" x2="121.25" y2="11.76"/><line class="cls-7" x1="109.76" y1="26.63" x2="101.98" y2="18.34"/><line class="cls-7" x1="132.59" y1="26.24" x2="139.83" y2="18.34"/><line class="cls-7" x1="18.16" y1="36" x2="90.67" y2="36"/><line class="cls-7" x1="15.42" y1="46.67" x2="87.94" y2="46.67"/><rect class="cls-5" x="29.02" y="36" width="47.74" height="10.67"/><line class="cls-7" x1="41.45" y1="36" x2="41.45" y2="46.67"/><line class="cls-7" x1="53.45" y1="36" x2="53.45" y2="46.67"/><line class="cls-7" x1="65.45" y1="36" x2="65.45" y2="46.67"/><line class="cls-7" x1="12.68" y1="25.33" x2="85.2" y2="25.33"/><rect class="cls-5" x="23.54" y="25.33" width="47.74" height="10.67"/><line class="cls-7" x1="35.97" y1="25.33" x2="35.97" y2="36"/><line class="cls-7" x1="47.97" y1="25.33" x2="47.97" y2="36"/><line class="cls-7" x1="59.97" y1="25.33" x2="59.97" y2="36"/><line class="cls-7" x1="47.71" y1="48.15" x2="47.71" y2="56.46"/><line class="cls-7" x1="70.75" y1="48.15" x2="70.75" y2="56.46"/><circle class="cls-4" cx="33.01" cy="124.11" r="5.83"/><circle class="cls-4" cx="123.36" cy="124.11" r="5.83"/></svg>