<svg id="圖層_1" data-name="圖層 1" xmlns="http://www.w3.org/2000/svg" viewBox="0 0 150 150"><defs><style>.cls-1{fill:#586ba6;}.cls-1,.cls-3,.cls-4,.cls-6,.cls-8,.cls-9{stroke:#052a75;stroke-linejoin:round;stroke-width:5px;}.cls-1,.cls-4,.cls-6,.cls-8,.cls-9{stroke-linecap:round;}.cls-2{fill:#fd8f01;}.cls-3,.cls-8{fill:none;}.cls-4{fill:#fff;}.cls-5{fill:#67ccd1;}.cls-6{fill:#86a3fd;}.cls-7{fill:#597ade;}.cls-9{fill:#c7cee6;}.cls-10{fill:#fdcb50;}.cls-11{fill:#052a75;}</style></defs><rect class="cls-1" x="4.05" y="12.67" width="142.94" height="22.96"/><rect class="cls-2" x="10.24" y="35.63" width="129.52" height="111.13"/><rect class="cls-3" x="10.24" y="35.63" width="129.52" height="111.13"/><rect class="cls-4" x="24.76" y="53.46" width="12.87" height="12.87"/><rect class="cls-4" x="53.96" y="53.46" width="12.87" height="12.87"/><rect class="cls-4" x="83.17" y="53.46" width="12.87" height="12.87"/><rect class="cls-4" x="112.37" y="53.46" width="12.87" height="12.87"/><rect class="cls-4" x="24.76" y="75.17" width="12.87" height="12.87"/><rect class="cls-4" x="53.96" y="75.17" width="12.87" height="12.87"/><rect class="cls-4" x="83.17" y="75.17" width="12.87" height="12.87"/><rect class="cls-4" x="112.37" y="75.17" width="12.87" height="12.87"/><rect class="cls-5" x="55.72" y="103.2" width="19.8" height="31.42"/><rect class="cls-6" x="75.52" y="103.2" width="19.8" height="31.42"/><rect class="cls-7" x="55.72" y="103.2" width="19.8" height="31.42"/><rect class="cls-8" x="75.52" y="103.2" width="19.8" height="31.42"/><rect class="cls-9" x="2.99" y="134.61" width="144" height="12.15"/><circle class="cls-10" cx="75" cy="23.25" r="19.8"/><circle class="cls-8" cx="75" cy="23.25" r="19.8"/><path class="cls-11" d="M79.16,18.42a4.75,4.75,0,0,0-3.34-1.54c-1.45,0-2.21.52-2.21,1.89,0,2.77,8.16,2.63,8.16,8.52a5.82,5.82,0,0,1-4.84,6.08v3.26H73.75v-3.1a10.34,10.34,0,0,1-5.52-2.41l2.12-3.28a7.14,7.14,0,0,0,4.38,1.81c1.68,0,2.42-.66,2.42-2,0-3-8.14-3.07-8.14-8.66a5.63,5.63,0,0,1,4.74-5.89V9.87h3.18v3.18a7.76,7.76,0,0,1,4.63,2.57Z"/><rect class="cls-8" x="55.72" y="103.2" width="19.8" height="31.42"/></svg>