<svg xmlns="http://www.w3.org/2000/svg" xmlns:xlink="http://www.w3.org/1999/xlink" viewBox="0 0 150 150"><defs><style>.cls-1,.cls-13,.cls-16{fill:none;}.cls-2{isolation:isolate;}.cls-3{clip-path:url(#clip-path);}.cls-4{clip-path:url(#clip-path-2);}.cls-5{mix-blend-mode:screen;opacity:0.3;}.cls-6{fill:url(#linear-gradient);}.cls-11,.cls-7{fill:#fff;}.cls-8{fill:#d2dcfd;}.cls-9{fill:#86a3fd;}.cls-10,.cls-11,.cls-13,.cls-15,.cls-16,.cls-9{stroke:#052a75;stroke-linejoin:round;stroke-width:5px;}.cls-10,.cls-11,.cls-15,.cls-16,.cls-9{stroke-linecap:round;}.cls-10{fill:#fd7da0;}.cls-12{fill:#fdcb50;}.cls-14{fill:#67ccd1;}.cls-15{fill:#c7cee6;}.cls-17{fill:#27a2cc;}</style><clipPath id="clip-path"><rect class="cls-1" x="-648.59" y="-1423.82" width="1925.28" height="1111.6"/></clipPath><clipPath id="clip-path-2"><rect class="cls-1" x="-1061.74" y="-1484.72" width="2372.06" height="1367.42"/></clipPath><linearGradient id="linear-gradient" x1="-1640.51" y1="-4111.27" x2="-469.35" y2="-5240.19" gradientTransform="translate(-2391.78 2707.74) rotate(55.11)" gradientUnits="userSpaceOnUse"><stop offset="0" stop-color="#c544ad"/><stop offset="1" stop-color="#275eff"/></linearGradient></defs><g class="cls-2"><g id="圖層_1" data-name="圖層 1"><g class="cls-3"><g class="cls-4"><g class="cls-5"><path class="cls-6" d="M1631.86-171.72c68.57-67.74,107-145.4,114.22-230.84,8.68-102.59-37.43-201.85-82-297.85-18.76-40.38-38.15-82.13-52.59-122.68-26.06-73.23-39-149.62-51.62-223.49-16.74-98.34-34-200-82.5-293.51-12.27-23.66-26.09-49.35-43.92-76.86-77.71-120-250.72-160.64-385.53-90.55-98.7,51.32-247.75,116.41-402,89.27-33.14-5.81-70.2-18.56-108.2-36.75l-5.54-4.47c-10.76-8.72-21.64-17.53-33-26-13.59-11.77-27.41-23.62-42.14-34.68-12.84-11.63-26.06-23.12-40.22-33.71a461,461,0,0,0-38-32.19A416.25,416.25,0,0,0,342-1617.54a387.63,387.63,0,0,0-36.65-31.54,366.3,366.3,0,0,0-36.15-31.21c-26.07-25.61-55.36-48.33-92-63-81.75-32.8-164.74-32-246.65,2.3-66.06,27.68-131.73,77.23-195.2,147.27-13.84,15.27-24.84,27.82-34.6,39.51-30.23,36.23-50.9,67.2-65.08,97.45-17.75,37.89-25.15,74.49-22.62,111.9,6.05,69.44,41.62,160.28,96.83,231.59,23.58,30.45,50.75,57.34,80.71,77.47C-89.19-955.07,54.79-934,194-913.62c107.93,15.8,219.53,32.13,319.84,76C614-793.87,698.66-724.16,765.4-630.32c53,74.49,93.48,162.4,120.34,261.3,4.84,17.85,9.65,34.39,14.68,50.6,42.41,136.63,99.7,236.12,170.31,295.72,41.43,35,98.16,49,168.61,41.75,58.14-6,115.29-26.93,158.58-44.49C1494.56-64.63,1573.27-113.85,1631.86-171.72Zm-577.19-1312c61.66-30.09,132.87-37.68,200.5-21.37,68.5,16.52,125.91,56,161.62,111.21,16.92,26.14,30.11,50.63,41.84,73.19,46.3,89.18,63.27,186.29,79.68,280.21,12.28,70.27,25,142.94,49.82,212.74,13.77,38.69,32.14,78.48,49.91,117,42.29,91.6,86,186.31,78.29,283.84C1710-346.35,1674.18-272.73,1610-208.11c-53.69,54.05-127.26,102-218.65,142.45-45.93,20.34-100.37,41.83-155.87,47C1168.78-12.49,1112-28.15,1071.32-64c-67.79-59.68-121-153.64-162.63-287.31-4.88-15.64-9.58-31.69-14.39-49.07-26.72-96.72-66.77-182.09-119-253.76C710-743.69,626.62-810.83,527.59-853.58c-96.06-41.78-202.44-58-305.32-73.73-133.52-20.39-271.6-41.47-386.6-118.94-95-64-161.54-199.69-171-293.81-2.11-35.37,5.54-70,23.4-105.72,14.05-28.12,34.4-57,64.05-90.73,9.64-11,20.39-22.63,33.85-36.73,140-147.19,282.82-193.44,424.56-137.46a243.36,243.36,0,0,1,56.85,32.16q6.18,6.07,12.15,12.31A233.71,233.71,0,0,0,246-1682.49c-136.79-53.09-275.87-10.49-413.4,126.61-13.2,13.1-23.75,23.93-33.21,34.1-29.76,32-49.41,58.27-63.69,85-18.33,34.29-26.4,67.58-24.64,101.84,7.18,62.52,40.63,144.19,90.79,209,22.23,28.71,47.76,54.11,75.72,73C-11.38-977.85,121.66-956.58,250.33-936c97.21,15.54,197.72,31.61,288.7,70.68,97.3,41.78,178.61,105.79,241.71,190,51.19,68.42,90.56,150.77,117,244.76,4.82,17.12,9.44,32.72,14.12,47.69,40.6,129.72,91.75,221.63,156.37,281,41.6,38.23,98.28,55.57,163.89,50.16,54.58-4.49,106.72-26.65,154.93-49.93,87.94-42.46,155-88.11,205-139.55,60.61-62.37,94.2-133,99.81-209.77,6.86-93.61-34.73-184.3-74.95-272-16.73-36.48-34-74.2-47.07-110.84-23.49-66-35.85-134.76-47.8-201.24-16.15-89.84-32.85-182.73-77.32-268.22-11.23-21.56-23.85-45-40-69.9-69.47-107.43-221.31-147.32-345.77-90.92-91.5,41.45-229.54,93.8-371.36,69.93-37-6.18-79-20.93-121.49-42.18,35.19,16,69.4,27.2,100.13,32.47,63.61,10.95,129.5,7.85,201.45-9.49C924.63-1427.06,985.79-1450.07,1054.67-1483.69Zm-599.44-34.67q6.42,5.83,12.74,11.66-2.52-1.53-5.09-3-7-6.58-13.86-13.19C451.11-1521.41,453.18-1519.9,455.23-1518.36Zm610.37,78.17a280.7,280.7,0,0,1,178.76-11.63c60.75,16.17,111.77,52.32,143.74,101.77,15.24,23.6,27.23,45.79,37.91,66.25,42.33,81.2,58.7,169.55,74.54,255,11.65,62.85,23.7,127.85,46,190.4,12.37,34.77,28.64,70.51,44.37,105.07C1628.8-650,1668-563.87,1662.09-475.28c-8.69,131-98.23,237-281.78,333.52-31.89,16.77-91.24,48-152,52.34C1166.2-84.95,1109.58-104,1068.91-143,1008.13-201.4,959.47-290.58,920.14-415.7c-4.5-14.31-9-29.41-13.83-46.17C880-553.65,841.06-633.47,790.58-699.12l-1.2-1.55c-61.31-79.19-140.92-140-236.64-180.67C466.16-918.16,371-934.1,279-949.52c-123.09-20.62-250.38-41.94-356.4-113.85-85.94-58.43-148.82-181.57-160-266.79-1.35-32.21,6.95-63.46,25.36-95.55,14.12-24.59,33.43-48.74,62.62-78.29,9.21-9.28,19.52-19.23,32.46-31.33,133.39-125.35,266.7-163.9,396.24-114.57a224.62,224.62,0,0,1,25.53,11.59q6,6.87,12,13.75l4.9,5.64c-2.32-.95-4.63-1.9-7-2.78-69.33-25.85-140.58-26.71-211.78-2.57-56.63,19.21-114.89,54.94-173.15,106.19C-82.88-1507-93-1497.88-102-1489.39c-19.49,18.42-44.18,43.31-62.29,72.56C-183-1386.67-192-1355.83-191-1325c8.12,54.89,38.06,126.81,83.41,185.37,20.94,27.05,45.18,51.26,72.07,69.61,102,69.46,224.2,91,342.38,111.74,86.43,15.21,175.81,30.93,257.33,65.23,94.61,39.8,172.62,98,231.88,172.82C845.37-657.89,883.73-581,909.76-492c5,17,9.28,31.2,13.56,44.77,38.35,121.4,84.94,208.49,142.42,266.27,41.35,41.54,97.88,62.35,159.18,58.57,56.34-3.45,107.63-30.4,151.29-55.38,116.82-66.86,252.1-163.82,261.4-321.53,5-84.66-32-166.8-67.88-246.24-14.69-32.55-29.88-66.2-41.52-98.9-20.9-58.74-32.59-119.79-43.91-178.84-15.59-81.38-31.71-165.54-72.22-243.07-10.18-19.45-21.59-40.54-36-62.95-30.35-47.09-78.79-82-136.35-98.14a276,276,0,0,0-169.64,6.83c-91.91,34.2-213.71,70.86-340.71,50.62-39.51-6.25-85.15-22.23-130.44-45.2,38.18,17.69,75.75,30,109.1,35.48C842.5-1357.67,969.76-1400.45,1065.6-1440.19ZM380-1574.67q9.31,9.93,18.92,19.89-4.14-1.8-8.4-3.47c-7.12-7.06-14-14.35-20.81-21.69Q375-1577.4,380-1574.67Zm98.28,77.46q9.56,8.74,19.46,17.37l-1.2-.65c-1.09-.86-2.22-1.7-3.3-2.56-7.23-5.79-14.21-11.92-21.1-18.15Q475.27-1499.23,478.32-1497.21ZM348.49-1589c7.76,8.37,15.7,16.57,23.94,24.38-110.06-34.56-223.18-6.91-345.39,84.31-11,8.19-20.83,15.6-30.45,23.28-20.06,16-43,35.64-60.91,60.1-9.86,13.46-17.84,28.09-22.82,43.6-5.36,16.71-7.51,32.35-3.5,49.45a338.36,338.36,0,0,0,14.12,45A423.61,423.61,0,0,0-26-1165.54q4.3,6,8.86,11.9c19.89,25.7,43,48.82,68.55,66.47,93.13,64,204.73,85.81,312.67,106.89,75.45,14.74,153.47,30,225.28,59.46,92.22,37.86,166.93,90.22,222,155.61,47.68,56.53,84.75,127.72,110.35,211.67,3.81,12.46,8.27,27,13,41.86,23.16,72.59,61.65,177.61,128.47,251.53,41.2,45.58,96,69.37,154.47,67,54.07-2.18,102.92-30.54,147.65-60.85,110-74.55,212.53-161.73,218-293.72,3.19-75.77-29.38-149.41-60.87-220.62-12.64-28.57-25.7-58.11-35.92-86.82-18.28-51.38-29.27-104.65-39.9-156.17-15.06-73-30.64-148.53-67.23-218.2-9.13-17.34-19.34-36.13-32.11-56-52.81-82.24-162.31-120-266.18-91.69-91,24.76-198.93,47.84-310.1,31.28-44.62-6.56-95.36-24.26-145.07-50.39,42.89,20.72,85.53,34.85,123.76,40.69,120.37,18.59,237.84-12.18,326.73-41.06,101.5-33,213-1.07,272.61,75.89,3.64,4.68,7.08,9.55,10.31,14.56,13.56,21.07,24.35,41,34,59.3,38.38,73.3,54.2,153,69.49,230,11,55.37,22.36,112.63,42,167.85,11,30.8,25.11,62.44,38.79,93.05,33.56,75.08,68.27,152.72,64.18,232.4-4.08,80.29-35.61,179.4-238.57,305.78-42.45,26.43-92.41,54.87-148.12,57.71-59,3-113.88-19-154.67-62-54.34-57.25-97.2-139.21-134.91-258-4.06-12.8-8.28-26.55-13.27-43.28-25.91-86.79-63.79-161.07-112.45-220.74-57.5-70.46-134.2-126-228-165-77-32-160.87-47.54-242-62.56-112.72-20.87-229.28-42.45-326.34-108.83-26.14-18-48.24-40.43-67.21-64.51a436.27,436.27,0,0,1-49.88-80.26c-12.39-25.66-22.51-52.39-28.82-79.81-1.93-8.42-3.34-16.47-2.85-25.07a132.17,132.17,0,0,1,4-25.41c4.57-17.71,12.71-34.55,23.15-50.08,17.74-26.4,40.88-48.1,61.18-65.85,10.48-9.1,21.13-17.84,31.08-25.92,129-104.89,249.35-134.88,367.93-91.7Zm84.24,66.76c5.56,4.84,11.35,9.6,17.23,14.32-6.9-5.11-13.54-10.27-20-15.47.9.37,1.82.73,2.72,1.11Zm2.8,9.29c6.79,4.87,13.64,9.55,20.52,14.12-1.28-.44-2.54-.91-3.84-1.34-134.6-44.37-251.6,11.65-327.9,57.65l-1.68,1c-9.07,5.47-18.45,11.12-27.39,16.85-20.57,13.17-42,28.06-59.53,47.65-9.64,10.77-17.71,22.73-23.12,35.71a100.4,100.4,0,0,0-5.82,19c-1.62,8.19-2.44,15-.3,23.1q3.32,12.6,7.75,24.94a365.09,365.09,0,0,0,22.1,49.54,399.24,399.24,0,0,0,36.24,55.94c19.9,25.7,42.44,48.07,65.79,64.39,84.57,58.81,186,81.06,284.15,102.57,64.1,14.05,130.38,28.58,192,53.16,91.54,36.49,161,81.76,212.23,138.4,45.85,50.68,81.85,116.3,107,195.13l4.32,13.54q4,12.56,8.12,25.41c20.39,63.14,56.81,155.47,114.48,236.72a179.31,179.31,0,0,0,149.79,75.49c55.8-1.09,104.12-34.14,144-66.33,87.14-70.29,172.4-148.72,174.62-265.91,1.34-67-26.76-132.19-53.94-195.27-10.55-24.5-21.46-49.83-30.23-74.46-15.6-43.86-25.81-89.19-35.68-133-14.6-64.81-29.7-131.84-62.45-193.79-8.06-15.2-17-31.66-28.18-49-54.09-84.54-155.7-102.43-226.32-92.08-78.81,11.56-176.89,26-279.53,12-47.85-6.41-102.6-24.79-154.17-51.77-4.82-2.52-9.65-5.16-14.48-7.85,50.08,25.9,101.87,43.51,147.37,49.91,107.32,15.34,209-3.14,295.83-21.66,76.35-16.28,175.4,1.7,233.12,76.24q5.36,6.93,10.24,14.52c11.88,18.52,21.46,36.1,30,52.35,34.51,65.51,49.81,136.6,64.6,205.34,10.28,47.78,20.9,97.18,37.91,145,9.51,26.76,21.52,54.25,33.13,80.83,29.24,66.91,59.46,136.1,57.21,207-3.91,126.32-98.65,206.63-195.35,278.05-43,31.79-90.32,61.44-144.25,63.05-56.29,1.7-109.54-23.27-149.93-70.3-60.78-70.76-96.62-167.23-121-243.36-4.17-13-8.18-25.86-12.09-38.37l-.63-2c-25.48-81.69-62.19-150.39-109.15-204.23C768-850.1,694.61-899.8,603-936.86,536-964,463.65-978.95,393.69-993.41c-102.68-21.22-208.86-43.15-297.2-104.21C70-1116,47.79-1139.21,28.89-1164a413.68,413.68,0,0,1-48.3-81.25c-5-11-9.41-22.2-13.25-33.56-2.87-8.52-6.31-17-7.93-25.78-1.49-8.1-.57-16.42.94-24.48,3.25-17.33,10.94-33.77,21.44-48.54q2.88-4.05,6-8c17.57-21.81,40.05-39.24,59.72-53.42,9.81-7.07,19.93-13.91,29.71-20.53,122.64-83,229.65-105.19,336.44-69.86C420.77-1523.82,428-1518.32,435.53-1512.91Zm657.24,181.47c69.78-10.23,170.22,7.45,223.6,90.92,11.08,17.31,20.05,33.71,28.09,48.87,32.61,61.69,47.68,128.57,62.24,193.25,9.89,43.9,20.12,89.3,35.76,133.28,8.79,24.7,19.71,50.06,30.28,74.58,27.08,62.88,55.09,127.89,53.77,194.38-2.21,116.23-87,194.24-173.75,264.18-39.54,31.9-87.37,64.65-142.31,65.72a176.34,176.34,0,0,1-147.52-74.4c-57.5-81-93.82-173.1-114.16-236.1q-4.14-12.82-8.13-25.39l-4.32-13.55c-25.27-79.13-61.45-145.08-107.51-196-51.53-56.94-121.27-102.43-213.2-139.08C553.73-975.41,487.33-990,423.12-1004c-97.85-21.45-199-43.64-283.16-102.14-27.28-19.06-50-43.33-69.19-69a386.48,386.48,0,0,1-50.57-90.3q-4.11-10.5-7.48-21.23c-2.33-7.46-5.5-14.5-5-22.38a94.52,94.52,0,0,1,4.38-23.26c5.08-15.82,14.26-30.33,25.69-43.11,17.3-19.36,38.58-34.13,59-47.2,8.92-5.71,18.28-11.36,27.35-16.82l1.67-1c75.82-45.71,192-101.39,325.53-57.39,4.73,1.56,9.33,3.28,13.84,5.08q12.24,7.88,24.56,15.12,7.26,4.58,14.56,8.91c5.69,3.67,11.42,7.2,17.17,10.66q7.78,5.06,15.67,9.84c2.62,1.72,5.23,3.45,7.89,5.15-17.88-10.48-37-19.82-58.42-26.6-54.55-17.26-109.52-20-168.06-8.41-45.69,9.06-91.94,26.39-145.56,54.56l-3.44,1.81c-8.25,4.33-16.78,8.81-24.94,13.34-23.53,13.1-42.54,25.14-58.84,41.43a118.13,118.13,0,0,0-22.06,29.76c-7.6,14.93-12.15,29.7-7.21,45.85a328.69,328.69,0,0,0,20,49.7,391.07,391.07,0,0,0,41.26,65.8c19.48,25.16,41.49,47.12,64.1,63,80.49,56.37,177.14,78.93,270.61,100.74,58.19,13.58,118.37,27.62,174.7,49.69,92,36,157.89,77.28,207.31,129.8,45,47.75,80.41,110.63,105.35,186.85q4.23,12.93,8.54,26.26L952-608.3c19.77,60.82,54.46,150,107.51,229.34,33.64,50.46,88.84,80.26,147.43,79.71,57.38-.52,106.13-37.18,142.19-69.07,80.27-71,152.37-143.64,152.94-252,.38-62.61-25.51-123.7-50.54-182.78-9.49-22.4-19.31-45.56-27.33-68.09-14.23-40-24-81.28-33.45-121.18-14.4-60.81-29.29-123.69-60.18-181.88-7.53-14.12-15.91-29.42-26.21-45.55-48.08-75.4-138.13-97.11-206.37-92.27q-12.42.88-25.13,1.84c-72.2,5.35-154,11.42-239.15.45-46.19-5.83-98.52-22.23-147.36-46.17-15.15-7.43-30.72-15.84-46.28-25l-.46-.28c5.92,3.34,11.84,6.6,17.74,9.69,51.85,27.13,106.94,45.61,155.11,52.06C915.46-1305.44,1013.77-1319.86,1092.77-1331.44Zm5.39,21.74c67.43-4.78,156.39,16.61,203.87,91.08,10.26,16.07,18.62,31.32,26.12,45.4,30.75,57.93,45.61,120.67,60,181.34,9.46,40,19.25,81.3,33.53,121.41,8,22.6,17.86,45.79,27.37,68.22,24.94,58.87,50.74,119.75,50.36,181.92-.56,107.44-72.29,179.71-152.14,250.32-35.72,31.57-84,67.88-140.38,68.38-57.64.54-111.88-28.84-145.14-78.55-52.9-79.14-87.52-168.1-107.23-228.79l-3.64-11.23q-4.32-13.31-8.54-26.26C917.27-723,881.64-786.17,836.46-834.18,786.76-887,720.58-928.43,628.18-964.62c-56.52-22.14-116.79-36.21-175.08-49.81-93.22-21.75-189.6-44.25-269.66-100.31-27.68-19.49-50.53-44.47-69.79-70.78-20.87-28.5-38-59.5-49.76-92-3-8.21-7.89-17.63-7.15-26.41a85.4,85.4,0,0,1,5.82-24.62c5.3-13.24,13.78-25.35,24.11-35.87l1-1c16.1-16.07,34.94-28,58.28-41,8.13-4.53,16.64-9,24.88-13.32l3.44-1.81c153.87-80.83,251.43-64.94,311.42-46,41.15,13,74,35.68,105.69,57.61,15.15,10.46,30.81,21.28,47.19,30.92,15.62,9.2,31.25,17.64,46.46,25.1,49.11,24.07,101.76,40.56,148.26,46.43,85.39,11,167.38,4.93,239.73-.43Q1085.73-1308.8,1098.16-1309.7ZM430.28-1519.88c-3.15-2.32-6.35-4.64-9.43-7l1.57.57C425-1524.16,427.61-1522,430.28-1519.88Zm-15.21-11.54q-17.25-13.49-32.49-27.25c2.18.77,4.3,1.59,6.43,2.41q7,7,14.32,13.61,6.57,5.93,13.56,11.82C416.28-1531,415.67-1531.22,415.07-1531.42Zm-6.81-2.21c-105.6-32.69-211.59-9.61-332.59,72.25-9.79,6.63-19.92,13.48-29.76,20.58-19.82,14.27-42.46,31.83-60.22,53.87-9.84,12.2-17.91,25.6-23.11,40-2.89,8-5.39,16.14-6.41,24.5-1,8,.34,15.38,2.35,23.19a333.23,333.23,0,0,0,15.32,44.93,414.55,414.55,0,0,0,53.59,92.61c.33.44.67.87,1,1.31,19.35,25,41.75,47.54,66.44,64.68,88.8,61.37,195.26,83.37,298.22,104.65,69.84,14.43,142,29.35,208.86,56.4,91.18,36.9,164.23,86.36,217.13,147,46.77,53.57,83.31,122,108.69,203.4l.63,2c3.91,12.51,7.92,25.36,12.1,38.38,24.49,76.33,60.41,173,121.49,244.16,40.92,47.65,94.94,72.94,152.11,71.22,54.71-1.64,102.42-31.54,145.83-63.6,97.17-71.77,192.38-152.49,196.32-279.81,2.27-71.34-28.06-140.77-57.39-207.9-11.6-26.55-23.59-54-33.09-80.68-16.94-47.65-27.56-97-37.82-144.69-14.83-68.89-30.15-140.13-64.81-205.91-8.61-16.29-18.22-33.92-30.15-52.51-56.24-87.81-164.22-109.39-246.25-91.89-86.61,18.47-188,36.89-294.81,21.62-47.85-6.73-102.72-25.95-155.2-54.23,46.08,22.89,92.58,38.45,133.9,44.53,111.71,16.64,220.05-6.52,311.29-31.36,96.49-26.27,197.84,5,253.07,76.36q5.32,6.87,10.06,14.25c12.73,19.79,22.91,38.53,32,55.82,36.44,69.39,52,144.74,67,217.62,10.64,51.59,21.65,104.93,40,156.46,10.25,28.79,23.33,58.37,36,87,31.39,71,63.85,144.39,60.68,219.65-2.52,60.72-25.4,115.77-70,168.31-42.15,49.68-98,90.36-147,123.6-44.39,30.09-92.82,58.22-146.18,60.38-57.56,2.34-111.65-21.15-152.3-66.13-66.49-73.55-104.88-178.3-128-250.68-4.74-14.86-9.2-29.39-13-41.83-25.69-84.25-63-155.73-110.8-212.49C758.14-832.35,683.09-884.95,590.46-923c-72.06-29.59-150.22-44.86-225.81-59.62-107.66-21-219-42.77-311.63-106.46-26.3-18.15-48.51-40.87-67.48-65.24a420,420,0,0,1-49-80.45c-11.79-25.28-22-52.06-26.68-79.23-2.27-13.08,2-28.72,6.33-41.16a152.89,152.89,0,0,1,21.67-40.44c17.75-24.23,40.52-43.75,60.45-59.64,9.59-7.65,19.43-15,30.38-23.22,123.33-92,237.21-119,347.94-82.21C386.5-1551.58,397.08-1542.56,408.26-1533.63Zm76.53,46.7c-7.18-5.45-14.19-11-20.87-16.55-3.1-2.6-6.11-5.32-9.14-8,2.17,1.18,4.3,2.39,6.42,3.62C468.86-1500.7,476.72-1493.69,484.79-1486.93Zm-22.67-14.81c1.59,1.33,3.26,2.63,4.87,3.94q-13.51-10.15-26.07-20.75c1.68.78,3.32,1.61,5,2.43C451.2-1511.21,456.59-1506.38,462.12-1501.74Zm-27.9-22.48c-8.16-7.15-16-14.72-23.74-22.44q4.5,2.29,8.86,4.73c6.77,6.84,13.7,13.65,20.75,20.35C438.15-1522.48,436.2-1523.37,434.22-1524.22Zm-6.67-2.72c-1.22-.48-2.46-.94-3.7-1.4-6.43-5.3-12.71-10.63-18.65-16-3.34-3-6.58-6.2-9.83-9.34,2.76,1.17,5.49,2.38,8.17,3.63Q415.21-1538.14,427.55-1526.94ZM385-1560.33c-.51-.19-1-.4-1.53-.58-1.79-.63-3.58-1.19-5.36-1.79-.75-.69-1.55-1.37-2.29-2.06-7.54-7.06-14.79-14.53-21.92-22.11q5,2,9.79,4.1C370.65-1575.19,377.74-1567.68,385-1560.33Zm-34.92-30.6q-9.79-10.59-19.24-21.38c3.76,1.76,7.46,3.59,11.07,5.51l5.55,6.16c4,4.46,8.08,9,12.16,13.45Q355-1589.14,350.09-1590.93Zm-5.17-1.82c-118.26-41.34-238.19-10.74-366.5,93.58-9.49,7.71-20.61,16.83-31.15,26-20.42,17.86-43.71,39.7-61.6,66.33a168.26,168.26,0,0,0-22.29,46.57c-4.94,17-7.07,33.27-3.42,50.61a333,333,0,0,0,12.6,43.76A442.67,442.67,0,0,0-81-1173.14q9,13.79,19.18,26.93C-41.47-1119.94-18-1096.4,8-1078.6c97.54,66.71,214.4,88.34,327.41,109.26,81,15,164.72,30.5,241.42,62.39,93.38,38.83,169.74,94.08,227,164.22,48.53,59.5,86.21,133.45,112,220,5,16.74,9.22,30.5,13.28,43.31,37.82,119.12,80.86,201.36,135.45,258.89,41.33,43.55,97,65.85,156.82,62.8,56.39-2.87,106.72-31.51,149.47-58.12,114.43-71.25,232.39-163.52,239.71-307.63,4.11-80.2-30.71-158.08-64.37-233.4-13.67-30.56-27.8-62.17-38.73-92.89-19.59-55.07-30.94-112.24-41.92-167.54-15.32-77.19-31.17-157-69.71-230.59-9.65-18.4-20.46-38.33-34.08-59.48-56.84-88.37-177.21-126.87-286.09-91.5C987-1370.14,870-1339.48,750.2-1358c-42.77-6.53-91.13-23.51-139.17-48.57,41.09,19.56,82,33.19,117.84,38.86,127.67,20.36,249.93-16.43,342.18-50.75a273,273,0,0,1,167.84-6.76c50.57,14.21,94,43,124.14,81.91q5.68,7.35,10.72,15.15c14.41,22.33,25.79,43.37,36,62.77,40.35,77.25,56.44,161.24,72,242.47,11.32,59.12,23,120.25,44,179.15,11.67,32.79,26.88,66.49,41.58,99.08C1603-665.48,1640-583.59,1635-499.46c-9.24,156.63-143.9,253.1-260.18,319.65-43.39,24.83-94.34,51.61-150.06,55-60.47,3.72-116.24-16.8-157-57.79-57.22-57.48-103.62-144.28-141.85-265.33-4.27-13.55-8.58-27.76-13.55-44.73-26.11-89.3-64.51-166.36-114.08-229-59.53-75.21-137.89-133.62-232.91-173.6-81.82-34.42-171.36-50.17-258-65.4-117.88-20.73-239.78-42.17-341.29-111.3-25.81-17.63-47.81-39.55-66.79-63.1A438.81,438.81,0,0,1-151-1213.8a416.39,416.39,0,0,1-30.86-80.32c-2.42-9.21-4.42-18.5-5.91-27.87-1.35-8.44-.57-17.24.51-25.68a162.84,162.84,0,0,1,16.52-52.43c2.67-5.3,5.6-10.49,8.74-15.57,18-29,42.52-53.76,61.9-72.07,9-8.47,19.11-17.57,31.78-28.63,58-51,115.94-86.58,172.24-105.67,70.55-23.93,141.14-23.07,209.84,2.54,4,1.46,7.81,3.06,11.61,4.71C331.76-1607.42,338.25-1600,344.92-1592.75Zm154.91,111.19q5.37,4.65,10.83,9.34l-.21-.12q-7.5-6.2-14.78-12.6c.58.43,1.17.85,1.74,1.28Zm-61-47.77c5,4.86,10.08,9.76,15.2,14.65q-3.21-1.71-6.49-3.35c-6.68-6.18-13.2-12.53-19.62-18.92q4.41,2.67,8.69,5.47Zm-17.73-14.44c-3.63-3.66-7.24-7.33-10.81-11l-2.72-2.77q3.78,2.67,7.47,5.42,6.58,6.13,13,12.37Q424.59-1541.79,421.06-1543.77Zm-12.79-9.4,5.27,5.35q-4.11-2.12-8.34-4.12c-6-6.14-11.92-12.34-17.75-18.54,3.24,1.91,6.45,3.87,9.59,5.9Q402.7-1558.88,408.27-1553.17Zm-26.51-23.35-1.64-1.74q-5.53-5.9-11.13-11.82,4.06,2.83,8,5.8,6.36,6,12.54,12.19Q385.7-1574.37,381.76-1576.52Zm-6.87-3.63q-4.68-2.36-9.54-4.54c-5.33-5.82-10.62-11.66-15.83-17.45l-.77-.85q5.37,3.09,10.54,6.39Q367.18-1588.4,374.89-1580.15Zm-31.21-28.46q-6.14-6.8-12.36-13.57,4.51,3.14,8.9,6.41,6.15,5.94,12.11,12Q348.07-1606.25,343.68-1608.61Zm-6.34-3.24q-5-2.52-10.29-4.83c-2.72-3.12-5.45-6.24-8.14-9.34q-3.8-4.38-7.61-8.77,5.59,3.18,11,6.6Q329.92-1620.07,337.34-1611.85Zm-30.72-28.3q-6.08-6.91-12.26-13.79,4.65,3.21,9.15,6.59,6.21,6,12.19,12.27Q311.23-1637.7,306.62-1640.15Zm-6.2-3.21c-6.45-3.18-13.12-6.1-20.06-8.73-130.65-49.76-264.95-11-399.17,115.12-13,12.11-23.3,22.08-32.53,31.39-29.34,29.71-48.77,54-63,78.78-18.64,32.46-27,64.1-25.66,96.83,7.71,59,40.07,136.09,87.68,197.58,21.59,27.88,46.33,52.57,73.32,70.92,106.52,72.24,234.11,93.62,357.51,114.29,91.84,15.39,186.81,31.29,273.09,68,95.3,40.53,174.55,101,235.6,179.89l1.19,1.54c50.3,65.42,89.11,145,115.35,236.49,4.81,16.78,9.34,31.9,13.84,46.23,39.45,125.49,88.3,215,149.39,273.63,41.23,39.59,98.6,58.9,161.54,54.37,61.35-4.41,121-35.79,153.11-52.66,116-61,271.58-162.16,283.09-335.43,6-89.12-33.38-175.53-71.41-259.1-15.71-34.51-32-70.21-44.3-104.89-22.2-62.38-34.23-127.29-45.87-190.07-15.86-85.6-32.27-174.11-74.75-255.61-10.71-20.51-22.73-42.76-38-66.43-32.28-50-83.87-86.51-145.27-102.86a283.59,283.59,0,0,0-180.62,11.75c-95.49,39.59-222.24,82.23-356,60.27-37.9-6.17-81.3-21.35-124.87-43.2,36.28,16.55,71.76,28.17,103.52,33.49,68.3,11.5,181.28,16.73,373-70.15,123.22-55.83,273.58-16.27,342.31,90,16.09,24.88,28.68,48.21,39.88,69.72,44.31,85.18,61,177.91,77.11,267.58,12,66.57,24.34,135.41,47.89,201.59,13.07,36.74,30.39,74.5,47.14,111,40.1,87.45,81.58,177.88,74.75,270.94-5.57,76.29-38.93,146.4-99.15,208.37-49.78,51.22-116.59,96.69-204.24,139C1337.85-80.55,1286-58.5,1231.89-54c-64.79,5.34-120.74-11.76-161.77-49.45-64.3-59.08-115.25-150.66-155.71-280-4.68-14.95-9.29-30.53-14.1-47.63-26.52-94.26-66-176.86-117.39-245.51-63.33-84.66-145-148.88-242.75-190.85-91.3-39.21-192-55.3-289.38-70.87C122.43-958.87-10.3-980.09-120.86-1054.81-211.31-1116-276-1245.44-286.33-1335.11c-1.73-33.78,6.25-66.7,24.39-100.64,14.18-26.55,33.71-52.61,63.33-84.51,9.44-10.14,20-21,33.15-34,136.68-136.26,274.76-178.66,410.4-126a233.89,233.89,0,0,1,40.82,20.7Q293.2-1651.55,300.42-1643.36Zm138,110.15-.12-.08-.22-.21C438.2-1533.41,438.31-1533.31,438.42-1533.21ZM400-1565.6c-.4-.27-.82-.52-1.23-.78l-2.07-2.09C397.83-1567.52,398.92-1566.56,400-1565.6ZM363.13-1597l-2.05-1.35-2.74-2.85C360-1599.83,361.54-1598.42,363.13-1597Zm-36.27-31.18c-.92-.6-1.88-1.18-2.81-1.77-1.17-1.25-2.34-2.5-3.53-3.74C322.65-1631.89,324.78-1630.06,326.86-1628.2Zm-36.12-31.09c-1.06-.7-2.11-1.4-3.18-2.08-1.26-1.36-2.55-2.72-3.82-4.07Q287.28-1662.41,290.74-1659.29ZM1396.83-27.61c-43.11,17.49-100,38.33-157.79,44.3-69.64,7.19-125.67-6.64-166.51-41.12C1002.31-83.73,945.23-182.85,903-319.06c-5-16.18-9.82-32.71-14.66-50.53-26.93-99.15-67.53-187.3-120.68-262-67-94.18-152-164.21-252.6-208.1C414.36-883.78,302.57-900.14,194.46-916,55.52-936.3-88.13-957.32-207.81-1037.69c-44.36-29.8-87.1-79-120.3-138.66-31.25-56.09-51.73-117.56-56.18-168.65-2.51-37,4.83-73.27,22.42-110.81,14.09-30.07,34.67-60.88,64.76-97,9.74-11.66,20.71-24.19,34.53-39.42C-199.36-1662-134-1711.29-68.3-1738.82c81.19-34,163.43-34.79,244.46-2.29,30.64,12.28,56.16,30.3,79,51a238.1,238.1,0,0,0-43.53-22.73c-142.93-56.44-286.81-10-427.63,138.09-13.47,14.13-24.25,25.82-33.91,36.8-29.79,33.94-50.25,62.93-64.38,91.23-18,36.13-25.77,71.07-23.63,106.87,6.62,66,41.15,152.27,93.84,220.32,22.89,29.57,49.23,55.7,78.18,75.22C-50.39-966.53,88-945.41,221.83-925c102.7,15.68,208.9,31.9,304.62,73.53C625-808.87,708-742,773.07-652.81c52.09,71.45,92,156.58,118.67,253,4.81,17.39,9.52,33.47,14.4,49.14,41.78,134.08,95.2,228.41,163.34,288.36,41.28,36.33,98.77,52.22,166.26,46,55.91-5.18,110.61-26.78,156.75-47.21,91.7-40.61,165.53-88.72,219.45-143,64.6-65,100.61-139.13,107-220.23,7.77-98.09-36.09-193.07-78.5-284.92-17.74-38.43-36.09-78.17-49.83-116.77-24.78-69.63-37.45-142.2-49.72-212.38-16.44-94.08-33.44-191.37-79.9-280.84-11.76-22.62-25-47.16-42-73.39-36.07-55.72-94-95.62-163.21-112.31-68.29-16.47-140.19-8.81-202.45,21.58-95.05,46.39-238.55,105.12-386.69,79.6-35.17-6-75-19.94-115.6-39.92,33.07,14.69,65.14,25.1,94.22,30.21,66.13,11.63,134.54,7.91,209.13-11.36,59.34-15.33,123-40.91,194.73-78.19,133.55-69.44,304.89-29.14,381.93,89.68,17.78,27.44,31.56,53.07,43.81,76.67,48.3,93.17,65.57,194.69,82.28,292.87,12.58,74,25.6,150.44,51.72,223.85,14.47,40.65,33.89,82.45,52.67,122.87,44.48,95.74,90.48,194.74,81.84,296.76-7.18,84.89-45.38,162.08-113.54,229.42C1571.56-115.69,1493.15-66.66,1396.83-27.61Z"/></g></g></g><rect class="cls-7" x="13.81" y="47.11" width="122.38" height="87.65"/><rect class="cls-8" x="13.81" y="47.11" width="122.38" height="13.3" transform="translate(150 107.52) rotate(180)"/><rect class="cls-9" x="13.81" y="47.11" width="14.61" height="87.65"/><rect class="cls-9" x="121.58" y="47.11" width="14.61" height="87.65" transform="translate(257.77 181.87) rotate(180)"/><polygon class="cls-10" points="74.73 2.55 2.87 35.14 2.87 47.11 147.13 47.11 147.13 35.89 74.73 2.55"/><rect class="cls-11" x="2.87" y="134.76" width="144.26" height="12.7"/><circle class="cls-12" cx="75" cy="26.56" r="11.55"/><circle class="cls-13" cx="75" cy="26.56" r="11.55"/><path class="cls-14" d="M54.2,60.41h49.23a0,0,0,0,1,0,0v61.42a0,0,0,0,1,0,0H54.2a7.63,7.63,0,0,1-7.63-7.63V68A7.63,7.63,0,0,1,54.2,60.41Z"/><path class="cls-15" d="M54.2,106.59h49.19a0,0,0,0,1,0,0V121.8a0,0,0,0,1,0,0H54.2a7.63,7.63,0,0,1-7.63-7.63v0A7.63,7.63,0,0,1,54.2,106.59Z"/><path class="cls-16" d="M54.2,106.59h49.19a0,0,0,0,1,0,0V121.8a0,0,0,0,1,0,0H54.2a7.63,7.63,0,0,1-7.63-7.63v0A7.63,7.63,0,0,1,54.2,106.59Z"/><rect class="cls-17" x="59.74" y="71.76" width="30.52" height="13.04"/><rect class="cls-16" x="59.74" y="71.76" width="30.52" height="13.04"/><line class="cls-16" x1="59.74" y1="95.77" x2="90.26" y2="95.77"/><path class="cls-16" d="M54.2,60.41h49.23a0,0,0,0,1,0,0v61.42a0,0,0,0,1,0,0H54.2a7.63,7.63,0,0,1-7.63-7.63V68A7.63,7.63,0,0,1,54.2,60.41Z"/></g></g></svg>