<svg xmlns="http://www.w3.org/2000/svg" xmlns:xlink="http://www.w3.org/1999/xlink" viewBox="0 0 150 150"><defs><style>.cls-1,.cls-11,.cls-19{fill:none;}.cls-2{isolation:isolate;}.cls-3{clip-path:url(#clip-path);}.cls-4{clip-path:url(#clip-path-2);}.cls-5{mix-blend-mode:screen;opacity:0.3;}.cls-6{fill:url(#linear-gradient);}.cls-7{fill:#fff;}.cls-8{fill:#d2dcfd;}.cls-9{fill:#86a3fd;}.cls-11,.cls-19,.cls-9{stroke:#052a75;stroke-linejoin:round;stroke-width:5px;}.cls-19,.cls-9{stroke-linecap:round;}.cls-10{fill:#fd7da0;}.cls-12{fill:#fdbeb9;}.cls-13{fill:#db4b86;}.cls-14{fill:#67ccd1;}.cls-15{fill:#27a2cc;}.cls-16{fill:#fde0be;}.cls-17{fill:#fdcb50;}.cls-18{fill:#fd8f01;}</style><clipPath id="clip-path"><rect class="cls-1" x="-455.29" y="-1423.82" width="1925.28" height="1111.6"/></clipPath><clipPath id="clip-path-2"><rect class="cls-1" x="-868.43" y="-1484.72" width="2372.06" height="1367.42"/></clipPath><linearGradient id="linear-gradient" x1="-1447.2" y1="-4111.27" x2="-276.05" y2="-5240.19" gradientTransform="translate(-2309.04 2549.17) rotate(55.11)" gradientUnits="userSpaceOnUse"><stop offset="0" stop-color="#c544ad"/><stop offset="1" stop-color="#275eff"/></linearGradient></defs><g class="cls-2"><g id="圖層_1" data-name="圖層 1"><g class="cls-3"><g class="cls-4"><g class="cls-5"><path class="cls-6" d="M1825.16-171.72c68.57-67.74,107-145.4,114.22-230.84,8.69-102.59-37.43-201.85-82-297.85-18.75-40.38-38.15-82.13-52.58-122.68-26.06-73.23-39.06-149.62-51.63-223.49-16.73-98.34-34-200-82.5-293.51-12.27-23.66-26.08-49.35-43.91-76.86-77.71-120-250.73-160.64-385.54-90.55-98.7,51.32-247.75,116.41-402,89.27C806-1424,769-1436.79,731-1455l-5.53-4.47c-10.76-8.72-21.64-17.53-33-26-13.59-11.77-27.42-23.62-42.15-34.68-12.84-11.63-26-23.12-40.21-33.71a464.33,464.33,0,0,0-38-32.19,419.15,419.15,0,0,0-36.81-31.51,386.51,386.51,0,0,0-36.66-31.54,366.18,366.18,0,0,0-36.14-31.21c-26.08-25.61-55.36-48.33-92-63-81.76-32.8-164.74-32-246.65,2.3C57.83-1713.29-7.85-1663.74-71.32-1593.7c-13.84,15.27-24.84,27.82-34.59,39.51-30.23,36.23-50.91,67.2-65.09,97.45-17.75,37.89-25.15,74.49-22.62,111.9,6.05,69.44,41.62,160.28,96.84,231.59,23.57,30.45,50.74,57.34,80.7,77.47C104.11-955.07,248.1-934,387.34-913.62c107.92,15.8,219.52,32.13,319.83,76C807.34-793.87,892-724.16,958.71-630.32c53,74.49,93.47,162.4,120.33,261.3,4.85,17.85,9.65,34.39,14.68,50.6C1136.13-181.79,1193.42-82.3,1264-22.7c41.43,35,98.16,49,168.61,41.75,58.15-6,115.29-26.93,158.58-44.49C1687.87-64.63,1766.57-113.85,1825.16-171.72ZM1248-1483.69c61.67-30.09,132.88-37.68,200.51-21.37,68.49,16.52,125.9,56,161.61,111.21,16.93,26.14,30.11,50.63,41.84,73.19,46.31,89.18,63.28,186.29,79.69,280.21,12.28,70.27,25,142.94,49.81,212.74,13.77,38.69,32.14,78.48,49.91,117,42.29,91.6,86,186.31,78.3,283.84-6.37,80.57-42.16,154.19-106.36,218.81-53.69,54.05-127.26,102-218.65,142.45-45.93,20.34-100.36,41.83-155.86,47-66.68,6.19-123.44-9.47-164.15-45.29-67.78-59.68-121-153.64-162.63-287.31-4.88-15.64-9.58-31.69-14.38-49.07-26.73-96.72-66.78-182.09-119-253.76-65.3-89.58-148.66-156.72-247.68-199.47-96.06-41.78-202.44-58-305.32-73.73C282.05-947.7,144-968.78,29-1046.25c-95-64-161.53-199.69-171-293.81-2.12-35.37,5.54-70,23.4-105.72,14-28.12,34.39-57,64.05-90.73,9.63-11,20.39-22.63,33.84-36.73,140-147.19,282.82-193.44,424.56-137.46a243.64,243.64,0,0,1,56.86,32.16q6.17,6.07,12.14,12.31a233.08,233.08,0,0,0-33.56-16.26C302.5-1735.58,163.41-1693,25.89-1555.88c-13.2,13.1-23.76,23.93-33.22,34.1-29.76,32-49.4,58.27-63.69,85-18.33,34.29-26.39,67.58-24.63,101.84,7.17,62.52,40.63,144.19,90.78,209,22.24,28.71,47.77,54.11,75.73,73C181.93-977.85,315-956.58,443.63-936c97.21,15.54,197.73,31.61,288.71,70.68,97.3,41.78,178.6,105.79,241.7,190,51.2,68.42,90.56,150.77,117,244.76,4.82,17.12,9.44,32.72,14.12,47.69,40.6,129.72,91.75,221.63,156.37,281,41.61,38.23,98.28,55.57,163.89,50.16,54.58-4.49,106.72-26.65,154.94-49.93,87.94-42.46,155-88.11,205-139.55,60.61-62.37,94.19-133,99.8-209.77,6.86-93.61-34.73-184.3-74.94-272-16.74-36.48-34-74.2-47.07-110.84-23.49-66-35.85-134.76-47.81-201.24-16.15-89.84-32.85-182.73-77.32-268.22-11.23-21.56-23.85-45-40-69.9-69.46-107.43-221.31-147.32-345.76-90.92-91.5,41.45-229.54,93.8-371.36,69.93-37-6.18-79-20.93-121.5-42.18,35.2,16,69.41,27.2,100.13,32.47,63.61,10.95,129.51,7.85,201.45-9.49C1117.93-1427.06,1179.09-1450.07,1248-1483.69Zm-599.44-34.67q6.42,5.83,12.75,11.66c-1.69-1-3.38-2-5.09-3q-7-6.58-13.86-13.19C644.41-1521.41,646.48-1519.9,648.53-1518.36Zm610.37,78.17a280.7,280.7,0,0,1,178.76-11.63c60.75,16.17,111.78,52.32,143.74,101.77,15.24,23.6,27.23,45.79,37.91,66.25,42.33,81.2,58.71,169.55,74.55,255,11.65,62.85,23.7,127.85,46,190.4,12.37,34.77,28.63,70.51,44.36,105.07,37.92,83.31,77.13,169.46,71.22,258.05-8.7,131-98.24,237-281.79,333.52-31.88,16.77-91.24,48-152,52.34C1359.5-84.95,1302.89-104,1262.22-143c-60.78-58.36-109.44-147.54-148.78-272.66-4.5-14.31-9-29.41-13.83-46.17-26.31-91.78-65.25-171.6-115.73-237.25l-1.19-1.55c-61.32-79.19-140.93-140-236.64-180.67-86.58-36.82-181.73-52.76-273.73-68.18-123.1-20.62-250.39-41.94-356.41-113.85C30-1121.8-32.91-1244.94-44-1330.16c-1.36-32.21,6.94-63.46,25.36-95.55,14.12-24.59,33.43-48.74,62.62-78.29,9.2-9.28,19.52-19.23,32.46-31.33,133.38-125.35,266.7-163.9,396.24-114.57a225.42,225.42,0,0,1,25.53,11.59q6,6.87,12,13.75l4.91,5.64c-2.32-.95-4.64-1.9-7-2.78-69.33-25.85-140.58-26.71-211.78-2.57-56.64,19.21-114.9,54.94-173.15,106.19-12.69,11.09-22.8,20.2-31.84,28.69C71.78-1471,47.09-1446.08,29-1416.83c-18.69,30.16-27.66,61-26.67,91.81,8.12,54.89,38.07,126.81,83.41,185.37,21,27.05,45.19,51.26,72.07,69.61,102,69.46,224.21,91,342.38,111.74C586.61-943.09,676-927.37,757.5-893.07c94.61,39.8,172.62,98,231.88,172.82C1038.67-657.89,1077-581,1103.07-492c5,17,9.28,31.2,13.56,44.77C1155-325.86,1201.56-238.77,1259.05-181c41.34,41.54,97.88,62.35,159.17,58.57,56.34-3.45,107.64-30.4,151.3-55.38,116.81-66.86,252.09-163.82,261.4-321.53,5-84.66-32-166.8-67.89-246.24-14.69-32.55-29.88-66.2-41.51-98.9-20.9-58.74-32.6-119.79-43.91-178.84-15.59-81.38-31.72-165.54-72.22-243.07-10.18-19.45-21.59-40.54-36.05-62.95-30.36-47.09-78.79-82-136.36-98.14a275.93,275.93,0,0,0-169.63,6.83c-91.92,34.2-213.71,70.86-340.71,50.62-39.52-6.25-85.16-22.23-130.45-45.2,38.19,17.69,75.75,30,109.11,35.48C1035.8-1357.67,1163.06-1400.45,1258.9-1440.19ZM573.35-1574.67q9.3,9.93,18.92,19.89-4.14-1.8-8.41-3.47c-7.11-7.06-14-14.35-20.8-21.69Q568.29-1577.4,573.35-1574.67Zm98.27,77.46q9.57,8.74,19.47,17.37l-1.2-.65c-1.09-.86-2.23-1.7-3.31-2.56-7.22-5.79-14.21-11.92-21.1-18.15Q668.58-1499.23,671.62-1497.21ZM541.79-1589c7.76,8.37,15.7,16.57,24,24.38-110.07-34.56-223.19-6.91-345.39,84.31-11,8.19-20.84,15.6-30.46,23.28-20.06,16-43,35.64-60.9,60.1-9.87,13.46-17.84,28.09-22.82,43.6-5.37,16.71-7.51,32.35-3.51,49.45a338.41,338.41,0,0,0,14.13,45,424,424,0,0,0,50.52,93.3q4.32,6,8.86,11.9c19.9,25.7,43,48.82,68.56,66.47,93.12,64,204.73,85.81,312.66,106.89,75.46,14.74,153.48,30,225.28,59.46C874.9-883,949.6-830.6,1004.72-765.21c47.68,56.53,84.76,127.72,110.36,211.67,3.81,12.46,8.26,27,13,41.86,23.16,72.59,61.65,177.61,128.47,251.53,41.19,45.58,96,69.37,154.46,67,54.08-2.18,102.92-30.54,147.65-60.85,110-74.55,212.54-161.73,218-293.72,3.19-75.77-29.37-149.41-60.87-220.62-12.63-28.57-25.7-58.11-35.91-86.82-18.28-51.38-29.27-104.65-39.9-156.17-15.06-73-30.64-148.53-67.23-218.2-9.14-17.34-19.35-36.13-32.12-56-52.81-82.24-162.31-120-266.18-91.69-91,24.76-198.93,47.84-310.09,31.28-44.63-6.56-95.37-24.26-145.08-50.39,42.89,20.72,85.53,34.85,123.76,40.69,120.38,18.59,237.85-12.18,326.74-41.06,101.49-33,213-1.07,272.61,75.89,3.63,4.68,7.07,9.55,10.3,14.56,13.57,21.07,24.35,41,34,59.3,38.39,73.3,54.2,153,69.5,230,11,55.37,22.36,112.63,42,167.85,11,30.8,25.1,62.44,38.78,93.05,33.57,75.08,68.27,152.72,64.18,232.4-4.07,80.29-35.6,179.4-238.57,305.78-42.45,26.43-92.41,54.87-148.11,57.71-59,3-113.89-19-154.67-62-54.35-57.25-97.2-139.21-134.92-258-4.05-12.8-8.27-26.55-13.27-43.28-25.91-86.79-63.78-161.07-112.44-220.74-57.5-70.46-134.21-126-228-165-77-32-160.87-47.54-242-62.56-112.72-20.87-229.29-42.45-326.34-108.83-26.15-18-48.25-40.43-67.22-64.51a435.68,435.68,0,0,1-49.87-80.26c-12.4-25.66-22.52-52.39-28.82-79.81-1.94-8.42-3.34-16.47-2.85-25.07a131.4,131.4,0,0,1,4-25.41c4.57-17.71,12.71-34.55,23.14-50.08,17.74-26.4,40.88-48.1,61.18-65.85,10.48-9.1,21.13-17.84,31.08-25.92,129-104.89,249.35-134.88,367.94-91.7ZM626-1522.2c5.57,4.84,11.35,9.6,17.23,14.32-6.89-5.11-13.53-10.27-20-15.47.91.37,1.83.73,2.73,1.11Zm2.8,9.29c6.79,4.87,13.65,9.55,20.53,14.12-1.29-.44-2.54-.91-3.84-1.34-134.6-44.37-251.61,11.65-327.91,57.65l-1.67,1c-9.07,5.47-18.46,11.12-27.4,16.85-20.57,13.17-42,28.06-59.53,47.65-9.63,10.77-17.7,22.73-23.11,35.71a99.71,99.71,0,0,0-5.83,19c-1.62,8.19-2.44,15-.29,23.1,2.21,8.4,4.81,16.72,7.74,24.94a366.39,366.39,0,0,0,22.11,49.54,398.34,398.34,0,0,0,36.24,55.94c19.9,25.7,42.43,48.07,65.78,64.39,84.58,58.81,186,81.06,284.15,102.57,64.1,14.05,130.38,28.58,192.05,53.16,91.54,36.49,161,81.76,212.22,138.4,45.85,50.68,81.85,116.3,107,195.13l4.32,13.54q4,12.56,8.13,25.41c20.39,63.14,56.8,155.47,114.47,236.72a179.33,179.33,0,0,0,149.8,75.49c55.8-1.09,104.11-34.14,144-66.33,87.14-70.29,172.4-148.72,174.63-265.91,1.33-67-26.77-132.19-53.94-195.27-10.56-24.5-21.47-49.83-30.23-74.46-15.61-43.86-25.82-89.19-35.69-133-14.6-64.81-29.69-131.84-62.44-193.79-8.07-15.2-17.06-31.66-28.19-49-54.09-84.54-155.7-102.43-226.31-92.08-78.81,11.56-176.9,26-279.54,12-47.85-6.41-102.6-24.79-154.17-51.77-4.81-2.52-9.64-5.16-14.47-7.85,50.07,25.9,101.86,43.51,147.36,49.91,107.32,15.34,209-3.14,295.83-21.66,76.35-16.28,175.4,1.7,233.12,76.24q5.37,6.93,10.24,14.52c11.88,18.52,21.47,36.1,30.06,52.35,34.51,65.51,49.8,136.6,64.59,205.34,10.28,47.78,20.91,97.18,37.91,145,9.52,26.76,21.52,54.25,33.14,80.83,29.23,66.91,59.46,136.1,57.21,207-3.91,126.32-98.66,206.63-195.36,278.05-43,31.79-90.31,61.44-144.25,63.05-56.29,1.7-109.54-23.27-149.92-70.3-60.79-70.76-96.62-167.23-121.06-243.36-4.16-13-8.18-25.86-12.09-38.37l-.63-2c-25.47-81.69-62.19-150.39-109.15-204.23C961.3-850.1,887.91-899.8,796.35-936.86,729.3-964,657-978.95,587-993.41c-102.67-21.22-208.86-43.15-297.19-104.21-26.51-18.4-48.71-41.59-67.61-66.35a414.66,414.66,0,0,1-48.3-81.25c-4.95-11-9.41-22.2-13.24-33.56-2.88-8.52-6.31-17-7.94-25.78-1.49-8.1-.56-16.42.95-24.48,3.24-17.33,10.94-33.77,21.43-48.54q2.9-4.05,6-8c17.57-21.81,40.06-39.24,59.73-53.42,9.81-7.07,19.92-13.91,29.7-20.53,122.64-83,229.65-105.19,336.44-69.86C614.08-1523.82,621.3-1518.32,628.83-1512.91Zm657.24,181.47c69.79-10.23,170.22,7.45,223.61,90.92,11.08,17.31,20,33.71,28.08,48.87,32.62,61.69,47.68,128.57,62.25,193.25,9.88,43.9,20.11,89.3,35.76,133.28,8.78,24.7,19.71,50.06,30.27,74.58,27.09,62.88,55.09,127.89,53.77,194.38-2.21,116.23-87,194.24-173.75,264.18-39.54,31.9-87.37,64.65-142.31,65.72a176.31,176.31,0,0,1-147.51-74.4c-57.51-81-93.82-173.1-114.17-236.1q-4.14-12.82-8.12-25.39l-4.32-13.55c-25.28-79.13-61.45-145.08-107.52-196-51.53-56.94-121.26-102.43-213.2-139.08C747-975.41,680.64-990,616.43-1004c-97.85-21.45-199-43.64-283.16-102.14-27.28-19.06-50-43.33-69.19-69a386.12,386.12,0,0,1-50.57-90.3q-4.11-10.5-7.49-21.23c-2.33-7.46-5.5-14.5-5-22.38a95,95,0,0,1,4.38-23.26c5.08-15.82,14.26-30.33,25.69-43.11,17.31-19.36,38.58-34.13,59-47.2,8.91-5.71,18.28-11.36,27.34-16.82l1.67-1c75.82-45.71,192.06-101.39,325.53-57.39,4.74,1.56,9.33,3.28,13.84,5.08q12.24,7.88,24.56,15.12,7.26,4.58,14.56,8.91c5.7,3.67,11.43,7.2,17.17,10.66q7.78,5.06,15.67,9.84c2.62,1.72,5.24,3.45,7.9,5.15-17.89-10.48-37-19.82-58.42-26.6-54.55-17.26-109.52-20-168.06-8.41-45.7,9.06-91.95,26.39-145.56,54.56l-3.45,1.81c-8.25,4.33-16.77,8.81-24.94,13.34-23.52,13.1-42.53,25.14-58.84,41.43A118.37,118.37,0,0,0,257-1337.25c-7.6,14.93-12.14,29.7-7.21,45.85a328.69,328.69,0,0,0,20,49.7A392.35,392.35,0,0,0,311-1175.9c19.48,25.16,41.5,47.12,64.1,63,80.49,56.37,177.15,78.93,270.62,100.74,58.19,13.58,118.36,27.62,174.69,49.69,92,36,157.89,77.28,207.31,129.8,45,47.75,80.41,110.63,105.35,186.85q4.25,12.93,8.54,26.26l3.63,11.23c19.77,60.82,54.47,150,107.51,229.34,33.65,50.46,88.85,80.26,147.44,79.71,57.37-.52,106.12-37.18,142.19-69.07,80.27-71,152.37-143.64,152.93-252,.39-62.61-25.5-123.7-50.54-182.78-9.49-22.4-19.3-45.56-27.32-68.09-14.23-40-24-81.28-33.46-121.18-14.4-60.81-29.29-123.69-60.18-181.88-7.52-14.12-15.91-29.42-26.21-45.55-48.07-75.4-138.13-97.11-206.36-92.27q-12.43.88-25.14,1.84c-72.2,5.35-154,11.42-239.14.45-46.19-5.83-98.53-22.23-147.37-46.17-15.14-7.43-30.71-15.84-46.28-25l-.45-.28c5.91,3.34,11.83,6.6,17.74,9.69,51.85,27.13,106.93,45.61,155.1,52.06C1108.77-1305.44,1207.08-1319.86,1286.07-1331.44Zm5.4,21.74c67.42-4.78,156.38,16.61,203.86,91.08,10.26,16.07,18.62,31.32,26.12,45.4,30.76,57.93,45.62,120.67,60,181.34,9.47,40,19.26,81.3,33.53,121.41,8,22.6,17.86,45.79,27.37,68.22,25,58.87,50.75,119.75,50.36,181.92-.56,107.44-72.28,179.71-152.14,250.32-35.71,31.57-83.94,67.88-140.37,68.38-57.64.54-111.88-28.84-145.15-78.55-52.9-79.14-87.51-168.1-107.23-228.79l-3.64-11.23q-4.31-13.31-8.53-26.26c-25.05-76.54-60.69-139.71-105.87-187.72C980.06-887,913.88-928.43,821.49-964.62c-56.52-22.14-116.8-36.21-175.09-49.81-93.21-21.75-189.6-44.25-269.66-100.31-27.67-19.49-50.52-44.47-69.79-70.78-20.87-28.5-37.95-59.5-49.76-92-3-8.21-7.88-17.63-7.15-26.41a85.09,85.09,0,0,1,5.83-24.62c5.29-13.24,13.77-25.35,24.1-35.87l1-1c16.1-16.07,34.94-28,58.27-41,8.13-4.53,16.65-9,24.89-13.32l3.43-1.81c153.87-80.83,251.43-64.94,311.42-46,41.15,13,74,35.68,105.69,57.61,15.15,10.46,30.81,21.28,47.19,30.92,15.62,9.2,31.26,17.64,46.46,25.1,49.11,24.07,101.77,40.56,148.26,46.43,85.39,11,167.39,4.93,239.73-.43Q1279-1308.8,1291.47-1309.7ZM623.59-1519.88c-3.16-2.32-6.36-4.64-9.43-7l1.57.57C618.33-1524.16,620.91-1522,623.59-1519.88Zm-15.22-11.54q-17.25-13.49-32.48-27.25c2.18.77,4.3,1.59,6.43,2.41q7,7,14.31,13.61,6.57,5.93,13.56,11.82C609.58-1531,609-1531.22,608.37-1531.42Zm-6.8-2.21C496-1566.32,390-1543.24,269-1461.38c-9.8,6.63-19.93,13.48-29.77,20.58-19.81,14.27-42.46,31.83-60.22,53.87-9.83,12.2-17.91,25.6-23.11,40-2.88,8-5.39,16.14-6.4,24.5-1,8,.33,15.38,2.35,23.19a334.58,334.58,0,0,0,15.31,44.93,414.94,414.94,0,0,0,53.59,92.61l1,1.31c19.35,25,41.75,47.54,66.45,64.68,88.79,61.37,195.26,83.37,298.22,104.65,69.83,14.43,142.05,29.35,208.85,56.4,91.18,36.9,164.24,86.36,217.14,147,46.77,53.57,83.3,122,108.68,203.4l.63,2c3.91,12.51,7.93,25.36,12.1,38.38,24.5,76.33,60.41,173,121.5,244.16,40.92,47.65,94.93,72.94,152.11,71.22,54.71-1.64,102.42-31.54,145.82-63.6,97.18-71.77,192.38-152.49,196.32-279.81,2.27-71.34-28.06-140.77-57.39-207.9-11.59-26.55-23.59-54-33.08-80.68-16.95-47.65-27.56-97-37.83-144.69-14.82-68.89-30.15-140.13-64.8-205.91-8.61-16.29-18.22-33.92-30.15-52.51-56.24-87.81-164.23-109.39-246.26-91.89-86.61,18.47-188,36.89-294.81,21.62-47.84-6.73-102.72-25.95-155.19-54.23,46.08,22.89,92.58,38.45,133.9,44.53,111.7,16.64,220-6.52,311.29-31.36,96.49-26.27,197.84,5,253.06,76.36q5.33,6.87,10.07,14.25c12.72,19.79,22.9,38.53,32,55.82,36.44,69.39,52,144.74,67,217.62,10.65,51.59,21.65,104.93,40,156.46,10.24,28.79,23.32,58.37,36,87,31.39,71,63.86,144.39,60.69,219.65-2.52,60.72-25.41,115.77-70,168.31-42.14,49.68-97.95,90.36-147,123.6-44.39,30.09-92.82,58.22-146.17,60.38-57.56,2.34-111.66-21.15-152.31-66.13-66.48-73.55-104.88-178.3-128-250.68-4.74-14.86-9.2-29.39-13-41.83-25.69-84.25-63-155.73-110.79-212.49C951.44-832.35,876.39-884.95,783.77-923,711.7-952.57,633.54-967.84,558-982.6c-107.65-21-219-42.77-311.62-106.46-26.31-18.15-48.52-40.87-67.48-65.24a420,420,0,0,1-49-80.45c-11.78-25.28-22-52.06-26.67-79.23-2.27-13.08,2-28.72,6.33-41.16a152.86,152.86,0,0,1,21.66-40.44c17.76-24.23,40.53-43.75,60.45-59.64,9.59-7.65,19.44-15,30.39-23.22,123.32-92,237.2-119,347.93-82.21C579.81-1551.58,590.38-1542.56,601.57-1533.63Zm76.52,46.7c-7.17-5.45-14.19-11-20.87-16.55-3.1-2.6-6.11-5.32-9.13-8,2.16,1.18,4.29,2.39,6.42,3.62C662.16-1500.7,670-1493.69,678.09-1486.93Zm-22.66-14.81c1.58,1.33,3.25,2.63,4.86,3.94q-13.51-10.15-26.06-20.75c1.67.78,3.31,1.61,4.95,2.43C644.5-1511.21,649.89-1506.38,655.43-1501.74Zm-27.91-22.48c-8.16-7.15-16-14.72-23.73-22.44,3,1.53,6,3.11,8.85,4.73,6.78,6.84,13.7,13.65,20.76,20.35C631.45-1522.48,629.51-1523.37,627.52-1524.22Zm-6.66-2.72c-1.23-.48-2.47-.94-3.71-1.4-6.43-5.3-12.71-10.63-18.65-16-3.34-3-6.58-6.2-9.83-9.34,2.76,1.17,5.49,2.38,8.17,3.63Q608.51-1538.14,620.86-1526.94Zm-42.54-33.39c-.52-.19-1-.4-1.54-.58-1.78-.63-3.57-1.19-5.36-1.79-.74-.69-1.55-1.37-2.28-2.06-7.54-7.06-14.79-14.53-21.92-22.11,3.31,1.31,6.58,2.67,9.78,4.1C564-1575.19,571.05-1567.68,578.32-1560.33Zm-34.92-30.6q-9.81-10.59-19.24-21.38c3.76,1.76,7.46,3.59,11.06,5.51l5.55,6.16c4,4.46,8.08,9,12.17,13.45Q548.24-1589.14,543.4-1590.93Zm-5.18-1.82C420-1634.09,300-1603.49,171.72-1499.17c-9.48,7.71-20.6,16.83-31.14,26-20.43,17.86-43.71,39.7-61.6,66.33a168.29,168.29,0,0,0-22.3,46.57c-4.93,17-7.07,33.27-3.42,50.61a334.57,334.57,0,0,0,12.6,43.76,442.71,442.71,0,0,0,46.46,92.78q9,13.79,19.17,26.93c20.34,26.27,43.83,49.81,69.77,67.61,97.53,66.71,214.39,88.34,327.41,109.26,81,15,164.71,30.5,241.42,62.39,93.37,38.83,169.73,94.08,227,164.22,48.53,59.5,86.2,133.45,112,220,5,16.74,9.22,30.5,13.29,43.31,37.81,119.12,80.85,201.36,135.44,258.89,41.34,43.55,97,65.85,156.83,62.8,56.39-2.87,106.72-31.51,149.46-58.12,114.43-71.25,232.39-163.52,239.71-307.63,4.12-80.2-30.7-158.08-64.37-233.4-13.66-30.56-27.79-62.17-38.72-92.89-19.6-55.07-31-112.24-41.93-167.54-15.32-77.19-31.16-157-69.7-230.59-9.66-18.4-20.47-38.33-34.09-59.48-56.83-88.37-177.2-126.87-286.08-91.5-88.59,28.79-205.64,59.45-325.4,41-42.78-6.53-91.14-23.51-139.17-48.57,41.09,19.56,82,33.19,117.84,38.86,127.67,20.36,249.93-16.43,342.18-50.75a273,273,0,0,1,167.84-6.76c50.57,14.21,94,43,124.14,81.91q5.67,7.35,10.72,15.15c14.4,22.33,25.79,43.37,35.94,62.77,40.36,77.25,56.45,161.24,72,242.47,11.33,59.12,23,120.25,44,179.15,11.66,32.79,26.87,66.49,41.58,99.08,35.74,79.19,72.7,161.08,67.69,245.21-9.24,156.63-143.9,253.1-260.18,319.65-43.38,24.83-94.33,51.61-150,55-60.47,3.72-116.24-16.8-157-57.79-57.21-57.48-103.61-144.28-141.85-265.33-4.27-13.55-8.58-27.76-13.55-44.73-26.11-89.3-64.51-166.36-114.08-229C932-796.84,853.65-855.25,758.62-895.23c-81.81-34.42-171.35-50.17-257.94-65.4-117.89-20.73-239.78-42.17-341.29-111.3-25.82-17.63-47.82-39.55-66.8-63.1a439.37,439.37,0,0,1-50.32-78.77,416.35,416.35,0,0,1-30.85-80.32A284.2,284.2,0,0,1,5.5-1322c-1.34-8.44-.56-17.24.52-25.68a162.82,162.82,0,0,1,16.51-52.43q4-8,8.75-15.57c18-29,42.52-53.76,61.89-72.07,9-8.47,19.11-17.57,31.78-28.63,58-51,115.94-86.58,172.24-105.67,70.55-23.93,141.15-23.07,209.84,2.54,4,1.46,7.82,3.06,11.61,4.71C525.07-1607.42,531.56-1600,538.22-1592.75Zm154.92,111.19q5.37,4.65,10.83,9.34l-.21-.12q-7.51-6.2-14.79-12.6l1.75,1.28Zm-61-47.77c5,4.86,10.08,9.76,15.2,14.65q-3.21-1.71-6.48-3.35c-6.68-6.18-13.21-12.53-19.62-18.92q4.39,2.67,8.68,5.47Zm-17.73-14.44c-3.62-3.66-7.24-7.33-10.8-11l-2.73-2.77q3.78,2.67,7.47,5.42,6.6,6.13,13.05,12.37Q617.9-1541.79,614.36-1543.77Zm-12.78-9.4,5.27,5.35q-4.11-2.12-8.35-4.12-9-9.21-17.75-18.54,4.88,2.87,9.59,5.9Q596-1558.88,601.58-1553.17Zm-26.52-23.35-1.64-1.74q-5.53-5.9-11.13-11.82,4.07,2.83,8,5.8,6.35,6,12.53,12.19Q579-1574.37,575.06-1576.52Zm-6.86-3.63c-3.12-1.57-6.31-3.08-9.54-4.54-5.34-5.82-10.63-11.66-15.84-17.45l-.77-.85q5.37,3.09,10.54,6.39Q560.48-1588.4,568.2-1580.15ZM537-1608.61q-6.13-6.8-12.37-13.57,4.51,3.14,8.9,6.41,6.15,5.94,12.11,12C542.8-1605.42,539.91-1607,537-1608.61Zm-6.34-3.24q-5.05-2.52-10.3-4.83c-2.71-3.12-5.45-6.24-8.13-9.34q-3.8-4.38-7.62-8.77c3.74,2.12,7.39,4.32,11,6.6Q523.21-1620.07,530.65-1611.85Zm-30.73-28.3q-6.07-6.91-12.26-13.79,4.65,3.21,9.16,6.59,6.19,6,12.18,12.27Q504.53-1637.7,499.92-1640.15Zm-6.2-3.21c-6.44-3.18-13.11-6.1-20.06-8.73-130.65-49.76-265-11-399.16,115.12-13,12.11-23.3,22.08-32.53,31.39-29.35,29.71-48.77,54-63,78.78-18.64,32.46-27,64.1-25.65,96.83,7.71,59,40.06,136.09,87.67,197.58,21.59,27.88,46.33,52.57,73.32,70.92,106.52,72.24,234.12,93.62,357.51,114.29,91.85,15.39,186.82,31.29,273.09,68,95.3,40.53,174.55,101,235.61,179.89l1.18,1.54c50.31,65.42,89.11,145,115.35,236.49,4.82,16.78,9.34,31.9,13.84,46.23,39.45,125.49,88.31,215,149.4,273.63,41.23,39.59,98.59,58.9,161.53,54.37,61.35-4.41,121-35.79,153.11-52.66,116-61,271.59-162.16,283.1-335.43,5.94-89.12-33.39-175.53-71.42-259.1-15.71-34.51-31.95-70.21-44.29-104.89-22.2-62.38-34.23-127.29-45.87-190.07-15.87-85.6-32.28-174.11-74.76-255.61-10.71-20.51-22.73-42.76-38-66.43-32.28-50-83.87-86.51-145.27-102.86a283.56,283.56,0,0,0-180.61,11.75c-95.49,39.59-222.25,82.23-356,60.27-37.91-6.17-81.31-21.35-124.87-43.2,36.28,16.55,71.75,28.17,103.51,33.49,68.3,11.5,181.28,16.73,373-70.15,123.22-55.83,273.58-16.27,342.3,90,16.09,24.88,28.68,48.21,39.89,69.72,44.31,85.18,61,177.91,77.1,267.58,12,66.57,24.35,135.41,47.9,201.59,13.07,36.74,30.39,74.5,47.13,111,40.11,87.45,81.58,177.88,74.76,270.94-5.57,76.29-38.94,146.4-99.16,208.37-49.78,51.22-116.58,96.69-204.24,139-48,23.16-99.82,45.21-153.92,49.66-64.8,5.34-120.74-11.76-161.78-49.45-64.3-59.08-115.24-150.66-155.71-280-4.67-14.95-9.28-30.53-14.1-47.63-26.52-94.26-66-176.86-117.38-245.51-63.33-84.66-145-148.88-242.76-190.85-91.3-39.21-192-55.3-289.38-70.87C315.73-958.87,183-980.09,72.44-1054.81-18-1116-82.73-1245.44-93-1335.11c-1.73-33.78,6.24-66.7,24.38-100.64,14.19-26.55,33.72-52.61,63.33-84.51,9.44-10.14,20-21,33.16-34,136.68-136.26,274.76-178.66,410.39-126a233.54,233.54,0,0,1,40.82,20.7Q486.52-1651.55,493.72-1643.36Zm138,110.15-.12-.08-.22-.21Zm-38.4-32.39c-.41-.27-.83-.52-1.24-.78-.69-.7-1.37-1.4-2.07-2.09C591.14-1567.52,592.23-1566.56,593.33-1565.6ZM556.44-1597c-.69-.44-1.37-.9-2.06-1.35l-2.74-2.85C553.26-1599.83,554.85-1598.42,556.44-1597Zm-36.27-31.18c-.93-.6-1.88-1.18-2.81-1.77-1.18-1.25-2.35-2.5-3.53-3.74C516-1631.89,518.08-1630.06,520.17-1628.2Zm-36.12-31.09c-1.06-.7-2.11-1.4-3.19-2.08-1.26-1.36-2.54-2.72-3.82-4.07Q480.6-1662.41,484.05-1659.29ZM1590.14-27.61c-43.12,17.49-100,38.33-157.79,44.3-69.65,7.19-125.68-6.64-166.52-41.12-70.22-59.3-127.29-158.42-169.57-294.63-5-16.18-9.82-32.71-14.65-50.53-26.93-99.15-67.54-187.3-120.68-262-67-94.18-152-164.21-252.61-208.1C607.66-883.78,495.87-900.14,387.76-916,248.83-936.3,105.17-957.32-14.5-1037.69c-44.37-29.8-87.11-79-120.31-138.66-31.25-56.09-51.72-117.56-56.17-168.65-2.51-37,4.82-73.27,22.42-110.81,14.08-30.07,34.66-60.88,64.76-97,9.73-11.66,20.7-24.19,34.53-39.42C-6.06-1662,59.3-1711.29,125-1738.82c81.19-34,163.44-34.79,244.46-2.29,30.65,12.28,56.17,30.3,79,51a238.52,238.52,0,0,0-43.54-22.73c-142.93-56.44-286.8-10-427.62,138.09C-36.19-1560.66-47-1549-56.63-1538c-29.78,33.94-50.24,62.93-64.38,91.23-18,36.13-25.77,71.07-23.62,106.87,6.61,66,41.14,152.27,93.83,220.32,22.9,29.57,49.24,55.7,78.19,75.22C142.91-966.53,281.3-945.41,415.13-925c102.71,15.68,208.9,31.9,304.62,73.53C818.34-808.87,901.33-742,966.38-652.81c52.08,71.45,92,156.58,118.67,253,4.81,17.39,9.51,33.47,14.4,49.14,41.78,134.08,95.19,228.41,163.33,288.36,41.28,36.33,98.77,52.22,166.26,46C1485-21.5,1539.66-43.1,1585.79-63.53c91.7-40.61,165.54-88.72,219.46-143,64.6-65,100.6-139.13,107-220.23,7.77-98.09-36.08-193.07-78.49-284.92-17.75-38.43-36.1-78.17-49.84-116.77-24.77-69.63-37.45-142.2-49.71-212.38-16.45-94.08-33.45-191.37-79.9-280.84-11.76-22.62-25-47.16-42-73.39-36.06-55.72-94-95.62-163.21-112.31-68.29-16.47-140.18-8.81-202.44,21.58-95.06,46.39-238.55,105.12-386.7,79.6-35.17-6-75-19.94-115.59-39.92,33.06,14.69,65.13,25.1,94.22,30.21,66.12,11.63,134.53,7.91,209.12-11.36,59.34-15.33,123-40.91,194.73-78.19,133.55-69.44,304.89-29.14,381.94,89.68,17.77,27.44,31.56,53.07,43.8,76.67,48.3,93.17,65.58,194.69,82.29,292.87,12.58,74,25.59,150.44,51.72,223.85,14.46,40.65,33.88,82.45,52.66,122.87,44.48,95.74,90.48,194.74,81.84,296.76-7.18,84.89-45.38,162.08-113.54,229.42C1764.87-115.69,1686.45-66.66,1590.14-27.61Z"/></g></g></g><polygon class="cls-7" points="15.56 147.46 15.56 66.63 75 23.61 134.44 66.63 134.44 147.46 15.56 147.46"/><path class="cls-8" d="M15.56,66.63v23L48.85,65.68a44.84,44.84,0,0,1,52.3,0l33.29,23.91v-23L75,23.61Z"/><polygon class="cls-9" points="130.92 40.52 130.92 7.14 111.22 7.14 111.22 26.38 130.92 40.52"/><path class="cls-10" d="M136.45,67.72,75,23.61,13.55,67.72l-11-15.33,67-48.07a9.43,9.43,0,0,1,11,0l67,48.07Z"/><path class="cls-10" d="M136.45,67.72,75,23.61,13.55,67.72l-11-15.33,67-48.07a9.43,9.43,0,0,1,11,0l67,48.07Z"/><path class="cls-10" d="M73.38,87.09,58.6,72.31a11.62,11.62,0,0,1,0-16.44h0a11.62,11.62,0,0,1,16.44,0,11.61,11.61,0,0,1,16.43,0h0a11.62,11.62,0,0,1,0,16.44L76.7,87.09A2.34,2.34,0,0,1,73.38,87.09Z"/><path class="cls-11" d="M73.38,87.09,58.6,72.31a11.62,11.62,0,0,1,0-16.44h0a11.62,11.62,0,0,1,16.44,0,11.61,11.61,0,0,1,16.43,0h0a11.62,11.62,0,0,1,0,16.44L76.7,87.09A2.34,2.34,0,0,1,73.38,87.09Z"/><path class="cls-10" d="M89.53,147.46v-9.1A22.31,22.31,0,0,1,112,116.2h0a22.3,22.3,0,0,1,22.45,22.16v9.1Z"/><ellipse class="cls-12" cx="111.99" cy="104.15" rx="12.2" ry="12.04"/><path class="cls-13" d="M89.53,138.36a22.16,22.16,0,0,1,12.7-20A36.57,36.57,0,0,1,112,143.31v4.15H89.53v-9.1Z"/><path class="cls-14" d="M60.47,147.46v-9.1A22.31,22.31,0,0,0,38,116.2h0a22.3,22.3,0,0,0-22.45,22.16v9.1Z"/><path class="cls-15" d="M60.47,138.36a22.16,22.16,0,0,0-12.7-20A36.57,36.57,0,0,0,38,143.31v4.15H60.47v-9.1Z"/><ellipse class="cls-16" cx="38.01" cy="104.15" rx="12.2" ry="12.04"/><path class="cls-17" d="M93.11,147.46v-4.15A18,18,0,0,0,75,125.44h0a18,18,0,0,0-18.11,17.87v4.15Z"/><path class="cls-18" d="M75.21,131.83a17.79,17.79,0,0,1,1.16-6.34c-.45,0-.91,0-1.37,0h0a18,18,0,0,0-18.11,17.87v4.15H84.4A17.89,17.89,0,0,1,75.21,131.83Z"/><ellipse class="cls-12" cx="75" cy="114.79" rx="10.79" ry="10.65"/><path class="cls-11" d="M134.44,147.46v-9.1A22.3,22.3,0,0,0,112,116.2h0a22.4,22.4,0,0,0-21.9,17.24"/><ellipse class="cls-11" cx="111.99" cy="104.15" rx="12.2" ry="12.04"/><path class="cls-11" d="M59.91,133.44A22.4,22.4,0,0,0,38,116.2h0a22.3,22.3,0,0,0-22.45,22.16v9.1"/><ellipse class="cls-11" cx="38.01" cy="104.15" rx="12.2" ry="12.04"/><path class="cls-11" d="M93.11,147.46v-4.15A18,18,0,0,0,75,125.44h0a18,18,0,0,0-18.11,17.87v4.15Z"/><ellipse class="cls-11" cx="75" cy="114.79" rx="10.79" ry="10.65"/><line class="cls-11" x1="134.44" y1="147.46" x2="134.44" y2="66.63"/><line class="cls-11" x1="15.56" y1="66.63" x2="15.56" y2="147.46"/><line class="cls-19" x1="2.54" y1="147.46" x2="147.46" y2="147.46"/><line class="cls-11" x1="111.22" y1="7.14" x2="111.22" y2="26.38"/><line class="cls-11" x1="130.92" y1="40.52" x2="130.92" y2="7.14"/><line class="cls-19" x1="107.62" y1="7.14" x2="134.39" y2="7.14"/><path class="cls-11" d="M136.45,67.72,75,23.61,13.55,67.72l-11-15.33,67-48.07a9.43,9.43,0,0,1,11,0l67,48.07Z"/></g></g></svg>