<svg id="圖層_1" data-name="圖層 1" xmlns="http://www.w3.org/2000/svg" viewBox="0 0 150 150"><defs><style>.cls-1{fill:#27a2cc;}.cls-2{fill:#c7cee6;}.cls-10,.cls-2,.cls-3,.cls-4,.cls-5,.cls-6,.cls-9{stroke:#052a75;stroke-linejoin:round;}.cls-10,.cls-2,.cls-3,.cls-4,.cls-6,.cls-9{stroke-linecap:round;}.cls-10,.cls-2,.cls-3,.cls-4,.cls-5,.cls-9{stroke-width:5px;}.cls-3,.cls-5{fill:none;}.cls-4{fill:#586ba6;}.cls-10,.cls-6{fill:#86a3fd;}.cls-6{stroke-width:5.46px;}.cls-7{fill:#fd8f01;}.cls-8{fill:#fdcb50;}.cls-9{fill:#fff;}</style></defs><path class="cls-1" d="M135.68,44.2H145a2.45,2.45,0,0,1,2.45,2.45V69.71A2.45,2.45,0,0,1,145,72.16h-9.29a0,0,0,0,1,0,0v-28A0,0,0,0,1,135.68,44.2Z"/><path class="cls-2" d="M2.58,44.2h9.29a2.45,2.45,0,0,1,2.45,2.45V69.71a2.45,2.45,0,0,1-2.45,2.45H2.58a0,0,0,0,1,0,0v-28A0,0,0,0,1,2.58,44.2Z" transform="translate(16.9 116.36) rotate(180)"/><line class="cls-2" x1="21.37" y1="67.92" x2="14.32" y2="67.92"/><line class="cls-2" x1="21.37" y1="48.81" x2="14.32" y2="48.81"/><path class="cls-3" d="M2.58,44.2h9.29a2.45,2.45,0,0,1,2.45,2.45V69.71a2.45,2.45,0,0,1-2.45,2.45H2.58a0,0,0,0,1,0,0v-28A0,0,0,0,1,2.58,44.2Z" transform="translate(16.9 116.36) rotate(180)"/><rect class="cls-4" x="21.44" y="4.01" width="107.18" height="26.17"/><rect class="cls-5" x="21.44" y="4.01" width="107.18" height="26.17"/><rect class="cls-6" x="21.44" y="80.79" width="107.18" height="38.46"/><polygon class="cls-7" points="102.81 13.35 47.24 13.35 49.11 20.27 100.94 20.27 102.81 13.35"/><polygon class="cls-8" points="102.81 13.35 47.24 13.35 49.11 20.27 100.94 20.27 102.81 13.35"/><polygon class="cls-3" points="102.81 13.35 47.24 13.35 49.11 20.27 100.94 20.27 102.81 13.35"/><rect class="cls-3" x="13.89" y="119.25" width="122.27" height="10.03"/><rect class="cls-2" x="13.89" y="119.25" width="122.27" height="10.03"/><path class="cls-2" d="M135.68,44.2H145a2.45,2.45,0,0,1,2.45,2.45V69.71A2.45,2.45,0,0,1,145,72.16h-9.29a0,0,0,0,1,0,0v-28A0,0,0,0,1,135.68,44.2Z"/><line class="cls-2" x1="128.63" y1="48.44" x2="135.68" y2="48.44"/><line class="cls-2" x1="128.63" y1="67.55" x2="135.68" y2="67.55"/><path class="cls-3" d="M2.58,44.2h9.29a2.45,2.45,0,0,1,2.45,2.45V69.71a2.45,2.45,0,0,1-2.45,2.45H2.58a0,0,0,0,1,0,0v-28A0,0,0,0,1,2.58,44.2Z" transform="translate(16.9 116.36) rotate(180)"/><path class="cls-3" d="M135.68,44.2H145a2.45,2.45,0,0,1,2.45,2.45V69.71A2.45,2.45,0,0,1,145,72.16h-9.29a0,0,0,0,1,0,0v-28A0,0,0,0,1,135.68,44.2Z"/><path class="cls-4" d="M21.37,129.28H39.29a0,0,0,0,1,0,0v13.36A3.35,3.35,0,0,1,35.94,146H24.72a3.35,3.35,0,0,1-3.35-3.35V129.28A0,0,0,0,1,21.37,129.28Z"/><path class="cls-4" d="M110.61,129.28h17.91a0,0,0,0,1,0,0v13.36a3.35,3.35,0,0,1-3.35,3.35H114a3.35,3.35,0,0,1-3.35-3.35V129.28A0,0,0,0,1,110.61,129.28Z"/><rect class="cls-9" x="21.44" y="30.18" width="53.58" height="50.61"/><rect class="cls-9" x="75.02" y="30.18" width="53.6" height="50.61"/><line class="cls-10" x1="57.14" y1="61.35" x2="38.1" y2="80.79"/><line class="cls-10" x1="106.16" y1="61.35" x2="87.12" y2="80.79"/><path class="cls-8" d="M21.44,93.75H53.61a5.11,5.11,0,0,1,5.11,5.11v0A5.11,5.11,0,0,1,53.61,104H21.44a0,0,0,0,1,0,0V93.75a0,0,0,0,1,0,0Z"/><rect class="cls-7" x="21.44" y="93.75" width="13.63" height="10.21"/><rect class="cls-3" x="21.44" y="93.75" width="13.63" height="10.21"/><path class="cls-3" d="M21.44,93.75H53.61a5.11,5.11,0,0,1,5.11,5.11v0A5.11,5.11,0,0,1,53.61,104H21.44a0,0,0,0,1,0,0V93.75a0,0,0,0,1,0,0Z"/><path class="cls-8" d="M91.34,93.75h32.17a5.11,5.11,0,0,1,5.11,5.11v0a5.11,5.11,0,0,1-5.11,5.11H91.34a0,0,0,0,1,0,0V93.75A0,0,0,0,1,91.34,93.75Z" transform="translate(219.95 197.71) rotate(-180)"/><path class="cls-3" d="M91.34,93.75h32.17a5.11,5.11,0,0,1,5.11,5.11v0a5.11,5.11,0,0,1-5.11,5.11H91.34a0,0,0,0,1,0,0V93.75A0,0,0,0,1,91.34,93.75Z" transform="translate(219.95 197.71) rotate(-180)"/><rect class="cls-7" x="114.88" y="93.75" width="13.63" height="10.21"/><rect class="cls-3" x="114.88" y="93.75" width="13.63" height="10.21"/></svg>