<svg id="圖層_1" data-name="圖層 1" xmlns="http://www.w3.org/2000/svg" viewBox="0 0 150 150"><defs><style>.cls-1{fill:#fdcb50;}.cls-2,.cls-6{fill:none;}.cls-2,.cls-3,.cls-5,.cls-6,.cls-7,.cls-8{stroke:#052a75;stroke-linecap:round;stroke-linejoin:round;}.cls-2,.cls-3,.cls-5,.cls-8{stroke-width:4.99px;}.cls-3{fill:#fff;}.cls-4{fill:#fd8f01;}.cls-5{fill:#fd7da0;}.cls-6{stroke-width:3.65px;}.cls-7{fill:#052a75;stroke-width:3.08px;}.cls-8{fill:#86a3fd;}</style></defs><path class="cls-1" d="M75.06,41.94A34.94,34.94,0,0,0,41.7,87.2c2.3,7.41,11.43,19,15.78,24.3A10.17,10.17,0,0,1,59.82,118v1.65H90.13v-1.86a10.14,10.14,0,0,1,2.18-6.29c2.11-2.69,5.23-6.64,6.75-8.51a63,63,0,0,0,6.58-9.24,34.94,34.94,0,0,0-30.58-51.8Z"/><path class="cls-2" d="M75.06,41.94A34.94,34.94,0,0,0,41.7,87.2c2.3,7.41,11.43,19,15.78,24.3A10.17,10.17,0,0,1,59.82,118v1.65H90.13v-1.86a10.14,10.14,0,0,1,2.18-6.29c2.11-2.69,5.23-6.64,6.75-8.51a63,63,0,0,0,6.58-9.24,34.94,34.94,0,0,0-30.58-51.8Z"/><path class="cls-1" d="M10.75,2.76S9,10,2.55,12c0,0,6.29,1.41,8.08,9.15,0,0,2.15-7.58,8.07-9.15A13.13,13.13,0,0,1,10.75,2.76Z"/><path class="cls-3" d="M12.06,51.31s-1.94,8.58-9.27,11c0,0,7.11,1.67,9.12,10.89,0,0,2.44-9,9.13-10.89A15.32,15.32,0,0,1,12.06,51.31Z"/><path class="cls-4" d="M16.82,115.62S14,128,3.42,131.47c0,0,10.28,2.43,13.19,15.77,0,0,3.52-13.06,13.2-15.77A22.13,22.13,0,0,1,16.82,115.62Z"/><path class="cls-1" d="M139.5,2.76S137.79,10,131.3,12c0,0,6.29,1.41,8.07,9.15,0,0,2.16-7.58,8.08-9.15A13.13,13.13,0,0,1,139.5,2.76Z"/><path class="cls-3" d="M138.47,51.31s-1.94,8.58-9.27,11c0,0,7.11,1.67,9.13,10.89,0,0,2.43-9,9.12-10.89A15.32,15.32,0,0,1,138.47,51.31Z"/><path class="cls-4" d="M134.16,115.62s-2.8,12.42-13.4,15.85c0,0,10.28,2.43,13.19,15.77,0,0,3.53-13.06,13.2-15.77A22.15,22.15,0,0,1,134.16,115.62Z"/><path class="cls-2" d="M10.75,2.76S9,10,2.55,12c0,0,6.29,1.41,8.08,9.15,0,0,2.15-7.58,8.07-9.15A13.13,13.13,0,0,1,10.75,2.76Z"/><path class="cls-2" d="M16.82,115.62S14,128,3.42,131.47c0,0,10.28,2.43,13.19,15.77,0,0,3.52-13.06,13.2-15.77A22.13,22.13,0,0,1,16.82,115.62Z"/><path class="cls-2" d="M139.5,2.76S137.79,10,131.3,12c0,0,6.29,1.41,8.07,9.15,0,0,2.16-7.58,8.08-9.15A13.13,13.13,0,0,1,139.5,2.76Z"/><path class="cls-2" d="M134.16,115.62s-2.8,12.42-13.4,15.85c0,0,10.28,2.43,13.19,15.77,0,0,3.53-13.06,13.2-15.77A22.15,22.15,0,0,1,134.16,115.62Z"/><path class="cls-2" d="M117.08,91.53c8.65,14.29,9.9,22.71,6.44,26.76-7.37,8.64-36.87-7.79-64.41-35.33S15.75,26.58,23.78,18.54c5.67-5.67,20.87.52,39.51,14.36"/><path class="cls-2" d="M33,91.48c-8.66,14.27-9.92,22.69-6.46,26.75,7.37,8.64,36.88-7.76,64.44-35.29s43.4-56.35,35.37-64.39c-5.66-5.68-20.87.5-39.52,14.33"/><path class="cls-5" d="M68.39,138.13H81.73a0,0,0,0,1,0,0v5.32A3.78,3.78,0,0,1,78,147.24H72.17a3.78,3.78,0,0,1-3.78-3.78v-5.32A0,0,0,0,1,68.39,138.13Z"/><path class="cls-6" d="M75.15,51.61a25.42,25.42,0,0,0-15.08,4.93"/><circle class="cls-7" cx="54.05" cy="63.4" r="0.7"/><line class="cls-6" x1="25.8" y1="77.27" x2="30.78" y2="77.27"/><line class="cls-6" x1="75.15" y1="28.17" x2="75.15" y2="33.15"/><line class="cls-6" x1="40.23" y1="42.61" x2="43.75" y2="46.13"/><line class="cls-6" x1="36.38" y1="107.94" x2="40.25" y2="104.8"/><line class="cls-6" x1="109.9" y1="42.61" x2="106.38" y2="46.13"/><line class="cls-6" x1="124.32" y1="77.44" x2="119.34" y2="77.44"/><line class="cls-6" x1="113.77" y1="107.91" x2="109.89" y2="104.79"/><path class="cls-8" d="M59.82,131.33a6.79,6.79,0,0,0,6.8,6.8H83.33a6.8,6.8,0,0,0,6.8-6.8V119.64H59.82Z"/><line class="cls-2" x1="58.42" y1="119.64" x2="91.7" y2="119.64"/><line class="cls-2" x1="58.42" y1="128.62" x2="91.7" y2="128.62"/></svg>