<svg id="圖層_1" data-name="圖層 1" xmlns="http://www.w3.org/2000/svg" viewBox="0 0 150 150"><defs><style>.cls-1{fill:#fdcb50;}.cls-2{fill:#86a3fd;}.cls-2,.cls-3,.cls-4,.cls-5,.cls-8{stroke:#052a75;stroke-linejoin:round;stroke-width:5px;}.cls-2,.cls-3,.cls-5,.cls-8{stroke-linecap:round;}.cls-3,.cls-4{fill:none;}.cls-5{fill:#fd7da0;}.cls-6{fill:#27a2cc;}.cls-7{fill:#67ccd1;}.cls-8{fill:#c7cee6;}</style></defs><rect class="cls-1" x="70.26" y="9.16" width="9.57" height="76.77"/><path class="cls-2" d="M2.71,53.77H52.27a0,0,0,0,1,0,0v.16A14.75,14.75,0,0,1,37.53,68.68H17.46A14.75,14.75,0,0,1,2.71,53.93v-.16a0,0,0,0,1,0,0Z"/><polyline class="cls-3" points="2.71 53.93 27.49 18.75 52.27 53.77"/><path class="cls-2" d="M97.73,53.77h49.57a0,0,0,0,1,0,0v.16a14.75,14.75,0,0,1-14.75,14.75H112.47A14.75,14.75,0,0,1,97.73,53.93v-.16A0,0,0,0,1,97.73,53.77Z"/><polyline class="cls-3" points="97.73 53.93 122.51 18.75 147.29 53.77"/><path class="cls-4" d="M22.38,15.66S26,20.81,35.06,17.12c9.32-3.82,16.63-5.22,35,1.29"/><rect class="cls-3" x="70.26" y="9.16" width="9.57" height="76.77"/><path class="cls-4" d="M127.23,15.66s-3.65,5.15-12.67,1.46c-9.33-3.82-16.63-5.22-35,1.29"/><path class="cls-5" d="M60.69,85.92h28.7a15.52,15.52,0,0,1,15.52,15.52v0a0,0,0,0,1,0,0H45.17a0,0,0,0,1,0,0v0A15.52,15.52,0,0,1,60.69,85.92Z"/><path class="cls-6" d="M25,111.29c0-5.44,1.45-9.85,3.24-9.85h-10c-1.79,0-3.24,4.41-3.24,9.85s1.45,9.85,3.24,9.85h10C26.4,121.14,25,116.73,25,111.29Z"/><path class="cls-7" d="M85,111.29c0-5.44,1.45-9.85,3.24-9.85h-10c-1.79,0-3.24,4.41-3.24,9.85s1.45,9.85,3.24,9.85h10C86.49,121.14,85,116.73,85,111.29Z"/><path class="cls-7" d="M133.1,111.29c0-4.08.82-7.58,2-9.07a.49.49,0,0,0-.4-.78H28.19c-1.79,0-3.24,4.41-3.24,9.85s1.45,9.85,3.24,9.85H134.68a.49.49,0,0,0,.4-.77C133.92,118.87,133.1,115.37,133.1,111.29Z"/><path class="cls-6" d="M25,131c0-5.44,1.45-9.85,3.24-9.85h-10c-1.79,0-3.24,4.41-3.24,9.85s1.45,9.85,3.24,9.85h10C26.4,140.84,25,136.43,25,131Z"/><path class="cls-7" d="M85,131c0-5.44,1.45-9.85,3.24-9.85h-10c-1.79,0-3.24,4.41-3.24,9.85s1.45,9.85,3.24,9.85h10C86.49,140.84,85,136.43,85,131Z"/><path class="cls-7" d="M133.1,131c0-4.08.82-7.58,2-9.07a.49.49,0,0,0-.4-.78H28.19c-1.79,0-3.24,4.41-3.24,9.85s1.45,9.85,3.24,9.85H134.68a.49.49,0,0,0,.4-.77C133.92,138.57,133.1,135.07,133.1,131Z"/><path class="cls-3" d="M133.1,111.29c0-4.08.82-7.58,2-9.07a.49.49,0,0,0-.4-.78H28.19c-1.79,0-3.24,4.41-3.24,9.85s1.45,9.85,3.24,9.85H134.68a.49.49,0,0,0,.4-.77C133.92,118.87,133.1,115.37,133.1,111.29Z"/><path class="cls-3" d="M133.1,131c0-4.08.82-7.58,2-9.07a.49.49,0,0,0-.4-.78H28.19c-1.79,0-3.24,4.41-3.24,9.85s1.45,9.85,3.24,9.85H134.68a.49.49,0,0,0,.4-.77C133.92,138.57,133.1,135.07,133.1,131Z"/><path class="cls-8" d="M134.13,111.29c0-4.08.41-7.58,1-9.07.12-.32,0-.78-.21-.78H81.23c-.91,0-1.64,4.41-1.64,9.85s.73,9.85,1.64,9.85h53.69c.2,0,.33-.46.21-.77C134.54,118.87,134.13,115.37,134.13,111.29Z"/><path class="cls-8" d="M134.13,131c0-4.08.41-7.58,1-9.07.12-.32,0-.78-.21-.78H81.23c-.91,0-1.64,4.41-1.64,9.85s.73,9.85,1.64,9.85h53.69c.2,0,.33-.46.21-.77C134.54,138.57,134.13,135.07,134.13,131Z"/><path class="cls-3" d="M25,111.29c0-5.44,1.45-9.85,3.24-9.85h-10c-1.79,0-3.24,4.41-3.24,9.85s1.45,9.85,3.24,9.85h10C26.4,121.14,25,116.73,25,111.29Z"/><path class="cls-6" d="M85,111.29c0-5.44,1.45-9.85,3.24-9.85h-10c-1.79,0-3.24,4.41-3.24,9.85s1.45,9.85,3.24,9.85h10C86.49,121.14,85,116.73,85,111.29Z"/><line class="cls-3" x1="85.04" y1="111.29" x2="133.1" y2="111.29"/><path class="cls-3" d="M25,131c0-5.44,1.45-9.85,3.24-9.85h-10c-1.79,0-3.24,4.41-3.24,9.85s1.45,9.85,3.24,9.85h10C26.4,140.84,25,136.43,25,131Z"/><path class="cls-6" d="M85,131c0-5.44,1.45-9.85,3.24-9.85h-10c-1.79,0-3.24,4.41-3.24,9.85s1.45,9.85,3.24,9.85h10C86.49,140.84,85,136.43,85,131Z"/><path class="cls-3" d="M85,111.29c0-5.44,1.45-9.85,3.24-9.85h-10c-1.79,0-3.24,4.41-3.24,9.85s1.45,9.85,3.24,9.85h10C86.49,121.14,85,116.73,85,111.29Z"/><path class="cls-3" d="M85,131c0-5.44,1.45-9.85,3.24-9.85h-10c-1.79,0-3.24,4.41-3.24,9.85s1.45,9.85,3.24,9.85h10C86.49,140.84,85,136.43,85,131Z"/><line class="cls-3" x1="85.04" y1="130.99" x2="133.1" y2="130.99"/></svg>