<svg id="圖層_1" data-name="圖層 1" xmlns="http://www.w3.org/2000/svg" viewBox="0 0 150 150"><defs><style>.cls-1{fill:#86a3fd;}.cls-1,.cls-2,.cls-3,.cls-4,.cls-5{stroke:#052a75;stroke-linecap:round;stroke-linejoin:round;stroke-width:5px;}.cls-2{fill:#fff;}.cls-3{fill:#fd7da0;}.cls-4{fill:none;}.cls-5{fill:#c7cee6;}</style></defs><path class="cls-1" d="M10,16.4h58a33.78,33.78,0,0,1,33.78,33.78v89.47a7.23,7.23,0,0,1-7.23,7.23H10a7.23,7.23,0,0,1-7.23-7.23v-116A7.23,7.23,0,0,1,10,16.4Z"/><path class="cls-2" d="M79.47,3.12H23.14a7.23,7.23,0,0,0-7.24,7.23v116a7.24,7.24,0,0,0,7.24,7.23h84.58a7.23,7.23,0,0,0,7.23-7.23V37.6H79.47Z"/><polygon class="cls-3" points="79.47 37.6 114.95 37.6 79.47 3.12 79.47 37.6"/><line class="cls-4" x1="33.96" y1="22.21" x2="61.14" y2="22.21"/><line class="cls-4" x1="33.96" y1="37.69" x2="61.14" y2="37.69"/><line class="cls-4" x1="33.96" y1="68.65" x2="79.47" y2="68.65"/><line class="cls-4" x1="33.96" y1="84.13" x2="71.79" y2="84.13"/><line class="cls-4" x1="33.96" y1="99.6" x2="71.79" y2="99.6"/><line class="cls-4" x1="33.96" y1="115.08" x2="78.31" y2="115.08"/><line class="cls-4" x1="33.96" y1="53.17" x2="79.47" y2="53.17"/><path class="cls-5" d="M147.21,91.74V84.36l-6.61-2.45a26,26,0,0,0-3.18-7.65l2.93-6.39-5.22-5.22-6.39,2.93a26.31,26.31,0,0,0-7.67-3.16l-2.45-6.58h-7.37l-2.45,6.59a26.41,26.41,0,0,0-7.68,3.18L94.75,62.7l-5.21,5.21,2.92,6.38A26.29,26.29,0,0,0,89.29,82l-6.57,2.44V91.8l6.58,2.45a26.37,26.37,0,0,0,3.19,7.67l-2.91,6.37,5.21,5.22,6.39-2.93a26.12,26.12,0,0,0,7.68,3.17l2.44,6.57h7.38l2.45-6.59a26,26,0,0,0,7.66-3.19l6.38,2.93,5.22-5.22-2.93-6.4a26.36,26.36,0,0,0,3.16-7.66Z"/><circle class="cls-2" cx="114.95" cy="88.08" r="12.77"/></svg>