<svg xmlns="http://www.w3.org/2000/svg" xmlns:xlink="http://www.w3.org/1999/xlink" viewBox="0 0 150 150"><defs><style>.cls-1,.cls-10{fill:none;}.cls-2{isolation:isolate;}.cls-3{clip-path:url(#clip-path);}.cls-4{clip-path:url(#clip-path-2);}.cls-5{mix-blend-mode:screen;opacity:0.3;}.cls-6{fill:url(#linear-gradient);}.cls-7{fill:#c7cee6;}.cls-10,.cls-11,.cls-12,.cls-13,.cls-7,.cls-8{stroke:#052a75;stroke-linecap:round;stroke-linejoin:round;stroke-width:5px;}.cls-8{fill:#fff;}.cls-9{fill:#67ccd1;}.cls-11{fill:#fd7da0;}.cls-12{fill:#86a3fd;}.cls-13{fill:#586ba6;}</style><clipPath id="clip-path"><rect class="cls-1" x="-865.77" y="-1423.82" width="1925.28" height="1111.6"/></clipPath><clipPath id="clip-path-2"><rect class="cls-1" x="-1278.91" y="-1484.72" width="2372.06" height="1367.42"/></clipPath><linearGradient id="linear-gradient" x1="-1857.68" y1="-4111.27" x2="-686.53" y2="-5240.19" gradientTransform="translate(-2484.73 2885.89) rotate(55.11)" gradientUnits="userSpaceOnUse"><stop offset="0" stop-color="#c544ad"/><stop offset="1" stop-color="#275eff"/></linearGradient></defs><g class="cls-2"><g id="圖層_1" data-name="圖層 1"><g class="cls-3"><g class="cls-4"><g class="cls-5"><path class="cls-6" d="M1414.68-171.72c68.57-67.74,107-145.4,114.22-230.84,8.69-102.59-37.43-201.85-82-297.85-18.76-40.38-38.16-82.13-52.59-122.68-26.06-73.23-39.06-149.62-51.63-223.49-16.73-98.34-34-200-82.5-293.51-12.27-23.66-26.08-49.35-43.91-76.86-77.71-120-250.73-160.64-385.54-90.55-98.69,51.32-247.75,116.41-402,89.27-33.15-5.81-70.2-18.56-108.21-36.75l-5.53-4.47c-10.76-8.72-21.64-17.53-33-26-13.59-11.77-27.41-23.62-42.15-34.68-12.84-11.63-26-23.12-40.21-33.71a464.33,464.33,0,0,0-38-32.19,419.15,419.15,0,0,0-36.81-31.51,386.51,386.51,0,0,0-36.66-31.54A365,365,0,0,0,52-1680.29c-26.08-25.61-55.36-48.33-92-63-81.76-32.8-164.74-32-246.65,2.3-66.06,27.68-131.74,77.23-195.2,147.27-13.85,15.27-24.84,27.82-34.6,39.51-30.23,36.23-50.91,67.2-65.09,97.45-17.74,37.89-25.15,74.49-22.62,111.9,6.05,69.44,41.63,160.28,96.84,231.59,23.57,30.45,50.74,57.34,80.7,77.47C-306.37-955.07-162.38-934-23.14-913.62c107.92,15.8,219.52,32.13,319.83,76,100.17,43.7,184.8,113.41,251.54,207.25,53,74.49,93.47,162.4,120.33,261.3,4.85,17.85,9.65,34.39,14.68,50.6C725.66-181.79,782.94-82.3,853.55-22.7c41.43,35,98.16,49,168.62,41.75,58.14-6,115.28-26.93,158.58-44.49C1277.39-64.63,1356.1-113.85,1414.68-171.72Zm-577.19-1312c61.67-30.09,132.88-37.68,200.51-21.37,68.49,16.52,125.9,56,161.61,111.21,16.93,26.14,30.12,50.63,41.85,73.19,46.3,89.18,63.27,186.29,79.68,280.21,12.28,70.27,25,142.94,49.82,212.74,13.76,38.69,32.14,78.48,49.9,117,42.29,91.6,86,186.31,78.3,283.84-6.37,80.57-42.15,154.19-106.36,218.81-53.69,54.05-127.26,102-218.65,142.45-45.93,20.34-100.36,41.83-155.86,47C951.61-12.49,894.85-28.15,854.15-64c-67.79-59.68-121-153.64-162.64-287.31-4.88-15.64-9.58-31.69-14.38-49.07-26.73-96.72-66.78-182.09-119-253.76-65.3-89.58-148.66-156.72-247.68-199.47C214.36-895.36,108-911.6,5.1-927.31c-133.53-20.39-271.6-41.47-386.61-118.94-95-64-161.53-199.69-171-293.81-2.12-35.37,5.54-70,23.4-105.72,14.05-28.12,34.4-57,64.05-90.73,9.63-11,20.39-22.63,33.84-36.73,140-147.19,282.82-193.44,424.57-137.46a243.57,243.57,0,0,1,56.85,32.16q6.17,6.07,12.14,12.31a233.08,233.08,0,0,0-33.56-16.26C-108-1735.58-247.07-1693-384.59-1555.88c-13.2,13.1-23.75,23.93-33.22,34.1-29.76,32-49.4,58.27-63.68,85-18.34,34.29-26.4,67.58-24.64,101.84,7.17,62.52,40.63,144.19,90.79,209,22.23,28.71,47.76,54.11,75.72,73C-228.55-977.85-95.51-956.58,33.15-936c97.21,15.54,197.73,31.61,288.71,70.68,97.3,41.78,178.6,105.79,241.7,190,51.2,68.42,90.57,150.77,117,244.76,4.82,17.12,9.44,32.72,14.11,47.69,40.6,129.72,91.76,221.63,156.37,281,41.61,38.23,98.28,55.57,163.9,50.16,54.57-4.49,106.71-26.65,154.93-49.93,87.94-42.46,155-88.11,205-139.55,60.61-62.37,94.19-133,99.8-209.77,6.86-93.61-34.72-184.3-74.94-272-16.73-36.48-34-74.2-47.07-110.84-23.49-66-35.85-134.76-47.8-201.24-16.15-89.84-32.86-182.73-77.33-268.22-11.23-21.56-23.84-45-40-69.9-69.46-107.43-221.31-147.32-345.76-90.92-91.5,41.45-229.54,93.8-371.36,69.93-37-6.18-79-20.93-121.5-42.18,35.2,16,69.41,27.2,100.13,32.47,63.61,10.95,129.51,7.85,201.45-9.49C707.45-1427.06,768.62-1450.07,837.49-1483.69Zm-599.44-34.67q6.44,5.83,12.75,11.66c-1.69-1-3.38-2-5.09-3q-7-6.58-13.86-13.19C233.94-1521.41,236-1519.9,238.05-1518.36Zm610.37,78.17a280.73,280.73,0,0,1,178.77-11.63c60.74,16.17,111.77,52.32,143.73,101.77,15.25,23.6,27.23,45.79,37.91,66.25,42.33,81.2,58.71,169.55,74.55,255,11.65,62.85,23.7,127.85,46,190.4,12.37,34.77,28.64,70.51,44.36,105.07,37.92,83.31,77.13,169.46,71.22,258.05-8.7,131-98.24,237-281.78,333.52-31.89,16.77-91.25,48-152,52.34C949-84.95,892.41-104,851.74-143,791-201.4,742.3-290.58,703-415.7c-4.49-14.31-9-29.41-13.82-46.17-26.32-91.78-65.26-171.6-115.74-237.25l-1.19-1.55c-61.32-79.19-140.93-140-236.64-180.67C249-918.16,153.85-934.1,61.84-949.52c-123.1-20.62-250.38-41.94-356.41-113.85-85.93-58.43-148.81-181.57-159.95-266.79-1.36-32.21,6.94-63.46,25.36-95.55,14.12-24.59,33.43-48.74,62.62-78.29,9.21-9.28,19.52-19.23,32.46-31.33,133.38-125.35,266.7-163.9,396.24-114.57a225.42,225.42,0,0,1,25.53,11.59q6,6.87,12,13.75l4.91,5.64c-2.32-.95-4.63-1.9-7-2.78-69.33-25.85-140.58-26.71-211.78-2.57-56.64,19.21-114.89,54.94-173.15,106.19-12.68,11.09-22.8,20.2-31.84,28.69-19.49,18.42-44.18,43.31-62.29,72.56-18.69,30.16-27.66,61-26.67,91.81,8.12,54.89,38.07,126.81,83.41,185.37,20.95,27.05,45.19,51.26,72.07,69.61,102,69.46,224.21,91,342.38,111.74,86.44,15.21,175.82,30.93,257.33,65.23,94.61,39.8,172.62,98,231.88,172.82C628.2-657.89,666.56-581,692.59-492c5,17,9.28,31.2,13.56,44.77C744.5-325.86,791.08-238.77,848.57-181c41.35,41.54,97.88,62.35,159.18,58.57,56.34-3.45,107.63-30.4,151.29-55.38,116.81-66.86,252.09-163.82,261.4-321.53,5-84.66-32-166.8-67.89-246.24-14.69-32.55-29.88-66.2-41.51-98.9-20.9-58.74-32.6-119.79-43.91-178.84-15.59-81.38-31.72-165.54-72.22-243.07-10.18-19.45-21.59-40.54-36.05-62.95-30.35-47.09-78.79-82-136.36-98.14a275.93,275.93,0,0,0-169.63,6.83c-91.92,34.2-213.71,70.86-340.71,50.62-39.51-6.25-85.15-22.23-130.45-45.2,38.19,17.69,75.75,30,109.11,35.48C625.32-1357.67,752.58-1400.45,848.42-1440.19ZM162.87-1574.67q9.3,9.93,18.92,19.89-4.14-1.8-8.41-3.47c-7.11-7.06-14-14.35-20.8-21.69C156.08-1578.25,159.5-1576.5,162.87-1574.67Zm98.27,77.46q9.57,8.74,19.47,17.37l-1.2-.65c-1.09-.86-2.23-1.7-3.3-2.56-7.23-5.79-14.22-11.92-21.11-18.15Q258.11-1499.23,261.14-1497.21ZM131.31-1589c7.76,8.37,15.71,16.57,23.95,24.38-110.07-34.56-223.18-6.91-345.39,84.31-11,8.19-20.83,15.6-30.46,23.28-20,16-43,35.64-60.9,60.1-9.87,13.46-17.84,28.09-22.82,43.6-5.37,16.71-7.51,32.35-3.5,49.45a336.9,336.9,0,0,0,14.12,45,424,424,0,0,0,50.52,93.3q4.32,6,8.86,11.9c19.9,25.7,43,48.82,68.56,66.47,93.12,64,204.73,85.81,312.66,106.89,75.46,14.74,153.48,30,225.29,59.46,92.22,37.86,166.93,90.22,222,155.61C641.92-708.68,679-637.49,704.6-553.54c3.81,12.46,8.27,27,13,41.86,23.16,72.59,61.65,177.61,128.47,251.53,41.19,45.58,96,69.37,154.46,67,54.08-2.18,102.93-30.54,147.65-60.85,110-74.55,212.54-161.73,218-293.72,3.18-75.77-29.38-149.41-60.87-220.62-12.64-28.57-25.71-58.11-35.92-86.82-18.28-51.38-29.27-104.65-39.9-156.17-15.06-73-30.64-148.53-67.23-218.2-9.13-17.34-19.35-36.13-32.12-56-52.81-82.24-162.3-120-266.17-91.69-91,24.76-198.93,47.84-310.1,31.28-44.62-6.56-95.37-24.26-145.08-50.39,42.89,20.72,85.53,34.85,123.77,40.69C653-1337,770.43-1367.81,859.32-1396.69c101.49-33,213-1.07,272.61,75.89,3.63,4.68,7.07,9.55,10.31,14.56,13.56,21.07,24.34,41,34,59.3,38.39,73.3,54.2,153,69.5,230,11,55.37,22.36,112.63,42,167.85,11,30.8,25.1,62.44,38.78,93.05,33.57,75.08,68.27,152.72,64.19,232.4-4.08,80.29-35.61,179.4-238.57,305.78-42.46,26.43-92.41,54.87-148.12,57.71-59,3-113.89-19-154.67-62-54.35-57.25-97.2-139.21-134.92-258-4-12.8-8.27-26.55-13.27-43.28-25.9-86.79-63.78-161.07-112.44-220.74-57.5-70.46-134.2-126-228-165-77-32-160.87-47.54-242-62.56C6-992.53-110.57-1014.11-207.62-1080.49c-26.15-18-48.24-40.43-67.21-64.51a435.73,435.73,0,0,1-49.88-80.26c-12.39-25.66-22.52-52.39-28.82-79.81-1.93-8.42-3.34-16.47-2.85-25.07a131.4,131.4,0,0,1,4-25.41c4.57-17.71,12.71-34.55,23.15-50.08,17.73-26.4,40.87-48.1,61.17-65.85,10.48-9.1,21.14-17.84,31.08-25.92,129-104.89,249.35-134.88,367.94-91.7Zm84.24,66.76c5.57,4.84,11.35,9.6,17.23,14.32-6.89-5.11-13.53-10.27-20-15.47.91.37,1.83.73,2.73,1.11Zm2.8,9.29c6.79,4.87,13.65,9.55,20.53,14.12-1.28-.44-2.54-.91-3.84-1.34-134.6-44.37-251.61,11.65-327.91,57.65l-1.67,1c-9.07,5.47-18.45,11.12-27.4,16.85-20.57,13.17-42,28.06-59.53,47.65-9.63,10.77-17.7,22.73-23.11,35.71a100.43,100.43,0,0,0-5.83,19c-1.62,8.19-2.44,15-.29,23.1,2.21,8.4,4.81,16.72,7.74,24.94a366.39,366.39,0,0,0,22.11,49.54,399.24,399.24,0,0,0,36.24,55.94c19.9,25.7,42.43,48.07,65.79,64.39,84.57,58.81,186,81.06,284.15,102.57,64.09,14.05,130.38,28.58,192,53.16,91.54,36.49,161,81.76,212.22,138.4,45.85,50.68,81.86,116.3,107,195.13l4.32,13.54q4,12.56,8.13,25.41c20.39,63.14,56.8,155.47,114.48,236.72a179.3,179.3,0,0,0,149.79,75.49c55.8-1.09,104.11-34.14,144-66.33,87.14-70.29,172.41-148.72,174.63-265.91,1.33-67-26.77-132.19-53.94-195.27-10.55-24.5-21.47-49.83-30.23-74.46-15.6-43.86-25.81-89.19-35.69-133-14.59-64.81-29.69-131.84-62.44-193.79-8.06-15.2-17.06-31.66-28.19-49-54.08-84.54-155.69-102.43-226.31-92.08-78.81,11.56-176.9,26-279.53,12-47.86-6.41-102.61-24.79-154.18-51.77-4.81-2.52-9.64-5.16-14.47-7.85,50.07,25.9,101.86,43.51,147.36,49.91,107.32,15.34,209-3.14,295.83-21.66,76.36-16.28,175.41,1.7,233.12,76.24q5.37,6.93,10.25,14.52c11.88,18.52,21.46,36.1,30,52.35,34.51,65.51,49.8,136.6,64.59,205.34,10.28,47.78,20.91,97.18,37.91,145,9.52,26.76,21.53,54.25,33.14,80.83,29.23,66.91,59.46,136.1,57.21,207-3.91,126.32-98.65,206.63-195.36,278.05-43,31.79-90.31,61.44-144.24,63.05-56.3,1.7-109.55-23.27-149.93-70.3-60.79-70.76-96.62-167.23-121.06-243.36-4.16-13-8.18-25.86-12.08-38.37l-.63-2C687.67-666.62,651-735.32,604-789.16,550.82-850.1,477.43-899.8,385.87-936.86,318.82-964,246.48-978.95,176.52-993.41c-102.68-21.22-208.86-43.15-297.2-104.21-26.51-18.4-48.71-41.59-67.6-66.35a414.21,414.21,0,0,1-48.31-81.25c-4.95-11-9.4-22.2-13.24-33.56-2.88-8.52-6.31-17-7.93-25.78-1.5-8.1-.57-16.42.94-24.48,3.25-17.33,10.94-33.77,21.44-48.54,1.92-2.7,3.94-5.35,6-8,17.58-21.81,40.06-39.24,59.73-53.42,9.81-7.07,19.93-13.91,29.7-20.53,122.64-83,229.65-105.19,336.44-69.86C203.6-1523.82,210.82-1518.32,218.35-1512.91Zm657.24,181.47c69.79-10.23,170.22,7.45,223.61,90.92,11.08,17.31,20,33.71,28.09,48.87,32.61,61.69,47.67,128.57,62.24,193.25,9.89,43.9,20.11,89.3,35.76,133.28,8.79,24.7,19.71,50.06,30.27,74.58,27.09,62.88,55.1,127.89,53.77,194.38-2.21,116.23-87,194.24-173.75,264.18-39.54,31.9-87.37,64.65-142.3,65.72a176.31,176.31,0,0,1-147.52-74.4c-57.51-81-93.82-173.1-114.17-236.1q-4.14-12.82-8.12-25.39l-4.32-13.55c-25.27-79.13-61.45-145.08-107.51-196-51.53-56.94-121.27-102.43-213.2-139.08C336.56-975.41,270.16-990,206-1004c-97.85-21.45-199-43.64-283.16-102.14-27.28-19.06-50-43.33-69.19-69A386.48,386.48,0,0,1-197-1265.5c-2.74-7-5.25-14.08-7.48-21.23-2.34-7.46-5.5-14.5-5-22.38a95,95,0,0,1,4.37-23.26c5.08-15.82,14.26-30.33,25.69-43.11,17.31-19.36,38.58-34.13,59-47.2,8.91-5.71,18.28-11.36,27.34-16.82l1.67-1c75.82-45.71,192.06-101.39,325.54-57.39,4.73,1.56,9.33,3.28,13.83,5.08q12.24,7.88,24.56,15.12,7.26,4.58,14.56,8.91c5.7,3.67,11.43,7.2,17.17,10.66q7.8,5.06,15.67,9.84c2.63,1.72,5.24,3.45,7.9,5.15-17.89-10.48-37-19.82-58.42-26.6-54.55-17.26-109.52-20-168.06-8.41-45.69,9.06-91.95,26.39-145.56,54.56l-3.45,1.81c-8.24,4.33-16.77,8.81-24.94,13.34-23.52,13.1-42.53,25.14-58.84,41.43a118.09,118.09,0,0,0-22.05,29.76c-7.61,14.93-12.15,29.7-7.21,45.85a327.6,327.6,0,0,0,20,49.7,391.77,391.77,0,0,0,41.27,65.8c19.47,25.16,41.49,47.12,64.09,63,80.49,56.37,177.15,78.93,270.62,100.74,58.19,13.58,118.36,27.62,174.69,49.69,92,36,157.89,77.28,207.32,129.8,45,47.75,80.4,110.63,105.35,186.85q4.23,12.93,8.53,26.26l3.63,11.23c19.77,60.82,54.47,150,107.52,229.34,33.64,50.46,88.84,80.26,147.43,79.71,57.37-.52,106.12-37.18,142.19-69.07,80.27-71,152.37-143.64,152.93-252,.39-62.61-25.5-123.7-50.53-182.78-9.5-22.4-19.31-45.56-27.33-68.09-14.23-40-24-81.28-33.45-121.18-14.4-60.81-29.3-123.69-60.18-181.88-7.53-14.12-15.92-29.42-26.22-45.55-48.07-75.4-138.13-97.11-206.36-92.27q-12.43.88-25.13,1.84c-72.21,5.35-154,11.42-239.15.45-46.19-5.83-98.53-22.23-147.36-46.17-15.15-7.43-30.72-15.84-46.29-25l-.45-.28c5.91,3.34,11.83,6.6,17.74,9.69,51.85,27.13,106.93,45.61,155.11,52.06C698.29-1305.44,796.6-1319.86,875.59-1331.44Zm5.4,21.74c67.42-4.78,156.38,16.61,203.87,91.08,10.26,16.07,18.61,31.32,26.12,45.4,30.75,57.93,45.61,120.67,60,181.34,9.46,40,19.25,81.3,33.52,121.41,8,22.6,17.87,45.79,27.37,68.22,25,58.87,50.75,119.75,50.36,181.92-.55,107.44-72.28,179.71-152.14,250.32-35.71,31.57-83.94,67.88-140.37,68.38-57.64.54-111.88-28.84-145.15-78.55C791.65-459.32,757-548.28,737.32-609l-3.64-11.23q-4.3-13.31-8.53-26.26c-25-76.54-60.69-139.71-105.87-187.72C569.58-887,503.4-928.43,411-964.62c-56.52-22.14-116.8-36.21-175.09-49.81-93.21-21.75-189.6-44.25-269.65-100.31-27.68-19.49-50.53-44.47-69.79-70.78-20.88-28.5-38-59.5-49.77-92-3-8.21-7.88-17.63-7.15-26.41a85.09,85.09,0,0,1,5.83-24.62c5.3-13.24,13.78-25.35,24.1-35.87l1-1c16.1-16.07,34.94-28,58.27-41,8.13-4.53,16.65-9,24.89-13.32l3.44-1.81c153.87-80.83,251.42-64.94,311.42-46,41.14,13,73.95,35.68,105.69,57.61,15.14,10.46,30.8,21.28,47.18,30.92,15.62,9.2,31.26,17.64,46.46,25.1,49.11,24.07,101.77,40.56,148.26,46.43,85.39,11,167.39,4.93,239.73-.43Q868.57-1308.8,881-1309.7ZM213.11-1519.88c-3.15-2.32-6.36-4.64-9.43-7l1.57.57C207.85-1524.16,210.43-1522,213.11-1519.88Zm-15.22-11.54q-17.25-13.49-32.48-27.25c2.18.77,4.3,1.59,6.43,2.41q7,7,14.32,13.61,6.56,5.93,13.55,11.82C199.11-1531,198.5-1531.22,197.89-1531.42Zm-6.8-2.21c-105.61-32.69-211.6-9.61-332.59,72.25-9.8,6.63-19.93,13.48-29.77,20.58-19.81,14.27-42.45,31.83-60.21,53.87-9.84,12.2-17.92,25.6-23.12,40-2.88,8-5.39,16.14-6.4,24.5-1,8,.33,15.38,2.35,23.19a334.58,334.58,0,0,0,15.31,44.93,414.94,414.94,0,0,0,53.59,92.61c.34.44.68.87,1,1.31,19.36,25,41.75,47.54,66.45,64.68,88.8,61.37,195.26,83.37,298.22,104.65,69.83,14.43,142.05,29.35,208.85,56.4,91.18,36.9,164.24,86.36,217.14,147,46.77,53.57,83.3,122,108.69,203.4l.62,2c3.91,12.51,7.93,25.36,12.11,38.38,24.49,76.33,60.41,173,121.49,244.16,40.92,47.65,94.94,72.94,152.11,71.22,54.71-1.64,102.42-31.54,145.83-63.6,97.17-71.77,192.37-152.49,196.31-279.81,2.27-71.34-28-140.77-57.39-207.9-11.59-26.55-23.58-54-33.08-80.68-16.95-47.65-27.56-97-37.83-144.69-14.82-68.89-30.15-140.13-64.8-205.91-8.61-16.29-18.22-33.92-30.15-52.51-56.24-87.81-164.22-109.39-246.25-91.89-86.62,18.47-188,36.89-294.81,21.62-47.85-6.73-102.73-25.95-155.2-54.23,46.08,22.89,92.58,38.45,133.9,44.53,111.7,16.64,220-6.52,311.29-31.36,96.49-26.27,197.84,5,253.06,76.36q5.33,6.87,10.07,14.25c12.72,19.79,22.91,38.53,32,55.82,36.44,69.39,52,144.74,67,217.62,10.64,51.59,21.65,104.93,40,156.46,10.24,28.79,23.32,58.37,36,87,31.4,71,63.86,144.39,60.69,219.65-2.52,60.72-25.41,115.77-70,168.31-42.14,49.68-97.95,90.36-147,123.6-44.39,30.09-92.83,58.22-146.18,60.38-57.56,2.34-111.65-21.15-152.31-66.13-66.48-73.55-104.88-178.3-128-250.68-4.74-14.86-9.19-29.39-13-41.83-25.69-84.25-63-155.73-110.79-212.49C541-832.35,465.91-884.95,373.29-923c-72.06-29.59-150.23-44.86-225.82-59.62-107.65-21-219-42.77-311.62-106.46-26.31-18.15-48.51-40.87-67.48-65.24a419.5,419.5,0,0,1-49-80.45c-11.79-25.28-22-52.06-26.68-79.23-2.27-13.08,2-28.72,6.33-41.16a152.86,152.86,0,0,1,21.66-40.44c17.76-24.23,40.53-43.75,60.45-59.64,9.59-7.65,19.44-15,30.39-23.22,123.32-92,237.2-119,347.93-82.21C169.33-1551.58,179.9-1542.56,191.09-1533.63Zm76.52,46.7c-7.17-5.45-14.18-11-20.86-16.55-3.11-2.6-6.11-5.32-9.14-8q3.24,1.77,6.42,3.62C251.69-1500.7,259.54-1493.69,267.61-1486.93ZM245-1501.74c1.58,1.33,3.25,2.63,4.86,3.94q-13.5-10.15-26.06-20.75c1.67.78,3.31,1.61,5,2.43C234-1511.21,239.41-1506.38,245-1501.74ZM217-1524.22c-8.16-7.15-16-14.72-23.73-22.44q4.5,2.29,8.85,4.73c6.78,6.84,13.7,13.65,20.76,20.35C221-1522.48,219-1523.37,217-1524.22Zm-6.66-2.72c-1.23-.48-2.47-.94-3.71-1.4-6.42-5.3-12.71-10.63-18.65-16-3.34-3-6.57-6.2-9.83-9.34q4.14,1.76,8.18,3.63Q198-1538.14,210.38-1526.94Zm-42.54-33.39c-.52-.19-1-.4-1.54-.58-1.78-.63-3.57-1.19-5.36-1.79-.74-.69-1.55-1.37-2.28-2.06-7.54-7.06-14.79-14.53-21.92-22.11q5,2,9.78,4.1C153.47-1575.19,160.57-1567.68,167.84-1560.33Zm-34.92-30.6q-9.79-10.59-19.24-21.38c3.76,1.76,7.46,3.59,11.06,5.51l5.56,6.16c4,4.46,8.07,9,12.16,13.45Q137.77-1589.14,132.92-1590.93Zm-5.18-1.82c-118.25-41.34-238.18-10.74-366.49,93.58-9.49,7.71-20.61,16.83-31.15,26-20.42,17.86-43.71,39.7-61.6,66.33a168,168,0,0,0-22.29,46.57c-4.94,17-7.08,33.27-3.43,50.61a334.57,334.57,0,0,0,12.6,43.76,442.71,442.71,0,0,0,46.46,92.78q9,13.79,19.17,26.93c20.35,26.27,43.83,49.81,69.77,67.61,97.53,66.71,214.4,88.34,327.41,109.26,81,15,164.72,30.5,241.42,62.39,93.37,38.83,169.73,94.08,227,164.22,48.53,59.5,86.2,133.45,112,220,5,16.74,9.22,30.5,13.29,43.31,37.82,119.12,80.85,201.36,135.44,258.89,41.34,43.55,97,65.85,156.83,62.8,56.39-2.87,106.72-31.51,149.47-58.12C1268-287.15,1386-379.42,1393.32-523.53c4.12-80.2-30.7-158.08-64.37-233.4-13.66-30.56-27.79-62.17-38.72-92.89-19.6-55.07-30.94-112.24-41.92-167.54-15.33-77.19-31.17-157-69.71-230.59-9.66-18.4-20.47-38.33-34.09-59.48-56.83-88.37-177.2-126.87-286.08-91.5-88.59,28.79-205.64,59.45-325.4,41-42.78-6.53-91.13-23.51-139.17-48.57,41.09,19.56,82,33.19,117.84,38.86,127.67,20.36,249.93-16.43,342.18-50.75a273,273,0,0,1,167.84-6.76c50.57,14.21,94,43,124.14,81.91q5.69,7.35,10.72,15.15c14.41,22.33,25.79,43.37,35.94,62.77,40.36,77.25,56.45,161.24,72,242.47,11.33,59.12,23,120.25,44,179.15,11.66,32.79,26.87,66.49,41.58,99.08,35.74,79.19,72.7,161.08,67.7,245.21-9.25,156.63-143.9,253.1-260.19,319.65-43.38,24.83-94.33,51.61-150,55-60.47,3.72-116.24-16.8-157-57.79-57.21-57.48-103.61-144.28-141.84-265.33-4.28-13.55-8.59-27.76-13.55-44.73C669-581.94,630.63-659,581.05-721.63c-59.52-75.21-137.88-133.62-232.9-173.6-81.82-34.42-171.36-50.17-257.95-65.4-117.88-20.73-239.78-42.17-341.29-111.3-25.82-17.63-47.82-39.55-66.8-63.1a439.92,439.92,0,0,1-50.32-78.77,416.35,416.35,0,0,1-30.85-80.32A284.15,284.15,0,0,1-405-1322c-1.35-8.44-.57-17.24.51-25.68a162.6,162.6,0,0,1,16.52-52.43q4-8,8.74-15.57c18-29,42.52-53.76,61.89-72.07,9-8.47,19.11-17.57,31.78-28.63,58-51,115.95-86.58,172.24-105.67,70.55-23.93,141.15-23.07,209.85,2.54,4,1.46,7.81,3.06,11.61,4.71C114.59-1607.42,121.08-1600,127.74-1592.75Zm154.92,111.19q5.37,4.65,10.83,9.34l-.21-.12q-7.51-6.2-14.79-12.6l1.75,1.28Zm-61.05-47.77c5,4.86,10.08,9.76,15.2,14.65-2.13-1.14-4.3-2.26-6.48-3.35-6.68-6.18-13.2-12.53-19.62-18.92q4.39,2.67,8.69,5.47Zm-17.73-14.44c-3.62-3.66-7.23-7.33-10.8-11l-2.72-2.77q3.76,2.67,7.46,5.42,6.6,6.13,13.05,12.37Q207.42-1541.79,203.88-1543.77Zm-12.78-9.4,5.27,5.35q-4.11-2.12-8.35-4.12-9-9.21-17.75-18.54,4.88,2.87,9.59,5.9Q185.52-1558.88,191.1-1553.17Zm-26.52-23.35-1.63-1.74q-5.53-5.9-11.13-11.82,4.05,2.83,8,5.8,6.34,6,12.53,12.19Q168.54-1574.37,164.58-1576.52Zm-6.86-3.63c-3.12-1.57-6.31-3.08-9.54-4.54-5.34-5.82-10.63-11.66-15.83-17.45l-.78-.85q5.37,3.09,10.55,6.39Q150-1588.4,157.72-1580.15Zm-31.21-28.46q-6.14-6.8-12.37-13.57,4.52,3.14,8.9,6.41,6.15,5.94,12.11,12Q130.9-1606.25,126.51-1608.61Zm-6.34-3.24q-5.06-2.52-10.29-4.83c-2.72-3.12-5.45-6.24-8.14-9.34q-3.8-4.38-7.62-8.77,5.61,3.18,11,6.6Q112.74-1620.07,120.17-1611.85Zm-30.73-28.3q-6.06-6.91-12.26-13.79,4.66,3.21,9.16,6.59,6.19,6,12.18,12.27Q94.07-1637.7,89.44-1640.15Zm-6.19-3.21c-6.45-3.18-13.12-6.1-20.06-8.73-130.65-49.76-265-11-399.17,115.12-13,12.11-23.3,22.08-32.53,31.39-29.35,29.71-48.77,54-63,78.78-18.64,32.46-27,64.1-25.65,96.83,7.71,59,40.06,136.09,87.68,197.58,21.59,27.88,46.32,52.57,73.32,70.92C-189.64-989.23-62-967.85,61.36-947.18c91.84,15.39,186.81,31.29,273.08,68,95.3,40.53,174.56,101,235.61,179.89l1.18,1.54c50.31,65.42,89.12,145,115.35,236.49,4.82,16.78,9.35,31.9,13.84,46.23,39.45,125.49,88.31,215,149.4,273.63,41.23,39.59,98.6,58.9,161.54,54.37,61.35-4.41,121-35.79,153.1-52.66,116-61,271.59-162.16,283.1-335.43,6-89.12-33.38-175.53-71.42-259.1-15.71-34.51-32-70.21-44.29-104.89-22.2-62.38-34.23-127.29-45.87-190.07-15.87-85.6-32.28-174.11-74.76-255.61-10.71-20.51-22.72-42.76-38-66.43-32.27-50-83.87-86.51-145.26-102.86a283.59,283.59,0,0,0-180.62,11.75c-95.49,39.59-222.25,82.23-356,60.27-37.91-6.17-81.31-21.35-124.87-43.2,36.28,16.55,71.75,28.17,103.52,33.49,68.29,11.5,181.27,16.73,373-70.15,123.22-55.83,273.58-16.27,342.31,90,16.09,24.88,28.67,48.21,39.88,69.72,44.31,85.18,61,177.91,77.1,267.58,12,66.57,24.35,135.41,47.9,201.59,13.07,36.74,30.39,74.5,47.14,111,40.1,87.45,81.57,177.88,74.75,270.94-5.57,76.29-38.93,146.4-99.16,208.37-49.77,51.22-116.58,96.69-204.24,139-48,23.16-99.82,45.21-153.92,49.66C949.92-48.71,894-65.81,853-103.5c-64.31-59.08-115.25-150.66-155.71-280-4.68-14.95-9.29-30.53-14.1-47.63-26.53-94.26-66-176.86-117.39-245.51C502.42-761.28,420.73-825.5,323-867.47c-91.3-39.21-192-55.3-289.38-70.87C-94.74-958.87-227.47-980.09-338-1054.81c-90.45-61.22-155.17-190.63-165.46-280.3-1.73-33.78,6.25-66.7,24.39-100.64,14.18-26.55,33.71-52.61,63.32-84.51,9.44-10.14,20-21,33.16-34,136.68-136.26,274.76-178.66,410.39-126a233.19,233.19,0,0,1,40.82,20.7C73.55-1654.24,78.42-1648.82,83.25-1643.36Zm138,110.15-.12-.08-.22-.21Zm-38.4-32.39c-.41-.27-.83-.52-1.24-.78-.69-.7-1.37-1.4-2.06-2.09C180.66-1567.52,181.75-1566.56,182.85-1565.6ZM146-1597c-.69-.44-1.36-.9-2.05-1.35l-2.75-2.85C142.78-1599.83,144.37-1598.42,146-1597Zm-36.27-31.18c-.92-.6-1.88-1.18-2.81-1.77-1.18-1.25-2.35-2.5-3.53-3.74C105.48-1631.89,107.6-1630.06,109.69-1628.2Zm-36.12-31.09c-1.06-.7-2.11-1.4-3.19-2.08-1.26-1.36-2.54-2.72-3.82-4.07Q70.12-1662.41,73.57-1659.29ZM1179.66-27.61c-43.12,17.49-100,38.33-157.79,44.3-69.65,7.19-125.67-6.64-166.52-41.12-70.22-59.3-127.29-158.42-169.57-294.63-5-16.18-9.81-32.71-14.65-50.53-26.93-99.15-67.53-187.3-120.68-262-67-94.18-152-164.21-252.61-208.1C197.19-883.78,85.39-900.14-22.72-916-161.65-936.3-305.31-957.32-425-1037.69c-44.36-29.8-87.11-79-120.31-138.66-31.25-56.09-51.72-117.56-56.17-168.65-2.51-37,4.83-73.27,22.42-110.81,14.08-30.07,34.66-60.88,64.76-97,9.73-11.66,20.71-24.19,34.53-39.42,63.21-69.77,128.58-119.1,194.28-146.63,81.18-34,163.43-34.79,244.46-2.29,30.64,12.28,56.16,30.3,79,51a238.19,238.19,0,0,0-43.54-22.73c-142.93-56.44-286.8-10-427.62,138.09-13.48,14.13-24.25,25.82-33.91,36.8-29.79,33.94-50.25,62.93-64.38,91.23-18,36.13-25.78,71.07-23.63,106.87,6.61,66,41.14,152.27,93.83,220.32,22.9,29.57,49.24,55.7,78.19,75.22C-267.57-966.53-129.18-945.41,4.66-925c102.7,15.68,208.89,31.9,304.61,73.53C407.86-808.87,490.85-742,555.9-652.81c52.09,71.45,92,156.58,118.67,253,4.81,17.39,9.52,33.47,14.4,49.14,41.78,134.08,95.19,228.41,163.34,288.36,41.27,36.33,98.76,52.22,166.25,46,55.91-5.18,110.62-26.78,156.75-47.21,91.7-40.61,165.54-88.72,219.46-143,64.6-65,100.61-139.13,107-220.23,7.77-98.09-36.08-193.07-78.49-284.92-17.75-38.43-36.1-78.17-49.83-116.77-24.78-69.63-37.46-142.2-49.72-212.38-16.44-94.08-33.44-191.37-79.9-280.84-11.76-22.62-25-47.16-42-73.39-36.06-55.72-94.05-95.62-163.21-112.31-68.29-16.47-140.18-8.81-202.44,21.58-95,46.39-238.55,105.12-386.69,79.6-35.18-6-75-19.94-115.6-39.92,33.06,14.69,65.13,25.1,94.22,30.21,66.13,11.63,134.53,7.91,209.13-11.36,59.33-15.33,123-40.91,194.72-78.19,133.55-69.44,304.89-29.14,381.94,89.68,17.78,27.44,31.56,53.07,43.8,76.67,48.31,93.17,65.58,194.69,82.29,292.87,12.58,74,25.59,150.44,51.72,223.85,14.46,40.65,33.88,82.45,52.66,122.87,44.48,95.74,90.48,194.74,81.84,296.76-7.18,84.89-45.37,162.08-113.53,229.42C1354.39-115.69,1276-66.66,1179.66-27.61Z"/></g></g></g><path class="cls-7" d="M104,75.69a29,29,0,0,1-57.94,0H2.7v9l11.94,4.45a61.63,61.63,0,0,0,7.71,18.57L17,119.29,30.71,133l11.59-5.3a61.36,61.36,0,0,0,18.59,7.7l4.45,11.94H84.66l4.45-11.94a61.36,61.36,0,0,0,18.59-7.7l11.59,5.3L133,119.29l-5.31-11.61a61.63,61.63,0,0,0,7.71-18.57l11.94-4.45v-9Z"/><path class="cls-8" d="M75,104a29,29,0,0,0,29-28.29H46A29,29,0,0,0,75,104Z"/><rect class="cls-9" x="11.76" y="39.33" width="16.44" height="36.36"/><rect class="cls-10" x="11.76" y="39.33" width="16.44" height="36.36"/><polygon class="cls-11" points="28.2 75.69 52.56 75.69 52.56 34.61 28.2 24.72 28.2 75.69"/><rect class="cls-12" x="52.56" y="13.03" width="44.67" height="62.66"/><rect class="cls-8" x="63.58" y="22.53" width="22.63" height="24.15"/><line class="cls-12" x1="63.58" y1="56.92" x2="86.21" y2="56.92"/><rect class="cls-12" x="61.84" y="2.7" width="26.11" height="10.33"/><rect class="cls-13" x="97.23" y="39.33" width="40.61" height="36.36"/><rect class="cls-8" x="105.36" y="51.29" width="23.79" height="12.53"/><rect class="cls-7" x="111.16" y="2.7" width="12.76" height="36.63"/><line class="cls-12" x1="107.87" y1="2.7" x2="127.5" y2="2.7"/><line class="cls-12" x1="111.16" y1="16.32" x2="123.92" y2="16.32"/><line class="cls-12" x1="111.16" y1="25.31" x2="123.92" y2="25.31"/></g></g></svg>