<svg id="圖層_1" data-name="圖層 1" xmlns="http://www.w3.org/2000/svg" viewBox="0 0 150 150"><defs><style>.cls-1{fill:#9da5c4;}.cls-1,.cls-2,.cls-5,.cls-6,.cls-9{stroke:#052a75;stroke-linecap:round;stroke-linejoin:round;stroke-width:5px;}.cls-2{fill:#bac1db;}.cls-3{fill:#67ccd1;}.cls-4{fill:#fdcb50;}.cls-5{fill:none;}.cls-6{fill:#fd7da0;}.cls-7{fill:#597ade;}.cls-8{fill:#fff;}.cls-9{fill:#86a3fd;}</style></defs><rect class="cls-1" x="2.51" y="131.73" width="144.98" height="10.58"/><polygon class="cls-2" points="124.44 95.69 25.56 95.69 2.51 131.73 147.49 131.73 124.44 95.69"/><polygon class="cls-3" points="23.34 131.73 2.51 131.73 19.03 105.89 35.12 105.89 23.34 131.73"/><polygon class="cls-4" points="147.3 131.73 126.47 131.73 120.44 118.45 138.83 118.45 147.3 131.73"/><polygon class="cls-3" points="132.66 108.77 116.05 108.77 110.1 95.69 124.31 95.69 132.66 108.77"/><polygon class="cls-5" points="23.34 131.73 2.51 131.73 19.03 105.89 35.12 105.89 23.34 131.73"/><polygon class="cls-5" points="147.3 131.73 126.47 131.73 120.44 118.45 138.83 118.45 147.3 131.73"/><polygon class="cls-5" points="132.66 108.77 116.05 108.77 110.1 95.69 124.31 95.69 132.66 108.77"/><polygon class="cls-6" points="99.12 118.89 50.72 118.89 53.68 106.64 96.18 106.64 99.12 118.89"/><path class="cls-4" d="M113,45.82a38.13,38.13,0,0,0-76.25,0c0,23.28,17.52,44.17,32.41,60.51.28.31,5.54,6,5.59,5.9C86.38,100.68,97.21,87.3,105,72.85,109.38,64.85,113,55,113,45.82Z"/><path class="cls-5" d="M113,45.82a38.13,38.13,0,0,0-76.25,0c0,23.28,17.52,44.17,32.41,60.51.28.31,5.54,6,5.59,5.9C86.38,100.68,97.21,87.3,105,72.85,109.38,64.85,113,55,113,45.82Z"/><polygon class="cls-7" points="97.09 40.66 52.59 40.66 52.59 34.88 75.34 24.94 97.09 34.88 97.09 40.66"/><rect class="cls-8" x="58" y="40.66" width="33.67" height="19.88"/><rect class="cls-8" x="58" y="40.66" width="33.67" height="19.88"/><rect class="cls-5" x="58" y="40.66" width="33.67" height="19.88"/><rect class="cls-7" x="52.59" y="60.54" width="44.5" height="7.8"/><polygon class="cls-9" points="97.09 40.66 52.59 40.66 52.59 34.88 75.34 24.94 97.09 34.88 97.09 40.66"/><rect class="cls-9" x="52.59" y="60.54" width="44.5" height="8.87"/><line class="cls-9" x1="66.42" y1="40.66" x2="66.42" y2="60.54"/><line class="cls-9" x1="74.84" y1="40.66" x2="74.84" y2="60.54"/><line class="cls-9" x1="83.26" y1="40.66" x2="83.26" y2="60.54"/></svg>