<svg id="圖層_1" data-name="圖層 1" xmlns="http://www.w3.org/2000/svg" viewBox="0 0 150 150"><defs><style>.cls-1{fill:#586ba6;}.cls-1,.cls-2,.cls-4,.cls-6,.cls-7,.cls-9{stroke:#052a75;stroke-linecap:round;stroke-linejoin:round;}.cls-1,.cls-2,.cls-6,.cls-7,.cls-9{stroke-width:5px;}.cls-2{fill:#86a3fd;}.cls-3{fill:#fdcb50;}.cls-4,.cls-9{fill:none;}.cls-4{stroke-width:4.99px;}.cls-5{fill:#052a75;}.cls-6{fill:#fff;}.cls-7{fill:#c7cee6;}.cls-8{fill:#67ccd1;}.cls-10{fill:#27a2cc;}.cls-11{fill:#fd8f01;}</style></defs><rect class="cls-1" x="9" y="27.03" width="132" height="12.25"/><rect class="cls-2" x="3.13" y="39.28" width="143.74" height="97.32"/><rect class="cls-3" x="26.39" y="5.9" width="97.21" height="33.38"/><rect class="cls-4" x="26.39" y="5.9" width="97.21" height="33.38"/><path class="cls-5" d="M46.55,23.92a4.67,4.67,0,0,1-3.61,1.56H38.55V28a2,2,0,0,1-.72,1.6,2.7,2.7,0,0,1-1.76.57,2.42,2.42,0,0,1-1.67-.57,2,2,0,0,1-.68-1.6V18a2.5,2.5,0,0,1,.91-2,3.22,3.22,0,0,1,2.16-.73h6.34a4.42,4.42,0,0,1,3.48,1.52,5.2,5.2,0,0,1,1.28,3.58A5.19,5.19,0,0,1,46.55,23.92Zm-4.29-4.44H38.64a.28.28,0,0,0-.09.17v1.58h3.82c.47,0,.7-.3.7-.94A.72.72,0,0,0,42.26,19.48Z"/><path class="cls-5" d="M62,28a7.21,7.21,0,0,1-5.49,2.15A7.32,7.32,0,0,1,51,28,7.51,7.51,0,0,1,49,22.47,7.6,7.6,0,0,1,51,17a7.25,7.25,0,0,1,5.49-2.11A7.34,7.34,0,0,1,62,17a7.57,7.57,0,0,1,2,5.46A7.59,7.59,0,0,1,62,28Zm-3.48-7.77a2.27,2.27,0,0,0-2-1.07,2.35,2.35,0,0,0-2.08,1.05,4.09,4.09,0,0,0-.62,2.39,3.63,3.63,0,0,0,.64,2.28,2.36,2.36,0,0,0,2.06.94c1.76,0,2.65-1.07,2.65-3.22A4.39,4.39,0,0,0,58.53,20.21Z"/><path class="cls-5" d="M78.26,29.19a1.74,1.74,0,0,1-1.45.67H68.75c-2.2,0-3.28-1-3.28-3V17a1.74,1.74,0,0,1,.74-1.53A2.65,2.65,0,0,1,67.86,15a3,3,0,0,1,1.68.47A1.81,1.81,0,0,1,70.3,17V25a.67.67,0,0,0,0,.32c0,.13.17.17.43.17h6a1.82,1.82,0,0,1,1.46.67,2.47,2.47,0,0,1,.47,1.51A2.38,2.38,0,0,1,78.26,29.19Z"/><path class="cls-5" d="M84.34,29.52a2.51,2.51,0,0,1-3.39,0,2.24,2.24,0,0,1-.7-1.65V17.26A2.16,2.16,0,0,1,81,15.6a2.46,2.46,0,0,1,1.72-.66,2.34,2.34,0,0,1,1.67.68,2.28,2.28,0,0,1,.68,1.64V27.87A2.2,2.2,0,0,1,84.34,29.52Z"/><path class="cls-5" d="M101,27.19c-1.23,2-3.43,2.94-6.57,2.94A7.45,7.45,0,0,1,88.86,28a7.61,7.61,0,0,1-2-5.57A7.19,7.19,0,0,1,89,17a7.82,7.82,0,0,1,5.6-2.14c3.14,0,5.26.94,6.32,2.82a3.22,3.22,0,0,1,.4,1.39,2.06,2.06,0,0,1-.66,1.6,2.29,2.29,0,0,1-1.65.6,3.31,3.31,0,0,1-2.12-1.13A3.61,3.61,0,0,0,94.54,19a2.52,2.52,0,0,0-2.12,1.11,3.88,3.88,0,0,0-.74,2.39A4,4,0,0,0,92.32,25a2.36,2.36,0,0,0,2.1,1,3.07,3.07,0,0,0,1.82-.6c.45-.38.89-.74,1.34-1.13a2.57,2.57,0,0,1,1.57-.62,2.33,2.33,0,0,1,1.67.64,2.2,2.2,0,0,1,.64,1.65A2.45,2.45,0,0,1,101,27.19Z"/><path class="cls-5" d="M116.09,29.28a2.37,2.37,0,0,1-1.63.56H105.8c-2,0-3.07-.9-3.07-2.69V17.9c0-1.79,1-2.69,3-2.69h8.69a2,2,0,0,1,1.53.58,2.07,2.07,0,0,1,.57,1.51,1.9,1.9,0,0,1-2.14,2.16h-6.66c-.08,0-.12.09-.12.24v.64h6a2.06,2.06,0,0,1,1.5.59,2.1,2.1,0,0,1,.6,1.5A2.18,2.18,0,0,1,115,24a2,2,0,0,1-1.55.59h-5.91v.82c0,.12,0,.17.16.17h6.79a2.16,2.16,0,0,1,1.55.62,2.21,2.21,0,0,1,0,3.09Z"/><rect class="cls-6" x="11.39" y="53.15" width="13.6" height="13.6"/><rect class="cls-6" x="11.39" y="78.88" width="13.6" height="13.6"/><rect class="cls-6" x="11.39" y="104.61" width="13.6" height="13.6"/><rect class="cls-6" x="35.05" y="53.15" width="13.6" height="13.6"/><rect class="cls-6" x="35.05" y="78.88" width="13.6" height="13.6"/><rect class="cls-6" x="35.05" y="104.61" width="13.6" height="13.6"/><rect class="cls-6" x="101.56" y="53.15" width="13.6" height="13.6"/><rect class="cls-6" x="101.56" y="78.88" width="13.6" height="13.6"/><rect class="cls-6" x="101.56" y="104.61" width="13.6" height="13.6"/><rect class="cls-6" x="125" y="53.15" width="13.6" height="13.6"/><rect class="cls-6" x="125" y="78.88" width="13.6" height="13.6"/><rect class="cls-6" x="125" y="104.61" width="13.6" height="13.6"/><rect class="cls-7" x="50.44" y="132.55" width="49.13" height="11.54"/><rect class="cls-8" x="60.58" y="106.83" width="14.28" height="25.72"/><rect class="cls-9" x="60.58" y="106.83" width="14.28" height="25.72"/><rect class="cls-10" x="74.89" y="106.83" width="14.28" height="25.72"/><rect class="cls-9" x="74.89" y="106.83" width="14.28" height="25.72"/><path class="cls-11" d="M75,52.34,58,60.9c0,23.56,17,29.77,17,29.77S92,84.46,92,60.9Z"/><path class="cls-3" d="M75,52.34V90.67S58,84.46,58,60.9Z"/><path class="cls-9" d="M75,52.34,58,60.9c0,23.56,17,29.77,17,29.77S92,84.46,92,60.9Z"/></svg>