<svg id="圖層_1" data-name="圖層 1" xmlns="http://www.w3.org/2000/svg" viewBox="0 0 150 150"><defs><style>.cls-1{fill:#27a2cc;}.cls-2{fill:#fdcb50;}.cls-3,.cls-5{fill:none;}.cls-3,.cls-5,.cls-6,.cls-7{stroke:#052a75;stroke-linecap:round;stroke-linejoin:round;}.cls-3,.cls-6{stroke-width:4.99px;}.cls-4{fill:#67ccd1;}.cls-5,.cls-7{stroke-width:5px;}.cls-6{fill:#fff;}.cls-7{fill:#86a3fd;}</style></defs><path class="cls-1" d="M41.6,101.41a14.28,14.28,0,0,1,0-5.86c1.12-4.79,5-8.41,7-12.89a17.8,17.8,0,0,0-2.33-18.09c-.79-1-1.69-1.87-2.52-2.82a25.77,25.77,0,0,1-4.3-7A44.87,44.87,0,0,0,39.26,110c1.42-1.72,2.77-3.62,2.76-5.82A15,15,0,0,0,41.6,101.41Z"/><path class="cls-1" d="M71.28,45.87a4.35,4.35,0,0,0,4,1.47c2.15-.3,4.75-.07,6.11,1.85a5.56,5.56,0,0,1-.52,6.66c-1.14,1.08-2.66,1.09-4.11,1.45a36.07,36.07,0,0,0-4,1.19,11.25,11.25,0,0,0-6.34,5.41,12.55,12.55,0,0,0,.07,11.94c2.49,4.42,7.24,6.47,12.15,6.37,2,0,4.45.13,5.54,2.11,2.49,4.51-2.58,17,5.15,18.29,5,.81,6.91-6.14,8.35-9.52,2-4.62,11.26-22.47,16.53-32.33a45,45,0,0,0-44-22.91C69.92,40.71,69.65,43.71,71.28,45.87Z"/><path class="cls-1" d="M83.07,112.29c-3.42,0-4.43-3.33-7.59-4.2a22.83,22.83,0,0,0-11.34-.34c-3.59.68-6.66,5.71-9.41,8a44.2,44.2,0,0,0-4.59,4.27,44.87,44.87,0,0,0,49.37,0C95.73,116.1,91.26,112.31,83.07,112.29Z"/><path class="cls-2" d="M91.21,4.85A12,12,0,0,0,83.3,8.08C80.1,11.2,79,15.52,81.54,19.42c3.91,6.06,14,7.87,18.84,2.65a24.33,24.33,0,0,0,6.11-19.7c-1.2.46-2.28,1.28-3.45,1.81-3.16,1.43-6.58,1.12-9.93.74A13.36,13.36,0,0,0,91.21,4.85Z"/><path class="cls-2" d="M58.65,9.47a12,12,0,0,1,7.91,3.23c3.2,3.12,4.28,7.44,1.75,11.34-3.9,6.06-14.05,7.87-18.83,2.65A24.4,24.4,0,0,1,43.36,7c1.2.46,2.29,1.28,3.46,1.81,3.16,1.43,6.57,1.12,9.93.74A13.36,13.36,0,0,1,58.65,9.47Z"/><path class="cls-3" d="M91.21,4.85A12,12,0,0,0,83.3,8.08C80.1,11.2,79,15.52,81.54,19.42c3.91,6.06,14,7.87,18.84,2.65a24.33,24.33,0,0,0,6.11-19.7c-1.2.46-2.28,1.28-3.45,1.81-3.16,1.43-6.58,1.12-9.93.74A13.36,13.36,0,0,0,91.21,4.85Z"/><path class="cls-3" d="M58.65,9.47a12,12,0,0,1,7.91,3.23c3.2,3.12,4.28,7.44,1.75,11.34-3.9,6.06-14.05,7.87-18.83,2.65A24.4,24.4,0,0,1,43.36,7c1.2.46,2.29,1.28,3.46,1.81,3.16,1.43,6.57,1.12,9.93.74A13.36,13.36,0,0,1,58.65,9.47Z"/><path class="cls-4" d="M119.75,82.53a44.72,44.72,0,0,0-5.63-21.77c-5.27,9.86-14.56,27.71-16.53,32.33-1.44,3.38-3.4,10.33-8.35,9.52-7.73-1.26-2.66-13.78-5.15-18.29-1.09-2-3.54-2.15-5.54-2.11-4.91.1-9.66-1.95-12.15-6.37a12.55,12.55,0,0,1-.07-11.94,11.25,11.25,0,0,1,6.34-5.41,36.07,36.07,0,0,1,4-1.19c1.45-.36,3-.37,4.11-1.45a5.56,5.56,0,0,0,.52-6.66c-1.36-1.92-4-2.15-6.11-1.85a4.35,4.35,0,0,1-4-1.47c-1.63-2.16-1.36-5.16-1.12-8A44.83,44.83,0,0,0,39.51,54.79a25.77,25.77,0,0,0,4.3,7c.83,1,1.73,1.84,2.52,2.82a17.8,17.8,0,0,1,2.33,18.09c-2,4.48-5.91,8.1-7,12.89a14.28,14.28,0,0,0,0,5.86,15,15,0,0,1,.42,2.74c0,2.2-1.34,4.1-2.76,5.82a45.22,45.22,0,0,0,10.88,10.09,44.2,44.2,0,0,1,4.59-4.27c2.75-2.33,5.82-7.36,9.41-8a22.83,22.83,0,0,1,11.34.34c3.16.87,4.17,4.2,7.59,4.2,8.19,0,12.66,3.81,16.44,7.77A44.87,44.87,0,0,0,119.75,82.53Z"/><path class="cls-5" d="M119.75,82.53a44.72,44.72,0,0,0-5.63-21.77c-5.27,9.86-14.56,27.71-16.53,32.33-1.44,3.38-3.4,10.33-8.35,9.52-7.73-1.26-2.66-13.78-5.15-18.29-1.09-2-3.54-2.15-5.54-2.11-4.91.1-9.66-1.95-12.15-6.37a12.55,12.55,0,0,1-.07-11.94,11.25,11.25,0,0,1,6.34-5.41,36.07,36.07,0,0,1,4-1.19c1.45-.36,3-.37,4.11-1.45a5.56,5.56,0,0,0,.52-6.66c-1.36-1.92-4-2.15-6.11-1.85a4.35,4.35,0,0,1-4-1.47c-1.63-2.16-1.36-5.16-1.12-8A44.83,44.83,0,0,0,39.51,54.79a25.77,25.77,0,0,0,4.3,7c.83,1,1.73,1.84,2.52,2.82a17.8,17.8,0,0,1,2.33,18.09c-2,4.48-5.91,8.1-7,12.89a14.28,14.28,0,0,0,0,5.86,15,15,0,0,1,.42,2.74c0,2.2-1.34,4.1-2.76,5.82a45.22,45.22,0,0,0,10.88,10.09,44.2,44.2,0,0,1,4.59-4.27c2.75-2.33,5.82-7.36,9.41-8a22.83,22.83,0,0,1,11.34.34c3.16.87,4.17,4.2,7.59,4.2,8.19,0,12.66,3.81,16.44,7.77A44.87,44.87,0,0,0,119.75,82.53Z"/><path class="cls-3" d="M62.18,22.29s12.33,4.36,12.52,15.8c0,0-2.69-13.84,12.47-20.78"/><path class="cls-3" d="M71.28,45.87a4.35,4.35,0,0,0,4,1.47c2.15-.3,4.75-.07,6.11,1.85a5.56,5.56,0,0,1-.52,6.66c-1.14,1.08-2.66,1.09-4.11,1.45a36.07,36.07,0,0,0-4,1.19,11.25,11.25,0,0,0-6.34,5.41,12.55,12.55,0,0,0,.07,11.94c2.49,4.42,7.24,6.47,12.15,6.37,2,0,4.45.13,5.54,2.11,2.49,4.51-2.58,17,5.15,18.29,5,.81,6.91-6.14,8.35-9.52,2-4.62,11.26-22.47,16.53-32.33a45,45,0,0,0-44-22.91C69.92,40.71,69.65,43.71,71.28,45.87Z"/><path class="cls-3" d="M41.6,101.41a14.28,14.28,0,0,1,0-5.86c1.12-4.79,5-8.41,7-12.89a17.8,17.8,0,0,0-2.33-18.09c-.79-1-1.69-1.87-2.52-2.82a25.77,25.77,0,0,1-4.3-7A44.87,44.87,0,0,0,39.26,110c1.42-1.72,2.77-3.62,2.76-5.82A15,15,0,0,0,41.6,101.41Z"/><path class="cls-3" d="M83.07,112.29c-3.42,0-4.43-3.33-7.59-4.2a22.83,22.83,0,0,0-11.34-.34c-3.59.68-6.66,5.71-9.41,8a44.2,44.2,0,0,0-4.59,4.27,44.87,44.87,0,0,0,49.37,0C95.73,116.1,91.26,112.31,83.07,112.29Z"/><path class="cls-6" d="M27.65,83.74a7.58,7.58,0,0,0-5.43-2.53,7.87,7.87,0,0,0-1.74.15L18.36,55.28a6.79,6.79,0,0,0-6.85-6.15,6.8,6.8,0,0,0-6.86,6.15L2.39,93a10.72,10.72,0,0,0,2.32,7.33l25.81,32.2a9.14,9.14,0,0,1,1.95,5.64v9h25V122.81a14.1,14.1,0,0,0-3.54-9.34Z"/><path class="cls-6" d="M22.26,81.21a7.61,7.61,0,0,0-4.89,1.59l-.21.17a6.67,6.67,0,0,0-.41,9.19L32.5,110.22"/><path class="cls-6" d="M121.82,83.74a7.56,7.56,0,0,1,5.43-2.53,7.73,7.73,0,0,1,1.73.15l2.12-26.08a6.9,6.9,0,0,1,13.72,0L147.08,93a10.68,10.68,0,0,1-2.33,7.33L119,132.5a9.09,9.09,0,0,0-2,5.64v9H92V122.81a14.1,14.1,0,0,1,3.54-9.34Z"/><path class="cls-6" d="M127.2,81.21a7.64,7.64,0,0,1,4.9,1.59l.21.17a6.67,6.67,0,0,1,.41,9.19L117,110.22"/><rect class="cls-7" x="29.9" y="137.63" width="29.71" height="9.52"/><rect class="cls-7" x="89.48" y="137.63" width="29.71" height="9.52"/><rect class="cls-5" x="29.9" y="137.63" width="29.71" height="9.52"/><rect class="cls-5" x="89.48" y="137.63" width="29.71" height="9.52"/></svg>