<svg id="圖層_1" data-name="圖層 1" xmlns="http://www.w3.org/2000/svg" viewBox="0 0 150 150"><defs><style>.cls-1{fill:#c7cee6;}.cls-1,.cls-2,.cls-3,.cls-5,.cls-8,.cls-9{stroke:#052a75;stroke-linecap:round;stroke-linejoin:round;stroke-width:5px;}.cls-2{fill:#fff;}.cls-10,.cls-3{fill:#fd7da0;}.cls-4{fill:#67ccd1;}.cls-5{fill:none;}.cls-6{fill:#fdcb50;}.cls-7{fill:#27a2cc;}.cls-8{fill:#86a3fd;}.cls-9{fill:#586ba6;}</style></defs><rect class="cls-1" x="16.08" y="14.74" width="99.86" height="132.14"/><path class="cls-2" d="M80.77,3.12H11.29a7.24,7.24,0,0,0-7.24,7.23v116a7.24,7.24,0,0,0,7.24,7.24H95.87a7.24,7.24,0,0,0,7.23-7.24V24.83H80.77Z"/><polygon class="cls-3" points="80.77 24.83 103.1 24.83 80.77 3.12 80.77 24.83"/><rect class="cls-4" x="26.11" y="92.06" width="89.84" height="54.82"/><rect class="cls-5" x="26.11" y="92.06" width="89.84" height="54.82"/><circle class="cls-6" cx="49.95" cy="49.58" r="24.71"/><circle class="cls-5" cx="49.95" cy="49.58" r="24.71"/><line class="cls-5" x1="57.63" y1="39.19" x2="42.06" y2="60.43"/><circle class="cls-5" cx="41.05" cy="43.07" r="4.31"/><circle class="cls-5" cx="58.84" cy="56.55" r="4.31"/><path class="cls-7" d="M63.67,119.51A17.47,17.47,0,0,1,81.13,102H46.35a10.44,10.44,0,0,1-10.44,10.44v14.58A9.91,9.91,0,0,1,45.82,137H81.13A17.46,17.46,0,0,1,63.67,119.51Z"/><path class="cls-7" d="M63.67,119.51A17.46,17.46,0,0,0,81.13,137V102A17.47,17.47,0,0,0,63.67,119.51Z"/><path class="cls-5" d="M63.67,119.51A17.47,17.47,0,0,1,81.13,102H46.35a10.44,10.44,0,0,1-10.44,10.44v14.58A9.91,9.91,0,0,1,45.82,137H81.13A17.46,17.46,0,0,1,63.67,119.51Z"/><rect class="cls-8" x="81.13" y="66.8" width="64.82" height="80.09"/><rect class="cls-2" x="91.21" y="74.76" width="44.61" height="12.26"/><rect class="cls-9" x="91.21" y="94.97" width="9.26" height="9.26"/><rect class="cls-9" x="108.82" y="94.97" width="9.26" height="9.26"/><rect class="cls-9" x="126.43" y="94.97" width="9.26" height="9.26"/><rect class="cls-9" x="91.21" y="112.19" width="9.26" height="9.26"/><rect class="cls-9" x="108.82" y="112.19" width="9.26" height="9.26"/><rect class="cls-9" x="126.43" y="112.19" width="9.26" height="9.26"/><rect class="cls-10" x="91.21" y="129.4" width="9.26" height="9.26"/><rect class="cls-5" x="91.21" y="129.4" width="9.26" height="9.26"/><rect class="cls-9" x="108.82" y="129.4" width="9.26" height="9.26"/><rect class="cls-6" x="126.43" y="129.4" width="9.26" height="9.26"/><rect class="cls-5" x="126.43" y="129.4" width="9.26" height="9.26"/></svg>