<svg id="圖層_1" data-name="圖層 1" xmlns="http://www.w3.org/2000/svg" viewBox="0 0 150 150"><defs><style>.cls-1{fill:#fde0be;}.cls-2,.cls-3{fill:none;}.cls-2,.cls-3,.cls-5,.cls-7,.cls-9{stroke:#052a75;stroke-linejoin:round;stroke-width:5px;}.cls-3,.cls-5,.cls-7,.cls-9{stroke-linecap:round;}.cls-4{fill:#fff;}.cls-5{fill:#86a3fd;}.cls-6{fill:#597ade;}.cls-7{fill:#052a75;}.cls-8{fill:#fdbeb9;}.cls-9{fill:#c7cee6;}</style></defs><circle class="cls-1" cx="30.22" cy="36.97" r="15.65"/><circle class="cls-2" cx="30.22" cy="36.97" r="15.65"/><path class="cls-3" d="M21.53,62.45A22.6,22.6,0,0,0,3.07,84.66v26.07H30.52V91.22Z"/><path class="cls-4" d="M39,62.46a22.43,22.43,0,0,0-4.21-.4H25.67a22.69,22.69,0,0,0-4.14.39l9,28.77Z"/><path class="cls-2" d="M39,62.46a22.43,22.43,0,0,0-4.21-.4H25.67a22.69,22.69,0,0,0-4.14.39l9,28.77Z"/><path class="cls-5" d="M57.36,84.66A22.6,22.6,0,0,0,39,62.46L30.52,91.22v19.51H57.36Z"/><line class="cls-5" x1="41.35" y1="85.21" x2="47.76" y2="85.21"/><line class="cls-5" x1="41.35" y1="85.21" x2="47.76" y2="85.21"/><path class="cls-6" d="M21.53,62.45A22.6,22.6,0,0,0,3.07,84.66v26.07H30.52V91.22Z"/><path class="cls-3" d="M21.53,62.45A22.6,22.6,0,0,0,3.07,84.66v26.07H30.52V91.22Z"/><path class="cls-7" d="M126.06,22.61V17a5,5,0,0,0-9.92,0v4.75a15.44,15.44,0,0,1,9.92.83Z"/><path class="cls-1" d="M126.06,22.61A15.65,15.65,0,1,0,135.49,37,15.56,15.56,0,0,0,126.06,22.61Z"/><path class="cls-2" d="M126.06,22.61A15.65,15.65,0,1,0,135.49,37,15.56,15.56,0,0,0,126.06,22.61Z"/><path class="cls-5" d="M125.36,22.35A15.65,15.65,0,0,0,104.18,37c0,.48,0,.94.07,1.4C108.87,37.56,121.74,34.24,125.36,22.35Z"/><path class="cls-5" d="M135.39,38.71a16.6,16.6,0,0,0,.1-1.74,15.67,15.67,0,0,0-9.43-14.36c-.23-.1-.47-.17-.7-.26a19.29,19.29,0,0,1-3.77,6.9C122.84,31,127.6,36.85,135.39,38.71Z"/><path class="cls-5" d="M146.93,84.66a22.6,22.6,0,0,0-18.39-22.2l-8.45,28.76v19.51h26.84Z"/><path class="cls-5" d="M131,85.22h0Z"/><path class="cls-4" d="M128.54,62.46a22.51,22.51,0,0,0-4.21-.4h-9.09a22.53,22.53,0,0,0-4.14.39l9,28.77Z"/><path class="cls-2" d="M128.54,62.46a22.51,22.51,0,0,0-4.21-.4h-9.09a22.53,22.53,0,0,0-4.14.39l9,28.77Z"/><path class="cls-3" d="M111.09,62.49A22.61,22.61,0,0,0,92.86,84.66v26.07h27.46V91.27Z"/><path class="cls-6" d="M111.09,62.49A22.61,22.61,0,0,0,92.86,84.66v26.07h27.46V91.27Z"/><path class="cls-3" d="M111.09,62.49A22.61,22.61,0,0,0,92.86,84.66v26.07h27.46V91.27Z"/><circle class="cls-8" cx="74.85" cy="57.61" r="15.65"/><path class="cls-6" d="M66.34,83.09A22.6,22.6,0,0,0,47.88,105.3v26.07H75.33V111.86Z"/><path class="cls-3" d="M66.34,83.09A22.6,22.6,0,0,0,47.88,105.3v26.07H75.33V111.86Z"/><path class="cls-4" d="M83.78,83.1a22.43,22.43,0,0,0-4.21-.4H70.48a22.61,22.61,0,0,0-4.14.39l9,28.77Z"/><path class="cls-2" d="M83.78,83.1a22.43,22.43,0,0,0-4.21-.4H70.48a22.61,22.61,0,0,0-4.14.39l9,28.77Z"/><path class="cls-5" d="M102.17,105.3A22.6,22.6,0,0,0,83.78,83.1l-8.45,28.76v19.51h26.84Z"/><line class="cls-5" x1="85.98" y1="105.85" x2="92.39" y2="105.85"/><circle class="cls-2" cx="74.85" cy="57.61" r="15.65"/><rect class="cls-9" x="2.71" y="131.37" width="144.58" height="15.91"/></svg>