<svg xmlns="http://www.w3.org/2000/svg" xmlns:xlink="http://www.w3.org/1999/xlink" viewBox="0 0 39 41.79"><defs><style>.cls-1{fill:none;}.cls-2{isolation:isolate;}.cls-3{clip-path:url(#clip-path);}.cls-4{clip-path:url(#clip-path-2);}.cls-12,.cls-5,.cls-7{mix-blend-mode:screen;}.cls-5{opacity:0.2;fill:url(#linear-gradient);}.cls-6{mix-blend-mode:multiply;opacity:0.4;fill:url(#linear-gradient-2);}.cls-12,.cls-7{opacity:0.3;}.cls-8{fill:url(#linear-gradient-3);}.cls-9{clip-path:url(#clip-path-3);}.cls-10{fill:url(#linear-gradient-4);}.cls-11{clip-path:url(#clip-path-4);}.cls-12{fill:url(#linear-gradient-5);}.cls-13{fill:#2d244d;}</style><clipPath id="clip-path"><rect class="cls-1" x="-2054.64" y="80.51" width="1925.28" height="1111.6"/></clipPath><clipPath id="clip-path-2"><rect class="cls-1" x="-2467.79" y="19.62" width="2372.06" height="1367.42"/></clipPath><linearGradient id="linear-gradient" x1="-1856.86" y1="471.77" x2="372.24" y2="471.77" gradientUnits="userSpaceOnUse"><stop offset="0" stop-color="#275eff" stop-opacity="0"/><stop offset="1" stop-color="#c544ad"/></linearGradient><linearGradient id="linear-gradient-2" x1="-512.08" y1="690.48" x2="294.93" y2="690.48" gradientUnits="userSpaceOnUse"><stop offset="0" stop-color="#c544ad"/><stop offset="1" stop-color="#275eff"/></linearGradient><linearGradient id="linear-gradient-3" x1="-2180.94" y1="-948.2" x2="-1009.79" y2="-2077.12" gradientTransform="translate(-894.03 2846.11) rotate(55.11)" xlink:href="#linear-gradient-2"/><clipPath id="clip-path-3"><rect class="cls-1" x="-32.38" y="80.51" width="1925.28" height="1111.6"/></clipPath><linearGradient id="linear-gradient-4" x1="-54.33" y1="1304.82" x2="2129.41" y2="-347.74" gradientUnits="userSpaceOnUse"><stop offset="0" stop-color="#eb2e5a"/><stop offset="1" stop-color="#004bf5"/></linearGradient><clipPath id="clip-path-4"><rect class="cls-1" x="-445.52" y="19.62" width="2372.06" height="1367.42"/></clipPath><linearGradient id="linear-gradient-5" x1="-144.78" y1="454.81" x2="1254.92" y2="454.81" gradientUnits="userSpaceOnUse"><stop offset="0" stop-color="#c544ad"/><stop offset="1" stop-color="#275eff" stop-opacity="0"/></linearGradient></defs><g class="cls-2"><g id="圖層_1" data-name="圖層 1"><g class="cls-3"><g class="cls-4"><polygon class="cls-5" points="-1231.08 1367.4 372.24 -76.44 372.24 -423.86 132.26 -423.86 -1856.86 1367.4 -1231.08 1367.4"/><path class="cls-6" d="M294.63,1023.14c-8.15,179-157.22,305.27-328.08,375.81-87.33,36-221.71,79.24-307.44,15.08a339.21,339.21,0,0,1-31.71-27H-95.71V19.6H-512.08c27.41-13.54,54.19-28.48,80.28-44.1C-305.13-100.38-133.75-69.5-51.87,46c19.25,27.19,34.37,53,46,73.3C83.43,275.39,78.65,453.8,145.37,618.63,198.08,748.79,301.16,880.3,294.63,1023.14Z"/><g class="cls-7"><path class="cls-8" d="M225.81,1332.61c68.57-67.73,107-145.4,114.22-230.84,8.69-102.58-37.43-201.85-82-297.85-18.76-40.38-38.15-82.13-52.59-122.68C179.35,608,166.35,531.62,153.78,457.75c-16.73-98.34-34-200-82.5-293.51C59,140.58,45.2,114.9,27.36,87.38-50.35-32.59-223.36-73.25-358.17-3.16c-98.7,51.31-247.75,116.4-402,89.27-33.14-5.82-70.19-18.56-108.2-36.76l-5.53-4.46c-10.76-8.73-21.65-17.54-33-26C-920.49,7.12-934.32-4.73-949-15.79c-12.84-11.64-26.05-23.13-40.21-33.72a466.78,466.78,0,0,0-38-32.19,416.15,416.15,0,0,0-36.81-31.5,387.93,387.93,0,0,0-36.65-31.55A367.52,367.52,0,0,0-1136.85-176c-26.08-25.6-55.36-48.32-92-63-81.76-32.79-164.74-32-246.65,2.3-66.06,27.68-131.74,77.23-195.21,147.28-13.84,15.26-24.84,27.81-34.59,39.5-30.23,36.24-50.91,67.2-65.09,97.46-17.75,37.89-25.15,74.49-22.62,111.9,6,69.44,41.62,160.27,96.84,231.58,23.57,30.45,50.74,57.34,80.7,77.47,120.19,80.71,264.17,101.79,403.41,122.17,107.93,15.79,219.53,32.12,319.84,76C-792,710.46-707.38,780.17-640.65,874c53,74.49,93.48,162.41,120.34,261.31,4.85,17.84,9.65,34.39,14.68,50.59,42.41,136.63,99.7,236.13,170.31,295.73,41.43,35,98.16,49,168.61,41.74,58.14-6,115.29-26.93,158.58-44.48C88.51,1439.71,167.22,1390.49,225.81,1332.61Zm-577.19-1312C-289.72-9.45-218.51-17-150.87-.73-82.38,15.8-25,55.31,10.74,110.48c16.92,26.15,30.11,50.63,41.84,73.19C98.89,272.85,115.85,370,132.27,463.88c12.27,70.27,25,142.94,49.81,212.74,13.77,38.69,32.14,78.48,49.91,117,42.29,91.59,86,186.3,78.3,283.83-6.38,80.57-42.16,154.19-106.36,218.81-53.69,54.06-127.26,102-218.65,142.45-45.93,20.34-100.36,41.83-155.86,47-66.68,6.19-123.44-9.47-164.15-45.28-67.79-59.68-121-153.65-162.63-287.31-4.88-15.65-9.58-31.7-14.39-49.08-26.72-96.71-66.77-182.09-119-253.76-65.3-89.58-148.66-156.71-247.68-199.47-96.06-41.78-202.44-58-305.33-73.73-133.52-20.39-271.6-41.47-386.6-118.93-95-64-161.54-199.7-171-293.81-2.12-35.38,5.54-70,23.4-105.72,14-28.13,34.39-57,64-90.74,9.64-11,20.4-22.63,33.85-36.72,140-147.19,282.82-193.44,424.56-137.47a243.39,243.39,0,0,1,56.85,32.17q6.18,6.06,12.15,12.31a230.62,230.62,0,0,0-33.57-16.26c-136.78-53.09-275.87-10.5-413.39,126.6-13.2,13.11-23.76,23.94-33.22,34.1-29.76,32.05-49.4,58.27-63.69,85-18.33,34.29-26.39,67.59-24.64,101.84,7.18,62.52,40.63,144.2,90.79,209,22.24,28.71,47.77,54.12,75.73,73,111.07,75.07,244.11,96.34,372.77,116.91C-1058.51,583.87-958,599.94-867,639c97.31,41.78,178.61,105.78,241.71,190,51.2,68.41,90.56,150.76,117,244.76,4.82,17.12,9.44,32.72,14.12,47.68,40.6,129.72,91.75,221.63,156.37,281,41.6,38.22,98.28,55.57,163.89,50.16C-119.34,1448.16-67.2,1426-19,1402.71c87.95-42.46,155-88.11,205-139.54,60.62-62.38,94.2-133,99.81-209.78,6.86-93.61-34.73-184.3-75-272-16.73-36.48-34-74.2-47.07-110.84-23.48-66-35.85-134.76-47.8-201.24C99.83,379.47,83.13,286.58,38.66,201.09c-11.23-21.55-23.85-44.94-40-69.9C-70.8,23.76-222.64-16.13-347.1,40.27c-91.49,41.45-229.53,93.81-371.36,69.94-36.95-6.19-79-20.94-121.49-42.19,35.2,16,69.4,27.2,100.13,32.47,63.61,11,129.5,7.85,201.45-9.49C-481.42,77.27-420.26,54.26-351.38,20.64ZM-950.82-14q6.42,5.83,12.75,11.67c-1.69-1-3.38-2-5.1-3q-7-6.57-13.85-13.19Q-953.9-16.33-950.82-14Zm610.37,78.17A280.77,280.77,0,0,1-161.69,52.51c60.75,16.18,111.78,52.32,143.74,101.78C-2.71,177.89,9.28,200.07,20,220.54c42.33,81.2,58.71,169.55,74.55,255,11.65,62.86,23.7,127.85,46,190.4C152.83,700.7,169.1,736.44,184.83,771c37.92,83.31,77.13,169.47,71.22,258-8.7,131-98.24,237-281.79,333.52-31.89,16.77-91.24,48-152,52.34-62.12,4.47-118.73-14.57-159.41-53.62-60.78-58.36-109.43-147.54-148.77-272.65-4.5-14.31-9-29.42-13.83-46.18C-526,950.68-565,870.86-615.47,805.21l-1.19-1.55C-678,724.47-757.59,663.69-853.3,623-939.89,586.17-1035,570.23-1127,554.82c-123.09-20.62-250.38-42-356.4-113.85-85.94-58.44-148.82-181.58-160-266.8-1.35-32.2,7-63.46,25.37-95.55,14.11-24.59,33.42-48.74,62.61-78.29,9.21-9.28,19.52-19.23,32.47-31.33,133.38-125.35,266.69-163.9,396.24-114.57A224.47,224.47,0,0,1-1101.19-134q6,6.89,12,13.76c1.62,1.86,3.28,3.75,4.91,5.63-2.32-1-4.64-1.9-7-2.78-69.33-25.84-140.59-26.71-211.78-2.57C-1359.73-100.73-1418-65-1476.24-13.74-1488.93-2.66-1499,6.45-1508.09,15c-19.48,18.42-44.17,43.31-62.29,72.56-18.68,30.15-27.65,61-26.66,91.81,8.12,54.89,38.07,126.8,83.41,185.36,20.94,27.05,45.19,51.26,72.07,69.61,102,69.47,224.2,91,342.38,111.75,86.44,15.2,175.81,30.92,257.33,65.22,94.61,39.8,172.62,98,231.88,172.82,49.29,62.36,87.65,139.2,113.69,228.22,5,17,9.28,31.21,13.56,44.78,38.34,121.39,84.93,208.48,142.42,266.26,41.34,41.55,97.88,62.35,159.17,58.57,56.34-3.44,107.64-30.4,151.29-55.38C87,1259.67,222.26,1162.71,231.56,1005c5-84.66-32-166.8-67.88-246.23-14.69-32.55-29.88-66.21-41.52-98.91C101.27,601.12,89.57,540.07,78.26,481,62.67,399.64,46.54,315.49,6,238-4.14,218.5-15.56,197.41-30,175c-30.35-47.08-78.79-82-136.35-98.13A275.93,275.93,0,0,0-336,83.69c-91.92,34.21-213.71,70.87-340.71,50.62-39.52-6.25-85.16-22.22-130.45-45.2,38.18,17.69,75.75,30.05,109.1,35.48C-563.55,146.66-436.29,103.88-340.45,64.14ZM-1026-70.34c6.2,6.62,12.51,13.28,18.91,19.9q-4.14-1.81-8.4-3.48c-7.12-7-14-14.35-20.8-21.69Q-1031.05-73.07-1026-70.34Zm98.27,77.46q9.57,8.76,19.46,17.37c-.39-.22-.8-.43-1.2-.64-1.09-.87-2.22-1.71-3.3-2.57C-920,15.49-927,9.36-933.87,3.13-931.8,4.45-929.75,5.77-927.73,7.12Zm-129.83-91.75c7.76,8.37,15.7,16.58,24,24.38C-1143.68-94.8-1256.8-67.16-1379,24.06c-11,8.19-20.84,15.6-30.46,23.28-20.06,16-43,35.64-60.9,60.1-9.87,13.46-17.84,28.09-22.83,43.61-5.36,16.7-7.5,32.34-3.5,49.44a338.41,338.41,0,0,0,14.13,45A424.05,424.05,0,0,0-1432,338.8q4.3,6,8.86,11.9c19.89,25.69,43,48.81,68.55,66.46,93.13,64,204.73,85.81,312.67,106.89,75.45,14.74,153.47,30,225.28,59.46,92.23,37.87,166.93,90.22,222,155.61,47.68,56.53,84.75,127.73,110.36,211.68,3.8,12.45,8.26,27,13,41.85,23.17,72.59,61.66,177.62,128.47,251.53,41.2,45.58,96.05,69.38,154.47,67,54.07-2.18,102.92-30.53,147.65-60.85,110-74.55,212.54-161.73,218-293.72C180.52,880.85,148,807.21,116.46,736c-12.63-28.56-25.7-58.1-35.92-86.82C62.27,597.79,51.27,544.52,40.65,493,25.58,420,10,344.48-26.58,274.81c-9.14-17.35-19.35-36.13-32.12-56-52.81-82.24-162.31-120-266.18-91.69C-415.83,151.88-523.81,175-635,158.41-679.6,151.85-730.34,134.14-780,108c42.89,20.72,85.53,34.85,123.76,40.69,120.37,18.59,237.85-12.18,326.74-41.06,101.49-33,213-1.07,272.61,75.89q5.44,7,10.3,14.57c13.57,21.06,24.35,40.94,34,59.29,38.39,73.3,54.2,153,69.5,230,11,55.37,22.36,112.63,42,167.85,11,30.8,25.1,62.45,38.78,93C171.19,823.37,205.9,901,201.81,980.7c-4.07,80.28-35.6,179.4-238.57,305.78-42.45,26.43-92.41,54.87-148.12,57.7-59,3-113.88-19-154.66-62-54.35-57.25-97.2-139.21-134.92-258-4.06-12.8-8.28-26.55-13.27-43.28-25.91-86.79-63.79-161.06-112.44-220.73-57.5-70.47-134.21-126-228-165-77-32-160.87-47.54-242-62.56-112.73-20.87-229.29-42.45-326.34-108.83-26.15-17.94-48.25-40.43-67.22-64.5a435.68,435.68,0,0,1-49.87-80.26c-12.4-25.66-22.52-52.39-28.82-79.82-1.94-8.41-3.34-16.46-2.86-25.07a132.09,132.09,0,0,1,4-25.4c4.56-17.71,12.7-34.56,23.14-50.08,17.74-26.4,40.88-48.11,61.18-65.85,10.48-9.11,21.13-17.85,31.08-25.93,129-104.89,249.35-134.88,367.93-91.7Zm84.24,66.77C-967.76-13-962-8.27-956.09-3.55c-6.89-5.11-13.53-10.27-20-15.47.9.37,1.82.73,2.72,1.11Zm2.8,9.28C-963.73-3.71-956.87,1-950,5.55c-1.28-.45-2.53-.92-3.83-1.35-134.6-44.37-251.61,11.65-327.91,57.65l-1.67,1c-9.07,5.47-18.46,11.13-27.4,16.85-20.57,13.18-42,28.07-59.53,47.65-9.63,10.78-17.7,22.74-23.11,35.71a100.15,100.15,0,0,0-5.83,19.05c-1.62,8.19-2.44,14.95-.3,23.11,2.21,8.4,4.82,16.71,7.75,24.93a366,366,0,0,0,22.11,49.55,398.25,398.25,0,0,0,36.24,55.93c19.89,25.7,42.43,48.08,65.78,64.39,84.57,58.82,186,81.06,284.15,102.57,64.1,14,130.38,28.58,192,53.16,91.54,36.49,161,81.76,212.22,138.4,45.85,50.69,81.85,116.31,107,195.13l4.32,13.55q4,12.54,8.13,25.4c20.39,63.14,56.8,155.48,114.47,236.72a179.33,179.33,0,0,0,149.8,75.49c55.8-1.09,104.11-34.14,144-66.33,87.14-70.29,172.4-148.72,174.63-265.91,1.33-67-26.77-132.19-53.95-195.27-10.55-24.5-21.46-49.82-30.23-74.46-15.6-43.85-25.81-89.18-35.68-133-14.6-64.82-29.69-131.84-62.44-193.8-8.07-15.2-17.06-31.66-28.19-49-54.09-84.54-155.7-102.43-226.32-92.07-78.81,11.56-176.89,25.94-279.53,12-47.85-6.41-102.6-24.79-154.17-51.77-4.82-2.52-9.65-5.15-14.47-7.84,50.07,25.89,101.86,43.5,147.36,49.9,107.32,15.34,209-3.14,295.83-21.66,76.35-16.28,175.4,1.7,233.12,76.24,3.57,4.62,7,9.47,10.24,14.52,11.88,18.52,21.47,36.11,30.05,52.35,34.51,65.52,49.81,136.6,64.6,205.35,10.28,47.77,20.91,97.18,37.91,145,9.51,26.75,21.52,54.24,33.14,80.82,29.23,66.92,59.46,136.11,57.2,207-3.91,126.32-98.65,206.62-195.35,278-43,31.8-90.31,61.44-144.25,63-56.29,1.7-109.54-23.26-149.93-70.29-60.78-70.77-96.61-167.24-121-243.36-4.16-13-8.18-25.86-12.09-38.37l-.63-2C-501.21,837.71-537.92,769-584.88,715.17-638,654.23-711.44,604.54-803,567.47c-67-27.14-139.39-42.09-209.35-56.54-102.68-21.22-208.86-43.16-297.19-104.22-26.51-18.4-48.71-41.59-67.61-66.35a414.58,414.58,0,0,1-48.3-81.24c-5-11-9.41-22.2-13.24-33.57-2.88-8.52-6.31-17-7.94-25.77-1.49-8.11-.56-16.42,1-24.48,3.24-17.34,10.93-33.78,21.43-48.54q2.9-4.07,6-8c17.57-21.81,40-39.24,59.73-53.42,9.81-7.07,19.92-13.91,29.7-20.52,122.64-83,229.65-105.2,336.44-69.87C-985.27-19.48-978-14-970.52-8.58Zm657.24,181.47c69.78-10.23,170.22,7.45,223.61,90.92,11.08,17.31,20,33.72,28.08,48.87C-29,374.37-13.91,441.25.66,505.93c9.88,43.9,20.11,89.3,35.76,133.28,8.78,24.7,19.7,50.06,30.27,74.59,27.09,62.87,55.09,127.88,53.77,194.37-2.21,116.23-87,194.25-173.75,264.19-39.54,31.89-87.37,64.64-142.31,65.72a176.36,176.36,0,0,1-147.52-74.4c-57.5-81-93.81-173.11-114.16-236.1q-4.14-12.84-8.12-25.4l-4.33-13.54c-25.27-79.14-61.45-145.08-107.51-196-51.53-56.95-121.27-102.44-213.2-139.08-61.87-24.66-128.27-39.22-192.48-53.3-97.85-21.45-199-43.64-283.17-102.14-27.27-19-50-43.33-69.18-69a386.52,386.52,0,0,1-50.58-90.3q-4.11-10.5-7.48-21.23c-2.33-7.45-5.5-14.5-5-22.38A94.6,94.6,0,0,1-1394,172c5.08-15.82,14.26-30.32,25.69-43.11,17.31-19.36,38.58-34.12,59-47.2,8.91-5.71,18.28-11.35,27.34-16.82l1.67-1c75.82-45.71,192.06-101.39,325.53-57.39C-950,8-945.41,9.71-940.9,11.52c8.16,5.24,16.35,10.3,24.56,15.11q7.26,4.59,14.56,8.91c5.69,3.67,11.43,7.2,17.17,10.66q7.79,5.05,15.67,9.84c2.62,1.73,5.24,3.46,7.9,5.15-17.89-10.47-37-19.82-58.42-26.59-54.56-17.26-109.53-20-168.07-8.41-45.69,9.05-91.94,26.39-145.55,54.55l-3.45,1.81c-8.25,4.33-16.78,8.81-24.94,13.35C-1285,109-1304,121-1320.31,137.32a118.55,118.55,0,0,0-22.06,29.76c-7.6,14.93-12.14,29.7-7.21,45.85a328.69,328.69,0,0,0,20,49.7,392.2,392.2,0,0,0,41.26,65.81c19.48,25.15,41.49,47.11,64.1,63,80.49,56.38,177.15,78.93,270.62,100.75,58.19,13.57,118.36,27.61,174.69,49.68,92,36,157.89,77.29,207.31,129.8,45,47.75,80.41,110.63,105.35,186.86,2.83,8.61,5.67,17.38,8.54,26.25l3.63,11.23c19.77,60.83,54.47,150,107.51,229.34,33.65,50.46,88.84,80.26,147.43,79.71,57.38-.51,106.13-37.18,142.2-69.07C23.32,1065,95.41,992.37,96,884c.39-62.62-25.5-123.71-50.54-182.79-9.49-22.4-19.31-45.56-27.32-68.09-14.23-40-24-81.27-33.46-121.18-14.4-60.81-29.29-123.69-60.18-181.87C-83,316-91.43,300.67-101.73,284.53c-48.07-75.39-138.13-97.11-206.36-92.26q-12.44.87-25.14,1.83c-72.2,5.35-154,11.42-239.14.45-46.19-5.82-98.53-22.23-147.37-46.16-15.14-7.43-30.71-15.84-46.28-25l-.45-.28c5.91,3.34,11.83,6.6,17.74,9.7,51.84,27.12,106.93,45.61,155.1,52.06C-490.58,198.9-392.27,184.48-313.28,172.89Zm5.39,21.74c67.43-4.78,156.39,16.61,203.87,91.09C-93.76,301.79-85.4,317-77.9,331.11c30.75,57.93,45.61,120.68,60,181.35,9.47,40,19.26,81.29,33.53,121.41,8,22.59,17.86,45.78,27.37,68.21C67.93,761,93.73,821.83,93.34,884c-.56,107.44-72.29,179.72-152.14,250.32-35.71,31.57-83.94,67.88-140.37,68.39-57.64.53-111.88-28.85-145.15-78.56-52.9-79.14-87.51-168.1-107.23-228.79l-3.64-11.23q-4.31-13.3-8.54-26.26c-25-76.54-60.68-139.71-105.86-187.72-49.7-52.8-115.88-94.25-208.28-130.44-56.52-22.14-116.79-36.2-175.08-49.8-93.22-21.76-189.6-44.25-269.66-100.32-27.67-19.49-50.52-44.47-69.79-70.77-20.87-28.51-37.95-59.51-49.76-92-3-8.22-7.89-17.64-7.15-26.42a85.4,85.4,0,0,1,5.82-24.62c5.3-13.24,13.78-25.35,24.11-35.87l1-1c16.11-16.07,34.95-28,58.28-41,8.13-4.53,16.65-9,24.88-13.31l3.44-1.81c153.87-80.84,251.43-64.94,311.42-46,41.15,13,74,35.69,105.69,57.61,15.15,10.46,30.81,21.28,47.19,30.93,15.62,9.19,31.25,17.64,46.46,25.09,49.11,24.08,101.76,40.57,148.26,46.44,85.39,11,167.38,4.92,239.73-.44Q-320.32,195.53-307.89,194.63ZM-975.77-15.54c-3.15-2.33-6.35-4.65-9.42-7l1.57.57C-981-19.82-978.44-17.68-975.77-15.54ZM-991-27.09q-17.25-13.48-32.49-27.25c2.18.77,4.31,1.59,6.44,2.42,4.68,4.64,9.45,9.19,14.31,13.6q6.57,5.93,13.56,11.82Zm-6.8-2.21C-1103.39-62-1209.38-38.9-1330.37,43c-9.8,6.62-19.93,13.47-29.77,20.57-19.81,14.27-42.46,31.84-60.22,53.87-9.83,12.21-17.91,25.61-23.11,40-2.89,8-5.39,16.14-6.41,24.5-1,8,.34,15.38,2.36,23.19A333.18,333.18,0,0,0-1432.21,250a414.72,414.72,0,0,0,53.59,92.61c.33.44.67.88,1,1.31,19.35,25,41.75,47.55,66.45,64.68,88.79,61.38,195.25,83.38,298.21,104.65,69.84,14.43,142.05,29.35,208.86,56.4,91.18,36.91,164.23,86.37,217.14,147,46.76,53.57,83.3,122,108.68,203.41l.63,2c3.91,12.51,7.93,25.36,12.1,38.39,24.5,76.32,60.41,173,121.5,244.15,40.92,47.65,94.93,72.94,152.1,71.22,54.72-1.64,102.43-31.53,145.83-63.59,97.18-71.77,192.38-152.5,196.32-279.82,2.27-71.34-28.06-140.76-57.39-207.9-11.6-26.54-23.59-54-33.08-80.68-17-47.65-27.57-97-37.83-144.68C7.09,430.25-8.24,359-42.89,293.23-51.5,276.94-61.11,259.31-73,240.72c-56.24-87.8-164.23-109.38-246.26-91.89-86.61,18.47-188,36.89-294.81,21.62-47.84-6.73-102.72-25.94-155.19-54.22,46.08,22.89,92.58,38.45,133.9,44.52,111.7,16.64,220-6.51,311.28-31.36,96.49-26.27,197.84,5,253.07,76.36Q-65.72,212.64-61,220c12.73,19.79,22.91,38.53,32,55.82,36.44,69.39,52,144.75,67,217.62C48.7,545,59.7,598.38,78,649.9c10.24,28.79,23.32,58.37,36,87,31.39,71,63.85,144.39,60.69,219.65-2.52,60.72-25.41,115.78-70,168.32-42.14,49.68-97.95,90.36-147,123.59-44.39,30.09-92.82,58.23-146.18,60.38-57.55,2.34-111.65-21.14-152.3-66.13-66.48-73.55-104.88-178.29-128-250.68-4.74-14.86-9.2-29.39-13-41.83-25.69-84.25-63-155.72-110.8-212.48C-647.91,672-723,619.38-815.58,581.35c-72.07-29.59-150.23-44.86-225.82-59.62-107.65-21-219-42.76-311.62-106.45-26.31-18.15-48.52-40.88-67.48-65.25a419.78,419.78,0,0,1-49-80.44c-11.79-25.28-22-52.07-26.68-79.24-2.26-13.08,2.05-28.72,6.33-41.16a153.34,153.34,0,0,1,21.67-40.44c17.76-24.23,40.52-43.74,60.45-59.64,9.59-7.65,19.44-15,30.39-23.22,123.32-92,237.2-118.95,347.93-82.21C-1019.55-47.25-1009-38.22-997.78-29.3Zm76.52,46.71c-7.18-5.45-14.19-11-20.87-16.56-3.1-2.59-6.11-5.31-9.14-8,2.17,1.18,4.3,2.38,6.42,3.61C-937.19,3.64-929.33,10.65-921.26,17.41ZM-943.92,2.59c1.58,1.33,3.25,2.63,4.86,4q-13.52-10.17-26.06-20.76c1.67.79,3.31,1.61,5,2.43C-954.85-6.87-949.46-2-943.92,2.59Zm-27.91-22.48c-8.16-7.15-16-14.72-23.74-22.43q4.5,2.28,8.86,4.72,10.15,10.28,20.76,20.35C-967.9-18.15-969.85-19-971.83-19.89Zm-6.66-2.71c-1.23-.49-2.47-.95-3.71-1.41-6.43-5.3-12.71-10.63-18.65-16-3.34-3-6.58-6.2-9.83-9.35,2.76,1.17,5.49,2.38,8.17,3.64C-994.73-37.78-986.72-30-978.49-22.6ZM-1021-56l-1.53-.58c-1.78-.63-3.58-1.19-5.36-1.78-.74-.69-1.55-1.38-2.29-2.07-7.54-7.06-14.78-14.52-21.92-22.11q5,2,9.79,4.1C-1035.4-70.86-1028.3-63.35-1021-56ZM-1056-86.59q-9.8-10.59-19.23-21.39c3.75,1.76,7.46,3.59,11.06,5.51l5.55,6.16q6,6.69,12.17,13.46Q-1051.1-84.81-1056-86.59Zm-5.17-1.83c-118.25-41.34-238.19-10.74-366.5,93.59-9.48,7.71-20.6,16.82-31.15,26-20.42,17.86-43.71,39.71-61.6,66.34A168.49,168.49,0,0,0-1542.67,144c-4.93,17-7.07,33.28-3.42,50.61a332.15,332.15,0,0,0,12.6,43.76A442.3,442.3,0,0,0-1487,331.2q9,13.77,19.17,26.92c20.34,26.27,43.83,49.82,69.77,67.61,97.53,66.71,214.39,88.35,327.41,109.27,81,15,164.71,30.49,241.42,62.39,93.37,38.83,169.73,94.07,227,164.21,48.52,59.5,86.2,133.45,112,219.95,5,16.74,9.22,30.5,13.29,43.31,37.81,119.12,80.85,201.36,135.44,258.9,41.33,43.54,97,65.84,156.82,62.79,56.39-2.87,106.73-31.5,149.47-58.12,114.43-71.25,232.39-163.52,239.71-307.62,4.11-80.21-30.7-158.09-64.37-233.41-13.67-30.56-27.79-62.17-38.73-92.88C81.76,599.45,70.41,542.27,59.43,487c-15.32-77.19-31.17-157-69.7-230.59-9.66-18.4-20.47-38.33-34.09-59.48C-101.19,108.53-221.57,70-330.45,105.41c-88.58,28.78-205.63,59.44-325.39,41C-698.62,139.82-747,122.84-795,97.79c41.1,19.56,82,33.18,117.84,38.86C-549.5,157-427.24,120.22-335,85.89a273.08,273.08,0,0,1,167.85-6.76c50.57,14.22,94,43,124.14,81.92q5.67,7.33,10.71,15.14C-17.89,198.53-6.5,219.56,3.65,239,44,316.21,60.1,400.2,75.66,481.43c11.32,59.12,23,120.26,44,179.16,11.67,32.78,26.88,66.48,41.59,99.07,35.74,79.19,72.69,161.08,67.69,245.22C219.69,1161.5,85,1258-31.25,1324.52c-43.38,24.83-94.33,51.61-150,55-60.47,3.72-116.24-16.81-157-57.8-57.21-57.47-103.62-144.27-141.85-265.33-4.27-13.55-8.58-27.76-13.55-44.72-26.11-89.3-64.51-166.37-114.08-229-59.52-75.21-137.89-133.62-232.91-173.59-81.81-34.42-171.35-50.17-257.94-65.4C-1216.56,523-1338.45,501.53-1440,432.4c-25.81-17.63-47.81-39.55-66.79-63.1a438.46,438.46,0,0,1-50.32-78.77,416.14,416.14,0,0,1-30.86-80.32c-2.42-9.2-4.42-18.5-5.91-27.87-1.34-8.44-.57-17.23.52-25.68a162.69,162.69,0,0,1,16.51-52.42q4-8,8.75-15.58c18-29,42.51-53.76,61.89-72.07,9-8.47,19.11-17.57,31.78-28.63,58-51,115.94-86.58,172.24-105.67,70.55-23.93,141.14-23.07,209.84,2.54,4,1.47,7.81,3.06,11.61,4.71C-1074.29-103.09-1067.79-95.71-1061.13-88.42ZM-906.21,22.77q5.36,4.65,10.83,9.35l-.22-.13q-7.5-6.18-14.78-12.6l1.74,1.29Zm-61-47.77c5,4.86,10.08,9.76,15.2,14.65q-3.21-1.71-6.49-3.35c-6.68-6.18-13.2-12.52-19.62-18.92q4.41,2.67,8.69,5.47ZM-985-39.44c-3.63-3.66-7.24-7.33-10.81-11l-2.72-2.77q3.78,2.67,7.47,5.42,6.59,6.15,13,12.37C-980.31-36.77-982.63-38.12-985-39.44Zm-12.79-9.4c1.74,1.78,3.52,3.57,5.28,5.36q-4.11-2.13-8.35-4.12-9-9.23-17.75-18.55,4.88,2.87,9.59,5.91Q-1003.35-54.54-997.78-48.84Zm-26.51-23.35-1.64-1.73q-5.53-5.91-11.13-11.83,4.07,2.85,8,5.8,6.35,6,12.53,12.19Q-1020.35-70-1024.29-72.19Zm-6.86-3.62q-4.68-2.37-9.55-4.55c-5.33-5.82-10.62-11.66-15.83-17.44-.25-.29-.51-.57-.77-.86q5.37,3.09,10.54,6.39Q-1038.87-84.06-1031.15-75.81Zm-31.22-28.47q-6.12-6.8-12.36-13.57,4.51,3.13,8.9,6.42,6.15,5.93,12.11,12Q-1058-101.93-1062.37-104.28Zm-6.33-3.24c-3.37-1.67-6.8-3.29-10.3-4.82-2.71-3.12-5.45-6.25-8.13-9.35l-7.62-8.77q5.6,3.18,11,6.61Q-1076.14-115.75-1068.7-107.52Zm-30.73-28.29q-6.08-6.93-12.26-13.79,4.65,3.19,9.16,6.58,6.19,6,12.18,12.27Q-1094.82-133.37-1099.43-135.81Zm-6.2-3.22c-6.44-3.18-13.11-6.1-20.06-8.73-130.65-49.75-265-11-399.17,115.12-13,12.11-23.3,22.09-32.53,31.39-29.34,29.71-48.77,54-63,78.78-18.64,32.47-27,64.11-25.65,96.83,7.71,59,40.06,136.09,87.67,197.58,21.59,27.88,46.33,52.58,73.32,70.92,106.52,72.25,234.12,93.62,357.51,114.3,91.84,15.38,186.82,31.29,273.09,68,95.3,40.53,174.55,101,235.61,179.89.39.51.78,1,1.18,1.54,50.31,65.42,89.11,145,115.35,236.5,4.81,16.77,9.34,31.89,13.84,46.22,39.45,125.49,88.3,215,149.39,273.63,41.24,39.59,98.6,58.9,161.54,54.37,61.35-4.4,121-35.79,153.11-52.66,116-61,271.59-162.16,283.09-335.42,5.95-89.13-33.38-175.54-71.41-259.1-15.71-34.52-32-70.21-44.3-104.89-22.19-62.39-34.23-127.3-45.86-190.07C81.24,389.54,64.83,301,22.35,219.52,11.64,199-.38,176.77-15.67,153.09c-32.28-50-83.87-86.51-145.27-102.85A283.66,283.66,0,0,0-341.56,62c-95.48,39.59-222.24,82.23-356,60.28-37.9-6.18-81.3-21.36-124.86-43.21,36.28,16.56,71.75,28.18,103.51,33.5,68.3,11.49,181.28,16.72,373-70.16,123.22-55.83,273.57-16.27,342.3,90,16.09,24.88,28.68,48.22,39.88,69.73,44.31,85.18,61,177.9,77.11,267.58,12,66.57,24.34,135.41,47.89,201.59,13.08,36.73,30.39,74.49,47.14,111,40.11,87.45,81.58,177.87,74.76,270.93-5.58,76.29-38.94,146.4-99.16,208.37-49.78,51.22-116.59,96.69-204.24,139-48,23.17-99.82,45.21-153.92,49.66-64.8,5.34-120.74-11.76-161.78-49.45-64.3-59.08-115.24-150.66-155.71-280-4.67-14.95-9.28-30.52-14.1-47.63-26.52-94.26-66-176.86-117.38-245.5-63.34-84.66-145-148.88-242.76-190.85-91.3-39.21-192-55.31-289.38-70.88-128.36-20.52-261.08-41.74-371.65-116.47-90.45-61.22-155.17-190.63-165.46-280.3-1.74-33.78,6.24-66.7,24.38-100.63C-1653.8,42-1634.27,16-1604.66-15.93c9.44-10.13,20-20.94,33.15-34,136.69-136.26,274.77-178.66,410.4-126a233.54,233.54,0,0,1,40.82,20.7Q-1112.85-147.23-1105.63-139Zm138,110.15-.11-.07-.23-.22ZM-1006-61.27l-1.23-.78-2.07-2.09Q-1007.66-62.71-1006-61.27Zm-36.88-31.41c-.69-.45-1.37-.91-2.06-1.35-.91-1-1.82-1.91-2.74-2.85C-1046.09-95.5-1044.51-94.09-1042.91-92.68Zm-36.27-31.19c-.93-.6-1.89-1.18-2.82-1.77q-1.76-1.87-3.52-3.74C-1083.4-127.56-1081.27-125.73-1079.18-123.87ZM-1115.31-155c-1-.69-2.11-1.39-3.18-2.07-1.26-1.37-2.54-2.72-3.82-4.08C-1119.94-159.08-1117.61-157-1115.31-155ZM-9.22,1476.73c-43.11,17.49-100,38.32-157.79,44.29-69.64,7.2-125.67-6.64-166.51-41.11-70.22-59.31-127.29-158.43-169.57-294.64-5-16.18-9.82-32.7-14.66-50.52-26.93-99.15-67.53-187.31-120.67-262-67-94.19-152-164.22-252.61-208.11-100.66-44.06-212.45-60.43-320.56-76.25C-1350.52,568-1494.18,547-1613.85,466.65c-44.37-29.81-87.11-79.06-120.31-138.66-31.25-56.09-51.73-117.57-56.18-168.66-2.5-37,4.83-73.26,22.42-110.81,14.09-30.07,34.67-60.87,64.77-96.95,9.73-11.67,20.7-24.2,34.52-39.43,63.22-69.76,128.58-119.09,194.28-146.62,81.19-34,163.44-34.79,244.46-2.29,30.64,12.27,56.17,30.29,79,51a237.93,237.93,0,0,0-43.54-22.74c-142.93-56.44-286.8-10-427.62,138.1-13.48,14.12-24.25,25.81-33.92,36.8-29.79,33.94-50.24,62.92-64.38,91.23-18,36.12-25.77,71.06-23.63,106.87,6.62,66,41.15,152.26,93.84,220.31,22.9,29.57,49.23,55.71,78.19,75.23,115.52,77.81,253.91,98.94,387.74,119.37,102.71,15.68,208.9,31.9,304.62,73.53C-781,695.46-698,762.29-633,851.53c52.09,71.44,92,156.57,118.68,253,4.81,17.4,9.51,33.47,14.4,49.14,41.78,134.08,95.19,228.41,163.33,288.36,41.28,36.33,98.77,52.22,166.26,46,55.91-5.18,110.61-26.77,156.75-47.21,91.7-40.6,165.54-88.71,219.46-143,64.59-65,100.6-139.13,107-220.23,7.77-98.09-36.08-193.06-78.5-284.91-17.74-38.44-36.09-78.18-49.83-116.78-24.77-69.62-37.45-142.2-49.72-212.38C118.43,369.43,101.43,272.14,55,182.67,43.22,160.05,30,135.51,13,109.29-23,53.56-81,13.66-150.19-3c-68.29-16.48-140.18-8.81-202.45,21.58C-447.69,65-591.19,123.67-739.33,98.16c-35.17-6-75-20-115.6-39.93,33.07,14.7,65.14,25.1,94.23,30.21,66.12,11.63,134.53,7.91,209.12-11.36,59.34-15.33,123-40.91,194.73-78.18C-223.3-70.54-52-30.24,25.08,88.57,42.86,116,56.65,141.64,68.89,165.24c48.3,93.18,65.58,194.7,82.28,292.87,12.59,74,25.6,150.45,51.72,223.86,14.47,40.64,33.89,82.44,52.67,122.87C300,900.58,346,999.58,337.4,1101.59c-7.18,84.9-45.38,162.08-113.54,229.42C165.52,1388.64,87.1,1437.67-9.22,1476.73Z"/></g></g></g><g class="cls-9"><rect class="cls-10" x="-445.53" y="19.62" width="2372.06" height="1367.42"/><g class="cls-11"><polygon class="cls-12" points="-144.78 188.33 -144.78 1085.05 1254.92 -175.42 259.15 -175.42 -144.78 188.33"/></g></g><g id="形狀_148_1" data-name="形狀 148 1"><path class="cls-13" d="M38,36.39,27.47,24.85a15.29,15.29,0,1,0-12.11,6,15.12,15.12,0,0,0,7.48-2L33.88,41a3.06,3.06,0,0,0,4.34-.24A3.11,3.11,0,0,0,38,36.39ZM15.36,26.27A10.82,10.82,0,1,1,26.11,15.45,10.78,10.78,0,0,1,15.36,26.27Z"/></g></g></g></svg>