<svg xmlns="http://www.w3.org/2000/svg" xmlns:xlink="http://www.w3.org/1999/xlink" viewBox="0 0 1925.28 1111.6"><defs><style>.cls-1{fill:none;}.cls-2{isolation:isolate;}.cls-3{clip-path:url(#clip-path);}.cls-4{clip-path:url(#clip-path-2);}.cls-19,.cls-20,.cls-21,.cls-5,.cls-6,.cls-8{mix-blend-mode:screen;}.cls-20,.cls-21,.cls-22,.cls-5,.cls-6{opacity:0.2;}.cls-5{fill:url(#linear-gradient);}.cls-6{fill:url(#linear-gradient-2);}.cls-24,.cls-7{mix-blend-mode:multiply;}.cls-23,.cls-24,.cls-7{opacity:0.4;}.cls-7{fill:url(#linear-gradient-3);}.cls-19,.cls-8{opacity:0.3;}.cls-9{fill:url(#linear-gradient-4);}.cls-10{fill:url(#linear-gradient-5);}.cls-11{fill:url(#linear-gradient-6);}.cls-12{fill:url(#linear-gradient-7);}.cls-13{fill:url(#linear-gradient-8);}.cls-14{opacity:0.5;}.cls-15,.cls-22,.cls-23{fill:#f2d6ff;}.cls-16{clip-path:url(#clip-path-3);}.cls-17{fill:url(#linear-gradient-9);}.cls-18{clip-path:url(#clip-path-4);}.cls-19{fill:url(#linear-gradient-10);}.cls-20{fill:url(#linear-gradient-11);}.cls-21{fill:url(#linear-gradient-12);}.cls-24{fill:url(#linear-gradient-13);}.cls-25{fill:url(#linear-gradient-14);}.cls-26{fill:url(#linear-gradient-15);}.cls-27{fill:url(#linear-gradient-16);}.cls-28{fill:url(#linear-gradient-17);}.cls-29{fill:url(#linear-gradient-18);}.cls-30{fill:url(#linear-gradient-19);}.cls-31{fill:url(#linear-gradient-20);}.cls-32{fill:url(#linear-gradient-21);}.cls-33{mix-blend-mode:soft-light;}</style><clipPath id="clip-path"><rect class="cls-1" x="-2022.26" width="1925.28" height="1111.6"/></clipPath><clipPath id="clip-path-2"><rect class="cls-1" x="-2435.41" y="-60.9" width="2372.06" height="1367.42"/></clipPath><linearGradient id="linear-gradient" x1="-1824.49" y1="391.26" x2="404.62" y2="391.26" gradientUnits="userSpaceOnUse"><stop offset="0" stop-color="#275eff" stop-opacity="0"/><stop offset="1" stop-color="#c544ad"/></linearGradient><linearGradient id="linear-gradient-2" x1="-1168.09" y1="740.86" x2="125.77" y2="740.86" xlink:href="#linear-gradient"/><linearGradient id="linear-gradient-3" x1="-479.7" y1="609.96" x2="327.31" y2="609.96" gradientUnits="userSpaceOnUse"><stop offset="0" stop-color="#c544ad"/><stop offset="1" stop-color="#275eff"/></linearGradient><linearGradient id="linear-gradient-4" x1="-2148.56" y1="-1028.71" x2="-977.41" y2="-2157.64" gradientTransform="translate(-946.22 2785.09) rotate(55.11)" xlink:href="#linear-gradient-3"/><linearGradient id="linear-gradient-5" x1="-2186.39" y1="-1071.92" x2="-1015.84" y2="-2200.26" gradientTransform="translate(-946.22 2785.09) rotate(55.11)" xlink:href="#linear-gradient-3"/><linearGradient id="linear-gradient-6" x1="-2189.91" y1="-1076.18" x2="-1019.61" y2="-2204.27" gradientTransform="translate(-946.22 2785.09) rotate(55.11)" xlink:href="#linear-gradient-3"/><linearGradient id="linear-gradient-7" x1="-2193.44" y1="-1080.34" x2="-1023.36" y2="-2208.23" gradientTransform="translate(-946.22 2785.09) rotate(55.11)" xlink:href="#linear-gradient-3"/><linearGradient id="linear-gradient-8" x1="-2196.86" y1="-1084.52" x2="-1027.15" y2="-2212.05" gradientTransform="translate(-946.22 2785.09) rotate(55.11)" xlink:href="#linear-gradient-3"/><clipPath id="clip-path-3"><rect class="cls-1" width="1925.28" height="1111.6"/></clipPath><linearGradient id="linear-gradient-9" x1="-21.95" y1="1224.31" x2="2161.79" y2="-428.26" gradientUnits="userSpaceOnUse"><stop offset="0" stop-color="#eb2e5a"/><stop offset="1" stop-color="#004bf5"/></linearGradient><clipPath id="clip-path-4"><rect class="cls-1" x="-413.15" y="-60.9" width="2372.06" height="1367.42"/></clipPath><linearGradient id="linear-gradient-10" x1="-112.4" y1="374.3" x2="1287.3" y2="374.3" gradientUnits="userSpaceOnUse"><stop offset="0" stop-color="#c544ad"/><stop offset="1" stop-color="#275eff" stop-opacity="0"/></linearGradient><linearGradient id="linear-gradient-11" x1="197.78" y1="391.26" x2="2426.88" y2="391.26" xlink:href="#linear-gradient"/><linearGradient id="linear-gradient-12" x1="854.18" y1="740.86" x2="2148.03" y2="740.86" xlink:href="#linear-gradient"/><linearGradient id="linear-gradient-13" x1="1542.56" y1="609.96" x2="2349.57" y2="609.96" xlink:href="#linear-gradient-3"/><linearGradient id="linear-gradient-14" x1="-991.91" y1="-2687.45" x2="179.24" y2="-3816.37" gradientTransform="translate(-946.22 2785.09) rotate(55.11)" xlink:href="#linear-gradient-3"/><linearGradient id="linear-gradient-15" x1="-1029.75" y1="-2730.65" x2="140.8" y2="-3858.99" gradientTransform="translate(-946.22 2785.09) rotate(55.11)" xlink:href="#linear-gradient-3"/><linearGradient id="linear-gradient-16" x1="-1033.26" y1="-2734.91" x2="137.03" y2="-3863.01" gradientTransform="translate(-946.22 2785.09) rotate(55.11)" xlink:href="#linear-gradient-3"/><linearGradient id="linear-gradient-17" x1="-1036.8" y1="-2739.07" x2="133.29" y2="-3866.96" gradientTransform="translate(-946.22 2785.09) rotate(55.11)" xlink:href="#linear-gradient-3"/><linearGradient id="linear-gradient-18" x1="-1040.22" y1="-2743.25" x2="129.5" y2="-3870.79" gradientTransform="translate(-946.22 2785.09) rotate(55.11)" xlink:href="#linear-gradient-3"/><linearGradient id="linear-gradient-19" x1="-1043.59" y1="-2747.41" x2="125.61" y2="-3874.46" gradientTransform="translate(-946.22 2785.09) rotate(55.11)" xlink:href="#linear-gradient-3"/><linearGradient id="linear-gradient-20" x1="-1050.01" y1="-2754.94" x2="118.43" y2="-3881.25" gradientTransform="translate(-946.22 2785.09) rotate(55.11)" xlink:href="#linear-gradient-3"/><linearGradient id="linear-gradient-21" x1="-1058.52" y1="-2764.68" x2="109.2" y2="-3890.31" gradientTransform="translate(-946.22 2785.09) rotate(55.11)" xlink:href="#linear-gradient-3"/></defs><g class="cls-2"><g id="圖層_1" data-name="圖層 1"><g class="cls-3"><g class="cls-4"><polygon class="cls-5" points="-1198.7 1286.89 404.62 -156.95 404.62 -504.37 164.64 -504.37 -1824.48 1286.89 -1198.7 1286.89"/><polygon class="cls-6" points="125.77 1323.44 125.77 158.29 -1168.09 1323.44 125.77 1323.44"/><path class="cls-7" d="M327,942.63c-8.15,179-157.22,305.26-328.09,375.8-87.32,36-221.7,79.25-307.43,15.09a337.82,337.82,0,0,1-31.71-27H-63.33V-60.91H-479.7c27.41-13.54,54.19-28.48,80.28-44.1,126.67-75.88,298.05-45,379.93,70.47,19.25,27.19,34.37,53,46,73.29C115.81,194.88,111,373.29,177.75,538.12,230.46,668.28,333.54,799.79,327,942.63Z"/><g class="cls-8"><path class="cls-9" d="M258.19,1252.1c68.57-67.74,107-145.4,114.22-230.84,8.69-102.59-37.43-201.85-82-297.85-18.76-40.38-38.15-82.13-52.59-122.68-26.05-73.23-39.05-149.62-51.62-223.49-16.73-98.34-34-200-82.5-293.51C91.39,60.07,77.58,34.38,59.74,6.87-18-113.11-191-153.76-325.79-83.67c-98.7,51.31-247.75,116.4-402,89.27C-761-.22-798-13-836-31.16l-5.53-4.47c-10.76-8.72-21.65-17.53-33-26-13.59-11.77-27.42-23.62-42.15-34.68-12.84-11.63-26.05-23.12-40.21-33.71a464.78,464.78,0,0,0-38-32.19,417.94,417.94,0,0,0-36.81-31.51,387.83,387.83,0,0,0-36.65-31.54,365.16,365.16,0,0,0-36.15-31.21c-26.07-25.61-55.36-48.33-92-63-81.75-32.8-164.74-32-246.65,2.3-66.05,27.68-131.73,77.23-195.2,147.28-13.84,15.26-24.84,27.81-34.59,39.5-30.23,36.24-50.91,67.2-65.09,97.45C-1755.72,5-1763.12,41.57-1760.59,79c6,69.45,41.62,160.28,96.84,231.59C-1640.18,341-1613,367.91-1583,388c120.19,80.71,264.17,101.78,403.41,122.17,107.93,15.79,219.53,32.12,319.84,76C-759.63,630-675,699.66-608.27,793.5c53,74.49,93.48,162.4,120.34,261.3,4.85,17.85,9.65,34.4,14.68,50.6,42.41,136.63,99.7,236.12,170.31,295.72,41.43,35,98.16,49,168.61,41.75,58.14-6,115.29-26.93,158.58-44.49C120.89,1359.19,199.6,1310,258.19,1252.1ZM-319-59.87C-257.34-90-186.13-97.55-118.49-81.24-50-64.72,7.41-25.2,43.12,30,60,56.11,73.23,80.6,85,103.16c46.31,89.18,63.27,186.29,79.69,280.21,12.27,70.27,25,142.94,49.81,212.74,13.77,38.69,32.14,78.48,49.91,117,42.29,91.59,86,186.3,78.3,283.83-6.38,80.57-42.16,154.19-106.36,218.81-53.69,54-127.26,102-218.65,142.45-45.93,20.34-100.36,41.83-155.86,47-66.68,6.19-123.44-9.47-164.15-45.29-67.79-59.68-121-153.64-162.63-287.3-4.88-15.65-9.58-31.7-14.39-49.08-26.72-96.71-66.77-182.09-119-253.76C-663.69,680.13-747,613-846.07,570.24c-96.06-41.78-202.44-58-305.33-73.73C-1284.92,476.12-1423,455-1538,377.58c-95-64.05-161.54-199.7-171-293.82-2.11-35.37,5.54-69.95,23.41-105.72,14-28.12,34.39-56.95,64-90.73,9.64-11,20.4-22.63,33.85-36.73,140-147.18,282.82-193.43,424.56-137.46a243,243,0,0,1,56.85,32.17q6.18,6.06,12.15,12.31a232.2,232.2,0,0,0-33.57-16.27c-136.78-53.09-275.87-10.49-413.39,126.61-13.2,13.1-23.76,23.93-33.22,34.1-29.76,32.05-49.41,58.27-63.69,85-18.33,34.29-26.4,67.58-24.64,101.84,7.18,62.52,40.63,144.2,90.79,209,22.23,28.71,47.77,54.11,75.73,73C-1385,446-1252,467.24-1123.34,487.82c97.21,15.54,197.72,31.61,288.7,70.68,97.31,41.78,178.61,105.79,241.71,190,51.2,68.42,90.56,150.77,117,244.77,4.82,17.12,9.44,32.71,14.12,47.68,40.6,129.72,91.75,221.63,156.37,281,41.6,38.23,98.28,55.57,163.89,50.16,54.58-4.49,106.72-26.65,154.93-49.93,88-42.46,155-88.11,205-139.55,60.62-62.37,94.2-133,99.81-209.77,6.86-93.61-34.73-184.3-75-272-16.73-36.48-34-74.2-47.07-110.84-23.49-66-35.85-134.76-47.8-201.24C132.21,299,115.51,206.07,71,120.58,59.81,99,47.19,75.63,31.05,50.68-38.42-56.75-190.26-96.64-314.72-40.24-406.21,1.21-544.25,53.56-686.08,29.7c-36.95-6.19-79-20.94-121.49-42.19,35.2,16,69.4,27.2,100.13,32.47,63.61,11,129.5,7.85,201.45-9.49C-449-3.24-387.88-26.25-319-59.87ZM-918.44-94.54q6.42,5.83,12.74,11.66c-1.68-1-3.37-2-5.09-3q-7-6.59-13.85-13.19C-922.56-97.59-920.49-96.08-918.44-94.54Zm610.37,78.17A280.7,280.7,0,0,1-129.31-28C-68.56-11.83-17.53,24.32,14.43,73.78,29.67,97.37,41.66,119.56,52.34,140c42.33,81.2,58.71,169.56,74.54,255,11.66,62.86,23.7,127.85,46,190.4,12.37,34.77,28.64,70.51,44.37,105.07,37.92,83.31,77.13,169.47,71.22,258-8.7,131-98.24,237-281.79,333.52-31.89,16.77-91.24,48-152,52.34-62.12,4.47-118.73-14.57-159.41-53.62-60.78-58.36-109.44-147.54-148.77-272.66-4.5-14.31-9-29.41-13.83-46.17-26.31-91.78-65.25-171.6-115.73-237.25l-1.19-1.55c-61.32-79.19-140.93-140-236.64-180.67-86.59-36.82-181.73-52.76-273.74-68.18-123.09-20.61-250.38-41.94-356.4-113.85C-1537,302-1599.88,178.88-1611,93.66c-1.35-32.2,7-63.46,25.37-95.55,14.11-24.59,33.42-48.74,62.61-78.29,9.21-9.28,19.52-19.23,32.47-31.33,133.38-125.35,266.69-163.9,396.24-114.57a224.47,224.47,0,0,1,25.52,11.59q6,6.87,12,13.75l4.9,5.64c-2.31-1-4.63-1.9-7-2.78-69.34-25.85-140.59-26.71-211.79-2.57-56.63,19.21-114.89,54.94-173.14,106.19-12.69,11.09-22.81,20.2-31.85,28.7C-1495.19-47.15-1519.89-22.26-1538,7c-18.68,30.16-27.65,61-26.66,91.81,8.12,54.9,38.07,126.81,83.41,185.37,20.94,27.05,45.19,51.26,72.07,69.61,102,69.47,224.2,91,342.38,111.75,86.44,15.2,175.81,30.92,257.33,65.22,94.61,39.8,172.62,98,231.88,172.82,49.29,62.36,87.65,139.2,113.68,228.22,5,17,9.28,31.2,13.57,44.77,38.34,121.4,84.93,208.49,142.41,266.27,41.35,41.54,97.89,62.35,159.18,58.57C-92.41,1298-41.11,1271,2.54,1246c116.82-66.86,252.1-163.82,261.4-321.53,5-84.66-32-166.8-67.88-246.24-14.69-32.55-29.88-66.2-41.52-98.9-20.89-58.74-32.59-119.79-43.9-178.84C95,319.13,78.92,235,38.42,157.44,28.23,138,16.82,116.9,2.36,94.49-28,47.4-76.43,12.53-134-3.65A276,276,0,0,0-303.63,3.18c-91.91,34.2-213.71,70.87-340.7,50.62-39.52-6.25-85.16-22.22-130.45-45.2C-736.6,26.29-699,38.65-665.68,44.08-531.17,66.15-403.91,23.37-308.07-16.37ZM-993.62-150.85q9.3,9.93,18.91,19.9-4.14-1.81-8.4-3.48c-7.12-7.06-14-14.35-20.8-21.69Q-998.67-153.58-993.62-150.85Zm98.27,77.46q9.55,8.74,19.46,17.37l-1.2-.65c-1.09-.86-2.22-1.7-3.3-2.56-7.22-5.79-14.21-11.92-21.1-18.15C-899.42-76.06-897.37-74.74-895.35-73.39Zm-129.83-91.75c7.76,8.37,15.7,16.58,23.94,24.38-110.06-34.56-223.18-6.91-345.38,84.31-11,8.19-20.84,15.6-30.46,23.28-20.06,16-43,35.64-60.9,60.1-9.87,13.46-17.84,28.09-22.83,43.6-5.36,16.71-7.51,32.35-3.5,49.45a338.41,338.41,0,0,0,14.13,45,423.86,423.86,0,0,0,50.52,93.31q4.31,6,8.86,11.89c19.89,25.7,43,48.82,68.55,66.47,93.13,64,204.73,85.81,312.67,106.89,75.45,14.74,153.47,30,225.28,59.46,92.23,37.86,166.93,90.22,222,155.61,47.68,56.53,84.75,127.72,110.36,211.68,3.8,12.45,8.26,27,13,41.85,23.16,72.59,61.66,177.61,128.47,251.53,41.2,45.58,96.05,69.38,154.47,67,54.07-2.18,102.92-30.54,147.65-60.85,110-74.55,212.54-161.73,218-293.72,3.19-75.77-29.38-149.41-60.87-220.62-12.64-28.56-25.7-58.11-35.92-86.82C94.64,517.28,83.65,464,73,412.49,58,339.47,42.38,264,5.8,194.29c-9.14-17.34-19.35-36.13-32.12-56-52.81-82.24-162.31-120-266.18-91.69-90.95,24.76-198.93,47.84-310.1,31.28C-647.22,71.33-698,53.63-747.67,27.5c42.89,20.72,85.53,34.85,123.76,40.69C-503.54,86.78-386.06,56-297.17,27.13c101.49-33,213-1.07,272.61,75.89q5.44,7,10.3,14.57c13.57,21.06,24.35,40.94,34,59.29,38.39,73.3,54.2,153,69.49,230,11,55.37,22.37,112.63,42,167.85,11,30.8,25.11,62.45,38.79,93,33.56,75.08,68.27,152.72,64.18,232.4-4.07,80.29-35.6,179.4-238.57,305.78-42.45,26.44-92.41,54.87-148.12,57.71-58.95,3-113.88-19-154.66-62-54.35-57.25-97.2-139.21-134.92-258-4.06-12.8-8.28-26.55-13.27-43.28-25.91-86.79-63.79-161.07-112.44-220.74-57.5-70.46-134.21-126-228-165-77-32-160.87-47.54-242-62.56-112.73-20.87-229.29-42.45-326.35-108.83-26.14-17.95-48.24-40.43-67.21-64.51a435.34,435.34,0,0,1-49.87-80.26c-12.4-25.65-22.52-52.38-28.82-79.81-1.94-8.42-3.35-16.47-2.86-25.07a131.42,131.42,0,0,1,4-25.41c4.56-17.7,12.7-34.55,23.14-50.08,17.74-26.4,40.88-48.1,61.18-65.85,10.48-9.1,21.13-17.84,31.08-25.92,129-104.89,249.35-134.88,367.93-91.7Zm84.24,66.76c5.56,4.84,11.35,9.6,17.23,14.32q-10.34-7.66-20-15.47c.9.37,1.82.73,2.72,1.11Zm2.8,9.29c6.79,4.87,13.65,9.55,20.52,14.12-1.28-.44-2.53-.91-3.83-1.34-134.6-44.37-251.61,11.65-327.91,57.65l-1.67,1c-9.07,5.47-18.46,11.12-27.4,16.85-20.57,13.17-42,28.06-59.53,47.65a127.94,127.94,0,0,0-23.11,35.71,99.71,99.71,0,0,0-5.83,19c-1.62,8.19-2.44,15-.3,23.1,2.21,8.4,4.82,16.72,7.75,24.94a367,367,0,0,0,22.1,49.55,399.21,399.21,0,0,0,36.25,55.93c19.89,25.7,42.43,48.07,65.78,64.39,84.57,58.82,186,81.06,284.15,102.57,64.1,14.05,130.38,28.58,192,53.16,91.54,36.49,161,81.76,212.22,138.4C-501,664.34-465,730-439.88,808.78l4.32,13.54q4,12.55,8.12,25.41C-407,910.87-370.63,1003.2-313,1084.45a179.32,179.32,0,0,0,149.8,75.49c55.8-1.09,104.11-34.14,144-66.33C68,1023.32,153.25,944.89,155.48,827.7c1.33-67-26.77-132.19-53.95-195.27C91,607.93,80.07,582.6,71.3,558c-15.6-43.86-25.81-89.19-35.68-133C21,360.13,5.93,293.1-26.83,231.15c-8.06-15.2-17.05-31.66-28.18-49C-109.1,97.57-210.71,79.68-281.33,90c-78.81,11.56-176.89,26-279.53,12C-608.71,95.59-663.46,77.21-715,50.23c-4.82-2.52-9.65-5.16-14.47-7.85,50.07,25.9,101.86,43.51,147.36,49.91,107.32,15.34,209-3.14,295.83-21.66,76.35-16.28,175.4,1.7,233.12,76.24,3.57,4.62,7,9.46,10.24,14.52,11.88,18.52,21.47,36.1,30.05,52.35,34.51,65.51,49.81,136.6,64.6,205.34C62,466.86,72.61,516.26,89.61,564c9.51,26.76,21.52,54.25,33.13,80.83C152,711.78,182.2,781,180,851.84,176,978.15,81.3,1058.46-15.4,1129.88c-43.05,31.79-90.31,61.44-144.25,63-56.29,1.7-109.54-23.27-149.93-70.3-60.78-70.76-96.62-167.23-121-243.36-4.17-13-8.18-25.85-12.09-38.37l-.63-2C-468.83,757.2-505.54,688.5-552.5,634.66-605.67,573.72-679.06,524-770.63,487c-67-27.14-139.39-42.09-209.35-56.55-102.68-21.22-208.86-43.15-297.2-104.21-26.5-18.4-48.7-41.59-67.6-66.35a414.66,414.66,0,0,1-48.3-81.25c-5-11-9.41-22.2-13.24-33.56-2.88-8.52-6.32-17-7.94-25.78-1.49-8.1-.56-16.42.94-24.48,3.25-17.33,10.94-33.77,21.44-48.54q2.88-4.05,6-8c17.57-21.81,40-39.24,59.72-53.42,9.81-7.07,19.93-13.91,29.71-20.53,122.64-83,229.65-105.19,336.44-69.86C-952.89-100-945.67-94.5-938.14-89.09ZM-280.9,92.38c69.78-10.23,170.22,7.45,223.6,90.92,11.08,17.31,20,33.72,28.09,48.87C3.41,293.86,18.47,360.74,33,425.42c9.88,43.9,20.11,89.3,35.75,133.28,8.79,24.7,19.71,50.06,30.28,74.58,27.08,62.88,55.09,127.89,53.77,194.38-2.21,116.23-87,194.24-173.75,264.18-39.54,31.9-87.37,64.65-142.31,65.72a176.31,176.31,0,0,1-147.52-74.4c-57.5-81-93.82-173.1-114.16-236.1Q-429,834.24-433,821.67l-4.33-13.54C-462.62,729-498.8,663-544.86,612.15c-51.53-56.94-121.27-102.43-213.2-139.08-61.88-24.66-128.27-39.22-192.48-53.29-97.86-21.45-199-43.64-283.17-102.14-27.28-19.06-50-43.33-69.18-69a386.16,386.16,0,0,1-50.58-90.3q-4.11-10.5-7.48-21.23c-2.33-7.45-5.5-14.5-5-22.38a94.52,94.52,0,0,1,4.38-23.26c5.08-15.82,14.26-30.33,25.69-43.11,17.3-19.36,38.58-34.13,59-47.2,8.91-5.71,18.28-11.35,27.34-16.82l1.67-1c75.82-45.71,192.06-101.39,325.53-57.39,4.73,1.56,9.33,3.28,13.84,5.08q12.24,7.88,24.56,15.12Q-876.7-49.3-869.4-45c5.69,3.67,11.43,7.2,17.17,10.66q7.79,5.06,15.67,9.84c2.62,1.72,5.24,3.45,7.9,5.15-17.89-10.48-37-19.82-58.42-26.6-54.56-17.26-109.53-20-168.07-8.41-45.69,9.06-91.94,26.4-145.56,54.56L-1204.15,2c-8.25,4.33-16.78,8.81-24.94,13.35-23.52,13.09-42.53,25.14-58.84,41.42A118.37,118.37,0,0,0-1310,86.57c-7.6,14.93-12.15,29.7-7.21,45.85a328.69,328.69,0,0,0,20,49.7,391.55,391.55,0,0,0,41.26,65.81c19.48,25.15,41.49,47.11,64.1,63,80.49,56.37,177.15,78.93,270.62,100.74,58.19,13.58,118.36,27.62,174.69,49.69,92,36,157.89,77.28,207.31,129.8,45,47.75,80.41,110.63,105.35,186.85q4.25,12.93,8.54,26.26l3.63,11.23c19.77,60.82,54.46,150,107.51,229.34,33.65,50.46,88.84,80.26,147.43,79.71,57.38-.52,106.13-37.18,142.19-69.07,80.27-71,152.37-143.64,152.94-252,.39-62.61-25.5-123.7-50.54-182.78-9.49-22.4-19.31-45.56-27.32-68.09-14.23-40-24-81.27-33.46-121.18C2.64,370.64-12.25,307.76-43.14,249.57-50.66,235.45-59,220.16-69.35,204c-48.07-75.4-138.13-97.11-206.36-92.27q-12.44.89-25.14,1.84C-373,118.94-454.89,125-540,114c-46.19-5.83-98.53-22.23-147.37-46.17-15.15-7.42-30.71-15.84-46.28-25l-.46-.28c5.92,3.34,11.84,6.6,17.75,9.69,51.84,27.13,106.93,45.62,155.1,52.07C-458.21,118.38-359.9,104-280.9,92.38Zm5.39,21.74c67.43-4.78,156.39,16.61,203.87,91.08,10.26,16.07,18.62,31.32,26.12,45.4,30.75,57.93,45.61,120.67,60,181.34,9.46,40,19.26,81.3,33.53,121.42,8,22.59,17.86,45.78,27.37,68.21,25,58.87,50.74,119.75,50.36,181.92-.56,107.44-72.29,179.71-152.14,250.32-35.72,31.57-83.94,67.88-140.38,68.38-57.64.54-111.88-28.84-145.14-78.55-52.9-79.14-87.51-168.1-107.23-228.79l-3.64-11.23q-4.31-13.3-8.54-26.26c-25-76.54-60.68-139.71-105.86-187.72-49.7-52.8-115.88-94.25-208.28-130.44C-802,437.06-862.28,423-920.57,409.39c-93.22-21.75-189.6-44.24-269.66-100.31-27.67-19.49-50.52-44.47-69.79-70.78-20.87-28.5-38-59.5-49.76-92-3-8.21-7.89-17.63-7.15-26.41a85.4,85.4,0,0,1,5.82-24.62c5.3-13.24,13.78-25.35,24.11-35.87l1-1c16.1-16.07,34.94-28,58.28-41,8.13-4.53,16.65-9,24.88-13.32l3.44-1.81C-1045.51-78.55-947.95-62.66-888-43.67c41.15,13,74,35.69,105.69,57.61,15.15,10.46,30.81,21.28,47.19,30.92,15.62,9.2,31.25,17.64,46.46,25.1,49.11,24.07,101.76,40.56,148.26,46.43,85.39,11,167.38,4.93,239.73-.43Q-287.94,115-275.51,114.12ZM-943.39-96.06c-3.15-2.32-6.35-4.64-9.43-7l1.57.57C-948.65-100.33-946.06-98.19-943.39-96.06ZM-958.6-107.6q-17.25-13.49-32.49-27.25c2.18.77,4.31,1.59,6.43,2.41q7,7,14.32,13.61,6.57,5.92,13.56,11.82C-957.39-107.22-958-107.4-958.6-107.6Zm-6.81-2.21C-1071-142.5-1177-119.42-1298-37.56c-9.79,6.63-19.92,13.48-29.76,20.58-19.81,14.27-42.46,31.83-60.22,53.87-9.83,12.2-17.91,25.61-23.11,40-2.89,8-5.39,16.14-6.41,24.5-1,8,.34,15.38,2.36,23.19a333.18,333.18,0,0,0,15.31,44.93,414.55,414.55,0,0,0,53.59,92.61c.33.44.67.87,1,1.31,19.35,25,41.75,47.54,66.45,64.68,88.79,61.37,195.25,83.37,298.21,104.65,69.84,14.43,142.05,29.35,208.86,56.4,91.18,36.91,164.23,86.36,217.13,147,46.77,53.57,83.31,122,108.69,203.41l.63,2c3.91,12.51,7.93,25.36,12.1,38.38,24.5,76.33,60.41,173,121.49,244.16,40.92,47.65,94.94,72.94,152.11,71.22,54.72-1.64,102.43-31.54,145.83-63.59,97.18-71.78,192.38-152.5,196.32-279.82,2.27-71.34-28.06-140.76-57.39-207.9-11.6-26.55-23.59-54-33.08-80.68-17-47.65-27.57-97-37.83-144.69C39.47,349.74,24.14,278.5-10.52,212.72c-8.61-16.29-18.22-33.92-30.14-52.51C-96.91,72.41-204.89,50.82-286.92,68.32c-86.61,18.47-188,36.89-294.81,21.62C-629.57,83.21-684.45,64-736.92,35.71c46.08,22.9,92.58,38.45,133.9,44.53,111.7,16.64,220-6.52,311.28-31.36,96.49-26.27,197.84,5,253.07,76.36q5.33,6.89,10.06,14.25c12.73,19.79,22.91,38.53,32,55.82,36.44,69.39,52,144.74,67,217.62,10.65,51.59,21.65,104.94,40,156.46,10.25,28.79,23.33,58.37,36,87,31.39,71,63.85,144.39,60.68,219.65-2.51,60.72-25.4,115.78-70,168.31-42.14,49.68-98,90.36-147,123.6-44.39,30.09-92.82,58.22-146.18,60.38-57.55,2.34-111.65-21.15-152.3-66.13-66.49-73.55-104.88-178.3-128-250.68-4.74-14.86-9.2-29.39-13-41.83-25.69-84.25-63-155.73-110.8-212.49-55.38-65.7-130.43-118.3-223.05-156.33C-855.27,471.25-933.43,456-1009,441.22c-107.65-21-219-42.77-311.63-106.46-26.3-18.15-48.51-40.87-67.47-65.24a419.55,419.55,0,0,1-49-80.45c-11.79-25.28-22-52.06-26.68-79.23-2.26-13.08,2-28.72,6.33-41.16a153,153,0,0,1,21.67-40.44C-1418,4-1395.26-15.5-1375.33-31.4c9.59-7.65,19.44-15,30.39-23.22,123.32-92,237.2-118.95,347.93-82.21C-987.17-127.76-976.59-118.73-965.41-109.81Zm76.53,46.71c-7.18-5.46-14.19-11-20.87-16.56-3.1-2.59-6.11-5.32-9.14-8,2.17,1.18,4.3,2.39,6.42,3.62C-904.81-76.88-896.95-69.87-888.88-63.1Zm-22.66-14.82c1.58,1.33,3.25,2.63,4.86,4q-13.52-10.17-26.07-20.76c1.68.79,3.32,1.61,5,2.43C-922.47-87.39-917.08-82.56-911.54-77.92Zm-27.91-22.48c-8.16-7.15-16-14.72-23.74-22.43q4.5,2.28,8.86,4.72,10.16,10.27,20.75,20.35C-935.52-98.66-937.47-99.55-939.45-100.4Zm-6.67-2.72c-1.22-.48-2.46-.94-3.7-1.4-6.43-5.3-12.71-10.63-18.65-16-3.34-3-6.58-6.2-9.83-9.34,2.76,1.17,5.49,2.38,8.17,3.64Q-958.46-114.33-946.12-103.12Zm-42.54-33.39c-.51-.19-1-.4-1.53-.58-1.78-.63-3.58-1.19-5.36-1.79-.74-.69-1.55-1.37-2.29-2.06-7.54-7.06-14.79-14.52-21.92-22.11q5,2,9.79,4.1C-1003-151.37-995.92-143.86-988.66-136.51Zm-34.92-30.59q-9.79-10.59-19.24-21.39c3.76,1.76,7.46,3.59,11.07,5.51l5.55,6.16c4,4.46,8.08,9,12.17,13.45Q-1018.72-165.32-1023.58-167.1Zm-5.17-1.83c-118.25-41.34-238.19-10.74-366.5,93.58-9.48,7.71-20.61,16.83-31.15,26-20.42,17.86-43.71,39.7-61.6,66.33a168.26,168.26,0,0,0-22.29,46.57c-4.93,17-7.07,33.27-3.42,50.61a333,333,0,0,0,12.6,43.76,442.23,442.23,0,0,0,46.46,92.78q9,13.79,19.17,26.93c20.34,26.27,43.83,49.81,69.76,67.61,97.54,66.71,214.4,88.34,327.42,109.26,81,15,164.71,30.5,241.42,62.4,93.37,38.83,169.73,94.07,227,164.21,48.52,59.5,86.2,133.45,112,219.95,5,16.74,9.22,30.5,13.28,43.31,37.82,119.12,80.86,201.36,135.45,258.89,41.33,43.55,97,65.85,156.82,62.8,56.39-2.87,106.73-31.51,149.47-58.12,114.43-71.25,232.39-163.52,239.71-307.63,4.11-80.2-30.7-158.08-64.37-233.4-13.67-30.56-27.8-62.17-38.73-92.89-19.59-55.07-30.94-112.24-41.92-167.54-15.32-77.19-31.17-157-69.7-230.59C12.45,157.47,1.64,137.54-12,116.39-68.82,28-189.19-10.48-298.07,24.9c-88.58,28.78-205.63,59.44-325.4,40.94-42.77-6.53-91.13-23.51-139.17-48.56,41.09,19.55,82,33.18,117.84,38.85C-517.12,76.49-394.86,39.7-302.62,5.38A273,273,0,0,1-134.77-1.38c50.57,14.22,94,43,124.13,81.91Q-5,87.88.08,95.68c14.41,22.34,25.8,43.37,36,62.77,40.35,77.25,56.45,161.24,72,242.47,11.32,59.12,23,120.26,44,179.15,11.67,32.79,26.88,66.49,41.58,99.08,35.74,79.19,72.7,161.08,67.7,245.21C252.07,1081,117.41,1177.46,1.13,1244c-43.38,24.83-94.34,51.61-150,55-60.47,3.72-116.25-16.8-157-57.79-57.21-57.48-103.62-144.28-141.85-265.33-4.27-13.55-8.58-27.76-13.55-44.73-26.11-89.3-64.51-166.36-114.08-229C-635,627-713.33,568.57-808.35,528.59c-81.81-34.42-171.35-50.17-257.95-65.4-117.88-20.73-239.78-42.17-341.29-111.3-25.81-17.63-47.81-39.55-66.79-63.1A438.81,438.81,0,0,1-1524.7,210a416.14,416.14,0,0,1-30.86-80.32c-2.42-9.21-4.42-18.5-5.91-27.87-1.34-8.44-.57-17.24.51-25.68a163.09,163.09,0,0,1,16.52-52.43q4-7.95,8.75-15.57c18-29,42.51-53.76,61.89-72.07,9-8.47,19.11-17.57,31.78-28.63,58-51,115.94-86.58,172.24-105.67,70.55-23.93,141.14-23.07,209.84,2.54,4,1.46,7.81,3.06,11.61,4.71C-1041.91-183.6-1035.41-176.22-1028.75-168.93ZM-873.84-57.74q5.37,4.65,10.83,9.34l-.21-.12q-7.5-6.19-14.78-12.6c.58.43,1.17.85,1.74,1.28Zm-61-47.77c5,4.86,10.08,9.76,15.2,14.65q-3.21-1.71-6.49-3.35c-6.68-6.18-13.2-12.53-19.62-18.92q4.41,2.67,8.69,5.47Zm-17.73-14.44c-3.63-3.66-7.24-7.33-10.81-11l-2.72-2.77q3.78,2.67,7.47,5.42,6.58,6.15,13,12.37C-947.93-117.28-950.25-118.63-952.61-119.95Zm-12.79-9.4c1.74,1.78,3.52,3.57,5.28,5.36q-4.11-2.13-8.35-4.13-9-9.21-17.75-18.54,4.88,2.86,9.59,5.9Q-971-135-965.4-129.35Zm-26.51-23.35-1.64-1.74q-5.54-5.9-11.13-11.82,4.06,2.83,8,5.8,6.36,6,12.54,12.19Q-988-150.53-991.91-152.7Zm-6.86-3.63q-4.69-2.35-9.55-4.54c-5.33-5.82-10.62-11.66-15.83-17.44-.25-.29-.51-.58-.77-.86q5.37,3.09,10.54,6.39Q-1006.49-164.57-998.77-156.33ZM-1030-184.79q-6.12-6.79-12.36-13.57,4.51,3.13,8.9,6.41,6.15,5.94,12.11,12Q-1025.58-182.43-1030-184.79Zm-6.33-3.24q-5.06-2.52-10.3-4.82c-2.71-3.12-5.45-6.25-8.14-9.35q-3.79-4.38-7.61-8.77,5.59,3.18,11,6.6Q-1043.75-196.25-1036.32-188Zm-30.73-28.3q-6.08-6.91-12.26-13.78,4.65,3.2,9.16,6.58,6.2,6,12.18,12.27C-1060.95-213-1064-214.69-1067-216.33Zm-6.2-3.21c-6.45-3.18-13.11-6.1-20.06-8.73-130.65-49.76-265-11-399.17,115.12-13,12.11-23.3,22.08-32.53,31.39-29.34,29.71-48.77,54-63,78.78-18.64,32.47-27,64.11-25.65,96.83,7.71,59,40.06,136.09,87.67,197.58,21.59,27.88,46.33,52.57,73.32,70.92,106.52,72.25,234.12,93.62,357.51,114.29,91.84,15.39,186.82,31.3,273.09,68,95.3,40.53,174.55,101,235.6,179.89l1.19,1.54c50.3,65.42,89.11,145,115.35,236.5,4.81,16.77,9.34,31.89,13.84,46.22,39.45,125.49,88.3,215,149.39,273.63,41.23,39.59,98.6,58.9,161.54,54.37,61.35-4.41,121-35.79,153.11-52.66,116-61,271.59-162.16,283.09-335.43,5.95-89.12-33.38-175.53-71.41-259.1-15.71-34.51-32-70.21-44.3-104.89-22.19-62.38-34.23-127.29-45.86-190.07C113.62,309,97.21,220.51,54.73,139,44,118.5,32,96.25,16.71,72.58c-32.28-50-83.87-86.51-145.27-102.85A283.6,283.6,0,0,0-309.18-18.53c-95.48,39.59-222.24,82.23-356,60.27-37.9-6.17-81.3-21.35-124.87-43.2C-753.79,15.09-718.32,26.71-686.56,32c68.3,11.5,181.28,16.73,373-70.15C-190.31-93.95-40-54.39,28.77,51.87c16.09,24.88,28.68,48.21,39.88,69.72,44.31,85.19,61,177.91,77.11,267.58,12,66.57,24.34,135.41,47.89,201.59,13.07,36.74,30.39,74.5,47.14,111,40.11,87.45,81.58,177.88,74.75,270.94-5.57,76.29-38.93,146.4-99.15,208.37-49.78,51.22-116.59,96.69-204.24,139-48,23.16-99.82,45.21-153.92,49.66-64.8,5.34-120.75-11.76-161.78-49.45-64.3-59.08-115.25-150.66-155.71-280-4.67-14.95-9.28-30.53-14.1-47.63-26.52-94.26-66-176.86-117.38-245.51-63.34-84.65-145-148.88-242.76-190.85-91.3-39.2-192-55.3-289.38-70.87C-1251.24,465-1384,443.73-1494.53,369-1585,307.79-1649.7,178.38-1660,88.71c-1.74-33.78,6.24-66.7,24.38-100.63,14.18-26.56,33.72-52.62,63.33-84.52,9.44-10.14,20-21,33.15-34,136.69-136.26,274.76-178.65,410.4-126a233.86,233.86,0,0,1,40.82,20.69Q-1080.47-227.73-1073.25-219.54Zm138,110.15-.11-.08-.23-.21C-935.47-109.59-935.36-109.49-935.25-109.39Zm-38.4-32.39c-.4-.27-.82-.52-1.23-.78l-2.07-2.09Q-975.29-143.22-973.65-141.78Zm-36.89-31.41-2.05-1.36-2.74-2.85C-1013.72-176-1012.13-174.6-1010.54-173.19Zm-36.27-31.19c-.92-.6-1.88-1.18-2.81-1.77q-1.76-1.87-3.52-3.74C-1051-208.07-1048.89-206.24-1046.81-204.38Zm-36.12-31.09c-1-.69-2.11-1.4-3.18-2.08-1.26-1.36-2.54-2.71-3.82-4.07Q-1086.39-238.59-1082.93-235.47ZM23.16,1396.22c-43.11,17.48-100,38.32-157.79,44.29-69.64,7.19-125.67-6.64-166.51-41.12-70.22-59.3-127.29-158.42-169.57-294.63-5-16.18-9.82-32.7-14.66-50.52-26.93-99.16-67.53-187.31-120.67-262C-673,698-758,628-858.65,584.11c-100.66-44.06-212.45-60.43-320.56-76.25-138.93-20.33-282.59-41.36-402.26-121.72-44.37-29.81-87.11-79.06-120.31-138.67C-1733,191.39-1753.51,129.91-1758,78.82c-2.5-37,4.83-73.27,22.42-110.81,14.09-30.07,34.67-60.88,64.76-97,9.74-11.66,20.71-24.19,34.53-39.42C-1573-238.14-1507.67-287.47-1442-315c81.19-34,163.43-34.79,244.46-2.29,30.64,12.28,56.17,30.3,79,51a238.52,238.52,0,0,0-43.54-22.73C-1305-345.5-1448.86-299-1589.68-151c-13.48,14.13-24.25,25.82-33.92,36.81-29.79,33.94-50.24,62.92-64.38,91.22-18,36.13-25.77,71.07-23.63,106.87,6.62,66,41.15,152.27,93.84,220.32,22.9,29.57,49.23,55.7,78.19,75.22,115.52,77.82,253.91,98.94,387.74,119.38,102.7,15.68,208.9,31.9,304.62,73.53C-748.63,615-665.64,681.77-600.6,771c52.09,71.45,92,156.58,118.68,253,4.8,17.39,9.51,33.47,14.4,49.14,41.77,134.08,95.19,228.41,163.33,288.36,41.28,36.33,98.77,52.22,166.26,46,55.91-5.18,110.61-26.78,156.75-47.21,91.7-40.6,165.54-88.72,219.46-143,64.59-65,100.6-139.13,107-220.23C353.07,899,309.22,804,266.8,712.15,249.06,673.72,230.71,634,217,595.38c-24.78-69.63-37.45-142.2-49.72-212.38-16.44-94.08-33.44-191.37-79.9-280.84C75.59,79.54,62.38,55,45.4,28.77,9.33-26.95-48.65-66.85-117.81-83.54-186.1-100-258-92.34-320.26-62c-95.05,46.39-238.55,105.12-386.69,79.6-35.17-6-75-19.94-115.6-39.92,33.07,14.69,65.14,25.1,94.22,30.21C-662.2,19.56-593.79,15.84-519.2-3.43c59.34-15.33,123-40.91,194.73-78.19C-190.92-151.06-19.58-110.76,57.46,8.06,75.24,35.5,89,61.13,101.27,84.73c48.3,93.18,65.58,194.69,82.28,292.87,12.59,74,25.6,150.44,51.72,223.85,14.47,40.65,33.89,82.45,52.67,122.87,44.48,95.74,90.48,194.74,81.84,296.76C362.6,1106,324.4,1183.16,256.24,1250.5,197.9,1308.13,119.48,1357.16,23.16,1396.22Z"/><path class="cls-10" d="M-519.13,126.09c-44.67-5.26-94.59-19.67-140.56-40.58-14.46-6.57-29-13.84-44.61-22.22-15.86-8.54-31.15-18.12-46-27.39-31-19.45-63.13-39.55-102.47-51.42C-969.4-50.74-1074-15.5-1152,19.12l-4.68,2.07c-7.6,3.37-15.46,6.85-23,10.38-18.76,8.79-40.28,19.48-58.16,35.19A107.42,107.42,0,0,0-1260,93a81.61,81.61,0,0,0-7.93,18.28c-2.22,7.6-4,14.41-1.34,22.08,2.89,8.46,5.9,16.86,9.42,25.14a361.66,361.66,0,0,0,25.72,49.3,380.67,380.67,0,0,0,22.43,32.28c19.13,24.71,40.86,46.37,63.27,62.29,76.63,54.1,168.79,77.06,257.9,99.26,52,13,105.83,26.37,156.54,45.85,92.62,35.58,155,73,202.4,121.2,44.09,44.92,79,105,103.68,178.58,4,11.78,7.91,23.83,11.89,36,27.77,84.89,62.54,161.65,100.53,222,33.08,52.49,87.3,83.86,145.08,83.93,59.66.08,108.69-41,140.37-71.82C37,952.11,102.33,880,101.24,779.3,100.67,721,77,664,54.05,608.83c-8.42-20.25-17.12-41.17-24.36-61.54-12.82-36-22.1-73.12-31.08-109-14.24-56.92-29-115.77-58.06-170.3-7-13-14.75-27.16-24.24-42.07-35.93-56.54-105.65-91.15-186.4-92.45-21.1-.33-42.23-.23-64.59-.12C-393.36,133.64-454,133.94-519.13,126.09Zm249,9.77c79.8,1.28,148.65,35.42,184.15,91.25C-76.53,242-68.79,256-61.83,269-32.88,323.31-18.18,382-4,438.83,5,474.74,14.32,511.88,27.18,548c7.26,20.42,16,41.38,24.4,61.65C74.42,664.6,98,721.41,98.6,779.32c1.09,99.86-61.13,168.83-130.53,236.46-31.35,30.54-79.81,71.13-138.44,71-56.82-.06-110.18-31-142.78-82.72-37.9-60.17-72.58-136.76-100.3-221.48-4-12.19-7.93-24.25-11.9-36-24.83-73.93-59.88-134.31-104.23-179.46C-577.2,518.61-639.91,481-732.92,445.32c-50.87-19.55-104.76-33-156.86-46-88.87-22.14-180.76-45-257-98.84-28-19.91-51.18-45.34-70.54-72.21-20.7-28.73-37.51-60.06-48.51-92.89-2.39-7.16-2.21-12.71-.45-20A77.4,77.4,0,0,1-1258.69,96,103.47,103.47,0,0,1-1236,68.46c17.62-15.48,38.93-26.07,57.53-34.78,7.53-3.52,15.38-7,23-10.36l4.67-2.07c77.61-34.42,181.56-69.46,297.33-34.52,39,11.76,70.91,31.77,101.79,51.12,14.84,9.29,30.17,18.9,46.1,27.48,15.62,8.41,30.27,15.7,44.78,22.3,46.22,21,96.45,35.52,141.41,40.82,65.27,7.87,126,7.57,184.8,7.28C-312.32,135.62-291.21,135.52-270.13,135.86Z"/><path class="cls-11" d="M-675,83.71c-15.41-7.48-30.39-15.85-44.87-23.95C-750,42.9-781.21,25.46-818.36,14.87-866.57,1.11-915.82-2.43-968.92,4c-40.64,4.94-83.37,15.74-134.45,34l-5.59,2c-7.19,2.56-14.36,5.11-21.4,7.76-19.45,7.31-39.9,15.57-57.49,28.95a97,97,0,0,0-22.37,23.55c-8.45,12.83-14.41,26.68-8.65,41.29a364.7,364.7,0,0,0,24,50.06A371.9,371.9,0,0,0-1167.63,232c18.86,24.36,40.39,45.83,62.71,61.82,73.12,52.11,161.23,75.62,246.44,98.36C-813,404.31-766,416.85-721.36,433.63c65.91,24.76,140.91,57.51,197.49,112.6,43.18,42,77.49,99.33,102,170.3,4.27,12.35,8.45,25,11.61,34.57,22,66.65,49.3,149.59,93.6,214.66,49,72,104.65,87.64,142.67,88.08,46.37.55,91.69-23.84,138.56-74.57,57-61.65,112.36-129.75,109.54-224.18C72.57,700.93,51,647.9,30.18,596.61c-7.31-18-14.86-36.56-21.3-54.67-11.34-31.88-20-64.61-28.47-96.27-14.16-53.2-28.8-108.21-56.17-159.24C-81.9,275-89.35,261.54-98,247.83c-45.07-71.2-131.39-88.49-166.39-92.61-36.42-4.28-73-6.18-111.65-8.19-39.07-2-79.48-4.14-122.18-8.89-43.35-4.7-90.86-17.13-133.77-35C-645.58,97.51-659.63,91.15-675,83.71Zm176.39,56.79c42.78,4.77,83.23,6.87,122.35,8.9,38.64,2,75.13,3.91,111.45,8.18,34.62,4.07,119.9,21,164.45,91.43,8.65,13.65,16.08,27.1,22.19,38.45,27.25,50.8,41.86,105.69,56,158.76C-13.72,477.92-5,510.7,6.37,542.67c6.45,18.15,14,36.76,21.33,54.76,20.77,51.11,42.25,104,43.78,157.72,2.79,93.61-52.28,161.3-108.93,222.6-46.33,50.14-91,74.25-136.49,73.71-67.69-.79-113.75-47.72-140.46-86.94-44.12-64.81-71.4-147.59-93.32-214.1-3.17-9.61-7.35-22.24-11.62-34.6-24.63-71.3-59.15-128.9-102.59-171.21-56.92-55.42-132.24-88.31-198.41-113.17-44.79-16.83-91.86-29.39-137.39-41.54-85-22.68-172.83-46.12-245.55-97.94-28.65-20.54-52.3-46.69-71.87-74.42A365.11,365.11,0,0,1-1201.06,175q-5.64-10.89-10.44-22.11c-3.12-7.3-8.23-15-7.31-23.08a63.38,63.38,0,0,1,7.45-22.64c5.92-11,14.71-20.63,25-28.49a1.56,1.56,0,0,0,.2-.16c17.31-13.16,37.55-21.33,56.8-28.57,7-2.64,14.18-5.18,21.36-7.74l5.59-2c80-28.56,176.18-53.64,283.25-23.09,36.83,10.51,67.88,27.87,97.91,44.65,14.52,8.11,29.54,16.5,45,24s29.49,13.86,43.09,19.52C-590,123.27-542.19,135.77-498.58,140.5Z"/><path class="cls-12" d="M-784,45.26c-99.7-26.6-192.78-9-270.68,11.65l-7.17,1.9c-6.42,1.69-12.81,3.38-19.12,5.14-20,5.6-39.49,11.55-56.82,22.7a83.91,83.91,0,0,0-25.91,25.54c-3.65,5.83-7,12.08-8.45,18.69-1.64,7.6,1.69,13.61,4.77,20.53a341.73,341.73,0,0,0,27.11,49.33q7.63,11.59,16.22,22.68c18.73,24.19,40.21,45.62,62.59,61.84,70.18,50.55,155,74.85,237.1,98.36,38.21,10.95,77.74,22.27,115.59,36.13,64.33,23.58,137.57,53,192.58,104,42.3,39.22,76.06,93.73,100.34,162,3.46,9.74,7.17,20.57,11.33,33.11l3.62,10.94c22.41,67.63,45.59,137.56,83,196.34,50.11,78.73,109.42,91.62,140.31,92.3,59.4,1.32,107.15-41.32,136.74-77.32C7.43,882.43,51.48,816.32,47,730.88c-2.56-50.17-22-99.42-40.87-147C0,568.31-6.37,552.25-11.93,536.6c-9.75-27.42-17.75-55.5-25.48-82.64-14.18-49.8-28.84-101.28-54.66-149.11-5.61-10.33-12.41-22.58-20.31-35.11-35.44-56.23-99.16-81.48-146.38-92.75-52-12.43-103.92-16.8-158.84-21.42-19.29-1.63-39.23-3.3-59.8-5.38a509.81,509.81,0,0,1-127-29.4c-12.65-4.73-26.15-10.18-41.27-16.67s-29.63-13.57-43.81-20.48C-718.76,69.36-749,54.58-784,45.26Zm137.22,61c15.16,6.5,28.7,12,41.39,16.72a512.7,512.7,0,0,0,127.7,29.56c20.59,2.08,40.54,3.76,59.85,5.38,54.81,4.62,106.58,9,158.4,21.35,46.74,11.16,109.79,36.12,144.77,91.63,7.86,12.47,14.64,24.69,20.23,35,25.7,47.61,40.33,99,54.48,148.66,7.74,27.18,15.74,55.29,25.52,82.77C-8.86,553-2.51,569.08,3.64,584.63,22.41,632.09,41.82,681.17,44.37,731,48.81,815.69,5,881.37-43,939.73c-29.22,35.55-76.29,77.66-134.55,76.37-30.34-.67-88.67-13.45-138.09-91.11-37.26-58.54-60.4-128.34-82.77-195.84L-402,718.21c-4.16-12.56-7.87-23.41-11.34-33.16-24.41-68.64-58.37-123.48-101-162.95-55.36-51.34-128.9-80.88-193.47-104.55-38-13.9-77.53-25.24-115.8-36.2-81.83-23.43-166.44-47.68-236.24-98-28.69-20.79-52.51-47-72.13-75a355.36,355.36,0,0,1-22.65-36.77q-5-9.4-9.41-19.06c-2.57-5.68-6.68-11.4-5.81-17.78a53.64,53.64,0,0,1,5.81-16.94c6.12-11.78,16-21.77,27.74-29.3,17-11,36.23-16.83,56.07-22.37,6.29-1.76,12.68-3.44,19.08-5.13l7.18-1.9C-976.4,38.6-883.79,21.11-784.74,47.54c34.67,9.25,64.85,24,94,38.19C-676.5,92.66-661.81,99.82-646.78,106.27Z"/><path class="cls-13" d="M-1013.88,77.14c-5.92,1-11.83,2-17.69,3-20.6,3.66-39,7.42-56.14,16.45-10.13,5.36-19.15,12.54-25.72,21.34-5.15,6.91-13.06,19.74-9.19,28.14a348.26,348.26,0,0,0,41.37,68c18.81,24.28,40.51,45.95,63.25,62.64,68.33,49.84,151.4,75.38,231.73,100.07,29.7,9.13,60.41,18.56,90.09,29.13,72.77,25.89,137.12,50.93,187.68,95.39,42,36.93,74.27,87.23,98.65,153.76,3.53,9.61,7.15,20,11.05,31.64q4.65,13.85,9.23,27.85c19.34,58.77,39.34,119.54,70.43,172.05,48.35,81.65,107.19,95.53,138,96.53,22.72.73,81.35-5.59,134.92-80.1,34.3-47.7,72.81-113.12,66.14-196.35-3.67-46.56-21.21-92.4-38.16-136.72-4.87-12.71-9.9-25.86-14.46-38.69-7.95-22.34-14.94-45.14-21.71-67.19-14.42-47-29.33-95.59-53.93-140.78-5.05-9.24-11.19-20.22-18.34-31.63-24.38-38.92-65.72-69.32-126.36-92.88-62.15-24.14-121-29.3-189.19-35.27l-14.27-1.26c-42.93-3.71-83.36-11.72-120.18-23.81-11.82-3.88-24.41-8.29-39.62-13.9-14.53-5.35-28.89-11.27-42.77-17-28.41-11.72-57.79-23.84-90.53-31.88C-841,53.21-926.82,62.47-1006,75.82Zm263.55.8c32.53,8,61.81,20.08,90.12,31.75,13.91,5.74,28.29,11.67,42.87,17,15.24,5.62,27.86,10,39.71,13.94,37,12.15,77.69,20.21,120.83,23.94l14.27,1.25C-374.58,171.81-315.9,177-254.12,201c60.08,23.34,101,53.4,125.1,91.86,7.12,11.35,13.23,22.3,18.27,31.5,24.49,45,39.37,93.48,53.76,140.37,6.77,22.07,13.77,44.9,21.74,67.29,4.56,12.85,9.6,26,14.47,38.73,16.9,44.18,34.39,89.86,38,136.13,6.61,82.52-31.65,147.49-65.72,194.88-52.84,73.49-110.35,79.74-132.62,79-30.2-1-88-14.65-135.72-95.27-31-52.3-50.93-113-70.23-171.6-3.08-9.33-6.13-18.63-9.23-27.86-3.91-11.7-7.53-22.07-11.07-31.71-24.52-66.89-57-117.5-99.32-154.71-50.91-44.77-115.51-69.92-188.55-95.9-29.74-10.59-60.48-20-90.21-29.17-80.12-24.62-163-50.09-230.91-99.67-28.89-21.19-53.07-47.61-72.91-75.91q-10-14.25-18.48-29.3-4.2-7.47-8-15.12c-2.63-5.3-6.12-10-4.66-16a52.54,52.54,0,0,1,6.43-15.31c6.42-10.31,16.3-18.63,27.57-24.58,16.75-8.84,35-12.56,55.32-16.17,5.85-1,11.74-2,17.66-3l7.92-1.32C-926.64,64.85-841.16,55.62-750.33,77.94Z"/></g><g class="cls-14"><path class="cls-15" d="M15.15,669.15l-80,72.05-.28.25-.28.25-33.88,30.51c3.14-.33,6.28-.74,9.4-1.23l28.78-25.92.27-.25L18.89,673l.27-.25,26.55-23.9c.55-2.82,1-5.64,1.37-8.47L15.43,668.9Z"/><path class="cls-15" d="M28.81,681l-.28.25-.28.25-79.72,71.8-.28.25-13,11.68c4.46-1.37,8.86-2.94,13.21-4.66l3.5-3.15.28-.26.28-.25,80-72,.28-.25,1.27-1.15c1.91-3.91,3.65-7.87,5.17-11.89L28.81,681Z"/><path class="cls-15" d="M-87.59,720.71h0l79.72-71.79.28-.25,53.94-48.58c-.35-2.07-.72-4.13-1.16-6.18L-11.33,644.8l-.28.26-80.28,72.29-.28.25h0l-58.75,52.91c2.29.4,4.58.73,6.87,1L-87.87,721Z"/><path class="cls-15" d="M-114.35,696.62l79.71-71.8h0l.28-.26,68.73-61.89c-.81-1.66-1.64-3.32-2.51-5l-70,63h0l-.28.25-80.28,72.29-.28.25-72.18,65c1.82.79,3.67,1.53,5.52,2.26l71-63.9Z"/><path class="cls-15" d="M-141.39,672.77l.28-.25,79.72-71.79.28-.25.27-.25,75.49-68c-1.15-1.37-2.3-2.73-3.51-4.08l-76,68.44-.28.25-.28.25-79.72,71.79-.28.25-.28.25-78.22,70.45c1.49,1.09,3,2.12,4.52,3.15l77.72-70Z"/><path class="cls-15" d="M-154.77,660.72l.28-.25,79.72-71.79.28-.25.28-.25,76.57-69c-1-1-2-1.94-3-2.89-.3-.27-.61-.51-.92-.78l-76.63,69-.28.25-.28.25-79.72,71.79-.28.25-.28.26-78.86,71c.3.27.57.55.87.82,1.05.94,2.13,1.83,3.2,2.74L-155,661Z"/><path class="cls-15" d="M-74.49,733l.28-.24L5.51,661l.28-.25.28-.25,42.2-38c0-2.35-.07-4.71-.2-7.06l-46,41.44-.28.26-.28.25-79.72,71.79-.28.25L-127,773.1c2.61.12,5.22.17,7.84.18l44.43-40Z"/><path class="cls-15" d="M-101.25,708.92l.28-.25,79.72-71.8.28-.24.28-.26,62.21-56c-.6-1.84-1.26-3.67-1.94-5.49l-64.29,57.9L-25,633l-.28.25L-105,705.05l-.28.25-.28.25-66.52,59.91c2,.61,4,1.2,6.09,1.74l64.45-58Z"/><path class="cls-15" d="M-128,684.82l.28-.25L-48,612.78l.28-.25.28-.26,72.83-65.59c-1-1.5-2-3-3.07-4.46l-73.78,66.44-.28.25-.28.25L-131.75,681l-.28.25-.28.25-76,68.46c1.65.94,3.29,1.88,5,2.76l75.07-67.6Z"/></g></g></g><g class="cls-16"><rect class="cls-17" x="-413.15" y="-60.9" width="2372.06" height="1367.42"/><g class="cls-18"><g class="cls-14"><path class="cls-15" d="M1084.94,219.64l-69.66,62.73-.24.22-.25.22-29.5,26.57c2.73-.29,5.46-.64,8.19-1.07l25-22.57.25-.22L1088.2,223l.24-.21L1111.56,202q.7-3.67,1.19-7.38l-27.56,24.83Z"/><path class="cls-15" d="M1096.84,229.91l-.24.22-.24.22-69.43,62.52-.24.22-11.3,10.17q5.83-1.8,11.5-4.06l3-2.75.25-.21.24-.22,69.67-62.74.24-.22,1.11-1c1.66-3.4,3.17-6.85,4.5-10.35l-9.11,8.2Z"/><path class="cls-15" d="M865.31,86.56a137.86,137.86,0,0,0-11.68,11.92L878.56,76A144.27,144.27,0,0,0,865.31,86.56Z"/><path class="cls-15" d="M867.3,149.12,936.73,86.6l.24-.22,42-37.82q-3.33-.23-6.66-.31L933.72,83l-.25.22L863.81,146l-.24.22-.25.22-40.54,36.51c.06,2,.18,4,.34,6l43.94-39.57Z"/><path class="cls-15" d="M844,128.13l69.43-62.51.24-.22,13.14-11.84c-3.58,1-7.12,2.07-10.64,3.28L910.41,62l-.24.22L840.5,125l-.24.21-.24.22-7.7,6.94c-1.35,3.16-2.59,6.35-3.65,9.58l15.09-13.59Z"/><path class="cls-15" d="M890.61,170.11,960,107.59l.25-.22.24-.22,56.94-51.27c-1.74-.57-3.49-1.08-5.25-1.58L957,104l-.24.22-.24.22L887.11,167l-.24.21-.25.22-57.13,51.45c.56,1.58,1.13,3.16,1.76,4.73l59.12-53.25Z"/><path class="cls-15" d="M995.47,264.54h0L1064.9,202l.24-.22,47-42.3c-.31-1.8-.63-3.6-1-5.39l-49.22,44.32-.24.22-69.91,63-.24.22h0L940.33,307.9c2,.35,4,.64,6,.91l48.92-44.05Z"/><path class="cls-15" d="M972.17,243.55,1041.59,181h0l.25-.22,59.85-53.9c-.71-1.45-1.43-2.9-2.19-4.33l-60.92,54.86h0l-.24.22-69.91,63-.24.22-62.86,56.61c1.59.69,3.19,1.34,4.8,2l61.8-55.65Z"/><path class="cls-15" d="M878.72,159.83l.24-.22,69.67-62.73.24-.22,50.46-45.45q-2.91-.57-5.85-1L945.37,93.51h0l-.24.22-.25.21-69.42,62.52-.24.22L824.92,202q.51,2.64,1.15,5.26l52.4-47.19Z"/><path class="cls-15" d="M855.41,138.85l.24-.22,69.43-62.52.24-.22.24-.22,30-27q-3.94.3-7.88.79l-25.58,23-.25.22-.24.22-69.42,62.52-.24.22-27.78,25c-.37,2.35-.65,4.72-.88,7.09l31.91-28.73Z"/><path class="cls-15" d="M925.32,201.8l69.91-63,.24-.22h0l66.35-59.75c-1.28-1-2.56-1.9-3.86-2.82L991.73,135.7l-.24.22h0l-69.42,62.51-.25.22L853.66,260q1.53,1.75,3.13,3.47L925.08,202Z"/><path class="cls-15" d="M901.77,181l.25-.22,69.91-63,.24-.22,61.58-55.45c-1.56-.71-3.12-1.41-4.7-2.06l-60.38,54.36h0l-.24.22-.24.22-69.43,62.52h0l-.24.22L836,234c.73,1.43,1.51,2.83,2.3,4.23L901.77,181Z"/><path class="cls-15" d="M948.62,222.79l.25-.22,69.42-62.52.24-.22.25-.22,65.73-59.19c-1-1.2-2-2.38-3-3.55l-66.18,59.59-.24.22-.25.22-69.42,62.52-.24.22-.25.22L876.76,281.2c1.3.95,2.62,1.85,4,2.75L948.38,223Z"/><path class="cls-15" d="M937,212.29l.24-.21,69.43-62.52.24-.22.24-.22,66.69-60.05c-.88-.84-1.74-1.69-2.65-2.51-.26-.24-.53-.45-.8-.69L1003.63,146l-.25.22-.24.22-69.42,62.52-.24.21-.25.22-68.67,61.85.75.72c.92.82,1.86,1.59,2.79,2.38l68.63-61.8Z"/><path class="cls-15" d="M913.67,191.31l.24-.22,69.43-62.52.24-.22.24-.22,64.69-58.25c-1.41-.85-2.85-1.64-4.29-2.43L980.32,125l-.24.21-.24.22-69.43,62.52-.24.22-.24.22-65.84,59.28c.89,1.3,1.77,2.6,2.7,3.87l66.64-60Z"/><path class="cls-15" d="M1006.88,275.25l.24-.22,69.43-62.52.24-.21.25-.22,36.75-33.1c0-2-.06-4.1-.18-6.14l-40.07,36.09-.25.22-.24.21-69.42,62.52-.24.22-42.27,38.06c2.28.1,4.55.15,6.83.15l38.69-34.84Z"/><path class="cls-15" d="M983.58,254.26l.24-.21,69.43-62.52.24-.22.24-.22,54.18-48.79c-.52-1.6-1.1-3.19-1.69-4.78l-56,50.42-.24.22-.24.22L980.32,250.9l-.24.21-.24.22L921.91,303.5c1.76.53,3.53,1.05,5.31,1.52l56.12-50.54Z"/><path class="cls-15" d="M960.28,233.28l.24-.22,69.42-62.52.24-.22.25-.21L1093.86,113c-.86-1.32-1.77-2.6-2.68-3.89L1026.93,167l-.24.22-.24.21L957,229.91l-.24.22-.24.22L890.34,290c1.43.82,2.87,1.64,4.32,2.41L960,233.5Z"/></g><polygon class="cls-19" points="-112.4 107.82 -112.4 1004.53 1287.3 -255.93 291.53 -255.93 -112.4 107.82"/><polygon class="cls-20" points="823.56 1286.89 2426.88 -156.95 2426.88 -504.37 2186.9 -504.37 197.78 1286.89 823.56 1286.89"/><polygon class="cls-21" points="2148.03 1323.44 2148.03 158.29 854.18 1323.44 2148.03 1323.44"/><polygon class="cls-22" points="1804.96 -36.33 1539.61 202.63 1585.46 202.63 1850.81 -36.33 1804.96 -36.33"/><polygon class="cls-23" points="1617.22 83.16 1429.56 252.14 1461.99 252.14 1649.64 83.16 1617.22 83.16"/><g class="cls-14"><path class="cls-15" d="M1380.73,1031.05a245.66,245.66,0,0,0-21.1,21.53l45-40.54A257.45,257.45,0,0,0,1380.73,1031.05Z"/><path class="cls-15" d="M1384.32,1144l125.33-112.87.44-.39,75.83-68.29q-6-.39-12-.55l-69.68,62.76-.44.4L1378,1138.31l-.44.39-.44.39L1303.94,1205c.11,3.61.32,7.22.61,10.82l79.33-71.45Z"/><path class="cls-15" d="M1342.25,1106.11l125.33-112.87.44-.4,23.73-21.36c-6.47,1.72-12.87,3.74-19.21,5.92l-10.39,9.36-.44.4-125.77,113.26-.44.39-.44.4-13.9,12.52c-2.43,5.71-4.67,11.46-6.58,17.3l27.23-24.53Z"/><path class="cls-15" d="M1426.39,1181.88,1551.72,1069l.44-.39.44-.4,102.79-92.56c-3.14-1-6.3-1.95-9.47-2.85l-99.63,89.72-.44.4-.44.39-125.33,112.87-.44.39-.44.4-103.14,92.88c1,2.86,2,5.7,3.16,8.53L1426,1182.27Z"/><path class="cls-15" d="M1573.64,1314.47,1699,1201.61h0l.44-.4,108-97.3c-1.27-2.62-2.57-5.23-4-7.82l-110,99.05h0l-.44.4-126.21,113.65-.43.4L1453,1411.77c2.87,1.24,5.77,2.41,8.68,3.56l111.56-100.46Z"/><path class="cls-15" d="M1404.92,1163.33l.44-.39,125.77-113.26.44-.4,91.1-82q-5.26-1-10.55-1.87l-86.87,78.22h0l-.44.4-.43.39L1399,1157.25l-.43.39-90.81,81.78c.62,3.18,1.31,6.34,2.07,9.5l94.61-85.2Z"/><path class="cls-15" d="M1362.85,1125.44l.44-.39,125.33-112.87.44-.39.44-.4,54.1-48.72c-4.75.38-9.5.84-14.23,1.44l-46.19,41.6-.44.4-.43.39L1357,1119.36l-.43.4-50.14,45.15c-.67,4.25-1.18,8.52-1.6,12.8l57.61-51.87Z"/><path class="cls-15" d="M1489.06,1239.1l126.21-113.65.44-.4h0l119.77-107.86q-3.45-2.61-7-5.09L1609,1119.76l-.44.39h0L1483.18,1233l-.44.39-123,110.82c1.83,2.12,3.72,4.21,5.65,6.28l123.28-111Z"/><path class="cls-15" d="M1446.55,1201.61l.44-.4,126.21-113.65.44-.39L1684.8,987.06c-2.82-1.28-5.63-2.55-8.48-3.73l-109,98.15h0l-.44.4-.43.39-125.34,112.87h0l-.44.4-112.93,101.7c1.31,2.57,2.72,5.1,4.14,7.64l114.67-103.26Z"/><path class="cls-15" d="M1531.13,1277l.44-.39,125.33-112.87.44-.39.43-.39,118.67-106.87c-1.8-2.16-3.61-4.3-5.5-6.41l-119.48,107.59-.44.39-.44.4L1525.25,1270.9l-.44.4-.43.39-123,110.75c2.34,1.71,4.72,3.34,7.11,5l122.18-110Z"/><path class="cls-15" d="M1510.09,1258l.44-.39,125.33-112.87.45-.39.43-.4,120.39-108.41c-1.6-1.51-3.14-3-4.79-4.53-.47-.43-1-.82-1.44-1.24l-120.47,108.5-.44.39-.44.39L1504.22,1252l-.44.39-.44.4-124,111.65c.47.43.89.87,1.37,1.3,1.64,1.48,3.35,2.87,5,4.3l123.89-111.56Z"/><path class="cls-15" d="M1468,1220.15l.44-.39,125.33-112.87.44-.39.44-.39,116.79-105.18c-2.56-1.52-5.16-2.95-7.76-4.38l-115.34,103.87-.44.4-.44.39-125.33,112.87-.44.39-.44.4-118.85,107c1.59,2.35,3.18,4.69,4.87,7l120.29-108.33Z"/><path class="cls-15" d="M1552.16,1295.92l.44-.39,125.33-112.86.44-.4.44-.39,114.51-103.12c-1.55-2.37-3.19-4.7-4.83-7l-116,104.46-.44.4-.44.39-125.33,112.87-.44.39-.44.4-119.5,107.61c2.59,1.48,5.17,3,7.8,4.35l118-106.28Z"/></g><polygon class="cls-22" points="1458.57 419.32 1136.44 709.4 1192.11 709.4 1514.23 419.32 1458.57 419.32"/><polygon class="cls-22" points="1522.5 569.54 1257.14 808.5 1302.99 808.5 1568.35 569.54 1522.5 569.54"/><polygon class="cls-23" points="1387.8 617.37 1200.14 786.36 1232.57 786.36 1420.23 617.37 1387.8 617.37"/><path class="cls-24" d="M2349.27,942.63c-8.15,179-157.22,305.26-328.08,375.8-87.33,36-221.71,79.25-307.44,15.09a337.82,337.82,0,0,1-31.71-27h276.89V-60.91H1542.56c27.41-13.54,54.19-28.48,80.28-44.1,126.67-75.88,298.05-45,379.93,70.47,19.25,27.19,34.37,53,46,73.29,89.31,156.13,84.53,334.54,151.25,499.37C2252.72,668.28,2355.8,799.79,2349.27,942.63Z"/><g class="cls-8"><path class="cls-25" d="M2280.45,1252.1c68.57-67.74,107-145.4,114.22-230.84,8.69-102.59-37.43-201.85-82-297.85-18.76-40.38-38.15-82.13-52.59-122.68C2234,527.5,2221,451.11,2208.42,377.24c-16.73-98.34-34-200-82.5-293.51-12.27-23.66-26.08-49.35-43.92-76.86-77.71-120-250.72-160.63-385.53-90.54-98.7,51.31-247.75,116.4-402,89.27C1261.3-.22,1224.25-13,1186.24-31.16l-5.53-4.47c-10.76-8.72-21.65-17.53-33-26-13.59-11.77-27.42-23.62-42.15-34.68-12.84-11.63-26-23.12-40.21-33.71a464.78,464.78,0,0,0-38-32.19,417.94,417.94,0,0,0-36.81-31.51,387.83,387.83,0,0,0-36.65-31.54,366.18,366.18,0,0,0-36.14-31.21c-26.08-25.61-55.36-48.33-92-63-81.76-32.8-164.74-32-246.65,2.3C513.12-289.47,447.44-239.92,384-169.87c-13.84,15.26-24.84,27.81-34.59,39.5-30.23,36.24-50.91,67.2-65.09,97.45C266.54,5,259.14,41.57,261.67,79c6.05,69.45,41.62,160.28,96.84,231.59,23.57,30.45,50.74,57.34,80.7,77.47C559.4,468.75,703.38,489.82,842.62,510.21c107.93,15.79,219.53,32.12,319.84,76C1262.63,630,1347.26,699.66,1414,793.5c53,74.49,93.48,162.4,120.34,261.3,4.85,17.85,9.65,34.4,14.68,50.6,42.41,136.63,99.7,236.12,170.31,295.72,41.43,35,98.16,49,168.61,41.75,58.15-6,115.29-26.93,158.58-44.49C2143.15,1359.19,2221.86,1310,2280.45,1252.1Zm-577.19-1312c61.66-30.09,132.87-37.68,200.51-21.37,68.49,16.52,125.9,56,161.61,111.21,16.92,26.14,30.11,50.63,41.84,73.19,46.31,89.18,63.27,186.29,79.69,280.21,12.27,70.27,25,142.94,49.81,212.74,13.77,38.69,32.14,78.48,49.91,117,42.29,91.59,86,186.3,78.3,283.83-6.38,80.57-42.16,154.19-106.36,218.81-53.69,54-127.26,102-218.65,142.45-45.93,20.34-100.36,41.83-155.86,47-66.68,6.19-123.44-9.47-164.15-45.29-67.79-59.68-121-153.64-162.63-287.3-4.88-15.65-9.58-31.7-14.39-49.08-26.72-96.71-66.77-182.09-119-253.76-65.3-89.58-148.66-156.72-247.68-199.47-96.06-41.78-202.44-58-305.32-73.73C737.34,476.12,599.27,455,484.26,377.58c-95-64.05-161.54-199.7-171-293.82-2.12-35.37,5.54-69.95,23.4-105.72,14-28.12,34.39-56.95,64-90.73,9.64-11,20.4-22.63,33.85-36.73,140-147.18,282.82-193.43,424.56-137.46A243,243,0,0,1,916-254.71q6.18,6.06,12.15,12.31a231.69,231.69,0,0,0-33.57-16.27C757.79-311.76,618.7-269.16,481.18-132.06,468-119,457.42-108.13,448-98c-29.76,32.05-49.4,58.27-63.69,85-18.33,34.29-26.39,67.58-24.64,101.84,7.18,62.52,40.63,144.2,90.79,209,22.24,28.71,47.77,54.11,75.73,73C637.22,446,770.26,467.24,898.92,487.82c97.21,15.54,197.72,31.61,288.7,70.68,97.31,41.78,178.61,105.79,241.71,190,51.2,68.42,90.56,150.77,117,244.77,4.82,17.12,9.44,32.71,14.12,47.68,40.6,129.72,91.75,221.63,156.37,281,41.6,38.23,98.28,55.57,163.89,50.16,54.58-4.49,106.72-26.65,154.93-49.93,87.95-42.46,155-88.11,205-139.55,60.62-62.37,94.2-133,99.81-209.77,6.86-93.61-34.73-184.3-75-272-16.73-36.48-34-74.2-47.07-110.84-23.48-66-35.85-134.76-47.8-201.24-16.15-89.84-32.85-182.73-77.32-268.22-11.23-21.56-23.85-44.95-40-69.9C1983.84-56.75,1832-96.64,1707.54-40.24,1616.05,1.21,1478,53.56,1336.18,29.7c-37-6.19-79-20.94-121.49-42.19,35.2,16,69.4,27.2,100.13,32.47,63.61,11,129.5,7.85,201.45-9.49C1573.22-3.24,1634.38-26.25,1703.26-59.87ZM1103.82-94.54q6.42,5.83,12.75,11.66c-1.69-1-3.38-2-5.1-3q-7-6.59-13.85-13.19C1099.7-97.59,1101.77-96.08,1103.82-94.54Zm610.37,78.17A280.7,280.7,0,0,1,1893-28c60.75,16.17,111.78,52.32,143.74,101.78,15.24,23.59,27.23,45.78,37.91,66.24,42.33,81.2,58.71,169.56,74.55,255,11.65,62.86,23.7,127.85,46,190.4,12.36,34.77,28.63,70.51,44.36,105.07,37.92,83.31,77.13,169.47,71.22,258-8.7,131-98.24,237-281.79,333.52-31.89,16.77-91.24,48-152,52.34-62.12,4.47-118.73-14.57-159.41-53.62-60.78-58.36-109.43-147.54-148.77-272.66-4.5-14.31-9-29.41-13.83-46.17-26.31-91.78-65.25-171.6-115.73-237.25l-1.19-1.55c-61.32-79.19-140.93-140-236.64-180.67-86.59-36.82-181.73-52.76-273.74-68.18-123.09-20.61-250.38-41.94-356.4-113.85C485.26,302,422.38,178.88,411.24,93.66c-1.35-32.2,6.95-63.46,25.37-95.55C450.72-26.48,470-50.63,499.22-80.18c9.21-9.28,19.52-19.23,32.47-31.33,133.38-125.35,266.69-163.9,396.24-114.57a224.47,224.47,0,0,1,25.52,11.59q6,6.87,12,13.75l4.91,5.64c-2.32-1-4.64-1.9-7-2.78-69.33-25.85-140.59-26.71-211.78-2.57-56.64,19.21-114.9,54.94-173.15,106.19-12.69,11.09-22.81,20.2-31.85,28.7C527.07-47.15,502.38-22.26,484.26,7,465.58,37.15,456.61,68,457.6,98.8c8.12,54.9,38.07,126.81,83.41,185.37,20.94,27.05,45.19,51.26,72.07,69.61,102,69.47,224.2,91,342.38,111.75,86.44,15.2,175.81,30.92,257.33,65.22,94.61,39.8,172.62,98,231.88,172.82,49.29,62.36,87.65,139.2,113.69,228.22,5,17,9.28,31.2,13.56,44.77,38.34,121.4,84.93,208.49,142.42,266.27,41.34,41.54,97.88,62.35,159.17,58.57,56.34-3.44,107.64-30.4,151.3-55.38,116.81-66.86,252.09-163.82,261.39-321.53,5-84.66-32-166.8-67.88-246.24-14.69-32.55-29.88-66.2-41.52-98.9-20.89-58.74-32.59-119.79-43.9-178.84-15.59-81.38-31.72-165.54-72.22-243.07-10.18-19.45-21.6-40.54-36.06-62.95-30.35-47.09-78.79-82-136.35-98.14a275.93,275.93,0,0,0-169.63,6.83c-91.92,34.2-213.71,70.87-340.71,50.62-39.52-6.25-85.16-22.22-130.45-45.2,38.18,17.69,75.75,30.05,109.1,35.48C1491.09,66.15,1618.35,23.37,1714.19-16.37ZM1028.64-150.85q9.3,9.93,18.91,19.9-4.14-1.81-8.4-3.48c-7.12-7.06-14-14.35-20.8-21.69Q1023.59-153.58,1028.64-150.85Zm98.27,77.46q9.57,8.74,19.46,17.37l-1.2-.65c-1.09-.86-2.22-1.7-3.3-2.56-7.22-5.79-14.21-11.92-21.1-18.15C1122.84-76.06,1124.89-74.74,1126.91-73.39ZM997.08-165.14c7.76,8.37,15.7,16.58,23.95,24.38C911-175.32,797.84-147.67,675.64-56.45c-11,8.19-20.84,15.6-30.46,23.28-20.06,16-43,35.64-60.9,60.1-9.87,13.46-17.84,28.09-22.83,43.6C556.09,87.24,554,102.88,558,120a338.41,338.41,0,0,0,14.13,45,424.28,424.28,0,0,0,50.52,93.31q4.3,6,8.86,11.89c19.89,25.7,43,48.82,68.55,66.47,93.13,64,204.73,85.81,312.67,106.89,75.45,14.74,153.47,30,225.28,59.46,92.23,37.86,166.93,90.22,222,155.61,47.68,56.53,84.75,127.72,110.36,211.68,3.8,12.45,8.26,27,13,41.85,23.17,72.59,61.66,177.61,128.47,251.53,41.2,45.58,96.05,69.38,154.47,67,54.07-2.18,102.92-30.54,147.65-60.85,110-74.55,212.54-161.73,218-293.72,3.19-75.77-29.38-149.41-60.87-220.62-12.63-28.56-25.7-58.11-35.92-86.82-18.27-51.38-29.27-104.65-39.89-156.17-15.07-73-30.65-148.53-67.23-218.2-9.14-17.34-19.35-36.13-32.12-56-52.81-82.24-162.31-120-266.18-91.69-91,24.76-198.93,47.84-310.1,31.28C1375,71.33,1324.3,53.63,1274.59,27.5c42.89,20.72,85.53,34.85,123.76,40.69C1518.73,86.78,1636.2,56,1725.09,27.13c101.49-33,213-1.07,272.61,75.89q5.44,7,10.3,14.57c13.57,21.06,24.35,40.94,34,59.29,38.39,73.3,54.2,153,69.5,230,11,55.37,22.36,112.63,42,167.85,11,30.8,25.1,62.45,38.78,93,33.56,75.08,68.27,152.72,64.18,232.4-4.07,80.29-35.6,179.4-238.57,305.78-42.45,26.44-92.41,54.87-148.12,57.71-59,3-113.88-19-154.66-62-54.35-57.25-97.2-139.21-134.92-258-4.06-12.8-8.28-26.55-13.27-43.28-25.91-86.79-63.79-161.07-112.44-220.74-57.5-70.46-134.21-126-228-165-77-32-160.86-47.54-242-62.56C871.76,431.29,755.2,409.71,658.15,343.33,632,325.38,609.9,302.9,590.93,278.82a435.34,435.34,0,0,1-49.87-80.26c-12.4-25.65-22.52-52.38-28.82-79.81-1.94-8.42-3.34-16.47-2.86-25.07a132.19,132.19,0,0,1,4-25.41c4.56-17.7,12.7-34.55,23.14-50.08,17.74-26.4,40.88-48.1,61.18-65.85,10.48-9.1,21.13-17.84,31.08-25.92,129-104.89,249.35-134.88,367.93-91.7Zm84.24,66.76c5.56,4.84,11.35,9.6,17.23,14.32-6.89-5.11-13.53-10.27-20-15.47l2.73,1.11Zm2.8,9.29c6.79,4.87,13.65,9.55,20.52,14.12-1.28-.44-2.53-.91-3.83-1.34C966.21-120.68,849.2-64.66,772.9-18.66l-1.67,1c-9.07,5.47-18.46,11.12-27.4,16.85-20.57,13.17-42,28.06-59.53,47.65-9.63,10.77-17.7,22.74-23.11,35.71a99.71,99.71,0,0,0-5.83,19c-1.62,8.19-2.44,15-.3,23.1,2.21,8.4,4.82,16.72,7.75,24.94a367.06,367.06,0,0,0,22.11,49.55,398.25,398.25,0,0,0,36.24,55.93c19.89,25.7,42.43,48.07,65.78,64.39,84.57,58.82,186,81.06,284.15,102.57,64.1,14.05,130.38,28.58,192.05,53.16,91.54,36.49,160.95,81.76,212.22,138.4,45.85,50.69,81.85,116.31,107,195.13l4.32,13.54q4,12.55,8.13,25.41c20.39,63.14,56.8,155.47,114.47,236.72a179.33,179.33,0,0,0,149.8,75.49c55.8-1.09,104.11-34.14,144-66.33,87.14-70.29,172.4-148.72,174.63-265.91,1.33-67-26.77-132.19-53.95-195.27-10.55-24.5-21.46-49.83-30.23-74.46-15.6-43.86-25.81-89.19-35.68-133-14.6-64.81-29.69-131.84-62.44-193.79-8.07-15.2-17.06-31.66-28.19-49C1913.16,97.57,1811.55,79.68,1740.93,90c-78.81,11.56-176.89,26-279.53,12-47.85-6.41-102.6-24.79-154.17-51.77-4.82-2.52-9.65-5.16-14.47-7.85,50.07,25.9,101.86,43.51,147.36,49.91,107.32,15.34,209-3.14,295.83-21.66,76.35-16.28,175.4,1.7,233.12,76.24,3.57,4.62,7,9.46,10.24,14.52,11.88,18.52,21.47,36.1,30,52.35,34.51,65.51,49.81,136.6,64.6,205.34,10.28,47.78,20.91,97.18,37.91,145,9.51,26.76,21.52,54.25,33.14,80.83,29.23,66.91,59.46,136.1,57.21,207-3.92,126.31-98.66,206.62-195.36,278-43,31.79-90.31,61.44-144.25,63-56.29,1.7-109.54-23.27-149.93-70.3-60.78-70.76-96.61-167.23-121-243.36-4.16-13-8.18-25.85-12.09-38.37l-.63-2c-25.48-81.69-62.19-150.39-109.15-204.23C1416.59,573.72,1343.2,524,1251.63,487c-67-27.14-139.39-42.09-209.35-56.55C939.6,409.19,833.42,387.26,745.09,326.2c-26.51-18.4-48.71-41.59-67.61-66.35a414.66,414.66,0,0,1-48.3-81.25c-4.95-11-9.41-22.2-13.24-33.56-2.88-8.52-6.31-17-7.94-25.78-1.49-8.1-.56-16.42,1-24.48,3.24-17.33,10.93-33.77,21.43-48.54q2.89-4.05,6-8C654,16.48,676.47-.95,696.15-15.13,706-22.2,716.07-29,725.85-35.66c122.64-83,229.65-105.19,336.44-69.86C1069.37-100,1076.59-94.5,1084.12-89.09ZM1741.36,92.38c69.78-10.23,170.22,7.45,223.61,90.92,11.08,17.31,20,33.72,28.08,48.87,32.62,61.69,47.68,128.57,62.25,193.25,9.88,43.9,20.11,89.3,35.76,133.28,8.78,24.7,19.7,50.06,30.27,74.58,27.09,62.88,55.09,127.89,53.77,194.38-2.21,116.23-87,194.24-173.75,264.18-39.54,31.9-87.37,64.65-142.31,65.72a176.31,176.31,0,0,1-147.52-74.4c-57.5-81-93.81-173.1-114.16-236.1q-4.14-12.82-8.12-25.39l-4.33-13.54c-25.27-79.14-61.45-145.09-107.51-196-51.53-56.94-121.27-102.43-213.2-139.08-61.87-24.66-128.27-39.22-192.48-53.29-97.85-21.45-199-43.64-283.17-102.14-27.27-19.06-50-43.33-69.18-69a386.52,386.52,0,0,1-50.58-90.3q-4.11-10.5-7.48-21.23c-2.33-7.45-5.5-14.5-5-22.38a95,95,0,0,1,4.38-23.26c5.08-15.82,14.26-30.33,25.69-43.11,17.31-19.36,38.58-34.13,59-47.2,8.91-5.71,18.28-11.35,27.34-16.82l1.67-1C850.19-62.4,966.43-118.08,1099.9-74.08c4.73,1.56,9.33,3.28,13.84,5.08q12.24,7.88,24.56,15.12,7.26,4.58,14.56,8.91c5.69,3.67,11.43,7.2,17.17,10.66q7.79,5.06,15.67,9.84c2.62,1.72,5.24,3.45,7.9,5.15-17.89-10.48-37-19.82-58.42-26.6-54.56-17.26-109.53-20-168.07-8.41C921.42-45.27,875.17-27.93,821.56.23L818.11,2c-8.25,4.33-16.78,8.81-24.94,13.35-23.52,13.09-42.53,25.14-58.84,41.42a118.37,118.37,0,0,0-22.06,29.76c-7.6,14.93-12.14,29.7-7.21,45.85a328.69,328.69,0,0,0,20,49.7,392.84,392.84,0,0,0,41.26,65.81c19.48,25.15,41.49,47.11,64.1,63,80.49,56.37,177.15,78.93,270.62,100.74,58.19,13.58,118.36,27.62,174.69,49.69,92,36,157.89,77.28,207.31,129.8,45,47.75,80.41,110.63,105.35,186.85q4.24,12.93,8.54,26.26l3.63,11.23c19.77,60.82,54.47,150,107.51,229.34,33.65,50.46,88.85,80.26,147.44,79.71,57.37-.52,106.12-37.18,142.19-69.07,80.27-71,152.36-143.64,152.93-252,.39-62.61-25.5-123.7-50.54-182.78-9.49-22.4-19.3-45.56-27.32-68.09-14.23-40-24-81.27-33.46-121.18-14.4-60.81-29.29-123.69-60.18-181.88-7.52-14.12-15.91-29.41-26.21-45.55-48.07-75.4-138.13-97.11-206.36-92.27q-12.43.89-25.14,1.84c-72.2,5.35-154,11.42-239.14.45-46.19-5.83-98.53-22.23-147.37-46.17-15.14-7.42-30.71-15.84-46.28-25l-.45-.28c5.91,3.34,11.83,6.6,17.74,9.69,51.84,27.13,106.93,45.62,155.1,52.07C1564.06,118.38,1662.37,104,1741.36,92.38Zm5.39,21.74c67.43-4.78,156.39,16.61,203.87,91.08,10.26,16.07,18.62,31.32,26.12,45.4,30.75,57.93,45.61,120.67,60,181.34,9.47,40,19.26,81.3,33.53,121.42,8,22.59,17.86,45.78,27.37,68.21,25,58.87,50.75,119.75,50.36,181.92-.56,107.44-72.29,179.71-152.14,250.32-35.71,31.57-83.94,67.88-140.37,68.38-57.64.54-111.88-28.84-145.15-78.55-52.9-79.14-87.51-168.1-107.23-228.79l-3.64-11.23q-4.31-13.3-8.54-26.26c-25-76.54-60.68-139.71-105.86-187.72-49.7-52.8-115.88-94.25-208.28-130.44C1220.25,437.06,1160,423,1101.69,409.39c-93.22-21.75-189.6-44.24-269.66-100.31-27.67-19.49-50.52-44.47-69.79-70.78-20.87-28.5-38-59.5-49.76-92-3-8.21-7.89-17.63-7.15-26.41a85.4,85.4,0,0,1,5.82-24.62c5.3-13.24,13.78-25.35,24.11-35.87l1-1c16.11-16.07,35-28,58.28-41,8.13-4.53,16.65-9,24.88-13.32l3.44-1.81c153.87-80.83,251.43-64.94,311.42-45.95,41.15,13,74,35.69,105.69,57.61,15.15,10.46,30.81,21.28,47.19,30.92,15.62,9.2,31.25,17.64,46.46,25.1,49.11,24.07,101.76,40.56,148.26,46.43,85.39,11,167.38,4.93,239.73-.43Q1734.32,115,1746.75,114.12ZM1078.87-96.06c-3.15-2.32-6.35-4.64-9.42-7,.52.2,1,.38,1.57.57C1073.62-100.33,1076.2-98.19,1078.87-96.06Zm-15.21-11.54q-17.25-13.49-32.49-27.25c2.18.77,4.31,1.59,6.44,2.41q7,7,14.31,13.61,6.57,5.92,13.56,11.82C1064.87-107.22,1064.26-107.4,1063.66-107.6Zm-6.8-2.21c-105.61-32.69-211.6-9.61-332.59,72.25-9.8,6.63-19.93,13.48-29.77,20.58C674.69-2.71,652,14.85,634.28,36.89c-9.83,12.2-17.91,25.61-23.11,40-2.89,8-5.39,16.14-6.41,24.5-1,8,.34,15.38,2.36,23.19a333.18,333.18,0,0,0,15.31,44.93A414.94,414.94,0,0,0,676,262.09c.33.44.67.87,1,1.31,19.35,25,41.75,47.54,66.45,64.68,88.79,61.37,195.25,83.37,298.21,104.65,69.84,14.43,142,29.35,208.86,56.4,91.18,36.91,164.23,86.36,217.14,147,46.76,53.57,83.3,122,108.68,203.41l.63,2c3.91,12.51,7.93,25.36,12.1,38.38,24.5,76.33,60.41,173,121.5,244.16,40.92,47.65,94.93,72.94,152.1,71.22,54.72-1.64,102.43-31.54,145.83-63.59,97.18-71.78,192.38-152.5,196.32-279.82,2.27-71.34-28.06-140.76-57.39-207.9-11.6-26.55-23.59-54-33.08-80.68-17-47.65-27.57-97-37.83-144.69-14.82-68.89-30.15-140.13-64.8-205.91-8.61-16.29-18.22-33.92-30.15-52.51-56.24-87.8-164.23-109.39-246.26-91.89-86.61,18.47-188,36.89-294.81,21.62-47.84-6.73-102.72-25.95-155.19-54.23,46.08,22.9,92.58,38.45,133.9,44.53,111.7,16.64,220-6.52,311.28-31.36,96.49-26.27,197.84,5,253.07,76.36q5.33,6.89,10.06,14.25c12.73,19.79,22.91,38.53,32,55.82,36.44,69.39,52,144.74,67,217.62,10.65,51.59,21.65,104.94,40,156.46,10.24,28.79,23.32,58.37,36,87,31.39,71,63.85,144.39,60.69,219.65-2.52,60.72-25.41,115.78-70,168.31-42.14,49.68-97.95,90.36-147,123.6-44.39,30.09-92.82,58.22-146.18,60.38-57.55,2.34-111.65-21.15-152.3-66.13-66.48-73.55-104.88-178.3-128-250.68-4.74-14.86-9.2-29.39-13-41.83-25.69-84.25-63-155.73-110.8-212.49-55.38-65.7-130.43-118.3-223-156.33C1167,471.25,1088.83,456,1013.24,441.22c-107.65-21-219-42.77-311.62-106.46-26.31-18.15-48.52-40.87-67.48-65.24a419.55,419.55,0,0,1-49-80.45c-11.79-25.28-22-52.06-26.68-79.23-2.26-13.08,2-28.72,6.33-41.16a153.34,153.34,0,0,1,21.67-40.44C604.24,4,627-15.5,646.93-31.4c9.59-7.65,19.44-15,30.39-23.22,123.32-92,237.2-118.95,347.93-82.21C1035.09-127.76,1045.67-118.73,1056.86-109.81Zm76.52,46.71c-7.18-5.46-14.19-11-20.87-16.56-3.1-2.59-6.11-5.32-9.14-8,2.17,1.18,4.3,2.39,6.42,3.62C1117.45-76.88,1125.31-69.87,1133.38-63.1Zm-22.66-14.82c1.58,1.33,3.25,2.63,4.86,4q-13.51-10.17-26.06-20.76c1.67.79,3.31,1.61,5,2.43C1099.79-87.39,1105.18-82.56,1110.72-77.92Zm-27.91-22.48c-8.16-7.15-16-14.72-23.74-22.43q4.5,2.28,8.86,4.72,10.17,10.27,20.76,20.35C1086.74-98.66,1084.79-99.55,1082.81-100.4Zm-6.66-2.72c-1.23-.48-2.47-.94-3.71-1.4-6.43-5.3-12.71-10.63-18.65-16-3.34-3-6.58-6.2-9.83-9.34,2.76,1.17,5.49,2.38,8.17,3.64Q1063.8-114.33,1076.15-103.12Zm-42.55-33.39c-.51-.19-1-.4-1.53-.58-1.78-.63-3.58-1.19-5.36-1.79-.74-.69-1.55-1.37-2.28-2.06-7.55-7.06-14.79-14.52-21.93-22.11q5,2,9.79,4.1C1019.24-151.37,1026.34-143.86,1033.6-136.51ZM998.68-167.1q-9.79-10.59-19.23-21.39c3.75,1.76,7.46,3.59,11.06,5.51l5.55,6.16c4,4.46,8.08,9,12.17,13.45Q1003.54-165.32,998.68-167.1Zm-5.17-1.83C875.26-210.27,755.32-179.67,627-75.35c-9.48,7.71-20.6,16.83-31.15,26C575.44-31.51,552.15-9.67,534.26,17A168.55,168.55,0,0,0,512,63.53c-4.93,17-7.07,33.27-3.42,50.61a333,333,0,0,0,12.6,43.76,442.23,442.23,0,0,0,46.46,92.78q9,13.79,19.17,26.93c20.34,26.27,43.83,49.81,69.77,67.61C754.08,411.93,870.94,433.56,984,454.48c81,15,164.71,30.5,241.42,62.4,93.37,38.83,169.73,94.07,227,164.21,48.53,59.5,86.2,133.45,112,219.95,5,16.74,9.22,30.5,13.29,43.31,37.81,119.12,80.85,201.36,135.44,258.89,41.33,43.55,97,65.85,156.83,62.8,56.38-2.87,106.72-31.51,149.46-58.12,114.43-71.25,232.39-163.52,239.71-307.63,4.11-80.2-30.7-158.08-64.37-233.4-13.67-30.56-27.79-62.17-38.73-92.89-19.59-55.07-30.94-112.24-41.92-167.54-15.32-77.19-31.17-157-69.7-230.59-9.66-18.4-20.47-38.33-34.09-59.48C1953.45,28,1833.07-10.48,1724.19,24.9c-88.58,28.78-205.63,59.44-325.39,40.94-42.78-6.53-91.14-23.51-139.18-48.56,41.1,19.55,82,33.18,117.84,38.85C1505.14,76.49,1627.4,39.7,1719.64,5.38a273,273,0,0,1,167.85-6.76c50.57,14.22,94,43,124.14,81.91q5.67,7.35,10.71,15.15c14.41,22.34,25.8,43.37,36,62.77,40.35,77.25,56.45,161.24,72,242.47,11.32,59.12,23,120.26,44,179.15,11.66,32.79,26.87,66.49,41.58,99.08,35.74,79.19,72.69,161.08,67.69,245.21-9.24,156.63-143.9,253.1-260.18,319.65-43.38,24.83-94.33,51.61-150.05,55-60.47,3.72-116.24-16.8-157-57.79-57.21-57.48-103.62-144.28-141.85-265.33-4.27-13.55-8.58-27.76-13.55-44.73-26.11-89.3-64.51-166.36-114.08-229-59.52-75.21-137.89-133.62-232.91-173.6-81.81-34.42-171.35-50.17-257.94-65.4C838.08,442.46,716.19,421,614.67,351.89c-25.81-17.63-47.81-39.55-66.79-63.1A438.81,438.81,0,0,1,497.56,210,416.14,416.14,0,0,1,466.7,129.7c-2.42-9.21-4.42-18.5-5.91-27.87-1.34-8.44-.57-17.24.52-25.68a162.82,162.82,0,0,1,16.51-52.43q4-7.95,8.75-15.57c18-29,42.51-53.76,61.89-72.07,9-8.47,19.11-17.57,31.78-28.63,58-51,115.94-86.58,172.24-105.67,70.55-23.93,141.15-23.07,209.84,2.54,4,1.46,7.82,3.06,11.61,4.71C980.35-183.6,986.85-176.22,993.51-168.93ZM1148.43-57.74q5.35,4.65,10.83,9.34l-.22-.12q-7.5-6.19-14.78-12.6c.58.43,1.17.85,1.74,1.28Zm-61-47.77c5,4.86,10.08,9.76,15.2,14.65q-3.21-1.71-6.49-3.35c-6.68-6.18-13.2-12.53-19.62-18.92q4.41,2.67,8.69,5.47Zm-17.73-14.44c-3.63-3.66-7.24-7.33-10.81-11l-2.72-2.77q3.78,2.67,7.47,5.42,6.6,6.15,13,12.37Q1073.19-118,1069.65-119.95Zm-12.79-9.4,5.28,5.36q-4.11-2.13-8.35-4.13-9-9.21-17.75-18.54,4.88,2.86,9.59,5.9Q1051.29-135,1056.86-129.35Zm-26.51-23.35-1.64-1.74q-5.54-5.9-11.13-11.82,4.06,2.83,8,5.8,6.35,6,12.53,12.19Q1034.29-150.53,1030.35-152.7Zm-6.86-3.63q-4.68-2.35-9.55-4.54c-5.33-5.82-10.62-11.66-15.83-17.44-.25-.29-.51-.58-.77-.86q5.37,3.09,10.54,6.39Q1015.77-164.57,1023.49-156.33Zm-31.22-28.46q-6.12-6.79-12.36-13.57,4.51,3.13,8.9,6.41,6.15,5.94,12.11,12Q996.68-182.43,992.27-184.79ZM985.94-188q-5.06-2.52-10.3-4.82c-2.71-3.12-5.45-6.25-8.13-9.35-2.54-2.92-5.07-5.85-7.62-8.77q5.6,3.18,11,6.6Q978.51-196.25,985.94-188Zm-30.73-28.3q-6.08-6.91-12.26-13.78,4.65,3.2,9.16,6.58,6.2,6,12.18,12.27C961.31-213,958.29-214.69,955.21-216.33Zm-6.2-3.21c-6.44-3.18-13.11-6.1-20.06-8.73C798.3-278,664-239.29,529.78-113.15c-13,12.11-23.3,22.08-32.53,31.39-29.34,29.71-48.77,54-63,78.78-18.64,32.47-27,64.11-25.65,96.83,7.71,59,40.06,136.09,87.67,197.58,21.59,27.88,46.33,52.57,73.32,70.92C676.13,434.6,803.73,456,927.12,476.64c91.84,15.39,186.82,31.3,273.09,68,95.3,40.53,174.55,101,235.61,179.89.39.51.78,1,1.18,1.54,50.31,65.42,89.11,145,115.35,236.5,4.81,16.77,9.34,31.89,13.84,46.22,39.45,125.49,88.3,215,149.39,273.63,41.24,39.59,98.6,58.9,161.54,54.37,61.35-4.41,121-35.79,153.11-52.66,116-61,271.59-162.16,283.09-335.43,5.95-89.12-33.38-175.53-71.41-259.1-15.71-34.51-31.95-70.21-44.3-104.89-22.19-62.38-34.23-127.29-45.86-190.07C2135.88,309,2119.47,220.51,2077,139c-10.71-20.51-22.73-42.76-38-66.43-32.28-50-83.87-86.51-145.27-102.85a283.6,283.6,0,0,0-180.62,11.74c-95.48,39.59-222.24,82.23-356,60.27-37.9-6.17-81.3-21.35-124.86-43.2,36.28,16.55,71.75,28.17,103.51,33.49,68.3,11.5,181.28,16.73,373-70.15C1832-93.95,1982.3-54.39,2051,51.87c16.09,24.88,28.68,48.21,39.88,69.72,44.31,85.19,61,177.91,77.11,267.58,12,66.57,24.34,135.41,47.9,201.59,13.07,36.74,30.38,74.5,47.13,111,40.11,87.45,81.58,177.88,74.76,270.94-5.58,76.29-38.94,146.4-99.16,208.37-49.78,51.22-116.59,96.69-204.24,139-48,23.16-99.82,45.21-153.92,49.66-64.8,5.34-120.74-11.76-161.78-49.45-64.3-59.08-115.24-150.66-155.71-280-4.67-14.95-9.28-30.53-14.1-47.63-26.52-94.26-66-176.86-117.38-245.51-63.34-84.65-145-148.88-242.76-190.85-91.3-39.2-192-55.3-289.38-70.87C771,465,638.3,443.73,527.73,369c-90.45-61.22-155.17-190.63-165.46-280.3-1.74-33.78,6.24-66.7,24.38-100.63C400.84-38.48,420.37-64.54,450-96.44c9.44-10.14,20-21,33.15-34,136.69-136.26,274.77-178.65,410.4-126a233.5,233.5,0,0,1,40.82,20.69Q941.79-227.73,949-219.54Zm138,110.15-.11-.08-.23-.21C1086.79-109.59,1086.9-109.49,1087-109.39Zm-38.4-32.39c-.4-.27-.82-.52-1.23-.78-.69-.7-1.37-1.4-2.07-2.09Q1047-143.22,1048.61-141.78Zm-36.88-31.41-2.06-1.36-2.74-2.85C1008.55-176,1010.13-174.6,1011.73-173.19Zm-36.27-31.19c-.93-.6-1.89-1.18-2.81-1.77-1.18-1.25-2.35-2.5-3.53-3.74C971.24-208.07,973.37-206.24,975.46-204.38Zm-36.13-31.09c-1.05-.69-2.11-1.4-3.18-2.08-1.26-1.36-2.54-2.71-3.82-4.07Q935.89-238.59,939.33-235.47ZM2045.42,1396.22c-43.11,17.48-100,38.32-157.79,44.29-69.64,7.19-125.67-6.64-166.51-41.12-70.22-59.3-127.29-158.42-169.57-294.63-5-16.18-9.82-32.7-14.66-50.52-26.93-99.16-67.53-187.31-120.67-262-67-94.19-152-164.22-252.61-208.11C1063,540.05,951.16,523.68,843.05,507.86,704.12,487.53,560.46,466.5,440.79,386.14c-44.37-29.81-87.11-79.06-120.31-138.67-31.25-56.08-51.73-117.56-56.18-168.65-2.5-37,4.83-73.27,22.43-110.81,14.08-30.07,34.66-60.88,64.76-97,9.73-11.66,20.7-24.19,34.52-39.42C449.23-238.14,514.59-287.47,580.29-315c81.19-34,163.44-34.79,244.46-2.29,30.64,12.28,56.17,30.3,79,51a238.52,238.52,0,0,0-43.54-22.73C717.27-345.5,573.4-299,432.58-151c-13.48,14.13-24.25,25.82-33.92,36.81-29.79,33.94-50.24,62.92-64.38,91.22-18,36.13-25.77,71.07-23.63,106.87,6.62,66,41.15,152.27,93.84,220.32,22.9,29.57,49.23,55.7,78.19,75.22,115.52,77.82,253.91,98.94,387.74,119.38,102.71,15.68,208.9,31.9,304.62,73.53C1273.63,615,1356.62,681.77,1421.66,771c52.09,71.45,92,156.58,118.68,253,4.81,17.39,9.51,33.47,14.4,49.14,41.78,134.08,95.19,228.41,163.33,288.36,41.28,36.33,98.77,52.22,166.26,46,55.91-5.18,110.61-26.78,156.75-47.21,91.7-40.6,165.54-88.72,219.46-143,64.59-65,100.6-139.13,107-220.23,7.77-98.09-36.08-193.07-78.5-284.92-17.74-38.43-36.09-78.17-49.83-116.77-24.77-69.63-37.45-142.2-49.72-212.38-16.44-94.08-33.44-191.37-79.9-280.84-11.75-22.62-25-47.16-42-73.39-36.07-55.72-94-95.62-163.21-112.31C1836.16-100,1764.27-92.34,1702-62c-95,46.39-238.55,105.12-386.69,79.6-35.17-6-75-19.94-115.6-39.92,33.07,14.69,65.14,25.1,94.23,30.21,66.12,11.63,134.53,7.91,209.12-11.36,59.34-15.33,123-40.91,194.73-78.19,133.55-69.44,304.89-29.14,381.93,89.68,17.78,27.44,31.57,53.07,43.81,76.67,48.3,93.18,65.58,194.69,82.28,292.87,12.59,74,25.6,150.44,51.73,223.85,14.46,40.65,33.88,82.45,52.66,122.87,44.48,95.74,90.48,194.74,81.84,296.76-7.18,84.89-45.38,162.08-113.54,229.42C2220.16,1308.13,2141.74,1357.16,2045.42,1396.22Z"/><path class="cls-26" d="M1503.13,126.09c-44.67-5.26-94.59-19.67-140.56-40.58-14.46-6.57-29-13.84-44.61-22.22-15.85-8.54-31.15-18.12-46-27.39-31-19.45-63.12-39.55-102.47-51.42-116.68-35.22-221.26,0-299.32,34.64l-4.68,2.07c-7.6,3.37-15.46,6.85-23,10.38-18.76,8.79-40.28,19.48-58.16,35.19A107.42,107.42,0,0,0,762.3,93a81.61,81.61,0,0,0-7.93,18.28c-2.22,7.6-4,14.41-1.34,22.08,2.89,8.46,5.9,16.86,9.42,25.14a361.66,361.66,0,0,0,25.72,49.3A380.67,380.67,0,0,0,810.6,240.1c19.13,24.71,40.86,46.37,63.27,62.29,76.64,54.1,168.79,77.06,257.9,99.26,52,13,105.83,26.37,156.54,45.85,92.62,35.58,155,73,202.4,121.2,44.09,44.92,79,105,103.68,178.58,4,11.78,7.91,23.83,11.89,36,27.77,84.89,62.54,161.65,100.54,222,33.07,52.49,87.29,83.86,145.07,83.93,59.67.08,108.69-41,140.38-71.82,67-65.28,132.32-137.44,131.23-238.09-.57-58.34-24.27-115.34-47.19-170.47-8.41-20.25-17.12-41.17-24.36-61.54-12.82-36-22.1-73.12-31.08-109-14.24-56.92-29-115.77-58.06-170.3-7-13-14.75-27.16-24.24-42.07-35.93-56.54-105.65-91.15-186.39-92.45-21.11-.33-42.23-.23-64.6-.12C1628.9,133.64,1568.23,133.94,1503.13,126.09Zm249,9.77c79.8,1.28,148.66,35.42,184.15,91.25,9.45,14.85,17.19,28.92,24.16,41.92,29,54.28,43.65,113,57.86,169.8,9,35.91,18.28,73.05,31.14,109.18,7.26,20.42,16,41.38,24.4,61.65,22.84,54.94,46.46,111.75,47,169.66,1.09,99.86-61.13,168.83-130.53,236.46-31.35,30.54-79.81,71.13-138.44,71-56.82-.06-110.18-31-142.78-82.72-37.9-60.17-72.58-136.76-100.3-221.48-4-12.19-7.93-24.25-11.9-36-24.83-73.93-59.88-134.31-104.22-179.46-47.63-48.52-110.34-86.09-203.35-121.81-50.87-19.55-104.76-33-156.86-46-88.87-22.14-180.76-45-257-98.84-28-19.91-51.18-45.34-70.54-72.21-20.7-28.73-37.51-60.06-48.51-92.89-2.39-7.16-2.21-12.71-.45-20A77.4,77.4,0,0,1,763.57,96a103.47,103.47,0,0,1,22.64-27.55C803.83,53,825.14,42.39,843.74,33.68c7.53-3.52,15.38-7,23-10.36l4.67-2.07C949-13.17,1052.94-48.21,1168.71-13.27c39,11.76,70.91,31.77,101.79,51.12,14.84,9.29,30.17,18.9,46.1,27.48,15.62,8.41,30.27,15.7,44.78,22.3,46.23,21,96.45,35.52,141.41,40.82,65.27,7.87,126,7.57,184.8,7.28C1709.94,135.62,1731.06,135.52,1752.13,135.86Z"/><path class="cls-27" d="M1347.29,83.71c-15.41-7.48-30.39-15.85-44.87-23.95-30.17-16.86-61.37-34.3-98.52-44.89C1155.69,1.11,1106.45-2.43,1053.34,4,1012.7,9,970,19.77,918.9,38l-5.59,2c-7.2,2.56-14.37,5.11-21.41,7.76-19.45,7.31-39.9,15.57-57.49,28.95A97,97,0,0,0,812,100.26c-8.45,12.83-14.41,26.68-8.65,41.29a364.7,364.7,0,0,0,24,50.06A371.9,371.9,0,0,0,854.63,232c18.87,24.36,40.39,45.83,62.71,61.82,73.12,52.11,161.23,75.62,246.44,98.36,45.46,12.13,92.47,24.67,137.12,41.45,65.91,24.76,140.92,57.51,197.49,112.6,43.18,42,77.49,99.33,102,170.3,4.27,12.35,8.45,25,11.61,34.57,22,66.65,49.3,149.59,93.6,214.66,49,72,104.65,87.64,142.67,88.08,46.37.55,91.69-23.84,138.57-74.57,57-61.65,112.35-129.75,109.53-224.18-1.55-54.16-23.1-107.19-43.94-158.48-7.31-18-14.86-36.56-21.3-54.67-11.34-31.88-20.05-64.61-28.47-96.27-14.16-53.2-28.8-108.21-56.17-159.24-6.14-11.39-13.59-24.89-22.28-38.6-45.07-71.2-131.39-88.49-166.39-92.61-36.42-4.28-73-6.18-111.65-8.19-39.07-2-79.48-4.14-122.18-8.89-43.35-4.7-90.85-17.13-133.77-35C1376.68,97.51,1362.63,91.15,1347.29,83.71Zm176.39,56.79c42.78,4.77,83.23,6.87,122.35,8.9,38.64,2,75.13,3.91,111.45,8.18,34.62,4.07,119.9,21,164.45,91.43,8.66,13.65,16.08,27.1,22.2,38.45,27.24,50.8,41.85,105.69,56,158.76,8.44,31.7,17.16,64.48,28.53,96.45,6.45,18.15,14,36.76,21.33,54.76,20.77,51.11,42.25,104,43.78,157.72,2.79,93.61-52.28,161.3-108.93,222.6-46.33,50.14-91,74.25-136.49,73.71-67.69-.79-113.75-47.72-140.46-86.94-44.12-64.81-71.4-147.59-93.32-214.1-3.16-9.61-7.34-22.24-11.62-34.6-24.63-71.3-59.15-128.9-102.59-171.21-56.92-55.42-132.24-88.31-198.41-113.17-44.78-16.83-91.86-29.39-137.39-41.54C1079.56,367.22,991.7,343.78,919,292c-28.65-20.54-52.3-46.69-71.87-74.42A363.66,363.66,0,0,1,821.21,175q-5.64-10.89-10.45-22.11c-3.12-7.3-8.23-15-7.31-23.08a63.38,63.38,0,0,1,7.45-22.64c5.92-11,14.71-20.63,25-28.49a1.56,1.56,0,0,0,.2-.16c17.31-13.16,37.55-21.33,56.8-28.57,7-2.64,14.18-5.18,21.36-7.74l5.59-2c80-28.56,176.18-53.64,283.25-23.09C1239.94,27.64,1271,45,1301,61.78c14.52,8.11,29.54,16.5,45,24s29.49,13.86,43.09,19.52C1432.28,123.27,1480.07,135.77,1523.68,140.5Z"/><path class="cls-28" d="M1238.26,45.26c-99.7-26.6-192.78-9-270.68,11.65l-7.17,1.9C954,60.5,947.6,62.19,941.29,64c-20,5.6-39.49,11.55-56.82,22.7a83.91,83.91,0,0,0-25.91,25.54c-3.65,5.83-7,12.08-8.45,18.69-1.64,7.6,1.69,13.61,4.77,20.53A342.7,342.7,0,0,0,882,200.74q7.63,11.59,16.22,22.68c18.73,24.19,40.21,45.62,62.59,61.84,70.18,50.55,155,74.85,237.1,98.36,38.21,10.95,77.74,22.27,115.59,36.13,64.33,23.58,137.58,53,192.58,104,42.3,39.22,76.06,93.73,100.34,162,3.46,9.74,7.17,20.57,11.33,33.11l3.62,10.94c22.42,67.63,45.59,137.56,83,196.34,50.11,78.73,109.42,91.62,140.31,92.3,59.4,1.32,107.15-41.32,136.74-77.32,48.27-58.72,92.32-124.83,87.84-210.27-2.56-50.17-22-99.42-40.87-147-6.14-15.53-12.49-31.59-18.06-47.24-9.75-27.42-17.75-55.5-25.48-82.64-14.17-49.8-28.84-101.28-54.66-149.11-5.6-10.33-12.41-22.58-20.31-35.11-35.44-56.23-99.16-81.48-146.38-92.75-52-12.43-103.91-16.8-158.84-21.42-19.29-1.63-39.23-3.3-59.8-5.38a509.81,509.81,0,0,1-127-29.4c-12.65-4.73-26.15-10.18-41.27-16.67-15-6.42-29.63-13.57-43.81-20.48C1303.5,69.36,1273.21,54.58,1238.26,45.26Zm137.22,61c15.16,6.5,28.7,12,41.39,16.72a512.7,512.7,0,0,0,127.7,29.56c20.59,2.08,40.54,3.76,59.85,5.38,54.81,4.62,106.58,9,158.4,21.35,46.74,11.16,109.79,36.12,144.77,91.63,7.87,12.47,14.64,24.69,20.23,35,25.7,47.61,40.33,99,54.48,148.66,7.74,27.18,15.74,55.29,25.52,82.77,5.58,15.69,11.93,31.76,18.08,47.31,18.77,47.46,38.18,96.54,40.73,146.36,4.44,84.7-39.35,150.38-87.33,208.74-29.22,35.55-76.29,77.66-134.55,76.37-30.34-.67-88.67-13.45-138.09-91.11-37.26-58.54-60.4-128.34-82.77-195.84l-3.63-10.94c-4.16-12.56-7.87-23.41-11.34-33.16-24.41-68.64-58.37-123.48-101-162.95-55.36-51.34-128.9-80.88-193.47-104.55-38-13.9-77.53-25.24-115.8-36.2-81.83-23.43-166.44-47.68-236.24-98-28.69-20.79-52.51-47-72.13-75a355.36,355.36,0,0,1-22.65-36.77q-5-9.4-9.41-19.06c-2.57-5.68-6.68-11.4-5.81-17.78a53.64,53.64,0,0,1,5.81-16.94c6.12-11.78,16-21.77,27.74-29.3,17-11,36.23-16.83,56.07-22.37,6.29-1.76,12.68-3.44,19.09-5.13l7.17-1.9c77.53-20.59,170.14-38.08,269.19-11.65,34.68,9.25,64.85,24,94,38.19C1345.76,92.66,1360.45,99.82,1375.48,106.27Z"/><path class="cls-29" d="M1008.38,77.14c-5.92,1-11.83,2-17.69,3-20.6,3.66-39,7.42-56.14,16.45-10.13,5.36-19.15,12.54-25.72,21.34-5.15,6.91-13.06,19.74-9.19,28.14a348.26,348.26,0,0,0,41.37,68c18.81,24.28,40.51,45.95,63.25,62.64,68.33,49.84,151.4,75.38,231.73,100.07,29.7,9.13,60.41,18.56,90.09,29.13,72.77,25.89,137.12,50.93,187.68,95.39,42,36.93,74.27,87.23,98.65,153.76,3.54,9.61,7.15,20,11,31.64q4.65,13.85,9.23,27.85C1652,773.3,1672,834.07,1703.12,886.58c48.35,81.65,107.19,95.53,138,96.53,22.72.73,81.35-5.59,134.92-80.1,34.3-47.7,72.81-113.12,66.14-196.35-3.67-46.56-21.2-92.4-38.16-136.72-4.87-12.71-9.9-25.86-14.46-38.69-8-22.34-14.94-45.14-21.71-67.19-14.42-47-29.33-95.59-53.93-140.78-5.05-9.24-11.19-20.22-18.34-31.63-24.38-38.92-65.72-69.32-126.36-92.88-62.15-24.14-121-29.3-189.19-35.27l-14.27-1.26c-42.93-3.71-83.36-11.72-120.18-23.81-11.82-3.88-24.41-8.29-39.62-13.9-14.53-5.35-28.88-11.27-42.77-17-28.41-11.72-57.79-23.84-90.53-31.88-91.34-22.44-177.17-13.18-256.32.17Zm263.55.8c32.53,8,61.81,20.08,90.13,31.75,13.9,5.74,28.28,11.67,42.86,17,15.24,5.62,27.86,10,39.71,13.94,37,12.15,77.69,20.21,120.84,23.94l14.26,1.25c68,5.95,126.63,11.09,188.41,35.1,60.08,23.34,101,53.4,125.1,91.86,7.13,11.35,13.24,22.3,18.27,31.5,24.5,45,39.37,93.48,53.76,140.37C1972,486.76,1979,509.59,1987,532c4.57,12.85,9.6,26,14.47,38.73,16.9,44.18,34.39,89.86,38,136.13,6.61,82.52-31.65,147.49-65.72,194.88-52.84,73.49-110.34,79.74-132.62,79-30.2-1-88-14.65-135.72-95.27-31-52.3-50.93-113-70.23-171.6q-4.6-14-9.23-27.86c-3.91-11.7-7.53-22.07-11.07-31.71-24.52-66.89-57-117.5-99.32-154.71-50.91-44.77-115.51-69.92-188.55-95.9-29.74-10.59-60.48-20-90.21-29.17-80.11-24.62-163-50.09-230.91-99.67C977,253.65,952.86,227.23,933,198.93q-10-14.25-18.47-29.3-4.21-7.47-8-15.12c-2.63-5.3-6.12-10-4.65-16a52.51,52.51,0,0,1,6.42-15.31c6.43-10.31,16.3-18.63,27.57-24.58,16.75-8.84,35-12.56,55.32-16.17,5.85-1,11.74-2,17.66-3l7.92-1.32C1095.62,64.85,1181.1,55.62,1271.93,77.94Z"/><path class="cls-30" d="M947.65,148.17l.09.4a16.92,16.92,0,0,0,1.89,4.19c9.86,17.49,20.38,34.48,32.85,50.6,19.21,24.8,41.59,47.15,65.25,64.75,68.89,51.05,153.54,78.7,235.4,105.44,18.26,6,37.13,12.13,55.54,18.46l6,2.08c62.61,21.49,127.35,43.73,176.73,84.72,41.12,34.13,72.84,81.71,97,145.48,3.53,9.3,7,19.17,10.77,30.18,4.8,14.2,9.5,28.8,14,42.93,16.29,50.65,33.15,103,58.64,149.59,19.87,36.31,63.93,97.67,135.59,100.75,59.13,2.54,107.53-41.14,133.12-82.87,37-60.42,51.56-120.1,44.43-182.43-5-43.91-20.93-87.27-36.36-129.19-3.37-9.15-6.72-18.26-10-27.34-5.6-15.76-10.93-31.78-16.08-47.28-15.18-45.7-30.88-93-55.06-136.93-4.23-7.65-9.91-17.76-16.37-28.14-26.74-43-68.76-71.14-106.32-93-63.58-36.94-124.16-41.49-188.3-46.31-44.31-3.24-80.34-9-113.4-18.21-14-3.91-27.67-8-38-11.13-14.09-4.28-28.15-9-41.74-13.5-27.52-9.17-56-18.65-86.51-25.41-87.42-19.36-170.73-16-241.94-11.31l-8.87.57c-5.36.34-10.72.68-16,1-21.09,1.5-38.56,3.2-55.48,10.21A70,70,0,0,0,959.26,124a51.23,51.23,0,0,0-7.93,11.64C949.65,139,947,144.3,947.65,148.17Zm38.1-39.46c16.52-6.84,33.75-8.51,54.57-10,5.32-.38,10.67-.72,16-1.06l8.87-.57c71-4.67,154.08-8,241.12,11.25,30.39,6.73,58.78,16.18,86.22,25.33,13.61,4.53,27.68,9.23,41.82,13.52,10.31,3.13,23.94,7.23,38,11.14,33.26,9.24,69.47,15.06,114,18.32,63.8,4.79,124.06,9.32,187.09,45.93,37.28,21.66,79,49.54,105.44,92.13,6.44,10.34,12.1,20.41,16.31,28,24.08,43.79,39.75,90.94,54.91,136.55,5.15,15.51,10.48,31.54,16.09,47.33,3.23,9.08,6.59,18.2,10,27.35,15.38,41.81,31.3,85,36.24,128.7,7.08,61.83-7.36,121-44.13,181-25.19,41.11-72.75,84.13-130.67,81.64-70.31-3-113.73-63.56-133.36-99.42-25.38-46.38-42.2-98.65-58.47-149.2-4.55-14.14-9.25-28.75-14-43-3.73-11-7.26-20.93-10.8-30.26-24.3-64.15-56.26-112.06-97.69-146.46-49.75-41.3-114.74-63.61-177.58-85.19l-6-2.08c-18.44-6.34-37.33-12.5-55.59-18.47-81.65-26.67-166.08-54.25-234.63-105-29.1-21.67-53.78-48.19-74-76.82q-8-11.31-15.06-23.15c-2.29-3.84-4.51-7.71-6.62-11.63-2.82-5.25-3.8-8.2-1.76-13.84a45.9,45.9,0,0,1,7.21-12.78C965.82,119.57,975.29,113,985.75,108.71Z"/><path class="cls-31" d="M996.67,153.1a17,17,0,0,0,2.11,4.21,401.46,401.46,0,0,0,22.86,33.13,376.6,376.6,0,0,0,69.55,69.1c77.13,58.24,174.32,90.31,260.08,118.6q9.95,3.28,19.94,6.51c55.59,18.06,113.07,36.74,157.92,71.69,40.21,31.33,71.39,76.21,95.3,137.2,3.56,9.08,7,18.47,10.49,28.73,6.28,18.4,12.14,37.37,17.81,55.72,13.41,43.43,27.27,88.34,47.9,129.41,15.2,30.24,58.58,101,133.24,105,59.38,3.17,108.73-40.74,131.29-85.66,24.94-49.63,32.59-106.32,22.74-168.5-7.13-45.25-23.06-90-38.46-133.32l-5.17-14.55c-17.8-50.19-36.21-102.1-63-150.22-5.29-9.47-9.86-17.3-14.4-24.65-23-37.39-55.08-66.81-86.29-93-54.57-45.82-106.17-52.16-173.12-56.12-35.52-2.06-70.41-4.57-106.63-12.63-12.34-2.74-24.74-5.63-36.29-8.34-13.67-3.21-27.41-6.65-40.71-10-26.61-6.65-54.14-13.53-82.49-19-79.62-15.52-159.21-19.89-227.55-22.77l-24.22-1.08c-17.25-.7-36.79-1.49-54.8,3.94a64.28,64.28,0,0,0-25.54,14.37,47.14,47.14,0,0,0-8.3,10.25c-1.94,3.27-5.28,7.87-4.3,11.74Zm38.92-34.33c17.54-5.29,36-4.54,53.84-3.81q12.06.51,24.21,1.07c68.24,2.87,147.7,7.24,227.13,22.72,28.27,5.43,55.76,12.3,82.34,18.94,13.3,3.33,27.06,6.77,40.74,10,11.57,2.71,24,5.6,36.32,8.35,36.44,8.1,71.45,10.63,107.09,12.69,66.4,3.93,117.57,10.21,171.5,55.49,31,26.06,62.93,55.3,85.79,92.42,4.51,7.32,9.07,15.13,14.34,24.57,26.72,47.95,45.1,99.77,62.87,149.87l5.16,14.56c15.38,43.2,31.27,87.87,38.37,132.93,9.77,61.72,2.19,118-22.53,167.18C1940.57,869.91,1892.15,913.1,1834,910c-73.21-3.9-116-73.73-131-103.58-20.55-40.9-34.39-85.72-47.77-129.06-5.67-18.37-11.53-37.36-17.83-55.79-3.51-10.29-7-19.72-10.52-28.82-24.07-61.38-55.49-106.59-96.06-138.21-45.22-35.23-102.94-54-158.76-72.13q-10-3.24-19.92-6.5c-85.55-28.23-182.52-60.21-259.3-118.18A371.32,371.32,0,0,1,1016,178.57c-5.41-7.53-10.35-15.28-15.3-23.06a8.26,8.26,0,0,1-1.24-2.55c-.84-3.7,2.8-9.34,4.84-12.42a46,46,0,0,1,9-9.86A64,64,0,0,1,1035.59,118.77Z"/><path class="cls-32" d="M1045.54,158.07a.83.83,0,0,0,0,.15,8.44,8.44,0,0,0,1.47,2.58c3.51,4.78,7,9.6,10.63,14.31,63.2,81.62,166.09,145.21,306.19,189.16,9.91,3.11,19.93,6.11,30,9.12,50.05,15,101.81,30.55,143,60.48,45.47,33,78.45,82.66,103.83,156.19,7.51,21.77,14,44.25,20.32,66,10.77,37.18,21.91,75.63,38.42,111.77,42.83,93.74,105.8,107.6,130.87,109.19,27.54,1.76,55-6.65,79.46-24.32,22.59-16.32,40.35-39.1,50-64.14,19.48-50.45,11.45-106.45,1-154.57-31-143.36-89.8-267.72-174.55-369.62-52-62.53-109.18-64.41-175.37-66.58-26.26-.86-53.4-1.75-82.43-6.41Q1397,170.23,1265.56,149.14L1139,128.83c-16.87-2.71-36-5.78-54.12-2.35A61.65,61.65,0,0,0,1060.14,137a43.12,43.12,0,0,0-9.62,9.54C1048.64,149.2,1044.73,154.72,1045.54,158.07Zm39.88-29.26c17.63-3.34,36.47-.31,53.11,2.36l126.56,20.31q131.45,21.11,262.87,42.21c29.2,4.7,56.45,5.59,82.79,6.46,65.52,2.15,122.1,4,173.36,65.62,84.55,101.57,143.11,225.65,174.07,368.65,10.36,47.82,18.34,103.43-.93,153.35-23.49,60.83-81.57,89.74-126.8,86.86-24.59-1.56-86.33-15.2-128.62-107.73-16.45-36-27.56-74.35-38.31-111.46-6.3-21.76-12.82-44.26-20.35-66.09-25.54-74-58.81-124-104.69-157.33-41.55-30.2-93.54-45.8-143.82-60.88-10-3-20-6-29.92-9.12a919.15,919.15,0,0,1-104.06-39.32,668.07,668.07,0,0,1-87.82-47.52,496.64,496.64,0,0,1-71.29-55.55c-19.48-18.41-36.11-38.44-51.91-59.47-4.7-6.26,6.07-16.62,11-20.49A58.3,58.3,0,0,1,1085.42,128.81Z"/></g><g class="cls-14"><path class="cls-15" d="M2037.41,669.15l-80,72.05-.28.25-.28.25L1923,772.21c3.14-.33,6.28-.74,9.4-1.23l28.78-25.92.27-.25L2041.15,673l.27-.25,26.55-23.9c.55-2.82,1-5.64,1.37-8.47l-31.65,28.5Z"/><path class="cls-15" d="M1785.2,516.33a158.67,158.67,0,0,0-13.42,13.7l28.63-25.78A166.45,166.45,0,0,0,1785.2,516.33Z"/><path class="cls-15" d="M1787.49,588.18l79.72-71.8.28-.25,48.23-43.43q-3.81-.26-7.64-.35l-44.33,39.92-.28.25-80,72-.28.25-.28.25L1736.36,627c.07,2.29.2,4.59.38,6.88l50.47-45.44Z"/><path class="cls-15" d="M1760.73,564.08l79.72-71.79.28-.26,15.09-13.59c-4.12,1.1-8.18,2.38-12.22,3.77l-6.61,6-.28.25-80,72-.28.25-.28.25-8.84,8c-1.54,3.63-3,7.29-4.18,11l17.32-15.6Z"/><path class="cls-15" d="M1814.25,612.27,1894,540.48l.28-.25.28-.25,65.38-58.88c-2-.64-4-1.23-6-1.81l-63.38,57.07-.28.26-.28.25-79.72,71.79-.28.25-.28.25-65.6,59.08c.64,1.82,1.29,3.63,2,5.42L1814,612.52Z"/><path class="cls-15" d="M1934.67,720.71h0l79.72-71.79.28-.25,53.94-48.58c-.34-2.07-.72-4.13-1.16-6.18l-56.52,50.89-.28.26-80.28,72.29-.28.25h0l-58.74,52.91c2.28.4,4.57.73,6.86,1L1934.39,721Z"/><path class="cls-15" d="M1907.91,696.62l79.71-71.8h0l.28-.26,68.73-61.89c-.81-1.66-1.64-3.32-2.51-5l-70,63h0l-.28.25-80.28,72.29-.28.25-72.18,65c1.82.79,3.67,1.53,5.52,2.26l71-63.9Z"/><path class="cls-15" d="M1800.59,600.48l.28-.25,80-72.05.28-.25,57.94-52.18c-2.23-.44-4.46-.84-6.71-1.19l-55.25,49.76h0l-.28.25-.28.25-79.72,71.79-.28.25-57.76,52c.39,2,.84,4,1.32,6l60.18-54.19Z"/><path class="cls-15" d="M1773.83,576.38l.28-.25,79.72-71.79.28-.25.28-.26,34.41-31c-3,.24-6,.53-9,.92l-29.38,26.46-.28.25-.28.25-79.72,71.79-.28.25-31.89,28.72c-.42,2.71-.75,5.43-1,8.15l36.64-33Z"/><path class="cls-15" d="M1854.11,648.67l80.28-72.29.28-.25h0l76.18-68.61q-2.19-1.66-4.43-3.24l-76.05,68.48-.28.25h0l-79.72,71.79-.28.26-78.27,70.48c1.17,1.35,2.36,2.68,3.59,4l78.42-70.62Z"/><path class="cls-15" d="M1827.07,624.83l.28-.26,80.28-72.29.28-.25,70.71-63.68c-1.8-.81-3.59-1.62-5.4-2.37l-69.33,62.43h0l-.28.26-.28.25-79.72,71.79h0l-.28.25-71.83,64.69c.83,1.63,1.73,3.25,2.63,4.86l72.94-65.69Z"/><path class="cls-15" d="M1880.87,672.77l.28-.25,79.72-71.79.28-.25.27-.25,75.49-68c-1.15-1.37-2.3-2.73-3.5-4.08l-76,68.44-.28.25-.28.25-79.72,71.79-.28.25-.28.25-78.22,70.45c1.49,1.09,3,2.12,4.53,3.15l77.71-70Z"/><path class="cls-15" d="M1867.49,660.72l.28-.25,79.72-71.79.28-.25.28-.25,76.57-69c-1-1-2-1.94-3-2.89-.3-.27-.61-.51-.92-.78l-76.63,69-.28.25-.28.25-79.72,71.79-.28.25-.28.26-78.86,71c.3.27.57.55.87.82,1,.94,2.14,1.83,3.2,2.74l78.81-71Z"/><path class="cls-15" d="M1840.73,636.62l.28-.25,79.72-71.79.28-.25.28-.25,74.28-66.9c-1.62-1-3.28-1.88-4.93-2.79l-73.37,66.07-.28.25-.28.25L1837,632.76l-.28.25-.28.25-75.6,68.08c1,1.49,2,3,3.1,4.44l76.52-68.91Z"/><path class="cls-15" d="M1947.77,733l.28-.24,79.72-71.8.28-.25.28-.25,42.2-38c0-2.35-.07-4.71-.2-7.06l-46,41.44-.28.26-.28.25L1944,729.15l-.28.25-48.53,43.7c2.61.12,5.23.17,7.84.18l44.43-40Z"/><path class="cls-15" d="M1921,708.92l.28-.25,79.72-71.8.28-.24.28-.26,62.21-56c-.6-1.84-1.26-3.67-1.94-5.49l-64.29,57.9-.28.25-.28.25-79.72,71.79-.28.25-.28.25-66.52,59.91c2,.61,4,1.2,6.1,1.74l64.44-58Z"/><path class="cls-15" d="M1894.25,684.82l.28-.25,79.72-71.79.28-.25.28-.26,72.83-65.59c-1-1.5-2-3-3.07-4.46l-73.78,66.44-.28.25-.28.25L1890.51,681l-.28.25-.28.25-76,68.46c1.65.94,3.29,1.88,5,2.76l75.07-67.6Z"/></g><g class="cls-33"><path class="cls-15" d="M1780.05,910.21a6.55,6.55,0,0,1,8.57,0,5.08,5.08,0,0,1,0,7.71,6.53,6.53,0,0,1-8.57,0A5.08,5.08,0,0,1,1780.05,910.21Z"/><path class="cls-15" d="M1745.82,879.39a6.55,6.55,0,0,1,8.57,0,5.07,5.07,0,0,1,0,7.71,6.55,6.55,0,0,1-8.57,0A5.08,5.08,0,0,1,1745.82,879.39Z"/><path class="cls-15" d="M1711.6,848.56a6.53,6.53,0,0,1,8.56,0,5.08,5.08,0,0,1,0,7.72,6.55,6.55,0,0,1-8.57,0A5.09,5.09,0,0,1,1711.6,848.56Z"/><path class="cls-15" d="M1677.37,817.74a6.55,6.55,0,0,1,8.57,0,5.09,5.09,0,0,1,0,7.72,6.55,6.55,0,0,1-8.57,0A5.08,5.08,0,0,1,1677.37,817.74Z"/><path class="cls-15" d="M1643.14,786.92a6.55,6.55,0,0,1,8.57,0,5.09,5.09,0,0,1,0,7.72,6.55,6.55,0,0,1-8.57,0A5.08,5.08,0,0,1,1643.14,786.92Z"/><path class="cls-15" d="M1780.75,847.93a6.55,6.55,0,0,1,8.57,0,5.08,5.08,0,0,1,0,7.72,6.55,6.55,0,0,1-8.57,0A5.09,5.09,0,0,1,1780.75,847.93Z"/><path class="cls-15" d="M1746.53,817.11a6.53,6.53,0,0,1,8.56,0,5.07,5.07,0,0,1,0,7.71,6.52,6.52,0,0,1-8.56,0A5.07,5.07,0,0,1,1746.53,817.11Z"/><path class="cls-15" d="M1712.3,786.28a6.55,6.55,0,0,1,8.57,0,5.09,5.09,0,0,1,0,7.72,6.55,6.55,0,0,1-8.57,0A5.08,5.08,0,0,1,1712.3,786.28Z"/><path class="cls-15" d="M1678.07,755.46a6.55,6.55,0,0,1,8.57,0,5.08,5.08,0,0,1,0,7.72,6.55,6.55,0,0,1-8.57,0A5.09,5.09,0,0,1,1678.07,755.46Z"/><path class="cls-15" d="M1781.46,785.65a6.53,6.53,0,0,1,8.56,0,5.09,5.09,0,0,1,0,7.72,6.55,6.55,0,0,1-8.57,0A5.08,5.08,0,0,1,1781.46,785.65Z"/><path class="cls-15" d="M1747.23,754.83a6.55,6.55,0,0,1,8.57,0,5.08,5.08,0,0,1,0,7.71,6.53,6.53,0,0,1-8.57,0A5.08,5.08,0,0,1,1747.23,754.83Z"/><path class="cls-15" d="M1713,724a6.55,6.55,0,0,1,8.57,0,5.07,5.07,0,0,1,0,7.71,6.55,6.55,0,0,1-8.57,0A5.08,5.08,0,0,1,1713,724Z"/><path class="cls-15" d="M1782.16,723.37a6.55,6.55,0,0,1,8.57,0,5.08,5.08,0,0,1,0,7.72,6.55,6.55,0,0,1-8.57,0A5.09,5.09,0,0,1,1782.16,723.37Z"/><path class="cls-15" d="M1747.93,692.55a6.55,6.55,0,0,1,8.57,0,5.08,5.08,0,0,1,0,7.72,6.52,6.52,0,0,1-8.56,0A5.08,5.08,0,0,1,1747.93,692.55Z"/><path class="cls-15" d="M1782.87,661.09a6.53,6.53,0,0,1,8.56,0,5.08,5.08,0,0,1,0,7.72,6.53,6.53,0,0,1-8.56,0A5.08,5.08,0,0,1,1782.87,661.09Z"/></g><polygon class="cls-22" points="790.22 -23.98 468.1 266.1 523.76 266.1 845.88 -23.98 790.22 -23.98"/><polygon class="cls-22" points="923.63 164.58 658.27 403.54 704.13 403.54 969.48 164.58 923.63 164.58"/><polygon class="cls-23" points="760.12 258 572.47 426.99 604.89 426.99 792.55 258 760.12 258"/></g></g></g></g></svg>