<svg xmlns="http://www.w3.org/2000/svg" xmlns:xlink="http://www.w3.org/1999/xlink" viewBox="0 0 33 37.82"><defs><style>.cls-1{fill:none;}.cls-2{isolation:isolate;}.cls-3{clip-path:url(#clip-path);}.cls-4{clip-path:url(#clip-path-2);}.cls-12,.cls-5,.cls-7{mix-blend-mode:screen;}.cls-5{opacity:0.2;fill:url(#linear-gradient);}.cls-6{mix-blend-mode:multiply;opacity:0.4;fill:url(#linear-gradient-2);}.cls-12,.cls-7{opacity:0.3;}.cls-8{fill:url(#linear-gradient-3);}.cls-9{clip-path:url(#clip-path-3);}.cls-10{fill:url(#linear-gradient-4);}.cls-11{clip-path:url(#clip-path-4);}.cls-12{fill:url(#linear-gradient-5);}.cls-13{fill:#2d244d;}</style><clipPath id="clip-path"><rect class="cls-1" x="-2144.66" y="78.52" width="1925.28" height="1111.6"/></clipPath><clipPath id="clip-path-2"><rect class="cls-1" x="-2557.8" y="17.62" width="2372.06" height="1367.42"/></clipPath><linearGradient id="linear-gradient" x1="-1946.88" y1="469.77" x2="282.22" y2="469.77" gradientUnits="userSpaceOnUse"><stop offset="0" stop-color="#275eff" stop-opacity="0"/><stop offset="1" stop-color="#c544ad"/></linearGradient><linearGradient id="linear-gradient-2" x1="-602.1" y1="688.48" x2="204.91" y2="688.48" gradientUnits="userSpaceOnUse"><stop offset="0" stop-color="#c544ad"/><stop offset="1" stop-color="#275eff"/></linearGradient><linearGradient id="linear-gradient-3" x1="-2270.96" y1="-950.2" x2="-1099.8" y2="-2079.12" gradientTransform="translate(-934.2 2919.1) rotate(55.11)" xlink:href="#linear-gradient-2"/><clipPath id="clip-path-3"><rect class="cls-1" x="-122.4" y="78.52" width="1925.28" height="1111.6"/></clipPath><linearGradient id="linear-gradient-4" x1="-144.35" y1="1302.82" x2="2039.39" y2="-349.74" gradientUnits="userSpaceOnUse"><stop offset="0" stop-color="#eb2e5a"/><stop offset="1" stop-color="#004bf5"/></linearGradient><clipPath id="clip-path-4"><rect class="cls-1" x="-535.54" y="17.62" width="2372.06" height="1367.42"/></clipPath><linearGradient id="linear-gradient-5" x1="-234.8" y1="452.82" x2="1164.91" y2="452.82" gradientUnits="userSpaceOnUse"><stop offset="0" stop-color="#c544ad"/><stop offset="1" stop-color="#275eff" stop-opacity="0"/></linearGradient></defs><g class="cls-2"><g id="圖層_1" data-name="圖層 1"><g class="cls-3"><g class="cls-4"><polygon class="cls-5" points="-1321.1 1365.4 282.22 -78.43 282.22 -425.86 42.24 -425.86 -1946.88 1365.4 -1321.1 1365.4"/><path class="cls-6" d="M204.61,1021.14c-8.15,179-157.22,305.27-328.08,375.81-87.33,36-221.71,79.24-307.44,15.08a340.5,340.5,0,0,1-31.71-27h276.89V17.6H-602.1c27.41-13.54,54.19-28.48,80.28-44.1,126.67-75.88,298.05-45,379.93,70.47,19.25,27.19,34.37,53,46,73.3C-6.59,273.4-11.37,451.81,55.35,616.64,108.06,746.79,211.14,878.31,204.61,1021.14Z"/><g class="cls-7"><path class="cls-8" d="M135.79,1330.61c68.57-67.73,107-145.4,114.22-230.84,8.69-102.58-37.43-201.85-82-297.85-18.76-40.37-38.15-82.13-52.58-122.68C89.33,606,76.33,529.63,63.76,455.75c-16.73-98.34-34-200-82.5-293.51C-31,138.58-44.82,112.9-62.66,85.38c-77.7-120-250.72-160.63-385.53-90.54-98.7,51.32-247.75,116.4-402,89.27-33.14-5.82-70.19-18.56-108.2-36.76-1.85-1.49-3.71-3-5.53-4.46-10.76-8.72-21.65-17.53-33-26-13.59-11.76-27.42-23.61-42.15-34.67-12.84-11.64-26-23.12-40.21-33.72a464.67,464.67,0,0,0-38-32.18,416.25,416.25,0,0,0-36.81-31.51,387.93,387.93,0,0,0-36.65-31.55A368.86,368.86,0,0,0-1226.87-178c-26.08-25.6-55.36-48.32-92-63-81.76-32.79-164.74-32-246.65,2.3-66.06,27.69-131.74,77.23-195.21,147.28-13.84,15.26-24.84,27.81-34.59,39.5-30.23,36.24-50.91,67.2-65.09,97.46-17.75,37.89-25.15,74.49-22.62,111.9,6,69.44,41.62,160.28,96.84,231.59,23.57,30.44,50.74,57.34,80.7,77.47,120.19,80.71,264.17,101.78,403.41,122.16,107.93,15.79,219.53,32.13,319.84,76C-882,708.47-797.4,778.18-730.67,872c53,74.5,93.48,162.41,120.34,261.31,4.85,17.84,9.65,34.39,14.68,50.6,42.41,136.63,99.7,236.12,170.31,295.72,41.43,35,98.16,49,168.61,41.74,58.15-6,115.29-26.93,158.58-44.48C-1.51,1437.71,77.2,1388.49,135.79,1330.61ZM-441.4,18.64C-379.73-11.45-308.52-19-240.89-2.73-172.4,13.8-115,53.32-79.28,108.48c16.93,26.15,30.11,50.63,41.84,73.2C8.87,270.85,25.83,368,42.25,461.88c12.28,70.27,25,142.94,49.81,212.74,13.77,38.7,32.14,78.48,49.91,117,42.29,91.59,86,186.3,78.3,283.83-6.38,80.57-42.16,154.19-106.36,218.82-53.69,54-127.26,102-218.65,142.44-45.93,20.35-100.36,41.84-155.86,47-66.68,6.19-123.44-9.46-164.15-45.28-67.79-59.68-121-153.65-162.63-287.31-4.88-15.65-9.58-31.7-14.38-49.07-26.73-96.72-66.78-182.1-119-253.77-65.3-89.57-148.66-156.71-247.68-199.47-96.06-41.78-202.44-58-305.32-73.73-133.53-20.39-271.6-41.47-386.61-118.93-95-64-161.53-199.7-171-293.81-2.12-35.38,5.54-70,23.4-105.72,14-28.12,34.39-57,64-90.74,9.64-11,20.4-22.62,33.85-36.72,140-147.19,282.82-193.44,424.56-137.47a243.39,243.39,0,0,1,56.85,32.17q6.18,6.06,12.15,12.31a233.08,233.08,0,0,0-33.56-16.26c-136.79-53.09-275.88-10.49-413.4,126.61-13.2,13.1-23.76,23.93-33.22,34.09-29.76,32.06-49.4,58.27-63.69,85-18.33,34.3-26.39,67.59-24.64,101.84,7.18,62.53,40.63,144.2,90.79,209,22.24,28.71,47.77,54.12,75.73,73.05,111.07,75.06,244.11,96.33,372.77,116.9C-1148.53,581.87-1048,597.94-957,637c97.31,41.78,178.61,105.78,241.71,190,51.2,68.42,90.56,150.76,117,244.76,4.82,17.12,9.44,32.72,14.12,47.69,40.6,129.71,91.75,221.63,156.37,281,41.61,38.23,98.28,55.57,163.89,50.16,54.58-4.49,106.72-26.65,154.94-49.93,87.94-42.46,155-88.11,205-139.55,60.61-62.38,94.19-133,99.8-209.78,6.86-93.61-34.73-184.3-74.95-272-16.73-36.47-34-74.2-47.06-110.84C50.28,602.54,37.92,533.79,26,467.31,9.81,377.48-6.89,284.58-51.36,199.1c-11.23-21.56-23.85-44.95-40-69.91C-160.82,21.77-312.66-18.12-437.12,38.27c-91.49,41.46-229.53,93.81-371.36,69.94C-845.43,102-887.47,87.27-930,66c35.2,16,69.41,27.2,100.13,32.47,63.61,11,129.51,7.86,201.45-9.49C-571.44,75.28-510.28,52.26-441.4,18.64ZM-1040.84-16q6.42,5.82,12.75,11.66c-1.69-1-3.38-2-5.1-3q-7-6.57-13.85-13.18C-1045-19.07-1042.89-17.56-1040.84-16Zm610.37,78.16A280.7,280.7,0,0,1-251.71,50.52C-191,66.69-139.93,102.84-108,152.29c15.24,23.6,27.23,45.78,37.91,66.25,42.33,81.2,58.71,169.55,74.55,255,11.65,62.86,23.7,127.86,46,190.41C62.81,698.7,79.08,734.44,94.81,769c37.92,83.32,77.13,169.47,71.22,258.06-8.7,131-98.24,237-281.79,333.52-31.88,16.77-91.24,48-152,52.34-62.12,4.47-118.73-14.58-159.4-53.63-60.79-58.36-109.44-147.54-148.78-272.65-4.5-14.31-9-29.41-13.83-46.18-26.31-91.78-65.25-171.6-115.73-237.25l-1.19-1.54C-768,722.48-847.61,661.69-943.32,621c-86.59-36.82-181.73-52.76-273.74-68.17-123.09-20.62-250.38-41.94-356.4-113.85-85.94-58.44-148.82-181.58-160-266.79-1.36-32.21,6.94-63.47,25.36-95.56,14.11-24.59,33.43-48.73,62.62-78.29,9.2-9.27,19.52-19.22,32.46-31.32,133.38-125.36,266.7-163.91,396.24-114.57A225.42,225.42,0,0,1-1191.2-136q6,6.87,12,13.75c1.62,1.87,3.28,3.76,4.91,5.63-2.32-.94-4.64-1.89-7-2.77-69.33-25.85-140.58-26.72-211.78-2.57C-1449.75-102.73-1508-67-1566.26-15.74c-12.69,11.08-22.81,20.2-31.85,28.69-19.48,18.42-44.17,43.31-62.29,72.56-18.68,30.16-27.65,61-26.66,91.81,8.12,54.89,38.07,126.8,83.41,185.36,21,27.05,45.19,51.26,72.07,69.62,102,69.46,224.2,90.95,342.38,111.74,86.44,15.2,175.81,30.93,257.33,65.22,94.61,39.8,172.62,98,231.88,172.82,49.29,62.37,87.65,139.2,113.69,228.22,5,17,9.28,31.21,13.56,44.78,38.34,121.39,84.93,208.49,142.42,266.26,41.34,41.55,97.88,62.35,159.17,58.58,56.34-3.45,107.64-30.4,151.3-55.39C-3,1257.68,132.24,1160.72,141.55,1003c5-84.65-32-166.8-67.89-246.23C59,724.22,43.78,690.56,32.14,657.86,11.25,599.12-.45,538.07-11.76,479-27.35,397.65-43.48,313.49-84,236c-10.18-19.45-21.6-40.53-36-62.95-30.36-47.08-78.8-82-136.36-98.13A275.86,275.86,0,0,0-426,81.7c-91.92,34.2-213.71,70.86-340.71,50.61-39.52-6.25-85.16-22.22-130.45-45.19,38.18,17.68,75.75,30,109.1,35.48C-653.57,144.67-526.31,101.88-430.47,62.14ZM-1116-72.33c6.2,6.61,12.51,13.27,18.91,19.89q-4.12-1.8-8.4-3.47c-7.11-7.06-14-14.36-20.8-21.69Q-1121.07-75.08-1116-72.33Zm98.27,77.46q9.57,8.75,19.46,17.37l-1.2-.65c-1.09-.86-2.22-1.71-3.3-2.57-7.22-5.79-14.21-11.91-21.1-18.15Q-1020.79,3.11-1017.75,5.13Zm-129.83-91.75c7.76,8.37,15.7,16.57,23.95,24.37C-1233.7-96.8-1346.82-69.15-1469,22.06c-11,8.2-20.84,15.6-30.46,23.28-20.06,16-43,35.65-60.9,60.1-9.87,13.46-17.84,28.09-22.82,43.61-5.37,16.71-7.51,32.35-3.51,49.45a338.27,338.27,0,0,0,14.13,45,424.05,424.05,0,0,0,50.52,93.31q4.3,6,8.86,11.9c19.89,25.69,43,48.82,68.55,66.47,93.13,64,204.74,85.81,312.67,106.89,75.45,14.74,153.48,30,225.28,59.45,92.23,37.87,166.93,90.22,222.05,155.61C-637,793.65-599.89,864.85-574.29,948.8c3.8,12.46,8.26,27,13,41.86,23.17,72.59,61.66,177.61,128.48,251.52,41.19,45.59,96,69.38,154.46,67,54.08-2.19,102.92-30.54,147.65-60.85,110-74.56,212.54-161.74,218-293.73C90.5,878.85,57.94,805.21,26.44,734,13.81,705.43.74,675.89-9.47,647.18-27.75,595.8-38.75,542.53-49.37,491-64.44,418-80,342.48-116.6,272.81c-9.14-17.34-19.35-36.13-32.12-56-52.81-82.25-162.31-120-266.18-91.7-91,24.77-198.93,47.85-310.09,31.29-44.63-6.56-95.37-24.26-145.08-50.4,42.89,20.72,85.53,34.85,123.76,40.69,120.38,18.59,237.85-12.17,326.74-41.06,101.49-33,213-1.07,272.61,75.89q5.44,7,10.3,14.57c13.57,21.07,24.35,41,34,59.29,38.39,73.31,54.2,153,69.5,230,11,55.36,22.36,112.62,42,167.85,11,30.79,25.1,62.44,38.78,93C81.18,821.38,115.88,899,111.79,978.7c-4.07,80.28-35.6,179.4-238.57,305.78-42.45,26.43-92.41,54.87-148.12,57.7-58.94,3-113.88-19-154.66-62-54.35-57.26-97.2-139.22-134.92-258-4.06-12.8-8.28-26.55-13.27-43.27-25.91-86.8-63.79-161.07-112.44-220.74-57.5-70.46-134.21-126-228-165-77-32-160.86-47.55-242-62.57-112.73-20.87-229.29-42.44-326.34-108.83-26.15-17.94-48.25-40.43-67.22-64.5a435.68,435.68,0,0,1-49.87-80.26c-12.4-25.66-22.52-52.39-28.82-79.82-1.94-8.41-3.34-16.46-2.85-25.07a131.3,131.3,0,0,1,4-25.4c4.57-17.71,12.71-34.55,23.14-50.08,17.74-26.4,40.88-48.11,61.18-65.85,10.48-9.11,21.13-17.84,31.08-25.93,129-104.88,249.35-134.88,367.94-91.69Zm84.24,66.76c5.56,4.83,11.35,9.59,17.23,14.31-6.89-5.1-13.53-10.27-20-15.46.91.37,1.82.72,2.73,1.11C-1063.37-19.89-1063.35-19.88-1063.34-19.86Zm2.8,9.29c6.79,4.86,13.65,9.54,20.53,14.12-1.29-.45-2.54-.91-3.84-1.34-134.6-44.38-251.61,11.65-327.91,57.64l-1.67,1c-9.07,5.47-18.46,11.13-27.4,16.86-20.57,13.17-42,28.06-59.53,47.65-9.63,10.77-17.7,22.73-23.11,35.7a100.15,100.15,0,0,0-5.83,19.05c-1.62,8.2-2.44,15-.29,23.11,2.2,8.4,4.81,16.72,7.74,24.93a366,366,0,0,0,22.11,49.55,398.92,398.92,0,0,0,36.24,55.94c19.89,25.7,42.43,48.07,65.78,64.38,84.58,58.82,186,81.06,284.15,102.57,64.1,14,130.38,28.58,192,53.16C-790,590.25-720.57,635.53-669.3,692.17c45.85,50.68,81.85,116.3,107,195.12l4.32,13.55q4,12.54,8.13,25.4c20.39,63.15,56.8,155.48,114.47,236.72a179.31,179.31,0,0,0,149.8,75.49c55.8-1.08,104.11-34.13,144-66.32,87.14-70.29,172.4-148.72,174.63-265.91,1.33-67-26.77-132.19-53.95-195.28-10.55-24.49-21.46-49.82-30.22-74.45-15.61-43.86-25.82-89.19-35.69-133-14.6-64.82-29.69-131.84-62.44-193.8-8.07-15.2-17.06-31.65-28.19-49-54.09-84.55-155.7-102.43-226.31-92.08-78.81,11.56-176.9,25.94-279.54,12-47.85-6.41-102.6-24.79-154.17-51.77-4.81-2.52-9.64-5.15-14.47-7.84,50.07,25.9,101.86,43.5,147.36,49.9,107.32,15.34,209-3.13,295.83-21.65,76.35-16.29,175.4,1.69,233.12,76.23,3.57,4.62,7,9.47,10.24,14.53,11.88,18.52,21.47,36.1,30,52.35,34.51,65.51,49.81,136.6,64.6,205.34,10.28,47.78,20.91,97.18,37.91,145,9.52,26.76,21.52,54.24,33.14,80.82,29.23,66.92,59.46,136.11,57.21,207C53.64,1056.67-41.1,1137-137.8,1208.4c-43,31.79-90.31,61.43-144.25,63-56.29,1.7-109.54-23.27-149.93-70.3-60.78-70.76-96.61-167.23-121-243.36-4.16-13-8.18-25.86-12.09-38.37l-.63-2C-591.22,835.71-627.94,767-674.9,713.17-728.07,652.24-801.46,602.54-893,565.47c-67-27.14-139.38-42.09-209.35-56.54-102.67-21.22-208.86-43.16-297.19-104.22-26.51-18.39-48.71-41.58-67.61-66.34a414.66,414.66,0,0,1-48.3-81.25c-5-11-9.41-22.2-13.24-33.56-2.88-8.53-6.31-17-7.94-25.78-1.49-8.11-.56-16.42,1-24.48,3.24-17.34,10.94-33.77,21.43-48.54q2.9-4.07,6-8c17.57-21.81,40-39.24,59.73-53.42,9.81-7.07,19.92-13.91,29.7-20.52,122.64-83,229.65-105.19,336.44-69.87C-1075.29-21.48-1068.07-16-1060.54-10.57ZM-403.3,170.9c69.78-10.23,170.22,7.45,223.61,90.91,11.08,17.31,20,33.72,28.08,48.88,32.62,61.68,47.68,128.57,62.25,193.24,9.88,43.9,20.11,89.3,35.76,133.28,8.78,24.7,19.71,50.06,30.27,74.59C3.76,774.67,31.76,839.68,30.44,906.18c-2.21,116.23-87,194.24-173.75,264.18-39.54,31.89-87.37,64.65-142.31,65.72a176.33,176.33,0,0,1-147.51-74.4c-57.51-81-93.82-173.1-114.17-236.1-2.76-8.55-5.46-17-8.12-25.4l-4.33-13.54c-25.27-79.14-61.44-145.08-107.51-196-51.53-56.95-121.26-102.44-213.2-139.08-61.87-24.66-128.27-39.22-192.48-53.3-97.85-21.45-199-43.63-283.16-102.13-27.28-19.06-50-43.33-69.19-69a386.45,386.45,0,0,1-50.58-90.29q-4.11-10.51-7.48-21.23c-2.33-7.46-5.5-14.51-5-22.39A95.16,95.16,0,0,1-1484,170c5.08-15.82,14.26-30.32,25.69-43.1,17.31-19.36,38.58-34.13,59-47.21C-1390.39,74-1381,68.3-1372,62.84l1.67-1c75.82-45.71,192.06-101.39,325.53-57.39,4.74,1.56,9.33,3.27,13.84,5.08q12.24,7.88,24.56,15.12,7.26,4.58,14.56,8.91c5.69,3.66,11.43,7.2,17.17,10.65Q-966.84,49.26-959,54c2.62,1.73,5.24,3.46,7.9,5.15-17.89-10.47-37-19.81-58.42-26.59-54.55-17.26-109.53-20-168.07-8.41-45.69,9.05-91.94,26.39-145.55,54.56l-3.45,1.8c-8.25,4.34-16.77,8.81-24.94,13.35C-1375,107-1394,119-1410.33,135.32a118.6,118.6,0,0,0-22.06,29.77c-7.6,14.92-12.14,29.69-7.21,45.84a328.39,328.39,0,0,0,20,49.71,392.76,392.76,0,0,0,41.26,65.8c19.48,25.15,41.49,47.11,64.1,63,80.49,56.37,177.15,78.92,270.62,100.74,58.19,13.58,118.36,27.62,174.69,49.68,92,36,157.89,77.29,207.31,129.8,45,47.76,80.41,110.64,105.35,186.86,2.83,8.61,5.67,17.38,8.54,26.25l3.63,11.23c19.77,60.83,54.47,150,107.51,229.35,33.65,50.46,88.85,80.25,147.44,79.7C-231.79,1202.57-183,1165.9-147,1134-66.7,1063.05,5.4,990.37,6,882c.39-62.62-25.5-123.71-50.54-182.78-9.49-22.4-19.3-45.56-27.32-68.1-14.23-40-24-81.27-33.46-121.18-14.4-60.8-29.29-123.69-60.18-181.87-7.52-14.13-15.91-29.42-26.21-45.56-48.07-75.39-138.13-97.11-206.36-92.26q-12.43.89-25.14,1.84c-72.2,5.35-154,11.41-239.14.45-46.19-5.83-98.53-22.23-147.37-46.17-15.14-7.43-30.71-15.84-46.28-25l-.45-.28c5.91,3.34,11.83,6.6,17.74,9.69,51.84,27.12,106.93,45.61,155.1,52.06C-580.6,196.9-482.29,182.48-403.3,170.9Zm5.4,21.74c67.42-4.78,156.38,16.61,203.86,91.08,10.26,16.07,18.62,31.32,26.12,45.39,30.76,57.93,45.61,120.68,60,181.35,9.47,40,19.26,81.29,33.53,121.41,8,22.59,17.86,45.79,27.37,68.21C-22.09,759,3.71,819.83,3.32,882,2.76,989.45-69,1061.72-148.82,1132.32c-35.71,31.58-83.94,67.88-140.37,68.39-57.64.53-111.88-28.84-145.15-78.56-52.9-79.13-87.51-168.1-107.23-228.78l-3.64-11.23q-4.31-13.32-8.53-26.26c-25-76.55-60.69-139.72-105.87-187.73-49.7-52.8-115.88-94.24-208.27-130.43-56.53-22.14-116.8-36.21-175.09-49.81-93.22-21.75-189.6-44.25-269.66-100.32-27.67-19.49-50.52-44.46-69.79-70.77-20.87-28.5-37.95-59.51-49.76-92-3-8.21-7.88-17.63-7.15-26.41a85.25,85.25,0,0,1,5.82-24.62c5.3-13.24,13.78-25.35,24.11-35.87l1-1c16.1-16.06,34.94-28,58.27-41,8.13-4.52,16.65-9,24.88-13.31l3.44-1.81C-1167.91,0-1070.35,15.86-1010.36,34.85c41.15,13,74,35.68,105.69,57.6,15.15,10.47,30.81,21.28,47.19,30.93,15.62,9.19,31.26,17.64,46.46,25.09,49.11,24.08,101.77,40.57,148.26,46.44,85.39,11,167.39,4.93,239.73-.43Q-410.34,193.52-397.9,192.64ZM-1065.79-17.54c-3.15-2.33-6.35-4.64-9.42-7l1.57.57C-1071-21.82-1068.46-19.67-1065.79-17.54ZM-1081-29.09q-17.25-13.48-32.48-27.25c2.17.77,4.3,1.6,6.43,2.42q7,7,14.31,13.61,6.57,5.93,13.56,11.82Zm-6.8-2.2C-1193.41-64-1299.4-40.9-1420.39,41c-9.8,6.62-19.93,13.48-29.77,20.57-19.81,14.28-42.46,31.84-60.22,53.87-9.83,12.21-17.91,25.61-23.11,40-2.89,8-5.39,16.15-6.4,24.5-1,8.06.33,15.39,2.35,23.19A333.18,333.18,0,0,0-1522.23,248a414.72,414.72,0,0,0,53.59,92.61l1,1.32c19.35,25,41.75,47.54,66.45,64.68C-1312.39,468-1205.92,490-1103,511.24c69.83,14.43,142.05,29.35,208.85,56.4,91.18,36.91,164.24,86.37,217.14,147,46.76,53.57,83.3,122,108.68,203.4l.63,2c3.91,12.51,7.93,25.35,12.1,38.38,24.5,76.33,60.41,173,121.5,244.16,40.92,47.64,94.93,72.94,152.11,71.21,54.71-1.64,102.42-31.53,145.82-63.59,97.18-71.77,192.38-152.5,196.32-279.81C62.46,859.07,32.13,789.65,2.8,722.51c-11.59-26.54-23.59-54-33.08-80.68-16.95-47.64-27.57-97-37.83-144.68C-82.93,428.26-98.26,357-132.91,291.24c-8.61-16.29-18.22-33.93-30.15-52.52-56.24-87.8-164.23-109.38-246.26-91.89-86.61,18.47-188,36.9-294.81,21.63-47.84-6.73-102.72-26-155.19-54.23,46.08,22.89,92.58,38.45,133.9,44.52,111.7,16.64,220-6.51,311.28-31.35,96.49-26.28,197.84,5,253.07,76.36q5.32,6.87,10.07,14.24c12.72,19.8,22.9,38.53,32,55.83,36.44,69.39,52,144.74,67,217.61C-41.32,543-30.32,596.38-12,647.9c10.24,28.79,23.32,58.37,36,87,31.39,71,63.85,144.38,60.69,219.64-2.52,60.72-25.41,115.78-70,168.32-42.14,49.68-97.95,90.36-147,123.6-44.39,30.08-92.82,58.22-146.18,60.37-57.55,2.34-111.65-21.14-152.3-66.13-66.48-73.54-104.88-178.29-128-250.68-4.74-14.86-9.2-29.38-13-41.83-25.69-84.25-63-155.72-110.79-212.48C-737.93,670-813,617.38-905.6,579.36c-72.07-29.6-150.23-44.86-225.82-59.62-107.65-21-219-42.77-311.62-106.46-26.31-18.15-48.52-40.88-67.48-65.25a419.78,419.78,0,0,1-49-80.44c-11.79-25.28-22-52.06-26.67-79.24-2.27-13.08,2-28.72,6.32-41.16a153.34,153.34,0,0,1,21.67-40.44c17.76-24.23,40.52-43.74,60.45-59.63,9.59-7.65,19.44-15,30.39-23.23,123.32-92,237.2-118.94,347.93-82.21C-1109.57-49.24-1099-40.22-1087.8-31.29Zm76.52,46.7c-7.17-5.45-14.19-11-20.87-16.55-3.1-2.6-6.11-5.32-9.14-8,2.17,1.18,4.3,2.39,6.42,3.62C-1027.21,1.64-1019.35,8.65-1011.28,15.41ZM-1033.94.6c1.58,1.32,3.25,2.62,4.86,3.94q-13.51-10.15-26.06-20.76c1.67.79,3.31,1.62,5,2.43C-1044.87-8.87-1039.48-4-1033.94.6Zm-27.91-22.48c-8.16-7.16-16-14.73-23.73-22.44,3,1.52,5.95,3.1,8.85,4.73q10.17,10.26,20.76,20.34C-1057.92-20.14-1059.86-21-1061.85-21.88Zm-6.66-2.72c-1.23-.48-2.47-.94-3.71-1.4-6.43-5.31-12.71-10.63-18.65-16-3.34-3-6.58-6.2-9.83-9.35,2.76,1.17,5.49,2.39,8.17,3.64Q-1080.86-35.81-1068.51-24.6ZM-1111.06-58c-.51-.18-1-.39-1.53-.57-1.78-.63-3.57-1.2-5.36-1.79-.74-.69-1.55-1.38-2.28-2.06-7.54-7.06-14.79-14.53-21.92-22.11,3.31,1.3,6.58,2.66,9.78,4.1C-1125.42-72.85-1118.32-65.34-1111.06-58ZM-1146-88.59q-9.81-10.59-19.24-21.38c3.76,1.76,7.46,3.58,11.06,5.51,1.86,2,3.71,4.11,5.55,6.16,4,4.46,8.08,9,12.17,13.45Q-1141.12-86.81-1146-88.59Zm-5.18-1.83c-118.25-41.34-238.19-10.73-366.5,93.59-9.48,7.71-20.6,16.82-31.14,26-20.43,17.86-43.72,39.7-61.6,66.33a168.37,168.37,0,0,0-22.3,46.56c-4.93,17-7.07,33.28-3.42,50.61a333.68,333.68,0,0,0,12.6,43.76A442.3,442.3,0,0,0-1577,329.2c6,9.18,12.4,18.18,19.17,26.92,20.34,26.27,43.83,49.82,69.77,67.62,97.53,66.71,214.39,88.34,327.41,109.26,81,15,164.71,30.49,241.42,62.39,93.37,38.83,169.73,94.08,227,164.21,48.53,59.51,86.2,133.45,112,219.95,5,16.74,9.22,30.51,13.29,43.32,37.81,119.12,80.85,201.35,135.44,258.89,41.34,43.54,97,65.85,156.83,62.79,56.39-2.87,106.72-31.5,149.46-58.12,114.43-71.25,232.39-163.52,239.71-307.62,4.11-80.2-30.7-158.09-64.37-233.4-13.66-30.57-27.79-62.17-38.72-92.89C-8.26,597.45-19.61,540.27-30.59,485c-15.32-77.19-31.16-157-69.7-230.6-9.66-18.4-20.47-38.33-34.09-59.47-56.83-88.38-177.2-126.87-286.09-91.5-88.58,28.78-205.63,59.44-325.39,41C-788.64,137.82-837,120.85-885,95.79c41.1,19.56,82,33.19,117.85,38.86C-639.52,155-517.26,118.22-425,83.89a273,273,0,0,1,167.84-6.75c50.57,14.21,94,43,124.14,81.91q5.67,7.33,10.72,15.15c14.4,22.33,25.79,43.37,35.94,62.77,40.35,77.24,56.45,161.24,72,242.46,11.33,59.13,23,120.26,44,179.16,11.66,32.79,26.87,66.49,41.58,99.08,35.74,79.19,72.69,161.08,67.69,245.21C129.67,1159.51-5,1256-121.27,1322.52c-43.38,24.83-94.33,51.62-150,55-60.47,3.72-116.24-16.8-157-57.79-57.21-57.48-103.61-144.28-141.85-265.33-4.27-13.56-8.58-27.77-13.55-44.73-26.11-89.3-64.51-166.37-114.08-229-59.52-75.2-137.89-133.61-232.91-173.59-81.81-34.42-171.35-50.17-257.94-65.4C-1306.58,521-1428.47,499.54-1530,430.4c-25.81-17.62-47.81-39.54-66.79-63.09a439.72,439.72,0,0,1-50.32-78.77,416.6,416.6,0,0,1-30.85-80.32,284.39,284.39,0,0,1-5.92-27.88c-1.34-8.44-.56-17.23.52-25.68a162.77,162.77,0,0,1,16.51-52.42q4-8,8.75-15.57c18-29,42.51-53.77,61.89-72.08,9-8.46,19.11-17.56,31.78-28.62,58-51,115.94-86.59,172.24-105.68,70.55-23.92,141.15-23.07,209.84,2.54,4,1.47,7.82,3.06,11.61,4.71C-1164.31-105.08-1157.81-97.7-1151.15-90.42ZM-996.23,20.77c3.57,3.1,7.19,6.23,10.83,9.35l-.22-.13q-7.5-6.18-14.78-12.6l1.75,1.29Zm-61-47.76q7.5,7.29,15.2,14.64c-2.14-1.14-4.3-2.25-6.49-3.35-6.68-6.18-13.2-12.52-19.61-18.92q4.4,2.67,8.68,5.48ZM-1075-41.43c-3.62-3.67-7.24-7.34-10.8-11l-2.73-2.77q3.78,2.67,7.47,5.42,6.6,6.15,13,12.37C-1070.32-38.77-1072.65-40.11-1075-41.43Zm-12.79-9.4,5.28,5.35q-4.11-2.13-8.35-4.12-9-9.23-17.75-18.54,4.88,2.86,9.59,5.9Q-1093.37-56.54-1087.8-50.83Zm-26.51-23.35-1.64-1.74q-5.54-5.91-11.13-11.82,4.07,2.83,8,5.79,6.35,6,12.53,12.19Q-1110.35-72-1114.31-74.18Zm-6.86-3.63c-3.12-1.58-6.31-3.08-9.54-4.54q-8-8.75-15.84-17.45c-.25-.29-.51-.57-.77-.85q5.37,3.08,10.54,6.39Q-1128.89-86.07-1121.17-77.81Zm-31.22-28.47q-6.12-6.78-12.36-13.57,4.51,3.13,8.9,6.42,6.15,5.93,12.11,12C-1146.57-103.09-1149.46-104.7-1152.39-106.28Zm-6.33-3.24c-3.37-1.67-6.8-3.29-10.3-4.82-2.71-3.12-5.45-6.24-8.13-9.34l-7.62-8.78q5.6,3.18,11,6.61Q-1166.16-117.73-1158.72-109.52Zm-30.73-28.29q-6.08-6.93-12.26-13.79,4.65,3.21,9.16,6.58,6.19,6,12.18,12.27Q-1184.84-135.36-1189.45-137.81Zm-6.2-3.22c-6.44-3.17-13.11-6.1-20.06-8.72-130.65-49.76-265-11-399.16,115.11-13,12.12-23.3,22.09-32.54,31.39-29.34,29.71-48.77,54-63,78.79-18.64,32.46-27,64.1-25.65,96.82,7.71,59,40.06,136.09,87.67,197.58,21.59,27.89,46.33,52.58,73.32,70.92,106.52,72.25,234.12,93.63,357.51,114.3,91.84,15.38,186.82,31.29,273.09,68,95.3,40.52,174.55,101,235.61,179.89l1.18,1.53c50.31,65.42,89.11,145,115.35,236.5,4.82,16.78,9.34,31.9,13.84,46.23,39.45,125.48,88.3,215,149.39,273.63,41.24,39.59,98.6,58.89,161.54,54.36,61.35-4.4,121-35.79,153.11-52.65,116-61,271.59-162.16,283.09-335.43,6-89.13-33.38-175.54-71.41-259.1C81.54,733.58,65.3,697.89,53,663.21c-22.2-62.39-34.23-127.3-45.87-190.07C-8.78,387.54-25.19,299-67.67,217.53c-10.71-20.51-22.73-42.76-38-66.43C-138,101.11-189.56,64.58-251,48.24A283.56,283.56,0,0,0-431.57,60c-95.49,39.59-222.25,82.22-356,60.27-37.9-6.18-81.3-21.35-124.86-43.2,36.28,16.55,71.75,28.17,103.51,33.49,68.3,11.49,181.28,16.72,373-70.16,123.22-55.83,273.58-16.27,342.3,90,16.09,24.88,28.68,48.21,39.88,69.72C-9.43,285.29,7.24,378,23.36,467.69c12,66.57,24.35,135.41,47.9,201.59,13.07,36.73,30.38,74.5,47.13,111,40.11,87.45,81.58,177.88,74.76,270.94-5.58,76.29-38.94,146.39-99.16,208.36-49.78,51.22-116.58,96.7-204.24,139-48,23.17-99.82,45.21-153.92,49.66-64.8,5.35-120.74-11.76-161.78-49.45-64.3-59.08-115.24-150.66-155.71-280-4.67-14.95-9.28-30.52-14.1-47.63-26.52-94.25-66-176.86-117.38-245.5-63.34-84.66-145-148.88-242.76-190.85-91.3-39.21-192-55.31-289.38-70.88-128.36-20.52-261.08-41.74-371.65-116.46-90.45-61.23-155.17-190.63-165.46-280.3-1.73-33.79,6.24-66.7,24.38-100.64,14.19-26.55,33.72-52.62,63.33-84.51,9.44-10.14,20-20.95,33.15-34,136.69-136.26,274.77-178.66,410.4-126a233.54,233.54,0,0,1,40.82,20.7Q-1202.87-149.23-1195.65-141Zm138,110.15-.11-.07-.22-.22ZM-1096-63.27l-1.23-.78-2.07-2.09C-1098.23-65.19-1097.14-64.22-1096-63.27Zm-36.88-31.41c-.69-.45-1.37-.91-2.06-1.35-.91-1-1.82-1.91-2.74-2.85C-1136.11-97.5-1134.52-96.08-1132.93-94.68Zm-36.27-31.18c-.93-.61-1.88-1.18-2.81-1.78-1.18-1.24-2.35-2.49-3.53-3.74C-1173.41-129.56-1171.29-127.73-1169.2-125.86Zm-36.13-31.1c-1.05-.69-2.11-1.39-3.18-2.07-1.26-1.36-2.54-2.72-3.82-4.07Q-1208.78-160.07-1205.33-157ZM-99.24,1474.73c-43.11,17.49-100,38.32-157.79,44.29-69.64,7.2-125.67-6.64-166.51-41.11-70.22-59.31-127.29-158.43-169.57-294.64-5-16.17-9.82-32.7-14.66-50.52-26.92-99.15-67.53-187.31-120.67-262-67-94.18-152-164.21-252.61-208.1-100.66-44.07-212.45-60.44-320.56-76.26C-1440.54,566-1584.2,545-1703.87,464.65c-44.37-29.81-87.11-79-120.31-138.66-31.25-56.09-51.73-117.57-56.17-168.66-2.51-37,4.82-73.26,22.42-110.81,14.08-30.07,34.66-60.87,64.76-96.95,9.73-11.66,20.7-24.19,34.53-39.43,63.21-69.76,128.57-119.09,194.27-146.62,81.19-34,163.44-34.79,244.46-2.29,30.64,12.27,56.17,30.3,79,51a238.55,238.55,0,0,0-43.54-22.74c-142.93-56.44-286.8-10-427.62,138.1-13.48,14.12-24.25,25.82-33.92,36.8-29.79,33.94-50.24,62.93-64.38,91.23-18,36.12-25.77,71.06-23.63,106.87,6.62,66,41.15,152.26,93.84,220.31,22.9,29.57,49.23,55.71,78.19,75.23,115.52,77.81,253.91,98.94,387.74,119.37,102.71,15.69,208.9,31.9,304.62,73.53C-871,693.46-788,760.29-723,849.53c52.09,71.44,92,156.57,118.68,253,4.81,17.4,9.51,33.48,14.4,49.15,41.78,134.07,95.19,228.41,163.33,288.36,41.28,36.33,98.77,52.21,166.26,46,55.91-5.19,110.62-26.78,156.75-47.21,91.7-40.61,165.54-88.72,219.46-143,64.6-65,100.6-139.12,107-220.23,7.77-98.09-36.08-193.06-78.49-284.91-17.75-38.43-36.1-78.17-49.84-116.77C69.8,604.27,57.12,531.7,44.85,461.51,28.41,367.43,11.41,270.15-35,180.67-46.8,158.06-60,133.51-77,107.29-113.06,51.56-171,11.67-240.21-5c-68.29-16.47-140.18-8.81-202.45,21.58C-537.71,63-681.21,121.68-829.35,96.16c-35.17-6-75-20-115.6-39.92,33.07,14.69,65.14,25.1,94.23,30.2,66.12,11.63,134.53,7.92,209.12-11.36,59.34-15.33,123-40.9,194.73-78.18C-313.32-72.54-142-32.24-64.94,86.58c17.78,27.43,31.57,53.06,43.81,76.67,48.3,93.17,65.58,194.69,82.28,292.87,12.59,74,25.6,150.44,51.73,223.85,14.46,40.64,33.88,82.44,52.66,122.87C210,898.58,256,997.58,247.38,1099.59,240.2,1184.49,202,1261.68,133.84,1329,75.5,1386.65-2.92,1435.68-99.24,1474.73Z"/></g></g></g><g class="cls-9"><rect class="cls-10" x="-535.55" y="17.62" width="2372.06" height="1367.42"/><g class="cls-11"><polygon class="cls-12" points="-234.8 186.33 -234.8 1083.05 1164.91 -177.42 169.13 -177.42 -234.8 186.33"/></g></g><g id="形狀_324_1" data-name="形狀 324 1"><path class="cls-13" d="M17,21.11A10.56,10.56,0,1,0,6.47,10.56,10.53,10.53,0,0,0,17,21.11Zm16,8.26c-.36-5.51-2.92-6.24-5.48-8.26s-2.92-.55-4.56.92-8,1.28-10,.92-2.74-2-5.48-2.76S1.9,23.86,1.9,23.86c-2,4-2,4.23-1.83,8.26s4.57,4.59,4.57,4.59c5.66,1.29,18.27,1.66,22.83,0C31.49,35.26,33.32,34.88,33,29.37Z"/></g></g></g></svg>