<svg id="圖層_1" data-name="圖層 1" xmlns="http://www.w3.org/2000/svg" viewBox="0 0 150 150"><defs><style>.cls-1{fill:#67ccd1;}.cls-2{fill:#fff;}.cls-3{fill:#fd7da0;}.cls-4{fill:#052a75;}</style></defs><path class="cls-1" d="M143.9,39.54v89.52a6.12,6.12,0,0,1-6.12,6.12H12.21a6.12,6.12,0,0,1-6.11-6.12V39.54a6.12,6.12,0,0,1,6.11-6.11H137.78A6.12,6.12,0,0,1,143.9,39.54ZM120.64,84.3A45.65,45.65,0,1,0,75,130,45.69,45.69,0,0,0,120.64,84.3Z"/><path class="cls-2" d="M75,44.48A39.83,39.83,0,1,1,35.17,84.3,39.87,39.87,0,0,1,75,44.48Zm29.94,52V72.09a2.9,2.9,0,0,0-2.9-2.9H90.12V57.26a2.9,2.9,0,0,0-2.91-2.9H62.79a2.9,2.9,0,0,0-2.91,2.9V69.19H48a2.91,2.91,0,0,0-2.91,2.9V96.52A2.91,2.91,0,0,0,48,99.42H59.88v11.92a2.91,2.91,0,0,0,2.91,2.91H87.21a2.91,2.91,0,0,0,2.91-2.91V99.42H102A2.9,2.9,0,0,0,104.94,96.52Z"/><path class="cls-3" d="M99.13,75V93.61H87.21a2.91,2.91,0,0,0-2.91,2.91v11.92H65.7V96.52a2.91,2.91,0,0,0-2.91-2.91H50.87V75H62.79a2.91,2.91,0,0,0,2.91-2.91V60.17H84.3V72.09A2.91,2.91,0,0,0,87.21,75Z"/><path class="cls-4" d="M149.72,39.54v89.52A12,12,0,0,1,137.78,141H12.21A12,12,0,0,1,.28,129.06V39.54A12,12,0,0,1,12.21,27.61H41.27v-7A11.64,11.64,0,0,1,52.89,9H97.11a11.63,11.63,0,0,1,11.61,11.62v7h29.06A12,12,0,0,1,149.72,39.54Zm-5.82,89.52V39.54a6.12,6.12,0,0,0-6.12-6.11H12.21A6.12,6.12,0,0,0,6.1,39.54v89.52a6.12,6.12,0,0,0,6.11,6.12H137.78A6.12,6.12,0,0,0,143.9,129.06Zm-41-101.45v-7a5.8,5.8,0,0,0-5.8-5.8H52.89a5.8,5.8,0,0,0-5.8,5.8v7Z"/><path class="cls-4" d="M75,38.66A45.65,45.65,0,1,1,29.35,84.3,45.69,45.69,0,0,1,75,38.66ZM114.83,84.3A39.83,39.83,0,1,0,75,124.14,39.87,39.87,0,0,0,114.83,84.3Z"/><path class="cls-4" d="M104.94,72.09V96.52a2.9,2.9,0,0,1-2.9,2.9H90.12v11.92a2.91,2.91,0,0,1-2.91,2.91H62.79a2.91,2.91,0,0,1-2.91-2.91V99.42H48a2.91,2.91,0,0,1-2.91-2.9V72.09A2.91,2.91,0,0,1,48,69.19H59.88V57.26a2.9,2.9,0,0,1,2.91-2.9H87.21a2.9,2.9,0,0,1,2.91,2.9V69.19H102A2.9,2.9,0,0,1,104.94,72.09ZM99.13,93.61V75H87.21a2.91,2.91,0,0,1-2.91-2.91V60.17H65.7V72.09A2.91,2.91,0,0,1,62.79,75H50.87V93.61H62.79a2.91,2.91,0,0,1,2.91,2.91v11.92H84.3V96.52a2.91,2.91,0,0,1,2.91-2.91Z"/></svg>