<svg id="圖層_1" data-name="圖層 1" xmlns="http://www.w3.org/2000/svg" viewBox="0 0 150 150"><defs><style>.cls-1{fill:#86a3fd;}.cls-2{fill:#fff;}.cls-3{fill:#fdcb50;}.cls-4{fill:#586ba6;}.cls-5{fill:#052a75;}</style></defs><rect class="cls-1" x="2.42" y="41.13" width="145.16" height="96.77" rx="6.05"/><path class="cls-2" d="M147.58,47.18V65.32a24.2,24.2,0,0,1-24.19,24.2H26.61A24.2,24.2,0,0,1,2.42,65.32V47.18a6,6,0,0,1,6-6H141.53a6,6,0,0,1,6.05,6Z"/><path class="cls-3" d="M29,77.42H43.55v24.19H29Z"/><path class="cls-3" d="M106.45,77.42H121v24.19H106.45Z"/><path class="cls-4" d="M101.61,24.19V41.13H91.94V25.4a3.64,3.64,0,0,0-3.63-3.63H61.69a3.64,3.64,0,0,0-3.63,3.63V41.13H48.39V24.19A12.09,12.09,0,0,1,60.48,12.1h29A12.09,12.09,0,0,1,101.61,24.19Z"/><path class="cls-5" d="M141.53,38.71H104V24.19A14.53,14.53,0,0,0,89.52,9.68h-29A14.53,14.53,0,0,0,46,24.19V38.71H8.47A8.47,8.47,0,0,0,0,47.18v84.67a8.47,8.47,0,0,0,8.47,8.47H141.53a8.47,8.47,0,0,0,8.47-8.47V47.18A8.47,8.47,0,0,0,141.53,38.71ZM50.81,24.19a9.67,9.67,0,0,1,9.67-9.67h29a9.67,9.67,0,0,1,9.67,9.67V38.71H94.35V25.4a6,6,0,0,0-6-6H61.69a6,6,0,0,0-6,6V38.71H50.81ZM89.52,25.4V38.71h-29V25.4a1.22,1.22,0,0,1,1.21-1.21H88.31A1.22,1.22,0,0,1,89.52,25.4Zm55.64,106.45a3.62,3.62,0,0,1-3.63,3.63H8.47a3.62,3.62,0,0,1-3.63-3.63V80.61A26.62,26.62,0,0,0,26.61,91.94v9.67A2.42,2.42,0,0,0,29,104H43.55A2.42,2.42,0,0,0,46,101.61V91.94H104v9.67a2.42,2.42,0,0,0,2.42,2.42H121a2.42,2.42,0,0,0,2.42-2.42V91.94a26.62,26.62,0,0,0,21.77-11.33ZM31.45,99.19V79.84h9.68V99.19Zm77.42,0V79.84h9.68V99.19Zm36.29-33.87A21.8,21.8,0,0,1,123.39,87.1V77.42A2.42,2.42,0,0,0,121,75H106.45A2.42,2.42,0,0,0,104,77.42V87.1H46V77.42A2.42,2.42,0,0,0,43.55,75H29a2.42,2.42,0,0,0-2.42,2.42V87.1A21.8,21.8,0,0,1,4.84,65.32V47.18a3.62,3.62,0,0,1,3.63-3.63H141.53a3.62,3.62,0,0,1,3.63,3.63Z"/></svg>