<svg id="圖層_1" data-name="圖層 1" xmlns="http://www.w3.org/2000/svg" viewBox="0 0 150 150"><defs><style>.cls-1{fill:#fd8f01;}.cls-2{fill:#fff;}.cls-3,.cls-7{fill:#052a75;}.cls-4{fill:#86a3fd;}.cls-5{fill:#586ba6;}.cls-6{fill:#fdcb50;}.cls-7{font-size:24.17px;font-family:DFYuan-UB-HKP-BF, DFPYuanUBold-B5;letter-spacing:0.1em;}</style></defs><path class="cls-1" d="M32.73,95H56.57v37.51H32.73Z"/><path class="cls-2" d="M115.48,5.27h-81c-1.57,0-2.85,1.55-2.85,3.47V30.13c0,1.91,1.28,3.47,2.85,3.47h81c1.57,0,2.85-1.56,2.85-3.47V8.74C118.33,6.82,117.05,5.27,115.48,5.27Z"/><path class="cls-3" d="M149.92,68.06V63.34a2.35,2.35,0,0,0-.26-1.07L137.37,38.46c-1.55-3-5.07-4.87-9.2-4.87h-5.72a7.34,7.34,0,0,0,.57-2.86V8.13A7.55,7.55,0,0,0,115.49.58h-81A7.55,7.55,0,0,0,27,8.13V30.74a7.59,7.59,0,0,0,.56,2.86H21.83c-4.14,0-7.67,1.86-9.2,4.86L.34,62.27a2.35,2.35,0,0,0-.26,1.07v4.72A16.9,16.9,0,0,0,14.22,84.71v47.74H8.84a8.78,8.78,0,0,0-8.76,8.78v6.43A2.34,2.34,0,0,0,2.42,150H147.58a2.34,2.34,0,0,0,2.34-2.34v-6.43a8.78,8.78,0,0,0-8.77-8.77h-5.37V84.71a16.9,16.9,0,0,0,14.14-16.65ZM133.21,40.6l9.8,19H120.13l-8.5-21.32h16.54C130.5,38.28,132.48,39.19,133.21,40.6ZM61.72,38.28,58.47,59.6H34.91l8.5-21.32Zm4.73,0h17.1L86.79,59.6H63.21ZM91.53,59.6,88.28,38.28h18.31l8.5,21.32ZM31.67,30.74V8.13a2.86,2.86,0,0,1,2.85-2.86h81a2.86,2.86,0,0,1,2.85,2.86V30.74a2.86,2.86,0,0,1-2.85,2.86h-81A2.87,2.87,0,0,1,31.67,30.74ZM16.79,40.6c.71-1.39,2.74-2.32,5-2.32H38.37L29.87,59.6H7Zm-12,27.46V64.29H145.24v3.77a12.18,12.18,0,1,1-24.36,0,2.34,2.34,0,1,0-4.68,0,12.18,12.18,0,1,1-24.35,0,2.34,2.34,0,1,0-4.68,0,12.18,12.18,0,1,1-24.35,0,2.35,2.35,0,0,0-4.69,0,12.17,12.17,0,1,1-24.34,0,2.34,2.34,0,0,0-4.68,0,12.18,12.18,0,1,1-24.35,0Zm140.48,73.17v4.09H4.76v-4.09a4.09,4.09,0,0,1,4.08-4.09H141.15A4.09,4.09,0,0,1,145.24,141.23Zm-88.67-8.78H32.73V95H56.57Zm4.69,0V92.61a2.34,2.34,0,0,0-2.34-2.34H30.39a2.34,2.34,0,0,0-2.34,2.34v39.85H18.9V84.82a16.94,16.94,0,0,0,12.56-8.19,16.82,16.82,0,0,0,29,0,16.84,16.84,0,0,0,29,0,16.83,16.83,0,0,0,29,0,16.88,16.88,0,0,0,12.56,8.19v47.64H61.26ZM119.7,90.27h-47a2.34,2.34,0,0,0-2.34,2.34v29.3a2.35,2.35,0,0,0,2.34,2.35h47a2.35,2.35,0,0,0,2.34-2.35V92.61A2.34,2.34,0,0,0,119.7,90.27Zm-2.34,29.3H75V95h42.36Zm-68.62-3.82v-3.09a2.35,2.35,0,0,1,4.69,0v3.09a2.35,2.35,0,1,1-4.69,0Z"/><path class="cls-4" d="M38.37,38.28H21.83c-2.3,0-4.33.93-5,2.32L7,59.6H29.87Z"/><path class="cls-2" d="M58.47,59.6l3.25-21.32H43.41L34.91,59.6Z"/><path class="cls-4" d="M63.21,59.6H86.79L83.55,38.28H66.45Z"/><path class="cls-2" d="M88.28,38.28,91.53,59.6h23.56l-8.5-21.32Z"/><path class="cls-4" d="M120.13,59.6H143l-9.8-19c-.73-1.41-2.71-2.32-5-2.32H111.63Z"/><path class="cls-5" d="M4.76,141.23v4.09H145.24v-4.09a4.09,4.09,0,0,0-4.09-4.09H8.84A4.09,4.09,0,0,0,4.76,141.23Z"/><path class="cls-6" d="M131.1,132.45V84.82a16.94,16.94,0,0,1-12.56-8.19,16.82,16.82,0,0,1-29,0,16.84,16.84,0,0,1-29,0,16.83,16.83,0,0,1-29,0,16.88,16.88,0,0,1-12.56,8.19v47.64H28V92.61a2.34,2.34,0,0,1,2.34-2.34H58.91a2.34,2.34,0,0,1,2.34,2.34v39.85H131.1ZM70.32,92.61a2.34,2.34,0,0,1,2.34-2.34h47A2.34,2.34,0,0,1,122,92.61v29.3a2.35,2.35,0,0,1-2.34,2.35h-47a2.35,2.35,0,0,1-2.34-2.35Z"/><path class="cls-2" d="M75,95h42.36v24.62H75Z"/><path class="cls-4" d="M4.76,68.06a12.18,12.18,0,1,0,24.36,0,2.34,2.34,0,1,1,4.68,0,12.18,12.18,0,1,0,24.35,0,2.34,2.34,0,1,1,4.68,0,12.18,12.18,0,1,0,24.35,0,2.35,2.35,0,0,1,4.69,0,12.17,12.17,0,1,0,24.34,0,2.34,2.34,0,0,1,4.68,0,12.18,12.18,0,1,0,24.35,0V64.29H4.76Z"/><path class="cls-2" d="M118.54,64.29h-29v1.43a2.34,2.34,0,0,1,2.34,2.34,12.17,12.17,0,1,0,24.34,0,2.34,2.34,0,0,1,2.34-2.34Z"/><path class="cls-2" d="M31.46,64.29v1.43a2.34,2.34,0,0,1,2.34,2.34,12.17,12.17,0,1,0,24.34,0,2.34,2.34,0,0,1,2.34-2.34V64.29Z"/><text class="cls-7" transform="translate(43.43 27.05)">JOB</text></svg>