<svg id="圖層_1" data-name="圖層 1" xmlns="http://www.w3.org/2000/svg" viewBox="0 0 150 150"><defs><style>.cls-1{fill:#052a75;}.cls-2{fill:#fff;}.cls-3{fill:#86a3fd;}.cls-4{fill:#fd8f01;}.cls-5{fill:#fd7da0;}</style></defs><path class="cls-1" d="M17.54,144.28c1.82,1.58,3.77,3.25,5.81,5.07a2.48,2.48,0,0,0,3.32,0c2-1.81,4-3.49,5.81-5.07,3.45-3,6.5-5.65,9.08-8.19a47.4,47.4,0,0,0,80.93-33.6v-55c0-1.35-.08-2.7-.19-4,.35.3.68.59,1,.91a2.5,2.5,0,0,0,3.32,0c2-1.82,4-3.5,5.81-5.08C143,30.16,150,24.13,150,15A14.27,14.27,0,0,0,136.24,0,14.69,14.69,0,0,0,125,5.34,14.69,14.69,0,0,0,113.74,0a13.53,13.53,0,0,0-12.25,8.11A46.92,46.92,0,0,0,75,0a47.55,47.55,0,0,0-47.49,47.5v55a46,46,0,0,0,.32,5.25A17.19,17.19,0,0,0,25,110.31,14.7,14.7,0,0,0,13.76,105,14.27,14.27,0,0,0,0,120c0,9.09,7,15.12,17.52,24.26Z"/><path class="cls-2" d="M117.49,102.49A42.33,42.33,0,0,1,60,142.18v-9.69C60,101,77.62,91.37,94.66,82.1c9-4.87,17.62-9.58,22.83-17.2Z"/><path class="cls-2" d="M74.57,22.53A8.37,8.37,0,0,1,80,30a2.5,2.5,0,0,1-5,0,2.5,2.5,0,0,0-5,0,7.5,7.5,0,0,0,15,0,12.2,12.2,0,0,0-1.5-6A25,25,0,0,1,99.06,40.76a2.52,2.52,0,0,0,2.75,1.8,5,5,0,1,1,0,9.9A2.53,2.53,0,0,0,99,54.26a25,25,0,0,1-48.12,0,2.5,2.5,0,0,0-2.77-1.8,5,5,0,1,1,0-9.9,2.51,2.51,0,0,0,2.75-1.8A25,25,0,0,1,74.57,22.53Z"/><path class="cls-3" d="M57.55,71.88a29.91,29.91,0,0,0,34.9,0A18.83,18.83,0,0,1,97,75.12q-2.31,1.29-4.71,2.59A128.37,128.37,0,0,0,75,88.41a124.35,124.35,0,0,0-17.23-10.7q-2.4-1.3-4.7-2.59a18.32,18.32,0,0,1,4.52-3.24Z"/><path class="cls-4" d="M113.74,5a10.68,10.68,0,0,1,9,5.79,2.5,2.5,0,0,0,4.5,0,10.67,10.67,0,0,1,9-5.8c5,0,8.75,4.31,8.75,10,0,6.8-6,12-15.8,20.48-1.34,1.16-2.75,2.37-4.2,3.65q-2.19-1.92-4.2-3.65C110.94,27,105,21.84,105,15c0-5.72,3.77-10,8.75-10Z"/><path class="cls-2" d="M75,5a42,42,0,0,1,25.09,8.25c0,.58-.09,1.17-.09,1.77,0,8.79,6.52,14.73,16.49,23.37a42.24,42.24,0,0,1,1,9.11c0,12.6-6.83,19.28-16.09,25a23.42,23.42,0,0,0-4.93-4.12,29.93,29.93,0,0,0,6.82-10.94,10,10,0,0,0,0-19.93,30,30,0,0,0-56.58,0,10,10,0,0,0,0,19.93,29.7,29.7,0,0,0,6.83,11,23.06,23.06,0,0,0-4.91,4.12c-9.27-5.74-16.12-12.42-16.12-25A42.54,42.54,0,0,1,75,5Z"/><path class="cls-2" d="M32.51,102.49V64.89c5.21,7.63,13.87,12.33,22.83,17.21a128.66,128.66,0,0,1,15.71,9.61c-9.19,8.44-16,20.5-16,40.78v7.43a42.64,42.64,0,0,1-10-7.5A19,19,0,0,0,50,120a14.29,14.29,0,0,0-13.75-15,14.5,14.5,0,0,0-3.65.47c-.06-1-.1-2-.1-3Z"/><path class="cls-5" d="M13.76,110a10.68,10.68,0,0,1,9,5.79,2.5,2.5,0,0,0,4.49,0,10.66,10.66,0,0,1,9-5.79c5,0,8.75,4.31,8.75,10,0,6.8-5.95,12-15.8,20.48-1.34,1.16-2.75,2.37-4.2,3.65q-2.19-1.92-4.2-3.65C11,132,5,126.82,5,120c0-5.72,3.77-10,8.75-10Z"/></svg>