<svg id="圖層_1" data-name="圖層 1" xmlns="http://www.w3.org/2000/svg" viewBox="0 0 150 150"><defs><style>.cls-1{fill:none;}.cls-2{fill:#052a75;}.cls-3{fill:#fd7da0;}.cls-4{fill:#fdcb50;}.cls-5{fill:#86a3fd;}.cls-6{fill:#597ade;}.cls-7{fill:#fff;}</style></defs><path class="cls-1" d="M97.48,129.34a28.2,28.2,0,0,0,22.19-8.21,26.51,26.51,0,0,0,4.83-6.08A29.11,29.11,0,0,0,99.36,71.29a15.75,15.75,0,0,0-2.38.12,48.3,48.3,0,0,1,.5,57.94Z"/><path class="cls-1" d="M70.73,141.5c.45-.14.91-.21,1.36-.37l-.07-.06a9.76,9.76,0,0,1-1.29.43Z"/><path class="cls-1" d="M51.16,52.6h.06l4-10.9-.75.25-25,7.46-.5.18,9.34,6.78A49,49,0,0,1,51.16,52.6Z"/><path class="cls-1" d="M53.84,35.11l-5.52-5.58L28,35.61l-1.57,7.72-.18.94L54.53,35.8Z"/><path class="cls-1" d="M70.27,100.38a28.77,28.77,0,0,0,8.78,20.69A29.08,29.08,0,0,0,78.73,80a28.66,28.66,0,0,0-8.46,20.38Z"/><path class="cls-1" d="M112.4,59.31a34.85,34.85,0,0,0-6.83-1.56,34,34,0,0,0-6.21-.51,42.26,42.26,0,0,0-14.8,2.64,42.73,42.73,0,0,1,7.78,6.2,31.79,31.79,0,0,1,7-.69,35.11,35.11,0,0,1,31.1,51.16c-.32.51-.57,1-.88,1.51a36.13,36.13,0,0,1-5.77,7.27,16.51,16.51,0,0,1-1.94,1.7,34.25,34.25,0,0,1-22.51,8.33,29.77,29.77,0,0,1-7.34-.87,3.28,3.28,0,0,1-.75-.13,1,1,0,0,1-.37-.12,33.25,33.25,0,0,1-13.11-6.4,2.26,2.26,0,0,1-.62-.44l-.38-.37A34.84,34.84,0,0,1,72.54,78c.5-.59,1-1.16,1.55-1.72a28.44,28.44,0,0,0-7.71-3.51.06.06,0,0,0-.06.06h0a42.76,42.76,0,0,0,1.19,56.68l.13.13.06.06c.19.06.25.19.25.25l.19.19c.12.06.12.12.18.19l.07.12a40.21,40.21,0,0,0,11.28,8.34,3.43,3.43,0,0,0,.44.19c.06.06.19.06.25.12a43.48,43.48,0,0,0,41.7-1.94l1.06-.69a44.45,44.45,0,0,0,11.54-11.22l.12-.13A43.18,43.18,0,0,0,112.4,59.31Z"/><path class="cls-1" d="M49.58,72.92a26,26,0,0,0-5.08,2.13,14.55,14.55,0,0,0-2.13,1.32A11,11,0,0,0,40.11,78a28.94,28.94,0,0,0-4.82,40.65l.43.54a19.41,19.41,0,0,0,1.44,1.57,24.74,24.74,0,0,0,3.2,2.94,18,18,0,0,0,2.26,1.63,28.52,28.52,0,0,0,17.55,4.39,1.26,1.26,0,0,1-.25-.31,47.53,47.53,0,0,1-9.65-29,48.49,48.49,0,0,1,9.4-28.72,11.56,11.56,0,0,0-1.44-.06A28.24,28.24,0,0,0,49.58,72.92Z"/><path class="cls-2" d="M119.86,55.86,127,52.54h.06a13.07,13.07,0,0,0,5.9-17A10.67,10.67,0,0,0,128.83,31a12,12,0,0,0-10.47-.82,12.23,12.23,0,0,0-6.65-5.45,10.72,10.72,0,0,0-8.09.62,13,13,0,0,0-5.83,17v.07l4.58,9a23.32,23.32,0,0,0-3-.13A49,49,0,0,0,78,56.24,48.49,48.49,0,0,0,58.23,52.1H57.6l5.21-13.92a3,3,0,0,0-.69-3.07l-10.85-11a3.05,3.05,0,0,0-3-.75L24.63,30.47a2.86,2.86,0,0,0-2,2.26L19.55,47.9a3.09,3.09,0,0,0,1.13,3L32.53,59.5a48.58,48.58,0,0,0-17.74,63.14c.19.37.44.81.63,1.19a49.45,49.45,0,0,0,14.8,16.67c.12.13.31.19.44.32a48.61,48.61,0,0,0,27.58,8.59,47.87,47.87,0,0,0,20.51-4.58,48.56,48.56,0,0,0,47.64-3.51,38.29,38.29,0,0,0,3.26-2.38,49.51,49.51,0,0,0,10-10.47,15.19,15.19,0,0,0,.82-1.32,49,49,0,0,0-14.26-67.8,48.43,48.43,0,0,0-6.31-3.49ZM106.19,30.72c.07,0,.07-.06.13-.06a.06.06,0,0,1,.06-.06h0a5.7,5.7,0,0,1,7.15,2.94l.06.19a5,5,0,0,0,2.64,2.7,4.63,4.63,0,0,0,3.76-.57l.12-.06a6.06,6.06,0,0,1,6.59.94,3.55,3.55,0,0,1,.94,1.32,7.14,7.14,0,0,1-3.2,9.22L112,53c-.81-.25-1.69-.44-2.57-.62l-6.39-12.54a7.2,7.2,0,0,1,3.13-9.16ZM70.73,141.5a21.19,21.19,0,0,1-3,.82,43.26,43.26,0,0,1-33.17-6A2.35,2.35,0,0,1,34,136a43.56,43.56,0,0,1-13.53-15.36l-.07-.06c-.12-.19-.18-.44-.31-.63A42.7,42.7,0,0,1,58.24,58a41.42,41.42,0,0,1,18.12,4c.13.06.25.19.38.19s.25.12.37.19a41.54,41.54,0,0,1,12.23,9A42.79,42.79,0,0,1,101,100.76a42.14,42.14,0,0,1-10,27.39,23.16,23.16,0,0,1-7.27-3.32A35,35,0,0,0,82.34,75.3c-.46-.43-.92-.85-1.4-1.25a3.38,3.38,0,0,0-.5-.5,35.33,35.33,0,0,0-14.11-6.9,1,1,0,0,0-.38-.13A35.2,35.2,0,0,0,23.2,100.76,34.55,34.55,0,0,0,31,122.7v.06l.13.13a32.39,32.39,0,0,0,8.34,7.4,2.77,2.77,0,0,0,.56.31v.06a41.09,41.09,0,0,0,5.27,2.63,34.42,34.42,0,0,0,12.91,2.51,31.72,31.72,0,0,0,6.59-.69l.06.07A39.68,39.68,0,0,0,72,141.07l.06.06c-.46.16-.92.23-1.37.37ZM97,71.41a15.75,15.75,0,0,1,2.38-.12,29.12,29.12,0,0,1,25.14,43.76,26.51,26.51,0,0,1-4.83,6.08,28.2,28.2,0,0,1-22.19,8.21A48.29,48.29,0,0,0,97,71.41ZM79.05,121.07a28.77,28.77,0,0,1-.7-40.68l.38-.39A29.08,29.08,0,0,1,79.05,121.07ZM59.67,71.66a48.49,48.49,0,0,0-9.4,28.72,47.47,47.47,0,0,0,9.67,29,.93.93,0,0,0,.25.31,28.53,28.53,0,0,1-17.56-4.39,18.74,18.74,0,0,1-2.26-1.63,24,24,0,0,1-3.19-2.94,16.33,16.33,0,0,1-1.44-1.57,29,29,0,0,1,3.84-40.76l.54-.43a11.58,11.58,0,0,1,2.26-1.63,15.1,15.1,0,0,1,2.13-1.32,26.27,26.27,0,0,1,5.08-2.13,28.24,28.24,0,0,1,8.65-1.32,11.32,11.32,0,0,1,1.43.06Z"/><path class="cls-3" d="M109.47,52.42c.87.18,1.75.37,2.57.62l12.41-5.76a7.14,7.14,0,0,0,3.2-9.22,3.55,3.55,0,0,0-.94-1.32,6.06,6.06,0,0,0-6.59-.94l-.12.06a4.63,4.63,0,0,1-3.76.57,5,5,0,0,1-2.64-2.7l-.06-.19a5.7,5.7,0,0,0-7.15-2.94.06.06,0,0,0-.06.06h0c-.06,0-.06.06-.12.06a7.21,7.21,0,0,0-3.14,9.16Z"/><path class="cls-2" d="M53.34,14.67a3,3,0,0,0,3.89-1.38L61.55,4.2A2.82,2.82,0,0,0,60.34.39L60.17.32a2.82,2.82,0,0,0-3.81,1.21c0,.06,0,.11-.07.16l-4.33,9A3,3,0,0,0,53.34,14.67Z"/><path class="cls-4" d="M64.88,135.18l-.07-.07a31.62,31.62,0,0,1-6.58.69,34.38,34.38,0,0,1-12.91-2.51,41.09,41.09,0,0,1-5.27-2.63v-.06a3.15,3.15,0,0,1-.57-.31,32.35,32.35,0,0,1-8.33-7.4l-.13-.13v-.06a34.62,34.62,0,0,1-7.84-21.94A35.25,35.25,0,0,1,65.94,66.52a1,1,0,0,1,.38.13,35.33,35.33,0,0,1,14.11,6.9,3.38,3.38,0,0,1,.5.5,35,35,0,0,1,4,49.38c-.4.48-.82.95-1.25,1.4A23.16,23.16,0,0,0,91,128.15a42.14,42.14,0,0,0,10-27.39A42.79,42.79,0,0,0,89.33,71.35a41.54,41.54,0,0,0-12.23-9c-.12-.07-.25-.07-.37-.19s-.25-.13-.38-.19a41.42,41.42,0,0,0-18.12-4,42.7,42.7,0,0,0-38.18,61.94c.12.19.19.44.31.63l.06.06A43.71,43.71,0,0,0,34,136a2.35,2.35,0,0,0,.56.31,43.26,43.26,0,0,0,33.17,6,21.19,21.19,0,0,0,3-.82,9.76,9.76,0,0,0,1.29-.43,40,40,0,0,1-7.14-5.89Z"/><path class="cls-2" d="M30.58,17.62a3,3,0,0,0,2.82,2.07,2,2,0,0,0,.88-.13,2.9,2.9,0,0,0,2-3.6l0,0L33.47,6.71A2.94,2.94,0,1,0,27.84,8.4Z"/><path class="cls-2" d="M13.09,27.4A3,3,0,0,0,15.66,26a2.94,2.94,0,0,0-1-4L6,16.74a3,3,0,0,0-4,1,3,3,0,0,0,1,4.07L11.6,27a2.71,2.71,0,0,0,1.49.44Z"/><polygon class="cls-5" points="26.44 43.33 28.01 35.61 48.33 29.53 53.84 35.11 54.53 35.8 26.25 44.27 26.44 43.33"/><path class="cls-6" d="M29,49.59l.5-.18,25-7.46.75-.25-4,10.9h-.05a49.18,49.18,0,0,0-12.85,3.77Z"/><path class="cls-7" d="M134.78,125.08l-.12.13a44.45,44.45,0,0,1-11.54,11.22l-1.06.69a43.48,43.48,0,0,1-41.7,1.94c-.06-.06-.19-.06-.25-.12a3.43,3.43,0,0,1-.44-.19,40.21,40.21,0,0,1-11.28-8.34l-.07-.12c-.06-.07-.06-.13-.18-.19l-.19-.19c0-.06-.06-.19-.25-.25l-.06-.06-.13-.13a42.76,42.76,0,0,1-1.19-56.68.06.06,0,0,1,.06-.06h0a28.44,28.44,0,0,1,7.71,3.51,34.83,34.83,0,0,0,1,49.24c.55.53,1.13,1,1.72,1.55l.38.37a2.26,2.26,0,0,0,.62.44,33.25,33.25,0,0,0,13.11,6.4,1,1,0,0,0,.37.12,3.28,3.28,0,0,0,.75.13,29.77,29.77,0,0,0,7.34.87A34.25,34.25,0,0,0,121.87,127a16.51,16.51,0,0,0,1.94-1.7,36.13,36.13,0,0,0,5.77-7.27c.31-.5.56-1,.88-1.51a35.12,35.12,0,0,0-31.1-51.16,31.79,31.79,0,0,0-7,.69,42.73,42.73,0,0,0-7.78-6.2,42.26,42.26,0,0,1,14.8-2.64,34,34,0,0,1,6.21.51,34.85,34.85,0,0,1,6.83,1.56,43.15,43.15,0,0,1,22.38,65.77Z"/></svg>