<svg id="圖層_1" data-name="圖層 1" xmlns="http://www.w3.org/2000/svg" viewBox="0 0 150 150"><defs><style>.cls-1{fill:#86a3fd;}.cls-2{fill:#565d69;}.cls-3{fill:#67ccd1;}.cls-4{fill:#597ade;}.cls-5{fill:#fd8f01;}.cls-6{fill:#fdcb50;}.cls-7{fill:#052a75;}.cls-8{fill:#586ba6;}</style></defs><g id="_34-Luggage" data-name=" 34-Luggage"><rect class="cls-1" x="3.75" y="42.5" width="75" height="95" rx="10"/><path class="cls-2" d="M13.75,137.5h12.5v5a5,5,0,0,1-5,5h-2.5a5,5,0,0,1-5-5v-5Z"/><path class="cls-3" d="M31.65,2.5h19.2a5.4,5.4,0,0,1,5.4,5.4v4.6h-30V7.9A5.4,5.4,0,0,1,31.65,2.5Z"/><rect class="cls-4" x="13.75" y="72.5" width="55" height="55" rx="5.2"/><rect class="cls-5" x="61.25" y="87.5" width="85" height="60" rx="10"/><rect class="cls-3" x="76.25" y="87.5" width="10" height="60"/><rect class="cls-6" x="73.75" y="107.5" width="15" height="10"/><rect class="cls-3" x="121.25" y="87.5" width="10" height="60"/><rect class="cls-6" x="118.75" y="107.5" width="15" height="10"/><path class="cls-7" d="M26.25,57.5a2.5,2.5,0,0,1,2.5-2.5h25a2.5,2.5,0,0,1,0,5h-25a2.5,2.5,0,0,1-2.5-2.5ZM53.75,85h-25a2.5,2.5,0,0,0,0,5h25a2.5,2.5,0,0,0,0-5Zm95,12.5v40a12.52,12.52,0,0,1-12.5,12.5h-65A12.52,12.52,0,0,1,59,140H28.75v2.5a7.5,7.5,0,0,1-7.5,7.5h-2.5a7.5,7.5,0,0,1-7.5-7.5v-2.75a12.52,12.52,0,0,1-10-12.25v-75A12.52,12.52,0,0,1,13.75,40h10V7.9A7.92,7.92,0,0,1,31.65,0h19.2a7.92,7.92,0,0,1,7.9,7.9V40h10a12.52,12.52,0,0,1,12.5,12.5V85h7.5V80a7.5,7.5,0,0,1,7.5-7.5h15a7.5,7.5,0,0,1,7.5,7.5v5h17.5A12.52,12.52,0,0,1,148.75,97.5Zm-70-7.5v15h5V90Zm7.5,25v-5h-10v5Zm-7.5,5v25h5V120Zm10,25h30V120a2.5,2.5,0,0,1-2.5-2.5h0v-10a2.5,2.5,0,0,1,2.5-2.5h0V90h-30v15a2.5,2.5,0,0,1,2.5,2.5h0v10a2.5,2.5,0,0,1-2.5,2.5h0Zm42.5-30v-5h-10v5Zm-7.5,30h5V120h-5Zm5-40V90h-5v15Zm-35-20h20V80a2.5,2.5,0,0,0-2.5-2.5h-15a2.5,2.5,0,0,0-2.5,2.5Zm-65-77.1V10h25V7.9A2.9,2.9,0,0,0,50.85,5H31.65A2.9,2.9,0,0,0,28.75,7.9Zm0,32.1h25V15h-25Zm-15,95h45v-5H19a7.71,7.71,0,0,1-7.7-7.71V77.71A7.71,7.71,0,0,1,19,70h44.6a7.71,7.71,0,0,1,7.7,7.71V85h5V52.5a7.5,7.5,0,0,0-7.5-7.5h-55a7.5,7.5,0,0,0-7.5,7.5v75A7.5,7.5,0,0,0,13.75,135Zm52.5-48.94V77.71A2.7,2.7,0,0,0,63.55,75H19a2.7,2.7,0,0,0-2.7,2.71v44.58A2.7,2.7,0,0,0,19,125h39.8V97.5A12.51,12.51,0,0,1,66.25,86.06Zm5,58.94h2.5V120a2.5,2.5,0,0,1-2.5-2.5h0v-10a2.5,2.5,0,0,1,2.5-2.5h0V90h-2.5a7.5,7.5,0,0,0-7.5,7.5v40A7.5,7.5,0,0,0,71.25,145Zm72.5-47.5a7.5,7.5,0,0,0-7.5-7.5h-2.5v15a2.5,2.5,0,0,1,2.5,2.5h0v10a2.5,2.5,0,0,1-2.5,2.5h0v25h2.5a7.5,7.5,0,0,0,7.5-7.5Z"/><path class="cls-8" d="M23.75,140h-7.5v2.5a2.5,2.5,0,0,0,2.5,2.5h2.5a2.5,2.5,0,0,0,2.5-2.5Z"/></g></svg>