<svg id="圖層_1" data-name="圖層 1" xmlns="http://www.w3.org/2000/svg" viewBox="0 0 150 150"><defs><style>.cls-1{fill:#fff;stroke-width:4.99px;}.cls-1,.cls-2,.cls-3{stroke:#052a75;stroke-linecap:round;stroke-linejoin:round;}.cls-2{fill:#86a3fd;}.cls-2,.cls-3{stroke-width:5px;}.cls-3{fill:none;}.cls-4{fill:#fd7da0;}</style></defs><path class="cls-1" d="M27.91,83.74a7.54,7.54,0,0,0-5.42-2.53,7.82,7.82,0,0,0-1.74.15L18.63,55.28a6.8,6.8,0,0,0-6.86-6.15,6.81,6.81,0,0,0-6.86,6.15L2.65,93A10.68,10.68,0,0,0,5,100.3l25.81,32.2a9.14,9.14,0,0,1,2,5.64v9h25V122.81a14.1,14.1,0,0,0-3.54-9.34Z"/><path class="cls-1" d="M22.53,81.21a7.59,7.59,0,0,0-4.89,1.59l-.21.17A6.67,6.67,0,0,0,17,92.16l15.75,18.06"/><path class="cls-1" d="M122.09,83.74a7.54,7.54,0,0,1,5.42-2.53,7.82,7.82,0,0,1,1.74.15l2.12-26.08a6.9,6.9,0,0,1,13.72,0L147.35,93A10.68,10.68,0,0,1,145,100.3l-25.81,32.2a9.14,9.14,0,0,0-1.95,5.64v9h-25V122.81a14.1,14.1,0,0,1,3.54-9.34Z"/><path class="cls-1" d="M127.47,81.21a7.59,7.59,0,0,1,4.89,1.59l.21.17a6.67,6.67,0,0,1,.41,9.19l-15.75,18.06"/><rect class="cls-2" x="30.17" y="137.63" width="29.71" height="9.52"/><rect class="cls-2" x="89.75" y="137.63" width="29.71" height="9.52"/><rect class="cls-3" x="30.17" y="137.63" width="29.71" height="9.52"/><rect class="cls-3" x="89.75" y="137.63" width="29.71" height="9.52"/><path class="cls-4" d="M117.12,50.23a25.33,25.33,0,1,0-41.54-28,25.33,25.33,0,1,0-41.53,28h0l.36.35c.34.36.7.71,1.07,1L74.89,90.49l39.78-37.9a23.92,23.92,0,0,0,2.19-2.08l.28-.27Z"/><line class="cls-2" x1="63.32" y1="47.17" x2="87.39" y2="47.17"/><line class="cls-2" x1="75.35" y1="35.14" x2="75.35" y2="59.21"/><path class="cls-3" d="M117.12,50.23a25.33,25.33,0,1,0-41.54-28,25.33,25.33,0,1,0-41.53,28h0l.36.35c.34.36.7.71,1.07,1L74.89,90.49l39.78-37.9a23.92,23.92,0,0,0,2.19-2.08l.28-.27Z"/></svg>