<svg id="圖層_1" data-name="圖層 1" xmlns="http://www.w3.org/2000/svg" viewBox="0 0 150 150"><defs><style>.cls-1{fill:#fff;}.cls-1,.cls-2,.cls-3,.cls-5{fill-rule:evenodd;}.cls-2{fill:#86a3fd;}.cls-3{fill:#67ccd1;}.cls-4{fill:#fdcb50;}.cls-5{fill:#052a75;}</style></defs><path class="cls-1" d="M14.85,3.47H66.46A12.62,12.62,0,0,1,79,16.05V134a12.62,12.62,0,0,1-12.58,12.58H14.85A12.62,12.62,0,0,1,2.27,134V16.05A12.62,12.62,0,0,1,14.85,3.47Z"/><path class="cls-2" d="M26.31,3.47H55l-3,9.47H29.32Z"/><path class="cls-2" d="M32.8,129.08H48.51a4.37,4.37,0,0,1,0,8.73H32.8a4.37,4.37,0,0,1,0-8.73Z"/><path class="cls-3" d="M27.38,102.79H144.57a3,3,0,0,0,3-2.85c.27-6.31,1-11.29-4.43-15.86-5.26-4.45-13.06-5-19.66-6.09q-6-1-12-1.79a11.5,11.5,0,0,1-6.54-3C93,62.33,93.18,62.21,73.58,62.26c-20.69.05-19.45-.88-30.61,13.15-.65.82-4.18,2.39-7.61,3.81-4.91,2-6.91,2.62-8.34,5-2.85,4.63-2.72,10.33-2.61,15.69a3,3,0,0,0,3,2.92Z"/><circle class="cls-4" cx="113.82" cy="102.81" r="11.48"/><circle class="cls-4" cx="57.37" cy="102.79" r="11.48"/><path class="cls-5" d="M145.34,98.39c0,.48-.05,1-.07,1.45a.69.69,0,0,1-.7.67H127.39a13.75,13.75,0,0,0-27.13,0H70.93a13.75,13.75,0,0,0-27.13,0H27.38a.7.7,0,0,1-.7-.76c-.11-5.08-.21-10.34,2.27-14.38.85-1.38,2-1.88,5.71-3.4,5.41-2.23,9-3.75,10.09-5.14,4.48-5.64,7.37-9.54,10.49-11C58.06,64.53,62,64.53,70,64.54c8.92,0,16.91-.3,21.28,1.19,3.64,1.24,6.71,4.16,12.19,9.15a13.76,13.76,0,0,0,7.79,3.58c3.94.49,7.93,1.08,11.85,1.77,6.37,1.11,13.85,1.59,18.58,5.58,4.14,3.5,4,7.12,3.7,12.58ZM113.83,112a9.21,9.21,0,1,0-9.21-9.21A9.22,9.22,0,0,0,113.83,112Zm-65.67-9.21a9.21,9.21,0,1,0,9.2-9.21,9.22,9.22,0,0,0-9.2,9.21ZM76.76,134V105.06H70.93a13.75,13.75,0,0,1-27.13,0H27.38a5.27,5.27,0,0,1-5.25-5.14c-.05-5.53-.31-11.62,2.95-16.93,1.66-2.71,3.86-3.6,7.86-5.23,3.52-1.44,7.77-3.3,8.31-3.84L42,73c5.06-6.37,7.59-9.56,11.36-11.31S61.36,60,70,60h6.81V16.05A10.32,10.32,0,0,0,66.45,5.74H56.66l-2.51,7.89A2.26,2.26,0,0,1,52,15.22H29.32a2.26,2.26,0,0,1-2.16-1.59L24.65,5.74h-9.8A10.33,10.33,0,0,0,4.54,16.05V134a10.33,10.33,0,0,0,10.31,10.31h51.6A10.32,10.32,0,0,0,76.76,134ZM51.89,5.74l-1.57,4.93H31L29.42,5.74Zm92.68,76.6c-5.76-4.87-13.8-5.38-20.73-6.59-4-.7-8-1.3-12.07-1.8A9.44,9.44,0,0,1,106,71C95.8,61.79,93.83,60.25,81.31,60v-44A14.87,14.87,0,0,0,66.45,1.2H14.85A14.86,14.86,0,0,0,0,16.05V134A14.86,14.86,0,0,0,14.85,148.8h51.6A14.87,14.87,0,0,0,81.31,134V105.06h19a13.75,13.75,0,0,0,27.13,0h17.18a5.23,5.23,0,0,0,5.24-5c.27-6.4,1.09-12.36-5.24-17.7ZM93.16,44.91a2.27,2.27,0,0,0,2.27,2.27,16.45,16.45,0,0,1,16.46,16.46,2.28,2.28,0,1,0,4.55,0,21,21,0,0,0-21-21A2.27,2.27,0,0,0,93.16,44.91Zm0-17.49a2.28,2.28,0,0,0,2.27,2.28,33.93,33.93,0,0,1,33.95,33.94,2.27,2.27,0,1,0,4.54,0A38.47,38.47,0,0,0,95.43,25.15a2.27,2.27,0,0,0-2.27,2.27ZM48.51,135.54H32.8a2.09,2.09,0,0,1,0-4.18H48.51a2.09,2.09,0,0,1,0,4.18Zm0-8.73a6.64,6.64,0,0,1,0,13.27H32.8a6.64,6.64,0,0,1,0-13.27Z"/></svg>