<svg id="圖層_1" data-name="圖層 1" xmlns="http://www.w3.org/2000/svg" viewBox="0 0 150 150"><defs><style>.cls-1,.cls-2{fill:#fdcb50;}.cls-2,.cls-3,.cls-4,.cls-5,.cls-6,.cls-7{fill-rule:evenodd;}.cls-3{fill:#fff;}.cls-4{fill:#86a3fd;}.cls-5{fill:#fd7da0;}.cls-6{fill:#67ccd1;}.cls-7{fill:#052a75;}</style></defs><circle class="cls-1" cx="35.13" cy="24.34" r="21.64"/><path class="cls-2" d="M35.14,2.72a21.64,21.64,0,0,1,0,43.28c-.63,0-1.25,0-1.86-.08a21.64,21.64,0,0,0,0-43.12c.61-.06,1.23-.08,1.86-.08Z"/><path class="cls-3" d="M14.74,106.18,43.1,89.75c5.32-3.08,10.73-5.27,16.58-3.37C66.2,88.5,76.85,93,87.71,95a7.88,7.88,0,0,1,5.45,9.43c-1.1,4.1-4.56,6.21-9.44,5.45l3.8.61a17.69,17.69,0,0,0,12.15-2.12l27.26-15.88c21.19-12.34,24.31,6.65,17.26,11L94.72,133.94A18.16,18.16,0,0,1,80,136L44.14,126.4l-13.29,7.67a5.37,5.37,0,0,1-7.31-2L12.79,113.49a5.37,5.37,0,0,1,2-7.31Z"/><path class="cls-4" d="M17.57,97.23,40.06,137a4,4,0,0,1-1.52,5.47l-7.65,4.33a4,4,0,0,1-5.47-1.52L2.94,105.52a4,4,0,0,1,1.51-5.47l7.65-4.33A4,4,0,0,1,17.57,97.23Z"/><path class="cls-4" d="M29.4,124.53l4,7,3.93,7a4,4,0,0,1-1.5,5.46l2.73-1.54A4,4,0,0,0,40.06,137l-4-7-7.93-14-7.94-14-2.67-4.72a4,4,0,0,0-4.67-1.85l4.62,8.16,7.93,14,3.95,7Z"/><path class="cls-4" d="M136.53,21.6h-8.15a1.52,1.52,0,0,0-1.51,1.52V75a1.52,1.52,0,0,0,1.51,1.51h8.15A1.52,1.52,0,0,0,138,75V23.12A1.52,1.52,0,0,0,136.53,21.6Z"/><path class="cls-5" d="M95,36.26H86.85a1.52,1.52,0,0,0-1.51,1.51V75a1.52,1.52,0,0,0,1.51,1.51H95A1.52,1.52,0,0,0,96.51,75V37.77A1.52,1.52,0,0,0,95,36.26Z"/><path class="cls-6" d="M115.76,43.87h-8.14a1.52,1.52,0,0,0-1.52,1.52V75a1.52,1.52,0,0,0,1.52,1.51h8.14A1.52,1.52,0,0,0,117.27,75V45.39A1.52,1.52,0,0,0,115.76,43.87Z"/><path class="cls-4" d="M74.23,55.1H66.08a1.52,1.52,0,0,0-1.51,1.51V75a1.52,1.52,0,0,0,1.51,1.51h8.15A1.52,1.52,0,0,0,75.74,75V56.61A1.52,1.52,0,0,0,74.23,55.1Z"/><path class="cls-7" d="M39.25,31.17a1.73,1.73,0,0,0,.39-1.45c-.08-.69-.28-2.3-4.87-3-6.59-1.08-8.13-4.56-8.27-7.28-.17-3.69,2.31-6.79,6.22-7.78v-.95a2.42,2.42,0,0,1,4.84,0v.93a8.76,8.76,0,0,1,6.18,5.26,2.42,2.42,0,0,1-4.46,1.87A4.43,4.43,0,0,0,34,16.27c-.47.11-2.8.75-2.69,2.88,0,.57.1,2.07,4.21,2.74,5.43.89,8.42,3.33,8.9,7.24a6.53,6.53,0,0,1-1.54,5.2,9.33,9.33,0,0,1-5.35,2.86v.86a2.42,2.42,0,0,1-4.84,0v-.9a8.8,8.8,0,0,1-6.87-6.38,2.42,2.42,0,1,1,4.69-1.17c.57,2.27,3,3,4.82,3A5.58,5.58,0,0,0,39.25,31.17Zm-4.11-26A19.22,19.22,0,1,0,54.36,24.36,19.24,19.24,0,0,0,35.14,5.14Zm0,43.28A24.06,24.06,0,1,0,11.08,24.36,24.08,24.08,0,0,0,35.14,48.42ZM64.9,38.63a2.43,2.43,0,0,1,0-3.42l21-21a2.39,2.39,0,0,1,2.91-.39l16.62,9.59L119,9.81A2.42,2.42,0,0,1,118,5.09l8.53-2.28a2.39,2.39,0,0,1,2.33.62,2.42,2.42,0,0,1,.63,2.34l-2.29,8.53a2.42,2.42,0,0,1-4.71-1.07L107.53,28.17a2.43,2.43,0,0,1-2.93.38L88,19,68.33,38.63a2.43,2.43,0,0,1-3.43,0ZM67,57.52h6.33V74.11H67ZM87.76,38.68V74.11h6.33V38.68Zm20.76,7.61h6.34V74.11h-6.34ZM129.29,24V74.11h6.33V24ZM58.06,74.11h4.09v-19a2.43,2.43,0,0,1,2.42-2.42H75.74a2.42,2.42,0,0,1,2.42,2.42v19h4.76V36.26a2.42,2.42,0,0,1,2.42-2.42H96.51a2.42,2.42,0,0,1,2.42,2.42V74.11h4.76V43.88a2.41,2.41,0,0,1,2.41-2.42h11.18a2.42,2.42,0,0,1,2.42,2.42V74.11h4.75V21.6a2.41,2.41,0,0,1,2.42-2.41H138a2.41,2.41,0,0,1,2.42,2.41V74.11h4.1a2.42,2.42,0,0,1,0,4.84H58.06a2.42,2.42,0,0,1,0-4.84ZM15.52,105.49a2.73,2.73,0,1,1-3.1-2.31A2.75,2.75,0,0,1,15.52,105.49Zm127.4-4.06L93.45,131.89a15.77,15.77,0,0,1-12.8,1.8l-35.89-9.62a2.42,2.42,0,0,0-1.84.24l-5.45,3.15L24,103.62,44.3,91.85c4.55-2.63,9.47-4.83,14.63-3.16,1.65.54,3.56,1.23,5.77,2,6.35,2.29,14.23,5.14,22.4,6.63a5.43,5.43,0,0,1,3.72,6.46c-1,3.57-3.93,4-6.3,3.75-4-.83-7.83-1.92-11.87-3.07-1.92-.55-3.9-1.12-5.93-1.66a2.42,2.42,0,0,0-1.25,4.68c2,.53,4,1.09,5.85,1.63,4.16,1.19,8.09,2.31,12.33,3.18h0l0,0,3.39.55a20,20,0,0,0,13.75-2.42l27.27-15.88c7.85-4.57,13.89-5,16.16-1.24,1.57,2.61.87,6.69-1.39,8.08ZM38.1,139.36a1.55,1.55,0,0,0-.14-1.21L18.6,103.94l-3.13-5.52a1.57,1.57,0,0,0-1-.75,1.67,1.67,0,0,0-.44-.06,1.61,1.61,0,0,0-.77.2l-7.65,4.33a1.6,1.6,0,0,0-.75,1A1.64,1.64,0,0,0,5,104.32l22.49,39.73a1.63,1.63,0,0,0,2.18.61l7.65-4.33a1.55,1.55,0,0,0,.74-1Zm110.36-48.5c-1.42-2.38-7.28-9.46-22.74-.45L98.45,106.29A14.69,14.69,0,0,1,94.24,108a10.62,10.62,0,0,0,1.25-2.91,10.34,10.34,0,0,0-7-12.37l-.32-.08c-7.83-1.41-15.57-4.2-21.78-6.45-2.16-.78-4.2-1.52-5.93-2.08-7-2.27-13.29.54-18.54,3.58L21.59,99.41,19.68,96a6.46,6.46,0,0,0-8.77-2.43L3.26,97.93A6.46,6.46,0,0,0,.83,106.7l22.49,39.74a6.42,6.42,0,0,0,3.88,3,6.52,6.52,0,0,0,1.74.24,6.42,6.42,0,0,0,3.15-.83l7.65-4.33a6.44,6.44,0,0,0,2.43-8.77l-2.32-4.1L44.47,129l34.92,9.36a22.39,22.39,0,0,0,5.81.8A20.18,20.18,0,0,0,96,136l49.48-30.46C150,102.77,151.4,95.77,148.46,90.86Z"/></svg>