<svg id="圖層_1" data-name="圖層 1" xmlns="http://www.w3.org/2000/svg" viewBox="0 0 150 150"><defs><style>.cls-1{fill:#052a75;}.cls-2{fill:#fd8f01;}.cls-3{fill:#fdcb50;}.cls-4{fill:#597ade;}.cls-5{fill:#86a3fd;}</style></defs><path class="cls-1" d="M145.36,46.87,82.16,13.73a8.78,8.78,0,0,0-8.16,0L10.81,46.87A8.76,8.76,0,0,0,6.1,54.65a4.61,4.61,0,0,1,0,1.05V96.27a7.28,7.28,0,0,0-4,9.48,6.86,6.86,0,0,0,.9,1.61L.38,123.06a8.77,8.77,0,1,0,16.79,0l-2.59-15.73a7.28,7.28,0,0,0-3.11-11.06V62.78l13,6.84V105a8.77,8.77,0,0,0,4.71,7.79L74,136.28a8.82,8.82,0,0,0,8.15,0L127,112.82a8.77,8.77,0,0,0,4.71-7.79V69.86c0-.08,0-.15,0-.22l13.74-7.21a8.85,8.85,0,0,0,0-15.56Z"/><path class="cls-2" d="M10.68,103a1.9,1.9,0,1,1-1.86-1.86A1.89,1.89,0,0,1,10.68,103Z"/><path class="cls-3" d="M11.92,124.13a3.67,3.67,0,0,1-.36,3.47,3.46,3.46,0,0,1-5.93-3.46l2.33-14a7.58,7.58,0,0,0,.82.08,7.53,7.53,0,0,0,.83-.08Z"/><path class="cls-4" d="M82.16,95.57a8.78,8.78,0,0,1-8.16,0L29.87,72.43V105a3.4,3.4,0,0,0,1.83,3l44.79,23.46a3.46,3.46,0,0,0,3.19,0l44.78-23.46a3.43,3.43,0,0,0,1.84-3V72.43Z"/><path class="cls-5" d="M12.29,52.45a3.24,3.24,0,0,0-.4.57,3.45,3.45,0,0,0,1.41,4.67L76.49,90.83a3.46,3.46,0,0,0,3.19,0l63.19-33.14h0a3.45,3.45,0,0,0,1-5.24h0a3.21,3.21,0,0,0-1-.82L79.69,18.47a3.46,3.46,0,0,0-3.19,0L13.3,51.59a3.41,3.41,0,0,0-1,.84"/></svg>