<svg id="圖層_1" data-name="圖層 1" xmlns="http://www.w3.org/2000/svg" viewBox="0 0 150 150"><defs><style>.cls-1{fill:#fff;}.cls-1,.cls-2,.cls-3,.cls-4{fill-rule:evenodd;}.cls-2{fill:#597ade;}.cls-3{fill:#86a3fd;}.cls-4{fill:#fd7da0;}.cls-5{fill:#fdcb50;}.cls-6{fill:#052a75;}</style></defs><g id="Page-1"><g id="_044---Price-Tag" data-name="044---Price-Tag"><path id="Path" class="cls-1" d="M102.49,57.5V71.7l-30,30V90a15,15,0,1,0-30,0v27.5h-25a5,5,0,0,1-5-5v-55Z"/><path id="Path-2" data-name="Path" class="cls-2" d="M97.49,12.51V36.6l-15-13.49V12.51A2.5,2.5,0,0,1,85,10H95A2.5,2.5,0,0,1,97.49,12.51Z"/><path id="Path-3" data-name="Path" class="cls-3" d="M107.22,57.5H7.77a5.15,5.15,0,0,1-3.55-9L53.92,3.86a5.41,5.41,0,0,1,7.15,0L82.49,23.11l15,13.49,13.28,11.93a5.15,5.15,0,0,1-3.55,9Z"/><path id="Path-4" data-name="Path" class="cls-4" d="M72.49,90v11.7l-8,8a6.84,6.84,0,0,0-1.35,7.82H42.49V90a15,15,0,1,1,30,0Z"/><path id="Shape" class="cls-5" d="M142.22,80,130,67.78a6.86,6.86,0,0,0-4.87-2H111.29a6.86,6.86,0,0,0-4.87,2l-41.9,41.9a7,7,0,0,0,0,9.77l26,26a6.93,6.93,0,0,0,9.78,0l41.9-41.9a6.91,6.91,0,0,0,2-4.88V84.88a6.91,6.91,0,0,0-2-4.88ZM127.74,93.08A7.64,7.64,0,1,1,130,87.67,7.66,7.66,0,0,1,127.74,93.08Z"/><path id="Shape-2" data-name="Shape" class="cls-6" d="M145.72,60.74l-9.62,9.62L131.76,66a9.42,9.42,0,0,0-6.65-2.75H111.3A9.35,9.35,0,0,0,105,65.73V60h2.22a7.7,7.7,0,0,0,7.28-5,7.54,7.54,0,0,0-2-8.38L100,35.48v-23a5,5,0,0,0-5-5H85a5,5,0,0,0-5,5v5L62.73,2A7.82,7.82,0,0,0,52.26,2L2.55,46.67a7.54,7.54,0,0,0-2,8.38,7.7,7.7,0,0,0,7.27,5H10v52.5a7.5,7.5,0,0,0,7.5,7.5H61.74a9.74,9.74,0,0,0,1,1.21l26,26a9.4,9.4,0,0,0,13.29,0L144,105.34a9.32,9.32,0,0,0,2.75-6.65V84.89A9.32,9.32,0,0,0,144,78.24l-4.35-4.35,9.63-9.62a2.5,2.5,0,0,0-3.54-3.53ZM85,12.51H95V31L85,22ZM5.18,53.25a2.54,2.54,0,0,1,.71-2.87L55.6,5.72a2.88,2.88,0,0,1,3.79,0L95.71,38.36l0,0,13.35,12a2.55,2.55,0,0,1,.71,2.88,2.7,2.7,0,0,1-2.6,1.75H7.78a2.69,2.69,0,0,1-2.6-1.77ZM15,112.5V60h85V70.67l-25,25V90a17.5,17.5,0,1,0-35,0v25H17.5a2.49,2.49,0,0,1-2.5-2.5ZM45,115V90a12.5,12.5,0,1,1,25,0v10.67l-7.25,7.25A9.35,9.35,0,0,0,60,115Zm95.46-33.23a4.4,4.4,0,0,1,1.29,3.12v13.8a4.36,4.36,0,0,1-1.29,3.11L98.54,143.71a4.42,4.42,0,0,1-6.23,0l-26-26a4.42,4.42,0,0,1,0-6.23l41.91-41.9a4.36,4.36,0,0,1,3.11-1.29h13.81a4.38,4.38,0,0,1,3.11,1.29l4.35,4.34L127.49,79A10.23,10.23,0,1,0,131,82.5l5.06-5.06Zm-13,5.89a5.26,5.26,0,1,1-3.75-4.94l-.5.5a2.5,2.5,0,0,0,1.1,4.22,2.5,2.5,0,0,0,2.43-.68l.52-.52a5.24,5.24,0,0,1,.2,1.42Z"/><path id="Shape-3" data-name="Shape" class="cls-6" d="M112.39,106.36a7.94,7.94,0,0,0-7.13-2,12.8,12.8,0,0,0-5.11,2.23L95,101.48a7.67,7.67,0,0,1,2.37-.91,3.16,3.16,0,0,1,2.72.57,2.5,2.5,0,0,0,4.18-1.11,2.51,2.51,0,0,0-.64-2.42,7.94,7.94,0,0,0-7.13-2,12.7,12.7,0,0,0-5.1,2.23l-.9-.9A2.5,2.5,0,0,0,87,100.52l.88.88c-3,4.22-3.23,9.25-.25,12.25A7.53,7.53,0,0,0,93,115.76a9.79,9.79,0,0,0,1.71-.15,12.76,12.76,0,0,0,5.1-2.23l5.15,5.15a7.2,7.2,0,0,1-2.37.91,3.16,3.16,0,0,1-2.72-.57,2.5,2.5,0,1,0-3.54,3.53,7.53,7.53,0,0,0,5.42,2.11,9.79,9.79,0,0,0,1.71-.15,12.76,12.76,0,0,0,5.1-2.23l.9.9a2.5,2.5,0,0,0,3.53-3.54l-.88-.88c3-4.23,3.22-9.27.25-12.25Zm-18.53,4.32a3.16,3.16,0,0,1-2.72-.57c-.94-.93-.89-3,.33-5.1l4.75,4.75A7.48,7.48,0,0,1,93.86,110.68Zm9.9-.45a7.67,7.67,0,0,1,2.37-.91,3.16,3.16,0,0,1,2.72.57c.93.94.89,3-.33,5.1Z"/></g></g></svg>