<svg id="圖層_1" data-name="圖層 1" xmlns="http://www.w3.org/2000/svg" viewBox="0 0 150 150"><defs><style>.cls-1{fill:#052a75;}.cls-2{fill:#67ccd1;}.cls-3{fill:#27a2cc;}.cls-4{fill:#586ba6;}.cls-5{fill:#fff;}</style></defs><path class="cls-1" d="M30.93,94.56A27,27,0,0,0,9.14,117.32L4.86,147.24A2.42,2.42,0,0,0,6.91,150l.35,0H142.74a2.42,2.42,0,0,0,2.42-2.42c0-.11,0-.23,0-.34l-4.28-29.92a27,27,0,0,0-21.79-22.76L94.35,89.93V78.06a31.5,31.5,0,0,0,8.87-10.72,8,8,0,0,0,10.49-7.56,15.36,15.36,0,0,0-.53-4l-1.89-6.91V36.29a36.29,36.29,0,0,0-72.58,0V48.87l-1.88,6.91a15,15,0,0,0-.54,4,8,8,0,0,0,10.49,7.56,31.5,31.5,0,0,0,8.87,10.72V89.93Z"/><path class="cls-2" d="M60.17,95.69A33.2,33.2,0,0,0,75,99.19h0A33.25,33.25,0,0,0,89.82,95.7l2.46-1.23,9.33,1.74v17.5H48.39V96.21l9.32-1.75Z"/><rect class="cls-3" x="96.77" y="130.65" width="9.68" height="14.52"/><path class="cls-4" d="M110.58,126.52a2.39,2.39,0,0,0-1.71-.71H94.35a2.41,2.41,0,0,0-2.41,2.42v16.93H84.68V128.23a2.42,2.42,0,0,0-2.42-2.42H67.74a2.42,2.42,0,0,0-2.42,2.42v16.93H58.06V128.23a2.41,2.41,0,0,0-2.41-2.42H41.13a2.42,2.42,0,0,0-2.42,2.42v16.93H33.87V124.39a9.09,9.09,0,0,0,12.54-2.8,8.64,8.64,0,0,0,1-2l.34-1h54.58l.33,1a9.1,9.1,0,0,0,11.48,5.8,9.66,9.66,0,0,0,2-1v20.77h-4.84V128.23a2.37,2.37,0,0,0-.71-1.71Z"/><rect class="cls-3" x="70.16" y="130.65" width="9.68" height="14.52"/><rect class="cls-3" x="43.55" y="130.65" width="9.68" height="14.52"/><path class="cls-4" d="M43.55,115.73l-.77,2.3a4.29,4.29,0,0,1-8.14,0l-.77-2.29V98.93l9.68-1.81Z"/><path class="cls-4" d="M116.13,115.73l-.77,2.3a4.29,4.29,0,0,1-8.14,0l-.77-2.29V97.11l9.68,1.81Z"/><path class="cls-2" d="M13.93,118a22.15,22.15,0,0,1,15.1-18v45.11h-19Z"/><path class="cls-2" d="M134,111.22a21.91,21.91,0,0,1,2.12,6.79L140,145.16H121V100.05A22.33,22.33,0,0,1,134,111.22Z"/><path class="cls-3" d="M99.28,19.19l.45-2.27a31.73,31.73,0,0,1,4.3,7.27h-.65A4.19,4.19,0,0,1,99.19,20,3.75,3.75,0,0,1,99.28,19.19Z"/><path class="cls-2" d="M95.65,12.63l-1.12,5.6A8.88,8.88,0,0,0,94.35,20a9,9,0,0,0,9,9h2.19a31.15,31.15,0,0,1,.88,7.26v2.19a24.73,24.73,0,0,0-13.17-8.65,15.12,15.12,0,0,0-1.49-2.95,13.54,13.54,0,0,1-2.27-7.53,7.26,7.26,0,0,0-14.52,0,12.57,12.57,0,0,1-.64,3.95L72.45,29H62.9a24.65,24.65,0,0,0-19.35,9.45V36.29a31,31,0,0,1,.83-7l8.88-3.82a15.35,15.35,0,0,1,6-1.23,8.47,8.47,0,0,0,8.47-8.46,24.85,24.85,0,0,0-1.27-7.84A16.84,16.84,0,0,1,66,6.17a31.22,31.22,0,0,1,29.66,6.46Z"/><path class="cls-3" d="M87.47,29.05l-.38,0H77.55l1.4-4.2a17.24,17.24,0,0,0,.89-5.48,2.42,2.42,0,0,1,4.84,0,18.39,18.39,0,0,0,2.8,9.7Z"/><path class="cls-3" d="M61.46,7.94c.14.5.26,1,.42,1.48a19.9,19.9,0,0,1,1,6.31,3.62,3.62,0,0,1-3.63,3.62A19.93,19.93,0,0,0,51.36,21l-4.85,2.08A31.59,31.59,0,0,1,61.46,7.94Z"/><path class="cls-3" d="M41.13,59.78a10.5,10.5,0,0,1,.36-2.73l2.36-8.62a19.79,19.79,0,0,1,19-14.56H87.1a19.79,19.79,0,0,1,19.05,14.56l2.36,8.62a10.5,10.5,0,0,1,.36,2.73,3.12,3.12,0,0,1-6.12.89l-4-13.28A12.09,12.09,0,0,0,87.1,38.71H62.9a12.09,12.09,0,0,0-11.66,8.68l-4,13.28a3.12,3.12,0,0,1-6.12-.89Z"/><path class="cls-5" d="M50.75,64.41a8.13,8.13,0,0,0,1.14-2.35l4-13.28a7.28,7.28,0,0,1,7-5.23H87.1a7.28,7.28,0,0,1,7,5.23l4,13.28a8.13,8.13,0,0,0,1.14,2.35,26.58,26.58,0,0,1-13.82,13.3l-.82-3.3a2.43,2.43,0,0,0-2.94-1.76,2.62,2.62,0,0,0-.49.19l-2.68,1.34a8,8,0,0,1-7,0l-2.68-1.34a2.41,2.41,0,0,0-3.24,1.08,2.22,2.22,0,0,0-.18.49l-.83,3.3a26.6,26.6,0,0,1-13.81-13.3Z"/><path class="cls-2" d="M81.85,83.33a18.34,18.34,0,0,1-13.7,0l1.21-4.82a12.86,12.86,0,0,0,11.29,0Z"/><path class="cls-5" d="M63.39,82.43,63,84.09a2.42,2.42,0,0,0,1.27,2.75l.51.24a22.9,22.9,0,0,0,20.5,0l.51-.25A2.42,2.42,0,0,0,87,84.08l-.41-1.66a30.31,30.31,0,0,0,2.9-1.32v9.33l-1.85.92a28.24,28.24,0,0,1-12.66,3h0a28.38,28.38,0,0,1-12.66-3l-1.86-.93V81.11A30.48,30.48,0,0,0,63.39,82.43Z"/></svg>