<svg id="圖層_1" data-name="圖層 1" xmlns="http://www.w3.org/2000/svg" viewBox="0 0 150 150"><defs><style>.cls-1{fill:#052a75;}.cls-2{fill:#86a3fd;}.cls-3{fill:#fdcb50;}.cls-4{fill:#597ade;}.cls-5{fill:#fff;}</style></defs><path class="cls-1" d="M99.36,11.69a46.66,46.66,0,0,1,5.24,8.37c7.08,13.67,12.16,28.28,16.9,42.93a173.77,173.77,0,0,1,6.15,22.81,18.81,18.81,0,0,1,.11,8.21c-.73,2.66-2.79,5.13-5.52,5.54-2.42.37-4.74-.88-6.95-1.94-13.43-6.4-28.91-6.54-43.78-6.09-5.83.18-12.11.59-16.64,4.27q6.43,15.83,12.86,31.67A12.84,12.84,0,0,1,69,132.64c-.17,5.1-5.82,7.94-10.61,9.67-2.91,1.06-6.23,2.09-9,.71-2.51-1.26-3.72-4.1-4.74-6.71l-12.11-31c-.19-.5-.45-1.06-1-1.22a2.15,2.15,0,0,0-1.52.39A6.25,6.25,0,0,1,22.18,102a4,4,0,0,0-1.2-1.65c-1-.61-2.29.16-3.37.69A8.7,8.7,0,0,1,7.7,99.26a17,17,0,0,1-3.16-5.92L1.45,85.06C.52,82.59-.42,79.93.2,77.36c1-4.33,5.83-6.45,10-7.89-1.31-1.92-.59-4.69,1-6.38s3.85-2.56,6-3.39a205.92,205.92,0,0,1,20.59-7,53.19,53.19,0,0,0,9.29-2.88,37.12,37.12,0,0,0,6.91-4.54A153.9,153.9,0,0,0,71.5,29.38c4.73-5.05,9.58-9.77,12.18-16.22,1.22-3,3.17-6.26,6.39-6.78,2.36-.38,4.69.9,6.51,2.46A22.66,22.66,0,0,1,99.36,11.69ZM96,15.42a12.06,12.06,0,0,0-3.27-3.48c-1.6-1.08-2.82-.58-3.27,1.31a7,7,0,0,0,0,3c1.3,7.13,3.7,13.94,6,20.77a.88.88,0,0,0,.86.68c1.73.16,3.46.34,5.18.52A33.27,33.27,0,0,1,108,40.33c.17-.38,0-.61-.12-.85A166.41,166.41,0,0,0,101,23.6,43.3,43.3,0,0,0,96,15.42ZM122.84,92.8c.62-2,.11-4.1-.19-6.1a86.16,86.16,0,0,0-2.78-12.38c-1-3.82-2.24-7.57-3.5-11.58a23,23,0,0,1-7.61,8.68c-.47.33-.41.67-.23,1.12.72,1.84,1.41,3.69,2.12,5.52a78.44,78.44,0,0,0,5.81,12.42,10.14,10.14,0,0,0,3.31,3.58C121.41,95.06,122.33,94.68,122.84,92.8ZM38.6,106.66c0,.19.09.39.16.58q5.94,15.06,11.88,30.13a2,2,0,0,0,2.94,1.17L62.2,135c2-.82,2.33-1.67,1.54-3.66q-3.8-9.56-7.59-19.11c-1.36-3.41-2.76-6.8-4.15-10.2-.52-1.34-1.1-2.66-1.55-4-.25-.77-.6-.82-1.24-.52s-1.25.47-1.88.7l-9.72,3.47c-.42.15-1,.23-.68.93C37.5,103.94,37.9,105.36,38.6,106.66Zm-10.71-6.8c.19-.06.57-.18.94-.32Q41,94.86,53.32,90.67c.93-.32,1.16-.78.82-1.67L42.41,57.76c-.58-1.53-.58-1.54-2.11-1L16.23,65.63c-1.4.52-1.65,1.06-1.14,2.44,2.41,6.62,4.84,13.24,7.24,19.87,1.27,3.48,2.49,7,3.72,10.48C26.33,99.22,26.66,99.93,27.89,99.86ZM113,54.75a7.12,7.12,0,0,0-.66-3.21c-2.62-6.13-8.89-8.15-14.08-8.56-.71-.06-.58.36-.44.75q2.44,6.65,4.9,13.26c1,2.81,2.09,5.61,3.13,8.42.42,1.11.61,1.22,1.49.47A15.06,15.06,0,0,0,113,54.75Z"/><path class="cls-2" d="M27.89,99.86c-1.23.07-1.56-.64-1.84-1.44-1.23-3.5-2.45-7-3.72-10.48-2.4-6.63-4.83-13.25-7.24-19.87-.51-1.38-.26-1.92,1.14-2.44L40.3,56.79c1.53-.57,1.53-.56,2.11,1L54.14,89c.34.89.11,1.35-.82,1.67Q41,94.85,28.83,99.54C28.46,99.68,28.08,99.8,27.89,99.86Z"/><path class="cls-2" d="M113,54.75a15.06,15.06,0,0,1-5.66,11.13c-.88.75-1.07.64-1.49-.47-1-2.81-2.09-5.61-3.13-8.42q-2.45-6.63-4.9-13.26c-.14-.39-.27-.81.44-.75,5.19.41,11.46,2.43,14.08,8.56A7.12,7.12,0,0,1,113,54.75Z"/><path class="cls-3" d="M107.83,39.48A166.41,166.41,0,0,0,101,23.6a43.3,43.3,0,0,0-5-8.18,12.06,12.06,0,0,0-3.27-3.48c-1.6-1.08-2.82-.58-3.27,1.31a7,7,0,0,0,0,3c1.3,7.13,3.7,13.94,6,20.77a.88.88,0,0,0,.86.68c1.73.16,3.46.34,5.18.52A33.27,33.27,0,0,1,108,40.33C108.12,40,107.92,39.72,107.83,39.48Z"/><path class="cls-4" d="M63.74,131.33q-3.8-9.56-7.59-19.11c-1.36-3.41-2.76-6.8-4.15-10.2-.52-1.34-1.1-2.66-1.55-4-.25-.77-.6-.82-1.24-.52s-1.25.47-1.88.7l-9.72,3.47c-.42.15-1,.23-.68.93.57,1.35,1,2.77,1.67,4.07,0,.19.09.39.16.58q5.94,15.06,11.88,30.13a2,2,0,0,0,2.94,1.17L62.2,135C64.18,134.17,64.53,133.32,63.74,131.33Z"/><path class="cls-3" d="M122.65,86.7a86.16,86.16,0,0,0-2.78-12.38c-1-3.82-2.24-7.57-3.5-11.58a23,23,0,0,1-7.61,8.68c-.47.33-.41.67-.23,1.12.72,1.84,1.41,3.69,2.12,5.52a78.44,78.44,0,0,0,5.81,12.42,10.14,10.14,0,0,0,3.31,3.58c1.64,1,2.56.62,3.07-1.26C123.46,90.75,123,88.7,122.65,86.7Z"/><path class="cls-5" d="M90.53,38.35c-1.45-3.68-2.36-7.82-3.52-11.58-.57-1.83-1-3.68-1.58-5.66-2.51,3.21-5.17,6.08-7.72,9l-4.88,5.11-5.19,5.13a80.19,80.19,0,0,1-9.43,8.24A100.23,100.23,0,0,1,48,55.43c-.7.38-.83.72-.55,1.46Q53.08,72,58.7,87.09c.21.55.44.67,1,.59,2.84-.4,5.69-.82,8.55-1.07a120.84,120.84,0,0,1,32.28,1.31c3.37.65,6.72,1.41,10.15,2.41-.69-1.42-1.31-2.64-1.87-3.88-2.76-6.09-4.93-12.43-7.42-18.62-1.23-3-2.53-6.19-3.48-9.34C96.85,54.87,95.26,51.3,94,47.65c-1-2.81-2-5.77-3.17-8.51C90.74,38.88,90.64,38.61,90.53,38.35Z"/><path class="cls-5" d="M13.25,77.43c-.27-.78-.58-1.56-.8-2.36s-.5-.69-1.08-.46c-1.18.47-2.38.86-3.57,1.29a3.87,3.87,0,0,0-2.66,4.37,2.44,2.44,0,0,0,.07.39c1.65,4.57,3.4,9.09,4.91,13.7a4.2,4.2,0,0,0,4.55,2.35c1.32-.46,2.62-1,4-1.34,1-.26.86-.73.6-1.45C17.23,88.43,15.25,82.93,13.25,77.43Z"/><path class="cls-1" d="M123.16,46.31a2.2,2.2,0,0,1-1.79-4c1.88-1.15,3.79-2.24,5.71-3.33,3.16-1.77,6.32-3.54,9.5-5.28a2.45,2.45,0,0,1,2.89,0,2.25,2.25,0,0,1,.84,2.23,2,2,0,0,1-1,1.53q-7.83,4.36-15.68,8.69A3.61,3.61,0,0,1,123.16,46.31Z"/><path class="cls-1" d="M128.62,62.22A2.21,2.21,0,0,1,127.41,58c2-.87,4.08-1.67,6.14-2.47q5.07-1.95,10.16-3.85a2.43,2.43,0,0,1,2.87.4,2.25,2.25,0,0,1,.5,2.32,2,2,0,0,1-1.23,1.37l-16.76,6.33A4.11,4.11,0,0,1,128.62,62.22Z"/><path class="cls-1" d="M148.58,79.52a2.78,2.78,0,0,1-1.73.13c-5.28-.82-10.56-1.62-15.84-2.48-1.74-.29-2.43-1.16-2.21-2.51a2.51,2.51,0,0,1,2.91-2.07c5.38.81,10.76,1.67,16.13,2.53A2.25,2.25,0,0,1,150,77.19,2.15,2.15,0,0,1,148.58,79.52Z"/><path class="cls-1" d="M129,17.24a2.79,2.79,0,0,1-.66,1.61c-3.07,4.38-6.12,8.76-9.23,13.11-1,1.44-2.11,1.68-3.22.88a2.51,2.51,0,0,1-.57-3.53c3.1-4.47,6.25-8.91,9.4-13.34a2.25,2.25,0,0,1,2.8-1A2.15,2.15,0,0,1,129,17.24Z"/></svg>