<svg id="圖層_1" data-name="圖層 1" xmlns="http://www.w3.org/2000/svg" viewBox="0 0 150 150"><defs><style>.cls-1,.cls-8{fill:#fff;}.cls-1,.cls-2,.cls-3,.cls-4,.cls-5,.cls-6,.cls-9{fill-rule:evenodd;}.cls-2{fill:#86a3fd;}.cls-3{fill:#27a2cc;}.cls-4{fill:#67ccd1;}.cls-5{fill:#fdcb50;}.cls-6{fill:#fd8f01;}.cls-7{fill:#586ba6;}.cls-9{fill:#052a75;}</style></defs><path class="cls-1" d="M32.28,47.51l50.14-40,51.52,40-.66,73.64H31.62Z"/><path class="cls-2" d="M32.28,42.28l50.14-40,51.52,40-.08,12.08-.49.13L82.78,14.35,32.2,54.49Z"/><path class="cls-3" d="M24.76,89.66l9.61,54.78a3.21,3.21,0,0,0,3.37,2.66l2.63-.16a3.22,3.22,0,0,0,3-3.41Q39,70.42,39,70.42L24.76,89.66Z"/><path class="cls-4" d="M28.53,72.35l8.6,6.34c.84,3.15-1.08,25.85-8,66.3A3.2,3.2,0,0,1,26,147.67H23.76a3.22,3.22,0,0,1-3.19-3.12c-.27-8.46-1.13-33.74-3-68.83C25.2,68.69,28.53,72.35,28.53,72.35Z"/><path class="cls-4" d="M19.84,77.34C33.29,75.85,41,77.13,41,77.13c1.18-13.89,0-28.82-12.57-28.58q-17.58,1.86-8.61,28.79Z"/><path class="cls-1" d="M16.08,65.41c-.26,4.4.52,9,1.37,13.83a4.84,4.84,0,0,0,4.81,4c15.87-.06,22.84.22,22.84.22a5.08,5.08,0,0,0-2-9.72c-4.51-.48-8.42-.37-14.22-.42-.18-6.66,1.42-17.8-5.59-18.75-6.63-.9-7,5.85-7.26,10.83Z"/><path class="cls-5" d="M73.57,65.21c6.94.74,10.66,7,11.27,14L86.4,97.05c.6,7-10.4,11-17.34,10.29s-4.44-7.36-6.69-14L58.73,82.73l.43-6.58c.45-7,7.47-11.69,14.41-10.94Z"/><path class="cls-6" d="M113.16,137.76c.4-2.73,1.91-8.43-8.7-9.8l-.24-12.31Q105.6,99,95.93,98.71L62,97.64c1,14.47-1.84,33-1.86,42.08l27.94-2.07Z"/><path class="cls-1" d="M73.31,90.12c.07-2.6-.07-6.7-1.47-9.37-1.06-2-2.85-3.23-5.8-2.35-3.48,1-4.17,4.79-4.45,7.9a20.62,20.62,0,0,0,1.19,9.08,5.8,5.8,0,0,0,5.4,3.83c17.25.37,24.39,1.2,24.39,1.2,4.5-1.25,3.94-8.41-.61-9.17-13.66-.72-18.65-1.12-18.65-1.12Z"/><circle class="cls-7" cx="70.94" cy="128.2" r="19.61"/><path class="cls-1" d="M72.25,119.09a9.17,9.17,0,1,1-10.39,7.77A9.17,9.17,0,0,1,72.25,119.09Z"/><circle class="cls-8" cx="73.9" cy="54.86" r="9.57"/><path class="cls-1" d="M27.87,29.28a9.57,9.57,0,1,1-10.53,8.5A9.58,9.58,0,0,1,27.87,29.28Z"/><path class="cls-9" d="M136.21,42.46a2.28,2.28,0,0,0-.87-2L83.82.44v0A2.3,2.3,0,0,0,81,.46L38,34.78a12,12,0,0,0-1.93-3.43A11.83,11.83,0,1,0,20.56,48.8a14.49,14.49,0,0,0-1.31,1A13.34,13.34,0,0,0,15,57.56a19.88,19.88,0,0,0-.79,3.56,45,45,0,0,0-.07,11.3c.28,2.43.69,4.8,1.12,7.19a6.82,6.82,0,0,0,.32,1.22c.67,12.61,1.2,23.77,1.6,33.18.66,15.1,1,25.67,1.17,30.59a5.45,5.45,0,0,0,5.44,5.3c2.17,0,4,.27,5.79-1.24s1.91-3.48,2.28-5.67c.37,2.11.46,3.71,2.33,5.19a5.41,5.41,0,0,0,3.73,1.18l2.63-.16a5.52,5.52,0,0,0,5.14-5.82l-1.21-20h5.15a21.87,21.87,0,0,0,39.8,16.49l23.39.08h.77l8.55,0a2.26,2.26,0,1,0,0-4.52l-6.35,0c.25-3.45-.68-7.82-9.06-9.46l0-2.61h26.65a2.26,2.26,0,0,0,2.26-2.23l.67-73.6a2.28,2.28,0,0,0,0-.45ZM82.44,5.13l49.24,38.25-.05,6.83L84.2,12.55a2.29,2.29,0,0,0-2.86,0L36.27,48.34a15.51,15.51,0,0,0-1.45-.81,11.85,11.85,0,0,0,3.8-7.4ZM45.78,78.28a2.78,2.78,0,0,1-.26,1.84,2.81,2.81,0,0,1-.94,1.06l-4.71-.12-2.52,0C33.71,81,28.73,81,22.27,81a2.55,2.55,0,0,1-2.57-2.16c-.43-2.39-.84-4.72-1.1-6.92a40.79,40.79,0,0,1,.07-10.18C19,58.94,20,56.4,23,56.82c4.76.66,3.48,11.11,3.64,16.57a2.25,2.25,0,0,0,2.24,2.19c1.19,0,2.33,0,3.41,0a96.87,96.87,0,0,1,10.6.39,2.83,2.83,0,0,1,2.85,2.29Zm-6.69-7.09-7.9-.12c0-.46,0-.94,0-1.42.12-7.35.25-16.26-7.57-17.34a.25.25,0,0,1-.12,0,13.4,13.4,0,0,1,5.1-1.48c4.51,0,7.18,2.43,8.67,6.21s1.93,8.85,1.8,14.17ZM19.6,38a7.3,7.3,0,1,1,1.58,5.36A7.24,7.24,0,0,1,19.6,38Zm7,107.17a1,1,0,0,1-.63.24l-2.23,0a1,1,0,0,1-.93-.93c-.16-5-.52-15.71-1.17-30.64-.36-8.33-.81-17.95-1.35-28.57a8.26,8.26,0,0,0,1.95.25c5.12,0,9.3,0,12.62,0C34,100.53,30,127.06,27,144.61A.9.9,0,0,1,26.63,145.17Zm14.26-.83a.88.88,0,0,1-.65.31l-2.63.18a.91.91,0,0,1-1-.79L34,129.29c1.2-7.66,2.18-14.52,3-20.52.53-4.07,1-7.75,1.33-11l1.42,23.37v.29l1.35,22.23a.91.91,0,0,1-.23.69Zm3.28-25.47-2-33.24c2.39.07,3.15.23,3.93-.13a7.36,7.36,0,0,0,4.23-5.69c3.94.52,6.35,3.58,7.76,8,1.8,5.67,2.1,13.46,1.83,21.42a21.79,21.79,0,0,0-8.76,9.6ZM78.44,60.51a7.3,7.3,0,1,1-3.8-12.94A7.34,7.34,0,0,1,78.44,60.51Zm-5.58,6.9.47,0c6,.72,8.75,6.24,9.24,11.89l.8,9.14c-3.68-.21-6.21-.38-7.79-.48a19.5,19.5,0,0,0-1.73-8.31A6.68,6.68,0,0,0,65.4,76.2a7.35,7.35,0,0,0-4.17,3.14l.2-3.06c.38-5.63,6.07-9.21,11.43-8.87Zm-9,19.09c.19-2.1.55-5.24,2.85-5.94a2.86,2.86,0,0,1,1.91-.06c2.29.93,2.57,7.36,2.44,9.37a2.26,2.26,0,0,0,2.08,2.49s3.39.27,12.46.79l6.09.33a2,2,0,0,1,1.3,1,3.11,3.11,0,0,1,.18,2.78,1.86,1.86,0,0,1-.86.87c-1.93-.2-9.32-.83-24.08-1.16a3.58,3.58,0,0,1-3.32-2.35,18.52,18.52,0,0,1-1.05-8.08Zm17.48,55.55a17.35,17.35,0,1,1,3.5-24.28A17.33,17.33,0,0,1,81.33,142.05Zm29.83-6.59-19.57-.06a23.06,23.06,0,0,0,1-4.13,21.9,21.9,0,0,0-28.11-24c.05-2.28,0-4.54,0-6.73a8.17,8.17,0,0,0,3.69.94c17.09.39,24.15,1.18,24.17,1.18A5.31,5.31,0,0,0,96,101a5.29,5.29,0,0,1,4.83,3.1q1.78,3.64,1.15,11.4h0l.22,12.53a2.24,2.24,0,0,0,2,2.2c6.09.79,7,3.24,7,5.27Zm-4.61-16.59-.06-3.1c.49-5.94,0-10.49-1.62-13.69a9.3,9.3,0,0,0-7-5.46A7,7,0,0,0,92.33,89L88,88.74,87.11,79C86.62,73.47,84.29,68,79.8,65a9,9,0,0,0,1.49-1,11.84,11.84,0,1,0-15-.1c-5.15,2-9,6.36-9.41,12l-.1,1.56a12.17,12.17,0,0,0-7.4-2.39,7.24,7.24,0,0,0-5.78-3.64c.18-7-.47-14.83-4.1-19.94L82.79,17.24,131.61,56,131,118.87Zm-34-2a11.44,11.44,0,1,1-12.95,9.7A11.46,11.46,0,0,1,72.57,116.83Zm5.2,12.32a6.91,6.91,0,1,1-11-6.54,6.91,6.91,0,0,1,11,6.54Z"/></svg>