<svg id="圖層_1" data-name="圖層 1" xmlns="http://www.w3.org/2000/svg" viewBox="0 0 150 150"><defs><style>.cls-1{fill:#052a75;}.cls-2{fill:#86a3fd;}.cls-3{fill:#fff;}.cls-4{fill:#597ade;}.cls-5{fill:#fdcb50;}</style></defs><path class="cls-1" d="M39.3,132.21a53.76,53.76,0,0,1-13-3.68,7.49,7.49,0,0,0-7.63,12.9C21,142.86,34.93,150,75,150c44.41,0,70.7-18.08,71.79-18.85a7.5,7.5,0,0,0-8.57-12.3,72.08,72.08,0,0,1-9.59,5.09,310.58,310.58,0,0,1-8.82-32.15c-2.3-10.37-4.15-21-5.54-31.66a7.45,7.45,0,0,0-4.38-13.36A30,30,0,1,0,73.09,57.53c-13.1,2.7-25.84,4.32-34.75,5.22-.28-.84-.54-1.69-.83-2.53A408.34,408.34,0,0,0,14.1,4,7.52,7.52,0,0,0,4,.9,7.57,7.57,0,0,0,.87,11.08C1.17,11.63,30.76,68.37,39.3,132.21Z"/><path class="cls-2" d="M141,123a2.5,2.5,0,0,1,2.87,4.09C142.85,127.79,117.82,145,75,145c-40.22,0-53.24-7.54-53.77-7.86a2.48,2.48,0,0,1-.82-3.43,2.45,2.45,0,0,1,2.1-1.19,2.58,2.58,0,0,1,1.33.36c.53.29,13.48,7.12,51.16,7.12,41,0,65.81-16.87,66.06-17Z"/><path class="cls-3" d="M99.87,65.69c.91,6.37,2,12.93,3.22,19.32L47.58,95q-2.11-8.76-4.72-17.71A326.68,326.68,0,0,0,99.87,65.69Z"/><path class="cls-4" d="M104.06,89.91c.35,1.73.7,3.47,1.06,5.13.72,3.29,1.5,6.5,2.29,9.64l-55.72,9.69q-1.3-7.19-3-14.54Z"/><path class="cls-3" d="M52.53,119.29l56.14-9.76c1.72,6.56,3.69,13.15,5.87,19.66A134.58,134.58,0,0,1,75,135c-7.88,0-14.57-.31-20.32-.79C54.09,129.31,53.37,124.32,52.53,119.29Z"/><path class="cls-2" d="M124,125.89c-1.45.58-3,1.17-4.69,1.75-2.4-7.15-4.55-14.39-6.38-21.6-1-3.86-2-7.92-2.9-12.06C108,84.55,106.09,74,104.69,64.12q2.93-1,4.82-1.75c1.38,10.24,3.18,20.49,5.39,30.49A317,317,0,0,0,124,125.89Z"/><path class="cls-5" d="M60,30A25,25,0,1,1,99.7,50.2,160.07,160.07,0,0,1,84.12,55,24.81,24.81,0,0,1,60,30Z"/><path class="cls-2" d="M102,54.69c2.31-.85,4.54-1.77,6.61-2.74a2.54,2.54,0,0,1,3.33,1.24,2.51,2.51,0,0,1-1.22,3.3c-2.44,1.08-24.85,10.57-69.31,15.9-.48-1.59-1-3.18-1.47-4.77C55.57,66,81.78,62.29,102,54.69Z"/><path class="cls-2" d="M6.29,5.32a2.51,2.51,0,0,1,3.39,1A404.77,404.77,0,0,1,32.79,61.81a380.47,380.47,0,0,1,14.44,55.88c1,5.39,1.7,10.74,2.34,16-1.81-.21-3.52-.42-5.1-.65C36,66.68,5.55,9.2,5.28,8.72A2.54,2.54,0,0,1,6.29,5.32Z"/><path class="cls-1" d="M85,27.52a5,5,0,1,1,5-5,2.5,2.5,0,0,0,5,0,10,10,0,0,0-7.5-9.64v-.35a2.5,2.5,0,0,0-5,0v.35A10,10,0,0,0,85,32.52a5,5,0,1,1-5,5,2.5,2.5,0,0,0-5,0,10,10,0,0,0,7.5,9.64v.36a2.5,2.5,0,1,0,5,0v-.36A10,10,0,0,0,85,27.52Z"/></svg>