<svg id="圖層_1" data-name="圖層 1" xmlns="http://www.w3.org/2000/svg" viewBox="0 0 150 150"><defs><style>.cls-1{fill:#fd7da0;}.cls-2{fill:#fd8f01;}.cls-3{fill:#86a3fd;}.cls-4{fill:#fff;}.cls-5{fill:#fdcb50;}.cls-6{fill:#052a75;}</style></defs><path class="cls-1" d="M133.06,78.38l-.3.09-.06-.2A7.46,7.46,0,0,0,125.62,73a7.46,7.46,0,0,0-7.07-5.27,7.18,7.18,0,0,0-1.81.23c1.17-2.85,2.22-5.74,3.17-8.68A7.44,7.44,0,0,1,126,56.07a7.46,7.46,0,0,1,7.07-5.26,7.39,7.39,0,0,1,6.23,3.45,7.69,7.69,0,0,1,.85,1.81,7.45,7.45,0,0,1,7.07,5.27,7.71,7.71,0,0,1-2.7,8.52,7.73,7.73,0,0,1-2.7,8.52,7.3,7.3,0,0,1-8.75,0Z"/><path class="cls-1" d="M132.76,78.47A7.75,7.75,0,0,1,130,86.8a7.74,7.74,0,0,1-2.71,8.52,7.29,7.29,0,0,1-8.74,0,7.3,7.3,0,0,1-8.75,0,7.74,7.74,0,0,1-2.7-8.52l.28-.58h0A119.84,119.84,0,0,0,116.74,68a7.18,7.18,0,0,1,1.81-.23A7.46,7.46,0,0,1,125.62,73a7.46,7.46,0,0,1,7.08,5.26l.06.2Z"/><path class="cls-1" d="M144.79,37.15a7.71,7.71,0,0,1-2.7,8.52,7.74,7.74,0,0,1-2.7,8.52l-.1.07a7.39,7.39,0,0,0-6.23-3.45A7.46,7.46,0,0,0,126,56.07a7.44,7.44,0,0,0-6.08,3.22l.16-.48,3.32-10.42-6.61-5.79a7.72,7.72,0,0,1-.29-5.45,7.46,7.46,0,0,1,7.08-5.27,7.56,7.56,0,0,1,4.35-4.74,7.24,7.24,0,0,1,2.72-.53,7.46,7.46,0,0,1,7.08,5.27,7.44,7.44,0,0,1,7.07,5.27Z"/><path class="cls-1" d="M127.92,27.14a7.56,7.56,0,0,0-4.35,4.74,7.46,7.46,0,0,0-7.08,5.27,7.72,7.72,0,0,0,.29,5.45L104,31.45h-2.29c-2.54-1.89-3.2-5.6-2.18-8.82a7.46,7.46,0,0,1,7.07-5.27,7.39,7.39,0,0,1,14.16,0,7.46,7.46,0,0,1,7.07,5.27,7.8,7.8,0,0,1,.06,4.51Z"/><path class="cls-1" d="M33.26,68a7.18,7.18,0,0,0-1.81-.23A7.46,7.46,0,0,0,24.38,73a7.46,7.46,0,0,0-7.08,5.26l-.06.2-.3-.09a7.3,7.3,0,0,1-8.75,0,7.73,7.73,0,0,1-2.7-8.52,7.71,7.71,0,0,1-2.7-8.52,7.45,7.45,0,0,1,7.07-5.27,7.69,7.69,0,0,1,.85-1.81,7.39,7.39,0,0,1,6.23-3.45A7.46,7.46,0,0,1,24,56.07a7.44,7.44,0,0,1,6.08,3.22h0c.94,2.94,2,5.84,3.17,8.68Z"/><path class="cls-1" d="M50.44,22.63c1,3.22.51,6.93-2,8.82H46L33.22,42.6a7.72,7.72,0,0,0,.29-5.45,7.46,7.46,0,0,0-7.08-5.27,7.56,7.56,0,0,0-4.35-4.74,7.8,7.8,0,0,1,.06-4.51,7.46,7.46,0,0,1,7.07-5.27,7.39,7.39,0,0,1,14.16,0,7.46,7.46,0,0,1,7.07,5.27Z"/><path class="cls-1" d="M29.93,58.81c.05.16.1.32.16.48h0A7.44,7.44,0,0,0,24,56.07a7.46,7.46,0,0,0-7.07-5.26,7.39,7.39,0,0,0-6.23,3.45l-.1-.07a7.74,7.74,0,0,1-2.7-8.52,7.71,7.71,0,0,1-2.7-8.52,7.44,7.44,0,0,1,7.07-5.27,7.46,7.46,0,0,1,7.08-5.27,7.24,7.24,0,0,1,2.72.53,7.56,7.56,0,0,1,4.35,4.74,7.46,7.46,0,0,1,7.08,5.27,7.72,7.72,0,0,1-.29,5.45l-6.61,5.79Z"/><path class="cls-1" d="M42.9,86.8a7.74,7.74,0,0,1-2.7,8.52,7.3,7.3,0,0,1-8.75,0,7.29,7.29,0,0,1-8.74,0A7.72,7.72,0,0,1,20,86.8a7.75,7.75,0,0,1-2.76-8.33l.06-.2A7.46,7.46,0,0,1,24.38,73a7.46,7.46,0,0,1,7.07-5.27,7.18,7.18,0,0,1,1.81.23,120.75,120.75,0,0,0,9.36,18.25h0Z"/><path class="cls-2" d="M84.68,50.81V84.55A122.34,122.34,0,0,1,75,95.11a119.33,119.33,0,0,1-9.68-10.56h0V48.39A2.42,2.42,0,0,1,67.74,46H82.26a2.42,2.42,0,0,1,2.42,2.42Z"/><path class="cls-3" d="M104,31.45V50.81H84.68V48.39A2.42,2.42,0,0,0,82.26,46H75V36.29a7.25,7.25,0,0,0,6.84-4.84H104Z"/><path class="cls-3" d="M75,36.29V46H67.74a2.42,2.42,0,0,0-2.42,2.42v2.42H46V31.45H68.16A7.25,7.25,0,0,0,75,36.29Z"/><path class="cls-4" d="M84.68,84.55A120.53,120.53,0,0,0,104,50.81V31.45L116.78,42.6l6.61,5.79-3.32,10.42-.16.48c-1,2.94-2,5.83-3.17,8.68a119.84,119.84,0,0,1-9.36,18.25,120.49,120.49,0,0,1-17.09,21.44A122.39,122.39,0,0,1,75,95.11a122.34,122.34,0,0,0,9.68-10.56Z"/><path class="cls-3" d="M75,120.56h0q-3.33,2.37-6.83,4.51L32.36,147a3.78,3.78,0,0,1-5.75-3.22V130.33a3.77,3.77,0,0,1,1.8-3.21l25.9-15.94q2.74-1.7,5.4-3.52A121.31,121.31,0,0,0,75,120.56Z"/><path class="cls-4" d="M123.39,130.33V143.8a3.77,3.77,0,0,1-5.75,3.22l-35.8-21.94q-3.51-2.14-6.84-4.52a121.31,121.31,0,0,1-15.29-12.9A120.59,120.59,0,0,1,33.26,68c-1.17-2.84-2.23-5.74-3.17-8.68-.06-.16-.11-.32-.16-.48L26.61,48.39l6.61-5.79L46,31.45V50.81A120.53,120.53,0,0,0,65.32,84.55h0A119.33,119.33,0,0,0,75,95.11a122.39,122.39,0,0,0,15.29,12.55q2.65,1.83,5.4,3.52l25.9,15.94a3.77,3.77,0,0,1,1.8,3.21Z"/><path class="cls-5" d="M82.26,29a7.15,7.15,0,0,1-.42,2.42,7.25,7.25,0,0,1-13.68,0A7.15,7.15,0,0,1,67.74,29c0-4,3.25-12.09,7.26-12.09S82.26,25,82.26,29Z"/><path class="cls-6" d="M72.58,0h4.84V9.68H72.58Z"/><path class="cls-6" d="M54.46,9.51l3.43-3.42,6.84,6.84-3.42,3.42Z"/><path class="cls-6" d="M85.25,12.93,92.1,6.09l3.42,3.42-6.84,6.85Z"/><circle class="cls-6" cx="31.45" cy="82.26" r="2.42"/><circle class="cls-6" cx="16.94" cy="65.32" r="2.42"/><circle class="cls-6" cx="19.36" cy="41.13" r="2.42"/><circle class="cls-6" cx="118.55" cy="82.26" r="2.42"/><circle class="cls-6" cx="133.06" cy="65.32" r="2.42"/><path class="cls-6" d="M149.52,60.61a9.94,9.94,0,0,0-6.62-6.56,10.14,10.14,0,0,0,1.87-7.53,10.17,10.17,0,0,0,2.33-10.11,9.89,9.89,0,0,0-7.71-6.81,9.8,9.8,0,0,0-8.75-5.41h0a10.65,10.65,0,0,0-.44-2.29,9.9,9.9,0,0,0-7.71-6.81,9.78,9.78,0,0,0-17.5,0,9.9,9.9,0,0,0-7.71,6.81,11.58,11.58,0,0,0,0,7.13H84.68c0-5-3.77-14.51-9.68-14.51S65.32,24.05,65.32,29H52.86a12,12,0,0,0-.11-7.13A9.9,9.9,0,0,0,45,15.09a9.78,9.78,0,0,0-17.5,0,9.9,9.9,0,0,0-7.71,6.81,10.65,10.65,0,0,0-.44,2.29h0a9.8,9.8,0,0,0-8.75,5.41A9.89,9.89,0,0,0,2.9,36.41,10.17,10.17,0,0,0,5.23,46.52,10.18,10.18,0,0,0,7.1,54.06,9.91,9.91,0,0,0,.48,60.61,10.17,10.17,0,0,0,2.81,70.72a10.11,10.11,0,0,0,3.94,9.6,9.7,9.7,0,0,0,5.81,2A9.56,9.56,0,0,0,14.62,82a10.05,10.05,0,0,0,2.71,5.61,10.11,10.11,0,0,0,3.93,9.61,9.76,9.76,0,0,0,5.82,1.94,9.63,9.63,0,0,0,4.37-1,9.68,9.68,0,0,0,10.19-.89,10.06,10.06,0,0,0,3-3.64A123.74,123.74,0,0,0,56,107.27c-1,.63-1.93,1.25-2.91,1.85l-25.9,15.94a6.23,6.23,0,0,0-2.95,5.27V143.8a6.18,6.18,0,0,0,9.43,5.28l35.8-21.94c1.89-1.15,3.76-2.37,5.58-3.63,1.83,1.26,3.68,2.47,5.58,3.63l35.8,21.94a6.18,6.18,0,0,0,9.43-5.28V130.33a6.23,6.23,0,0,0-3-5.27L97,109.12c-1-.6-1.95-1.22-2.91-1.85A123,123,0,0,0,105.34,93.6a9.86,9.86,0,0,0,8.84,5.6,9.66,9.66,0,0,0,4.37-1,9.68,9.68,0,0,0,10.19-.89,10.11,10.11,0,0,0,3.93-9.61A10.05,10.05,0,0,0,135.38,82a9.54,9.54,0,0,0,2.05.23,9.7,9.7,0,0,0,5.82-2,10.11,10.11,0,0,0,3.94-9.6,10.17,10.17,0,0,0,2.33-10.11Zm-14.11-28L136,34.3h1.77a5,5,0,0,1,4.77,3.58,5.28,5.28,0,0,1-1.84,5.85l-1.38,1,.52,1.64a5.4,5.4,0,0,1-.45,4.28,9.71,9.71,0,0,0-6.28-2.29,9.83,9.83,0,0,0-8.75,5.41l-.11,0,2-6.21-7.35-6.44a5.36,5.36,0,0,1,0-3.29,5,5,0,0,1,4.77-3.58h1.77l.54-1.69a5,5,0,0,1,9.53,0Zm-33.54-9.25a5,5,0,0,1,4.76-3.58h1.77l.54-1.69a5,5,0,0,1,9.54,0l.53,1.69h1.77a5,5,0,0,1,4.77,3.58,5.37,5.37,0,0,1,.23,2.14,10,10,0,0,0-3.89,4.1,9.89,9.89,0,0,0-7.7,6.81c-.06.19-.11.38-.16.57L104.94,29h-2.27A6.05,6.05,0,0,1,101.87,23.36ZM75,91.68q-3.83-3.86-7.28-8.05V48.39H82.26V83.67Q78.82,87.84,75,91.68ZM62.9,77.35A118.41,118.41,0,0,1,49.52,53.22H62.9ZM87.1,53.22h13.38A119.06,119.06,0,0,1,87.1,77.38ZM83.38,33.87h18.23V48.39H87.1a4.84,4.84,0,0,0-4.84-4.84H77.42V38.4A9.72,9.72,0,0,0,83.38,33.87ZM75,19.35c1.81,0,4.84,6.06,4.84,9.68a4.84,4.84,0,0,1-9.68,0C70.16,25.41,73.19,19.35,75,19.35ZM66.62,33.87a9.72,9.72,0,0,0,6,4.53v5.15H67.74a4.84,4.84,0,0,0-4.84,4.84H48.39V33.87ZM24.45,23.36a5,5,0,0,1,4.77-3.58H31l.53-1.69a5,5,0,0,1,9.54,0l.54,1.69h1.77a5,5,0,0,1,4.77,3.58c.58,1.83.57,4.25-.67,5.67H45.06L36,37c0-.19-.1-.38-.16-.57a9.89,9.89,0,0,0-7.7-6.81,10,10,0,0,0-3.89-4.1A5.37,5.37,0,0,1,24.45,23.36ZM7.51,37.88a5,5,0,0,1,4.77-3.58h1.77l.54-1.69a5,5,0,0,1,9.53,0l.54,1.69h1.77a5,5,0,0,1,4.77,3.58,5.36,5.36,0,0,1,0,3.29l-7.35,6.44,2,6.21-.11,0a9.82,9.82,0,0,0-8.75-5.41,9.71,9.71,0,0,0-6.28,2.29,5.4,5.4,0,0,1-.45-4.28l.52-1.64-1.38-1a5.28,5.28,0,0,1-1.84-5.85ZM9.64,76.44a5.3,5.3,0,0,1-1.85-5.85L8.32,69l-1.39-1a5.3,5.3,0,0,1-1.84-5.85,5,5,0,0,1,4.77-3.58h1.77l.54-1.69a5,5,0,0,1,9.54,0l.53,1.69H24a5,5,0,0,1,3.91,1.93c.55,1.71,1.14,3.39,1.77,5.07a9.86,9.86,0,0,0-7,5.24,9.86,9.86,0,0,0-7.31,5.78A4.86,4.86,0,0,1,9.64,76.44Zm31,11.24a5.27,5.27,0,0,1-1.89,5.7,4.87,4.87,0,0,1-5.85,0L31.45,92.3,30,93.38a4.89,4.89,0,0,1-5.86,0,5.29,5.29,0,0,1-1.84-5.85l.52-1.65-1.38-1A5.28,5.28,0,0,1,19.61,79a5,5,0,0,1,4.77-3.57h1.77l.53-1.69a5,5,0,0,1,4.77-3.58h.1a122.63,122.63,0,0,0,8.93,17.18ZM66.89,123,31.1,145a1.39,1.39,0,0,1-.71.2A1.36,1.36,0,0,1,29,143.8V130.33a1.36,1.36,0,0,1,.65-1.15l25.9-15.94c1.29-.8,2.58-1.63,3.85-2.47a123.4,123.4,0,0,0,11.4,9.73C69.53,121.36,68.21,122.21,66.89,123Zm53.43,6.16a1.36,1.36,0,0,1,.65,1.15V143.8a1.36,1.36,0,0,1-1.36,1.36,1.39,1.39,0,0,1-.71-.2L83.11,123A118.22,118.22,0,0,1,32.24,58.08L29.4,49.16,43.55,36.78V51.24l.15.41a123.06,123.06,0,0,0,50.72,61.59ZM78.5,95.05a123.94,123.94,0,0,0,27.8-43.39l.15-.42V36.78L120.6,49.16l-2.84,8.92A118.69,118.69,0,0,1,90,104.49,118.73,118.73,0,0,1,78.5,95.05Zm50.05-10.2-1.38,1,.52,1.65a5.29,5.29,0,0,1-1.84,5.85,4.89,4.89,0,0,1-5.86,0l-1.44-1.08-1.45,1.08a4.87,4.87,0,0,1-5.85,0,5.27,5.27,0,0,1-1.89-5.7l.19-.4h0a123.44,123.44,0,0,0,8.89-17.12h.11a5,5,0,0,1,4.77,3.58l.53,1.69h1.77A5,5,0,0,1,130.39,79a5.27,5.27,0,0,1-1.84,5.84Zm14.52-16.93-1.39,1,.53,1.64a5.3,5.3,0,0,1-1.85,5.85,4.86,4.86,0,0,1-5.75.07,9.86,9.86,0,0,0-7.31-5.78,9.86,9.86,0,0,0-7-5.24q.94-2.52,1.78-5.08a5,5,0,0,1,3.9-1.92h1.77l.53-1.69a5,5,0,0,1,9.54,0l.54,1.69h1.77a5,5,0,0,1,4.77,3.58,5.3,5.3,0,0,1-1.84,5.85Z"/><circle class="cls-6" cx="130.64" cy="41.13" r="2.42"/><circle class="cls-6" cx="113.71" cy="26.61" r="2.42"/><circle class="cls-6" cx="36.29" cy="26.61" r="2.42"/></svg>