<svg id="圖層_1" data-name="圖層 1" xmlns="http://www.w3.org/2000/svg" viewBox="0 0 33 33"><defs><style>.cls-1{fill:#fff;}</style></defs><title>icon</title><path class="cls-1" d="M16.53.12c3.84,0,7.68.05,11.53,0A4.55,4.55,0,0,1,32.92,5c-.13,5.81,0,11.62,0,17.43a4.19,4.19,0,0,1-4.49,4.47c-2.52,0-5,0-7.55,0a3.33,3.33,0,0,0-2.23.72c-2.09,1.62-4.22,3.19-6.34,4.78-.44.33-.89.72-1.49.44s-.43-.88-.44-1.38c0-1.19,0-2.39,0-3.58,0-.7-.24-1-1-1-1.55,0-3.1,0-4.65,0A4.33,4.33,0,0,1,.09,22.19q0-8.72,0-17.43A4.39,4.39,0,0,1,4.71.12C8.65.09,12.59.12,16.53.12Zm0,2.21c-3.84,0-7.68,0-11.52,0C3,2.34,2.4,3,2.4,5q0,8.57,0,17.14c0,1.8.71,2.52,2.51,2.53,2.16,0,4.33,0,6.49,0,.91,0,1.2.33,1.15,1.19s0,1.74,0,2.61c0,.21-.1.49.14.62s.41-.11.58-.24c1.44-1.09,2.91-2.15,4.31-3.28a3.84,3.84,0,0,1,2.66-.9c2.71.06,5.42,0,8.13,0,1.45,0,2.3-.74,2.3-2.05q0-9.15,0-18.3a1.82,1.82,0,0,0-1.52-1.87,5.87,5.87,0,0,0-1.54-.14Z"/><path class="cls-1" d="M16.49,9.38c2.35,0,4.71,0,7.06,0,.78,0,1.21.21,1.21,1.08s-.38,1.13-1.18,1.13q-7.06,0-14.12,0c-.78,0-1.23-.26-1.23-1.11s.4-1.12,1.2-1.11C11.78,9.4,14.14,9.38,16.49,9.38Z"/><path class="cls-1" d="M13.47,17.62c-1.39,0-2.77,0-4.16,0-.74,0-1.06-.31-1.08-1s.28-1.17,1.07-1.17h8.32c.79,0,1.07.43,1.07,1.17s-.32,1-1.06,1C16.24,17.6,14.85,17.62,13.47,17.62Z"/></svg>