<svg id="圖層_1" data-name="圖層 1" xmlns="http://www.w3.org/2000/svg" viewBox="0 0 33 33"><defs><style>.cls-1{fill:#fff;}</style></defs><title>icon</title><path class="cls-1" d="M.09,26.75c0-1.26,0-2.52,0-3.78a2.17,2.17,0,0,1,2.13-2.42,51.23,51.23,0,0,1,8.51,0,1.92,1.92,0,0,1,1.7,1.51,2,2,0,0,1-.53,2.13c-.89.89-1.77,1.8-2.69,2.66-.54.5-.45.77.14,1.16a13.58,13.58,0,0,0,16.26-1.42,13.88,13.88,0,0,0,4.45-8.89c.12-1.06.54-1.43,1.38-1.29s1,.79.93,1.6c-.44,7.15-6.54,13.11-13,14.17A15.53,15.53,0,0,1,7.84,29.81c-.69-.46-1.13-.51-1.7.15s-1.5,1.51-2.25,2.28a2.12,2.12,0,0,1-2.41.51,2,2,0,0,1-1.39-2c0-1.32,0-2.65,0-4Zm9.74-4c-2.26,0-4.54,0-6.82,0-.59,0-.6.48-.61.91,0,1.39,0,2.78,0,4.16a10,10,0,0,0,.08,2.33Z"/><path class="cls-1" d="M32.92,6.31c0,1.32,0,2.65,0,4a2.08,2.08,0,0,1-2.25,2.24c-2.65,0-5.3,0-7.95,0a2,2,0,0,1-2-1.36,1.93,1.93,0,0,1,.5-2.29c.87-.86,1.72-1.76,2.63-2.58.6-.54.57-.83-.12-1.28A13.56,13.56,0,0,0,3,15.28c-.12,1.11-.41,1.37-1.36,1.3s-1.08-.45-1-1.52C1.17,7.42,8.24.75,15.87.63A16.08,16.08,0,0,1,25.4,3.35a1,1,0,0,0,1.5-.18c.7-.76,1.46-1.46,2.18-2.2A2,2,0,0,1,31.49.25a2.15,2.15,0,0,1,1.43,2.38C32.92,3.85,32.92,5.08,32.92,6.31Z"/></svg>