<svg id="圖層_1" data-name="圖層 1" xmlns="http://www.w3.org/2000/svg" viewBox="0 0 33 33"><defs><style>.cls-1{fill:#fff;}</style></defs><title>icon</title><path class="cls-1" d="M5.37,4.7a2,2,0,0,1,1.33.51,2.48,2.48,0,0,0,3.16.1c1.09-.65,1.61-1.23,1.4-2.42a4.23,4.23,0,0,1,0-.92A1.47,1.47,0,0,1,12.35.61,16.12,16.12,0,0,1,18.88.26c.53.08,1,.19,1.57.3a1.48,1.48,0,0,1,1.29,1.49c0,.67,0,1.34,0,2a.64.64,0,0,0,.45.71,8.45,8.45,0,0,1,2,1.07.76.76,0,0,0,.93,0c.54-.31,1.09-.63,1.64-.92a1.66,1.66,0,0,1,2.2.34,16.53,16.53,0,0,1,3.84,6.27,1.57,1.57,0,0,1-.84,2.18c-.54.32-1.09.63-1.65.92a.58.58,0,0,0-.38.68,7.06,7.06,0,0,1,0,2.23.64.64,0,0,0,.4.74c.57.31,1.14.62,1.7,1a1.52,1.52,0,0,1,.8,2,16,16,0,0,1-3.92,6.42,1.57,1.57,0,0,1-2.09.33c-.61-.31-1.21-.65-1.81-1a.64.64,0,0,0-.77,0,10.57,10.57,0,0,1-2.06,1.14.6.6,0,0,0-.4.63c0,.59,0,1.19,0,1.78a1.65,1.65,0,0,1-1.53,1.86,17.38,17.38,0,0,1-7.42,0c-1.13-.24-1.54-.71-1.54-1.83,0-.57,0-1.15,0-1.72a.69.69,0,0,0-.49-.75,8.73,8.73,0,0,1-1.91-1.05A.73.73,0,0,0,8,27.11c-.57.35-1.16.67-1.75,1a1.49,1.49,0,0,1-2-.3A15.94,15.94,0,0,1,.24,21.43c-.36-1.1-.11-1.65.93-2.24l1.6-.89a.57.57,0,0,0,.33-.66,9.18,9.18,0,0,1,0-2.29.58.58,0,0,0-.34-.65c-.61-.33-1.21-.65-1.8-1a1.46,1.46,0,0,1-.76-1.91,16,16,0,0,1,4-6.57A1.51,1.51,0,0,1,5.37,4.7Zm11.14-2.4a16.22,16.22,0,0,0-2.43.13c-.44.07-.56.25-.56.64,0,.8,0,1.61,0,2.41a.74.74,0,0,1-.59.81A11.38,11.38,0,0,0,9,8.49a.64.64,0,0,1-.85.05C7.44,8.12,6.69,7.72,6,7.3a.57.57,0,0,0-.83.13A14.66,14.66,0,0,0,2.7,11.48a.55.55,0,0,0,.3.8c.71.38,1.39.81,2.11,1.18a.74.74,0,0,1,.45.93,10.17,10.17,0,0,0,0,4.33.62.62,0,0,1-.35.76c-.71.39-1.39.82-2.11,1.18a.65.65,0,0,0-.37,1,15,15,0,0,0,2.36,3.9.62.62,0,0,0,.92.16c.66-.39,1.34-.74,2-1.15a.83.83,0,0,1,1.12.05A11.09,11.09,0,0,0,13,26.72a.74.74,0,0,1,.58.82c0,.8,0,1.61,0,2.41,0,.36.11.58.51.63a18.42,18.42,0,0,0,4.85,0,.59.59,0,0,0,.58-.71c0-.78,0-1.57,0-2.35a.71.71,0,0,1,.53-.79,12.63,12.63,0,0,0,3.93-2.22.72.72,0,0,1,.92-.06c.69.41,1.41.79,2.1,1.2a.65.65,0,0,0,1-.15,14.83,14.83,0,0,0,2.4-4c.16-.39,0-.6-.32-.78-.71-.38-1.4-.8-2.11-1.18a.69.69,0,0,1-.44-.83,10.24,10.24,0,0,0,0-4.44.61.61,0,0,1,.37-.74c.71-.39,1.39-.82,2.11-1.19a.67.67,0,0,0,.34-1,17,17,0,0,0-2.31-3.8.64.64,0,0,0-1-.17c-.69.41-1.41.78-2.1,1.2a.7.7,0,0,1-1-.08A11.08,11.08,0,0,0,20,6.29a.74.74,0,0,1-.57-.82c0-.78,0-1.57,0-2.35,0-.41-.13-.61-.59-.68A15.74,15.74,0,0,0,16.52,2.31Z"/><path class="cls-1" d="M9.93,16.51c-.21-3.36,2.88-6.4,6.56-6.41a6.63,6.63,0,0,1,6.64,6.45,6.6,6.6,0,0,1-6.67,6.34C12.72,22.88,9.71,19.74,9.93,16.51Zm2.29,0c-.25,2,1.92,4.24,4.23,4.2a4.31,4.31,0,0,0,4.37-4.1,4.43,4.43,0,0,0-4.26-4.28C14.27,12.26,12,14.41,12.22,16.48Z"/></svg>