<svg id="圖層_1" data-name="圖層 1" xmlns="http://www.w3.org/2000/svg" viewBox="0 0 33 33"><defs><style>.cls-1{fill:#fff;}</style></defs><title>icon</title><path class="cls-1" d="M4.15,12.56A12.44,12.44,0,0,1,16.27.09,12.48,12.48,0,0,1,28.8,11.31a11.64,11.64,0,0,1-1.6,7.14c-2.81,4.76-6.2,9.13-9.3,13.68a1.61,1.61,0,0,1-2.77,0c-3.1-4.64-6.59-9-9.38-13.86A11,11,0,0,1,4.15,12.56Zm22.47-.18c-.05-.58-.05-1.16-.16-1.73-1-5.38-5.62-8.78-11.32-8.19A10,10,0,0,0,7.52,16.9C9.9,21.42,13.23,25.32,16,29.56c.39.58.65.44,1,0,2.54-3.69,5.12-7.35,7.63-11.06A9.63,9.63,0,0,0,26.62,12.39Z"/><path class="cls-1" d="M16.46,7.83a4.63,4.63,0,1,1-4.58,4.62A4.64,4.64,0,0,1,16.46,7.83Z"/></svg>