<svg id="圖層_1" data-name="圖層 1" xmlns="http://www.w3.org/2000/svg" xmlns:xlink="http://www.w3.org/1999/xlink" viewBox="0 0 33 33"><defs><style>.cls-1{fill:none;}.cls-2{clip-path:url(#clip-path);}.cls-3{fill:#e0f0fc;}.cls-4{fill:#fff;}</style><clipPath id="clip-path"><rect class="cls-1" x="110.35" y="-313.42" width="375" height="734.56"/></clipPath></defs><g class="cls-2"><circle class="cls-3" cx="109.18" cy="29.98" r="138.85"/></g><path class="cls-4" d="M26,25.75V8.32a1,1,0,0,0-.09-.43l-1.5-3.13V3.54a1.68,1.68,0,0,0-1.67-1.68H10.28A1.68,1.68,0,0,0,8.61,3.54V4.76L7.11,7.89A1,1,0,0,0,7,8.32V25.75a1,1,0,0,0,.18.58l1.4,2v1.16a1.68,1.68,0,0,0,1.68,1.68H22.71a1.68,1.68,0,0,0,1.68-1.68V28.32l1.41-2A1,1,0,0,0,26,25.75Zm-2-.32L22.88,27H10.12L9,25.43V16.49H24ZM9,12.37V8.55L10.24,6H22.76L24,8.55v3.82Z"/><path class="cls-4" d="M1.12,10.45a1,1,0,0,0,1-1V5.58H6a1,1,0,0,0,0-2H1.12a1,1,0,0,0-1,1V9.45A1,1,0,0,0,1.12,10.45Z"/><path class="cls-4" d="M6,27.43H2.14V23.52a1,1,0,0,0-2,0v4.91a1,1,0,0,0,1,1H6a1,1,0,0,0,0-2Z"/><path class="cls-4" d="M31.88,22.55a1,1,0,0,0-1,1v3.88H27a1,1,0,0,0,0,2h4.91a1,1,0,0,0,1-1V23.55A1,1,0,0,0,31.88,22.55Z"/><path class="cls-4" d="M31.88,3.58H27a1,1,0,0,0,0,2h3.88V9.49a1,1,0,0,0,2,0V4.58A1,1,0,0,0,31.88,3.58Z"/></svg>