<svg id="圖層_1" data-name="圖層 1" xmlns="http://www.w3.org/2000/svg" viewBox="0 0 33 33"><defs><style>.cls-1{fill:#fff;}</style></defs><title>icon</title><path class="cls-1" d="M16.53,32.91H5.37a2.94,2.94,0,0,1-3.21-3.14q0-11.16,0-22.31A2.92,2.92,0,0,1,5.1,4.25a14,14,0,0,1,2.15,0c.79.06,1.14-.17,1.06-1-.07-.68,0-1.37,0-2.05S8.53.09,9.26.08s1,.34,1,1,0,1.57,0,2.35c0,.54.18.75.73.75q5.53,0,11.06,0c.5,0,.71-.19.7-.69,0-.82,0-1.63,0-2.45s.33-1,1-1,.89.4.88,1,0,1.5,0,2.25.18.89.84.87a24.89,24.89,0,0,1,2.64.07,2.86,2.86,0,0,1,2.68,2.53,6.76,6.76,0,0,1,.06,1q0,10.76,0,21.53a3.64,3.64,0,0,1-.63,2.41,3,3,0,0,1-2.45,1.2C24,32.9,20.28,32.91,16.53,32.91Zm0-20.55c-3.78,0-7.56,0-11.35,0-.84,0-1.12.21-1.11,1.08,0,5.31,0,10.63,0,15.94,0,1.35.3,1.64,1.7,1.64H27.26c1.37,0,1.68-.31,1.69-1.66,0-5.31,0-10.63,0-15.94,0-.8-.21-1.07-1-1.06C24.12,12.38,20.3,12.36,16.49,12.36Z"/><path class="cls-1" d="M8.31,18.5c0-.36,0-.72,0-1.08a.79.79,0,0,1,.85-.86h.39c2.89-.06,3.18.28,2.78,3.17-.07.49-.28.79-.78.84s-.71.06-1.07.06C8.3,20.63,8.3,20.63,8.31,18.5Z"/><path class="cls-1" d="M24.64,18.62c0,2,0,2-2,2-.36,0-.72,0-1.07,0-.6-.05-1-.32-.91-1,0-.16,0-.33,0-.49,0-2.81-.29-2.55,2.58-2.55,1.31,0,1.38.08,1.38,1.39C24.64,18.17,24.64,18.4,24.64,18.62Z"/><path class="cls-1" d="M24.64,24.7c0,2.32.1,2-2.06,2-.26,0-.52,0-.78,0-.86.08-1.15-.32-1.13-1.15.06-3.24-.39-2.77,2.48-2.8C24.63,22.78,24.63,22.8,24.64,24.7Z"/><path class="cls-1" d="M10.38,22.8c2,0,2,0,2,2s0,2-2,2-2,0-2-2C8.28,22.4,8.4,22.83,10.38,22.8Z"/><path class="cls-1" d="M18.47,18.61c0,2,0,2-2.05,2-1.9,0-1.9,0-1.9-1.89,0-2.18,0-2.18,2.16-2.18C18.47,16.55,18.47,16.55,18.47,18.61Z"/><path class="cls-1" d="M16.51,22.8c2.11,0,2-.18,2,1.93s0,2-2,2-2,0-2-2C14.52,22.49,14.45,22.82,16.51,22.8Z"/></svg>