<svg id="圖層_1" data-name="圖層 1" xmlns="http://www.w3.org/2000/svg" viewBox="0 0 175.11 81.14"><defs><style>.cls-1{fill:#e60020;}.cls-2{fill:#0071bc;}</style></defs><title>logo</title><path class="cls-1" d="M62.7,5.65A33.7,33.7,0,0,1,63.43,0H49.65a35.58,35.58,0,0,1,.73,5.65c0,.87.06,2.58.06,3.59V34c0,1,0,2.74-.06,3.59a33.43,33.43,0,0,1-.73,5.65H63.43a31.36,31.36,0,0,1-.71-5.65c-.06-.85-.08-2.58-.08-3.59V9.24c0-1,0-2.74.06-3.59"/><path class="cls-1" d="M126.73,5.65A33.7,33.7,0,0,1,127.46,0H113.68a31.52,31.52,0,0,1,.73,5.65c0,.87.08,2.58.08,3.59V34c0,1,0,2.74-.08,3.59a31.52,31.52,0,0,1-.73,5.65h13.78a37.68,37.68,0,0,1-.73-5.65c0-.85-.08-2.58-.08-3.59V9.24c0-1,.06-2.74.08-3.59"/><path class="cls-1" d="M174.31,43.23v-34c0-1,0-2.72.06-3.59A33.7,33.7,0,0,1,175.11,0h-9.56a33.43,33.43,0,0,1,.73,5.65c0,.87.06,2.58.06,3.59V29.07c-.73-1.57-1.61-3.31-2.2-4.34-1-1.67-14.3-24.73-14.3-24.73H134.56a35.58,35.58,0,0,1,.73,5.65c0,.87.06,2.58.06,3.59V34c0,1,0,2.74-.06,3.59a35.32,35.32,0,0,1-.73,5.63h9.56a35.32,35.32,0,0,1-.73-5.63c0-.85-.06-2.58-.06-3.59V12.21c.93,2.08,2.46,5,3.47,6.78,2.72,4.74,7.46,12.77,11.24,18.12,3.13,4.44,5.65,6.09,12.06,6.13Z"/><path class="cls-1" d="M44.08,0H31.69c-1,4.4-4.54,8.82-8.05,13.21-2.34,2.91-4.54,5.23-5.63,6.37V9.24c0-1,0-2.74.06-3.59A35.79,35.79,0,0,1,18.82,0H5a33.78,33.78,0,0,1,.71,5.65c.06.85.08,2.56.08,3.59V34c0,1,0,2.74-.08,3.59A33.27,33.27,0,0,1,5,43.23H18.82a33.16,33.16,0,0,1-.73-5.65C18,36.72,18,35,18,34V21.87c2.36,4.42,5,9.58,8.21,14.57s6.13,7.14,13.31,7.14c2.4,0,4.72-.14,7.2-.38C42.93,39.5,35.37,28,29.9,18.24Z"/><path class="cls-1" d="M98.79,24.11c5.37-2.62,7.48-6.6,7.48-11.68a11.61,11.61,0,0,0-4.6-9.4C98.77,1,95.42.34,91.17.16,88.53,0,87.19,0,84.53,0H70.11a33.78,33.78,0,0,1,.71,5.65c.06.87.08,2.58.08,3.59V34c0,1,0,2.74-.08,3.59a35.68,35.68,0,0,1-.71,5.65H83.89a35.27,35.27,0,0,1-.73-5.65c0-.85-.06-2.56-.06-3.59V9.24c0-.79,0-2,0-2.93a22.06,22.06,0,0,1,2.4-.12A14.18,14.18,0,0,1,89,6.54c3.55.85,5.43,3.35,5.43,7,0,5.43-3.71,7.93-9.82,9,1.8,3.91,4.28,9.28,6.64,13.44,3.67,6.5,7.12,7.63,14.06,7.63a55.5,55.5,0,0,0,6.17-.36c-4.56-4.38-11-16.7-12.73-19.13"/><path class="cls-2" d="M7,62.1H1.66a38.73,38.73,0,0,0,4-6.35h4.89A56.84,56.84,0,0,1,7,62.1Zm3.06.93c-.81,2.36-1.83,4.83-2.88,7.13h.67V81.37H3.46v-10H1.78A45.66,45.66,0,0,0,5.42,63h4.66ZM23.7,67V78.66a2.73,2.73,0,0,1-.82,2,3.16,3.16,0,0,1-2.1.73H13.6l-.87-2.65h5.76A.79.79,0,0,0,19.3,78V67h-9V64.28H27.48V67ZM11.24,59V56.3H26.49V59Z"/><path class="cls-2" d="M40.23,62.42V63.9h2.53a2.38,2.38,0,0,1,1.69.64,2.1,2.1,0,0,1,.64,1.57V71a2.67,2.67,0,0,1-.47,1.66,2,2,0,0,1-1.72.76H40.23v1.4h4.63v2.15H40.23v1.48c1.46-.09,3.23-.2,4.83-.32v2.15A132.15,132.15,0,0,1,31,81v-2.3l5.44-.09V76.95H31.59V74.79h4.86v-1.4h-2.5a2.73,2.73,0,0,1-1.69-.55,1.9,1.9,0,0,1-.73-1.51V66a2.14,2.14,0,0,1,2.15-2.13h2.77V62.42H31V60.18h5.42V58.66c-1.48,0-3.32.09-4.75.09V56.57c4.37-.15,8.88-.47,13.22-1v2.36c-1.54.2-3.12.38-4.69.5v1.78h5.21v2.24Zm-3.78,3.84H35.29a.49.49,0,0,0-.47.52v.84h1.63Zm0,3.49H34.82v1a.44.44,0,0,0,.41.44h1.22Zm5.36-3.12c0-.26-.29-.38-.49-.38H40.23v1.37h1.57Zm0,3.12H40.23v1.4h1.08a.51.51,0,0,0,.49-.5ZM55.34,80.64a3,3,0,0,1-2,.76H51.09l-.58-2.68h1.25a.63.63,0,0,0,.55-.61V63.73a.53.53,0,0,0-.47-.47h-.76V69.2a49.57,49.57,0,0,1-1.75,12.23H45.1a35.44,35.44,0,0,0,2.24-12.11V63.26H46.23V60.58h1.11V55.75h3.76v4.83h2.36a3,3,0,0,1,2.07.76,2.43,2.43,0,0,1,.79,1.89v15.4A2.61,2.61,0,0,1,55.34,80.64Z"/><path class="cls-2" d="M68.42,63.26c-.35-.55-.9-1.43-1.22-2a13.14,13.14,0,0,1-1.86,2H60.15A11.54,11.54,0,0,0,64,59.33H61.05a26.69,26.69,0,0,1-.87-3.41h3a22.12,22.12,0,0,0,.87,3.17,10.25,10.25,0,0,0,.64-3.41h3.93A15.31,15.31,0,0,1,67.81,60H70.4a29.14,29.14,0,0,0,2.1,3.23Zm14.56,6v2a2.32,2.32,0,0,1-.47,1.63,2,2,0,0,1-1.6.55H75.23c-.15.38-.41.9-.58,1.25h7.77a2,2,0,0,1,1.48.7,2.38,2.38,0,0,1,.5,1.46V79a2.27,2.27,0,0,1-.61,1.72,2,2,0,0,1-1.43.47H63.76a2.25,2.25,0,0,1-1.81-.7,2.46,2.46,0,0,1-.52-1.6V76.71a1.83,1.83,0,0,1,2.13-2h6.67c.15-.29.41-.84.58-1.25h-6a1.9,1.9,0,0,1-1.34-.58,2.25,2.25,0,0,1-.61-1.57v-2H60.26v-3.2a2.13,2.13,0,0,1,.52-1.46A1.93,1.93,0,0,1,62.24,64H83.44a2.06,2.06,0,0,1,1.54.67,2.48,2.48,0,0,1,.55,1.6v3Zm-1.66-2.53a.46.46,0,0,0-.44-.49H65a.47.47,0,0,0-.52.49v1h16.8Zm-1.14,10.8a.44.44,0,0,0-.47-.49H66.2a.48.48,0,0,0-.49.41v.9a.42.42,0,0,0,.47.44H79.71a.42.42,0,0,0,.47-.44Zm-1.46-7.07a.44.44,0,0,0-.47-.49H67.6a.47.47,0,0,0-.47.49v.44a.41.41,0,0,0,.47.44H78.31a.4.4,0,0,0,.41-.44ZM71.53,59.33H68.59c.41-1.14.76-2.27,1.08-3.41h2.91A21.12,21.12,0,0,1,71.53,59.33Zm9.61,3.93c-.38-.41-1.16-1.37-1.57-1.89a6,6,0,0,1-1.75,1.89h-5a11.09,11.09,0,0,0,3.7-3.93H73.89A14.73,14.73,0,0,1,73,55.93h2.82c.26,1,.58,2,.9,3a8.64,8.64,0,0,0,.58-3.26H81A11.84,11.84,0,0,1,80.21,60h2.62c.82,1.11,1.75,2.18,2.68,3.23Zm3.17-3.93h-3.2c.47-1.08.84-2.3,1.19-3.41h3.14A26,26,0,0,1,84.31,59.33Z"/><path class="cls-2" d="M94.18,81H88.85A40,40,0,0,0,93,76.8h4.95A26.52,26.52,0,0,1,94.18,81ZM89.32,63.12V60.7h7.4V55.81h4.19V60.7h2.27V55.81h4.19V60.7h7.31v2.42Zm15,12.78v5.5h-4.4V75.9H89.38V73.51H99.89V72H90.8V69.81h9.08V68.33H90V65.91h5.71a9,9,0,0,1-2.21-2h4.77a11.51,11.51,0,0,0,2.33,2h3.26a10.68,10.68,0,0,0,2.18-2h4.69a9.36,9.36,0,0,1-2.27,2h5.71v2.42h-9.84v1.48h9.08V72h-9.08v1.48h10.48V75.9ZM91.42,60a22.27,22.27,0,0,1-1.14-3.41h4.11A24.31,24.31,0,0,0,95.72,60Zm18.46,21a27.63,27.63,0,0,1-3.7-4.19h5.09a24.32,24.32,0,0,0,4.1,4.19Zm2.77-21h-4.25a17.06,17.06,0,0,0,1.28-3.41h4.08A23.25,23.25,0,0,1,112.64,60Z"/><path class="cls-2" d="M123,80.7H118a39.93,39.93,0,0,0,4.54-7.34h4.77A35.13,35.13,0,0,1,123,80.7Zm16.07-8.62c-.52-.52-1.43-1.43-2-2.1l-.73,1.89h-3v7.37a2.12,2.12,0,0,1-.79,1.57,2.78,2.78,0,0,1-1.78.7h-4.34l-.84-2.62h2.85c.17,0,.47-.2.47-.41V71.88h-8.5A1.29,1.29,0,0,1,119.1,71a1.33,1.33,0,0,1,.58-1.6l6.52-3.26h-5.44a1.35,1.35,0,0,1-1.34-1.08,1.55,1.55,0,0,1,.73-1.72l6.43-4c-2.24.12-5.74.17-7.74.17V56.92c8.21-.06,16.45-.47,24.57-1.34v2.53c-3,.32-6.72.64-9.55.84l-7.19,4.54h4.4l4.51-2.59h7l-14.12,8.38h8a29,29,0,0,1-2-2.62h4.92a40.22,40.22,0,0,0,4.86,5.42Zm0,8.62A35.83,35.83,0,0,1,135,73.36h4.8a46.9,46.9,0,0,0,4.51,7.34Z"/><path class="cls-2" d="M150.34,81.37h-3.12a37,37,0,0,0,.82-6.81H151A34.48,34.48,0,0,1,150.34,81.37Zm5.56-8.06c-.17-.55-.38-1.25-.58-1.86l-.93,1.86h-5.18c-.87,0-1.43-.29-1.63-.76a1.89,1.89,0,0,1,.29-1.86l3-4.63h-2a1.58,1.58,0,0,1-1.46-.87,1.8,1.8,0,0,1,0-1.72l4-7.69h4.69l-4.63,7.6h1l1.13-1.75h4.46l-5.91,9h2.85c-.15-.52-.29-1.57-.44-2.27h2.94a23.29,23.29,0,0,0,1.4,5Zm-3.58,8.06a43.23,43.23,0,0,1-.61-6.81h2.74a64.17,64.17,0,0,0,.84,6.81Zm11.88-5.91a13.19,13.19,0,0,1-1.63,5.91H158.2a4.78,4.78,0,0,0,.41-.76h-2.36a40.45,40.45,0,0,1-.9-6.06h2.74a36.65,36.65,0,0,0,.84,5.15c1.31-2.79,1.48-6.64,1.31-9.75h4A49.86,49.86,0,0,1,164.2,75.46Zm4.66-6.84a17.09,17.09,0,0,1-.79-2l-.64,2H160a1.73,1.73,0,0,1-1.6-.7,2,2,0,0,1,.17-2l2.5-5h-2.94V58.23h5.27c-.17-.76-.41-1.63-.55-2.45h4.66c.17.76.44,1.75.67,2.45h4.69v2.65h-7.07l-2.68,5h4.69c-.26-.84-.73-2.5-1-3.41h4.11a35.1,35.1,0,0,0,2.3,6.11Zm3.9,12.75h-4a2.35,2.35,0,0,1-1.89-.79,2.74,2.74,0,0,1-.58-1.81V69.9h4v8.44a.4.4,0,0,0,.32.35h3Z"/></svg>