<svg id="圖層_1" data-name="圖層 1" xmlns="http://www.w3.org/2000/svg" viewBox="0 0 165.94 132.44"><defs><style>.cls-1{fill:#fff;}</style></defs><title>icon</title><path class="cls-1" d="M157.52,66.26q0,25.12,0,50.23a28.16,28.16,0,0,1-.13,3.56c-.31,2.44-1.72,4-4.22,4-2.26,0-4.11-1.21-4.23-3.51-.16-3.09-2-3.9-4.48-4.52-13.82-3.43-27.64-6.88-41.43-10.48-2.82-.74-4,.15-5.06,2.71-7.48,17.77-29.66,21.5-42.37,7.17-5-5.59-6.58-12.33-5.69-19.57.37-3.06-.75-3.82-3.41-4.42-8.34-1.87-16.61-4-24.91-6.06-2.29-.56-4.43-1.17-4.7,2.51-.16,2.12-2,3.24-4.11,3.17a4.19,4.19,0,0,1-4.25-3.6,5,5,0,0,1-.12-1.06c0-13.54,0-27.08,0-40.61,0-2.4,1.25-4.1,3.82-4.35s4.5,1,4.77,3.65c.32,3.21,2.1,2.76,4.26,2.21q42-10.55,83.92-21c13.12-3.28,26.25-6.58,39.39-9.79,2.54-.62,4.28-1.46,4.31-4.58,0-2.29,1.83-3.61,4.12-3.61a4.05,4.05,0,0,1,4.33,3.87,31.12,31.12,0,0,1,.14,3.91Q157.53,41.14,157.52,66.26Zm-8.79,0q0-18.7,0-37.41c0-4.47,0-4.51-4.37-3.42q-27.8,7-55.59,14C66.22,45.16,43.66,50.84,21.06,56.37c-3,.74-4.13,2.09-3.92,5.14a80.83,80.83,0,0,1,0,10c-.15,2.74.9,4,3.57,4.71Q82.58,91.52,144.4,107c4.09,1,4.32.86,4.33-3.27Q148.76,85,148.74,66.3ZM74.92,115.44a16.56,16.56,0,0,0,14.67-10.08c.87-2.09.35-3-1.76-3.55q-12.75-3.13-25.48-6.38c-2.75-.71-3.64.48-3.79,3C58,107.38,65.8,115.47,74.92,115.44Z"/></svg>