<svg id="圖層_1" data-name="圖層 1" xmlns="http://www.w3.org/2000/svg" viewBox="0 0 165.94 132.44"><defs><style>.cls-1{fill:#333;}</style></defs><title>icon</title><path class="cls-1" d="M16.71,53.82c0-22,13.4-41.52,34.36-50.12C70-4,93.73.85,108.49,15.54c19.23,19.13,21.63,48,5.68,70.22-1.77,2.47-1.68,3.79.45,5.89,10.5,10.32,20.84,20.81,31.22,31.25a21.52,21.52,0,0,1,2.57,2.94,3.74,3.74,0,0,1-.5,5.17,3.92,3.92,0,0,1-5.48.5,20.36,20.36,0,0,1-2.62-2.41c-10.44-10.38-20.93-20.72-31.26-31.2-2.21-2.24-3.7-2.22-6.28-.43C85.21,109.27,66.83,111.53,48,102.67S18.9,78.52,17,57.72C16.9,56.42,16.81,55.12,16.71,53.82Zm98.88,0c.91-22.49-18.85-45-44.81-44.92a45.13,45.13,0,0,0-45,45.19C25.65,77,44,99.21,71.05,99,98.45,98.86,116.49,75.73,115.59,53.82Z"/></svg>