<svg id="圖層_1" data-name="圖層 1" xmlns="http://www.w3.org/2000/svg" viewBox="0 0 165.94 132.44"><defs><style>.cls-1{fill:#fff;}</style></defs><title>icon</title><path class="cls-1" d="M8.78,66.16q0-23.88,0-47.76C8.8,7.14,15.72.13,27,.06,39.58,0,52.17.08,64.77,0A14.42,14.42,0,0,1,75.61,4.51Q89.77,18.83,104.1,33a14.76,14.76,0,0,1,4.54,10.86c.07,8.79,0,17.58,0,26.38,0,2.75-5.13,10-7.6,10.52-2.28.5-1.62-1.53-1.63-2.57-.08-7.48,0-15,0-22.46,0-5.49,0-5.49-5.51-5.5-6.77,0-13.54,0-20.32,0-10,0-15.19-5-15.41-15.06-.16-7.13,0-14.26,0-21.39C58.08,9,58,8.91,53.36,8.9q-12.83,0-25.66,0c-7.45,0-10.09,2.6-10.1,10q0,44.38,0,88.75c0,2.38,0,4.75,0,7.13.11,6,2.84,8.75,8.77,8.76,14.73,0,29.47,0,44.2,0a5.33,5.33,0,0,1,4.92,7.74c-.51,1.12-1.53,1-2.44,1-16.51,0-33,.2-49.54-.1-8.05-.15-14.66-8.08-14.7-16.9C8.73,99,8.78,82.56,8.78,66.16Zm90-24.75A8.14,8.14,0,0,0,98,39.63q-14-14.14-28.14-28.24c-.48-.48-1.07-1.15-1.82-.82-1,.43-.63,1.45-.63,2.22,0,8,0,15.9,0,23.85,0,3.06,1.55,4.71,4.55,4.73C80.67,41.45,89.44,41.41,98.8,41.41Z"/><path class="cls-1" d="M157.17,75.93a13.56,13.56,0,0,1-4.27,9.5q-19.72,19.55-39.5,39a8.81,8.81,0,0,1-3.81,2.56c-7,1.8-14,3.68-21.07,5.19-3.51.75-5.84-1.74-5.08-5.28,1.45-6.72,3.16-13.39,4.86-20.06.57-2.24,2.12-3.94,3.73-5.55Q111.15,82.16,130.26,63c6-6,13.29-5.92,19.49.11C153.43,66.68,157.25,70.17,157.17,75.93Zm-61.1,45.55c4.82-1.33,10.23-1.72,14.29-6.29,5.27-5.93,11.18-11.28,16.81-16.88,7.74-7.69,7.69-7.63-.12-15.21-1.83-1.78-2.92-1.61-4.6.1-6.8,6.95-13.38,14.16-20.7,20.53-5.11,4.44-6.07,10.17-7.53,16C93.91,120.94,94,121.91,96.07,121.48Zm51.77-45.84c-.07-2.93-5.25-8.11-8.08-8a3.6,3.6,0,0,0-2,.66c-2.32,1.83-5.27,3.61-6,6.33-.56,2.19,2.72,3.49,4.2,5.26a42.85,42.85,0,0,0,3.27,3.26,2,2,0,0,0,1.87.77C142.88,83.57,147.89,77.4,147.85,75.64Z"/></svg>