<svg id="圖層_1" data-name="圖層 1" xmlns="http://www.w3.org/2000/svg" viewBox="0 0 165.94 132.44"><defs><style>.cls-1{fill:#fff;}</style></defs><title>icon</title><path class="cls-1" d="M116.06,58.21c-4.16,0-8.32.08-12.47,0C96.39,58,91.18,53,91,45.82q-.23-12.47,0-24.94c.14-7.41,5.19-12.41,13.11-12.69s15.69-.31,23.51,0c8.64.35,13.37,5.59,13.46,14.32q.1,10.87,0,21.74c-.08,8.75-5.32,13.92-14,14C123.42,58.23,119.74,58.22,116.06,58.21Zm.09-8.82h0c3.67,0,7.35-.07,11,0,3.31.08,4.75-1.44,4.73-4.71-.05-7.47,0-14.93,0-22.4,0-4-.87-4.84-4.82-4.87-7.47-.06-14.94.05-22.4,0-3.31,0-4.81,1.4-4.8,4.65q0,11.38,0,22.76c0,3.06,1.47,4.61,4.57,4.6C108.32,49.38,112.24,49.39,116.15,49.39Z"/><path class="cls-1" d="M115.73,124.39c-3.8,0-7.6.08-11.4,0-8.13-.23-13.25-5.44-13.32-13.58q-.1-11.58,0-23.15c.07-7.91,4.78-13,12.77-13.28,8.18-.28,16.39-.28,24.57,0,7.6.26,12.59,5.52,12.74,13.11.15,7.83.18,15.68,0,23.51-.2,8.12-5.52,13.24-13.6,13.4C123.57,124.45,119.65,124.39,115.73,124.39Zm.4-41.18h0c-3.79,0-7.59.05-11.38,0-3.22-.06-4.91,1.39-4.91,4.65q0,11.38,0,22.75c0,3.33,1.65,5,5,5q11.2,0,22.4,0c3.12,0,4.56-1.58,4.57-4.6,0-7.82,0-15.64,0-23.46,0-3-1.43-4.35-4.37-4.33C123.72,83.23,119.93,83.21,116.13,83.21Z"/><path class="cls-1" d="M49.66,58.22c-3.92,0-7.84,0-11.76,0-7.3-.11-12.74-5.07-13-12.41-.27-8.42-.28-16.87,0-25.29.24-7.14,5.4-12,13.21-12.29S54.06,7.87,62,8.2c8.21.35,12.91,5.67,13,14,0,7.48.05,15,0,22.45-.07,8.49-5.12,13.54-13.53,13.61C57.5,58.24,53.58,58.22,49.66,58.22ZM50,17.42h0c-4,0-8.06,0-12.09,0-2.66,0-4.12,1.31-4.15,3.8-.09,8.06-.11,16.11.06,24.17.05,2.59,1.68,4,4.45,4,7.7,0,15.41,0,23.11,0,3,0,4.69-1.45,4.71-4.52,0-7.7,0-15.41,0-23.11,0-3.11-1.62-4.46-4.71-4.37C57.61,17.5,53.81,17.42,50,17.42Z"/><path class="cls-1" d="M75,99.46c0,3.92.06,7.84,0,11.76-.15,7.55-5.13,12.88-12.67,13.1-8.19.24-16.39.21-24.58,0a12.68,12.68,0,0,1-12.8-12.68q-.32-12.28,0-24.58c.19-7.32,5.29-12.47,12.75-12.71,8.18-.27,16.39-.29,24.58,0,8,.28,12.61,5.37,12.73,13.34C75,91.62,75,95.54,75,99.46ZM50.11,83.21c-3.92,0-7.84,0-11.76,0-2.94,0-4.54,1.55-4.58,4.32q-.17,11.93,0,23.86c0,2.57,1.62,4.18,4.37,4.18,7.84,0,15.68,0,23.51,0,2.7,0,4.32-1.54,4.36-4.18q.17-11.93,0-23.87c0-2.78-1.56-4.36-4.54-4.32C57.72,83.24,53.91,83.2,50.11,83.21Z"/></svg>