<svg id="圖層_1" data-name="圖層 1" xmlns="http://www.w3.org/2000/svg" viewBox="0 0 165.94 132.44"><defs><style>.cls-1{fill:#333;}</style></defs><title>icon</title><path class="cls-1" d="M82.83,58.25c-17.58,0-35.17.08-52.75-.07-3.45,0-4.54,1.1-4.46,4.5.2,8.07.15,16.16,0,24.23,0,2.95,1,3.93,4,3.92q28.87-.13,57.74,0c2.65,0,3.48-.86,3.37-3.54-.22-5.58-.12-11.17-.06-16.75,0-4.19.67-4.58,4.78-4.76C98.86,65.63,100,67,100,70.37c-.11,15.92,0,31.84-.07,47.76,0,9.38-5,14.26-14.34,14.26H31c-9.37,0-14.52-5-14.57-14.54-.09-17.7,0-35.4,0-53.11,0-1.07-.07-2.14,0-3.21.16-2.46-1-3.41-3.4-3.32-2.24.09-4.51.23-6.68-.68A9.67,9.67,0,0,1,1.28,44.2q9.89-19,20.29-37.64C24.31,1.65,29,0,34.57,0c21.74.08,43.48,0,65.23,0,10.69,0,21.39.08,32.08,0,6.4-.07,10.8,2.73,13.77,8.32,5.92,11.11,12,22.12,18,33.22,5,9.43.79,16.71-9.85,16.59-3.7,0-4.62,1.27-4.6,4.77.13,20.55.07,41.11.06,61.66,0,1.31,0,2.62-.09,3.92-.18,2.35-1.43,3.71-3.85,3.83a4.07,4.07,0,0,1-4.56-3.16,16.69,16.69,0,0,1-.31-4.24q0-30.83,0-61.66c0-5,0-5-5.18-5Zm0-8.81q34.92,0,69.84,0c4.43,0,4.74-.55,2.67-4.4-5.77-10.78-11.6-21.54-17.31-32.36a6.29,6.29,0,0,0-6.2-3.79Q83,9,34.18,8.9a5.7,5.7,0,0,0-5.61,3.46C22.8,23.14,16.88,33.84,11,44.59c-2.45,4.5-2.23,4.85,3,4.85ZM58.16,99.64c-9.61,0-19.22.05-28.84,0-2.5,0-3.74.69-3.68,3.41.12,5.34,0,10.68.06,16,0,3,1.34,4.61,4.54,4.6q27.95-.06,55.89,0c3.17,0,4.52-1.45,4.49-4.56-.06-5.1-.17-10.21,0-15.31.15-3.37-1.22-4.25-4.39-4.19C76.91,99.74,67.54,99.64,58.16,99.64Z"/></svg>