<svg id="圖層_1" data-name="圖層 1" xmlns="http://www.w3.org/2000/svg" viewBox="0 0 165.94 132.44"><defs><style>.cls-1{fill:#fff;}</style></defs><title>icon</title><path class="cls-1" d="M53.14,124.42c-11.4,0-22.81,0-34.21,0C7.2,124.38,0,117.22,0,105.5Q0,75,0,44.56C0,31.76,6.63,25,19.44,24.64c3.56-.09,7.13-.07,10.69,0,2.26,0,3.35-.8,2.94-3.2-.53-3.09,0-6.16.26-9.23C34,5,38.38.34,45.51.2q21-.41,42,0c7.07.13,11.69,5.14,12.25,12.4a43.35,43.35,0,0,1,0,7.47c-.36,3.72,1.25,4.76,4.74,4.61a77.79,77.79,0,0,1,13.52.39A16.68,16.68,0,0,1,132.73,41c.05,1.3,0,2.61,0,3.92,0,5.26-.75,5.85-6,5.34-1.93-.19-2.78-1-2.75-2.93,0-1.66,0-3.33,0-5-.17-5.8-2.81-8.44-8.65-8.44q-37.42,0-74.84,0c-7.6,0-15.2,0-22.81,0-6,0-8.35,2.39-8.39,8.48,0,6.41.13,12.83-.07,19.24-.1,3.3,1.12,4.28,4.34,4.27,24.71-.1,49.42-.06,74.12-.05,1.07,0,2.14,0,3.21,0,1.75.08,2.32.64,1.36,2.46-2.32,4.39-5.13,7-10.81,6.5-7.67-.65-15.43-.07-23.15-.2-3-.05-4,1.06-3.91,4,.2,9.16-1,7.92,8,8,5.94.05,11.88,0,17.82,0,1.74,0,4.07-.2,3.54,2.58-.45,2.4,1.16,6.24-3.7,6.2-8.67-.07-17.34.07-26-.07-5.16-.09-8.12-3.12-8.38-8.28-.15-3-.11-5.94,0-8.91,0-2.34-.82-3.51-3.32-3.49q-14.79.09-29.58,0c-2.42,0-3.44,1-3.43,3.41,0,10-.07,20,.07,29.93.07,5,3.24,7.61,8.79,7.62q32.25,0,64.5,0c5.41,0,7.65,1.55,9.54,6.51,1,2.54-1,2.22-2.29,2.24-5,.09-10,0-15,0ZM66.55,24.62H80.08c11.39,0,11.35,0,10.52-11.58-.2-2.79-1.48-4.1-4.24-4.1q-19.76,0-39.51,0c-3.29,0-4.75,1.64-4.68,4.87.05,2.37.12,4.75,0,7.12-.18,2.81,1,3.78,3.76,3.73C52.79,24.54,59.67,24.61,66.55,24.62Z"/><path class="cls-1" d="M128.3,132.39c-17.41,1-37.08-13.53-37.48-37.21-.34-20.58,16.94-37.37,37.84-37.32,20.49,0,37.42,16.61,37.27,37.16C165.76,118.68,146.05,133.4,128.3,132.39Zm28.48-37.14a28.43,28.43,0,1,0-28.45,28.36A27.9,27.9,0,0,0,156.78,95.26Z"/><path class="cls-1" d="M124,86.73c0-2.61-.08-5.22,0-7.82.11-2.85,1.79-4.44,4.55-4.4s4.06,1.77,4.14,4.4q.14,4.44,0,8.89c0,2.1.85,3,3,3a38.91,38.91,0,0,1,5.32.14c2.39.27,4,1.54,4,4.15s-1.4,4.2-3.78,4.34a118.09,118.09,0,0,1-13.13,0c-2.53-.14-4-1.88-4.12-4.53S124,89.45,124,86.73Z"/></svg>