<svg id="圖層_1" data-name="圖層 1" xmlns="http://www.w3.org/2000/svg" viewBox="0 0 165.94 132.44"><defs><style>.cls-1{fill:#fff;}</style></defs><title>icon</title><path class="cls-1" d="M24.81,66.25q0-23.69,0-47.38C24.83,7,31.76.09,43.67.07Q83,0,122.4.07c11.67,0,18.7,7,18.71,18.62q.06,47.91,0,95.82c0,10.88-7.06,17.87-17.82,17.87q-40.43,0-80.86,0c-10.48,0-17.57-7.09-17.6-17.7C24.78,98.54,24.81,82.4,24.81,66.25Zm8.82-.33q0,23.88,0,47.76c0,7.31,2.62,9.93,9.8,9.94q39.39,0,78.77,0c7.43,0,10.08-2.54,10.1-10q.08-47.23,0-94.46c0-7.59-2.77-10.19-10.42-10.19q-39,0-78.06,0c-7.64,0-10.18,2.56-10.2,10.3Q33.61,42.57,33.63,65.91Z"/><path class="cls-1" d="M93.28,95c7.12,0,14.23,0,21.35,0,3.73,0,5.81,1.65,5.61,4.43-.24,3.3-2.54,4.35-5.44,4.36-14.35,0-28.7.05-43.06,0-3.56,0-5.7-2-5.43-4.73C66.63,95.69,69,95,71.93,95,79,95,86.16,95,93.28,95Z"/><path class="cls-1" d="M93.33,37.64H72c-2.85,0-5.3-.67-5.68-4-.32-2.8,1.6-4.69,5.39-4.72q21.51-.19,43,0c3.83,0,5.81,1.87,5.51,4.59-.39,3.52-2.9,4.2-5.92,4.18C107.32,37.62,100.32,37.65,93.33,37.64Z"/><path class="cls-1" d="M97.43,61.66h16a8.63,8.63,0,0,1,4.48.9,4.23,4.23,0,0,1,2.28,4.13,3.73,3.73,0,0,1-3,3.57,21.79,21.79,0,0,1-4.92.61q-14.78.08-29.57,0a28.93,28.93,0,0,1-4.94-.53,3.63,3.63,0,0,1-3.15-3.74c-.13-2.18.8-3.76,2.89-4.34a18.15,18.15,0,0,1,4.56-.58C87.22,61.61,92.32,61.66,97.43,61.66Z"/><path class="cls-1" d="M68.52,60.3a5.26,5.26,0,0,1-2,3.66c-3.6,3.61-7.17,7.26-10.83,10.8-2.78,2.69-4.62,2.7-7.36.12-1.9-1.79-3.73-3.65-5.5-5.56s-2-3.79-.23-5.72,4-2.34,5.66-.52c3.41,3.78,5.51,1.56,7.94-1A60.09,60.09,0,0,1,62,56.77a3.53,3.53,0,0,1,4.32-.27A4.11,4.11,0,0,1,68.52,60.3Z"/><path class="cls-1" d="M49.7,39.67c-5,0-6.35-1.49-6.3-6.73,0-4.55,1.84-6.25,6.61-6.27s6.42,1.64,6.39,6.72S55,39.71,49.7,39.67Z"/><path class="cls-1" d="M49.87,92.84c5.09,0,6.54,1.42,6.54,6.51,0,4.93-1.49,6.49-6.21,6.52-5.1,0-6.76-1.52-6.79-6.36C43.38,94.43,44.89,92.87,49.87,92.84Z"/></svg>