<?xml version="1.0" encoding="utf-8"?>
<!-- Generator: Adobe Illustrator 20.1.0, SVG Export Plug-In . SVG Version: 6.00 Build 0)  -->
<svg version="1.1" id="圖層_1" xmlns="http://www.w3.org/2000/svg" xmlns:xlink="http://www.w3.org/1999/xlink" x="0px" y="0px"
	 viewBox="0 0 50 50" style="enable-background:new 0 0 50 50;" xml:space="preserve">
<style type="text/css">
	.st0{fill:#612E2C;}
	.st1{fill:#FFFFFF;}
</style>
<path class="st0" d="M49,45.5c0,1.1-1,2-2.2,2H3.3c-1.2,0-2.2-0.9-2.2-2v-41c0-1.1,1-2,2.2-2h43.5c1.2,0,2.2,0.9,2.2,2V45.5z"/>
<g>
	<path class="st1" d="M41.7,13.9c0,1-0.7,1.9-1.5,1.9H10c-0.8,0-1.5-0.8-1.5-1.9l0,0c0-1,0.7-1.9,1.5-1.9h30.2
		C41,12,41.7,12.8,41.7,13.9L41.7,13.9z"/>
	<path class="st1" d="M41.7,25c0,1-0.7,1.9-1.5,1.9H10c-0.8,0-1.5-0.8-1.5-1.9l0,0c0-1,0.7-1.9,1.5-1.9h30.2
		C41,23.1,41.7,24,41.7,25L41.7,25z"/>
	<path class="st1" d="M41.7,36.1c0,1-0.7,1.9-1.5,1.9H10c-0.8,0-1.5-0.8-1.5-1.9l0,0c0-1,0.7-1.9,1.5-1.9h30.2
		C41,34.3,41.7,35.1,41.7,36.1L41.7,36.1z"/>
</g>
</svg>
