<?xml version="1.0" encoding="utf-8"?>
<!-- Generator: Adobe Illustrator 20.1.0, SVG Export Plug-In . SVG Version: 6.00 Build 0)  -->
<svg version="1.1" id="圖層_1" xmlns="http://www.w3.org/2000/svg" xmlns:xlink="http://www.w3.org/1999/xlink" x="0px" y="0px"
	 viewBox="0 0 50 50" style="enable-background:new 0 0 50 50;" xml:space="preserve">
<style type="text/css">
	.st0{fill:#257D48;}
</style>
<g id="圖層_2">
</g>
<g>
	<path class="st0" d="M43.5,13.9h-37c-0.8,0-1.5-0.7-1.5-1.5V9c0-0.8,0.7-1.5,1.5-1.5h37C44.3,7.5,45,8.1,45,9v3.5
		C45,13.3,44.3,13.9,43.5,13.9z"/>
	<path class="st0" d="M43.5,28.2h-37c-0.8,0-1.5-0.7-1.5-1.5v-3.5c0-0.8,0.7-1.5,1.5-1.5h37c0.8,0,1.5,0.7,1.5,1.5v3.5
		C45,27.6,44.3,28.2,43.5,28.2z"/>
	<path class="st0" d="M43.5,42.5h-37C5.7,42.5,5,41.9,5,41v-3.5c0-0.8,0.7-1.5,1.5-1.5h37c0.8,0,1.5,0.7,1.5,1.5V41
		C45,41.9,44.3,42.5,43.5,42.5z"/>
</g>
</svg>
