<?xml version="1.0" encoding="utf-8"?>
<!-- Generator: Adobe Illustrator 16.0.0, SVG Export Plug-In . SVG Version: 6.00 Build 0)  -->
<!DOCTYPE svg PUBLIC "-//W3C//DTD SVG 1.1//EN" "http://www.w3.org/Graphics/SVG/1.1/DTD/svg11.dtd">
<svg version="1.1" id="圖層_1" xmlns="http://www.w3.org/2000/svg" xmlns:xlink="http://www.w3.org/1999/xlink" x="0px" y="0px"
	 width="50px" height="50px" viewBox="0 0 50 50" enable-background="new 0 0 50 50" xml:space="preserve">
<path fill="#CCCCCC" d="M44.893,42.25c0,0.051-4.198,0.16-9.796,0c-2.8-0.214-5.948-0.223-9.097-0.014
	c-3.149,0.482-6.298,0.221-9.097,0.014c-5.598-0.149-9.796,0.584-9.796,0c-0.725,0.032-1.313-1.502-1.313-1.688
	c0,0.152,0-2.715,0-2.81c0-2.121,0.588-1.195,1.313-1.688c0-0.682,4.198-0.313,9.796,0c2.799,0.178,5.947-0.025,9.097,0
	c3.148-0.014,6.297-0.176,9.097,0c5.598,0.367,9.796,0.485,9.796,0c0.725-0.253,1.313-0.059,1.313,1.688c0-0.056,0,3.167,0,2.81
	C46.205,41.635,45.617,42.304,44.893,42.25z M44.893,27.966c0,0.974-4.198,0.436-9.796,0c-2.8-0.189-5.948-0.523-9.097-0.035
	c-3.149-0.53-6.298,0.549-9.097,0.035c-5.598-0.098-9.796,0.192-9.796,0c-0.725,0.008-1.313-0.914-1.313-1.686
	c0-0.299,0-3.034,0-2.812c0-0.644,0.588-2.575,1.313-1.686c0-0.452,4.198,0.363,9.796,0c2.799,0.402,5.947-0.352,9.097,0
	c3.148-0.804,6.297,0.861,9.097,0c5.598,0.667,9.796,0.205,9.796,0c0.725,0.375,1.313,0.601,1.313,1.686c0,0.441,0,2.74,0,2.812
	C46.205,27.427,45.617,27.612,44.893,27.966z M44.893,13.682c0-0.183-4.198-0.016-9.796,0c-2.8-0.708-5.948-0.109-9.097,0
	c-3.149-0.188-6.298-0.18-9.097,0c-5.598,0.096-9.796-0.259-9.796,0c-0.725,0.115-1.313,0.03-1.313-1.686c0-0.019,0-2.371,0-2.81
	c0-1.276,0.588-0.94,1.313-1.686c0,0.899,4.198,0.035,9.796,0C19.702,7.878,22.851,7.865,26,7.481
	c3.148-0.58,6.297,0.205,9.097,0.019c5.598-0.147,9.796-0.095,9.796,0c0.725,0.391,1.313,0.719,1.313,1.686c0-0.199,0,3.721,0,2.81
	C46.205,12.629,45.617,13.445,44.893,13.682z"/>
</svg>
